<?xml version="1.0" encoding="UTF-8"?><svg id="_レイヤー_1" xmlns="http://www.w3.org/2000/svg" viewBox="0 0 280 280"><g id="_グループ_6451"><g id="_グループ_6451-2"><path id="_パス_8285-2" d="m204.88,209.56s16.87-14.1,23.9-66.06c5.03-37.19,9.71-81.98-4.95-81.98-12.7,0-7.93,28.32-12.61,63.45-2.19,17.14-6.78,33.89-13.65,49.74,0,0-4.17,32.07,7.31,34.85Z"/><path id="_パス_8286-2" d="m205.25,208.85c-.5,0-.98-.2-1.33-.56-.71-.73-.7-1.9.03-2.62,2.7-2.64,5.26-6.22,8.95-15.13,1.07-2.59,3.9-9.7,6.97-19.72,3-9.69,5.37-19.57,7.09-29.58,2.49-16.96,3.73-34.08,3.71-51.23,0-.81.02-1.57.03-2.27,0-.63.06-1.38.11-2.24.28-3.32.24-6.65-.1-9.96-.12-1.02.61-1.94,1.63-2.06h0c1.02-.12,1.94.61,2.06,1.63h0c.37,3.53.4,7.09.12,10.62-.05.81-.09,1.52-.1,2.07-.01.7-.02,1.46-.03,2.27.02,17.33-1.24,34.63-3.76,51.78-3,17.15-7.79,33.94-14.29,50.1-1.43,3.58-3.12,7.05-5.08,10.37-1.31,2.19-2.89,4.2-4.7,5.99-.34.34-.81.54-1.3.54Z" fill="#4d4d4d"/><path id="_パス_8287-2" d="m200.5,169.74c-.26,0-.53-.06-.77-.17-.92-.43-1.33-1.51-.91-2.44,4.5-9.9,7.76-25.45,11.57-47.34,1.78-11.21,2.62-22.56,2.52-33.91-.15-5.68.21-11.37,1.08-16.98.37-2.07,1.18-4.03,2.38-5.75,1.21-1.63,2.96-2.78,4.93-3.25,2.16-.5,4.43-.07,6.26,1.18,1.37.89,2.55,2.04,3.46,3.39.93,1.33,1.58,2.83,1.91,4.41.2,1-.45,1.98-1.45,2.18-1,.2-1.98-.45-2.18-1.45-.5-2.21-1.84-4.13-3.72-5.39-.98-.69-2.2-.95-3.38-.72-3.03.76-4.02,3.55-4.57,6.18-.8,5.38-1.13,10.81-1,16.25.1,11.55-.76,23.09-2.58,34.5-3.86,22.17-7.18,37.97-11.84,48.24-.31.66-.97,1.08-1.7,1.07Z" fill="#4d4d4d"/></g><g id="_グループ_6452"><path id="_パス_8288-2" d="m86.77,44.91c-9.6,0-18.22-1.04-28.72,8.46-11.75,10.63-10.91,21.74-10.79,31.29s8.25,21.5,9.8,24.09c1.55,2.59,1.45,12.43,1.45,12.43,12.65.37,25.3-.55,37.76-2.74,12.8-2.04,24.97-6.93,35.63-14.3.33-.19.44-.61.25-.93-.07-.13-.19-.23-.32-.29-2.59-1.01-4.49-3.25-5.05-5.97-.75-5.49.88-6.2,1-15.75.13-9.55.54-16.19-11.21-26.82-10.5-9.5-19.48-9.45-29.08-9.45h-.72Z"/><path id="_パス_8289-2" d="m192.7,144.81c-13.7-27.21-43.22-34.52-43.22-34.52h0c-7.62-3.4-20.05-8.94-20.05-8.94-11.22,4.5-22.76,8.17-34.52,10.98-14.65,2.97-29.42,1.89-35.78,5.68,0,0-5.02,25.39-2.07,38.6,3.67,15.77,9.66,30.9,17.77,44.92,4.6,8.54,5.48,18.59,2.44,27.8,0,0-3.74,5.44-1.74,10.22,1.99,4.78,5.71,5.49,11.38,4.57,5.11-.81,5.18-3.05,10.86-3.05s6.5,4,16.99,2.5c7.48-1.07,10.5-5,10.63-10.08-.27-1.93-.78-3.83-1.52-5.63h0s3.39-.54,6.85,4.43c.89,1.27-1,4.8,1.52,7.53s1.46,3.82,8.1,3.54,25.45,2.48,31.75-.91c6.3-3.39,28.87-13.63,32.63-33.14,4.3-22.39,3.99-32.73-12-64.48Z"/><path id="_パス_8290-2" d="m122.88,203.48c.35.98-.99,13.89-.49,20.43-.02,3.42,1.03,6.77,2.99,9.57-.13,5.08-3.15,9.01-10.64,10.08-10.5,1.5-11.34-2.5-17-2.5s-5.75,2.25-10.86,3.05c-5.67.89-9.39.2-11.39-4.57-.97-2.32,3.5-10.33,3.99-18.55.13-5.98-.86-11.94-2.92-17.55,3.54-.64,7.13-.97,10.73-.98,5.85,0,9.76,1.95,12.68,1.95s7.8-1.95,11.7-1.95,11.22,1.02,11.22,1.02Z" fill="#fff"/><path id="_パス_8291-2" d="m99.94,190.75c-4.06-.45-7.97-1.8-11.43-3.96-4.28-2.71-7.69-6.59-9.82-11.19-.41-.94.02-2.03.96-2.44h0c.94-.41,2.03.02,2.44.96h0c1.82,3.86,4.69,7.14,8.28,9.45,2.19,1.29,4.54,2.29,6.98,2.97.9.26,1.82.43,2.74.51h0l-.16,3.69Z" fill="#4d4d4d"/><path id="_パス_8292-2" d="m101.12,233.3h-.05c-1.02-.03-1.83-.88-1.81-1.9,0-.09.22-8.9-.11-18.87-.16-5.73-.81-11.43-1.94-17.05-.23-1,.4-1.99,1.4-2.22,1-.23,1.99.4,2.22,1.4,1.19,5.85,1.87,11.79,2.03,17.75.33,10.08.11,19,.11,19.09-.03,1-.85,1.8-1.85,1.8Z" fill="#4d4d4d"/><path id="_パス_8293" d="m70.73,49.46s-16.72-15.32-20.97-12.81,1.46,28.42,1.46,28.42c2.55-4.22,5.87-7.92,9.79-10.92,3.13-1.78,6.37-3.35,9.71-4.7Z"/><path id="_パス_8294" d="m102.87,49.46s16.33-15.32,20.58-12.81-1.08,28.42-1.08,28.42c-2.74-4.2-6.18-7.89-10.18-10.92-3.02-1.74-6.14-3.31-9.33-4.7Z"/><path id="_パス_8295" d="m50.33,60.49c-1.02,0-1.85-.83-1.85-1.85h0c0-.58-.37-2.74-.72-4.81-.57-3.32-1.27-7.45-1.58-10.98-.17-1.59-.2-3.2-.08-4.8.07-.73.3-2.95,2.03-3.73,1.68-.51,3.5-.37,5.09.37,2,.71,3.95,1.58,5.81,2.59,3.46,1.69,6.63,3.92,9.38,6.62.63.81.48,1.97-.33,2.6s-1.97.48-2.6-.33c-2.35-2.19-5-4.03-7.88-5.45-1.67-.92-3.4-1.72-5.18-2.38-.81-.33-1.66-.54-2.52-.63-.28,1.91-.26,3.85.06,5.76.33,3.17.95,6.8,1.45,9.72.37,1.79.63,3.61.78,5.44,0,1.02-.82,1.86-1.84,1.87h-.01Z" fill="#4d4d4d"/><path id="_パス_8296" d="m123.71,60.49c-1.02,0-1.85-.83-1.85-1.85h0c.15-1.83.41-3.64.78-5.44.5-2.92,1.12-6.55,1.45-9.72.32-1.91.34-3.85.06-5.76-.87.09-1.71.3-2.52.63-1.78.67-3.52,1.46-5.18,2.38-2.88,1.42-5.53,3.26-7.88,5.45-.63.81-1.79.96-2.6.33s-.96-1.79-.33-2.6c2.75-2.7,5.92-4.93,9.38-6.62,1.87-1.02,3.81-1.88,5.81-2.59,1.59-.74,3.4-.87,5.09-.37,1.72.78,1.95,3,2.03,3.73.12,1.6.1,3.21-.08,4.8-.3,3.52-1.01,7.65-1.58,10.98-.36,2.08-.72,4.24-.72,4.81,0,1.02-.83,1.84-1.85,1.84Z" fill="#4d4d4d"/><path id="_パス_8297" d="m60.94,116.01l-3.66-.51v.04c.01-.6-.06-1.21-.22-1.79-.48-1.86-1.24-3.64-2.26-5.27-.42-.71-.91-1.48-1.41-2.28-2.09-3.15-3.87-6.49-5.31-9.99-1.89-4.85-2.84-10.01-2.79-15.21.04-6.28,1.17-12.51,3.33-18.41.38-.95,1.46-1.41,2.41-1.03.95.38,1.41,1.46,1.03,2.41h0c-.61,1.65-1.12,3.34-1.52,5.05-.98,3.92-1.49,7.95-1.52,11.99-.04,4.74.82,9.44,2.54,13.86,1.36,3.28,3.03,6.41,5,9.37.52.83,1.01,1.61,1.46,2.37,1.95,2.75,2.98,6.05,2.93,9.42Z" fill="#4d4d4d"/><path id="_パス_8298" d="m84.13,245.54c-2.57.09-5.11-.56-7.32-1.86-2.49-1.63-3.94-4.43-3.84-7.4-.15-2.29.64-4.54,2.2-6.22,1.13-1.19,1.68-2.82,1.52-4.45v-1.56c.38-6.41-.4-12.83-2.29-18.96-1.16-2.73-2.52-5.37-4.08-7.9-5.94-9.83-10.48-20.44-13.48-31.52-1.22-4.84-1.93-9.8-2.1-14.79-.2-4.75-.12-9.5.23-14.24.34-5.05.96-10.07,1.84-15.05.19-1.01,1.17-1.66,2.17-1.47s1.66,1.17,1.47,2.17c-.86,4.85-1.46,9.75-1.79,14.66-.34,4.59-.41,9.19-.22,13.78.16,4.72.83,9.4,1.98,13.98,2.93,10.77,7.34,21.09,13.11,30.64,1.66,2.7,3.11,5.53,4.33,8.45,2.07,6.54,2.92,13.41,2.52,20.26,0,.52,0,1.04,0,1.55.17,2.5-.69,4.96-2.37,6.81-1,1.01-1.5,2.41-1.35,3.82-.11,1.73.71,3.38,2.15,4.34,1.61.91,3.45,1.35,5.31,1.27h.08c2.2.03,4.38-.36,6.43-1.15.73-.28,1.41-.66,2.04-1.13h-.02l2.47,2.76c-.86.7-1.82,1.27-2.85,1.68-2.56,1.04-5.3,1.56-8.06,1.52l-.1.02Z" fill="#4d4d4d"/><path id="_パス_8299" d="m201.57,171.15c-.97,0-1.78-.75-1.85-1.73-.67-5.22-2.13-10.31-4.33-15.09-2.33-5.3-5.28-10.32-8.78-14.94-4.67-6.14-10.11-11.66-16.19-16.4-7.63-5.51-16.14-9.7-25.17-12.39-4.5-1.42-8.87-3.24-13.04-5.43-1.81-1.01-3.46-2.29-4.88-3.8-1.4-1.52-2.44-3.33-3.05-5.3-.53-2.97-.35-6.01.52-8.9.74-3.15,1.12-6.37,1.13-9.6-.2-4.67-1.48-9.24-3.73-13.34-.53-.88-.24-2.01.63-2.54.88-.53,2.01-.24,2.54.63,2.59,4.65,4.05,9.83,4.27,15.15,0,3.51-.4,7.01-1.2,10.43-.69,2.3-.89,4.71-.61,7.09,1.09,3.06,3.33,5.56,6.24,6.98,3.98,2.08,8.13,3.8,12.42,5.14,3.96,1.4,8.45,2.98,12.9,5.01,4.75,2.11,9.22,4.78,13.33,7.96,6.37,4.97,12.07,10.75,16.94,17.2,3.67,4.87,6.76,10.16,9.21,15.75,2.35,5.11,3.89,10.56,4.56,16.15.07,1.02-.7,1.91-1.72,1.98h-.13Z" fill="#4d4d4d"/><path id="_パス_8300" d="m112.57,245.98c-.98,0-1.96-.07-2.94-.21-3.52-.19-6.82-1.79-9.15-4.45-.8-1.14-1.07-2.57-.73-3.93.25-.99,1.26-1.59,2.25-1.34.99.25,1.59,1.26,1.34,2.25-.08.33,0,.69.21.95,1.76,1.74,4.11,2.75,6.58,2.84,2.25.36,4.56.19,6.74-.48,1.88-.58,3.54-1.73,4.73-3.29.95-1.2,1.38-2.73,1.2-4.25-.23-1.52-.68-2.99-1.32-4.38-.16-.39-.3-.76-.45-1.13-.5-2.04-.64-4.14-.41-6.23.07-2.66.27-5.99.61-9.66.36-5.59,1.16-11.13,2.38-16.6.33-.97,1.38-1.49,2.35-1.16.97.33,1.49,1.38,1.16,2.35-1.12,5.14-1.85,10.36-2.19,15.61-.3,3.56-.52,6.81-.59,9.41-.15,1.66-.1,3.33.17,4.97.12.33.27.67.42,1.04.78,1.72,1.32,3.54,1.58,5.42.27,2.44-.42,4.9-1.92,6.84-1.66,2.16-3.94,3.76-6.54,4.57-1.77.57-3.62.85-5.48.84Z" fill="#4d4d4d"/><path id="_パス_8301" d="m162.79,245.21c-1.94,0-3.63-.04-5.38-.08s-3.6-.08-5.75-.08h-.14c-1.72,0-5.04-.04-8.4-.28-3.07-.09-6.12-.64-9.03-1.61-1.88-.68-3.45-2-4.45-3.73-.89-1.85-1.11-3.96-.61-5.96,1.02-3.58,3.87-6.35,7.49-7.25,1.9-.68,3.86-1.14,5.86-1.37,1.02-.1,1.92.65,2.02,1.67,0,0,0,0,0,0,.1,1.02-.65,1.92-1.67,2.02h0c-1.71.2-3.39.6-5,1.19-1.22.42-2.37,1.05-3.38,1.85-.85.65-1.45,1.57-1.68,2.62-.32,1.16-.23,2.4.26,3.5.6.97,1.51,1.69,2.59,2.05,2.55.83,5.21,1.28,7.89,1.34,3.24.24,6.46.27,8.12.27h.14c2.2,0,4.05.04,5.84.08,3.48.08,6.77.15,12.23-.08,2.44-.27,4.8-.99,6.97-2.13,3.16-1.54,6.15-3.39,8.96-5.5,6.28-4.52,11.57-10.28,15.55-16.92,1.65-3.2,2.64-6.69,2.92-10.28.35-3.69.32-7.41-.07-11.11-.41-4.21-1.17-8.38-2.26-12.47-.28-.98.28-2.01,1.27-2.3.98-.28,2.01.28,2.3,1.27,1.16,4.28,1.95,8.66,2.38,13.07.42,3.95.45,7.94.08,11.89-.33,4.09-1.47,8.07-3.35,11.72-2.02,3.55-4.46,6.85-7.28,9.81-2.85,3.03-5.96,5.81-9.29,8.29-3,2.26-6.21,4.23-9.58,5.88-2.61,1.36-5.47,2.21-8.4,2.48-2.87.11-5.14.15-7.14.15Z" fill="#4d4d4d"/><path id="_パス_8302" d="m103.63,50.21c-.23,0-.47-.04-.69-.13-5.77-2.13-11.85-3.28-17.99-3.42-4.95-.19-9.87.93-14.25,3.25-.86.55-2.01.31-2.56-.55-.55-.86-.31-2.01.55-2.56,4.98-2.72,10.59-4.04,16.26-3.84,4.54.05,9.06.66,13.46,1.83,2,.5,3.97,1.12,5.89,1.84.95.38,1.42,1.46,1.04,2.41,0,0,0,0,0,0-.28.7-.96,1.16-1.71,1.17Z" fill="#4d4d4d"/></g></g></svg>