<?xml version="1.0" encoding="UTF-8"?><svg id="_レイヤー_1" xmlns="http://www.w3.org/2000/svg" viewBox="0 0 280 280"><g id="_グループ_6508"><g id="_グループ_6505"><path id="_パス_8512-2" d="m204.89,209.52s16.86-14.09,23.89-66.04c5.03-37.18,9.71-81.96-4.95-81.96-12.69,0-7.93,28.31-12.6,63.42-2.19,17.14-6.78,33.88-13.65,49.73,0,0-4.17,32.09,7.31,34.85Z"/><path id="_パス_8513-2" d="m205.25,208.81c-.5,0-.98-.2-1.33-.56-.71-.73-.7-1.9.03-2.62,2.7-2.64,5.25-6.22,8.95-15.13,1.07-2.59,3.9-9.7,6.97-19.71,3-9.69,5.37-19.57,7.09-29.58,2.49-16.96,3.72-34.07,3.71-51.21,0-.81.02-1.57.04-2.27,0-.63.06-1.38.11-2.24.28-3.32.24-6.65-.1-9.96-.12-1.02.61-1.94,1.63-2.06h0c1.02-.12,1.94.61,2.06,1.63h0c.37,3.53.4,7.08.12,10.62-.05.81-.09,1.52-.1,2.06,0,.7-.02,1.45-.03,2.27.02,17.32-1.24,34.63-3.76,51.77-3,17.15-7.78,33.94-14.29,50.09-1.42,3.58-3.12,7.05-5.08,10.37-1.31,2.19-2.89,4.2-4.7,5.99-.34.35-.81.54-1.3.55Z" fill="#4d4d4d"/><path id="_パス_8514-2" d="m200.51,169.7c-.26,0-.53-.06-.77-.17-.92-.43-1.33-1.51-.91-2.44,4.49-9.9,7.76-25.45,11.56-47.33,1.78-11.21,2.62-22.55,2.52-33.9-.15-5.68.21-11.36,1.08-16.98.37-2.07,1.18-4.03,2.37-5.75,1.21-1.63,2.95-2.78,4.93-3.25,2.16-.5,4.43-.07,6.26,1.18,1.37.89,2.55,2.04,3.46,3.39.93,1.33,1.58,2.83,1.91,4.41.2,1-.45,1.98-1.45,2.18-1,.2-1.98-.45-2.18-1.45-.5-2.21-1.83-4.13-3.72-5.39-.98-.69-2.2-.95-3.38-.72-3.03.76-4.01,3.55-4.57,6.18-.8,5.38-1.13,10.81-1,16.25.1,11.55-.76,23.09-2.58,34.49-3.85,22.17-7.18,37.97-11.84,48.23-.31.66-.97,1.08-1.7,1.07Z" fill="#4d4d4d"/></g><g id="_グループ_6507"><path id="_パス_8515-2" d="m86.76,44.91c-9.6,0-18.21-1.04-28.71,8.46-11.75,10.63-10.91,21.73-10.79,31.29s8.25,21.5,9.79,24.07c1.54,2.57,1.45,12.43,1.45,12.43,12.64.37,25.29-.55,37.75-2.74,12.79-2.04,24.96-6.93,35.62-14.3.33-.19.44-.61.25-.93-.07-.13-.19-.23-.32-.29-2.59-1-4.49-3.25-5.05-5.97-.75-5.49.88-6.2,1-15.75.13-9.55.54-16.18-11.21-26.81-10.5-9.5-19.47-9.45-29.07-9.45h-.71Z"/><path id="_パス_8516-2" d="m192.71,144.83c-13.71-27.21-43.22-34.51-43.22-34.51h0c-7.62-3.4-20.05-8.94-20.05-8.94-11.22,4.51-22.76,8.17-34.53,10.98-14.65,2.97-29.42,1.89-35.78,5.68,0,0-5.02,25.38-2.07,38.59,3.67,15.76,9.66,30.9,17.77,44.91,4.6,8.53,5.48,18.59,2.44,27.79,0,0-3.74,5.44-1.74,10.22,1.99,4.78,5.71,5.49,11.38,4.57,5.11-.81,5.18-3.05,10.86-3.05s6.5,4,16.99,2.5c7.48-1.07,9.86-13.6,9.1-15.71h0s3.39-.54,6.85,4.43c.89,1.27-1,4.8,1.52,7.53,2.52,2.73,1.46,3.82,8.1,3.54,6.64-.28,25.45,2.48,31.75-.91,6.3-3.39,28.87-13.63,32.63-33.13,4.31-22.4,3.99-32.72-12-64.48Z"/><g id="_グループ_6506"><path id="_パス_8517-2" d="m77.06,206.28c-.35.91,3.88,14.94,1.46,20.58-2.92,6.82-7.64,15.53,2.92,16.58,5.07.5,15.71-.96,18.53-2.92,3.9-2.72,0-8.14,0-12.68,0-5.45-.98-22.49-.98-22.49-3.54-.6-7.13-.9-10.72-.91-3.83-.23-7.66.4-11.21,1.86Z" fill="#fff"/></g><path id="_パス_8518-2" d="m99.94,190.74c-4.06-.45-7.96-1.8-11.43-3.96-4.28-2.71-7.69-6.59-9.82-11.18-.41-.94.02-2.03.96-2.44,0,0,0,0,0,0,.94-.41,2.03.02,2.44.96,0,0,0,0,0,0,1.82,3.86,4.69,7.14,8.27,9.45,2.19,1.29,4.53,2.29,6.98,2.97.9.26,1.82.43,2.74.51h0l-.16,3.69Z" fill="#4d4d4d"/><path id="_パス_8519-2" d="m101.12,233.3h-.05c-1.02-.03-1.83-.88-1.81-1.9,0-.09.22-8.9-.11-18.87-.16-5.73-.81-11.43-1.94-17.05-.23-1,.4-1.99,1.4-2.22,1-.23,1.99.4,2.22,1.4,1.19,5.85,1.87,11.78,2.03,17.75.33,10.08.11,18.99.11,19.08-.03,1-.85,1.8-1.85,1.81Z" fill="#4d4d4d"/><path id="_パス_8520" d="m70.73,49.46s-16.71-15.31-20.96-12.81c-4.25,2.51,1.46,28.42,1.46,28.42,2.55-4.22,5.87-7.92,9.79-10.92,3.13-1.78,6.38-3.35,9.71-4.69Z"/><path id="_パス_8521" d="m102.88,49.46s16.33-15.31,20.58-12.81c4.25,2.51-1.08,28.42-1.08,28.42-2.74-4.2-6.18-7.89-10.17-10.92-3.02-1.73-6.13-3.3-9.33-4.69Z"/><path id="_パス_8522" d="m50.33,60.49c-1.02,0-1.85-.83-1.85-1.85,0-.58-.37-2.74-.72-4.81-.57-3.32-1.27-7.44-1.58-10.98-.17-1.59-.2-3.2-.08-4.8.08-.73.3-2.95,2.03-3.73,1.68-.5,3.49-.37,5.09.37,2,.71,3.95,1.58,5.81,2.59,3.46,1.68,6.63,3.92,9.38,6.61.63.81.48,1.97-.33,2.6-.81.63-1.97.48-2.6-.33-2.35-2.19-5-4.02-7.88-5.44-1.67-.92-3.4-1.72-5.18-2.38-.81-.33-1.66-.54-2.52-.63-.28,1.91-.26,3.85.06,5.76.33,3.17.95,6.8,1.45,9.72.37,1.79.63,3.61.77,5.44,0,1.02-.82,1.86-1.84,1.86h0Z" fill="#4d4d4d"/><path id="_パス_8523" d="m123.71,60.49c-1.02,0-1.85-.83-1.85-1.85h0c.15-1.83.41-3.64.77-5.44.5-2.92,1.12-6.55,1.45-9.72.32-1.9.34-3.85.06-5.76-.87.09-1.71.3-2.52.63-1.78.67-3.52,1.46-5.18,2.38-2.88,1.42-5.53,3.25-7.88,5.44-.63.81-1.79.95-2.6.33-.81-.63-.96-1.79-.33-2.6,2.75-2.7,5.92-4.93,9.38-6.61,1.87-1.02,3.81-1.88,5.81-2.59,1.59-.74,3.4-.87,5.09-.37,1.72.77,1.95,3,2.02,3.73.12,1.6.1,3.21-.08,4.8-.3,3.52-1.01,7.65-1.58,10.98-.36,2.08-.72,4.24-.72,4.81,0,1.02-.83,1.84-1.85,1.84Z" fill="#4d4d4d"/><path id="_パス_8524" d="m60.94,115.99l-3.66-.51v.04c.01-.6-.06-1.21-.22-1.79-.48-1.86-1.24-3.63-2.26-5.27-.42-.71-.91-1.48-1.41-2.28-2.09-3.15-3.87-6.49-5.31-9.98-1.89-4.84-2.84-10.01-2.79-15.21.04-6.28,1.16-12.51,3.31-18.41.38-.95,1.46-1.41,2.41-1.03.95.38,1.41,1.46,1.03,2.41h0c-.61,1.65-1.12,3.33-1.52,5.05-.98,3.92-1.49,7.94-1.52,11.99-.04,4.74.82,9.44,2.54,13.85,1.36,3.28,3.03,6.41,5,9.37.52.83,1.01,1.61,1.46,2.37,1.96,2.74,2.99,6.04,2.95,9.41Z" fill="#4d4d4d"/><path id="_パス_8525" d="m84.13,245.54c-2.57.09-5.11-.56-7.32-1.86-2.49-1.63-3.94-4.43-3.84-7.4-.15-2.29.64-4.54,2.2-6.22,1.13-1.19,1.68-2.82,1.52-4.45v-1.56c.38-6.4-.4-12.82-2.29-18.95-1.16-2.73-2.52-5.37-4.08-7.9-5.94-9.83-10.47-20.43-13.47-31.51-1.22-4.84-1.93-9.8-2.1-14.79-.2-4.75-.12-9.5.23-14.23.34-5.05.96-10.07,1.84-15.05.19-1.01,1.17-1.66,2.17-1.47,1.01.19,1.66,1.17,1.47,2.17h0c-.86,4.85-1.45,9.75-1.79,14.66-.34,4.59-.41,9.19-.22,13.78.16,4.72.83,9.4,1.98,13.98,2.93,10.77,7.34,21.08,13.11,30.64,1.66,2.7,3.11,5.53,4.33,8.45,2.07,6.54,2.92,13.4,2.52,20.25v1.55c.17,2.5-.69,4.96-2.37,6.81-1,1.01-1.5,2.41-1.35,3.82-.11,1.73.71,3.38,2.15,4.34,1.61.91,3.45,1.35,5.31,1.27h.08c2.2.03,4.38-.36,6.43-1.15.73-.28,1.41-.66,2.04-1.13h-.02l2.47,2.76c-.86.7-1.82,1.27-2.85,1.68-2.56,1.04-5.3,1.56-8.06,1.52l-.1.02Z" fill="#4d4d4d"/><path id="_パス_8526" d="m201.58,171.12c-.97,0-1.78-.75-1.85-1.73-.67-5.22-2.13-10.31-4.33-15.09-2.33-5.3-5.28-10.32-8.77-14.94-4.67-6.14-10.11-11.65-16.19-16.4-7.63-5.51-16.14-9.7-25.16-12.39-4.5-1.42-8.86-3.23-13.04-5.42-1.81-1.01-3.46-2.29-4.88-3.79-1.4-1.52-2.44-3.33-3.05-5.3-.53-2.97-.35-6.01.52-8.9.74-3.15,1.12-6.37,1.13-9.6-.2-4.67-1.48-9.23-3.73-13.33-.53-.88-.24-2.01.63-2.54.88-.53,2.01-.24,2.54.63,2.59,4.64,4.05,9.83,4.27,15.14,0,3.51-.4,7.01-1.2,10.43-.68,2.3-.89,4.71-.61,7.09,1.08,3.06,3.32,5.56,6.24,6.98,3.98,2.07,8.13,3.79,12.41,5.13,3.96,1.4,8.45,2.98,12.9,5.01,4.75,2.11,9.22,4.78,13.32,7.96,6.37,4.97,12.06,10.75,16.94,17.19,3.67,4.87,6.76,10.16,9.21,15.75,2.35,5.11,3.89,10.55,4.56,16.14.07,1.02-.7,1.91-1.72,1.98h-.13Z" fill="#4d4d4d"/><path id="_パス_8527" d="m112.58,245.98c-.98,0-1.96-.07-2.94-.21-3.52-.19-6.81-1.8-9.13-4.45-.8-1.14-1.07-2.57-.73-3.93.25-.99,1.26-1.59,2.25-1.34.99.25,1.59,1.26,1.34,2.25-.08.33,0,.69.21.95,1.76,1.74,4.1,2.75,6.57,2.84,2.25.35,4.56.19,6.74-.48,1.88-.58,3.54-1.73,4.73-3.29.95-1.2,1.38-2.73,1.2-4.25-.23-1.52-.68-2.99-1.32-4.38-.16-.39-.3-.76-.45-1.13-.5-2.04-.64-4.14-.41-6.23.07-2.66.27-5.99.61-9.65.36-5.58,1.16-11.13,2.38-16.59.33-.97,1.38-1.49,2.35-1.16.97.33,1.49,1.38,1.16,2.35-1.12,5.14-1.85,10.36-2.19,15.61-.3,3.56-.52,6.81-.59,9.4-.15,1.66-.1,3.33.17,4.97.12.33.27.67.41,1.04.78,1.72,1.32,3.54,1.58,5.41.27,2.44-.42,4.9-1.92,6.84-1.66,2.16-3.94,3.76-6.54,4.57-1.77.57-3.63.86-5.49.84Z" fill="#4d4d4d"/><path id="_パス_8528" d="m154.02,226.29c-5.46-1.69-11.35-1.35-16.58.98-4.69,2-6.94,2.96-6.18,8.66.75,5.7,10.08,5.96,10.08,5.96,6.84.24,13.69-.08,20.48-.98,5.58-1.36-1.96-12.67-7.8-14.62Z" fill="#fff"/><path id="_パス_8529" d="m162.81,245.21c-1.94,0-3.63-.04-5.38-.08-1.79-.04-3.64-.08-5.83-.08-1.7,0-5.06-.03-8.46-.28-3.07-.09-6.12-.63-9.03-1.61-1.87-.68-3.45-2-4.44-3.73-.89-1.85-1.11-3.96-.61-5.96,1.02-3.58,3.87-6.35,7.49-7.25,1.9-.68,3.86-1.14,5.86-1.37,1.02-.1,1.92.65,2.02,1.67.1,1.02-.65,1.92-1.67,2.02-1.71.2-3.39.6-5,1.19-1.22.42-2.37,1.05-3.38,1.85-.85.65-1.45,1.57-1.68,2.62-.32,1.16-.23,2.4.26,3.5.6.97,1.51,1.69,2.59,2.05,2.55.83,5.21,1.28,7.89,1.34,3.24.24,6.45.27,8.12.27h.14c2.2,0,4.05.04,5.84.08,3.48.08,6.77.15,12.23-.08,2.44-.27,4.8-.99,6.97-2.13,3.15-1.54,6.15-3.38,8.95-5.49,6.27-4.52,11.56-10.28,15.53-16.91,6.74-12.23.66-33.62.59-33.85-.28-.98.28-2.01,1.26-2.3.98-.28,2.01.28,2.3,1.27,1.16,4.28,1.95,8.65,2.38,13.07.42,3.95.45,7.94.08,11.89-.33,4.09-1.47,8.07-3.35,11.71-2.01,3.55-4.46,6.85-7.28,9.8-2.85,3.03-5.95,5.81-9.29,8.29-3,2.26-6.2,4.23-9.58,5.88-2.61,1.36-5.47,2.21-8.4,2.48-2.87.1-5.13.14-7.13.14Z" fill="#4d4d4d"/><path id="_パス_8530" d="m103.62,50.2c-.23,0-.47-.04-.69-.13-5.76-2.12-11.83-3.28-17.97-3.41-3.58-.03-7.14.52-10.54,1.63-1.29.41-2.53.95-3.71,1.63h0l-2.01-3.11c4.98-2.71,10.59-4.04,16.26-3.84,4.54.05,9.06.66,13.45,1.83,2,.5,3.96,1.12,5.89,1.84.95.38,1.41,1.46,1.03,2.41-.28.7-.96,1.16-1.71,1.16Z" fill="#4d4d4d"/></g></g></svg>