<?xml version="1.0" encoding="UTF-8"?><svg id="_レイヤー_1" xmlns="http://www.w3.org/2000/svg" viewBox="0 0 280 280"><g id="_グループ_6444"><g id="_グループ_6444-2"><path id="_パス_8247" d="m204.72,214.46s16.96-14.18,24.03-66.42c5.06-37.39,9.76-82.44-4.98-82.44-12.77,0-7.96,28.47-12.68,63.81-2.2,17.23-6.82,34.07-13.72,50.01,0,0-4.2,32.27,7.34,35.05Z"/><path id="_パス_8248" d="m205.08,213.75c-.5,0-.98-.2-1.33-.56-.72-.74-.71-1.92.03-2.63,2.72-2.65,5.28-6.26,9-15.22,1.08-2.6,3.92-9.76,7.01-19.82,3.02-9.75,5.4-19.68,7.13-29.74,2.5-17.06,3.75-34.27,3.73-51.51,0-.82.02-1.58.04-2.29,0-.64.06-1.38.11-2.25.28-3.34.25-6.69-.1-10.02-.12-1.02.62-1.95,1.64-2.06h0c1.02-.12,1.95.61,2.07,1.63,0,0,0,0,0,0,.37,3.55.41,7.12.12,10.67-.05.82-.09,1.52-.1,2.08,0,.7-.02,1.46-.04,2.28.02,17.43-1.25,34.83-3.78,52.07-3.01,17.25-7.83,34.14-14.36,50.38-1.43,3.61-3.14,7.1-5.11,10.44-1.32,2.2-2.9,4.22-4.73,6.02-.35.34-.83.53-1.32.52Z" fill="#4d4d4d"/><path id="_パス_8249" d="m200.31,174.42c-.27,0-.53-.06-.77-.17-.93-.43-1.34-1.53-.91-2.47,4.52-9.96,7.8-25.6,11.63-47.6,1.79-11.28,2.64-22.68,2.54-34.1-.15-5.71.21-11.43,1.09-17.08.37-2.08,1.18-4.06,2.39-5.79,1.22-1.64,2.97-2.8,4.96-3.27,2.17-.5,4.46-.07,6.3,1.19,1.38.89,2.56,2.05,3.48,3.41.93,1.33,1.59,2.84,1.92,4.43.2,1.01-.45,1.99-1.46,2.19,0,0,0,0,0,0-1.01.2-1.99-.45-2.19-1.46,0,0,0,0,0,0-.51-2.22-1.85-4.16-3.74-5.42-.99-.69-2.22-.95-3.4-.72-3.05.76-4.04,3.57-4.6,6.22-.81,5.41-1.14,10.88-1,16.34.1,11.62-.77,23.22-2.59,34.69-3.88,22.3-7.22,38.19-11.91,48.51-.3.67-.98,1.1-1.71,1.1Z" fill="#4d4d4d"/></g><g id="_グループ_6445"><path id="_パス_8250" d="m87,44.97c-9.66,0-18.32-1.04-28.88,8.51-11.82,10.69-10.98,21.86-10.85,31.46s8.3,21.63,9.85,24.21,1.46,12.5,1.46,12.5c12.72.37,25.44-.55,37.97-2.77,12.87-2.06,25.11-6.97,35.83-14.38.33-.18.45-.6.27-.93-.08-.14-.2-.24-.34-.3-2.6-1.01-4.51-3.27-5.07-6.01-.75-5.53.88-6.23,1.01-15.84.13-9.61.54-16.27-11.28-26.97-10.56-9.56-19.59-9.5-29.25-9.5h-.71Z"/><path id="_パス_8251" d="m192.57,144.24c-13.68-27.36-43.16-34.71-43.16-34.71h0c-7.6-3.42-20.02-8.99-20.02-8.99-11.2,4.53-22.73,8.22-34.47,11.05-14.64,2.98-29.38,1.9-35.73,5.71,0,0-5.01,25.53-2.06,38.81,3.66,15.85,9.64,31.06,17.74,45.17,4.59,8.59,5.47,18.69,2.44,27.95,0,0-3.73,5.47-1.74,10.28,1.99,4.81,5.7,5.51,11.36,4.61,5.1-.81,5.18-3.07,10.84-3.07s6.49,4.02,16.97,2.52c7.47-1.07,10.48-5.03,10.61-10.14-.27-1.94-.78-3.85-1.52-5.66h0s3.38-.55,6.84,4.46c.89,1.28-1,4.83,1.52,7.57,2.52,2.74,1.46,3.85,8.09,3.56s25.41,2.49,31.71-.91c6.3-3.41,28.82-13.72,32.57-33.32,4.29-22.55,3.98-32.93-11.99-64.87Z"/><path id="_パス_8252" d="m124.02,227.76c.75,1.81,1.26,3.72,1.52,5.66-.13,5.11-3.17,9.07-10.69,10.14-10.56,1.51-11.4-2.52-17.1-2.52s-5.79,2.26-10.93,3.07c-5.71.9-9.45.2-11.45-4.61-2-4.81,2.05-11.79,2.05-11.79,3.56-.64,7.17-.97,10.79-.98,5.88,0,9.81,1.96,12.75,1.96s7.85-1.96,11.77-1.96,11.29,1.02,11.29,1.02Z" fill="#fff"/><path id="_パス_8253" d="m100,190.78c-4.08-.45-8.01-1.82-11.49-4-4.31-2.72-7.73-6.63-9.87-11.25-.4-.94.03-2.03.97-2.44.94-.4,2.03.03,2.44.97,1.83,3.88,4.71,7.18,8.32,9.5,2.2,1.3,4.56,2.3,7.01,2.99.9.26,1.83.43,2.77.52h0l-.14,3.71Z" fill="#4d4d4d"/><path id="_パス_8254" d="m101.08,233.23h-.05c-1.03-.02-1.85-.87-1.83-1.9,0,0,0-.01,0-.02,0-.09.22-8.95-.11-18.98-.16-5.76-.81-11.5-1.95-17.15-.23-1,.4-2,1.41-2.23h0c1-.23,2,.4,2.23,1.4,1.2,5.88,1.88,11.85,2.04,17.85.33,10.14.11,19.1.11,19.19-.02,1-.84,1.81-1.85,1.82Z" fill="#4d4d4d"/><path id="_パス_8255" d="m70.87,49.55s-16.81-15.4-21.09-12.89,1.47,28.58,1.47,28.58c2.57-4.24,5.91-7.96,9.85-10.98,3.15-1.79,6.41-3.36,9.77-4.71Z"/><path id="_パス_8256" d="m102.76,49.55s16.42-15.4,20.7-12.89c4.28,2.52-1.08,28.58-1.08,28.58-2.75-4.22-6.22-7.93-10.23-10.98-3.04-1.74-6.17-3.32-9.38-4.71Z"/><path id="_パス_8257" d="m50.36,60.65c-1.03,0-1.86-.83-1.86-1.86,0-.58-.37-2.74-.73-4.84-.57-3.34-1.28-7.49-1.59-11.03-.17-1.6-.2-3.22-.08-4.83.08-.73.3-2.97,2.04-3.75,1.69-.51,3.51-.38,5.12.37,2.02.71,3.97,1.58,5.85,2.61,3.48,1.69,6.67,3.94,9.43,6.65.63.81.48,1.98-.33,2.61-.81.63-1.98.48-2.61-.33-2.36-2.21-5.03-4.06-7.93-5.49-1.68-.92-3.42-1.73-5.21-2.4-.81-.33-1.67-.54-2.54-.63-.28,1.92-.26,3.88.06,5.79.33,3.19.95,6.84,1.46,9.78.37,1.8.63,3.63.78,5.47,0,1.03-.82,1.87-1.85,1.88h0Z" fill="#4d4d4d"/><path id="_パス_8258" d="m123.69,60.64c-1.03,0-1.86-.83-1.86-1.86.15-1.84.41-3.66.78-5.47.5-2.94,1.13-6.59,1.46-9.78.32-1.92.34-3.87.06-5.79-.87.09-1.72.3-2.54.63-1.79.67-3.53,1.47-5.21,2.4-2.9,1.43-5.57,3.28-7.93,5.49-.63.81-1.8.96-2.62.33-.81-.63-.96-1.8-.33-2.61,2.77-2.71,5.95-4.96,9.43-6.65,1.88-1.02,3.83-1.89,5.85-2.61,1.6-.75,3.42-.88,5.12-.37,1.73.78,1.96,3.02,2.04,3.75.12,1.61.1,3.23-.08,4.83-.3,3.54-1.02,7.69-1.59,11.03-.36,2.09-.73,4.27-.73,4.84,0,1.02-.84,1.84-1.86,1.85Z" fill="#4d4d4d"/><path id="_パス_8259" d="m103.96,50.3c-.24,0-.47-.05-.69-.13-5.79-2.14-11.9-3.3-18.08-3.43-4.98-.19-9.92.94-14.33,3.27-.86.56-2.02.31-2.58-.55h0c-.56-.87-.31-2.02.55-2.58,0,0,0,0,0,0,5.01-2.73,10.65-4.06,16.35-3.86,4.57.04,9.12.66,13.53,1.83,2.01.5,3.99,1.12,5.92,1.86.96.38,1.42,1.47,1.04,2.42-.28.71-.96,1.19-1.73,1.19Z" fill="#4d4d4d"/><path id="_パス_8260" d="m61.03,116.47l-3.69-.52v.04c.01-.61-.06-1.21-.22-1.8-.49-1.87-1.25-3.66-2.27-5.3-.42-.72-.91-1.49-1.41-2.29-2.1-3.17-3.89-6.53-5.34-10.04-1.9-4.87-2.85-10.06-2.81-15.29.05-6.32,1.18-12.58,3.35-18.51.38-.96,1.47-1.42,2.42-1.04h0c.96.38,1.42,1.47,1.04,2.42h0c-.62,1.66-1.13,3.35-1.55,5.07-.98,3.94-1.49,7.99-1.52,12.06-.04,4.77.82,9.49,2.55,13.93,1.37,3.3,3.05,6.45,5.03,9.42.52.83,1.02,1.62,1.47,2.38,1.97,2.76,3,6.08,2.96,9.46Z" fill="#4d4d4d"/><path id="_パス_8261" d="m84.35,245.54c-2.58.09-5.14-.56-7.37-1.87-2.5-1.63-3.96-4.46-3.86-7.44-.15-2.3.65-4.56,2.21-6.25,1.13-1.2,1.69-2.83,1.52-4.48v-1.57c.38-6.44-.4-12.9-2.31-19.07-1.17-2.75-2.54-5.4-4.1-7.95-5.97-9.89-10.53-20.56-13.55-31.71-1.23-4.87-1.94-9.86-2.12-14.88-.2-4.78-.12-9.56.23-14.33.34-5.08.96-10.13,1.86-15.14.2-1.01,1.17-1.67,2.18-1.48,1.01.2,1.67,1.17,1.48,2.18h0c-.86,4.88-1.46,9.8-1.8,14.75-.34,4.61-.42,9.24-.22,13.86.17,4.74.83,9.46,1.99,14.06,2.94,10.83,7.38,21.2,13.19,30.81,1.67,2.72,3.12,5.56,4.36,8.5,2.08,6.58,2.94,13.48,2.54,20.37v1.56c.17,2.51-.69,4.98-2.38,6.85-1.01,1.01-1.51,2.42-1.36,3.84-.11,1.74.71,3.4,2.16,4.36,1.62.92,3.47,1.36,5.34,1.27h.08c2.21.03,4.4-.36,6.46-1.16.73-.28,1.42-.66,2.05-1.13h-.02l2.49,2.78c-.86.7-1.83,1.27-2.87,1.69-2.57,1.05-5.33,1.56-8.1,1.52l-.09.06Z" fill="#4d4d4d"/><path id="_パス_8262" d="m201.38,171.92c-.98,0-1.79-.76-1.86-1.73-.67-5.25-2.14-10.37-4.36-15.18-2.35-5.33-5.31-10.37-8.82-15.01-4.69-6.18-10.17-11.72-16.29-16.5-7.68-5.54-16.23-9.76-25.31-12.46-4.52-1.43-8.91-3.25-13.11-5.46-1.82-1.02-3.47-2.3-4.89-3.82-1.41-1.53-2.46-3.35-3.07-5.33-.53-2.98-.35-6.05.52-8.95.74-3.17,1.12-6.41,1.14-9.66-.2-4.7-1.48-9.29-3.75-13.42-.53-.88-.25-2.03.63-2.56,0,0,0,0,0,0,.88-.53,2.03-.25,2.56.63,0,0,0,0,0,0,2.6,4.68,4.06,9.9,4.27,15.25,0,3.53-.41,7.05-1.22,10.48-.69,2.31-.89,4.74-.61,7.13,1.09,3.07,3.35,5.59,6.28,7.01,4,2.09,8.18,3.82,12.48,5.17,3.99,1.41,8.5,3,12.98,5.04,4.77,2.12,9.27,4.81,13.4,8.01,6.41,5,12.13,10.81,17.04,17.29,3.69,4.9,6.8,10.22,9.26,15.84,2.36,5.14,3.91,10.62,4.57,16.23.07,1.03-.7,1.92-1.73,1.99h-.11Z" fill="#4d4d4d"/><path id="_パス_8263" d="m112.53,245.98c-.99,0-1.98-.07-2.95-.21-3.54-.2-6.85-1.81-9.18-4.47-.81-1.15-1.08-2.6-.73-3.96.25-1,1.26-1.6,2.26-1.35h0c1,.25,1.6,1.26,1.35,2.26h0c-.08.34,0,.69.21.96,1.77,1.75,4.13,2.77,6.61,2.86,2.27.36,4.58.19,6.78-.48,1.89-.58,3.56-1.73,4.76-3.31.95-1.21,1.39-2.74,1.2-4.27-.24-1.53-.68-3.01-1.33-4.41-.16-.39-.3-.77-.45-1.14-.5-2.05-.64-4.17-.41-6.26.07-2.67.28-6.03.61-9.71.36-5.62,1.16-11.2,2.39-16.69.33-.98,1.38-1.5,2.36-1.17,0,0,0,0,0,0,.98.33,1.5,1.38,1.17,2.36,0,0,0,0,0,0-1.12,5.17-1.86,10.42-2.2,15.7-.3,3.58-.52,6.85-.59,9.45-.15,1.67-.1,3.35.17,5,.13.33.27.68.42,1.05.79,1.73,1.32,3.56,1.59,5.44.27,2.46-.42,4.92-1.93,6.88-1.67,2.18-3.96,3.79-6.58,4.61-1.79.58-3.65.87-5.53.86Z" fill="#4d4d4d"/><path id="_パス_8264" d="m162.39,245.21c-1.95,0-3.66-.04-5.41-.08s-3.62-.08-5.79-.08h-.14c-1.73,0-5.07-.04-8.44-.29-3.09-.09-6.15-.64-9.08-1.62-1.89-.68-3.47-2.01-4.47-3.75-.9-1.86-1.12-3.98-.63-5.99,1.02-3.6,3.9-6.39,7.53-7.29,1.91-.68,3.89-1.15,5.9-1.38,1.02-.1,1.93.65,2.03,1.68,0,0,0,0,0,0,.1,1.02-.65,1.93-1.68,2.03h0c-1.72.21-3.4.61-5.03,1.19-1.23.42-2.38,1.05-3.4,1.86-.86.65-1.45,1.58-1.69,2.63-.32,1.17-.23,2.41.26,3.52.6.97,1.52,1.7,2.6,2.06,2.56.83,5.23,1.28,7.93,1.34,3.26.24,6.49.28,8.17.28h.14c2.21,0,4.07.04,5.87.08,3.5.08,6.81.15,12.3-.08,2.45-.27,4.83-.99,7.01-2.13,3.17-1.55,6.19-3.41,9-5.54,6.31-4.55,11.63-10.34,15.62-17.01,1.66-3.22,2.66-6.73,2.94-10.33.35-3.72.33-7.46-.07-11.17-.42-4.23-1.18-8.43-2.27-12.54-.29-.99.28-2.02,1.27-2.31h0c.99-.29,2.02.28,2.31,1.27,0,0,0,0,0,0,1.16,4.31,1.96,8.7,2.4,13.14.43,3.97.45,7.97.08,11.95-.33,4.11-1.49,8.12-3.39,11.78-2.03,3.57-4.48,6.89-7.32,9.86-2.86,3.05-5.99,5.84-9.34,8.34-3.01,2.28-6.24,4.26-9.64,5.92-2.63,1.37-5.5,2.22-8.45,2.49-2.84.12-5.11.16-7.12.16Z" fill="#4d4d4d"/></g></g></svg>