<?xml version="1.0" encoding="UTF-8"?><svg id="_レイヤー_1" xmlns="http://www.w3.org/2000/svg" viewBox="0 0 280 280"><g id="_グループ_6446"><g id="_グループ_6446-2"><path id="_パス_8257-2" d="m204.86,213.65s16.88-14.11,23.92-66.13c5.04-37.22,9.73-82.07-4.95-82.07-12.71,0-7.93,28.36-12.62,63.52-2.19,17.16-6.79,33.92-13.67,49.79,0,0-4.17,32.11,7.32,34.88Z"/><path id="_パス_8258-2" d="m205.22,212.94c-.5,0-.98-.2-1.33-.56-.72-.73-.7-1.91.03-2.62,0,0,0,0,0,0,2.7-2.64,5.26-6.23,8.96-15.15,1.07-2.59,3.91-9.71,6.98-19.74,3.01-9.7,5.38-19.6,7.1-29.61,2.49-16.98,3.73-34.12,3.71-51.28,0-.81.02-1.57.04-2.27,0-.64.06-1.38.11-2.24.28-3.32.24-6.66-.1-9.97-.12-1.02.61-1.94,1.63-2.06h0c1.02-.12,1.94.61,2.06,1.63,0,0,0,0,0,0,.37,3.53.4,7.09.12,10.63-.05.81-.09,1.52-.1,2.07-.01.7-.02,1.46-.03,2.27.02,17.35-1.24,34.67-3.76,51.84-3,17.17-7.79,33.98-14.3,50.15-1.43,3.59-3.13,7.06-5.09,10.39-1.31,2.19-2.89,4.2-4.71,5.99-.35.34-.81.53-1.3.53Z" fill="#4d4d4d"/><path id="_パス_8259-2" d="m200.47,173.8c-.26,0-.53-.06-.77-.17-.93-.43-1.34-1.52-.91-2.45,4.5-9.91,7.77-25.48,11.59-47.39,1.78-11.23,2.63-22.58,2.53-33.95-.15-5.69.21-11.38,1.08-17,.37-2.07,1.18-4.03,2.38-5.76,1.21-1.63,2.96-2.79,4.94-3.25,2.16-.5,4.44-.07,6.27,1.19,1.37.89,2.55,2.04,3.47,3.39.93,1.33,1.58,2.83,1.91,4.42.2,1-.45,1.98-1.46,2.18h0c-1,.2-1.98-.45-2.18-1.45,0,0,0,0,0,0-.5-2.21-1.84-4.14-3.72-5.39-.98-.69-2.21-.95-3.38-.72-3.03.76-4.02,3.56-4.57,6.19-.8,5.38-1.14,10.83-1,16.27.1,11.56-.76,23.12-2.58,34.54-3.86,22.2-7.19,38.02-11.86,48.29-.31.67-.98,1.1-1.72,1.09Z" fill="#4d4d4d"/></g><g id="_グループ_6447"><path id="_パス_8260-2" d="m86.83,44.92c-9.61,0-18.23-1.04-28.75,8.48-11.76,10.64-10.93,21.76-10.8,31.32.13,9.57,8.26,21.53,9.81,24.1s1.46,12.44,1.46,12.44c12.66.37,25.33-.54,37.81-2.74,12.81-2.05,25-6.95,35.68-14.33.33-.19.44-.61.25-.93-.07-.13-.19-.23-.32-.29-2.59-1.01-4.49-3.26-5.05-5.98-.75-5.51.88-6.21,1-15.77s.54-16.2-11.22-26.83c-10.51-9.51-19.5-9.45-29.11-9.45l-.73-.02Z"/><path id="_パス_8261-2" d="m192.67,144.69c-13.7-27.24-43.2-34.56-43.2-34.56h0c-7.62-3.4-20.05-8.95-20.05-8.95-11.22,4.51-22.75,8.19-34.51,11-14.64,2.97-29.41,1.89-35.77,5.68,0,0-5.02,25.42-2.07,38.64,3.67,15.78,9.66,30.94,17.76,44.97,4.6,8.55,5.48,18.61,2.44,27.83,0,0-3.74,5.44-1.74,10.23,1.99,4.79,5.71,5.49,11.37,4.59,5.11-.81,5.18-3.05,10.85-3.05s6.49,4.01,16.99,2.5c7.48-1.07,10.49-5.01,10.62-10.09-.27-1.94-.78-3.83-1.52-5.64h0s3.39-.54,6.85,4.44c.89,1.28-1,4.81,1.52,7.54s1.46,3.83,8.1,3.54,25.44,2.48,31.74-.91c6.29-3.4,28.86-13.65,32.61-33.17,4.32-22.45,4.01-32.79-11.98-64.58Z"/><path id="_パス_8262-2" d="m123.9,227.83c.75,1.81,1.26,3.7,1.52,5.64-.13,5.09-3.15,9.03-10.65,10.09-10.51,1.5-11.35-2.5-17.02-2.5s-5.76,2.25-10.88,3.05c-5.68.89-9.4.2-11.4-4.59-2-4.79,2.04-11.73,2.04-11.73,3.54-.64,7.14-.97,10.74-.98,5.86,0,9.76,1.95,12.69,1.95s7.81-1.95,11.72-1.95,11.24,1.02,11.24,1.02Z" fill="#fff"/><path id="_パス_8263-2" d="m99.96,190.74c-4.07-.45-7.98-1.81-11.44-3.98-4.29-2.71-7.7-6.6-9.83-11.2-.41-.94.02-2.03.96-2.44h0c.94-.41,2.03.02,2.44.96,1.83,3.86,4.7,7.14,8.28,9.45,2.19,1.29,4.54,2.29,6.99,2.97.9.26,1.82.43,2.74.51h0l-.15,3.72Z" fill="#4d4d4d"/><path id="_パス_8264-2" d="m101.12,233.28h-.05c-1.02-.03-1.83-.88-1.81-1.9,0-.09.22-8.91-.11-18.91-.16-5.74-.81-11.45-1.94-17.08-.23-1,.4-1.99,1.4-2.22,0,0,0,0,0,0,1-.23,1.99.4,2.22,1.4,0,0,0,0,0,0,1.19,5.85,1.87,11.8,2.03,17.77.33,10.09.11,19.02.11,19.11-.02,1.01-.84,1.83-1.85,1.83Z" fill="#4d4d4d"/><path id="_パス_8265" d="m70.77,49.48s-16.73-15.33-20.99-12.83c-4.26,2.5,1.46,28.45,1.46,28.45,2.56-4.22,5.88-7.93,9.8-10.93,3.13-1.78,6.38-3.35,9.73-4.69Z"/><path id="_パス_8266" d="m102.86,49.48s16.35-15.33,20.6-12.83c4.25,2.5-1.09,28.46-1.09,28.46-2.74-4.2-6.19-7.9-10.19-10.93-3.02-1.74-6.13-3.31-9.33-4.7Z"/><path id="_パス_8267" d="m50.35,60.52c-1.02,0-1.85-.83-1.85-1.85h0c0-.58-.37-2.75-.72-4.82-.57-3.32-1.27-7.45-1.58-10.98-.17-1.6-.2-3.21-.08-4.81.08-.73.3-2.95,2.03-3.73,1.69-.51,3.5-.37,5.09.37,2.01.71,3.95,1.58,5.82,2.59,3.47,1.69,6.64,3.92,9.39,6.62.63.81.48,1.97-.33,2.6,0,0,0,0,0,0-.81.63-1.98.48-2.6-.33-2.35-2.19-5-4.03-7.89-5.45-1.67-.92-3.4-1.72-5.18-2.39-.81-.33-1.66-.54-2.52-.63-.28,1.91-.26,3.86.06,5.77.33,3.17.95,6.81,1.45,9.73.37,1.8.63,3.61.78,5.44,0,1.02-.82,1.86-1.85,1.86h-.02Z" fill="#4d4d4d"/><path id="_パス_8268" d="m123.72,60.52c-1.02,0-1.85-.83-1.85-1.85.15-1.83.41-3.65.78-5.44.5-2.92,1.12-6.56,1.45-9.73.32-1.91.34-3.85.06-5.77-.87.09-1.72.3-2.52.63-1.78.67-3.52,1.47-5.18,2.39-2.88,1.42-5.54,3.26-7.89,5.45-.63.81-1.79.96-2.6.33-.81-.63-.96-1.79-.33-2.6,0,0,0,0,0,0,2.75-2.7,5.92-4.94,9.39-6.62,1.87-1.02,3.81-1.89,5.82-2.59,1.59-.74,3.41-.87,5.09-.37,1.73.78,1.95,3,2.03,3.73.12,1.6.1,3.21-.08,4.81-.3,3.52-1.01,7.66-1.58,10.98-.36,2.09-.72,4.24-.72,4.82,0,1.03-.83,1.86-1.86,1.85h0Z" fill="#4d4d4d"/><path id="_パス_8269" d="m103.7,50.23c-.23,0-.47-.04-.69-.13-5.77-2.13-11.85-3.28-17.99-3.42-4.96-.19-9.88.93-14.26,3.25-.86.56-2.01.31-2.56-.55,0,0,0,0,0,0-.55-.86-.31-2.01.55-2.56,4.98-2.72,10.6-4.05,16.28-3.85,4.55.05,9.07.66,13.47,1.83,2,.5,3.97,1.12,5.9,1.85.95.38,1.42,1.46,1.04,2.41-.28.71-.97,1.17-1.73,1.17Z" fill="#4d4d4d"/><path id="_パス_8270" d="m60.97,116.09l-3.67-.52v.04c.01-.61-.06-1.21-.22-1.79-.48-1.86-1.25-3.64-2.26-5.27-.42-.72-.91-1.48-1.41-2.28-2.09-3.15-3.87-6.5-5.31-10-1.89-4.85-2.84-10.02-2.8-15.23.04-6.29,1.17-12.52,3.33-18.43.38-.95,1.46-1.41,2.41-1.03,0,0,0,0,0,0,.95.38,1.42,1.46,1.04,2.41,0,0,0,0,0,0h0c-.61,1.65-1.12,3.34-1.52,5.05-.98,3.93-1.49,7.96-1.52,12-.04,4.74.82,9.45,2.54,13.87,1.36,3.28,3.04,6.42,5,9.38.52.83,1.01,1.61,1.46,2.37,1.96,2.75,2.99,6.05,2.94,9.42Z" fill="#4d4d4d"/><path id="_パス_8271" d="m84.19,245.53c-2.57.09-5.12-.55-7.33-1.86-2.49-1.63-3.95-4.44-3.85-7.41-.15-2.29.64-4.54,2.2-6.22,1.13-1.19,1.69-2.82,1.52-4.46v-1.56c.38-6.41-.4-12.84-2.3-18.98-1.16-2.73-2.53-5.38-4.08-7.91-5.94-9.84-10.49-20.46-13.49-31.56-1.23-4.85-1.93-9.81-2.11-14.81-.2-4.75-.12-9.51.23-14.25.34-5.05.96-10.09,1.85-15.07.2-1.01,1.17-1.66,2.17-1.47,1.01.2,1.66,1.17,1.47,2.17-.86,4.86-1.46,9.76-1.79,14.68-.34,4.59-.41,9.2-.22,13.8.16,4.72.83,9.41,1.99,14,2.93,10.79,7.35,21.11,13.13,30.68,1.66,2.7,3.11,5.53,4.34,8.46,2.07,6.55,2.93,13.42,2.53,20.28v1.55c.17,2.5-.69,4.96-2.38,6.81-1,1.01-1.5,2.41-1.35,3.82-.11,1.73.71,3.38,2.15,4.34,1.62.91,3.46,1.35,5.31,1.27h.08c2.2.03,4.38-.36,6.44-1.16.73-.28,1.42-.65,2.04-1.13h-.02l2.48,2.76c-.86.7-1.82,1.27-2.85,1.68-2.56,1.04-5.3,1.56-8.07,1.52l-.09.02Z" fill="#4d4d4d"/><path id="_パス_8272" d="m201.54,171.3c-.97,0-1.78-.76-1.85-1.73-.67-5.23-2.13-10.33-4.34-15.11-2.34-5.3-5.29-10.32-8.78-14.94-4.67-6.15-10.12-11.67-16.21-16.42-7.64-5.52-16.16-9.71-25.2-12.4-4.51-1.42-8.88-3.24-13.06-5.43-1.81-1.01-3.46-2.29-4.88-3.8-1.4-1.52-2.44-3.33-3.05-5.31-.53-2.97-.35-6.02.52-8.91.74-3.15,1.12-6.38,1.13-9.61-.2-4.68-1.48-9.25-3.73-13.35-.53-.88-.25-2.02.63-2.55,0,0,0,0,0,0,.88-.53,2.02-.25,2.55.63,0,0,0,0,0,0,2.59,4.65,4.05,9.84,4.27,15.16,0,3.51-.4,7.02-1.2,10.44-.69,2.3-.89,4.72-.61,7.1,1.09,3.06,3.33,5.57,6.25,6.99,3.98,2.08,8.14,3.8,12.43,5.14,3.96,1.4,8.46,2.99,12.92,5.02,4.75,2.11,9.23,4.79,13.34,7.97,6.38,4.98,12.08,10.76,16.96,17.21,3.68,4.88,6.77,10.17,9.22,15.76,2.36,5.12,3.9,10.57,4.57,16.16.07,1.02-.7,1.91-1.72,1.98,0,0,0,0,0,0h-.15Z" fill="#4d4d4d"/><path id="_パス_8273" d="m154,227.24c-5.47-1.7-11.37-1.35-16.6.98-4.7,2.01-6.95,2.97-6.19,8.67.76,5.71,10.1,5.97,10.1,5.97,6.85.25,13.71-.08,20.5-.98,5.59-1.36-1.95-12.69-7.81-14.65Z" fill="#fff"/><path id="_パス_8274" d="m112.58,245.97c-.98,0-1.97-.07-2.94-.21-3.52-.19-6.82-1.8-9.15-4.45-.81-1.14-1.07-2.58-.73-3.93.25-.99,1.26-1.59,2.25-1.34.99.25,1.59,1.26,1.34,2.25-.08.33,0,.69.21.95,1.76,1.74,4.11,2.75,6.58,2.84,2.26.36,4.56.19,6.75-.48,1.88-.58,3.54-1.73,4.74-3.29.95-1.2,1.38-2.73,1.2-4.25-.23-1.52-.68-3-1.32-4.39-.16-.39-.3-.77-.45-1.13-.5-2.04-.64-4.15-.41-6.24.07-2.66.27-6,.61-9.67.36-5.59,1.16-11.15,2.38-16.62.33-.97,1.38-1.49,2.35-1.17.97.33,1.49,1.38,1.17,2.35-1.12,5.15-1.85,10.37-2.19,15.63-.3,3.56-.52,6.82-.59,9.42-.15,1.66-.1,3.33.17,4.98.13.33.27.67.42,1.05.78,1.72,1.32,3.55,1.58,5.42.27,2.45-.42,4.9-1.92,6.85-1.66,2.17-3.95,3.77-6.55,4.59-1.78.57-3.63.85-5.5.84Z" fill="#4d4d4d"/><path id="_パス_8275" d="m162.72,245.21c-1.94,0-3.64-.04-5.38-.08-1.79-.04-3.64-.08-5.84-.08h-.06c-1.72,0-5.05-.04-8.41-.29-3.08-.09-6.12-.63-9.04-1.61-1.88-.68-3.45-2-4.45-3.74-.89-1.86-1.11-3.96-.61-5.96,1.02-3.59,3.88-6.36,7.5-7.26,1.9-.68,3.87-1.14,5.87-1.37,1.02-.1,1.92.65,2.02,1.67,0,0,0,0,0,0,.1,1.02-.65,1.92-1.67,2.02h0c-1.71.2-3.39.6-5.01,1.19-1.23.42-2.37,1.05-3.39,1.85-.85.65-1.45,1.57-1.68,2.62-.32,1.16-.23,2.4.26,3.5.6.97,1.52,1.69,2.59,2.05,2.55.83,5.21,1.28,7.89,1.34,3.24.24,6.46.27,8.13.27h.14c2.2,0,4.05.04,5.84.08,3.49.08,6.78.15,12.24-.08,2.44-.27,4.81-.99,6.98-2.13,3.16-1.54,6.16-3.39,8.96-5.51,6.28-4.53,11.57-10.29,15.55-16.94,6.74-12.24.66-33.67.59-33.88-.29-.98.28-2.01,1.26-2.3,0,0,0,0,0,0,.98-.29,2.01.28,2.3,1.26,0,0,0,0,0,0,1.16,4.29,1.96,8.66,2.39,13.08.42,3.95.45,7.94.08,11.89-.33,4.09-1.48,8.08-3.37,11.73-2.02,3.56-4.46,6.85-7.28,9.82-2.85,3.03-5.96,5.81-9.3,8.3-3,2.27-6.21,4.24-9.59,5.89-2.62,1.36-5.47,2.21-8.41,2.48-2.84.13-5.11.17-7.11.17Z" fill="#4d4d4d"/></g></g></svg>