<?xml version="1.0" encoding="UTF-8"?><svg id="_レイヤー_1" xmlns="http://www.w3.org/2000/svg" viewBox="0 0 280 280"><g id="_グループ_6482"><g id="_グループ_6480"><path id="_パス_8415-2" d="m204.9,213.42s16.86-14.09,23.89-66.05c5.03-37.18,9.71-81.97-4.95-81.97-12.7,0-7.93,28.31-12.61,63.44-2.19,17.14-6.78,33.88-13.65,49.73,0,0-4.16,32.1,7.31,34.84Z"/><path id="_パス_8416-2" d="m205.25,212.72c-.5,0-.98-.2-1.33-.56-.71-.73-.7-1.9.03-2.62,2.7-2.64,5.25-6.22,8.95-15.13,1.07-2.59,3.9-9.7,6.97-19.71,3-9.69,5.37-19.57,7.09-29.58,2.49-16.96,3.73-34.08,3.71-51.23,0-.81.02-1.57.03-2.27,0-.63.06-1.38.11-2.23.28-3.32.24-6.65-.1-9.96-.12-1.02.61-1.94,1.63-2.06,1.02-.12,1.94.61,2.06,1.63h0c.37,3.53.4,7.08.12,10.62-.05.81-.09,1.52-.1,2.07,0,.7-.02,1.45-.03,2.27.02,17.33-1.24,34.63-3.76,51.77-3,17.15-7.78,33.94-14.29,50.09-1.42,3.58-3.12,7.05-5.08,10.37-1.31,2.19-2.89,4.2-4.7,5.99-.34.35-.81.55-1.29.55Z" fill="#4d4d4d"/><path id="_パス_8417-2" d="m200.51,173.61c-.26,0-.53-.06-.77-.17-.92-.43-1.33-1.51-.91-2.44,4.49-9.9,7.76-25.45,11.56-47.33,1.78-11.21,2.62-22.55,2.52-33.9-.15-5.68.21-11.36,1.08-16.98.37-2.07,1.18-4.03,2.37-5.75,1.21-1.63,2.96-2.78,4.93-3.25,2.16-.5,4.43-.07,6.26,1.18,1.37.89,2.55,2.04,3.46,3.39.93,1.33,1.58,2.83,1.91,4.41.2,1-.45,1.98-1.45,2.18-1,.2-1.98-.45-2.18-1.45-.5-2.21-1.83-4.13-3.72-5.39-.98-.69-2.2-.95-3.38-.72-3.03.76-4.01,3.55-4.57,6.18-.8,5.38-1.14,10.81-1,16.25.1,11.55-.76,23.09-2.58,34.5-3.85,22.17-7.18,37.97-11.84,48.23-.31.66-.97,1.07-1.7,1.07Z" fill="#4d4d4d"/></g><g id="_グループ_6481"><path id="_パス_8418" d="m86.77,44.91c-9.6,0-18.21-1.04-28.71,8.46-11.75,10.63-10.91,21.73-10.79,31.29.12,9.55,8.25,21.5,9.79,24.09,1.54,2.59,1.45,12.43,1.45,12.43,12.64.37,25.29-.55,37.75-2.74,12.79-2.04,24.97-6.93,35.62-14.3.33-.19.44-.61.25-.93-.07-.13-.19-.23-.32-.29-2.59-1-4.49-3.25-5.05-5.97-.75-5.49.88-6.2,1-15.75.13-9.55.54-16.18-11.21-26.81-10.5-9.5-19.48-9.45-29.08-9.45l-.71-.02Z"/><path id="_パス_8419" d="m192.71,144.82c-13.7-27.21-43.22-34.51-43.22-34.51h0c-7.62-3.4-20.05-8.94-20.05-8.94-11.22,4.5-22.76,8.17-34.53,10.98-14.65,2.97-29.42,1.89-35.78,5.68,0,0-5.02,25.39-2.07,38.59,3.67,15.76,9.66,30.9,17.77,44.91,4.6,8.54,5.48,18.59,2.44,27.79,0,0-3.74,5.44-1.74,10.22s5.71,5.49,11.38,4.57c5.11-.8,5.18-3.05,10.86-3.05s6.5,4,16.99,2.5c7.48-1.07,12.5-16.25,15.96-11.28.89,1.27-1,4.8,1.52,7.53s1.46,3.82,8.1,3.54c6.64-.28,25.45,2.48,31.75-.91s28.87-13.63,32.63-33.13c4.31-22.4,3.99-32.73-12-64.48Z"/><path id="_パス_8420" d="m97.75,241.08c-5.65-.37-5.75,2.25-10.86,3.05-5.67.89-9.39.2-11.38-4.57-1.99-4.77,2.03-11.72,2.03-11.72,3.54-.64,7.13-.97,10.73-.98,5.85,0,9.76,1.95,12.68,1.95,0,0,2.92,12.68-3.19,12.27Z" fill="#fff"/><path id="_パス_8421" d="m100.02,190.75h-.08c-4.06-.45-7.96-1.8-11.43-3.96-4.28-2.71-7.69-6.59-9.82-11.18-.41-.94.02-2.03.96-2.44h0c.94-.41,2.03.02,2.44.96h0c1.82,3.86,4.69,7.14,8.28,9.45,2.23,1.32,4.62,2.33,7.12,3,.85.24,1.72.4,2.6.48,1.02.04,1.82.91,1.77,1.93-.05.99-.87,1.77-1.86,1.77Z" fill="#4d4d4d"/><path id="_パス_8422" d="m101.12,233.31h-.05c-1.02-.03-1.83-.88-1.81-1.9,0-.09.22-8.9-.11-18.87-.16-5.73-.81-11.43-1.94-17.05-.23-1,.4-1.99,1.4-2.22,1-.23,1.99.4,2.22,1.4,1.19,5.85,1.87,11.79,2.03,17.75.33,10.08.11,18.99.11,19.09-.03,1-.85,1.8-1.85,1.8Z" fill="#4d4d4d"/><path id="_パス_8423" d="m70.73,49.46s-16.71-15.32-20.96-12.81c-4.25,2.51,1.46,28.42,1.46,28.42,2.55-4.22,5.87-7.92,9.79-10.92,3.13-1.78,6.38-3.35,9.71-4.69Z"/><path id="_パス_8424" d="m102.88,49.46s16.33-15.32,20.58-12.81c4.25,2.51-1.08,28.42-1.08,28.42-2.74-4.2-6.18-7.89-10.18-10.92-3.02-1.73-6.13-3.3-9.33-4.69Z"/><path id="_パス_8425" d="m50.34,60.49c-1.02,0-1.85-.83-1.85-1.85,0-.58-.37-2.74-.72-4.81-.57-3.32-1.27-7.45-1.58-10.98-.17-1.6-.2-3.2-.08-4.8.08-.73.3-2.95,2.03-3.73,1.68-.5,3.49-.37,5.09.37,2,.71,3.95,1.58,5.81,2.59,3.46,1.68,6.63,3.92,9.38,6.61.63.81.48,1.97-.33,2.6-.81.63-1.97.48-2.6-.33-2.35-2.19-5-4.02-7.88-5.44-1.67-.92-3.4-1.72-5.18-2.38-.81-.33-1.66-.54-2.52-.63-.28,1.91-.26,3.85.06,5.76.33,3.17.95,6.8,1.45,9.72.37,1.79.63,3.61.77,5.44,0,1.02-.82,1.86-1.84,1.87h0Z" fill="#4d4d4d"/><path id="_パス_8426" d="m123.71,60.49c-1.02,0-1.85-.83-1.85-1.85.15-1.83.41-3.64.77-5.44.5-2.92,1.12-6.55,1.45-9.72.32-1.91.34-3.85.06-5.76-.87.09-1.71.3-2.52.63-1.78.67-3.52,1.46-5.18,2.38-2.88,1.42-5.53,3.25-7.88,5.44-.63.81-1.79.96-2.6.33-.81-.63-.95-1.79-.33-2.6,2.75-2.7,5.92-4.93,9.38-6.61,1.87-1.02,3.81-1.88,5.81-2.59,1.59-.74,3.4-.87,5.09-.37,1.72.78,1.95,3,2.03,3.73.12,1.6.1,3.21-.08,4.8-.3,3.52-1.01,7.65-1.58,10.98-.36,2.08-.72,4.24-.72,4.81,0,1.02-.83,1.84-1.85,1.84Z" fill="#4d4d4d"/><path id="_パス_8427" d="m103.62,50.21c-.24,0-.47-.04-.69-.13-5.76-2.12-11.83-3.28-17.97-3.41-4.95-.19-9.86.93-14.23,3.24-.86.55-2.01.31-2.56-.55-.55-.86-.31-2.01.55-2.56,4.98-2.72,10.59-4.04,16.26-3.84,4.54.05,9.06.66,13.45,1.83,2,.5,3.96,1.12,5.89,1.84.95.38,1.41,1.46,1.03,2.41-.28.71-.97,1.18-1.73,1.17Z" fill="#4d4d4d"/><path id="_パス_8428" d="m60.95,116l-3.66-.51v.04c.01-.6-.06-1.21-.22-1.79-.48-1.86-1.24-3.63-2.26-5.27-.42-.71-.91-1.48-1.41-2.28-2.09-3.15-3.87-6.49-5.31-9.98-1.89-4.85-2.84-10.01-2.79-15.21.04-6.28,1.16-12.51,3.31-18.41.38-.95,1.46-1.41,2.41-1.03.95.38,1.41,1.46,1.03,2.41h0c-.61,1.65-1.12,3.34-1.52,5.05-.98,3.92-1.49,7.95-1.52,11.99-.04,4.74.82,9.44,2.54,13.85,1.36,3.28,3.03,6.41,5,9.37.52.83,1.01,1.61,1.46,2.37,1.96,2.74,2.99,6.04,2.95,9.41Z" fill="#4d4d4d"/><path id="_パス_8429" d="m84.13,245.54c-2.57.09-5.11-.56-7.32-1.86-2.49-1.63-3.94-4.43-3.84-7.4-.15-2.29.64-4.54,2.2-6.22,1.13-1.19,1.68-2.82,1.52-4.45v-1.56c.38-6.41-.4-12.83-2.29-18.96-1.16-2.73-2.52-5.37-4.08-7.9-5.94-9.83-10.47-20.44-13.48-31.52-1.22-4.84-1.93-9.8-2.1-14.79-.2-4.75-.12-9.5.23-14.23.34-5.05.96-10.07,1.84-15.05.19-1.01,1.17-1.66,2.17-1.47,1.01.19,1.66,1.17,1.47,2.17-.86,4.85-1.45,9.75-1.79,14.66-.34,4.59-.41,9.19-.22,13.78.16,4.72.83,9.4,1.98,13.98,2.93,10.77,7.34,21.08,13.11,30.64,1.66,2.7,3.11,5.53,4.33,8.45,2.07,6.54,2.92,13.41,2.52,20.26v1.55c.17,2.5-.69,4.95-2.37,6.81-1,1.01-1.5,2.41-1.35,3.82-.11,1.73.71,3.38,2.15,4.34,1.64.92,3.5,1.36,5.38,1.27,2.2.03,4.38-.36,6.43-1.15.73-.28,1.41-.66,2.04-1.13h-.02l2.47,2.76c-.86.7-1.82,1.27-2.85,1.68-2.56,1.04-5.3,1.56-8.06,1.52l-.09.02Z" fill="#4d4d4d"/><path id="_パス_8430" d="m201.57,171.13c-.97,0-1.78-.75-1.85-1.73-.67-5.22-2.13-10.31-4.33-15.09-2.34-5.3-5.28-10.32-8.78-14.94-4.67-6.14-10.11-11.66-16.19-16.4-7.63-5.51-16.14-9.7-25.17-12.39-4.5-1.42-8.86-3.24-13.04-5.43-1.81-1.01-3.46-2.29-4.88-3.8-1.4-1.52-2.44-3.33-3.05-5.3-.53-2.97-.35-6.01.52-8.9.74-3.15,1.12-6.37,1.13-9.6-.2-4.67-1.48-9.23-3.73-13.33-.53-.88-.24-2.01.63-2.54.88-.53,2.01-.24,2.54.63,2.59,4.64,4.05,9.83,4.27,15.15,0,3.51-.4,7.01-1.2,10.43-.68,2.3-.89,4.71-.61,7.09,1.08,3.06,3.33,5.56,6.24,6.98,3.98,2.07,8.13,3.79,12.41,5.13,3.96,1.4,8.45,2.98,12.9,5.01,4.75,2.11,9.22,4.78,13.32,7.96,6.37,4.97,12.06,10.75,16.94,17.19,3.67,4.87,6.76,10.16,9.21,15.75,2.35,5.11,3.89,10.56,4.56,16.14.07,1.02-.7,1.91-1.72,1.98l-.13.02Z" fill="#4d4d4d"/><path id="_パス_8431" d="m112.58,245.98c-.98,0-1.96-.07-2.94-.21-3.52-.19-6.82-1.79-9.15-4.45-.8-1.14-1.07-2.57-.73-3.93.25-.99,1.26-1.59,2.25-1.34.99.25,1.59,1.26,1.34,2.25-.08.33,0,.69.21.95,1.76,1.74,4.1,2.75,6.57,2.84,2.25.35,4.56.19,6.74-.48,1.88-.58,3.54-1.73,4.73-3.29.95-1.2,1.38-2.73,1.2-4.25-.23-1.52-.68-2.99-1.32-4.38-.16-.39-.3-.76-.45-1.13-.5-2.04-.64-4.14-.41-6.23.07-2.66.27-5.99.61-9.65.36-5.59,1.16-11.13,2.38-16.6.33-.97,1.38-1.49,2.35-1.16.97.33,1.49,1.38,1.16,2.35-1.12,5.14-1.85,10.36-2.19,15.61-.3,3.56-.52,6.81-.59,9.41-.15,1.66-.1,3.33.17,4.97.12.33.27.67.41,1.04.78,1.72,1.32,3.54,1.58,5.41.27,2.44-.42,4.9-1.92,6.84-1.66,2.16-3.94,3.76-6.54,4.57-1.77.57-3.62.85-5.48.84Z" fill="#4d4d4d"/><path id="_パス_8432" d="m162.81,245.22c-1.94,0-3.63-.04-5.38-.08s-3.6-.08-5.75-.08h-.14c-1.72,0-5.04-.04-8.39-.28-3.07-.09-6.12-.63-9.03-1.61-1.87-.68-3.45-2-4.44-3.73-.89-1.85-1.11-3.96-.61-5.96,1.02-3.58,3.87-6.35,7.49-7.25,1.9-.68,3.86-1.14,5.86-1.37,1.02-.1,1.92.65,2.02,1.66,0,0,0,0,0,0,.1,1.02-.65,1.92-1.67,2.02-1.71.2-3.39.6-5,1.19-1.22.42-2.37,1.05-3.38,1.85-.85.65-1.45,1.57-1.68,2.62-.32,1.16-.23,2.4.26,3.5.6.97,1.51,1.69,2.59,2.05,2.55.83,5.21,1.28,7.89,1.34,3.24.24,6.46.27,8.12.27h.14c2.2,0,4.05.04,5.84.08,3.48.08,6.77.15,12.23-.08,2.44-.27,4.8-.99,6.97-2.13,3.15-1.54,6.15-3.38,8.95-5.49,6.27-4.52,11.56-10.28,15.53-16.91,1.65-3.2,2.64-6.69,2.92-10.27.35-3.69.32-7.41-.07-11.1-.41-4.21-1.17-8.38-2.26-12.47-.28-.98.28-2.01,1.27-2.3.98-.28,2.01.28,2.3,1.27,1.16,4.28,1.95,8.65,2.38,13.07.42,3.95.45,7.94.08,11.89-.33,4.09-1.47,8.07-3.35,11.71-2.01,3.55-4.46,6.85-7.28,9.81-2.85,3.03-5.95,5.81-9.29,8.29-3,2.26-6.21,4.23-9.58,5.88-2.61,1.36-5.47,2.21-8.4,2.48-2.87.1-5.13.14-7.13.14Z" fill="#4d4d4d"/></g></g></svg>