<?xml version="1.0" encoding="UTF-8"?><svg id="_レイヤー_4" xmlns="http://www.w3.org/2000/svg" viewBox="0 0 280 280"><g id="sox"><path d="M145.2,107.64l10-5.2c2.4-1.2,3.2-4.4,2-6.8-1.2-2.4-4.4-3.6-6.8-2.4l-20.8,10.8c-2.4,1.2-3.6,4.4-2.4,6.8l10.8,21.2c.8,1.6,2.8,2.8,4.4,2.8,.8,0,1.6,0,2.4-.4,2.4-1.2,3.6-4.4,2.4-6.8l-5.2-10c15.2,1.2,27.6,14,27.6,29.6,0,16.4-13.2,29.6-29.6,29.6s-29.6-13.2-29.6-29.6c0-2.8-2.4-4.8-5.2-5.2-2.8,0-5.2,2-5.2,5.2,0,22,18,40,40,40h0c22,0,40-18,40-40,0-20.4-15.2-37.2-34.8-39.6Z"/></g></svg>