<?xml version="1.0" encoding="UTF-8"?><svg id="_レイヤー_1" xmlns="http://www.w3.org/2000/svg" viewBox="0 0 280 280"><g id="_グループ_6500"><g id="_グループ_6497"><path id="_パス_8485-2" d="m204.91,209.42s16.85-14.08,23.88-66.01c5.03-37.15,9.71-81.92-4.95-81.92-12.69,0-7.93,28.29-12.6,63.4-2.18,17.13-6.78,33.86-13.64,49.7,0,0-4.16,32.06,7.3,34.82Z"/><path id="_パス_8486-2" d="m205.27,208.71c-.5,0-.98-.2-1.33-.56-.71-.73-.7-1.9.03-2.62h0c2.7-2.64,5.25-6.22,8.94-15.12,1.07-2.59,3.9-9.69,6.96-19.7,3-9.69,5.37-19.56,7.08-29.55,2.48-16.95,3.72-34.05,3.7-51.18,0-.81.02-1.57.04-2.27,0-.63.06-1.38.11-2.23.28-3.31.24-6.65-.1-9.96-.12-1.02.61-1.93,1.63-2.05h0c1.02-.12,1.93.61,2.05,1.62,0,0,0,0,0,0,.37,3.53.4,7.08.12,10.61-.05.81-.09,1.52-.1,2.06,0,.7-.02,1.45-.03,2.27.02,17.32-1.24,34.61-3.76,51.74-2.99,17.14-7.78,33.92-14.28,50.06-1.42,3.58-3.12,7.05-5.08,10.37-1.31,2.19-2.89,4.2-4.7,5.98-.34.34-.81.53-1.29.53Z" fill="#4d4d4d"/><path id="_パス_8487" d="m200.53,169.63c-.26,0-.53-.06-.77-.17-.92-.42-1.33-1.51-.91-2.44,4.49-9.89,7.75-25.43,11.56-47.3,1.78-11.21,2.62-22.54,2.52-33.89-.15-5.68.21-11.36,1.08-16.97.37-2.06,1.18-4.03,2.37-5.75,1.21-1.63,2.95-2.78,4.93-3.25,2.16-.5,4.43-.07,6.26,1.18,1.37.89,2.54,2.04,3.46,3.38.93,1.33,1.58,2.82,1.91,4.41.2,1-.45,1.98-1.45,2.18,0,0,0,0,0,0-1,.2-1.98-.45-2.18-1.45,0,0,0,0,0,0-.5-2.21-1.83-4.13-3.72-5.38-.98-.69-2.2-.95-3.38-.72-3.02.76-4.01,3.55-4.57,6.18-.8,5.37-1.13,10.81-1,16.24.1,11.54-.76,23.07-2.58,34.47-3.85,22.16-7.18,37.95-11.83,48.2-.31.66-.97,1.08-1.7,1.08Z" fill="#4d4d4d"/></g><g id="_グループ_6499"><path id="_パス_8488" d="m86.74,44.9c-9.6,0-18.2-1.03-28.7,8.46-11.74,10.62-10.91,21.72-10.78,31.27.12,9.55,8.23,21.49,9.79,24.06s1.45,12.42,1.45,12.42c12.64.37,25.28-.55,37.73-2.74,12.79-2.04,24.95-6.93,35.6-14.29.33-.19.44-.61.25-.93-.07-.13-.19-.23-.32-.29-2.59-1-4.49-3.25-5.04-5.97-.75-5.49.88-6.19,1-15.74.13-9.55.54-16.16-11.2-26.79-10.5-9.5-19.46-9.43-29.06-9.43h-.71Z"/><path id="_パス_8489" d="m192.72,144.88c-13.72-27.19-43.23-34.49-43.23-34.49h0c-7.62-3.4-20.06-8.93-20.06-8.93-11.22,4.5-22.76,8.17-34.53,10.98-14.66,2.96-29.43,1.89-35.79,5.67,0,0-5.02,25.37-2.07,38.57,3.67,15.76,9.66,30.88,17.77,44.88,4.6,8.53,5.48,18.58,2.44,27.78,0,0-3.74,5.43-1.74,10.21,1.99,4.78,5.71,5.49,11.38,4.57,5.11-.81,5.18-3.05,10.86-3.05s6.5,4,16.99,2.5c7.48-1.07,9.86-13.59,9.1-15.7h0s3.39-.54,6.85,4.43c.89,1.27-1,4.8,1.52,7.52s1.46,3.82,8.1,3.53,25.45,2.48,31.75-.91,28.87-13.62,32.63-33.11c4.31-22.39,4-32.72-12-64.45Z"/><g id="_グループ_6498"><path id="_パス_8490" d="m102.89,241.47c3.21,2,6.94,3.01,10.72,2.92,4.71.41,9.1-2.38,10.72-6.82,1.95-3.9-1.9-10.12-1.9-10.12-3.25-.43-6.52-.63-9.8-.61-5.85,0-8.1-.33-10.72.98-1.95.98-1.95,11.7.97,13.65Z" fill="#fff"/></g><path id="_パス_8491" d="m100.02,190.74h-.08c-4.06-.45-7.96-1.8-11.42-3.96-4.28-2.7-7.68-6.59-9.81-11.18-.41-.94.02-2.03.96-2.44,0,0,0,0,0,0,.94-.41,2.03.02,2.44.96,0,0,0,0,0,0h0c1.82,3.86,4.68,7.14,8.27,9.45,2.23,1.31,4.62,2.32,7.11,3,.85.24,1.72.4,2.6.48,1.02.04,1.82.9,1.77,1.92,0,0,0,0,0,0-.05.99-.86,1.77-1.85,1.77Z" fill="#4d4d4d"/><path id="_パス_8492" d="m101.13,233.31h-.05c-1.02-.03-1.83-.88-1.8-1.9h0c0-.09.22-8.9-.11-18.86-.16-5.72-.81-11.42-1.94-17.04-.23-1,.4-1.99,1.39-2.22,0,0,0,0,0,0,1-.23,1.99.4,2.22,1.39,0,0,0,0,0,0,1.19,5.84,1.87,11.78,2.03,17.74.33,10.06.11,18.98.11,19.07-.02,1.01-.85,1.81-1.85,1.81Z" fill="#4d4d4d"/><path id="_パス_8493" d="m70.72,49.45s-16.7-15.31-20.95-12.81c-4.25,2.5,1.46,28.4,1.46,28.4,2.55-4.22,5.87-7.92,9.78-10.91,3.13-1.78,6.37-3.34,9.71-4.68Z"/><path id="_パス_8494" d="m102.89,49.45s16.32-15.31,20.57-12.81c4.25,2.5-1.08,28.4-1.08,28.4-2.74-4.19-6.18-7.89-10.17-10.91-3.02-1.73-6.13-3.3-9.32-4.68Z"/><path id="_パス_8495" d="m50.33,60.47c-1.02,0-1.85-.83-1.85-1.85,0-.57-.37-2.73-.72-4.81-.56-3.31-1.27-7.44-1.58-10.96-.17-1.59-.2-3.2-.08-4.8.08-.73.3-2.95,2.02-3.73,1.68-.5,3.49-.37,5.08.37,2,.71,3.95,1.58,5.81,2.59,3.46,1.68,6.62,3.92,9.37,6.61.63.81.48,1.97-.33,2.6,0,0,0,0,0,0-.81.63-1.97.48-2.6-.33,0,0,0,0,0,0-2.34-2.19-5-4.02-7.87-5.44-1.67-.92-3.4-1.72-5.18-2.38-.81-.32-1.66-.54-2.52-.63-.28,1.91-.26,3.85.06,5.76.33,3.17.95,6.8,1.45,9.71.37,1.79.63,3.61.77,5.43,0,1.02-.82,1.84-1.84,1.85Z" fill="#4d4d4d"/><path id="_パス_8496" d="m123.72,60.47c-1.02,0-1.85-.83-1.85-1.85.15-1.83.41-3.64.77-5.43.5-2.92,1.12-6.55,1.45-9.71.32-1.9.34-3.85.06-5.76-.87.09-1.71.3-2.52.63-1.78.67-3.52,1.46-5.18,2.38-2.88,1.42-5.53,3.25-7.87,5.44-.63.81-1.79.96-2.6.33,0,0,0,0,0,0-.81-.63-.96-1.79-.33-2.6,0,0,0,0,0,0,2.75-2.69,5.91-4.93,9.37-6.61,1.87-1.02,3.81-1.88,5.81-2.59,1.59-.74,3.4-.87,5.08-.37,1.72.77,1.95,2.99,2.02,3.73.12,1.6.1,3.21-.08,4.8-.3,3.52-1.01,7.64-1.58,10.96-.36,2.08-.72,4.24-.72,4.81,0,1.02-.82,1.85-1.84,1.85Z" fill="#4d4d4d"/><path id="_パス_8497" d="m60.94,115.94l-3.66-.51v.04c.01-.6-.06-1.21-.22-1.79-.48-1.86-1.24-3.63-2.26-5.26-.42-.71-.91-1.48-1.41-2.28-2.09-3.15-3.86-6.49-5.31-9.98-1.89-4.84-2.84-10-2.79-15.2.04-6.28,1.17-12.5,3.32-18.4.38-.95,1.46-1.41,2.4-1.03,0,0,0,0,0,0,.95.38,1.41,1.46,1.03,2.4,0,0,0,0,0,0h0c-.61,1.65-1.12,3.33-1.52,5.04-.98,3.92-1.49,7.94-1.52,11.98-.04,4.74.82,9.43,2.54,13.85,1.36,3.28,3.03,6.41,4.99,9.36.52.83,1.01,1.61,1.46,2.37,1.95,2.74,2.98,6.04,2.93,9.4Z" fill="#4d4d4d"/><path id="_パス_8498" d="m84.11,245.54c-2.57.09-5.11-.55-7.32-1.86-2.48-1.62-3.94-4.42-3.85-7.38-.15-2.29.64-4.53,2.2-6.21,1.13-1.19,1.68-2.81,1.52-4.45v-1.56c.38-6.4-.4-12.82-2.29-18.94-1.16-2.73-2.52-5.37-4.07-7.89-5.93-9.82-10.47-20.42-13.47-31.5-1.22-4.84-1.93-9.79-2.1-14.78-.2-4.74-.12-9.49.23-14.23.34-5.04.95-10.07,1.83-15.04.19-1,1.16-1.66,2.17-1.47s1.66,1.16,1.47,2.17c-.86,4.85-1.45,9.74-1.79,14.65-.34,4.58-.41,9.18-.22,13.77.16,4.71.83,9.4,1.98,13.97,2.93,10.77,7.34,21.07,13.11,30.62,1.66,2.7,3.11,5.52,4.33,8.44,2.07,6.54,2.92,13.4,2.52,20.24v1.55c.17,2.5-.69,4.95-2.37,6.8-1,1.01-1.5,2.4-1.35,3.81-.12,1.72.7,3.37,2.13,4.33,1.64.92,3.5,1.36,5.38,1.26,2.2.03,4.38-.36,6.42-1.15.73-.28,1.41-.66,2.04-1.13h-.02l2.47,2.74c-.86.7-1.82,1.27-2.85,1.68-2.55,1.04-5.29,1.56-8.05,1.52h-.05Z" fill="#4d4d4d"/><path id="_パス_8499" d="m201.6,171.04c-.97,0-1.78-.76-1.84-1.73-.66-5.22-2.12-10.31-4.33-15.08-2.33-5.3-5.28-10.3-8.77-14.92-4.66-6.14-10.1-11.65-16.18-16.39-7.63-5.51-16.13-9.7-25.15-12.38-4.5-1.42-8.86-3.23-13.04-5.42-1.81-1.01-3.45-2.29-4.86-3.79-1.4-1.52-2.44-3.33-3.05-5.3-.53-2.96-.35-6.01.52-8.89.74-3.15,1.11-6.36,1.13-9.6-.2-4.67-1.48-9.23-3.73-13.33-.53-.87-.25-2.01.63-2.54,0,0,0,0,0,0,.87-.53,2.01-.25,2.54.63,0,0,0,0,0,0,2.59,4.64,4.05,9.83,4.27,15.14,0,3.51-.4,7-1.2,10.42-.68,2.3-.89,4.71-.61,7.09,1.08,3.05,3.32,5.56,6.24,6.98,3.98,2.07,8.13,3.79,12.4,5.13,3.96,1.4,8.45,2.98,12.9,5.01,4.74,2.11,9.21,4.78,13.31,7.96,6.37,4.97,12.06,10.74,16.93,17.18,3.67,4.87,6.76,10.15,9.2,15.74,2.35,5.11,3.89,10.55,4.55,16.13.07,1.02-.7,1.9-1.72,1.97h-.14Z" fill="#4d4d4d"/><path id="_パス_8500" d="m112.58,245.98c-.98,0-1.96-.07-2.93-.21-3.52-.2-6.8-1.8-9.13-4.44-.8-1.14-1.07-2.57-.73-3.92.25-.99,1.26-1.59,2.25-1.34.99.25,1.59,1.26,1.34,2.25-.08.33,0,.69.21.95,1.76,1.74,4.1,2.75,6.57,2.84,2.25.35,4.56.19,6.74-.48,1.88-.58,3.53-1.73,4.73-3.29.95-1.2,1.38-2.73,1.2-4.24-.23-1.52-.68-2.99-1.32-4.38-.16-.39-.3-.76-.45-1.13-.5-2.03-.64-4.14-.41-6.22.07-2.66.27-5.99.61-9.65.36-5.58,1.15-11.13,2.38-16.58.33-.97,1.37-1.49,2.34-1.17,0,0,0,0,0,0,.97.33,1.49,1.37,1.17,2.34,0,0,0,0,0,0-1.12,5.14-1.85,10.35-2.19,15.6-.3,3.56-.52,6.81-.59,9.4-.15,1.66-.1,3.33.17,4.97.12.33.27.67.41,1.04.78,1.72,1.31,3.54,1.58,5.41.27,2.44-.42,4.89-1.92,6.84-1.66,2.16-3.94,3.76-6.54,4.57-1.77.57-3.62.85-5.48.84Z" fill="#4d4d4d"/><path id="_パス_8501" d="m158.71,227.06s-16.94-1.08-21.63.91c-4.69,2-7.17,4.25-6.4,9.95.77,5.7,7.85,4.71,7.85,4.71,0,0,27.54,1.75,33.12.39,6.39-2.31,12.33-5.72,17.54-10.08,3.63-2.97-4.16-13.69-13.91-13.69s-12.68,5.85-16.58,7.8Z" fill="#fff"/><path id="_パス_8502" d="m162.85,245.21c-1.94,0-3.63-.04-5.37-.08s-3.63-.08-5.83-.08c-1.7,0-5.06-.03-8.45-.28-3.07-.09-6.11-.64-9.03-1.61-1.87-.68-3.45-2-4.44-3.73-.89-1.85-1.11-3.96-.61-5.95,1.02-3.58,3.87-6.35,7.48-7.24,1.89-.68,3.86-1.14,5.86-1.37,1.02-.1,1.92.65,2.02,1.67,0,0,0,0,0,0,.1,1.02-.65,1.92-1.67,2.02,0,0,0,0,0,0-1.71.2-3.38.6-5,1.19-1.22.42-2.37,1.05-3.38,1.85-.85.65-1.45,1.57-1.68,2.61-.32,1.16-.23,2.39.26,3.49.6.96,1.51,1.69,2.59,2.05,2.55.82,5.2,1.27,7.88,1.34,3.27.24,6.53.27,8.18.27,2.24,0,4.1.04,5.91.08,3.48.08,6.76.15,12.22-.08,2.44-.27,4.8-.99,6.97-2.13,3.15-1.54,6.15-3.38,8.95-5.49,6.27-4.52,11.55-10.27,15.52-16.9,6.73-12.22.66-33.61.59-33.82-.28-.98.28-2.01,1.26-2.29h0c.98-.28,2.01.28,2.29,1.26h0c1.16,4.28,1.95,8.65,2.38,13.06.42,3.95.45,7.92.08,11.87-.33,4.09-1.47,8.07-3.35,11.71-2.01,3.55-4.46,6.84-7.27,9.8-2.85,3.03-5.96,5.8-9.3,8.29-2.99,2.26-6.2,4.23-9.57,5.88-2.61,1.36-5.46,2.2-8.39,2.48-2.84.12-5.1.16-7.09.16Z" fill="#4d4d4d"/><path id="_パス_8503" d="m103.59,50.19c-.23,0-.47-.04-.69-.13-5.76-2.12-11.83-3.28-17.96-3.41-3.58-.03-7.14.52-10.54,1.62-1.29.41-2.53.95-3.7,1.63h0l-2.01-3.11c4.97-2.71,10.58-4.04,16.25-3.84,4.54.05,9.06.66,13.45,1.83,2,.5,3.96,1.11,5.89,1.83.95.38,1.41,1.46,1.03,2.4,0,0,0,0,0,0-.28.71-.96,1.17-1.71,1.18Z" fill="#4d4d4d"/></g></g></svg>