<?xml version="1.0" encoding="UTF-8"?><svg id="_レイヤー_1" xmlns="http://www.w3.org/2000/svg" viewBox="0 0 280 280"><g id="_グループ_6488"><g id="_グループ_6486"><path id="_パス_8442-2" d="m204.91,209.46s16.86-14.09,23.89-66.02c5.03-37.16,9.71-81.94-4.95-81.94-12.69,0-7.93,28.3-12.6,63.42-2.19,17.13-6.78,33.86-13.65,49.7,0,0-4.17,32.07,7.3,34.83Z"/><path id="_パス_8443-2" d="m205.27,208.76c-.5,0-.98-.2-1.33-.56-.71-.73-.7-1.9.03-2.62,0,0,0,0,0,0,2.7-2.64,5.25-6.22,8.94-15.13,1.07-2.59,3.9-9.69,6.96-19.71,3-9.69,5.37-19.56,7.08-29.56,2.48-16.95,3.72-34.06,3.7-51.2.01-.81.02-1.57.03-2.27,0-.63.06-1.38.11-2.23.28-3.32.24-6.65-.1-9.96-.12-1.02.61-1.93,1.63-2.05,1.02-.12,1.93.61,2.05,1.63.37,3.53.4,7.08.12,10.62-.05.81-.09,1.52-.1,2.06,0,.7-.02,1.45-.03,2.27.02,17.32-1.24,34.62-3.76,51.75-3,17.14-7.78,33.93-14.28,50.07-1.42,3.58-3.12,7.05-5.08,10.37-1.31,2.19-2.89,4.2-4.7,5.98-.34.34-.8.53-1.29.54Z" fill="#4d4d4d"/><path id="_パス_8444" d="m200.53,169.66c-.26,0-.52-.06-.77-.16-.92-.43-1.33-1.51-.91-2.44,4.49-9.9,7.75-25.44,11.56-47.31,1.78-11.21,2.62-22.54,2.52-33.89-.15-5.68.21-11.36,1.08-16.98.37-2.07,1.18-4.03,2.37-5.75,1.21-1.63,2.95-2.78,4.93-3.25,2.16-.5,4.43-.07,6.26,1.18,1.37.89,2.54,2.04,3.46,3.38.93,1.33,1.58,2.82,1.91,4.41.2,1-.45,1.98-1.45,2.18,0,0,0,0,0,0-1,.2-1.98-.45-2.18-1.45-.5-2.2-1.84-4.13-3.72-5.38-.98-.69-2.2-.95-3.38-.72-3.03.76-4.01,3.55-4.57,6.18-.8,5.38-1.13,10.81-1,16.24.1,11.55-.76,23.08-2.58,34.48-3.85,22.16-7.18,37.96-11.84,48.21-.31.66-.97,1.08-1.7,1.07Z" fill="#4d4d4d"/></g><g id="_グループ_6487"><path id="_パス_8445" d="m86.75,44.9c-9.6,0-18.21-1.03-28.71,8.46-11.75,10.63-10.91,21.73-10.79,31.28s8.23,21.49,9.79,24.07c1.56,2.57,1.45,12.42,1.45,12.42,12.64.37,25.28-.55,37.74-2.74,12.79-2.04,24.96-6.93,35.61-14.29.33-.19.44-.61.25-.93-.07-.13-.19-.23-.32-.29-2.59-1.01-4.48-3.25-5.04-5.97-.75-5.49.88-6.2,1-15.75.13-9.55.54-16.16-11.21-26.8-10.5-9.5-19.47-9.44-29.07-9.44h-.71Z"/><path id="_パス_8446" d="m192.72,144.86c-13.71-27.2-43.22-34.5-43.22-34.5h0c-7.62-3.4-20.06-8.93-20.06-8.93-11.22,4.5-22.76,8.17-34.53,10.98-14.65,2.96-29.42,1.89-35.79,5.67,0,0-5.02,25.38-2.07,38.58,3.67,15.76,9.66,30.89,17.77,44.89,4.6,8.53,5.48,18.58,2.44,27.78,0,0-3.74,5.44-1.74,10.21,1.99,4.78,5.71,5.49,11.38,4.57,5.11-.8,5.18-3.05,10.86-3.05s6.5,4,16.99,2.5c7.48-1.07,9.86-13.6,9.1-15.71h0s3.39-.54,6.85,4.43c.89,1.27-1,4.8,1.52,7.53,2.52,2.73,1.46,3.82,8.1,3.53,6.64-.29,25.45,2.48,31.75-.91,6.3-3.39,28.87-13.62,32.63-33.12,4.31-22.4,3.99-32.72-12-64.46Z"/><path id="_パス_8447" d="m101.92,233.68c-.13,5.08,1.95,5.85-2.92,7.8-5.26,2.1-7.04,1.48-12.15,2.28-5.67.89-9.39.2-11.38-4.57-1.99-4.77,2.03-11.71,2.03-11.71,3.25-.43,6.52-.63,9.8-.61,5.85,0,10.67,1.58,13.59,1.58s1.05,4.18,1.02,5.24Z" fill="#fff"/><path id="_パス_8448" d="m99.94,190.74c-4.06-.45-7.96-1.8-11.43-3.96-4.28-2.7-7.69-6.59-9.81-11.18-.41-.94.02-2.03.96-2.44,0,0,0,0,0,0,.94-.41,2.03.02,2.44.96,0,0,0,0,0,0h0c1.82,3.86,4.69,7.14,8.27,9.45,2.19,1.29,4.53,2.29,6.98,2.97.9.26,1.82.43,2.74.51h0l-.16,3.69Z" fill="#4d4d4d"/><path id="_パス_8449" d="m101.13,233.31h-.05c-1.02-.03-1.83-.88-1.81-1.9,0-.09.22-8.9-.11-18.86-.16-5.73-.81-11.43-1.94-17.04-.23-1,.4-1.99,1.4-2.22,1-.23,1.99.4,2.22,1.4,1.19,5.84,1.87,11.78,2.03,17.74.33,10.06.11,18.99.11,19.08-.03,1-.85,1.8-1.85,1.8Z" fill="#4d4d4d"/><path id="_パス_8450" d="m70.72,49.45s-16.71-15.31-20.96-12.81c-4.25,2.5,1.46,28.41,1.46,28.41,2.55-4.22,5.87-7.92,9.79-10.91,3.13-1.78,6.37-3.34,9.71-4.69Z"/><path id="_パス_8451" d="m102.89,49.45s16.32-15.31,20.57-12.81-1.08,28.41-1.08,28.41c-2.74-4.2-6.18-7.89-10.17-10.91-3.02-1.73-6.13-3.3-9.32-4.69Z"/><path id="_パス_8452" d="m50.34,60.48c-1.02,0-1.85-.83-1.85-1.85,0-.57-.37-2.73-.72-4.81-.57-3.31-1.27-7.44-1.58-10.96-.17-1.59-.2-3.2-.08-4.8.08-.73.3-2.95,2.03-3.73,1.68-.5,3.49-.37,5.09.37,2,.71,3.95,1.58,5.81,2.59,3.45,1.69,6.61,3.92,9.36,6.61.63.81.48,1.97-.33,2.6,0,0,0,0,0,0-.81.63-1.97.48-2.6-.33,0,0,0,0,0,0-2.34-2.19-5-4.02-7.87-5.44-1.67-.92-3.4-1.72-5.18-2.38-.81-.33-1.66-.54-2.52-.63-.28,1.91-.26,3.85.06,5.76.33,3.17.95,6.8,1.45,9.72.37,1.79.63,3.61.77,5.43,0,1.02-.82,1.85-1.84,1.86Z" fill="#4d4d4d"/><path id="_パス_8453" d="m123.72,60.47c-1.02,0-1.85-.83-1.85-1.85.15-1.83.41-3.64.77-5.43.5-2.92,1.12-6.55,1.45-9.72.32-1.9.34-3.85.06-5.76-.87.09-1.71.3-2.52.63-1.78.67-3.52,1.46-5.18,2.38-2.88,1.42-5.53,3.25-7.87,5.44-.63.81-1.79.95-2.6.33-.81-.63-.96-1.79-.33-2.6,0,0,0,0,0,0,2.75-2.69,5.92-4.93,9.38-6.61,1.87-1.02,3.81-1.88,5.81-2.59,1.59-.74,3.4-.87,5.09-.37,1.72.77,1.95,3,2.02,3.73.12,1.6.1,3.21-.08,4.8-.3,3.52-1.01,7.64-1.58,10.96-.36,2.08-.72,4.24-.72,4.81,0,1.02-.83,1.85-1.85,1.85Z" fill="#4d4d4d"/><path id="_パス_8454" d="m60.94,115.96l-3.66-.51v.04c.01-.6-.06-1.21-.22-1.79-.48-1.86-1.24-3.63-2.26-5.27-.42-.71-.91-1.48-1.41-2.28-2.09-3.15-3.86-6.49-5.31-9.98-1.89-4.84-2.84-10-2.79-15.2.04-6.28,1.17-12.5,3.32-18.4.38-.95,1.46-1.41,2.4-1.03,0,0,0,0,0,0,.95.38,1.41,1.46,1.03,2.4,0,0,0,0,0,0h0c-.61,1.65-1.12,3.33-1.52,5.04-.98,3.92-1.49,7.94-1.52,11.98-.04,4.74.82,9.44,2.54,13.85,1.36,3.28,3.03,6.41,4.99,9.36.52.83,1.01,1.61,1.46,2.37,1.96,2.75,2.98,6.04,2.94,9.41Z" fill="#4d4d4d"/><path id="_パス_8455" d="m84.12,245.54c-2.57.09-5.11-.55-7.32-1.86-2.49-1.62-3.94-4.43-3.84-7.4-.15-2.29.64-4.53,2.2-6.21,1.13-1.19,1.68-2.82,1.52-4.45v-1.56c.38-6.4-.4-12.82-2.29-18.95-1.16-2.73-2.52-5.37-4.07-7.9-5.93-9.82-10.47-20.43-13.47-31.5-1.22-4.84-1.93-9.8-2.1-14.79-.2-4.74-.12-9.5.23-14.23.34-5.05.96-10.07,1.84-15.05.19-1,1.16-1.66,2.17-1.47,1,.19,1.66,1.16,1.47,2.17,0,0,0,0,0,0-.86,4.85-1.45,9.74-1.79,14.66-.34,4.58-.41,9.18-.22,13.78.16,4.72.83,9.4,1.98,13.97,2.93,10.77,7.34,21.08,13.11,30.63,1.66,2.7,3.11,5.52,4.33,8.45,2.07,6.54,2.92,13.4,2.52,20.25v1.55c.17,2.5-.69,4.95-2.37,6.8-1,1.01-1.5,2.41-1.35,3.82-.11,1.73.71,3.38,2.15,4.33,1.64.92,3.5,1.36,5.38,1.26,2.2.03,4.38-.36,6.43-1.15.73-.28,1.41-.66,2.04-1.13h-.02l2.47,2.76c-.86.7-1.82,1.27-2.85,1.68-2.56,1.04-5.29,1.56-8.05,1.52l-.1.02Z" fill="#4d4d4d"/><path id="_パス_8456" d="m201.6,171.07c-.97,0-1.78-.76-1.84-1.73-.66-5.22-2.12-10.31-4.33-15.09-2.33-5.3-5.28-10.31-8.77-14.93-4.67-6.14-10.11-11.65-16.19-16.4-7.63-5.51-16.13-9.7-25.16-12.39-4.5-1.42-8.86-3.23-13.04-5.42-1.81-1.01-3.46-2.29-4.88-3.79-1.4-1.52-2.44-3.33-3.05-5.3-.53-2.97-.35-6.01.52-8.9.74-3.15,1.12-6.36,1.13-9.6-.2-4.67-1.48-9.23-3.73-13.33-.53-.88-.25-2.01.63-2.54,0,0,0,0,0,0,.88-.53,2.01-.25,2.54.63,0,0,0,0,0,0,2.59,4.64,4.05,9.83,4.27,15.14,0,3.51-.4,7.01-1.2,10.42-.68,2.3-.89,4.71-.61,7.09,1.08,3.05,3.32,5.56,6.24,6.98,3.98,2.07,8.13,3.79,12.41,5.13,3.96,1.4,8.45,2.98,12.9,5.01,4.74,2.11,9.21,4.78,13.32,7.96,6.37,4.97,12.06,10.75,16.94,17.19,3.67,4.87,6.76,10.15,9.2,15.74,2.35,5.11,3.89,10.55,4.55,16.14.07,1.02-.7,1.9-1.72,1.98,0,0,0,0,0,0h-.13Z" fill="#4d4d4d"/><path id="_パス_8457" d="m160.22,226.53s-16.94-1.08-21.63.91-7.17,4.25-6.4,9.95c.77,5.7,7.86,4.71,7.86,4.71,0,0,27.54,1.75,33.13.39,6.39-2.3,12.33-5.72,17.55-10.08,3.63-2.97-4.17-13.69-13.91-13.69s-12.68,5.85-16.58,7.8Z" fill="#fff"/><path id="_パス_8458" d="m112.59,245.98c-.98,0-1.96-.07-2.94-.21-3.52-.19-6.81-1.8-9.13-4.44-.81-1.14-1.07-2.57-.73-3.93.25-.99,1.26-1.59,2.25-1.34,0,0,0,0,0,0,.99.25,1.59,1.26,1.34,2.25,0,0,0,0,0,0-.08.33,0,.69.21.95,1.76,1.74,4.1,2.75,6.57,2.84,2.25.35,4.56.19,6.74-.48,1.88-.58,3.54-1.72,4.73-3.29.95-1.2,1.38-2.73,1.2-4.24-.23-1.52-.68-2.99-1.32-4.38-.16-.39-.3-.76-.45-1.13-.5-2.03-.64-4.14-.41-6.22.07-2.66.27-5.99.61-9.65.36-5.58,1.15-11.13,2.38-16.59.33-.97,1.37-1.49,2.34-1.17,0,0,0,0,0,0,.97.33,1.49,1.37,1.17,2.34,0,0,0,0,0,0-1.12,5.14-1.85,10.35-2.19,15.6-.3,3.56-.52,6.81-.59,9.4-.15,1.66-.1,3.33.17,4.97.12.33.27.67.41,1.04.78,1.72,1.31,3.54,1.58,5.41.27,2.44-.42,4.89-1.92,6.84-1.66,2.16-3.94,3.76-6.54,4.57-1.77.57-3.62.85-5.48.84Z" fill="#4d4d4d"/><path id="_パス_8459" d="m162.84,245.22c-1.94,0-3.63-.04-5.38-.08s-3.6-.08-5.75-.08h-.14c-1.72,0-5.04-.04-8.39-.28-3.07-.09-6.11-.64-9.03-1.61-1.87-.68-3.45-2-4.44-3.73-.89-1.85-1.11-3.96-.61-5.95,1.02-3.58,3.87-6.35,7.49-7.25,1.89-.68,3.86-1.14,5.86-1.37,1.02-.1,1.92.65,2.02,1.67,0,0,0,0,0,0,.1,1.02-.65,1.92-1.67,2.02,0,0,0,0,0,0-1.71.2-3.38.6-5,1.19-1.22.42-2.37,1.05-3.38,1.85-.85.65-1.45,1.57-1.68,2.61-.32,1.16-.23,2.39.26,3.49.6.97,1.51,1.69,2.59,2.05,2.55.83,5.2,1.27,7.88,1.34,3.27.24,6.53.27,8.18.27,2.23,0,4.1.04,5.92.08,3.48.08,6.77.15,12.22-.08,2.44-.27,4.8-.99,6.97-2.13,3.15-1.54,6.15-3.38,8.95-5.49,6.27-4.52,11.56-10.27,15.53-16.91,1.65-3.2,2.64-6.69,2.92-10.27.35-3.69.32-7.41-.07-11.1-.41-4.21-1.17-8.38-2.26-12.46-.28-.98.28-2.01,1.27-2.29.98-.28,2.01.28,2.29,1.26,1.16,4.28,1.95,8.65,2.38,13.06.42,3.95.45,7.93.08,11.88-.33,4.09-1.47,8.07-3.35,11.71-2.01,3.55-4.46,6.85-7.28,9.8-2.86,3.03-5.98,5.8-9.32,8.28-3,2.26-6.2,4.23-9.58,5.88-2.61,1.36-5.46,2.2-8.4,2.48-2.82.12-5.08.16-7.08.16Z" fill="#4d4d4d"/><path id="_パス_8460" d="m103.61,50.19c-.23,0-.47-.04-.69-.13-5.76-2.12-11.83-3.28-17.97-3.41-3.58-.03-7.14.52-10.54,1.62-1.29.41-2.53.95-3.7,1.63h0l-2.01-3.11c4.98-2.71,10.59-4.04,16.25-3.84,4.54.05,9.06.66,13.45,1.83,2,.5,3.96,1.11,5.89,1.83.95.38,1.41,1.46,1.03,2.41-.28.71-.96,1.17-1.72,1.18Z" fill="#4d4d4d"/></g></g></svg>