<?xml version="1.0" encoding="UTF-8"?><svg xmlns="http://www.w3.org/2000/svg" xmlns:xlink="http://www.w3.org/1999/xlink" viewBox="0 0 280 280"><defs><clipPath id="clippath"><path d="m215.3,221.61s17.29-14.45,24.5-67.73c5.16-38.13,9.96-84.06-5.07-84.06-13.02,0-8.12,29.03-12.93,65.06-4,30-14,51-14,51,0,0-4.27,32.9,7.5,35.73Z" fill="none"/></clipPath><clipPath id="clippath-1"><path d="m215.24,220.44s17.29-14.45,24.5-67.73c5.16-38.13,9.96-84.06-5.07-84.06-13.02,0-8.12,29.03-12.93,65.06-4,30-14,51-14,51,0,0-4.27,32.9,7.5,35.73Z" fill="none"/></clipPath><clipPath id="clippath-2"><path d="m74.79,73.1c-9.72,0-17.84-.31-28.47,9-11.89,10.42-13.1,24.04-9.65,32.74,3.79,9.55,13.61,20.41,15.17,22.93s0,14.33,0,14.33c0,0,3.62-.15,28.43-3.82,20.2-2.99,29.81-10.8,34.55-13.38.51-.27.93-2.07.39-2.28-1.26-.5-3-3-3-6,0-6.97,3.97-7.2,4.09-16.56.13-9.36-.77-17.48-12.67-27.89-10.63-9.31-18.41-9.06-28.13-9.06h-.72Z" fill="none"/></clipPath><clipPath id="clippath-5"><path d="m198.32,174.1c-13.5-15.71-28.95-24.42-42-26-11.3-1.72-28-8-33-11-4.84-2.91-15-13-15-13,0,0-13.64,15.27-28.72,16-20.68,1-21.85-7.89-28.28-4,0,0-5.05,35.94-2.07,49.48,2.98,13.54,4.35,18.17,13,33,7.91,13.55,2.28,24.06,2.28,24.06,0,0-3.78,5.58-1.76,10.48,2.01,4.9,5.77,5.62,11.5,4.7,5.16-.83,12.28-3.72,12.28-3.72,0,0,3.17,6.54,13.78,5,7.56-1.1,9.87-5.79,10-11,.03-1.28-1.7-7.5-2-10,.29.45,20.29,5.79,30.31,6,1.47.03-1.8,9.19.93,11.46,2.73,2.26,1.58,3.17,8.73,2.93,7.16-.24,21.79,3.72,28.58.91,6.79-2.81,30.3-10.13,34.34-26.3,4.65-18.59,7.74-34.99-12.9-59Z" fill="none"/></clipPath></defs><path d="m215.3,221.61s17.29-14.45,24.5-67.73c5.16-38.13,9.96-84.06-5.07-84.06-13.02,0-8.12,29.03-12.93,65.06-4,30-14,51-14,51,0,0-4.27,32.9,7.5,35.73Z" fill="#cd833b"/><g clip-path="url(#clippath)"><g clip-path="url(#clippath-1)"><path d="m247.04,109.37s-3.7-6.51-12.01-7.2c-5.82-.49-12.92,3.46-12.92,3.46,0,0,.41-9.85,0-18.7-.53-11.41,0-23.69,12.92-23.36,7.23.18,11.3,9.63,12.01,20.87.71,11.24,0,24.93,0,24.93Z" fill="#473513"/><path d="m229.21,188.44s-5.06-3.17-7.06-6.17-8-7-4-11,7.06,4.17,10.06,3.17,6.94-7.17,8.94-5.17,1,8,1,15-2.94,6.17-8.94,4.17Z" fill="#473513"/><path d="m212.21,161.44c-4-4,.94-8.17,5.94-9.17,1.39-.28,5,3,7,4s11,0,10,3-7,1-10,4-8.94,2.17-12.94-1.83Z" fill="#473513"/><path d="m227.15,121.27c2.19.44,5,5,9,5s6,1,8,4-8,0-10,1-8,2-11-1c-2.12-2.12-1-10,4-9Z" fill="#473513"/><path d="m213.21,178.44c1.18,1.9,3.26,8.08,6,11s8,12,5,17c-1.86,3.09-7.9-1.22-10-2s-8.14-10.76-8-15c.1-3,4.31-15.33,7-11Z" fill="#473513"/><path d="m245.21,136.44c5,2,2.6,9.72.94,10.83-3,2-12,2-15,2s-8-3-6-7,7.06-1.83,10.06-2.83,5-5,10-3Z" fill="#473513"/><path d="m245.21,105.44c5,2,2.6,9.72.94,10.83-3,2-12,2-15,2s-8-3-6-7,7.06-1.83,10.06-2.83,5-5,10-3Z" fill="#473513"/></g></g><path d="m215.67,220.88c-.49,0-.99-.19-1.36-.57-.73-.75-.72-1.95.03-2.69,2.77-2.7,5.39-6.38,9.17-15.52,1.67-4.02,10.19-25.36,14.41-50.54,3.32-19.79,3.63-41.09,3.8-52.54l.04-2.31c.01-.63.06-1.4.11-2.29.16-2.56.38-6.08-.1-10.22-.12-1.04.63-1.99,1.67-2.11,1.05-.11,1.99.63,2.11,1.67.52,4.48.28,8.34.12,10.9-.05.82-.1,1.53-.11,2.11l-.04,2.3c-.17,11.55-.49,33.05-3.85,53.12-4.29,25.59-12.96,47.28-14.65,51.37-4.03,9.74-6.93,13.75-10.03,16.78-.37.36-.85.54-1.33.54Z"/><path d="m210.81,180.78c-.26,0-.53-.05-.79-.17-.96-.43-1.38-1.56-.94-2.52,4.61-10.15,7.96-26.1,11.86-48.54,2.33-13.38,2.47-25.24,2.59-34.77.18-14.8.3-24.57,8.6-26.65,2.11-.53,4.33-.11,6.42,1.21,2.72,1.72,4.88,4.86,5.51,7.99.21,1.03-.46,2.03-1.49,2.23-1.03.21-2.03-.46-2.23-1.49-.42-2.13-1.96-4.35-3.81-5.53-.83-.53-2.11-1.08-3.47-.74-5.21,1.3-5.54,8.78-5.72,23-.12,9.67-.26,21.7-2.64,35.38-3.95,22.73-7.36,38.94-12.14,49.46-.32.7-1.01,1.11-1.73,1.11Z"/><path d="m74.79,73.1c-9.72,0-17.84-.31-28.47,9-11.89,10.42-13.1,24.04-9.65,32.74,3.79,9.55,13.61,20.41,15.17,22.93s0,14.33,0,14.33c0,0,3.62-.15,28.43-3.82,20.2-2.99,29.81-10.8,34.55-13.38.51-.27.93-2.07.39-2.28-1.26-.5-3-3-3-6,0-6.97,3.97-7.2,4.09-16.56.13-9.36-.77-17.48-12.67-27.89-10.63-9.31-18.41-9.06-28.13-9.06h-.72Z" fill="#cd833b"/><g clip-path="url(#clippath-2)"><path d="m72.66,94.63c-.99.1-3-4-5.01-8.47-1.96-4.36-3.41-10.84-3-12.19.93-3.13,3.96-.55,4.08.59s.93,6.07,1.93,10.07c.84,3.35,2.99,9.9,2,10Z" fill="#473513"/><path d="m79.84,94.63c.99.1,3-4,5.01-8.47,1.96-4.36,3.41-10.84,3-12.19-.93-3.13-3.96-.55-4.08.59-.12,1.14-.93,6.07-1.93,10.07-.84,3.35-2.99,9.9-2,10Z" fill="#473513"/><path d="m76.16,92.95c.62,0,1.69-6.82,2.17-13.13.29-3.82.38-7.22,0-7.88-1-1.75-4.17-1.75-5,0-.31.65-.4,4.1,0,7.88.66,6.34,2.2,13.13,2.83,13.13Z" fill="#473513"/><path d="m52.42,103.25c0-1-5.36-1.76-8,0-3,2-9.8,7.2-8,9,3,3,5-3,9-6,3.05-2.28,7-2,7-3Z" fill="#473513"/><path d="m50.42,115.25c-1-1-3.69,1.34-6,2-4.43,1.27-6.82-.6-7.41,1.7s4.41,2.3,7.41,1.3,7-4,6-5Z" fill="#473513"/><path d="m98.12,103.25c0-1,5.36-1.76,8,0,3,2,9.8,7.2,8,9-3,3-5-3-9-6-3.05-2.28-7-2-7-3Z" fill="#473513"/><path d="m100.12,115.25c1-1,3.69,1.34,6,2,4.43,1.27,6.82-.6,7.41,1.7.59,2.3-4.41,2.3-7.41,1.3-3-1-7-4-6-5Z" fill="#473513"/><path d="m93,113.46c-.77-.32-.64-1.33.2-1.55.88-.23,2.06-.73,3.62-1.68,2-1.23,3.19-2.73,3.9-4.06.44-.82,1.77-.6,1.75.29-.04,1.91-.77,4.2-3.4,5.93-2.66,1.75-4.69,1.64-6.08,1.07Z" fill="#473513"/><path d="m56.76,113.93c.8-.23.78-1.25-.03-1.56s-1.97-.94-3.42-2.06c-1.86-1.44-2.88-3.06-3.45-4.46-.35-.86-1.7-.78-1.77.1-.16,1.91.32,4.26,2.74,6.26,2.46,2.03,4.49,2.14,5.93,1.71Z" fill="#473513"/><path d="m60.96,93.79c.45.34.2.98-.39.98s-1.48.13-2.66.5c-1.52.48-2.55,1.26-3.24,2.02-.42.46-1.26.1-1.1-.48.35-1.25,1.2-2.63,3.22-3.33,2.04-.71,3.35-.3,4.17.31Z" fill="#473513"/><path d="m90.45,94.11c-.42.37-.12.99.47.95s1.48,0,2.69.27c1.55.34,2.65,1.03,3.4,1.73.46.43,1.27-.01,1.06-.58-.46-1.21-1.43-2.52-3.5-3.04s-3.37,0-4.13.67Z" fill="#473513"/><path d="m65.87,86.73c.74-.32,1.43.31,1.05.97s-.77,1.72-1.05,3.24c-.35,1.95.03,3.53.59,4.71.34.72-.69,1.46-1.35.97-1.43-1.07-2.72-2.77-2.35-5.4.37-2.66,1.77-3.91,3.1-4.49Z" fill="#473513"/><path d="m85.94,86.72c-.72-.34-1.44.26-1.1.94.36.71.7,1.74.91,3.27.27,1.96-.18,3.53-.79,4.69-.37.71.62,1.48,1.31,1.01,1.48-1.02,2.83-2.69,2.57-5.33s-1.6-3.96-2.91-4.58Z" fill="#473513"/></g><path d="m198.32,174.1c-13.5-15.71-28.95-24.42-42-26-11.3-1.72-28-8-33-11-4.84-2.91-15-13-15-13,0,0-13.64,15.27-28.72,16-20.68,1-21.85-7.89-28.28-4,0,0-4.05,35.94-1.07,49.48,2.98,13.54,3.35,19.17,12,34,7.91,13.55,2.28,23.06,2.28,23.06,0,0-3.78,5.58-1.76,10.48,2.01,4.9,5.77,5.62,11.5,4.7,5.16-.83,12.28-3.72,12.28-3.72,0,0,3.17,6.54,13.78,5,7.56-1.1,9.87-5.79,10-11,.03-1.28-1.7-7.5-2-10,.29.45,20.29,5.79,30.31,6,1.47.03-1.8,9.19.93,11.46,2.73,2.26,1.58,3.17,8.73,2.93,7.16-.24,21.79,3.72,28.58.91,6.79-2.81,30.3-10.13,34.34-26.3,4.65-18.59,7.74-34.99-12.9-59Z" fill="#cd833b"/><path d="m60.32,75.1s-19.64-16.56-24-14,3,28,3,28c0,0,7.17-5.37,12.04-8.19,4.87-2.82,8.96-5.81,8.96-5.81Z" fill="#cd833b"/><path d="m88.74,75.1s19.64-16.56,24-14-3,28-3,28c0,0-7.17-5.37-12.04-8.19-4.87-2.82-8.96-5.81-8.96-5.81Z" fill="#cd833b"/><g clip-path="url(#clippath-5)"><path d="m141.22,187.93c-2.57-2.05-1.95-7.5.95-11.13,4.58-5.75,9.55-6.02,13.9-3.78,3.51,1.81,3.36,9.47-1.79,13.43s-9.43,4.37-13.06,1.48Z" fill="#a35519"/><path d="m153.87,215.51c-4.18-2.3-3.85-13.17,3.03-15s13.54-5.72,16.34-1.85c2.8,3.87,6.07,11.87,1.52,13.44-4.55,1.56-14.59,6.88-20.89,3.41Z" fill="#a35519"/><path d="m180.05,183.33c-3.49,2.27-10.57-.9-10.92-4-.35-3.1,2.4-6.55,6.65-5.99,4.25.57,4.6,3.67,4.84,5.73.23,2.07,1.38,2.98-.57,4.25Z" fill="#a35519"/><path d="m169.6,143.44c2.42,5.62-3.94,15.1-8.52,14.83s-8.9-5.11-7.02-11.13c1.88-6.02,6.46-5.76,9.52-5.58s4.67-1.26,6.02,1.88Z" fill="#a35519"/><path d="m193.04,225.85c-5.7-.04-11.41-9.01-9.47-12.82,1.94-3.81,7.69-5.68,12.13-1.82s2.49,7.67,1.2,10.21c-1.29,2.54-.67,4.46-3.86,4.43Z" fill="#a35519"/><path d="m202.11,181.72c-4.19,2.77-12.75-.98-13.21-4.72s2.83-7.92,7.96-7.28c5.13.64,5.58,4.38,5.88,6.87.3,2.49,1.7,3.59-.64,5.13Z" fill="#473513"/><path d="m153.08,206.34c-1.25.14-1.67-3.6,4-9.29,3.96-3.97,16.89-6.96,21.19-2.4,4.3,4.56,3.08,16.06-4.12,19.4-5.8,2.69-13.29,5.29-16.2,1.83-.81-.96,7.76-2.45,10.79-5.01,3.46-2.92,7.33-7.49,3.72-11.78-2.92-3.46-7.76-1.65-12.46,1.41-2.97,1.93-5.67,5.69-6.91,5.83Z" fill="#473513"/><path d="m150.87,209.11c3.74-.42.45,2.62,1.67,3.6,2.07,1.65,4.82.71,4.02,2.07-2.13,3.63-6.25,2.74-7.48.85-1.53-2.35-1.12-6.19,1.79-6.51Z" fill="#473513"/><path d="m132.57,196.86c-4.12-1.88-4.44-5.81-.71-6.23,3.74-.42,5.81-4.44,7.34-2.09,1.53,2.35.02,11.36-6.63,8.32Z" fill="#473513"/><path d="m149.94,144.44c2.34-5.61,6.88-6.34,13.03-3.57,10.36,4.66,8.32,13.23,6.87,16.92-1.37,3.5-5.83,4.73-6.31-.57-.34-3.75,4.19-9.87-1.97-12.64-9.22-4.15-4.08,7.36-6.69,9.76-3.92,3.6-7.36-4.08-4.93-9.9Z" fill="#473513"/><path d="m143.73,218.54c3.02.4,6.69,5.55,2.7,6.01s-6.41-3.06-14.26-.91c-3.08.84-14.41,6.68-12.84,2.71,1.57-3.97,5.28-6.91,10.28-7.47s8.98-1.02,14.12-.33Z" fill="#473513"/><path d="m197.18,250.44c3.58-1.15,6.77-7.08,1.79-6.51-4.99.56-7.62-.4-17.73-.52-3.97-.05-18.7,2.12-15.78,5.57,2.92,3.46,7.62.4,13.85-.3s11.78,3.72,17.87,1.76Z" fill="#473513"/><path d="m181.22,220.99c-2.17-2.43-1.13-9.97,2.69-7.88,3.82,2.09,1.31,3.64,1.59,6.13.28,2.49-1.2,5.19-4.28,1.75Z" fill="#473513"/><path d="m209.25,227.93c1.25-.14,12.18-3.9,11.64,2.47s-13.01,7.78-17.03,5.71c-4.02-2.07-4.59-7.06,5.39-8.18Z" fill="#473513"/><path d="m152.19,273.01c2.35-1.53,9.01,1.51,13.99.94,4.99-.56,13.03,3.58,9.57,6.49-3.46,2.92-22.86-1.2-22.86-1.2,0,0-5.41-3.18-.71-6.23Z" fill="#473513"/><path d="m204.26,185.49c4.78,1.85,6.63,11.23,3.74,13.83-2.89,2.6-8.34,2.35-10.8-2.31-2.46-4.66.43-7.26,2.35-9,1.92-1.73,2.03-3.55,4.7-2.52Z" fill="#a35519"/><path d="m187.67,211.01c.31,4.51,6,.65,7.51,4.32,1.97,4.78.6,7.33-1.49,8.11-2.65.99-3.71-2.77-5.46-2.48-3.56.58-1.26,3.34-1.18,4.59.09,1.25,3.87,5.53,7.77,3.24,7.25-4.27,7.29-11.42,5.23-15.45-4.35-8.5-12.72-7.34-12.37-2.33Z" fill="#473513"/><path d="m199.09,199.1c-1.93-2.97-3.48-8.44-2.52-11.08s7.2-3.34,7.48-.85c.13,1.19-2.7,1.66-3.32,4.16-.68,2.75.85,7.48.85,7.48,0,0-.96,2.63-2.49.28Z" fill="#473513"/><path d="m208.3,190.59c1.36,3.28,2.47,7.47,1.04,9.88s-5.86,4.87-5.69,2.36c.09-1.19,2.28-3.13,2.77-5.82.54-2.94-.63-6.6-.63-6.6,0,0,1.43-2.41,2.5.18Z" fill="#473513"/><path d="m136.12,133c6.01-2.54,15.1-2.52,13.17,2.74-1.93,5.27-7.74,9.71-11.48,10.13-3.74.42,1.93-5.27,1.65-7.76-.28-2.49-5.98-4-3.34-5.12Z" fill="#473513"/><path d="m140.35,157.52c-2.27-1.65-11.42,4.87-13.76,10.69-2.34,5.82-1.17,6.29-6.31,12.34-5.13,6.05-9.32,3.01-7.93,6.28,1.39,3.26,13.75-3.94,14.68-6.27.94-2.33,3.05-10.94,7.94-13.03,4.89-2.09,9.56-6.97,5.37-10.01Z" fill="#473513"/><path d="m126.31,127.53c-4.71,1.72-6.27,10.65-9.04,12.86-2.78,2.21-6.22,6.45-9,8.65-1.96,1.56-10.44,6.8-14.32,7.62s-1.35,4.6,2.53,3.78,10.29-2.35,14.46-5.66c4.17-3.31,11.77-8.95,14.69-12.4s10.29-9.9,9.27-12.6-5.95-3.2-8.58-2.24Z" fill="#473513"/><path d="m28.52,145.88c4.68.62,7.98,8.98,11,10.51,3.01,1.53,8.31,6.2,11.32,7.73,2.13,1.08,9.75,3,13.49,2.93,3.73-.07,2.29,3.13-1.44,3.2s-13.37,7-17.89,4.71c-4.52-2.3-9.43-5.78-12.83-8.49-3.4-2.71-11.42-13.62-11.05-16.47.37-2.86,4.78-4.45,7.4-4.1Z" fill="#473513"/><path d="m86.65,194.86c3.4,2.05,20.93-4.07,21.67-6.47s-11.16-2.11-14.29-.45c-3.13,1.66-11.8,4.25-7.37,6.92Z" fill="#473513"/><path d="m47.37,137.25s1.42,13.31,5.41,14.18,15.45-1.96,20.87-3.86c5.86-2.05,18.13-.83,21.83-2.62,3.7-1.79,13.44-11.06,15.72-14.03s6.56-11.58,9.41-9.22c2.85,2.35,3.41,7.68-2.57,12.45-5.98,4.77-14.37,14.95-21.85,17.46-6.27,2.1-16.11-.76-20.91-.18-4.53.55-17.66,8.87-23.07,6.82s-8.4-5.73-9.11-12.39,2.85-9.78,4.28-8.61Z" fill="#473513"/><path d="m35.81,176.83c-1.05,2.65,9.1,10.27,15.68,9.48,6.59-.79,8.96-3.6,15.54-4.39,6.59-.79,23.06,3.54,30.56-1.15,7.51-4.69,22.91-22.95,21.32-25.29s-20.67,18.9-27.26,19.69c-6.59.79-18.71-.28-27.93.83-7.9.95-8.96,3.6-14.23,4.24s-12.65-6.05-13.7-3.4Z" fill="#473513"/><path d="m92.8,207.79c3.88-1.55,9.89-6.21,13.76-7.76,3.88-1.55,10.47,3.68,14.35,2.13,4-1.6,6.2-6.98,7.37-4.07,1.16,2.91-2.71,10.08-6.01,10.28-3.3.19-7.25-3.94-13.06-1.62-5.82,2.33-11.12,4.41-14.85,4.92-4.26.58-6.4-1.94-1.55-3.88Z" fill="#473513"/><path d="m84.64,226.17c.07-3.32,2.36-2.32,6.08-1.48s9.58,1.44,10.59-2.46c1.01-3.9,4.73-3.06,7.01-2.06s2.71,4.74-.01,6.31c-2.72,1.57-8.02,5.96-10.88,6.28-2.86.32-6.72-1.76-8.87-1.52-2.15.24-4-1.76-3.92-5.08Z" fill="#473513"/><path d="m91.57,239.92c2.49-.28,0,0,6.23-.71s10.11.12,13.03,3.58c2.92,3.46-.96,2.63-5.95,3.2-4.99.56-9.58,4.25-12.82,3.66-3.24-.58-2.98-9.45-.49-9.73Z" fill="#473513"/><path d="m45.22,189.98c3.54-.53,11.63,9.73,17.36,7.78s11.22,4.96,7.7,5.39-10.42,2.52-15.25,1.83c-4.82-.68-12.79-8.56-12.79-8.56,0,0-5.11-5.24,2.98-6.44Z" fill="#473513"/><path d="m50.94,234.43c2.08-2.77,5.6-3.2,11.73-1.41,6.13,1.79,8.87,5.24,12.39,4.82,3.52-.42,11.3-.49,10.67,2.31-.63,2.8-5.32,3.36-10.01,3.93-4.69.56-18.9,1.01-21.64-2.45s-5.22-4.42-3.14-7.2Z" fill="#473513"/><path d="m159.71,235.34c3.84-3.23,8.16-5.97,13.15-6.54,4.99-.56,14.42,4.68,9.71,7.74-4.7,3.06-10.94,3.76-16.06,3.08-5.13-.68-10.25-1.36-6.8-4.28Z" fill="#473513"/><path d="m169.88,172.28c3.79-2.46,6.18-3.21,9.51-1.99,4.2,1.54,8.42,12.13,5.66,14.46-2.88,2.43-8.91,2.08-10.05.13-2-3.43,6.06-3.02,5.78-5.51-.28-2.49-1.94-4.99-5.03-5.65-2.74-.58-5.17,4.79-6.69,2.44,0,0-1.53-2.35.82-3.88Z" fill="#473513"/><path d="m83.61,222.13c.79,1.56-18.9,1.01-23.72.33-5.97-.84-9.34-5.36-6.4-7.03,2.94-1.67,6.67-1.78,9.72.51,3.05,2.29,7.9,1.75,10.49,2.34,3.65.82,8.34.73,9.91,3.86Z" fill="#473513"/><path d="m217.45,280.78s-6.51-1.79-9.01-1.51c-2.49.28-9.29-4-4.3-4.56s6.37.54,10.11.12c3.74-.42,10.11-3.57,10.18-1.1s-.75,6.35-6.98,7.05Z" fill="#473513"/><path d="m139.45,183.03c1.86,1.2-.05-1.44,4.53-6.27,3.24-3.41,6.7-5.69,9.75-3.13,3.21,2.69,1.72,6.4-.79,9.96-3.24,4.61-10.55,6.05-9.22,7.71,1.18,1.47,9.27,1.03,13.87-4.16,4.6-5.19,8.19-9.86,4.58-15.45-3.05-4.71-12-7.36-18.98-.42-5.78,5.74-6.01,10.31-3.75,11.77Z" fill="#473513"/><path d="m144.37,235.04c2.85-1.07,5.28-6.91,1.29-6.46-3.99.45-6.13-.57-14.26-.91-3.19-.13-14.97,1.69-12.55,5.21,2.42,3.51,6.13.57,11.12,0,4.99-.56,9.55,3.97,14.4,2.16Z" fill="#473513"/></g><path d="m89.38,211.05s-.05,0-.08,0c-.21,0-5.12-.25-11.72-4.08-6.74-3.9-9.93-11.16-10.07-11.47-.42-.96.03-2.08.99-2.5.96-.42,2.08.03,2.5.99.05.11,2.88,6.44,8.48,9.69,5.8,3.36,9.93,3.57,9.97,3.57,1.05.04,1.86.93,1.82,1.98-.04,1.02-.88,1.82-1.9,1.82Z"/><path d="m136.22,244.52c-.25,0-6.25-.01-11.37-1.04-6.03-1.21-11.06-3-11.27-3.08-.99-.35-1.5-1.44-1.15-2.43.35-.99,1.44-1.5,2.43-1.15.05.02,4.98,1.78,10.73,2.93,4.75.95,10.57.96,10.63.96,1.05,0,1.9.85,1.9,1.9s-.85,1.9-1.9,1.9Z"/><path d="m93.06,76.87c-.23,0-.47-.04-.7-.13-.09-.04-8.92-3.5-18.43-3.5s-14.56,3.3-14.61,3.33c-.88.56-2.06.3-2.62-.58-.56-.88-.31-2.05.56-2.62.25-.16,6.22-3.94,16.67-3.94s19.45,3.62,19.84,3.77c.97.39,1.45,1.49,1.06,2.47-.3.75-1.01,1.2-1.77,1.2Z"/><path d="m38.32,86c-.61,0-1.22-.3-1.58-.85-2.11-3.16-4.96-17.98-3.5-23.07.36-1.25,1-2.09,1.9-2.5,4.57-2.06,18.59,6.97,20.8,9.82.64.83.49,2.02-.34,2.67-.83.64-2.02.49-2.67-.34-2.14-2.76-13.17-8.69-15.98-8.69-.02,0-.04,0-.06,0-1.14,2.83,1.29,17.45,3,20.01.58.87.35,2.05-.53,2.63-.32.22-.69.32-1.05.32Z"/><path d="m110.73,86c-.36,0-.73-.1-1.05-.32-.87-.58-1.11-1.76-.53-2.63,1.71-2.57,4.15-17.24,2.99-20.02-2.59-.08-13.86,5.91-16.03,8.71-.64.83-1.84.98-2.67.34-.83-.64-.98-1.84-.34-2.67,2.21-2.85,16.23-11.87,20.8-9.82.9.41,1.54,1.25,1.9,2.5,1.46,5.08-1.39,19.91-3.5,23.07-.37.55-.97.85-1.58.85Z"/><path d="m85.51,247.72s-.03,0-.05,0c-1.05-.03-1.88-.9-1.85-1.95,0-.09.23-9.13-.11-19.35-.19-5.67-.78-7.64-1.03-8.23-.42-.22-.75-.6-.91-1.08-.33-1,.21-2.07,1.21-2.4.63-.21,1.37-.09,1.96.33,1.11.78,2.28,2.72,2.56,11.26.34,10.34.11,19.48.11,19.57-.03,1.03-.87,1.85-1.9,1.85Zm-1.55-29.4h0,0Z"/><path d="m72.06,259.27c-7.1,0-11.38-3.55-11.45-9.5-.04-3.59,1.23-5.13,2.26-6.38.87-1.06,1.56-1.9,1.56-4.56v-1.58c.02-4.87.02-5.06-2.35-11.46-.7-1.89-1.56-3.85-2.56-6.11-2.89-6.56-6.85-15.54-12.04-34.06-5.26-18.78.73-43.9.98-44.96.25-1.02,1.27-1.64,2.29-1.4,1.02.25,1.65,1.27,1.4,2.29-.06.25-6,25.22-1.02,43.04,5.11,18.26,9.01,27.1,11.85,33.55,1.02,2.32,1.91,4.32,2.65,6.33,2.54,6.85,2.61,7.53,2.59,12.79v1.57c0,4.03-1.35,5.67-2.44,6.98-.85,1.03-1.41,1.71-1.39,3.92.05,4.74,4.17,5.74,7.64,5.74h.08c5.91-.03,8.57-2.24,8.68-2.34.79-.68,1.99-.59,2.67.19.69.78.62,1.96-.15,2.66-.15.13-3.72,3.26-11.18,3.29h-.1Z"/><path d="m97.26,260.72c-.98,0-1.98-.07-3-.21-4.42-.62-7.84-2.29-9.37-4.56-.84-1.25-1.1-2.64-.75-4.03.26-1.02,1.29-1.63,2.31-1.38,1.02.26,1.63,1.29,1.38,2.31-.06.22-.08.53.22.98.67,1,2.84,2.37,6.74,2.92,5.02.71,9.42-.73,11.76-3.86,2.09-2.79,1.26-5.43-.13-8.85-.16-.4-.32-.79-.46-1.16-1.5-3.95,1.19-21.03,2.63-25.31.33-1,1.41-1.53,2.41-1.2,1,.33,1.53,1.41,1.2,2.41-1.69,5.02-3.51,20.54-2.68,22.75.13.34.28.7.43,1.08,1.27,3.12,3.19,7.84-.35,12.57-2.68,3.58-7.16,5.56-12.34,5.56Z"/><path d="m49.62,137.55c-.65,0-1.28-.33-1.64-.93-.78-1.33-2.11-2.88-3.64-4.68-4.61-5.42-10.92-12.84-10.92-23.83,0-10.26,3.99-19.39,4.16-19.77.42-.96,1.55-1.39,2.51-.97.96.42,1.39,1.55.97,2.51-.04.09-3.84,8.8-3.84,18.23s5.55,16.12,10.02,21.37c1.64,1.93,3.06,3.6,4.01,5.21.53.9.23,2.07-.67,2.6-.3.18-.64.26-.96.26Z"/><path d="m209.58,198.89h-.02c-1.05,0-1.89-.87-1.88-1.92,0-.17-.34-17.92-27.43-36.3-9.96-6.76-21.89-9.83-33.43-12.81-14.9-3.84-28.98-7.47-36.11-18.75-.06-.09-.1-.18-.14-.27-1.3-3.06-1.19-6.46.28-9.33,1.93-3.74,2.86-7.47,2.86-11.42,0-9.43-3.8-18.14-3.84-18.23-.42-.96.01-2.08.97-2.51.96-.43,2.08,0,2.51.97.17.38,4.16,9.51,4.16,19.77,0,4.56-1.07,8.87-3.29,13.16-.94,1.82-1.01,3.98-.22,5.96,6.36,9.9,19.67,13.33,33.76,16.96,11.85,3.05,24.11,6.21,34.62,13.34,28.93,19.63,29.1,38.68,29.09,39.48,0,1.04-.86,1.88-1.9,1.88Z"/><path d="m169.82,260.39c-1.98,0-3.71-.03-5.5-.06-1.85-.03-3.74-.1-5.99-.07h-.08c-4,0-13.56-.15-17.73-1.55-5.1-1.71-5.1-6.03-5.1-8.6,0-8.97,24.22-12.89,31.65-13.88,1.04-.14,2,.59,2.13,1.63.14,1.04-.59,2-1.63,2.13-13.69,1.83-28.35,6.33-28.35,10.12,0,3.38.47,4.32,2.51,5,3.77,1.26,13.67,1.38,16.6,1.36,2.26-.04,4.2.03,6.06.07,3.57.07,6.95.13,12.56-.07,8.27-.29,25.44-10.19,32.34-20.32,6.73-9.88.61-27.34.55-27.52-.35-.99.16-2.08,1.15-2.43.99-.35,2.08.16,2.43,1.15.28.79,6.84,19.46-.99,30.94-7.66,11.24-26.15,21.65-35.35,21.97-2.9.1-5.21.13-7.26.13Z"/></svg>