<?xml version="1.0" encoding="UTF-8"?><svg xmlns="http://www.w3.org/2000/svg" xmlns:xlink="http://www.w3.org/1999/xlink" viewBox="0 0 280 280"><defs><clipPath id="clippath"><path d="M215.3,223.14s17.29-14.45,24.5-67.73c5.16-38.13,9.96-84.06-5.07-84.06-13.02,0-8.12,29.03-12.93,65.06-4,30-14,51-14,51,0,0-4.27,32.9,7.5,35.73Z" style="fill:none;"/></clipPath><clipPath id="clippath-1"><path d="M199.61,174.1c-13.5-15.71-28.95-24.42-42-26-11.3-1.72-28-8-33-11-2.87-1.72-7.59-5.96-10.98-9.13-.08-.44-.13-.89-.13-1.35,0-6.97,3.97-7.2,4.09-16.56,.1-7.35-.44-13.94-6.43-21.47,1-3.57,6.85-25.14,2.85-27.49-3.77-2.22-18.98,9.88-23.01,13.18-4.66-1.23-9.18-1.18-14.21-1.18h-.72c-5.33,0-10.18-.08-15.23,1.37-3.64-2.99-19.39-15.63-23.24-13.37-4.36,2.56,3,28,3,28,0,0,.65-.49,1.68-1.24-6.85,9.3-7.17,19.81-4.33,26.97,3.44,8.66,11.81,18.37,14.51,21.99-.96,5.06-6.6,35.86-3.86,48.27,2.98,13.54,4.91,19.17,13.56,34,7.91,13.55,3.65,23.54,3.65,23.54,0,0-3.78,5.58-1.76,10.48,2.01,4.9,5.77,5.62,11.5,4.7,5.16-.83,12.28-3.72,12.28-3.72,0,0,3.17,6.54,13.78,5,7.56-1.1,9.87-5.79,10-11,.03-1.28-1.7-7.5-2-10,.29,.45,20.29,5.79,30.31,6,1.47,.03-1.8,9.19,.93,11.46,2.73,2.26,1.58,3.17,8.73,2.93,7.16-.24,21.79,3.72,28.58,.91,6.79-2.81,30.3-10.13,34.34-26.3,4.65-18.59,7.74-34.99-12.9-59Z" style="fill:none;"/></clipPath></defs><g><path d="M215.3,223.14s17.29-14.45,24.5-67.73c5.16-38.13,9.96-84.06-5.07-84.06-13.02,0-8.12,29.03-12.93,65.06-4,30-14,51-14,51,0,0-4.27,32.9,7.5,35.73Z" style="fill:#fff;"/><g style="clip-path:url(#clippath);"><g><path d="M225.54,124.58s8,4,8,13,0,15-6,18-13,15-14,4-2-36,12-35Z" style="fill:#1a1a1a;"/><path d="M230.73,101.03s-14.2-13.45-17.2-15.45c-9-6-5.1-19.85-2-21s13,2,17,6,10,15,10,21-.61,12.9-7.8,9.45Z" style="fill:#1a1a1a;"/><path d="M235.54,80.58s-10-2-10-9,2-8,5-8,14,3,14,8,2,13-9,9Z" style="fill:#f8b600;"/><path d="M231.3,177.53s-3.76-3.96-5.76-9.96-5-14-2-19,10.63-5.13,13.82,2.43c3.18,7.57,7.71,31.48-6.05,26.52Z" style="fill:#f8b600;"/></g></g><path d="M215.67,222.41c-.49,0-.99-.19-1.36-.57-.73-.75-.72-1.95,.03-2.69,2.77-2.7,5.39-6.38,9.17-15.52,1.67-4.02,10.19-25.36,14.41-50.54,3.32-19.77,3.63-41.07,3.8-52.52l.04-2.33c.01-.63,.06-1.4,.11-2.29,.16-2.56,.38-6.07-.1-10.22-.12-1.04,.63-1.99,1.67-2.11,1.05-.13,1.99,.63,2.11,1.67,.52,4.48,.28,8.34,.12,10.89-.05,.82-.1,1.54-.11,2.12l-.04,2.33c-.17,11.55-.49,33.04-3.85,53.09-4.29,25.59-12.96,47.28-14.65,51.37-4.04,9.74-6.93,13.75-10.03,16.78-.37,.36-.85,.54-1.33,.54Zm-3.13-41.22c4.78-10.52,8.19-26.72,12.14-49.46,2.38-13.68,2.53-25.71,2.64-35.37,.17-14.22,.51-21.7,5.72-23,1.36-.34,2.64,.21,3.47,.74,1.86,1.18,3.39,3.4,3.81,5.53,.21,1.03,1.21,1.7,2.23,1.49,1.03-.21,1.7-1.21,1.49-2.23-.62-3.13-2.79-6.27-5.51-7.99-2.09-1.32-4.31-1.74-6.42-1.21-8.3,2.07-8.42,11.85-8.6,26.65-.12,9.53-.26,21.39-2.59,34.77-3.9,22.44-7.25,38.39-11.86,48.54-.43,.96-.01,2.08,.94,2.52,.25,.12,.52,.17,.79,.17,.72,0,1.41-.41,1.73-1.11Z"/></g><g><path d="M199.61,174.1c-13.5-15.71-28.95-24.42-42-26-11.3-1.72-28-8-33-11-2.87-1.72-7.59-5.96-10.98-9.13-.08-.44-.13-.89-.13-1.35,0-6.97,3.97-7.2,4.09-16.56,.1-7.35-.44-13.94-6.43-21.47,1-3.57,6.85-25.14,2.85-27.49-3.77-2.22-18.98,9.88-23.01,13.18-4.66-1.23-9.18-1.18-14.21-1.18h-.72c-5.33,0-10.18-.08-15.23,1.37-3.64-2.99-19.39-15.63-23.24-13.37-4.36,2.56,3,28,3,28,0,0,.65-.49,1.68-1.24-6.85,9.3-7.17,19.81-4.33,26.97,3.44,8.66,11.81,18.37,14.51,21.99-.96,5.06-6.6,35.86-3.86,48.27,2.98,13.54,4.91,19.17,13.56,34,7.91,13.55,3.65,23.54,3.65,23.54,0,0-3.78,5.58-1.76,10.48,2.01,4.9,5.77,5.62,11.5,4.7,5.16-.83,12.28-3.72,12.28-3.72,0,0,3.17,6.54,13.78,5,7.56-1.1,9.87-5.79,10-11,.03-1.28-1.7-7.5-2-10,.29,.45,20.29,5.79,30.31,6,1.47,.03-1.8,9.19,.93,11.46,2.73,2.26,1.58,3.17,8.73,2.93,7.16-.24,21.79,3.72,28.58,.91,6.79-2.81,30.3-10.13,34.34-26.3,4.65-18.59,7.74-34.99-12.9-59Z" style="fill:#fff;"/><path d="M61.6,75.1s-19.64-16.56-24-14,3,28,3,28c0,0,7.17-5.37,12.04-8.19,4.87-2.82,8.96-5.81,8.96-5.81Z" style="fill:#1a1a1a;"/><path d="M90.02,75.1s19.64-16.56,24-14c4.36,2.56-3,28-3,28,0,0-7.17-5.37-12.04-8.19-4.87-2.82-8.96-5.81-8.96-5.81Z" style="fill:#f8b600;"/><g style="clip-path:url(#clippath-1);"><g><g><path d="M78.54,87.58c5,8,10.73,14.56,14.57,17.52,8.43,6.48,25.43,6.48,25.43,6.48,0,0,13.04-45.52-41.42-43.2-4.58,.2-1.24,14.93,1.42,19.2Z" style="fill:#f8b600;"/><path d="M68.54,73.58s1.83,9.02-5.59,16.01c-7.41,6.99-18.45,11.1-25.43,9.54-6.98-1.55,2.06-14.75,10.02-20.55,7.96-5.81,12.71-4.95,21-5Z"/></g><g><path d="M149.32,128.14c-5.62,5.69-11.9,28.77,1.74,43.92,13.64,15.15,24.92-2.76,30.22,9.18,5.31,11.94,39.13-1.99,31.17-27.19-7.96-25.2-49.33-39.88-63.14-25.91Z" style="fill:#f8b600;"/><path d="M167.54,233.58c-10-8-13.26-22.99-7-33,5-8,20.96-18.55,33-6,12.04,12.55,19.41,32,7.21,42.5s-21.47,5.89-33.21-3.5Z" style="fill:#1a1a1a;"/></g></g></g><path d="M90.66,211.05s-.05,0-.08,0c-.21,0-5.12-.25-11.72-4.08-6.74-3.9-9.93-11.16-10.07-11.47-.42-.96,.03-2.08,.99-2.5,.96-.42,2.08,.03,2.5,.99h0c.03,.06,2.85,6.43,8.49,9.69,5.8,3.36,9.93,3.57,9.97,3.57,1.05,.04,1.86,.93,1.82,1.98-.04,1.02-.88,1.82-1.9,1.82Zm48.74,31.57c0-1.05-.85-1.9-1.9-1.9-.06,0-5.88-.01-10.63-.96-5.75-1.15-10.68-2.91-10.73-2.93-.99-.35-2.08,.16-2.43,1.15s.16,2.08,1.15,2.43c.21,.08,5.24,1.87,11.27,3.08,5.13,1.03,11.12,1.04,11.37,1.04,1.05,0,1.9-.85,1.9-1.9ZM96.11,75.67c.39-.98-.09-2.08-1.06-2.47-.39-.15-9.58-3.77-19.84-3.77s-16.42,3.78-16.67,3.94c-.88,.57-1.13,1.74-.57,2.62,.56,.88,1.74,1.14,2.62,.58,.05-.03,5.36-3.34,14.62-3.34s18.34,3.47,18.43,3.5c.23,.09,.47,.13,.7,.13,.75,0,1.47-.45,1.77-1.2Zm-55.45,10.01c.87-.58,1.11-1.76,.53-2.64-1.71-2.56-4.14-17.18-3-20.01h.05c2.81,0,13.84,5.93,15.98,8.69,.64,.83,1.84,.98,2.67,.34,.83-.64,.98-1.84,.34-2.67-2.21-2.85-16.24-11.88-20.8-9.82-.9,.41-1.54,1.25-1.9,2.5-1.46,5.08,1.39,19.91,3.5,23.07,.37,.55,.97,.85,1.58,.85,.36,0,.73-.1,1.05-.32Zm72.94-.53c2.11-3.16,4.96-17.98,3.5-23.07-.36-1.25-1-2.09-1.9-2.5-4.56-2.05-18.59,6.97-20.8,9.82-.64,.83-.49,2.02,.34,2.67,.83,.64,2.02,.49,2.67-.34,2.14-2.77,13.2-8.71,15.94-8.71,.03,0,.06,0,.08,0,1.16,2.79-1.28,17.46-2.99,20.02-.58,.87-.35,2.05,.53,2.64,.32,.22,.69,.32,1.05,.32,.61,0,1.22-.3,1.58-.85Zm-24.91,160.71c0-.09,.23-9.23-.11-19.57-.28-8.54-1.45-10.48-2.56-11.26-.59-.42-1.33-.54-1.96-.33-1,.33-1.54,1.4-1.21,2.4,.16,.48,.49,.86,.91,1.08,.25,.58,.84,2.56,1.03,8.23,.34,10.22,.11,19.26,.11,19.35-.03,1.05,.8,1.92,1.85,1.95,.02,0,.03,0,.05,0,1.03,0,1.87-.82,1.9-1.85Zm-15.25,13.4c7.46-.03,11.03-3.16,11.18-3.29,.78-.69,.84-1.88,.15-2.66-.68-.78-1.88-.86-2.67-.19-.11,.09-2.77,2.31-8.68,2.34-3.52,0-7.67-.97-7.73-5.74-.03-2.2,.54-2.88,1.39-3.92,1.08-1.31,2.43-2.95,2.43-6.98v-1.57c.02-5.26-.05-5.94-2.58-12.79-.89-2.39-2.19-4.76-3.7-7.5-3.43-6.22-8.12-14.75-12.91-31.86-4.97-17.74,3-43.17,3.08-43.43,.32-1-.23-2.07-1.23-2.39-1-.32-2.07,.23-2.39,1.23-.35,1.08-8.4,26.76-3.12,45.61,4.91,17.54,9.72,26.28,13.24,32.67,1.5,2.71,2.67,4.86,3.46,6.99,2.37,6.4,2.37,6.59,2.35,11.46v1.59c0,2.67-.69,3.5-1.57,4.56-1.02,1.24-2.3,2.79-2.26,6.38,.07,5.95,4.34,9.5,11.45,9.5h.1Zm37.43-4.1c3.54-4.72,1.62-9.44,.35-12.57-.15-.37-.3-.73-.43-1.08-.84-2.21,.99-17.73,2.68-22.75,.33-1-.2-2.07-1.19-2.41-1-.34-2.07,.2-2.41,1.19-1.44,4.28-4.13,21.36-2.63,25.31,.14,.37,.3,.76,.46,1.16,1.4,3.43,2.22,6.07,.13,8.85-2.34,3.12-6.75,4.57-11.76,3.86-3.9-.55-6.07-1.92-6.74-2.92-.3-.45-.27-.76-.22-.98,.26-1.02-.36-2.05-1.38-2.31-1.02-.26-2.05,.36-2.31,1.38-.35,1.39-.09,2.78,.75,4.03,1.53,2.27,4.94,3.94,9.37,4.56,1.02,.14,2.02,.21,3,.21,5.17,0,9.66-1.98,12.34-5.56Zm-59.01-117.88c.9-.53,1.2-1.7,.67-2.6-.95-1.61-2.37-3.28-4.01-5.21-4.46-5.25-10.02-11.77-10.02-21.37s3.8-18.14,3.84-18.23c.42-.96-.01-2.08-.97-2.51-.96-.43-2.08,0-2.51,.97-.17,.38-4.16,9.51-4.16,19.77,0,11,6.31,18.42,10.92,23.83,1.53,1.8,2.85,3.35,3.64,4.68,.35,.6,.99,.93,1.64,.93,.33,0,.66-.08,.96-.26Zm160.9,59.73c0-.8-.16-19.85-29.09-39.48-10.51-7.13-22.76-10.29-34.62-13.34-14.09-3.63-27.4-7.06-33.76-16.96-.79-1.98-.72-4.15,.22-5.96,2.21-4.29,3.29-8.59,3.29-13.16,0-10.26-3.99-19.39-4.16-19.77-.43-.96-1.55-1.39-2.51-.97-.96,.42-1.39,1.55-.97,2.51,.04,.09,3.84,8.77,3.84,18.23,0,3.94-.94,7.68-2.86,11.42-1.48,2.87-1.58,6.26-.28,9.33,.04,.09,.09,.19,.14,.27,7.13,11.28,21.2,14.91,36.11,18.75,11.54,2.97,23.47,6.05,33.43,12.81,27.08,18.38,27.43,36.14,27.43,36.3,0,1.05,.83,1.91,1.88,1.92h.02c1.04,0,1.89-.84,1.9-1.88Zm-34.4,63.24c9.2-.32,27.69-10.73,35.35-21.97,7.82-11.48,1.27-30.15,.99-30.94-.35-.99-1.44-1.5-2.43-1.15-.99,.35-1.5,1.44-1.15,2.43,.06,.18,6.18,17.64-.55,27.52-6.9,10.12-24.07,20.03-32.34,20.32-5.61,.2-8.99,.13-12.56,.07-1.87-.03-3.81-.11-6.06-.07-2.9,0-12.83-.09-16.6-1.36-2.04-.68-2.51-1.62-2.51-5,0-3.79,14.66-8.29,28.35-10.12,1.04-.14,1.77-1.09,1.63-2.13-.14-1.04-1.09-1.76-2.13-1.63-7.42,.99-31.65,4.92-31.65,13.88,0,2.58,0,6.9,5.1,8.6,4.2,1.41,13.9,1.55,17.81,1.55,2.24,0,4.15,.03,5.99,.07,1.78,.03,3.52,.06,5.5,.06s4.36-.03,7.26-.13Z"/></g></svg>