<?xml version="1.0" encoding="UTF-8"?><svg xmlns="http://www.w3.org/2000/svg" xmlns:xlink="http://www.w3.org/1999/xlink" viewBox="0 0 280 280"><defs><clipPath id="clippath"><path d="M215.3,223.14s17.29-14.45,24.5-67.73c5.16-38.13,9.96-84.06-5.07-84.06-13.02,0-8.12,29.03-12.93,65.06-4,30-14,51-14,51,0,0-4.27,32.9,7.5,35.73Z" style="fill:none;"/></clipPath><clipPath id="clippath-1"><path d="M199.61,174.1c-13.5-15.71-28.95-24.42-42-26-11.3-1.72-28-8-33-11-2.87-1.72-7.59-5.96-10.98-9.13-.08-.44-.13-.89-.13-1.35,0-6.97,3.97-7.2,4.09-16.56,.1-7.35-.44-13.94-6.43-21.47,1-3.57,6.85-25.14,2.85-27.49-3.77-2.22-18.98,9.88-23.01,13.18-4.66-1.23-9.18-1.18-14.21-1.18h-.72c-5.33,0-10.18-.08-15.23,1.37-3.64-2.99-19.39-15.63-23.24-13.37-4.36,2.56,3,28,3,28,0,0,.65-.49,1.68-1.24-6.85,9.3-7.17,19.81-4.33,26.97,3.44,8.66,11.81,18.37,14.51,21.99-.96,5.06-6.6,35.86-3.86,48.27,2.98,13.54,4.91,19.17,13.56,34,7.91,13.55,3.65,23.54,3.65,23.54,0,0-3.78,5.58-1.76,10.48,2.01,4.9,5.77,5.62,11.5,4.7,5.16-.83,12.28-3.72,12.28-3.72,0,0,3.17,6.54,13.78,5,7.56-1.1,9.87-5.79,10-11,.03-1.28-1.7-7.5-2-10,.29,.45,20.29,5.79,30.31,6,1.47,.03-1.8,9.19,.93,11.46,2.73,2.26,1.58,3.17,8.73,2.93,7.16-.24,21.79,3.72,28.58,.91,6.79-2.81,30.3-10.13,34.34-26.3,4.65-18.59,7.74-34.99-12.9-59Z" style="fill:none;"/></clipPath></defs><g style="isolation:isolate;"><g><g><path d="M215.3,223.14s17.29-14.45,24.5-67.73c5.16-38.13,9.96-84.06-5.07-84.06-13.02,0-8.12,29.03-12.93,65.06-4,30-14,51-14,51,0,0-4.27,32.9,7.5,35.73Z" style="fill:#ffe2bc;"/><g style="mix-blend-mode:soft-light;"><g style="clip-path:url(#clippath);"><g><path d="M227.45,202.47c.12,.45-.18,.78-.57,.89-.4,.1-.87,.04-1.19-.29l-.29-.3-.3-.3c-.89-.88-1.81-1.72-2.76-2.52l-.72-.59c-.25-.19-.49-.38-.73-.57-.5-.37-.98-.75-1.49-1.1-.49-.37-1.03-.69-1.53-1.04l-.8-.48c-.13-.08-.26-.17-.4-.24l-.41-.23-.41-.23-.2-.12c-.07-.04-.14-.08-.2-.11-.13-.06-.25-.13-.37-.19l-.39-.18c-.53-.24-1.1-.46-1.69-.67-1.19-.41-2.48-.76-3.82-1.08-1.34-.32-2.73-.6-4.15-.87-.32-.06-.65-.12-.98-.18-.53-.09-.8-.41-.82-.74-.02-.33,.25-.66,.82-.76,.35-.06,.7-.11,1.06-.16,1.54-.2,3.11-.26,4.7-.2,1.59,.06,3.19,.26,4.78,.65,.8,.2,1.59,.44,2.36,.75,.19,.08,.38,.16,.58,.24,.19,.08,.38,.18,.57,.27,.1,.05,.18,.09,.26,.14l.25,.14,.5,.27,.49,.28c.16,.09,.31,.2,.47,.3,.31,.2,.62,.4,.92,.61,.58,.44,1.17,.87,1.69,1.35,.54,.46,1.02,.96,1.49,1.47,.22,.26,.44,.52,.66,.78,.21,.26,.4,.53,.6,.8,.76,1.09,1.38,2.22,1.79,3.41l.13,.4,.11,.4Z"/><path d="M234.01,185.75c.32,.38,.21,.78-.11,.99-.32,.21-.79,.29-1.24,.07l-.41-.2-.42-.19c-1.24-.57-2.5-1.08-3.76-1.56l-.95-.35c-.32-.11-.64-.22-.95-.33-.64-.2-1.26-.42-1.91-.59-.63-.2-1.28-.35-1.92-.52l-.97-.22c-.16-.04-.32-.08-.48-.11l-.49-.09-.49-.1-.24-.05c-.08-.02-.17-.04-.24-.05-.15-.02-.29-.05-.44-.07l-.45-.06c-.61-.07-1.24-.11-1.89-.13-1.3-.04-2.67,0-4.06,.09-1.39,.09-2.82,.23-4.27,.38-.33,.03-.66,.07-1,.11-.53,.06-.94-.15-1.11-.45-.17-.3-.08-.69,.4-.94,.3-.16,.6-.3,.91-.45,1.34-.62,2.77-1.13,4.28-1.53,1.5-.39,3.09-.67,4.75-.76,.83-.05,1.68-.05,2.55,.02,.22,.02,.43,.04,.65,.06,.22,.02,.44,.06,.65,.09,.11,.01,.21,.03,.31,.05l.3,.06,.59,.11,.59,.12c.2,.04,.39,.1,.58,.14,.38,.1,.77,.2,1.15,.3,.74,.24,1.5,.47,2.2,.77,.72,.27,1.41,.6,2.08,.94,.33,.18,.66,.35,.98,.53,.32,.18,.63,.38,.94,.57,1.22,.79,2.34,1.67,3.28,2.66l.31,.33,.3,.34Z"/><path d="M238.85,174.52c.32,.38,.21,.78-.11,.99-.32,.21-.79,.29-1.24,.07l-.41-.2-.42-.19c-1.24-.57-2.5-1.08-3.76-1.56l-.95-.35c-.32-.11-.64-.22-.95-.33-.64-.2-1.26-.42-1.91-.59-.63-.2-1.28-.35-1.92-.52l-.97-.22c-.16-.04-.32-.08-.48-.11l-.49-.09-.49-.1-.24-.05c-.08-.02-.17-.04-.24-.05-.15-.02-.29-.05-.44-.07l-.45-.06c-.61-.07-1.24-.11-1.89-.13-1.3-.04-2.67,0-4.06,.09-1.39,.09-2.82,.23-4.27,.38-.33,.03-.66,.07-1,.11-.53,.06-.94-.15-1.11-.45-.17-.3-.08-.69,.4-.94,.3-.16,.6-.3,.91-.45,1.34-.62,2.77-1.13,4.28-1.53,1.5-.39,3.09-.67,4.75-.76,.83-.05,1.68-.05,2.55,.02,.22,.02,.43,.04,.65,.06,.22,.02,.44,.06,.65,.09,.11,.01,.21,.03,.31,.05l.3,.06,.59,.11,.59,.12c.2,.04,.39,.1,.58,.14,.38,.1,.77,.2,1.15,.3,.74,.24,1.5,.47,2.2,.77,.72,.27,1.41,.6,2.08,.94,.33,.18,.66,.35,.98,.53,.32,.18,.63,.38,.94,.57,1.22,.79,2.34,1.67,3.28,2.66l.31,.33,.3,.34Z"/><path d="M240.33,163.32c.23,.36,.05,.72-.3,.91-.34,.19-.8,.26-1.17,.06-.23-.12-.46-.24-.69-.35-1.03-.52-2.07-.99-3.1-1.42-1.03-.43-2.07-.8-3.11-1.13-.51-.18-1.05-.3-1.56-.45-.53-.11-1.05-.26-1.59-.35l-.4-.08-.2-.04h-.05l-.04-.02h-.08c-.22-.05-.45-.08-.69-.1-.48-.05-.99-.06-1.52-.06-1.06,0-2.2,.09-3.37,.22-1.17,.13-2.37,.3-3.6,.49l-.85,.13c-.45,.07-.84-.13-1.05-.41-.21-.28-.19-.66,.19-.92,.23-.16,.48-.31,.72-.46,1.07-.64,2.24-1.19,3.5-1.63,1.26-.44,2.61-.78,4.08-.95,.73-.08,1.5-.11,2.28-.08,.39,.02,.79,.05,1.19,.11l.15,.02h.08l.07,.02,.26,.05,.52,.1c.71,.12,1.37,.33,2.05,.51,.65,.23,1.31,.44,1.92,.73,1.24,.54,2.37,1.2,3.37,1.96,.99,.76,1.87,1.59,2.56,2.52,.16,.21,.3,.42,.44,.63Z"/><path d="M241.4,151c.2,.35,0,.7-.35,.88-.35,.18-.8,.25-1.15,.05-.22-.12-.43-.23-.66-.34-.97-.51-1.95-.97-2.93-1.39-.97-.42-1.95-.78-2.93-1.09-.48-.17-.98-.29-1.47-.43-.5-.11-.99-.25-1.49-.33l-.37-.07-.19-.04c-.06-.01-.1-.02-.16-.02-.1-.02-.2-.03-.31-.04-.11-.01-.21-.03-.33-.03-.44-.04-.92-.05-1.42-.04-1,.02-2.07,.12-3.18,.26-1.11,.14-2.25,.32-3.42,.51l-.81,.13c-.43,.07-.82-.12-1.04-.4-.22-.28-.23-.66,.12-.91,.22-.16,.44-.31,.67-.46,1-.65,2.09-1.2,3.28-1.66,1.19-.46,2.48-.81,3.9-1,.71-.09,1.45-.14,2.21-.11,.19,0,.38,.02,.58,.03,.19,.01,.39,.03,.59,.06,.1,.01,.2,.02,.29,.04l.25,.05,.51,.1c.68,.12,1.33,.32,1.98,.5,.63,.22,1.27,.44,1.85,.72,1.18,.54,2.27,1.19,3.2,1.94,.93,.75,1.74,1.57,2.37,2.48,.14,.2,.27,.41,.4,.62Z"/><path d="M242.95,138.27c.17,.34-.06,.67-.42,.84-.36,.17-.8,.23-1.13,.04-.2-.11-.4-.22-.6-.33-.9-.49-1.79-.94-2.68-1.34-1.79-.79-3.54-1.4-5.35-1.74l-.34-.06c-.05,0-.12-.02-.16-.03l-.13-.02c-.09-.02-.18-.03-.27-.03-.09-.01-.19-.02-.29-.03-.39-.03-.82-.03-1.27-.01-.91,.03-1.9,.15-2.92,.3-1.03,.15-2.09,.35-3.18,.55l-.75,.14c-.4,.08-.79-.11-1.03-.38-.23-.27-.27-.64,.04-.9,.19-.16,.39-.31,.6-.46,.89-.65,1.89-1.21,2.98-1.69,1.09-.47,2.29-.86,3.63-1.07,.67-.11,1.38-.17,2.12-.16,.18,0,.37,0,.56,.02,.19,.01,.38,.03,.57,.05l.29,.04c.09,.01,.17,.03,.25,.04l.49,.09c.65,.13,1.28,.3,1.89,.5,.61,.2,1.2,.44,1.76,.71,1.11,.54,2.11,1.19,2.95,1.92,.84,.74,1.55,1.55,2.09,2.43,.12,.2,.23,.4,.33,.6Z"/><path d="M243.87,125.69c.22,.31,.05,.66-.27,.87-.32,.21-.75,.32-1.1,.18-.22-.08-.43-.17-.65-.25-.96-.37-1.9-.72-2.84-1.02l-.35-.12-.35-.11c-.23-.07-.46-.15-.69-.21-.23-.07-.46-.13-.69-.2-.23-.06-.46-.12-.69-.18-.92-.23-1.83-.45-2.75-.59l-.34-.06-.17-.03-.17-.02c-.23-.03-.46-.06-.69-.09l-.17-.03h-.08l-.07-.02c-.09,0-.18-.02-.26-.03-.18-.01-.35-.02-.52-.02-.7,0-1.43,.11-2.22,.37-.79,.26-1.61,.67-2.42,1.15-.19,.11-.37,.23-.56,.35-.29,.19-.74,.17-1.12,.03-.38-.14-.65-.45-.53-.8,.08-.21,.17-.43,.27-.63,.23-.45,.52-.9,.88-1.32,.36-.42,.79-.82,1.29-1.18,.51-.36,1.09-.69,1.74-.95,.65-.26,1.37-.45,2.12-.55,.37-.05,.75-.08,1.12-.09,.19,0,.37,0,.56,0h.27l.24,.03c.31,.03,.63,.05,.94,.09l.24,.02c.08,.01,.15,.02,.23,.04l.46,.08c2.47,.42,4.74,1.35,6.55,2.61,.91,.63,1.71,1.34,2.37,2.13,.15,.17,.28,.36,.42,.54Z"/><path d="M244.12,112.58c.09,.36-.25,.65-.65,.73-.41,.09-.84,.09-1.08-.08-.15-.11-.3-.21-.46-.3-.71-.42-1.45-.72-2.2-.93-.76-.21-1.53-.33-2.34-.42-.81-.08-1.66-.11-2.53-.11-.06,0-.11,0-.15,0h-.14c-.1,0-.19,0-.29,.01-.19,0-.39,.02-.58,.03-.39,.03-.79,.08-1.2,.14-.82,.12-1.67,.31-2.54,.53-.88,.23-1.78,.5-2.7,.79-.21,.07-.43,.14-.64,.21-.34,.11-.75-.02-1.06-.25-.3-.22-.46-.57-.24-.86,.13-.18,.27-.35,.42-.51,.65-.73,1.44-1.37,2.35-1.94,.91-.56,1.94-1.04,3.09-1.38,.57-.17,1.17-.3,1.8-.39,.31-.04,.63-.08,.95-.1,.16-.01,.32-.02,.48-.03h.24c.08,0,.16-.01,.23,0,1.18,0,2.39,.12,3.58,.4,1.19,.28,2.35,.74,3.33,1.39,.97,.65,1.75,1.49,2.15,2.41,.09,.21,.16,.42,.21,.63Z"/><path d="M245.13,106.74s-2.97-5.22-9.63-5.78c-4.67-.39-10.37,2.78-10.37,2.78,0,0,.33-7.9,0-15-.43-9.16,0-19,10.36-18.74,5.8,.14,9.06,7.72,9.64,16.74,.57,9.02,0,20,0,20Z"/></g></g></g><path d="M215.67,222.41c-.49,0-.99-.19-1.36-.57-.73-.75-.72-1.95,.03-2.69,2.77-2.7,5.39-6.38,9.17-15.52,1.67-4.02,10.19-25.36,14.41-50.54,3.32-19.77,3.63-41.07,3.8-52.52l.04-2.33c.01-.63,.06-1.4,.11-2.29,.16-2.56,.38-6.07-.1-10.22-.12-1.04,.63-1.99,1.67-2.11,1.05-.13,1.99,.63,2.11,1.67,.52,4.48,.28,8.34,.12,10.89-.05,.82-.1,1.54-.11,2.12l-.04,2.33c-.17,11.55-.49,33.04-3.85,53.09-4.29,25.59-12.96,47.28-14.65,51.37-4.04,9.74-6.93,13.75-10.03,16.78-.37,.36-.85,.54-1.33,.54Zm-3.13-41.22c4.78-10.52,8.19-26.72,12.14-49.46,2.38-13.68,2.53-25.71,2.64-35.37,.17-14.22,.51-21.7,5.72-23,1.36-.34,2.64,.21,3.47,.74,1.86,1.18,3.39,3.4,3.81,5.53,.21,1.03,1.21,1.7,2.23,1.49,1.03-.21,1.7-1.21,1.49-2.23-.62-3.13-2.79-6.27-5.51-7.99-2.09-1.32-4.31-1.74-6.42-1.21-8.3,2.07-8.42,11.85-8.6,26.65-.12,9.53-.26,21.39-2.59,34.77-3.9,22.44-7.25,38.39-11.86,48.54-.43,.96-.01,2.08,.94,2.52,.25,.12,.52,.17,.79,.17,.72,0,1.41-.41,1.73-1.11Z"/></g><g><path d="M199.61,174.1c-13.5-15.71-28.95-24.42-42-26-11.3-1.72-28-8-33-11-2.87-1.72-7.59-5.96-10.98-9.13-.08-.44-.13-.89-.13-1.35,0-6.97,3.97-7.2,4.09-16.56,.1-7.35-.44-13.94-6.43-21.47,1-3.57,6.85-25.14,2.85-27.49-3.77-2.22-18.98,9.88-23.01,13.18-4.66-1.23-9.18-1.18-14.21-1.18h-.72c-5.33,0-10.18-.08-15.23,1.37-3.64-2.99-19.39-15.63-23.24-13.37-4.36,2.56,3,28,3,28,0,0,.65-.49,1.68-1.24-6.85,9.3-7.17,19.81-4.33,26.97,3.44,8.66,11.81,18.37,14.51,21.99-.96,5.06-6.6,35.86-3.86,48.27,2.98,13.54,4.91,19.17,13.56,34,7.91,13.55,3.65,23.54,3.65,23.54,0,0-3.78,5.58-1.76,10.48,2.01,4.9,5.77,5.62,11.5,4.7,5.16-.83,12.28-3.72,12.28-3.72,0,0,3.17,6.54,13.78,5,7.56-1.1,9.87-5.79,10-11,.03-1.28-1.7-7.5-2-10,.29,.45,20.29,5.79,30.31,6,1.47,.03-1.8,9.19,.93,11.46,2.73,2.26,1.58,3.17,8.73,2.93,7.16-.24,21.79,3.72,28.58,.91,6.79-2.81,30.3-10.13,34.34-26.3,4.65-18.59,7.74-34.99-12.9-59Z" style="fill:#ffe2bc;"/><g style="mix-blend-mode:soft-light;"><g style="clip-path:url(#clippath-1);"><g><g><path d="M96.34,151.49c-1.19-.03-1.82-.53-1.84-1.04-.02-.51,.48-1.04,1.56-1.3,.66-.16,1.31-.32,1.97-.49,2.92-.76,5.78-1.62,8.56-2.6,2.78-.98,5.48-2.07,8.07-3.28,1.3-.61,2.57-1.26,3.8-1.93,.31-.17,.62-.34,.92-.52l.46-.26c.15-.09,.32-.18,.43-.26l.39-.25c.13-.08,.26-.16,.38-.25l.38-.27c.13-.09,.26-.17,.38-.28,1.01-.77,1.99-1.66,2.94-2.61,.95-.95,1.86-1.97,2.76-3.01,.89-1.05,1.76-2.14,2.61-3.24,.85-1.11,1.69-2.23,2.52-3.37,1.65-2.28,3.26-4.63,4.87-6.99l1.1-1.63c.59-.88,1.31-1.16,1.85-.97,.53,.18,.85,.86,.56,1.88-.18,.63-.38,1.26-.58,1.89-.9,2.73-2,5.41-3.3,8.03-.65,1.31-1.35,2.6-2.11,3.88-.76,1.27-1.57,2.53-2.47,3.76-.9,1.23-1.87,2.43-2.94,3.59-1.07,1.16-2.25,2.28-3.6,3.3-.16,.13-.35,.25-.52,.38l-.53,.37c-.17,.13-.37,.24-.56,.36l-.57,.35c-.2,.12-.36,.21-.54,.31l-.53,.29c-.35,.2-.71,.38-1.07,.56-1.43,.72-2.9,1.38-4.4,1.96-3,1.16-6.11,2.05-9.26,2.66-3.15,.61-6.35,.97-9.55,1.03-.72,0-1.43,0-2.15-.02Z"/><path d="M117.51,162c-1.27,.04-1.98-.42-2.03-.93-.05-.51,.46-1.07,1.59-1.39,.69-.2,1.38-.41,2.06-.63,3.05-.97,6-2.09,8.83-3.38,2.82-1.29,5.51-2.74,8.01-4.36,1.25-.82,2.45-1.68,3.6-2.58,1.14-.92,2.23-1.87,3.26-2.87l.75-.77,.38-.39,.39-.42c.52-.56,1.05-1.12,1.57-1.68l3.15-3.39c2.11-2.27,4.25-4.53,6.42-6.77,2.18-2.24,4.39-4.46,6.67-6.64l1.58-1.49c1.7-1.59,3.27-.57,2.11,1.38-.36,.61-.73,1.21-1.1,1.81-1.63,2.62-3.36,5.19-5.16,7.71-1.8,2.52-3.68,5-5.64,7.43-.98,1.21-1.99,2.42-3.02,3.61-.51,.6-1.04,1.19-1.57,1.77l-.4,.44c-.14,.15-.29,.3-.44,.46-.29,.3-.59,.61-.89,.91-1.22,1.18-2.53,2.29-3.89,3.32-1.38,1.01-2.83,1.94-4.32,2.79-3,1.68-6.2,3.01-9.5,3.99-3.3,.98-6.68,1.63-10.09,1.93-.76,.06-1.53,.11-2.3,.13Z"/><path d="M133.87,176.8c-1.34,.34-2.2,.08-2.4-.4-.2-.48,.22-1.17,1.41-1.77l2.16-1.1c3.21-1.65,6.4-3.31,9.54-5.01,3.13-1.7,6.23-3.43,9.23-5.24l.56-.34,.56-.34,1.12-.69c.73-.47,1.48-.92,2.19-1.41,1.45-.94,2.86-1.92,4.23-2.93l1.02-.76c.33-.26,.66-.52,.99-.78l.49-.39,.48-.4,.48-.4c.16-.13,.32-.26,.47-.4l.91-.82c.16-.13,.29-.28,.44-.42l.43-.42c.14-.14,.29-.28,.43-.42l.41-.43,.41-.43c.07-.07,.14-.14,.2-.22l.19-.23,.77-.91c.13-.15,.25-.31,.38-.47l.37-.48c.51-.63,.98-1.31,1.47-1.98,.25-.33,.47-.68,.71-1.02l.7-1.03,.69-1.05,.35-.53,.34-.53c1.81-2.84,3.54-5.77,5.26-8.72l1.18-2.03c.63-1.09,1.38-1.49,1.92-1.33,.54,.17,.85,.93,.52,2.15-.2,.76-.42,1.51-.64,2.26-.99,3.28-2.19,6.51-3.63,9.69l-.27,.6-.29,.59-.58,1.18c-.2,.39-.41,.78-.62,1.18-.21,.39-.41,.78-.64,1.17-.45,.77-.89,1.55-1.41,2.32l-.38,.57c-.13,.19-.25,.38-.39,.57l-.84,1.13-.21,.28c-.07,.09-.15,.18-.23,.27l-.46,.55-.46,.55c-.16,.18-.32,.35-.48,.52l-.49,.52c-.16,.17-.32,.35-.5,.51l-1.02,.98c-.17,.17-.35,.32-.52,.48l-.53,.47-.53,.47-.55,.45c-.37,.29-.73,.59-1.1,.88l-1.12,.84c-1.51,1.1-3.06,2.15-4.66,3.12-.79,.5-1.6,.95-2.41,1.42l-1.22,.68-.61,.34-.62,.32c-3.3,1.73-6.7,3.26-10.17,4.61-3.47,1.35-7,2.55-10.61,3.55-.81,.22-1.62,.44-2.43,.64Z"/><path d="M199.65,142.24c.39-.97,1.19-1.4,1.95-1.36,.75,.05,1.45,.65,1.49,1.73,.01,.33,.02,.65,.02,.98,0,.33,0,.65,0,.98-.07,2.91-.52,5.82-1.26,8.69-.75,2.88-1.84,5.72-3.33,8.48l-.27,.52c-.09,.17-.2,.34-.3,.51l-.62,1.02c-.39,.67-.89,1.36-1.37,2.03-.98,1.33-2.06,2.57-3.19,3.77-2.28,2.38-4.79,4.54-7.43,6.54-2.65,2-5.44,3.85-8.35,5.55-2.91,1.7-5.93,3.28-9.07,4.69-.72,.32-1.45,.64-2.18,.94-1.18,.49-2.17,.31-2.61-.17-.44-.49-.37-1.27,.51-2.03l1.65-1.41c2.39-2.03,4.78-4.06,7.17-6.09,2.37-2.02,4.7-4.03,6.97-6.05,2.26-2.03,4.45-4.07,6.44-6.15,.99-1.04,1.95-2.09,2.81-3.16,.42-.54,.84-1.05,1.24-1.63l.61-.85c.1-.14,.21-.28,.3-.42l.28-.44c1.55-2.31,2.95-4.73,4.24-7.23,1.29-2.5,2.48-5.06,3.58-7.69,.13-.29,.25-.59,.37-.88,.12-.29,.24-.59,.36-.88Z"/><path d="M210.45,163.03c0-.98,.41-1.54,.97-1.68,.55-.13,1.26,.28,1.61,1.31,.21,.62,.39,1.25,.55,1.88,.7,2.83,.9,5.78,.59,8.74-.31,2.95-1.18,5.91-2.6,8.67-.18,.34-.36,.69-.56,1.02l-.61,1-.66,.98c-.06,.08-.11,.16-.17,.24l-.18,.24-.36,.47c-.12,.16-.24,.31-.36,.47l-.39,.45-.39,.45-.2,.23-.22,.23-.45,.47c-.15,.15-.31,.29-.46,.43l-.46,.42-.47,.39c-1.25,1.04-2.54,1.94-3.86,2.78-1.31,.84-2.65,1.61-4,2.33-2.71,1.45-5.48,2.72-8.31,3.87-2.83,1.15-5.7,2.18-8.64,3.08-.67,.2-1.35,.4-2.03,.59-1.09,.31-1.85,.06-2.09-.41-.24-.47,.03-1.14,.96-1.71l1.74-1.06c2.53-1.54,5.07-3.03,7.58-4.54,2.51-1.5,5.01-2.99,7.43-4.52,1.21-.76,2.4-1.53,3.55-2.32,1.14-.79,2.25-1.59,3.24-2.41l.37-.31,.34-.31c.11-.1,.24-.2,.34-.31l.31-.31,.15-.15,.16-.18,.32-.36,.32-.35,.3-.37,.31-.37,.15-.18c.05-.06,.1-.13,.14-.19l.58-.76,.54-.78c.18-.26,.34-.53,.51-.8,1.33-2.14,2.36-4.47,3.08-6.93,.72-2.46,1.14-5.05,1.27-7.69,.03-.59,.05-1.18,.05-1.78Z"/><path d="M227.53,185.72c.91-1.07,1.76-1.39,2.26-1.14,.5,.25,.62,1.11-.02,2.36-.39,.76-.79,1.51-1.2,2.25-1.86,3.33-3.95,6.55-6.24,9.67-2.3,3.12-4.82,6.12-7.59,8.96-1.38,1.42-2.84,2.8-4.37,4.12-1.53,1.32-3.13,2.6-4.82,3.79-.43,.29-.87,.58-1.3,.86l-.65,.43c-.22,.14-.44,.29-.66,.41l-1.32,.79c-.44,.26-.88,.53-1.32,.77-.89,.49-1.78,.99-2.67,1.47-.9,.47-1.8,.93-2.7,1.39-3.62,1.81-7.29,3.46-11.02,5.01-3.73,1.55-7.5,2.99-11.34,4.31-.88,.3-1.76,.6-2.64,.88-1.42,.47-2.35,.3-2.6-.16-.25-.46,.18-1.21,1.44-1.94l2.36-1.36c3.44-1.97,6.9-3.89,10.35-5.8,3.45-1.92,6.89-3.81,10.29-5.74l2.53-1.45c.84-.49,1.66-.99,2.49-1.47,.42-.24,.81-.5,1.22-.75l1.21-.75c.21-.12,.4-.25,.59-.38l.58-.39c.38-.26,.77-.51,1.15-.77,1.52-1.06,2.99-2.2,4.43-3.38,1.44-1.18,2.86-2.41,4.24-3.68,2.76-2.54,5.43-5.2,8.03-7.94,2.6-2.74,5.13-5.57,7.63-8.44,.56-.64,1.11-1.29,1.66-1.93Z"/><path d="M228,216.29c.77-.92,1.55-1.19,2.06-.96,.51,.23,.71,1.01,.21,2.12-.16,.34-.31,.67-.47,1.01l-.5,1c-1.52,2.95-3.32,5.78-5.33,8.49-2.02,2.71-4.26,5.3-6.73,7.73-2.48,2.42-5.18,4.66-8.08,6.72-1.52,1.05-3.09,1.97-4.67,2.82-1.59,.85-3.2,1.62-4.82,2.34-3.25,1.44-6.57,2.68-9.94,3.77-3.37,1.09-6.78,2.04-10.23,2.83-.79,.18-1.59,.35-2.38,.52-1.28,.26-2.09-.03-2.28-.51-.19-.48,.23-1.16,1.38-1.7l2.14-1.01c3.12-1.46,6.23-2.9,9.31-4.36,3.08-1.46,6.13-2.93,9.1-4.46,1.48-.77,2.95-1.55,4.36-2.36,1.41-.81,2.79-1.65,4.06-2.53,2.63-1.86,5.19-3.86,7.65-5.96,2.45-2.12,4.81-4.34,7.1-6.65,2.29-2.31,4.5-4.7,6.65-7.17l.72-.83,.71-.84Z"/></g><g><g><path d="M40.28,105.36c2.12,.1,3.94,.09,5.94-.08,1.98-.11,3.96-1.03,6.08-.59-1.74,1.51-3.44,2.91-5.84,3.11-2.28,.18-4.81-.49-6.18-2.44h0Z"/><path d="M40.9,114.82c2.84-1.24,5.74-1.81,8.69-2.47,3.17-.66,8.13-3.04,2.48,1.38-3.27,2-7.55,2.4-11.17,1.09h0Z"/></g><g><path d="M114.57,105.36c-1.37,1.94-3.9,2.61-6.18,2.44-2.4-.2-4.1-1.6-5.84-3.11,2.12-.44,4.1,.48,6.08,.59,2,.17,3.82,.19,5.94,.08h0Z"/><path d="M113.95,114.82c-3.62,1.31-7.9,.91-11.17-1.09-5.64-4.41-.71-2.04,2.48-1.38,2.96,.66,5.85,1.23,8.69,2.47h0Z"/></g><path d="M64.7,100.15c0,.15-.11-.15-.12-.18-.9-2.59-1.14-5.35-1.03-8.08,.16-2.94,.8-5.67,2.02-8.39,.28-.72,1.34-.63,1.66-.27,.25,.22,.37,.47,.51,.73,1.23,2.81,2.01,5.75,2.6,8.75-1.62-2.52-2.91-5.49-4.52-7.95,.14,.11,.12,.22,.67,.28l.98-.66c-.64,2.46-1.14,5.2-1.58,7.74-.32,2.27-.82,5.78-1.19,8.03h0Z"/><path d="M74.32,86.43c-1.75-2.51-2.09-5.9-1.39-8.84,.24-1.03,1.02-1.76,1.39-2.7,.18,.99-.35,1.94-.37,2.91-.11,2.76,.2,5.85,.37,8.63h0Z"/><path d="M66.62,81.05c-.51-2.71,.38-6.34,3.33-7.18-1.65,2.44-1.84,4.69-3.33,7.18h0Z"/><path d="M87.85,100.15c-.37-2.23-.87-5.76-1.19-8.03-.43-2.54-.94-5.27-1.58-7.74l.98,.66c.55-.06,.53-.17,.67-.28-1.61,2.46-2.89,5.43-4.52,7.95,.64-3.11,1.4-6.22,2.79-9.09,.26-.35,.34-.59,1.06-.68,.45-.04,.83,.26,.98,.66,2.25,5.14,2.68,11.03,.94,16.36l-.05,.12-.03,.06s0,.02-.03,.03c-.02-.02,0-.03,0-.04h0Z"/><path d="M85.93,81.05c-1.49-2.48-1.68-4.74-3.33-7.18,2.95,.84,3.84,4.47,3.33,7.18h0Z"/><path d="M78.13,86.43c.16-2.78,.47-5.87,.37-8.63-.01-.97-.55-1.92-.37-2.91,.38,.94,1.15,1.67,1.39,2.7,.7,2.94,.35,6.32-1.39,8.84h0Z"/></g></g></g></g><path d="M181.1,246.26c-11.86-6.78-15.62-12.84-15.84-22.36-.22-9.52,14.19-25.13,7.42-35.84-7.82-12.36-40.83,23.36-63.92-3.88-9.25-10.91-12.83-35.28,9.67-46.15,1.59-.77,2.98-1.52,4.24-2.24-2.78-2.07-6.34-5.27-9.04-7.81-.08-.44-.13-.89-.13-1.35,0-6.97,3.97-7.2,4.09-16.56,.06-4.13-.09-8.02-1.29-11.97,1.87,10.64-1.06,20.41-1.06,20.41,0,0-17.61-4.01-23.65-11.05-3.1-3.61-10.48-21.37-14.85-21.36-4.93,0-9.8,16.35-14.82,21.39-4.41,4.42-18.91,9.62-22.38,10.82,3.95,7.65,10.57,15.39,12.91,18.53-.96,5.06-6.6,35.86-3.86,48.27,2.98,13.54,4.91,19.17,13.56,34,7.91,13.55,3.65,23.54,3.65,23.54,0,0-3.78,5.58-1.76,10.48,2.01,4.9,5.77,5.62,11.5,4.7,5.16-.83,12.28-3.72,12.28-3.72,0,0,3.17,6.54,13.78,5,7.56-1.1,9.87-5.79,10-11,.03-1.28-1.7-7.5-2-10,.29,.45,20.29,5.79,30.31,6,1.47,.03-1.8,9.19,.93,11.46,2.73,2.26,1.58,3.17,8.73,2.93,7.16-.24,21.79,3.72,28.58,.91,4.62-1.91,16.99-5.92,25.69-13.38-8.21,3.43-17.47,3.26-22.75,.24Z" style="fill:#fff;"/><path d="M90.66,211.05s-.05,0-.08,0c-.21,0-5.12-.25-11.72-4.08-6.74-3.9-9.93-11.16-10.07-11.47-.42-.96,.03-2.08,.99-2.5,.96-.42,2.08,.03,2.5,.99h0c.03,.06,2.85,6.43,8.49,9.69,5.8,3.36,9.93,3.57,9.97,3.57,1.05,.04,1.86,.93,1.82,1.98-.04,1.02-.88,1.82-1.9,1.82Zm48.74,31.57c0-1.05-.85-1.9-1.9-1.9-.06,0-5.88-.01-10.63-.96-5.75-1.15-10.68-2.91-10.73-2.93-.99-.35-2.08,.16-2.43,1.15s.16,2.08,1.15,2.43c.21,.08,5.24,1.87,11.27,3.08,5.13,1.03,11.12,1.04,11.37,1.04,1.05,0,1.9-.85,1.9-1.9ZM96.11,75.67c.39-.98-.09-2.08-1.06-2.47-.39-.15-9.58-3.77-19.84-3.77s-16.42,3.78-16.67,3.94c-.88,.57-1.13,1.74-.57,2.62,.56,.88,1.74,1.14,2.62,.58,.05-.03,5.36-3.34,14.62-3.34s18.34,3.47,18.43,3.5c.23,.09,.47,.13,.7,.13,.75,0,1.47-.45,1.77-1.2Zm-55.45,10.01c.87-.58,1.11-1.76,.53-2.64-1.71-2.56-4.14-17.18-3-20.01h.05c2.81,0,13.84,5.93,15.98,8.69,.64,.83,1.84,.98,2.67,.34,.83-.64,.98-1.84,.34-2.67-2.21-2.85-16.24-11.88-20.8-9.82-.9,.41-1.54,1.25-1.9,2.5-1.46,5.08,1.39,19.91,3.5,23.07,.37,.55,.97,.85,1.58,.85,.36,0,.73-.1,1.05-.32Zm72.94-.53c2.11-3.16,4.96-17.98,3.5-23.07-.36-1.25-1-2.09-1.9-2.5-4.56-2.05-18.59,6.97-20.8,9.82-.64,.83-.49,2.02,.34,2.67,.83,.64,2.02,.49,2.67-.34,2.14-2.77,13.2-8.71,15.94-8.71,.03,0,.06,0,.08,0,1.16,2.79-1.28,17.46-2.99,20.02-.58,.87-.35,2.05,.53,2.64,.32,.22,.69,.32,1.05,.32,.61,0,1.22-.3,1.58-.85Zm-24.91,160.71c0-.09,.23-9.23-.11-19.57-.28-8.54-1.45-10.48-2.56-11.26-.59-.42-1.33-.54-1.96-.33-1,.33-1.54,1.4-1.21,2.4,.16,.48,.49,.86,.91,1.08,.25,.58,.84,2.56,1.03,8.23,.34,10.22,.11,19.26,.11,19.35-.03,1.05,.8,1.92,1.85,1.95,.02,0,.03,0,.05,0,1.03,0,1.87-.82,1.9-1.85Zm-15.25,13.4c7.46-.03,11.03-3.16,11.18-3.29,.78-.69,.84-1.88,.15-2.66-.68-.78-1.88-.86-2.67-.19-.11,.09-2.77,2.31-8.68,2.34-3.52,0-7.67-.97-7.73-5.74-.03-2.2,.54-2.88,1.39-3.92,1.08-1.31,2.43-2.95,2.43-6.98v-1.57c.02-5.26-.05-5.94-2.58-12.79-.89-2.39-2.19-4.76-3.7-7.5-3.43-6.22-8.12-14.75-12.91-31.86-4.97-17.74,3-43.17,3.08-43.43,.32-1-.23-2.07-1.23-2.39-1-.32-2.07,.23-2.39,1.23-.35,1.08-8.4,26.76-3.12,45.61,4.91,17.54,9.72,26.28,13.24,32.67,1.5,2.71,2.67,4.86,3.46,6.99,2.37,6.4,2.37,6.59,2.35,11.46v1.59c0,2.67-.69,3.5-1.57,4.56-1.02,1.24-2.3,2.79-2.26,6.38,.07,5.95,4.34,9.5,11.45,9.5h.1Zm37.43-4.1c3.54-4.72,1.62-9.44,.35-12.57-.15-.37-.3-.73-.43-1.08-.84-2.21,.99-17.73,2.68-22.75,.33-1-.2-2.07-1.19-2.41-1-.34-2.07,.2-2.41,1.19-1.44,4.28-4.13,21.36-2.63,25.31,.14,.37,.3,.76,.46,1.16,1.4,3.43,2.22,6.07,.13,8.85-2.34,3.12-6.75,4.57-11.76,3.86-3.9-.55-6.07-1.92-6.74-2.92-.3-.45-.27-.76-.22-.98,.26-1.02-.36-2.05-1.38-2.31-1.02-.26-2.05,.36-2.31,1.38-.35,1.39-.09,2.78,.75,4.03,1.53,2.27,4.94,3.94,9.37,4.56,1.02,.14,2.02,.21,3,.21,5.17,0,9.66-1.98,12.34-5.56Zm-59.01-117.88c.9-.53,1.2-1.7,.67-2.6-.95-1.61-2.37-3.28-4.01-5.21-4.46-5.25-10.02-11.77-10.02-21.37s3.8-18.14,3.84-18.23c.42-.96-.01-2.08-.97-2.51-.96-.43-2.08,0-2.51,.97-.17,.38-4.16,9.51-4.16,19.77,0,11,6.31,18.42,10.92,23.83,1.53,1.8,2.85,3.35,3.64,4.68,.35,.6,.99,.93,1.64,.93,.33,0,.66-.08,.96-.26Zm160.9,59.73c0-.8-.16-19.85-29.09-39.48-10.51-7.13-22.76-10.29-34.62-13.34-14.09-3.63-27.4-7.06-33.76-16.96-.79-1.98-.72-4.15,.22-5.96,2.21-4.29,3.29-8.59,3.29-13.16,0-10.26-3.99-19.39-4.16-19.77-.43-.96-1.55-1.39-2.51-.97-.96,.42-1.39,1.55-.97,2.51,.04,.09,3.84,8.77,3.84,18.23,0,3.94-.94,7.68-2.86,11.42-1.48,2.87-1.58,6.26-.28,9.33,.04,.09,.09,.19,.14,.27,7.13,11.28,21.2,14.91,36.11,18.75,11.54,2.97,23.47,6.05,33.43,12.81,27.08,18.38,27.43,36.14,27.43,36.3,0,1.05,.83,1.91,1.88,1.92h.02c1.04,0,1.89-.84,1.9-1.88Zm-34.4,63.24c9.2-.32,27.69-10.73,35.35-21.97,7.82-11.48,1.27-30.15,.99-30.94-.35-.99-1.44-1.5-2.43-1.15-.99,.35-1.5,1.44-1.15,2.43,.06,.18,6.18,17.64-.55,27.52-6.9,10.12-24.07,20.03-32.34,20.32-5.61,.2-8.99,.13-12.56,.07-1.87-.03-3.81-.11-6.06-.07-2.9,0-12.83-.09-16.6-1.36-2.04-.68-2.51-1.62-2.51-5,0-3.79,14.66-8.29,28.35-10.12,1.04-.14,1.77-1.09,1.63-2.13-.14-1.04-1.09-1.76-2.13-1.63-7.42,.99-31.65,4.92-31.65,13.88,0,2.58,0,6.9,5.1,8.6,4.2,1.41,13.9,1.55,17.81,1.55,2.24,0,4.15,.03,5.99,.07,1.78,.03,3.52,.06,5.5,.06s4.36-.03,7.26-.13Z"/></g></g></g></svg>