<?xml version="1.0" encoding="UTF-8"?><svg xmlns="http://www.w3.org/2000/svg" xmlns:xlink="http://www.w3.org/1999/xlink" viewBox="0 0 280 280"><defs><clipPath id="clippath"><path d="m214.42,222.72s17.29-14.45,24.5-67.73c5.16-38.13,9.96-84.06-5.07-84.06-13.02,0-8.12,29.03-12.93,65.06-4,30-14,51-14,51,0,0-4.27,32.9,7.5,35.73Z" style="fill:none;"/></clipPath><clipPath id="clippath-3"><path d="m199.61,174.1c-13.5-15.71-28.95-24.42-42-26-11.3-1.72-28-8-33-11-4.84-2.91-15-13-15-13,0,0-13.64,15.27-28.72,16-20.68,1-21.85-7.89-28.28-4,0,0-6.99,35.46-4,49,2.98,13.54,4.91,19.17,13.56,34,7.91,13.55,3.65,23.54,3.65,23.54,0,0-3.78,5.58-1.76,10.48,2.01,4.9,5.77,5.62,11.5,4.7,5.16-.83,12.28-3.72,12.28-3.72,0,0,3.17,6.54,13.78,5,7.56-1.1,9.87-5.79,10-11,.03-1.28-1.7-7.5-2-10,.29.45,20.29,5.79,30.31,6,1.47.03-1.8,9.19.93,11.46,2.73,2.26,1.58,3.17,8.73,2.93,7.16-.24,21.79,3.72,28.58.91,6.79-2.81,30.3-10.13,34.34-26.3,4.65-18.59,7.74-34.99-12.9-59Z" style="fill:none;"/></clipPath></defs><g style="isolation:isolate;"><path d="m214.42,222.72s17.29-14.45,24.5-67.73c5.16-38.13,9.96-84.06-5.07-84.06-13.02,0-8.12,29.03-12.93,65.06-4,30-14,51-14,51,0,0-4.27,32.9,7.5,35.73Z" style="fill:#d3d6dd;"/><g style="mix-blend-mode:soft-light;"><g style="clip-path:url(#clippath);"><path d="m243.93,106.99s-2.97-5.22-9.63-5.78c-4.67-.39-10.37,2.78-10.37,2.78,0,0,.33-7.9,0-15-.43-9.16,0-19,10.36-18.74,5.8.14,9.06,7.72,9.64,16.74.57,9.02,0,20,0,20Z"/><path d="m223.33,205.55s-1-12-3-15-8-7-4-11,6,1,9,0,8-4,10-2,1,8,1,15-7,15-13,13Z"/><path d="m210.33,171.55c-4-4-1-12,4-13,1.39-.28,5,3,7,4s11,0,10,3-7,1-10,4-7,6-11,2Z"/><path d="m226.33,115.55c2.19.44,5,5,9,5s6,1,8,4-8,0-10,1-8,2-11-1c-2.12-2.12-1-10,4-9Z"/><path d="m244.33,138.55c5,2,2.66,9.89,1,11-3,2-12,2-15,2s-8-3-6-7c2-4,5-1,8-2s7-6,12-4Z"/></g></g><path d="m214.79,221.99c-.49,0-.99-.19-1.36-.57-.73-.75-.72-1.95.03-2.69,2.77-2.7,5.39-6.38,9.18-15.52,1.67-4.02,10.19-25.36,14.41-50.54,3.32-19.78,3.63-41.08,3.8-52.53l.04-2.32c.01-.63.06-1.4.11-2.29.16-2.56.38-6.08-.1-10.22-.12-1.04.63-1.99,1.67-2.11,1.03-.13,1.99.62,2.11,1.67.52,4.48.28,8.34.12,10.9-.05.82-.1,1.53-.11,2.11l-.04,2.31c-.17,11.55-.49,33.04-3.85,53.1-4.29,25.59-12.96,47.28-14.65,51.37-4.03,9.74-6.93,13.75-10.03,16.78-.37.36-.85.54-1.33.54Z"/><path d="m209.92,181.89c-.26,0-.53-.05-.78-.17-.96-.43-1.38-1.56-.94-2.52,4.61-10.15,7.96-26.1,11.86-48.54,2.33-13.38,2.47-25.24,2.59-34.77.18-14.8.3-24.57,8.6-26.65,2.11-.53,4.33-.11,6.42,1.21,2.72,1.72,4.88,4.86,5.51,7.99.21,1.03-.46,2.03-1.49,2.23-1.03.21-2.03-.46-2.23-1.49-.42-2.13-1.96-4.35-3.81-5.53-.83-.53-2.1-1.08-3.47-.74-5.21,1.3-5.54,8.78-5.72,23-.12,9.67-.26,21.7-2.64,35.38-3.95,22.74-7.36,38.94-12.14,49.46-.32.7-1.01,1.11-1.73,1.11Z"/><path d="m76.07,73.1c-9.72,0-17.84-.31-28.47,9-11.89,10.42-13.1,24.04-9.65,32.74,3.79,9.55,13.61,20.41,15.17,22.93s0,14.33,0,14.33c0,0,3.62-.15,28.43-3.82,20.2-2.99,29.81-10.8,34.55-13.38.51-.27-2.51-1.7-3.04-1.91-1.26-.5-5.47-.47-4.46-3.89,1.97-6.69,8.86-9.68,8.99-19.04.13-9.36-.77-17.48-12.67-27.89-10.63-9.31-18.41-9.06-28.13-9.06h-.72Z" style="fill:#d3d6dd;"/><path d="m199.61,174.1c-13.5-15.71-28.95-24.42-42-26-11.3-1.72-28-8-33-11-4.84-2.91-15-13-15-13,0,0-13.64,15.27-28.72,16-20.68,1-21.85-7.89-28.28-4,0,0-5.05,34.94-2.07,48.48,2.98,13.54,4.35,20.17,13,35,7.91,13.55,2.28,23.06,2.28,23.06,0,0-3.78,5.58-1.76,10.48,2.01,4.9,5.77,5.62,11.5,4.7,5.16-.83,12.28-3.72,12.28-3.72,0,0,3.17,6.54,13.78,5,7.56-1.1,9.87-5.79,10-11,.03-1.28-1.7-7.5-2-10,.29.45,20.29,5.79,30.31,6,1.47.03-1.8,9.19.93,11.46,2.73,2.26,1.58,3.17,8.73,2.93,7.16-.24,21.79,3.72,28.58.91,6.79-2.81,30.3-10.13,34.34-26.3,4.65-18.59,7.74-34.99-12.9-59Z" style="fill:#d3d6dd;"/><path d="m61.61,75.1s-19.64-16.56-24-14,3,28,3,28c0,0,7.17-5.37,12.04-8.19,4.87-2.82,8.96-5.81,8.96-5.81Z" style="fill:#d3d6dd;"/><path d="m90.02,75.1s19.64-16.56,24-14c4.36,2.56-3,28-3,28,0,0-7.17-5.37-12.04-8.19-4.87-2.82-8.96-5.81-8.96-5.81Z" style="fill:#d3d6dd;"/><g style="mix-blend-mode:soft-light;"><g style="clip-path:url(#clippath-3);"><path d="m161,208.37c-2.04-.15-5.36.55-7.62-1.52-2.67-2.46-5.05-7.35-5.13-10.84-.15-6.31,5.13-11.25,8.93-11.25,2.78,0,6.92,2.4,8.38,4.57,1.85,2.76,1.84,6.89,2.11,9.45.48,4.57-.35,10.06-6.68,9.59Z"/><path d="m162.35,181.77c7.56,2.29,8.54,8.67,9.46,13.62.92,4.95-.3,10.55-1.64,13.05-1.49,2.77-2.74,7.1-8.3,9.48-4.85,2.07-6.38,2.72-12.4,5.14-6.86,2.76-17.39,8.52-17.12,11.34.27,2.82,9.09-3.34,14.83-5.07,7.45-2.25,19.24-3.13,25.36-7.88,6.12-4.75,10.85-13.73,11-19,.15-5.27-1.84-17.09-7-22-5.22-4.97-13.9-7.68-20-7-9,1-15.35,6.17-18,11-1.89,3.44-2.23,11.2-1.03,17.03,1.14,5.51,3.89,8.81,9,12.22,5.27,3.51,14.97,2.95,14.2.39-.51-1.68-6.88-1.49-11.17-5.64-5.06-4.89-5.96-10.02-4-17,1.49-5.3,5.3-13.17,16.81-9.68Z"/><path d="m178.54,153.44c-7.14-2.61-15.13,2.7-21,4-9,2-18.08,10.54-29,16-10,5-5.28,30,2,30,5,0-4.65-18.82,9-27,10.75-6.44,17-13,29.8-9.95,6.36,1.52,12.6,8.6,17.2,15.95,4.06,6.49,3.29,11.11,3.48,18.33s-2.99,12.69-6.93,18.26c-4.17,5.89-7.35,10.4-17.56,13.77-9.65,3.18-27.52,3.79-25.99,6.64,1.52,2.85,21.24,3.54,33.37-.12,10.36-3.13,15.2-7.65,19.85-16.34,4.65-8.69,9.84-16.09,8.91-25.73-.93-9.64-.24-16.69-5.13-22.81-5.11-6.4-11.85-18.76-18-21Z"/><path d="m188.03,149.69c4.37,1.33,8.9,8.43,6.94,9.82-1.96,1.39-9.26-3.36-17.42-4.07-3.86-.34-7.33-1.69-13,1-4.58,2.17-6.81-.52-11,8-3.36,6.82-14.76,5.89-23.15,9.79-4.88,2.27-12.36,3.81-13.48.1-.88-2.91,9.69-2.13,14.63-6.8,6.73-6.35,15.89-5.89,17.99-12.09,2.1-6.2,9.66-7.77,15.46-8.33,7.72-.74,17.78.99,23.03,2.58Z"/><path d="m174.58,130.22c4.47.9,12.43,14.48,10.61,16.05-1.82,1.57-6.23-3.7-14.42-3.62-3.88.04-10.54-1.67-15.92,1.55-4.34,2.6-2.27,1.53-9.27,7.94-7.38,6.75-17.05,7.61-25.02,12.31-4.63,2.73-30.11,7.9-32,4-2.23-4.59,25.79-7.48,30.26-12.6,6.08-6.98,14.62-4.53,19.42-8.78,4.89-4.34,8.26-12.86,13.98-13.98,7.61-1.49,16.99-3.93,22.37-2.85Z"/><path d="m50.61,169.22c7.35.74,15.78-2.08,16.93.22,2,4-8,5-15.24,6.29-8.27,1.47-17.96-1.46-15.61-12.08.9-4.06,6.57,4.83,13.92,5.57Z"/><path d="m55.94,215.16c8.68,4.14,20.61,6.29,20.61,4.29s-7-6-12-7-13-13-15-12-5,4-4,8,9.79,6.42,10.39,6.71Z"/><path d="m50.48,189.91c9.6-.52,19.21-5.33,18.25-7.09-.96-1.76-4.18-1.12-9.05.4-4.87,1.51-20.58-5-21.86-3.17s-2.48,5.9.32,8.94,11.67.96,12.34.92Z"/><path d="m46.42,202.64c9.57.96,22.12,1.8,22.12-.2,0-5-5.96-7.75-11-7s-20.57-6.11-22.11-4.49-3.36,5.45-1.06,8.88,11.38,2.74,12.05,2.81Z"/><path d="m64.56,224.02s3.98,1.42,7.98,1.42,8,0,8,1-2,2-5,2-6,3-10,1-9-2-9-5,6.04-.85,8.02-.42Z"/><path d="m90.54,228.44c-4-2-12,1-13,3s4,2,7,2,8,3,8,1,2-4-2-6Z"/><path d="m64.54,242.44c-.33-1.97,6-3,10-3s6-2,6,0-7,3-10,5-5,4-6-2Z"/><path d="m91.54,241.44c-3,0-8,3-11,4s-4,1-4,3,3,0,7,0,11,3,11,0,1-7-3-7Z"/><path d="m86.54,221.44c0,3,1,4,6,5s14-2,14,1-13,5-11,8c1.24,1.86,15,1,16-4s2-7,0-8-8-3-13-3-12-6-12,1Z"/><path d="m113.54,241.44c-.95-.32-5,4-9,4s-7-1-7,1,6,2,9,2,8,3,8,0,2-6-1-7Z"/><path d="m93.54,252.44c.49-1.94,8,1,10,1s5,1,5,2-10,0-11,0-5,1-4-3Z"/><path d="m89.54,181.44c.96-1.92,7.33-.44,14-2,4.11-.96,6.33-4.86,9-6,6.28-2.69,14.47-2.86,16-1,1.53,1.86,2.79,10.28-2,11-2.27.34-15.94.59-22,2-6.7,1.56-16-2-15-4Z"/><path d="m92.62,199.44c-1.08,2.91,10.35,2,14.79,6,3.55,3.2,0,11,5.91,11,2.09,0,5.91-5,5.91-9s2.96-13-1.48-15-7.39,5-10.35,5-13.31-2-14.79,2Z"/><path d="m213.04,204.9c5.1-.11,5.98,13.01,5.12,18.32-.86,5.32-6.38,12.7-13,15.2-6.61,2.5-19.28,3.28-23.64,4.26-4.88,1.09-12.03,5.76-10.95,1.42,1.08-4.34,14.52-8.37,21.9-12.07,7.37-3.7,13-15.2,14.51-17.59,1.52-2.39.97-9.44,6.06-9.55Z"/><path d="m199.63,245.81s-6.29-.64-12.15.67-14.1,1.1-18.76,3.17c-4.66,2.07-7.37,3.7-2.81,5.75,4.56,2.06,9.54-3.16,16.81-2.73s8.63,3.02,10.12,2.26c1.49-.76,9.4-6.63,6.8-9.12Z"/><path d="m132.54,209.44c2.77,4.16,13,7,12,9s-6,0-10,2-11,7-10,1-1-14,2-14,4-1,6,2Z"/><path d="m48.1,138.72s1.66,10.27,5.9,10.64c4.24.37,16.36-2.73,22.08-4.63,6.18-2.05,19.2-2.05,23.11-3.74,3.91-1.69,14.11-9.66,16.5-12.15,2.38-2.49,6.81-9.53,9.86-7.92s3.71,5.72-2.58,9.9c-6.29,4.18-15.05,12.77-22.95,15.3-6.62,2.13-17.09.66-22.17,1.48-4.8.78-18.62,8.28-24.38,7.11-5.76-1.18-8.97-3.82-9.8-8.95-.83-5.13,2.91-7.85,4.43-7.04Z"/><path d="m145.16,119.67c-3.77,1.76-4.42,9.24-6.56,11.26-2.14,2.02-5.4,7.13-7.54,9.16-1.51,1.43-7.42,5-10.57,5.95-3.15.95-1.13,3.09,2.02,2.14,3.15-.95,8.43-3.93,11.64-6.96,3.21-3.03,9.33-6.17,11.49-9.23s7.8-8.92,6.76-11.07c-1.04-2.16-5.14-2.22-7.25-1.24Z"/><path d="m50.65,158.84c-.73,2.27,8.72,7.79,14.45,6.64,5.73-1.15,7.61-3.65,13.33-4.81,5.73-1.15,20.5,1.18,26.75-3.26s20.92-19.16,19.37-20.97c-1.56-1.81-19.25,15.64-24.97,16.8-5.73,1.15-16.45,1.19-24.46,2.8-6.87,1.38-7.61,3.65-12.19,4.57-4.58.92-11.54-4.04-12.27-1.77Z"/></g></g><path d="m90.66,211.05s-.05,0-.08,0c-.21,0-5.12-.25-11.72-4.08-6.74-3.9-9.93-11.16-10.07-11.47-.42-.96.03-2.08.99-2.5.96-.42,2.08.03,2.5.99.05.11,2.88,6.44,8.48,9.69,5.73,3.32,9.94,3.57,9.98,3.57,1.04.05,1.85.94,1.81,1.99-.05,1.02-.88,1.81-1.89,1.81Z"/><path d="m137.5,244.52c-.25,0-6.25-.01-11.37-1.04-6.03-1.21-11.06-3-11.27-3.08-.99-.35-1.5-1.44-1.15-2.43.35-.99,1.44-1.5,2.43-1.15.05.02,4.98,1.78,10.73,2.93,4.75.95,10.57.96,10.63.96,1.05,0,1.9.85,1.9,1.9,0,1.05-.85,1.9-1.9,1.9Z"/><path d="m94.34,76.87c-.23,0-.47-.04-.7-.13-.09-.04-8.92-3.5-18.43-3.5s-14.56,3.3-14.62,3.33c-.88.56-2.06.3-2.62-.58-.56-.88-.31-2.05.56-2.62.25-.16,6.22-3.94,16.67-3.94s19.45,3.62,19.84,3.77c.97.39,1.45,1.49,1.06,2.47-.3.75-1.01,1.2-1.77,1.2Z"/><path d="m39.61,86c-.61,0-1.22-.3-1.58-.85-2.11-3.16-4.96-17.98-3.5-23.07.36-1.25,1-2.09,1.9-2.5,4.57-2.06,18.59,6.97,20.8,9.82.64.83.49,2.02-.34,2.67-.83.64-2.02.49-2.67-.34-2.14-2.76-13.17-8.69-15.98-8.69-.02,0-.04,0-.06,0-1.14,2.83,1.29,17.45,3,20.01.58.87.35,2.05-.53,2.63-.32.22-.69.32-1.05.32Z"/><path d="m112.02,86c-.36,0-.73-.1-1.05-.32-.87-.58-1.11-1.76-.53-2.63,1.71-2.57,4.15-17.24,2.99-20.02-2.57-.11-13.86,5.91-16.03,8.71-.64.83-1.84.98-2.67.34-.83-.64-.98-1.84-.34-2.67,2.21-2.85,16.23-11.88,20.8-9.82.9.41,1.54,1.25,1.9,2.5,1.46,5.08-1.39,19.91-3.5,23.07-.37.55-.97.85-1.58.85Z"/><path d="m86.8,247.72s-.03,0-.05,0c-1.05-.03-1.88-.9-1.85-1.95,0-.09.23-9.13-.11-19.35-.19-5.67-.78-7.64-1.03-8.23-.42-.22-.75-.6-.91-1.08-.33-1,.21-2.07,1.21-2.4.63-.21,1.37-.09,1.96.33,1.11.78,2.28,2.72,2.56,11.26.34,10.34.11,19.48.11,19.57-.03,1.03-.87,1.85-1.9,1.85Zm-1.55-29.4h0,0Z"/><path d="m73.35,259.27c-7.1,0-11.38-3.55-11.45-9.5-.04-3.59,1.23-5.13,2.26-6.38.87-1.06,1.56-1.9,1.56-4.56v-1.58c.02-4.87.02-5.06-2.35-11.46-.7-1.89-1.56-3.85-2.56-6.11-2.89-6.56-6.85-15.54-12.04-34.06-5.26-18.78.73-43.9.98-44.96.25-1.02,1.28-1.64,2.29-1.4,1.02.25,1.65,1.27,1.4,2.29-.06.25-6,25.22-1.02,43.04,5.11,18.26,9.01,27.1,11.85,33.55,1.02,2.32,1.91,4.32,2.65,6.33,2.54,6.85,2.61,7.53,2.59,12.79v1.57c0,4.03-1.35,5.67-2.44,6.98-.85,1.03-1.41,1.71-1.39,3.92.05,4.74,4.17,5.74,7.64,5.74h.08c5.91-.03,8.57-2.24,8.68-2.34.79-.68,1.99-.6,2.67.19.68.78.62,1.96-.15,2.66-.15.13-3.72,3.26-11.18,3.29h-.1Z"/><path d="m98.54,260.72c-.98,0-1.98-.07-3-.21-4.42-.62-7.84-2.29-9.37-4.56-.84-1.25-1.1-2.64-.75-4.03.26-1.02,1.29-1.63,2.31-1.38,1.02.26,1.63,1.29,1.38,2.31-.06.22-.08.53.22.98.67,1,2.84,2.37,6.74,2.92,5.02.71,9.42-.73,11.77-3.86,2.09-2.79,1.26-5.43-.13-8.85-.16-.4-.32-.79-.46-1.16-1.5-3.95,1.19-21.03,2.63-25.31.33-.99,1.41-1.53,2.41-1.2.99.33,1.53,1.41,1.2,2.41-1.69,5.02-3.51,20.54-2.68,22.75.13.34.28.7.43,1.08,1.27,3.12,3.19,7.84-.35,12.56-2.68,3.58-7.17,5.56-12.34,5.56Z"/><path d="m50.9,137.55c-.65,0-1.28-.33-1.64-.93-.78-1.33-2.11-2.88-3.64-4.68-4.61-5.42-10.92-12.84-10.92-23.83,0-10.26,3.99-19.39,4.16-19.77.42-.96,1.55-1.39,2.51-.97.96.42,1.39,1.55.97,2.51-.04.09-3.84,8.8-3.84,18.23s5.55,16.12,10.02,21.37c1.64,1.93,3.06,3.6,4.01,5.21.53.9.23,2.07-.67,2.6-.3.18-.64.26-.96.26Z"/><path d="m210.87,198.89h-.02c-1.05,0-1.89-.87-1.88-1.92,0-.17-.34-17.92-27.43-36.3-9.96-6.76-21.89-9.83-33.43-12.81-14.9-3.84-28.98-7.47-36.11-18.75-.06-.09-.1-.18-.14-.27-1.3-3.06-1.2-6.46.28-9.33,1.93-3.74,2.86-7.47,2.86-11.42,0-9.43-3.8-18.14-3.84-18.23-.42-.96.01-2.08.97-2.51.96-.42,2.08,0,2.51.97.17.38,4.16,9.51,4.16,19.77,0,4.56-1.07,8.87-3.29,13.16-.94,1.82-1.01,3.98-.22,5.96,6.36,9.9,19.67,13.33,33.76,16.96,11.85,3.05,24.11,6.21,34.62,13.34,28.93,19.63,29.1,38.68,29.09,39.48,0,1.04-.86,1.88-1.9,1.88Z"/><path d="m171.11,260.39c-1.98,0-3.72-.03-5.5-.06-1.85-.03-3.73-.05-5.99-.07h-.08c-4,0-13.56-.15-17.73-1.55-5.1-1.71-5.1-6.03-5.1-8.6,0-8.97,24.22-12.89,31.65-13.88,1.04-.13,2,.59,2.13,1.63.14,1.04-.59,2-1.63,2.13-13.69,1.83-28.35,6.33-28.35,10.12,0,3.38.47,4.32,2.51,5,3.77,1.26,13.68,1.36,16.6,1.36,2.26-.02,4.19.03,6.06.07,3.57.07,6.95.13,12.56-.07,8.27-.29,25.44-10.19,32.34-20.32,6.75-9.9.61-27.34.55-27.52-.35-.99.16-2.08,1.15-2.43.99-.36,2.08.16,2.43,1.15.28.79,6.84,19.46-.99,30.94-7.66,11.24-26.15,21.65-35.35,21.97-2.9.1-5.21.13-7.26.13Z"/><g style="mix-blend-mode:soft-light;"><path d="m53.84,104.95c0-1-5.36-1.76-8,0-3,2-9.8,7.2-8,9,3,3,5-3,9-6,3.05-2.28,7-2,7-3Z"/><path d="m51.84,116.95c-1-1-3.69,1.34-6,2-4.43,1.27-6.82-.6-7.41,1.7s4.41,2.3,7.41,1.3,7-4,6-5Z"/><path d="m99.54,104.95c0-1,5.36-1.76,8,0,3,2,9.8,7.2,8,9-3,3-5-3-9-6-3.05-2.28-7-2-7-3Z"/><path d="m101.54,116.95c1-1,3.69,1.34,6,2,4.43,1.27,6.82-.6,7.41,1.7.59,2.3-4.41,2.3-7.41,1.3-3-1-7-4-6-5Z"/><path d="m65.17,97.61c-2,0-.17-7.41.83-10.41,1.1-3.29,1.17-10.59,3.17-10.59,2.24,0,6.04,17.6,5,19-1.04,1.4-2-9-3-9s-2.31,1.94-3,4c-1,3-2,7-3,7Z"/><path d="m89.19,97.2c1.97-.59,1-7,0-10-1.1-3.29-2.03-10.59-4.03-10.59-2.24,0-5.04,17.6-4,19,1.04,1.4,3-9,4-9,1,0,1.31,1.94,2,4,1,3,.97,6.9,2.03,6.59Z"/><path d="m70.45,84.61c-1.08,0-2.97-3.46-3.25-7.18-.28-3.73-.25-6.08,1.08-6.28,1.61-.25,5.42-.9,5.42,0s-2.17,4.49-2.17,7.18c0,2.69,0,6.28-1.08,6.28Z"/><path d="m84.4,84.61c1.08,0,2.49-3.28,2.76-7,.28-3.73.74-6.26-.6-6.47-1.61-.25-5.42-.9-5.42,0s2.17,4.49,2.17,7.18,0,6.28,1.08,6.28Z"/><path d="m77.17,97.61c3,0,2.34-12.42,2.83-18.73.29-3.82.38-7.21,0-7.87-1-1.75-4.17-1.75-5,0-.31.65-.4,4.1,0,7.87.66,6.33.17,18.73,2.17,18.73Z"/><path d="m99.14,88.84c.17-.34-.36-1.3-.85-1.19-.14.04-.29.07-.42.12-.62.2-1.18.51-1.68.85-.5.34-.95.72-1.36,1.11-.2.2-.4.4-.58.6-.14.14-.5.59-.64.86-.7,1.21-.96,2.32-1.08,3.49-.05.58-.06,1.17,0,1.77.02.13.04.27.05.41.07.45,1.13.72,1.41.4.09-.11.18-.21.26-.31.37-.45.69-.9,1-1.35.59-.89,1.09-1.85,1.49-2.53.12-.21.1-.19.31-.47.16-.22.31-.44.45-.67.29-.45.55-.9.79-1.37.2-.41.43-.86.7-1.4.05-.11.1-.21.16-.33Z"/><path d="m58.1,89.01c-.08-.31.53-1.23.97-1.1.13.04.25.09.38.14.55.24,1.03.61,1.43,1.01.8.83,1.29,1.83,1.55,2.87.13.51.2,1.1.19,1.63-.01.53-.09,1.05-.22,1.56-.14.5-.33.99-.59,1.46-.06.1-.13.21-.19.32-.22.35-1.3.2-1.46-.13-.05-.11-.1-.21-.14-.32-.2-.46-.35-.9-.49-1.32-.14-.42-.26-.83-.36-1.22-.1-.4-.19-.75-.28-1.11-.18-.75-.34-1.51-.47-2.29-.07-.39-.14-.79-.23-1.21-.02-.09-.04-.2-.07-.29Z"/></g></g></svg>