<?xml version="1.0" encoding="UTF-8"?><svg xmlns="http://www.w3.org/2000/svg" xmlns:xlink="http://www.w3.org/1999/xlink" viewBox="0 0 280 280"><defs><clipPath id="clippath"><path d="M215.3,223.14s17.29-14.45,24.5-67.73c5.16-38.13,9.96-84.06-5.07-84.06-13.02,0-8.12,29.03-12.93,65.06-4,30-14,51-14,51,0,0-4.27,32.9,7.5,35.73Z" style="fill:none;"/></clipPath><clipPath id="clippath-1"><path d="M199.61,174.1c-13.5-15.71-28.95-24.42-42-26-11.3-1.72-28-8-33-11-2.87-1.72-7.59-5.96-10.98-9.13-.08-.44-.13-.89-.13-1.35,0-6.97,3.97-7.2,4.09-16.56,.1-7.35-.44-13.94-6.43-21.47,1-3.57,6.85-25.14,2.85-27.49-3.77-2.22-18.98,9.88-23.01,13.18-4.66-1.23-9.18-1.18-14.21-1.18h-.72c-5.33,0-10.18-.08-15.23,1.37-3.64-2.99-19.39-15.63-23.24-13.37-4.36,2.56,3,28,3,28,0,0,.65-.49,1.68-1.24-6.85,9.3-7.17,19.81-4.33,26.97,3.44,8.66,11.81,18.37,14.51,21.99-.96,5.06-6.6,35.86-3.86,48.27,2.98,13.54,4.91,19.17,13.56,34,7.91,13.55,3.65,23.54,3.65,23.54,0,0-3.78,5.58-1.76,10.48,2.01,4.9,5.77,5.62,11.5,4.7,5.16-.83,12.28-3.72,12.28-3.72,0,0,3.17,6.54,13.78,5,7.56-1.1,9.87-5.79,10-11,.03-1.28-1.7-7.5-2-10,.29,.45,20.29,5.79,30.31,6,1.47,.03-1.8,9.19,.93,11.46,2.73,2.26,1.58,3.17,8.73,2.93,7.16-.24,21.79,3.72,28.58,.91,6.79-2.81,30.3-10.13,34.34-26.3,4.65-18.59,7.74-34.99-12.9-59Z" style="fill:none;"/></clipPath></defs><g><path d="M215.3,223.14s17.29-14.45,24.5-67.73c5.16-38.13,9.96-84.06-5.07-84.06-13.02,0-8.12,29.03-12.93,65.06-4,30-14,51-14,51,0,0-4.27,32.9,7.5,35.73Z" style="fill:#d1a67b;"/><g style="clip-path:url(#clippath);"><g><path d="M200.64,73.97c1.28,.24,.72,.85,2.03,1.91,.56,.45,.82,1.37,1.51,2.11,.53,.57,1.3,.99,1.88,1.75,.48,.64,1.22,1.17,1.71,1.95,.43,.69,1.32,1.19,1.75,2,.39,.72,.13,1.83,.5,2.66,.4,.88,.66,1.75,.95,2.58,.32,.91,.75,1.73,.97,2.59,.24,.94,.56,1.81,.71,2.69,.16,.95,.69,1.82,.8,2.7,.12,.96-.91,2.01-.81,2.89,.11,.97,1.47,1.69,1.65,2.55,.19,.94-.39,2.06-.02,2.87s.97,1.62,1.64,2.32c.6,.63,1.43,1.06,2.08,1.68s1.57,.9,2.22,1.51,.53,2,1.16,2.62,1.44,1.04,2.02,1.7,.85,1.52,1.36,2.24,1.94,.88,2.34,1.67,.66,1.71,.91,2.57c.22,.77,.32,1.66,.56,2.54,.22,.81-.18,1.83,.07,2.68s1.09,1.47,1.37,2.3-.12,1.91,.2,2.71,1.11,1.46,1.5,2.2c.42,.8,.61,1.76,1.1,2.42,.55,.73,1.91,.56,2.57,1.05,.71,.53,1.03,1.67,1.89,1.83,.66,.13,1.28-.79,2.24-1.44,.64-.43,1.96-.23,2.68-.94,.59-.58,.58-1.82,1.19-2.55,.54-.65,.69-1.62,1.25-2.37,.51-.69,1.78-.87,2.29-1.64s.79-1.59,1.25-2.37,.83-1.56,1.25-2.35,1.59-1.21,1.97-2.02-.05-1.99,.29-2.81,.39-1.75,.67-2.58,.77-1.63,.99-2.47,.63-1.71,.77-2.57c.15-.91-.18-1.82-.15-2.68,.03-.92,.37-1.81,.25-2.66-.13-.91-.54-1.71-.86-2.51s-.92-1.42-1.49-2.1-1.28-.92-2.08-1.4-1-1.88-1.73-2.35c-.79-.51-1.44-1.13-2.14-1.64-.77-.55-1.53-.99-2.2-1.54-.74-.6-1.39-1.17-2.01-1.77-.69-.66-1.43-1.16-1.98-1.81-.62-.73-1.5-1.2-1.95-1.92-.51-.82-.38-1.87-.67-2.66-.33-.89-.69-1.65-.76-2.51-.07-.91-.17-1.79,.04-2.67s.28-1.83,.74-2.65c.39-.7,1.73-.64,2.61-1.27,.69-.5,1.22-1.29,2.12-1.76,.79-.41,1.34-1.45,2.24-1.84,.83-.36,1.62-.95,2.52-1.31s2.07,.15,2.95-.2,1.6-1.06,2.47-1.41,2-.13,2.85-.5,1.55-1.21,2.37-1.62c.88-.43,1.9-.57,2.66-1.04,.86-.52,1.84-.92,2.5-1.49,.78-.67,1.49-1.57,1.91-2.32,.47-.84-.55-1.94-.65-2.9-.1-.91,.13-1.71-.64-2.34-.62-.51-1.58-.48-2.55-.83-.78-.29-1.59-.49-2.56-.7-.84-.18-1.64-.78-2.59-.9-.87-.11-1.75-.46-2.7-.53-.88-.06-1.83,.8-2.77,.77s-1.78-.2-2.71-.2-1.8-.14-2.72-.12-1.83-.52-2.75-.48-1.81,.43-2.72,.48-1.86-.48-2.77-.42c-.92,.06-1.85,.05-2.74,.11s-1.77,1.11-2.65,1.18c-.94,.08-1.86,.05-2.73,.13-.96,.08-1.9-.14-2.75-.06-.99,.09-1.91,.05-2.74,.12-1.07,.09-1.95,.84-2.68,.89-.83,.05-1.83-.06-2.78-.15-.85-.08-1.81-.11-2.72-.27-.86-.16-1.45-1.75-2.34-1.94-.87-.19-2,.7-2.87,.49s-1.79-.24-2.65-.45-1.71-.62-2.56-.8c-.92-.19-1.62-1.55-2.45-1.66-.98-.13-1.98,.8-2.77,.84-1.05,.06-2.08-.09-2.68,.4s-.61,1.47-.6,2.59c0,.92,.43,1.88,.37,2.8s-1.52,1.75-1.6,2.64c-.08,.95,.93,1.95,.89,2.83-.04,.98-.55,1.92-.45,2.76,.12,1,.99,1.57,1.46,2.28s.69,1.7,1.69,2.04c.73,.25,1.75-.19,2.84-.19Z" style="fill:#d28728;"/><path d="M213.44,71.7c.86,.49,1.54,1.46,2.53,1.96,.91,.46,2,.67,2.96,1.14s1.76,1.22,2.7,1.68,1.9,.98,2.81,1.45c.98,.52,1.82,1.15,2.66,1.67,1,.61,1.89,1.11,2.59,1.71,1,.88,2.08,1.52,2.11,2.37s-.75,1.67-2.01,2.47c-.93,.59-1.93,.99-2.91,1.39s-1.98,.9-3.03,1.12-2.12,.43-3.21,.47-2.1-.45-3.2-.56c-1.04-.1-2.14,.05-3.22-.19-1.02-.22-2.03-.6-3.09-.94-1-.32-2.18-.24-3.21-.66-.97-.39-1.93-.94-2.94-1.41-1.04-.49-1.84-1.4-2.79-1.92-1.02-.56-1.98-1.1-2.88-1.69-.98-.64-2.06-1.05-2.89-1.73-.91-.75-1.6-1.66-2.3-2.45-.79-.88-1.48-1.76-1.99-2.68-.57-1.03-1.24-2.03-1.42-3.09s.06-2.28,.34-3.39c.3-1.24,.87-2.16,1.54-2.81,.73-.7,1.69-.9,2.95-.91,.9,0,2.06-.38,3.28-.03,.91,.26,1.96,.66,3.07,1.11,.91,.37,1.86,.93,2.92,1.43,.91,.43,1.93,.82,2.95,1.35,.9,.47,1.64,1.38,2.64,1.93,.9,.49,2.07,.62,3.05,1.17Z" style="fill:#473513;"/><path d="M292,70.22c-.11,.87-.55,2.24-.95,3.11-.36,.79-1.17,1.43-1.72,2.21-.5,.71-1.05,1.46-1.68,2.16-.59,.66-1.26,1.29-1.94,1.93s-1.64,.85-2.36,1.44-1.54,.94-2.27,1.49-.85,1.92-1.6,2.44-1.85,.53-2.61,1.03-1.29,1.4-2.05,1.87c-.8,.5-1.71,.77-2.46,1.22-.83,.49-1.93,.42-2.66,.85-.88,.51-1.03,2.09-1.72,2.48-1.06,.61-2.4,.2-2.87,.51-.66,.44-1.38,.91-2.35,1.29-.77,.3-1.36,1.42-2.33,1.71-.81,.25-1.72,.48-2.67,.73-.83,.22-2.02-.74-2.96-.51-.84,.21-1.75,.35-2.68,.58-.85,.21-1.41,1.77-2.34,2-.86,.21-2.04-.76-2.96-.53-.86,.21-1.5,1.42-2.42,1.65-.86,.22-1.94-.28-2.85-.04s-1.54,1.29-2.4,1.51-1.85,.12-2.7,.33-1.71,.69-2.57,.89-2.03-.71-2.89-.52-1.68,.85-2.54,1.02c-.91,.18-1.72,.73-2.58,.88-.91,.16-1.8,.35-2.67,.47-.92,.13-1.91-.73-2.78-.65-.92,.09-1.79,.07-2.66,.11-.93,.03-1.79,.59-2.66,.56-.92-.04-1.81-.05-2.67-.17-1.52-.2-2.25-.84-1.82-1.72,.28-.58,.92-1.53,1.87-2.29,.64-.52,1.3-1.33,2.18-1.89,.73-.47,1.98-.26,2.86-.74,.78-.44,1.52-1.06,2.39-1.5,.81-.41,1.96-.18,2.83-.58s1.27-1.73,2.16-2.09,2.1,.23,2.98-.11,1.42-1.59,2.31-1.9,1.79-.64,2.69-.91,2.13,.64,3.04,.41c.92-.24,1.79-.51,2.7-.7s1.66-.92,2.43-1.13c.92-.25,1.65-.78,2.4-1.05,.92-.33,1.94-.17,2.62-.52,.89-.46,1.83-.76,2.42-1.24,.77-.63,1.5-1.36,1.94-1.99,.53-.78-.15-2.2,.26-2.92s1.49-1.01,2.22-1.6c.57-.46,1.16-1.1,2.15-1.43,.84-.28,1.48-.94,2.28-1.59,.69-.56,1.47-1.08,2.12-1.85,.59-.7,1.23-1.4,1.78-2.22s.73-1.75,1.2-2.6,1.05-1.59,1.46-2.45,.88-1.71,1.23-2.58c.38-.92,1.54-1.53,1.83-2.39,.34-.99-.31-2.22-.09-3.04,.33-1.23,.31-2.15,.31-2.75,0-.68,1.31-.44,2.82,.21,.72,.31,1.55,.76,2.49,1.27,.76,.41,1.53,.96,2.39,1.47,.78,.46,1.32,1.37,2.13,1.88,.78,.49,2,.32,2.8,.83s1.36,1.36,2.14,1.87c.8,.53,2.15,.22,2.91,.72,.82,.55,1.14,1.78,1.86,2.27,.87,.59,1.33,1.59,2,2.05,1.42,.99,2.66-.52,3.3,.73Z" style="fill:#473513;"/><path d="M174.05,94.33c.97,.3,.55,.6,1.63,1.29,.49,.31,1.4,.08,2.08,.45,.55,.3,1.11,.6,1.77,.92,.58,.27,.7,1.69,1.36,1.96,.6,.25,1.37,.23,2.04,.45,.62,.21,1.35,.21,2.03,.4,.64,.18,1.39-.06,2.07,.09s1.26,.52,1.95,.63,1.33,.21,2.02,.28,1.33,.64,2.02,.66,1.38-.02,2.07-.04c.73-.02,1.43-.63,2.14-.67s1.5,.61,2.2,.56,1.37-1.16,2.08-1.22,1.53,.71,2.23,.64c.74-.07,1.39-.84,2.09-.91,.74-.07,1.51,.35,2.21,.28,.75-.07,1.49,.14,2.17,.08,.76-.07,1.49,.22,2.17,.18,.79-.05,1.46-.33,2.11-.32,.84,0,1.65-.76,2.23-.62,.91,.21,2.02,.78,2.18,1.41,.15,.6-.07,1.91,.87,2.15,.6,.16,1.54-.49,2.38-.41,.67,.06,1.38,.76,2.16,.8,.7,.04,1.47-.56,2.23-.53,.71,.04,1.47-.23,2.22-.18,.72,.05,1.47,.1,2.21,.18s1.41,.58,2.14,.7,1.52-.06,2.24,.11,1.2,1.1,1.88,1.35,1.83-.48,2.48-.15c.79,.41,1.56,1.16,1.85,1.7,.35,.66,.08,1.76-.18,2.49-.23,.62-1.48,.58-2.04,1.15-.48,.49-.82,.96-1.48,1.36-.61,.36-.99,1.13-1.7,1.36s-1.38,.46-2.11,.52-1.35-.54-2.07-.68-1.59,1.06-2.33,1-1.38-.49-2.13-.51-1.44-.78-2.18-.77-1.42,1-2.15,1.02-1.46-.44-2.19-.42-1.45-.66-2.18-.66-1.46,1.19-2.19,1.17-1.38-1.32-2.11-1.37-1.52,.81-2.25,.72-1.33-.77-2.06-.91-1.47,.01-2.15-.05c-.72-.06-1.43,.24-2.11,.25s-1.39,.06-2.09,.14-1.48-.46-2.18-.34-1.45-.07-2.14,.07-1.36,.3-2.06,.44-1.24,.83-1.94,.96-1.32,.49-2.03,.6c-.67,.1-1.32,.66-2.04,.74-.68,.08-1.45-.71-2.18-.66-.68,.04-1.36,.39-2.08,.41-.68,.01-1.36-.67-2.09-.69s-1.42,.61-2.14,.6-1.4-.26-2.12-.26c-.7,0-1.41-.11-2.12-.11s-1.41,1.08-2.12,1.09-1.42,.01-2.12,.01-1.42-.33-2.12-.34-1.41-1.2-2.1-1.21-1.47,1.46-2.16,1.43-1.43-.42-2.11-.47c-.73-.05-1.43-.34-2.1-.41-.74-.08-1.5,.11-2.15,0-.75-.14-1.13-1.43-1.75-1.62-.76-.24-1.89,.59-2.4,.24-.66-.45-1.43-1.2-1.58-1.86-.14-.58,.68-1.48,.6-2.32-.06-.67-1.03-1.34-1.06-2.11-.03-.7,.84-1.45,.83-2.2s.41-1.43,.42-2.16-1.41-1.49-1.39-2.21,1-1.44,1.03-2.15c.03-.77-.67-1.53-.64-2.21,.04-.81,1.34-1.47,1.38-2.1,.08-1.33-1.68-2.1-.61-2.31s.96,1.08,2.05,1.27,1.1,.14,2.18,.33,1.32-1.07,2.4-.87,.85,1.52,1.94,1.72,1.13-.04,2.22,.15,1.3-.94,2.38-.75,.98,.75,2.09,.85c1.12,.11,1.15,.07,2.21,.4Z" style="fill:#473513;"/><path d="M178.1,175.59c0-.79,.22-2.17,1.08-2.92,.6-.52,1.7-.82,2.63-1.31,.75-.4,2.1,.33,3.02-.04,.81-.33,1.09-2.27,2-2.58,.85-.28,2.14,.71,3.05,.45s1.77-.41,2.68-.63,1.86-.06,2.76-.25,1.64-1.22,2.55-1.38,1.86-.2,2.76-.33,1.91,.22,2.8,.12c.96-.1,1.81-1.01,2.68-1.06,1-.06,1.93,.66,2.77,.67,.79,.01,1.71,.41,2.77,.43,.85,.01,1.81-1.55,2.8-1.54,.88,.01,1.8,.37,2.77,.37,.89,0,1.82,1.28,2.78,1.28,.9,0,1.83-.74,2.78-.76s1.85,.13,2.78,.11,1.85-.16,2.78-.2,1.8-1.22,2.72-1.27,1.93,1.19,2.85,1.12,1.91,.3,2.82,.22c.94-.08,1.9-.03,2.81-.13s1.85-.53,2.75-.66c.94-.14,1.89-.26,2.78-.43,.95-.18,1.87-.5,2.73-.71,.95-.23,1.37-2.03,2.2-2.31,.95-.32,2.07,.16,2.82-.23,.92-.48,2.4-.26,2.96-.86,.53-.56,.73-1.57,1.52-2.23,.64-.53,1.59-.75,2.37-1.32,.69-.51,.52-2.33,1.3-2.85,.73-.49,2.13,0,2.92-.5s1.46-1.04,2.25-1.49,1.16-1.65,1.96-2.07,2.42,.8,3.23,.41,.89-2.42,1.71-2.77,2.32,.94,3.15,.64c.88-.32,1.34-1.71,2.18-1.95,.91-.26,1.92,.13,2.76-.01,.95-.16,1.78-.06,2.61-.05,.99,0,1.92-.57,2.69-.29,.88,.33,1.31,1.12,1.83,1.87,.46,.66,.07,1.42,.19,2.46,.1,.81,1.55,1.55,1.64,2.49,.08,.84,.27,1.72,.34,2.65,.06,.85,.55,1.72,.6,2.64,.05,.86-1.63,1.84-1.59,2.74s.26,1.74,.28,2.64,1.56,1.74,1.57,2.64,.05,1.79,.04,2.68-.8,1.77-.83,2.65-.51,1.75-.56,2.64,.16,1.79,.09,2.67,.31,1.83,.21,2.7,.25,1.87,.12,2.73-2.38,1.39-2.55,2.24c-.18,.89,1.39,2.16,1.17,2.99-.23,.89-2.1,1.23-2.38,2.04-.31,.87,1.06,2.4,.7,3.16-.41,.84-2.43,.66-2.92,1.34-.55,.76,.32,2.82-.33,3.34s-2.63-.71-3.43-.2c-.71,.46-.64,2.29-1.46,2.74-.76,.41-2.28-.65-3.11-.25-.79,.37-1.41,1.05-2.25,1.41s-1.25,1.6-2.1,1.92-1.59,.87-2.44,1.15-1.56,1.11-2.41,1.35-1.92-.15-2.78,.07-2.04-.94-2.9-.77-1.6,1.13-2.47,1.26-1.75,.68-2.61,.75c-.92,.08-1.85-1.25-2.7-1.25-.94,0-1.77,.6-2.61,.51-.95-.1-1.67-.52-2.46-.76-.92-.28-2.44,.74-3.11,.27s-1.08-1.35-1.99-1.78c-.76-.36-1.55-.78-2.45-1.12-.81-.3-1.91,.2-2.81-.09-.84-.26-1.31-1.82-2.21-2.06s-1.87,.08-2.77-.14-1.55-1.31-2.45-1.51-2.05,.97-2.94,.79c-.89-.18-1.83-.02-2.72-.18s-1.76-.46-2.64-.6-1.72-.86-2.59-.99c-.93-.13-1.87,.07-2.73-.04-.95-.12-1.87,.1-2.72,.01-.98-.1-1.88-.06-2.69-.12-1.08-.08-1.91-1.53-2.62-1.54s-1.61,.83-2.67,.82c-.8-.01-1.66-1.06-2.62-1.11-.84-.04-1.69-.18-2.62-.26-.85-.08-1.91,1.23-2.81,1.1s-1.47-1.79-2.35-1.97-2.02,.83-2.88,.58-1.4-1.4-2.22-1.73-1.9-.08-2.69-.5-.93-1.81-1.66-2.32-1.39-.9-2.04-1.51-1.21-1.12-1.76-1.83-2.51-.5-2.94-1.3c-.41-.76,.73-2.27,.43-3.14-.28-.8-.93-1.49-1.11-2.4-.17-.83-1.41-1.59-1.49-2.52-.07-.85,.62-1.82,.63-2.75Z" style="fill:#d28728;"/><path d="M212.4,137.01c-.57-.96-1.25-1.49-.38-2.07,.34-.22,1.04-.02,2.23,.12,.59,.07,1.31,.12,2.2,.33,.64,.15,1.42,.09,2.23,.33,.65,.19,1.26,.74,2.04,1,.82,.27,1.8-.3,2.57-.15,.85,.17,1.58,.38,2.36,.42,.86,.04,1.65,.48,2.44,.41,.85-.08,1.73,.07,2.5-.11,.83-.19,1.42-1.08,2.18-1.34,.81-.28,1.72-.19,2.45-.49,.8-.33,1.54-.73,2.26-1.01,.83-.33,1.52-1.1,2.25-1.25,.87-.18,1.86,.13,2.62,.4,.69,.24,.99,1.14,1.6,1.9,.49,.59,1.14,1.12,1.67,1.79,.48,.62,1.35,1,1.85,1.67s.44,1.68,.91,2.36,1.21,1.15,1.65,1.84,1.11,1.26,1.51,1.97,.69,1.52,1.03,2.25,.77,1.5,1.04,2.24c.29,.8,.49,1.63,.66,2.39,.18,.84-.51,1.7-.52,2.47,0,.85,.1,1.54-.18,2.28s-.2,1.97-.96,2.43c-.63,.38-1.58,.65-2.45,.87-.73,.19-1.6,.39-2.46,.5-.77,.1-1.66-.32-2.5-.27-.79,.05-1.61,.34-2.44,.35s-1.63-.06-2.46-.06-1.63-.59-2.45-.6c-.82,0-1.65,.79-2.46,.79-.83,0-1.66-.89-2.45-.88-.85,.01-1.65,.65-2.43,.69-.87,.05-1.76-.54-2.51-.44-.9,.12-1.45,1.3-2.13,1.53s-1.73-.38-2.63-.25c-.76,.11-1.54,.93-2.41,.98-.79,.04-1.65-.29-2.5-.31s-1.63-.31-2.46-.38-1.6-.46-2.42-.57-1.79,.65-2.59,.5-1.56-.79-2.34-.99c-.83-.22-1.61-.53-2.35-.8-.84-.31-1.81-.27-2.47-.64-.82-.46-1.59-1.08-2.05-1.62-.59-.7-.78-1.78-.59-2.61,.17-.73,.5-1.46,.32-2.26-.16-.7-.48-1.43-.84-2.17-.32-.66-.82-1.28-1.24-1.96-.4-.64-.55-1.47-.99-2.12s-1.33-.98-1.76-1.62-.8-1.36-1.19-2c-.41-.69-.4-1.58-.7-2.24-.34-.75-1.24-1.33-1.35-2.04-.13-.8,0-1.78,.26-2.49,.29-.78,1.12-1.25,1.66-1.75s1.02-1.44,1.78-1.7c.68-.23,1.62,.28,2.45,.25,.72-.03,1.53-.41,2.34-.3,.73,.1,1.41,.68,2.19,.88,.72,.19,1.55,.1,2.31,.37,.71,.25,1.44,.52,2.17,.84s1.56,.33,2.26,.69,1.04,1.26,1.71,1.65Z" style="fill:#d28728;"/><path d="M199.39,215.07c17.44-.61,29.14-.53,39.14,0,10,.53,19.08,2.65,19.08-8.63s-42.35,3.33-47.28,0-24.49-6.98-24.92-1.75-3.38,10.99,13.98,10.38Z" style="fill:#d28728;"/><path d="M223.02,122.94c.61-.06,1.2-.64,1.85-.68,.61-.04,1.26,.05,1.9,.03s1.26,.2,1.9,.2,1.26-.37,1.9-.36,1.25,.53,1.89,.54,1.24,.43,1.88,.46,1.28-.49,1.92-.46,1.23,.6,1.87,.64c.53,.03,1.21-.95,1.91-.91,.57,.03,1.16,.66,1.82,.7,.59,.03,1.22-.02,1.86,.02,.6,.04,1.22,.08,1.86,.12s1.25-.13,1.87-.08,1.2,.63,1.82,.68,1.31-.7,1.92-.65,1.23,.41,1.84,.46,1.25,.23,1.85,.28c.64,.06,1.25,.26,1.84,.32,.66,.07,1.33-.19,1.9-.11,.7,.1,1.27,.49,1.8,.59,.94,.18,1.84,.1,2.02,.3,.28,.31-.36,1.02-.88,1.81-.29,.44-.21,1.36-.79,1.84-.43,.36-1.11,.56-1.73,.92-.51,.29-1.08,.58-1.72,.85-.55,.23-1.14,.51-1.79,.7-.57,.18-1.3-.09-1.95,.05-.59,.13-1.18,.38-1.84,.48-.6,.09-1.19,.53-1.85,.59-.61,.06-1.28-.44-1.94-.41-.61,.02-1.24,.67-1.9,.67-.62,0-1.26-.21-1.92-.23s-1.27-.06-1.91-.08-1.28-.02-1.91-.02-1.29-.47-1.92-.46-1.28,.24-1.91,.26-1.29,.01-1.92,.05-1.28,.09-1.91,.13-1.3-.04-1.92,.01-1.22,.84-1.84,.9-1.33-.35-1.95-.29c-.65,.07-1.27,.34-1.88,.41-.66,.07-1.32-.05-1.93,.02-.67,.08-1.25,.6-1.85,.67-.69,.08-1.39-.46-1.97-.4-.74,.08-1.33,.74-1.85,.78-1.24,.08-1.87-.36-1.65-.71,.17-.27-.35-.79-1.2-1.37-.46-.31-.96-.74-1.53-1.11-.52-.34-1.31-.34-1.81-.71-.54-.4-.88-1.02-1.27-1.45-.49-.55-.28-1.12-.28-1.68,0-.52-.2-1,.49-1.5,.41-.29,.92-.65,1.64-.92,.51-.2,1.22,.03,1.91-.15,.55-.15,1.09-.51,1.77-.65,.57-.11,1.22,.04,1.89-.07,.59-.09,1.2-.19,1.86-.28,.59-.08,1.22-.1,1.87-.17,.6-.07,1.19-.48,1.84-.54Z" style="fill:#473513;"/><path d="M230.54,132.48c.59-.35,1.55,.01,2.14-.26s1.3-.29,1.92-.5,1.15-.78,1.78-.93,1.24-.78,1.89-.87,1.4,.42,2.06,.39,1.34-.43,2-.41,1.35,.09,2.01,.15,1.39-.15,2.04-.06,1.12,1.38,1.77,1.51,1.47-.46,2.1-.32c.67,.15,1.37,.11,1.99,.26,.68,.16,1.26,.57,1.88,.71,.69,.15,1.24,.89,1.86,.99,.71,.11,1.46-.19,2.06-.19s1.29,.34,1.99,.26c.6-.07,1.19-.63,1.86-.75,.61-.11,1.12-.82,1.77-.96s1.2-.42,1.84-.56,1.29-.11,1.91-.26,1.51,.76,2.13,.61,.98-1.48,1.59-1.62c.65-.15,1.44,.41,2.05,.27,.66-.15,1.26-.45,1.85-.56,.7-.13,1.35-.1,1.92-.16,.81-.09,1.35,.16,1.8,.28,.49,.12,1.29-.44,2.04-.3,.58,.11,1.24,.13,1.91,.25,.62,.11,1.29,.12,1.93,.25s1.11,1.04,1.73,1.18c.65,.15,1.26,.35,1.84,.52,.68,.21,1.17,.6,1.68,.84,.78,.36,1.15,.4,1.27,.86,.14,.51,.42,1.25,.74,2,.26,.6,.49,1.22,.7,1.9s.71,1.22,.72,1.9,.48,1.64,.12,2.27c-.3,.53-.97,1.19-1.64,1.63-.52,.35-1.29,.52-1.94,.78-.59,.23-1.36,.05-2.04,.23-.62,.16-1.22,.56-1.9,.68-.64,.12-1.3,.24-1.98,.33s-1.26,.58-1.94,.66-1.37-.28-2.04-.21-1.28,.55-1.95,.62-1.41-.6-2.07-.52-1.28,.53-1.94,.62-1.43-.44-2.08-.33c-.6,.11-1.13,1.22-1.83,1.28-.62,.06-1.35-1.02-2.04-.99-.63,.02-1.27,.79-1.96,.79-.64,0-1.28-.74-1.96-.76-.64-.02-1.33,.66-2,.62s-1.3-.11-1.97-.16-1.28-.38-1.94-.45-1.32,.02-1.98-.06-1.27-.39-1.93-.48-1.33-.01-1.98-.12-1.24-.58-1.89-.69-1.24-.54-1.88-.66-1.31-.12-1.96-.25-1.44,.43-2.08,.28-1.22-.59-1.86-.75-1.31-.2-1.95-.37-1.25-.46-1.88-.63c-.69-.19-1.5,.14-2.1-.06-.69-.22-1.24-.73-1.83-.96-.68-.27-1.32-.52-1.87-.8-.67-.33-1.16-.85-1.66-1.18-.65-.43-1.55-.51-1.94-.94-.54-.6-.28-1.58-.38-2.14-.13-.69,.38-.96,.78-1.54,.35-.51,.06-1.8,.7-2.17Z" style="fill:#473513;"/><path d="M228.35,184.89c3.14,.07,6.06,2.36,9.71,2.92s11.46-1.46,11.46-1.46l1.32-6.49s-11.89,1.14-12.78-1.99c-.89-3.12-12.38-10.04-12.38-10.04,0,0-4.27,14.62-4.34,15.31s7,1.75,7,1.75Z" style="fill:#d28728;"/><path d="M212.19,154.29c1.04,0,1.99,.31,2.78,.5,1,.24,1.82,.54,2.52,1.01,.8,.54,1.4,1.2,1.94,1.91s1.15,1.46,1.61,2.24,.82,1.71,1.37,2.41,1.41,1.1,2.26,1.52c.73,.35,1.52,.65,2.6,.64s2.05,.23,2.89,.52c.98,.34,1.84,.8,2.56,1.42s1.19,1.53,1.78,2.33,1,1.68,1.54,2.49,1.5,1.35,2.13,2.07,1.2,1.58,2.06,2.07c.92,.52,1.83,.98,2.53,1.55,.91,.73,1.85,1.37,2.25,2.06,.59,1.03,.09,1.83-.98,2.41-.61,.33-1.4,1.02-2.73,1.09-.9,.05-1.89-.24-2.91-.26-.94-.02-1.93,.12-2.91,.06s-1.94-.26-2.89-.35c-1.01-.09-2-.03-2.92-.14-1.07-.13-2.07-.13-2.91-.26-1.62-.25-2.78-.58-2.91-.69-.15-.12-1.12,.5-2.67,.96-.9,.27-2.03,.03-3.05,.17s-2.02,.21-2.91-.02c-.98-.25-2.09-.52-2.53-1.56-.25-.58-.47-1.52-.62-2.6-.11-.77-.16-1.67-.22-2.61-.06-.82-.04-1.71-.07-2.61-.03-.84,.34-1.73,.33-2.61s-.13-1.73-.13-2.61-.35-1.76-.33-2.61,.57-1.76,.6-2.6c.02-.92-.57-1.82-.54-2.63,.03-.97,.29-1.85,.32-2.6,.07-1.61-.81-1.8,.15-2.68Z" style="fill:#473513;"/><path d="M209.81,204.77c.43-1.12,.44-.92,1.36-1.96,.46-.52,1.06-1.02,1.85-1.45,.63-.34,1.28-.94,2.16-1.1,.71-.13,1.54,.01,2.43,.06,.94,.05,1.84,.11,2.58-.17,.81-.3,1.33-1.09,1.98-1.65s1.2-1.16,1.74-1.84,1.08-1.35,1.6-2.01c.55-.7,1.24-1.26,1.85-1.8,.66-.59,1.41-.94,2.24-1.15,1.35-.35,2.06-.18,2.49,.44s.32,1.5,.31,2.65c0,.84,0,1.78-.04,2.77-.03,.9,.09,1.85,.16,2.79s.14,1.92-.15,2.74-.81,1.69-1.41,2.39-1.46,1.08-2.23,1.59-1.53,.96-2.39,1.28c-.86,.32-1.73,.63-2.61,.76-.73,.11-1.69,0-2.74,.13-.84,.1-1.75,.31-2.7,.42-.89,.1-1.8,.34-2.71,.44s-1.86,.13-2.73,.22c-1,.1-1.91,.35-2.71,.43-1.63,.15-2.64,1.46-2.58,.09,.08-1.62,.31-1.57,.9-3.09s.72-1.46,1.31-2.98Z" style="fill:#473513;"/><path d="M218.98,150.95c-.15-1.03,.61-1.49,1.1-2.14s.63-1.72,1.59-2.06c.74-.26,1.75,.34,2.72,.23,.81-.09,1.63-1.09,2.56-1.09,.84,0,1.73,.31,2.64,.36,.85,.05,1.79-.44,2.69-.35s1.59,1.34,2.48,1.47,1.73,.21,2.6,.35,1.68,.56,2.54,.72c.87,.16,2-1.04,2.85-.87s1.64,.91,2.48,1.08c.89,.19,1.85-.05,2.67,.12,.91,.2,1.63,1.05,2.43,1.22,.96,.21,2-.44,2.75-.28,1.2,.25,1.94,1.05,2.44,1.08,.58,.04,1.43,.69,2.6,.87,.78,.12,1.83-.68,2.8-.53,.83,.13,1.61,1.06,2.54,1.2,.86,.13,1.7,.69,2.61,.82s1.85-.32,2.75-.22,1.78,.38,2.67,.46,1.87-.84,2.75-.8c.93,.05,1.8,.92,2.66,.92,.96,0,1.91,.23,2.74,.14,1.01-.12,1.84-.76,2.56-1.03,1.01-.39,1.56-.96,1.81-1.74s1.19-1.25,1.91-1.98c.6-.6,1.24-1.2,2.05-1.74,.74-.5,1.17-1.6,2-2.05s1.98-.17,2.82-.54,1.53-1.25,2.35-1.57c.95-.37,1.92-.47,2.68-.73,1.58-.54,1.74-1.85,2.72-.89s-.99,1.06-1.34,2.77c-.17,.82,.29,1.92,.07,2.96-.19,.9,.42,2.03,.21,3s-1.29,1.69-1.51,2.63-1.13,1.73-1.37,2.62c-.26,1.01,.31,2.18,.05,3-.38,1.23-.14,2.6-.46,3.09-.34,.52-1.92-.27-3.18-.23-.77,.02-1.65,.41-2.66,.32-.83-.08-1.84,.73-2.78,.61-.86-.11-1.73-.46-2.64-.58s-1.7-.79-2.6-.9-1.82,.03-2.7-.05c-.93-.08-1.81-.47-2.66-.49-.96-.02-1.83,.48-2.65,.57-1.02,.11-1.94-.06-2.62,.3-.72,.38-1.54,.9-2.52,1.1-.83,.16-1.79-.16-2.76-.1-.87,.06-1.76-.39-2.7-.39-.89,0-1.77-.01-2.69-.05s-1.83,.48-2.74,.42-1.85,.33-2.75,.27-1.8-1.01-2.67-1.05c-.96-.04-1.89,.51-2.74,.51-1.01,0-1.84,.55-2.63,.65-.7,.09-1.68-1.14-2.75-1.15-.81,0-1.7,.38-2.67,.3-.85-.06-1.68-.57-2.61-.69-.86-.11-1.95,1.08-2.85,.92s-1.77-.41-2.65-.6-1.83-.24-2.69-.48-1.56-1.15-2.4-1.44-1.69-.68-2.49-1.04c-.85-.37-1.83-.49-2.57-.93-.81-.48-1.38-1.28-2.03-1.83-.72-.61-1.35-1.27-1.81-1.98-.5-.77-.89-1.6-1.02-2.48Z" style="fill:#473513;"/><path d="M249.42,110.44c-.25-1.19,.68-1.73,1.28-2.23,.56-.47,1.16-.87,2.27-.89,.79-.01,1.76-.52,2.75-.37,.83,.12,1.75,.31,2.67,.51,.85,.18,1.62,.86,2.52,1.08s1.62,.87,2.5,1.1,1.92-.24,2.79-.03,1.76,.46,2.61,.64c.93,.19,1.76,.71,2.59,.82,.99,.13,1.91-.1,2.71-.13,1.08-.04,1.84-.29,2.42-.75s1.65-.48,2.54-.93c.73-.37,1.24-1.43,2.12-1.78,.79-.32,1.85-.05,2.72-.35,.82-.28,1.71-.39,2.58-.65s1.64-.69,2.5-.92,1.76-.31,2.62-.52,1.68-.7,2.53-.89c.9-.2,1.71-.7,2.55-.87,.93-.18,1.79-.52,2.6-.65,1.01-.17,1.96,0,2.69-.08,1.3-.15,1.52,.78,.8,1.93-.37,.58-1.38,.91-2.12,1.69-.55,.59-.59,1.83-1.3,2.49-.62,.57-1.68,.74-2.39,1.33-.67,.56-1.08,1.48-1.8,2.03s-1.56,.89-2.29,1.41-1.44,1.09-2.18,1.57-1.47,1.11-2.22,1.53c-.82,.46-1.7,.76-2.46,1.1-.9,.41-1.73,.93-2.49,1.12s-1.86-.23-2.9,.05c-.84,.22-1.67,.8-2.64,1.04-.87,.21-1.73,.73-2.69,.93-.9,.19-1.95-.31-2.9-.15s-1.85,.12-2.79,.22-1.81,.83-2.75,.87-1.92,.34-2.85,.3c-.95-.05-1.9-.4-2.82-.55s-1.94-.25-2.81-.55-1.53-1.22-2.34-1.68-1.35-1.17-2.04-1.83-1.19-1.26-1.72-2.08c-.48-.75-.91-1.48-1.27-2.41-.32-.83-1.38-1.49-1.59-2.47Z" style="fill:#473513;"/></g></g><path d="M215.67,222.41c-.49,0-.99-.19-1.36-.57-.73-.75-.72-1.95,.03-2.69,2.77-2.7,5.39-6.38,9.17-15.52,1.67-4.02,10.19-25.36,14.41-50.54,3.32-19.77,3.63-41.07,3.8-52.52l.04-2.33c.01-.63,.06-1.4,.11-2.29,.16-2.56,.38-6.07-.1-10.22-.12-1.04,.63-1.99,1.67-2.11,1.05-.13,1.99,.63,2.11,1.67,.52,4.48,.28,8.34,.12,10.89-.05,.82-.1,1.54-.11,2.12l-.04,2.33c-.17,11.55-.49,33.04-3.85,53.09-4.29,25.59-12.96,47.28-14.65,51.37-4.04,9.74-6.93,13.75-10.03,16.78-.37,.36-.85,.54-1.33,.54Zm-3.13-41.22c4.78-10.52,8.19-26.72,12.14-49.46,2.38-13.68,2.53-25.71,2.64-35.37,.17-14.22,.51-21.7,5.72-23,1.36-.34,2.64,.21,3.47,.74,1.86,1.18,3.39,3.4,3.81,5.53,.21,1.03,1.21,1.7,2.23,1.49,1.03-.21,1.7-1.21,1.49-2.23-.62-3.13-2.79-6.27-5.51-7.99-2.09-1.32-4.31-1.74-6.42-1.21-8.3,2.07-8.42,11.85-8.6,26.65-.12,9.53-.26,21.39-2.59,34.77-3.9,22.44-7.25,38.39-11.86,48.54-.43,.96-.01,2.08,.94,2.52,.25,.12,.52,.17,.79,.17,.72,0,1.41-.41,1.73-1.11Z"/></g><g><path d="M199.61,174.1c-13.5-15.71-28.95-24.42-42-26-11.3-1.72-28-8-33-11-2.87-1.72-7.59-5.96-10.98-9.13-.08-.44-.13-.89-.13-1.35,0-6.97,3.97-7.2,4.09-16.56,.1-7.35-.44-13.94-6.43-21.47,1-3.57,6.85-25.14,2.85-27.49-3.77-2.22-18.98,9.88-23.01,13.18-4.66-1.23-9.18-1.18-14.21-1.18h-.72c-5.33,0-10.18-.08-15.23,1.37-3.64-2.99-19.39-15.63-23.24-13.37-4.36,2.56,3,28,3,28,0,0,.65-.49,1.68-1.24-6.85,9.3-7.17,19.81-4.33,26.97,3.44,8.66,11.81,18.37,14.51,21.99-.96,5.06-6.6,35.86-3.86,48.27,2.98,13.54,4.91,19.17,13.56,34,7.91,13.55,3.65,23.54,3.65,23.54,0,0-3.78,5.58-1.76,10.48,2.01,4.9,5.77,5.62,11.5,4.7,5.16-.83,12.28-3.72,12.28-3.72,0,0,3.17,6.54,13.78,5,7.56-1.1,9.87-5.79,10-11,.03-1.28-1.7-7.5-2-10,.29,.45,20.29,5.79,30.31,6,1.47,.03-1.8,9.19,.93,11.46,2.73,2.26,1.58,3.17,8.73,2.93,7.16-.24,21.79,3.72,28.58,.91,6.79-2.81,30.3-10.13,34.34-26.3,4.65-18.59,7.74-34.99-12.9-59Z" style="fill:#d1a67b;"/><g style="clip-path:url(#clippath-1);"><g><g><g><path d="M181.38,165.77c-.37,.41-1.1,.85-1.8,1.6-.48,.52-.47,1.63-1.07,2.27-.51,.54-1.5,.72-2.08,1.32-.53,.55-1.25,.96-1.82,1.55-.54,.56-1.53,.7-2.1,1.28s-1.19,1.04-1.76,1.61-.19,2.08-.76,2.64-1.08,1.2-1.66,1.74-1.84,.39-2.42,.92c-.61,.55-.6,1.78-1.18,2.28-.63,.55-1.36,.97-1.94,1.44-.68,.55-1.95,.19-2.54,.59-.79,.55-1.37,.94-1.94,1.17-.6,.24-.89,1.61-1.77,2.04-.66,.33-1.31,.82-2.09,1.24-.68,.37-1.62,.35-2.36,.78-.69,.39-1.54,.55-2.26,.99-.69,.41-1.74,.28-2.45,.72s-1,1.49-1.68,1.94-1.09,1.32-1.76,1.78-1.55,.66-2.2,1.13-1.74,.47-2.37,.97c-.67,.53-1.08,1.36-1.66,1.87-.66,.59-1.02,1.4-1.53,1.95-.64,.69-.89,1.43-1.23,2.02-.31,.55-1.72,.31-2.57,.86-.61,.4-1.09,1.09-1.91,1.48-.69,.32-1.13,1.44-1.94,1.74-.73,.28-1.8-.26-2.61,0-.76,.24-1.52,.54-2.33,.76s-1.48,.79-2.29,.98-1.56,.6-2.37,.75-1.62,.42-2.43,.54-1.79-.92-2.59-.84-1.58,1.02-2.37,1.07c-.85,.05-1.69-.21-2.48-.22-.87-.01-1.77,.68-2.54,.6-.89-.1-1.76-.54-2.47-.75-.9-.27-2.04-.52-2.56-.99-.63-.57-.65-1.9-.6-2.79,.03-.73,.06-1.54,.18-2.36,.11-.74,.73-1.42,.92-2.21,.17-.73-.07-1.62,.17-2.38,.23-.72,1.4-1.11,1.71-1.85s-.43-1.89-.07-2.6,1.25-1.09,1.67-1.76,.15-1.8,.62-2.44,1.71-.64,2.23-1.23,1-1.16,1.58-1.7,.96-1.25,1.58-1.74,.86-1.51,1.53-1.95,1.6-.43,2.3-.81,1.75,.09,2.48-.23,.98-1.73,1.74-1.99,1.54-.38,2.32-.58,1.7,.47,2.48,.32,1.64-.03,2.37-.21c.79-.19,1.39-1.03,2.11-1.24,.78-.23,1.37-.88,2.08-1.14,.77-.28,1.57-.3,2.25-.61,.74-.33,1.22-1.05,1.88-1.41,.71-.39,2.01,.24,2.63-.18,.67-.45,.53-1.93,1.11-2.41,.62-.51,1.96-.19,2.49-.74s.21-1.91,.69-2.5,1.97-.49,2.41-1.12-.32-2.06,.08-2.72,1.44-.95,1.82-1.63,.51-1.5,.9-2.18,.55-1.5,.96-2.17c.38-.61,1.04-1.11,1.42-1.89,.33-.67,1.37-1.08,1.7-1.85,.3-.7-.34-1.83-.04-2.6,.28-.72,1.8-1,2.09-1.76s.03-1.68,.31-2.44,1.11-1.28,1.39-2.03,.5-1.51,.79-2.26,.08-1.68,.37-2.42,1.09-1.28,1.4-2,.5-1.52,.84-2.22c.36-.75,.6-1.48,.97-2.16,.4-.74,.03-1.9,.46-2.52,.48-.71,1.88-.57,2.39-1.1,.61-.63,.36-2.29,1.01-2.61,.74-.37,1.88-.22,2.68-.09,.68,.11,1.13,1.27,1.96,1.66,.67,.31,1.98-.41,2.71,.05,.64,.4,1.25,1.02,1.92,1.53,.61,.47,.43,1.94,1.05,2.49,.58,.52,2.01,.17,2.58,.75s1.33,.99,1.87,1.6,.26,1.88,.75,2.52,1.66,.79,2.11,1.45-.18,2,.22,2.69,1.34,1.09,1.68,1.81,.77,1.43,1.04,2.18,.16,1.63,.35,2.4,1.28,1.45,1.36,2.24-.75,1.67-.79,2.47-.75,1.43-.93,2.22,1.08,2.02,.76,2.77-1.39,1.13-1.84,1.83c-.42,.65-.74,1.44-1.3,2.06Z" style="fill:#d28728;"/><path d="M146.61,129.68c-.56,1.08-.97,.32-2.36,.82-.66,.24-1.46,.39-2.25,.83-.65,.37-1.82,.19-2.5,.73-.6,.48-.4,1.9-.97,2.53-.51,.57-.84,1.23-1.31,1.95-.42,.65-1.7,.84-2.06,1.62-.32,.7-.37,1.58-.63,2.4s-.28,1.71-.5,2.47c-.24,.85-.39,1.67-.59,2.44-.23,.85-.17,1.74-.39,2.5-.24,.84-.84,1.54-1.12,2.3-.3,.8-1.14,1.29-1.54,2.02s-.2,1.81-.75,2.49c-.49,.61-1.36,.95-2.03,1.55-.57,.52-1.15,1.12-1.88,1.65-.63,.45-1.31,.94-2.07,1.41-.67,.41-1.27,1.05-2.05,1.48-.73,.4-1.79,.24-2.48,.67s-.91,1.63-1.58,2.1-1.26,1.05-1.92,1.54-1.73,.47-2.37,.98-1.44,.87-2.07,1.39-1.45,.87-2.07,1.39-1.14,1.24-1.77,1.74-.89,1.58-1.53,2.07-1.26,1.16-1.93,1.61c-.71,.47-1.78,.34-2.48,.72-.75,.41-1.39,.99-2.14,1.27s-1.65,.25-2.45,.4c-.81,.14-1.59,.05-2.42,0-.77-.04-1.54-.29-2.37-.36-.78-.07-1.56-.18-2.37-.29s-1.7,.47-2.49,.33-1.64-.17-2.41-.36-1.52-.67-2.26-.91c-.81-.26-1.73-.18-2.42-.49-.8-.36-1.07-1.52-1.65-1.95-.74-.55-1.81-.71-2.06-1.38-.26-.7,.19-1.53,.63-2.37,.31-.58,.94-.99,1.66-1.65,.62-.57,1.15-1.22,1.59-1.81,.49-.67,.37-1.64,.67-2.32,.33-.74,1.38-1.22,1.57-1.96,.2-.78,.37-1.6,.49-2.35,.14-.8-.89-1.79-.74-2.53,.17-.8,.71-1.55,1.03-2.23s.73-1.57,1.38-2.08c.54-.43,1.66,.02,2.51-.26,.65-.21,1.29-.67,2.17-.78,.8-.1,1.68,.03,2.43-.18s1.16-1.47,1.89-1.77,1.92,.33,2.61-.06,1.1-1.27,1.76-1.71,1.68-.42,2.3-.9,1.07-1.24,1.67-1.74,.95-1.36,1.54-1.86,.9-1.44,1.49-1.93c.63-.53,1.44-.84,2.05-1.28,.67-.49,1.74-.28,2.4-.63,.74-.39,1.17-1.67,1.9-1.81,.85-.17,2.05,.49,2.67-.06,.59-.52,.46-1.75,.9-2.51,.4-.68,1.62-1.04,1.94-1.85,.29-.75,.5-1.61,.75-2.42s.54-1.59,.78-2.38-.56-1.95-.3-2.71c.28-.84,1.57-1.21,1.91-1.9,.4-.83,.33-1.78,.87-2.29s1.16-1.22,2-1.59c.72-.32,1.55-.69,2.4-.9,.79-.2,1.64-.51,2.49-.62s1.76,.75,2.59,.71,1.7-.68,2.51-.65c.91,.04,1.75,.32,2.5,.44,1.03,.16,1.54,1.01,2.08,1.3,.49,.27,1.59,.03,2.24,.69,.49,.5,.91,1.18,1.43,1.8,.48,.57,1.33,.89,1.8,1.5s.73,1.41,1.17,2c.49,.67,.45,1.66,.84,2.21,.79,1.11,2.2,.73,1.68,1.74Z" style="fill:#d28728;"/><path d="M52.22,153.09c1.13,.21,.3,1.31,1.45,2.24,.49,.4,1.58,.32,2.19,.96,.47,.5,.88,1.18,1.39,1.85,.43,.56,1.2,.98,1.64,1.68,.38,.6-.26,1.85,.12,2.57,.34,.64,1.49,.9,1.82,1.63,.35,.77,1.01,1.43,1.27,2.16,.28,.8,.19,1.72,.39,2.48,.21,.82-.28,1.75-.14,2.52,.14,.84,.08,1.65,.17,2.42,.1,.85,1.07,1.55,1.16,2.32,.1,.85,.53,1.57,.68,2.33,.17,.83,.38,1.46,.7,2.18s.38,1.46,.97,2.08c.53,.56,1.02,1.16,1.59,1.7s.72,1.51,1.29,2.04,1.12,1.07,1.68,1.62,1.51,.71,2.03,1.29,1.26,1.04,1.71,1.67-.02,1.82,.33,2.52,1.62,1.02,1.84,1.78c.2,.68-.27,1.62-.05,2.39,.2,.71,.43,1.44,.65,2.2s.49,1.45,.73,2.17,.1,1.62,.38,2.32,1.1,1.23,1.44,1.89c.37,.71,.3,1.72,.73,2.3,.48,.65,1.67,.61,2.25,1.04,.62,.47,1.07,1.35,1.82,1.5,.58,.11,1.37-.5,2.22-1.07,.56-.38,1.06-.99,1.69-1.61,.52-.51,1-1.11,1.54-1.75,.48-.57,.77-1.31,1.26-1.97,.45-.61,1.86-.6,2.3-1.27s-.32-2.03,.08-2.72,1.6-.88,1.97-1.58-.01-1.75,.32-2.46,.65-1.4,.94-2.13,1.53-1.12,1.78-1.85-.13-1.7,.06-2.45,0-1.59,.12-2.35c.13-.8,.72-1.5,.74-2.26,.03-.81-.69-1.51-.79-2.25-.11-.81,.65-1.77,.37-2.48s-.85-1.4-1.36-2-1.5-.49-2.2-.91-1.34-.95-1.99-1.37c-.7-.45-.72-1.82-1.34-2.27-.68-.49-2.05,0-2.64-.49-.65-.53-.53-1.87-1.08-2.39-.61-.58-1.19-1.06-1.68-1.63-.55-.65-.87-1.31-1.27-1.94-.45-.72-1.37-1.11-1.62-1.81-.29-.79,.33-1.65,.28-2.41-.06-.81-.86-1.58-.67-2.35s.09-1.75,.5-2.48c.35-.62,1.35-1.08,2.13-1.64,.61-.44,1.62-.36,2.42-.77,.69-.36,1.39-.78,2.19-1.13,.73-.32,1.2-1.34,1.99-1.66s1.84,.18,2.62-.13,1.3-1.21,2.07-1.52,1.56-.58,2.3-.9,1.76-.19,2.48-.55c.77-.38,1.27-1.21,1.95-1.62,.76-.46,1.58-.72,2.16-1.22,.68-.59,1.61-1.02,1.98-1.69,.41-.74-.27-1.71-.37-2.56-.09-.8-.1-1.44-.78-2-.54-.45-1.34-.49-2.2-.81-.69-.25-1.37-.62-2.22-.8-.74-.16-1.52-.22-2.36-.33-.76-.1-1.51-.72-2.34-.78-.78-.06-1.58-.42-2.4-.44s-1.61,.13-2.42,.13-1.6,.37-2.41,.39-1.62-.26-2.42-.23-1.57,1.02-2.37,1.06-1.69-1.3-2.49-1.25-1.58,.75-2.37,.81-1.66-.3-2.44-.24c-.83,.07-1.55,1.09-2.32,1.15-.84,.07-1.69-.4-2.45-.33-.87,.08-1.69-.03-2.42,.04-.94,.08-1.75,.04-2.4,.08-.73,.04-1.46,0-2.29-.08-.75-.07-1.55,.11-2.36-.03-.76-.14-1.71,.51-2.49,.33s-1.51-.51-2.27-.7-1.54-.36-2.3-.54-1.48-.67-2.23-.83c-.81-.17-1.58-.28-2.31-.37-.86-.12-1.58,.22-2.28,.26-.93,.05-1.48-.13-2.01,.3s-1.01,.83-1,1.82c0,.81,.25,1.64,.19,2.45s.16,1.66,.1,2.45c-.07,.84-.89,1.59-.92,2.36-.03,.87-.43,1.75-.34,2.49,.11,.88,.63,1.74,1.04,2.37s1.17,1.24,2.05,1.53c.64,.22,1.63-.49,2.58-.49Z" style="fill:#d28728;"/><path d="M52.26,142.56c-.21,.87,.02,1.69,.15,2.35,.15,.81,.43,1.55,.98,2.09,.51,.5,1.47,.28,2.24,.6,.66,.27,1.19,1.03,1.99,1.2,.72,.15,1.48,.42,2.27,.5,.75,.08,1.52,.44,2.3,.48s1.56,.24,2.33,.25,1.57-.81,2.32-.81c.8,0,1.58,.11,2.32,.12,.84,.01,1.6,.32,2.3,.37,.93,.07,1.97-.74,2.53-.54,.91,.32,1.15,1.62,.65,2.53-.41,.75-.88,1.36-1.28,1.9-.55,.75-.6,1.71-.97,2.16-.77,.91-1.7,1.27-.65,1.65,.46,.17,1.25,.3,2.27,.52,.62,.13,1.58-.83,2.45-.65,.71,.14,1.36,1.03,2.21,1.17,.75,.12,1.63-.45,2.46-.34,.77,.1,1.55,.14,2.36,.21s1.5,1.4,2.3,1.43,1.63-1.17,2.43-1.17,1.57-.07,2.36-.12,1.56-.1,2.34-.21c.82-.12,1.53-.29,2.28-.48,.8-.21,1.83,.4,2.53,.09,.76-.34,1.45-.83,2.06-1.3,.64-.5,.54-1.55,.97-2.22s.84-1.11,1.01-1.94c.15-.72,.65-1.43,.59-2.3-.06-.83-.78-1.62-.75-2.34,.03-.84,1.32-1.47,1.46-2.17,.17-.82-.13-1.66,.17-2.32,.34-.74,.45-1.64,.93-2.21s1.17-1.13,1.79-1.59,1.73-.09,2.42-.46,.81-1.84,1.53-2.16,1.67,.02,2.39-.29,1.47-.47,2.17-.8,1.17-1.05,1.85-1.44c.72-.41,1.77-.25,2.5-.68s1.59-.62,2.3-1.05,1.33-1.08,2.02-1.52c.74-.46,.85-1.82,1.51-2.27,.75-.51,2-.19,2.6-.66,.77-.61,1.35-1.29,1.79-1.8,.79-.92,1.08-2.18,.31-2.62-.33-.19-1.43,.18-2.6,.49-.65,.17-1.19,1.09-2.04,1.38-.69,.23-1.83-.61-2.62-.31-.7,.26-1.13,1.35-1.9,1.66-.71,.28-1.67,0-2.43,.31-.71,.29-1.11,1.4-1.85,1.72s-1.94-.55-2.67-.24-.94,1.8-1.67,2.12-1.44,.65-2.16,.96-1.49,.56-2.21,.87c-.73,.32-1.7,.08-2.42,.39-.74,.32-1.37,.85-2.09,1.16s-1.6,.32-2.31,.62c-.75,.32-1.28,1.1-1.99,1.4-.76,.32-1.77-.06-2.47,.22-.78,.32-1.56,.47-2.25,.73-.83,.32-1.36,1.16-2.01,1.38-1.02,.34-1.84,.15-2.32,.19-.84,.06-1.63,.63-2.44,.64-.84,0-1.63-.8-2.44-.84s-1.77,1.24-2.58,1.15-1.62-.59-2.43-.72-1.47-1.14-2.27-1.31-1.7,.04-2.49-.15c-.82-.2-1.69-.13-2.46-.34-.82-.22-1.42-1.13-2.19-1.35-.82-.23-1.97,.83-2.74,.62-.83-.23-1.51-.82-2.28-1.01-.84-.2-1.54-.91-2.31-1.02-.87-.13-1.72-.15-2.49-.13-.87,.02-1.5,.81-2.24,1.07-.77,.26-1.94-.18-2.58,.4-.56,.5-.87,1.4-1.33,2.19-.37,.64-1.22,1.23-1.52,2.08-.25,.71-.12,1.66-.32,2.53Z" style="fill:#473513;"/><path d="M62.41,140.14c.76,.43,1.53,.98,2.4,1.42,.81,.41,1.76,.59,2.61,1.01s1.65,.86,2.48,1.27,1.63,.96,2.42,1.38c.87,.46,1.74,.81,2.48,1.27,.88,.54,1.56,1.19,2.17,1.72,.88,.77,1.76,1.42,1.8,2.17s-.63,1.55-1.73,2.25c-.82,.52-1.79,.69-2.65,1.05s-1.72,.79-2.65,1-1.84,.66-2.8,.7-1.89-.27-2.86-.37c-.92-.09-1.88-.12-2.84-.33-.9-.2-1.71-.82-2.64-1.12-.88-.28-1.83-.4-2.74-.77-.86-.34-1.74-.7-2.62-1.11s-1.69-1.08-2.52-1.54c-.9-.49-1.97-.61-2.76-1.13-.86-.57-1.38-1.52-2.11-2.11-.8-.66-1.71-1.12-2.33-1.81-.7-.78-1.07-1.7-1.52-2.51-.5-.91-1.3-1.68-1.46-2.62s.45-1.92,.69-2.9c.27-1.1,.37-2.02,.97-2.59,.64-.61,1.51-.59,2.63-.59,.79,0,1.75-.29,2.82,.01,.81,.23,1.76,.43,2.74,.83,.8,.33,1.6,.89,2.53,1.34,.8,.38,1.68,.75,2.58,1.21,.8,.41,1.54,1.03,2.42,1.51,.79,.44,1.63,.88,2.5,1.37Z" style="fill:#473513;"/><path d="M181.54,132.6c-.1,.76-.31,1.58-.66,2.34-.31,.69-1.09,1.14-1.57,1.83-.44,.63-.69,1.42-1.25,2.04-.52,.58-1.26,.96-1.86,1.52s-.99,1.27-1.61,1.79-.92,1.42-1.56,1.91-1.72,.37-2.38,.83-.99,1.41-1.66,1.85-1.62,.48-2.29,.89c-.7,.44-1.48,.71-2.14,1.1-.73,.43-1.34,.97-1.99,1.35-.77,.45-1.18,1.37-1.79,1.72-.93,.53-1.94,.45-2.36,.73-.58,.39-1.39,.43-2.25,.77-.67,.27-1.13,1.42-1.98,1.67-.71,.22-1.67-.17-2.51,.05-.73,.19-1.53,.3-2.36,.51-.74,.19-1.56,.24-2.38,.44-.75,.18-1.49,.56-2.3,.76-.75,.19-1.58,.2-2.4,.4-.76,.19-1.3,1.31-2.11,1.52-.76,.19-1.82-.68-2.63-.47s-1.54,.44-2.29,.63-1.56,.38-2.31,.57-1.47,.72-2.23,.9-1.38,1.2-2.14,1.36-1.81-.8-2.57-.65c-.8,.16-1.5,.67-2.26,.8-.81,.14-1.63-.03-2.39,.08-.81,.11-1.58,.16-2.35,.23-.81,.08-1.56,.53-2.33,.56-.82,.03-1.62,.36-2.38,.34-.81-.03-1.5-1.09-2.26-1.19-1.34-.18-1.35,.18-.97-.59,.25-.51,0-1.81,.83-2.49,.56-.45,1.51-.63,2.29-1.13,.65-.41,1.15-1.23,1.92-1.66,.69-.38,1.65-.38,2.42-.76,.71-.36,1.36-.95,2.13-1.31s1.58-.5,2.35-.82,1.37-1.05,2.15-1.35,1.83,.17,2.61-.1,1.7-.1,2.49-.33,1.29-1.53,2.09-1.74,1.79,.28,2.59,.12,1.69,.14,2.38-.05c.81-.22,1.2-1.54,1.85-1.78,.81-.29,1.66-.16,2.26-.47,.79-.4,1.6-.58,2.11-1,.68-.56,.77-1.48,1.15-2.04,.47-.68,.71-1.38,1.07-2.01s1.4-.7,2.05-1.23c.5-.41,.95-.81,1.83-1.1,.74-.25,1.02-1.42,1.73-1.99,.61-.5,1.69-.56,2.26-1.24,.52-.62,.62-1.59,1.1-2.31s1.31-1.15,1.72-1.9,.55-1.62,.91-2.37,.72-1.54,1.03-2.29c.33-.81,.22-1.74,.48-2.5,.3-.88,1.61-1.37,1.8-2.1,.29-1.08,.3-2.1,.3-2.62,0-.6,.31-.26,1.64,.3,.64,.27,1.78-.13,2.61,.32,.67,.37,.78,1.87,1.53,2.32,.68,.41,1.84,.1,2.56,.55s1.13,1.29,1.83,1.75,1.32,1.01,2.01,1.46,1.35,1.01,2.01,1.45c.72,.49,1.57,.72,2.21,1.16,.76,.52,1.54,.88,2.12,1.29,1.25,.87,1.51,.28,2.08,1.38Z" style="fill:#473513;"/><path d="M27.89,159.73c.86,.27,.3,.82,1.26,1.43,.43,.27,1.2,.16,1.81,.49,.48,.26,1.06,.41,1.65,.69,.51,.24,.9,.83,1.48,1.07,.53,.22,1.19,.17,1.78,.37,.55,.19,.88,1.21,1.47,1.37,.56,.16,1.37-.55,1.97-.42s1.14,.32,1.74,.42,1.16,.2,1.77,.26,1.18,.03,1.8,.05,1.21,.84,1.82,.82c.64-.02,1.22-1.44,1.85-1.47s1.33,.92,1.96,.87,1.24-.64,1.86-.69,1.29,.04,1.91-.02c.65-.06,1.29-.05,1.91-.11,.66-.06,1.32,.14,1.93,.08,.66-.07,1.24-.72,1.84-.77,.67-.06,1.36,.53,1.95,.49,.69-.04,1.31,.13,1.88,.14,.74,0,1.54-1.08,2.05-.96,.8,.18,.65,1.34,.78,1.9,.13,.53,1.06,1.12,1.89,1.33,.53,.14,1.28-.19,2.02-.12,.59,.05,1.23,.35,1.92,.39,.62,.03,1.3-.61,1.97-.58,.63,.03,1.3-.1,1.96-.05s1.29,.23,1.95,.3,1.12,1.31,1.76,1.42,1.51-.91,2.14-.75,1.39,.13,1.99,.35,1.03,1.04,1.6,1.33c.7,.36,.86,1.05,1.11,1.53,.3,.58,.37,1.05,.14,1.69-.2,.55-.07,1.48-.56,1.98-.42,.43-1.5,.14-2.08,.48-.54,.32-.96,.8-1.59,1s-1.17,.74-1.81,.8-1.39,.26-2.03,.15-1.2-.24-1.85-.3-1.22-.99-1.87-1-1.28,.26-1.93,.27-1.27-.05-1.92-.03-1.28-.24-1.92-.22-1.26,.79-1.9,.8-1.29,.22-1.93,.2-1.3,.14-1.95,.1-1.25-.56-1.89-.64-1.36,.28-2,.16-1.13-.72-1.73-.77c-.63-.06-1.24-.08-1.84-.07s-1.31-.73-1.92-.67-1.06,1.36-1.68,1.47-1.28-.24-1.89-.11-1.27-.11-1.88,.02-1.21,.1-1.84,.22-1.05,1.1-1.68,1.2c-.59,.09-1.3-.52-1.94-.45-.6,.07-1.18,.38-1.82,.42-.6,.04-1.23-.37-1.87-.36-.6,.01-1.2,.14-1.84,.12-.61-.02-1.24,.21-1.87,.2s-1.24-.71-1.87-.71-1.24,.46-1.87,.46-1.24,.64-1.86,.65-1.25-.23-1.87-.23-1.26,.32-1.87,.31-1.25-.75-1.86-.76-1.25-.11-1.86-.13-1.27,.23-1.87,.19c-.65-.04-1.31,.32-1.9,.26-.65-.07-1.21-.61-1.79-.71-.66-.12-1.28-.18-1.82-.35-.67-.21-1.16-.57-1.61-.87-.58-.39-1.4-.65-1.53-1.23-.12-.51,.21-1.25,.15-1.98-.05-.59-.72-1.2-.75-1.88-.02-.61,.01-1.27,0-1.93s1.01-1.27,1.01-1.91,.19-1.27,.21-1.91-.44-1.31-.41-1.93c.03-.67-.15-1.33-.12-1.93,.04-.71-.15-1.38-.11-1.93,.07-1.18-.53-1.45,.41-1.63s.89,0,1.85,.18,.88,.62,1.83,.79,.98,.02,1.94,.2,.98,.06,1.94,.23,1.11-.67,2.07-.49,.77,1.2,1.73,1.37,.98,.41,1.95,.49,1.09-.7,2.02-.41Z" style="fill:#473513;"/><path d="M108.71,219.03c0-.69,.25-1.15,1.01-1.81,.53-.46,.83-1.5,1.64-1.93,.66-.35,1.32-1.03,2.12-1.35,.72-.29,2.07,1.02,2.87,.75,.75-.25,1.49-.49,2.29-.72s1.48-.61,2.28-.81,1.37-1.28,2.17-1.45,1.56-.61,2.36-.75,1.67-.05,2.46-.16,1.66-.14,2.44-.22c.85-.09,1.67-.16,2.44-.2,.88-.05,1.7,.59,2.43,.61,.69,.01,1.53-.75,2.46-.74,.75,.01,1.58-.57,2.46-.56,.77,0,1.58,.86,2.44,.86,.79,0,1.61,.58,2.45,.58,.8,0,1.61-1.16,2.44-1.17s1.63,.66,2.46,.64,1.63-.01,2.45-.04,1.63-.23,2.44-.27,1.68,.55,2.49,.49,1.6-.7,2.41-.77,1.54-1.02,2.34-1.11,1.65,.08,2.45-.04c.83-.12,1.88,1.18,2.66,1.03,.84-.16,1.27-2.03,2.03-2.22,.84-.21,2.06,1.07,2.79,.82,.84-.29,1.61-.8,2.28-1.15,.81-.43,1.65-.98,2.14-1.5,.46-.49,1.1-.87,1.8-1.45,.56-.47,.29-2.11,.97-2.61,.61-.45,1.83-.12,2.52-.58,.64-.43,1.13-1.14,1.82-1.57s1.37-.79,2.07-1.19,1.64-.3,2.35-.67,1.21-1.13,1.92-1.47,1.53-.48,2.25-.79,1.12-1.61,1.85-1.87c.77-.28,1.91,.61,2.65,.4,.8-.23,1.48-.8,2.22-.92,.84-.14,1.64,.44,2.37,.44,.87,0,1.65-.46,2.33-.21,.78,.29,2.19,.18,2.65,.84,.41,.58-.38,1.88-.27,2.79,.09,.72,.64,1.45,.72,2.28,.07,.74-.08,1.54-.01,2.35,.06,.75,.6,1.5,.65,2.31,.04,.76-1.09,1.6-1.06,2.39s1.74,1.49,1.76,2.29-.34,1.57-.34,2.36-.42,1.56-.43,2.35-.51,1.55-.54,2.33,.67,1.6,.62,2.38-1.16,1.49-1.22,2.26,.35,1.6,.26,2.37,.18,1.61,.06,2.37-1.12,1.39-1.27,2.14c-.16,.79,.1,1.62-.09,2.36-.21,.78-.18,1.6-.43,2.31-.27,.77,.08,1.81-.25,2.49-.36,.74-.85,1.51-1.28,2.11-.48,.67-1.96,.37-2.54,.84s-1.05,1.05-1.76,1.5c-.63,.4-.81,1.67-1.52,2.06-.67,.36-1.49,.55-2.21,.9s-1.74-.08-2.48,.23-1.62,.07-2.36,.35-1.43,.56-2.18,.81-1.24,1.23-2,1.44-1.72-.4-2.48-.22-1.32,1.23-2.08,1.39-1.59,.08-2.35,.2-1.5,.9-2.26,.96c-.81,.07-1.64-1.03-2.39-1.03-.83,0-1.6,.61-2.34,.53-.83-.09-1.48-.61-2.18-.82-.81-.24-1.81,.09-2.4-.33s-1.25-.76-2.05-1.14c-.67-.32-1.08-1.42-1.88-1.72-.71-.27-1.93,.83-2.72,.58-.74-.23-1.09-1.84-1.88-2.06s-1.67,.12-2.46-.07-1.43-.9-2.22-1.07-1.59-.23-2.38-.39-1.71,.4-2.49,.26c-.8-.14-1.49-.82-2.27-.95s-1.74,.67-2.51,.56c-.82-.12-1.59-.34-2.35-.44-.83-.11-1.61-.31-2.36-.39-.87-.09-1.64-.37-2.36-.43-.95-.07-1.74-.84-2.37-.84s-1.41-.26-2.34-.27c-.71,0-1.5,.71-2.35,.67-.74-.03-1.48-.54-2.29-.61-.75-.07-1.69,1.16-2.49,1.05s-1.28-1.65-2.06-1.82-1.55-.06-2.3-.28-1.31-.83-2.04-1.11c-.73-.28-1.48-.34-2.17-.71s-1.39-.61-2.03-1.06-1.5-.58-2.08-1.12-.54-1.54-1.02-2.17-1.34-.9-1.72-1.6c-.36-.67-.69-1.36-.96-2.12-.25-.71-.8-1.38-.97-2.18-.15-.73,.92-1.65,.85-2.46-.07-.75-.59-1.45-.58-2.26Z" style="fill:#d28728;"/><path d="M87.14,180.57c.67-1.01,.45-.95,1.7-1.81,.57-.39,1.65-.24,2.42-.74,.62-.41,1.17-1.06,1.9-1.52,.65-.41,1.53-.52,2.26-.95,.67-.4,1.51-.55,2.23-.96,.69-.39,.84-1.78,1.57-2.17s1.28-1.07,2.01-1.44,1.8-.03,2.53-.37,1.79,.09,2.54-.22,.9-2.17,1.65-2.45,1.7-.2,2.46-.43,1.64-.33,2.41-.51c.81-.18,1.66-.28,2.44-.38,.83-.1,1.7-.22,2.47-.21,.84,.01,1.57,.86,2.33,1.03s1.54,.27,2.35,.41c.75,.13,1.47,.8,2.27,.92,.76,.11,1.7-.84,2.5-.74,.77,.09,1.5,.75,2.3,.83s1.63-.53,2.43-.46,1.6-.39,2.39-.34,1.55,.54,2.34,.57,1.55,1.1,2.34,1.12,1.61,.14,2.39,.14,1.61-.11,2.39-.12,1.58-.93,2.35-.96c.82-.04,1.62,.18,2.39,.13,.82-.06,1.57-.51,2.32-.6,.83-.1,1.52-.61,2.25-.75,.86-.16,1.61-.11,2.29-.31,.9-.27,1.44-.55,1.98-.91s1.66,.16,2.59,.15c.69,0,1.66-1.02,2.51-.85,.71,.14,1.06,1.92,1.85,2.18,.71,.23,1.64-.14,2.39,.18,.7,.29,1.18,1.06,1.9,1.42s1.21,.93,1.9,1.32,1.38,.64,2.04,1.07,1.76,.16,2.4,.61,1.52,.62,2.12,1.11,1.39,.86,1.95,1.39,.48,1.77,1,2.34,1.63,.72,2.1,1.33,1.17,1.22,1.56,1.87,.54,1.61,.83,2.32,0,1.7,.15,2.45-.41,1.53-.43,2.3,.85,1.78,.46,2.51c-.34,.65-1.96,.35-2.56,.96-.52,.52-.57,1.51-1.26,2-.61,.43-1.15,1.01-1.88,1.42-.66,.37-.92,1.63-1.67,1.99-.69,.33-1.5,.56-2.25,.87-.71,.29-1.82-.37-2.58-.09s-1.44,.6-2.2,.85-1.49,.46-2.26,.68-1.25,1.34-2.02,1.55-1.53,.41-2.31,.6-1.71-.33-2.48-.15-1.57,.17-2.35,.34-1.5,.51-2.28,.67-1.72-.6-2.5-.45-1.56,.21-2.33,.34-1.31,1.7-2.09,1.83-1.55,.4-2.33,.52-1.57,.27-2.35,.38-1.63-.1-2.4,0-1.73-.99-2.5-.9-1.58,.18-2.34,.26c-.81,.09-1.58,.19-2.34,.26-.81,.08-1.51,1.09-2.27,1.16-.83,.07-1.61,.27-2.36,.32-.84,.06-1.7-1.08-2.42-1.05-.88,.04-1.62,1.38-2.31,1.39-.73,0-1.63-1.05-2.5-.94-.75,.09-1.31,1.79-2.15,1.93-.76,.13-1.88-1.45-2.69-1.29-.77,.15-1.49,.7-2.29,.86s-1.5,.64-2.3,.79-1.66-.2-2.46-.06-1.36,1.58-2.16,1.71-1.69-.38-2.49-.28-1.65-.45-2.45-.39-1.58,.09-2.38,.1-1.6,.44-2.39,.38-1.65,.13-2.42-.01-1.32-1.21-2.07-1.45-2.23,1.09-2.93,.71-.59-2.06-1.22-2.58-2.16-.17-2.67-.82c-.47-.61-.27-1.79-.65-2.54-.34-.68,.11-1.67-.15-2.48-.23-.73-1.4-1.22-1.55-2.06-.14-.75,.26-1.62,.18-2.46-.07-.76-.07-1.55-.09-2.39-.01-.77,.59-1.53,.63-2.37,.03-.77-.91-1.62-.84-2.46,.07-.77,.13-1.58,.24-2.41,.1-.77,1.13-1.42,1.26-2.24,.13-.77-.51-1.7-.35-2.52Z" style="fill:#d28728;"/><path d="M61.87,197.25c-.5-.85-1.25-1.12-.48-1.62,.3-.2,.93-.63,1.97-.51,.52,.06,1.23,.06,2.01,.24,.56,.13,1.02,.99,1.73,1.2,.58,.17,1.13,.58,1.81,.81,.72,.24,1.62-.25,2.29-.12,.75,.15,1.43,.26,2.12,.29,.75,.04,1.51,.68,2.2,.62,.75-.07,1.37-.84,2.06-1,.73-.17,1.45-.23,2.12-.45,.71-.25,1.26-.82,1.9-1.09,.71-.29,1.42-.49,2.06-.73,.73-.29,1.47-.5,2.12-.63,.76-.15,1.5,.11,2.17,.35,.6,.21,.93,.78,1.48,1.44,.43,.52,1.51,.59,1.97,1.19,.43,.55,.75,1.22,1.19,1.82s.4,1.47,.82,2.07,1.25,.9,1.64,1.51,.32,1.5,.67,2.12,.68,1.27,.99,1.91,.42,1.38,.66,2.04c.26,.7,1.16,1.19,1.31,1.86,.16,.74,.15,1.53,.14,2.22,0,.75-.25,1.5-.5,2.15s-.58,1.57-1.26,1.98c-.55,.33-1.6-.27-2.37-.07-.64,.17-1.29,.36-2.05,.46-.68,.09-1.38,.13-2.12,.17-.7,.04-1.39,.72-2.13,.73s-1.44-.39-2.16-.39-1.44,.13-2.16,.12-1.45-.22-2.16-.23-1.47-.23-2.17-.22c-.75,0-1.44,.85-2.13,.88-.76,.04-1.54-.55-2.2-.46-.79,.11-1.32,.94-1.92,1.14s-1.41,.4-2.2,.52c-.67,.1-1.47-.29-2.24-.26-.7,.03-1.44,.49-2.19,.47s-1.41-.83-2.14-.89-1.46,.11-2.19,.01-1.37-.64-2.07-.77-1.6,.4-2.28,.22c-.74-.19-1.3-.82-1.95-1.06-.74-.27-1.35-.6-1.93-.93-.73-.4-1.83-.28-2.23-.76-.52-.61-.43-1.63-.26-2.36,.15-.64-.29-1.19-.45-1.89-.14-.62-.16-1.24-.47-1.9-.28-.59-.63-1.14-1-1.74-.35-.57-.07-1.56-.46-2.13s-1.47-.66-1.85-1.22-.31-1.45-.65-2.01c-.37-.61-.76-1.16-1.03-1.75-.3-.66-.48-1.3-.58-1.93-.11-.7-.26-1.4-.03-2.03,.26-.69,.44-1.51,.92-1.95s1.18-.99,1.86-1.22c.6-.2,1.46,.57,2.18,.54,.64-.03,1.24,.05,1.96,.14,.64,.09,1.45-.52,2.14-.35,.63,.16,1.1,.97,1.76,1.21,.62,.22,1.36,.17,2,.45s1.43,.15,2.05,.47,1.12,.97,1.72,1.32Z" style="fill:#d28728;"/><path d="M50.2,266.15c15.36-.54,25.68-.46,34.49,0,8.81,.46,16.81,2.34,16.81-7.6s-37.31,2.94-41.66,0c-4.34-2.94-21.58-6.15-21.96-1.54s-2.97,9.68,12.32,9.14Z" style="fill:#d28728;"/><path d="M71.02,184.79c.54-.05,1.1-.06,1.67-.09,.54-.03,1.1,.13,1.67,.11s1.09-.56,1.66-.56,1.1,.83,1.67,.84,1.11-.53,1.68-.52,1.1,.2,1.66,.22,1.12-.36,1.69-.33,1.09,.38,1.66,.41c.47,.02,1.04-.21,1.65-.18,.51,.03,1.02,.68,1.6,.71,.52,.03,1.12-.76,1.69-.73,.53,.03,1.04,.73,1.6,.76s1.08,.1,1.63,.14,1.12-.31,1.67-.27,1.11-.02,1.65,.02,1.08,.36,1.62,.41,1.13-.09,1.66-.03c.57,.06,1.1,.28,1.62,.33,.58,.07,1.16-.07,1.66,0,.61,.08,1.12,.42,1.58,.51,.83,.16,1.4,.27,1.56,.45,.25,.28-.05,.71-.51,1.41-.25,.38-.11,1.31-.62,1.73-.38,.32-.97,.58-1.51,.89-.45,.26-1.03,.41-1.59,.64-.48,.2-1.17-.06-1.74,.11-.51,.15-.88,.96-1.46,1.09-.52,.11-1.11,.12-1.7,.21-.53,.08-1.12,.02-1.7,.08-.54,.05-1.1,.14-1.69,.16-.54,.02-1.11-.24-1.69-.25-.54,0-1.11,.19-1.69,.17s-1.12-.33-1.68-.34-1.13-.11-1.69-.11-1.13,.38-1.69,.39-1.12,.12-1.68,.14-1.15-.42-1.71-.39-1.12,.25-1.67,.29-1.11,.34-1.66,.39-1.19-.52-1.73-.47c-.58,.05-1.09,.6-1.63,.66-.58,.06-1.16-.11-1.7-.04-.58,.07-1.14,.13-1.68,.19-.59,.07-1.19-.21-1.71-.15-.61,.07-1.14,.32-1.64,.37-.65,.07-1.16,.68-1.63,.71-1.09,.07-1.75-.34-1.56-.64,.15-.24-.36-.39-1.1-.9-.41-.27-.55-1.1-1.05-1.43-.46-.3-.94-.55-1.38-.88-.47-.36-1.35-.23-1.69-.61-.44-.48-.14-1.19-.14-1.68,0-.46-.27-1.17,.33-1.61,.36-.26,1.09-.09,1.73-.33,.45-.17,.98-.27,1.58-.43,.49-.13,1-.31,1.59-.43,.5-.1,.99-.52,1.57-.62,.52-.08,1.08-.08,1.67-.15,.52-.07,1.06-.3,1.64-.36,.53-.06,1.1,.04,1.68-.01Z" style="fill:#473513;"/><path d="M147.66,179.94c.52-.31,1.04-.5,1.57-.74s1.06-.44,1.6-.63,1.1-.33,1.66-.46,1.01-1.03,1.59-1.11,1.23,.38,1.82,.35,1.16,.31,1.74,.32,1.19-.33,1.77-.27,1.22-.18,1.79-.1,1.14,.38,1.71,.49,1.2,.09,1.76,.21c.59,.13,1.13,.4,1.69,.53,.59,.14,1.04,.86,1.59,.98,.61,.13,1.36-.72,1.9-.64,.63,.1,1.14,.73,1.67,.73s1.12,.21,1.73,.14c.53-.06,1.13-.06,1.71-.16,.54-.09,1.06-.42,1.63-.54s1.13-.1,1.69-.23,1.14-.12,1.69-.25,.94-.94,1.49-1.08,1.12-.23,1.66-.36c.57-.14,1.12-.31,1.65-.43,.58-.13,1.22,.14,1.74,.04,.61-.12,1.14-.4,1.64-.45,.71-.08,1.27-.07,1.67,.03,.43,.11,.95,.52,1.61,.65,.51,.1,1.2-.46,1.79-.35,.54,.1,.99,.83,1.55,.94s1.2-.11,1.74,.02c.58,.14,1.28-.19,1.79-.03,.6,.18,.94,1.01,1.39,1.22,.68,.32,1.26,.55,1.36,.95,.12,.45,.83,.84,1.12,1.5,.23,.53-.1,1.35,.09,1.95s.9,1.16,.91,1.76-.54,1.25-.85,1.81c-.26,.47-.86,.7-1.44,1.09-.46,.31-.88,.71-1.46,.94-.52,.2-1.08,.37-1.67,.52-.54,.14-1.06,.54-1.66,.66-.56,.1-1.22-.29-1.82-.2s-1.11,.47-1.7,.54-1.21-.35-1.8-.29-1.07,1.04-1.66,1.1-1.18,.01-1.76,.08-1.14,.3-1.72,.38-1.34-.91-1.91-.81c-.53,.09-1.02,.58-1.64,.64-.55,.05-1.1,.76-1.7,.78-.56,.02-1.16-.33-1.76-.33-.56,0-1.15,.13-1.75,.11s-1.13-.41-1.72-.44-1.16,.05-1.74,0-1.17,.13-1.76,.07-1.12-.38-1.7-.45-1.14-.24-1.72-.32-1.21,.25-1.79,.16-1.07-.64-1.65-.74-1.06-.67-1.63-.78-1.29,.52-1.86,.41-1.11-.39-1.68-.51-1.16-.19-1.72-.33-1.22,.04-1.78-.11-1.16-.22-1.71-.37c-.6-.17-1.09-.67-1.62-.84-.6-.2-1.22-.28-1.74-.48-.6-.24-.85-1.13-1.34-1.37-.59-.29-1.02-.62-1.46-.91-.57-.38-1.52-.17-1.86-.55-.48-.53-.58-1.26-.67-1.76-.11-.61-.21-1.43,.14-1.94,.3-.45,1.24-.38,1.8-.71Z" style="fill:#473513;"/><path d="M75.73,239.55c2.77,.06,5.34,2.08,8.56,2.57,3.21,.49,10.1-1.29,10.1-1.29l1.17-5.72s-10.48,1-11.26-1.75c-.79-2.75-10.91-8.85-10.91-8.85,0,0-3.76,12.88-3.82,13.49s6.17,1.54,6.17,1.54Z" style="fill:#d28728;"/><path d="M61.46,212.56c.92,0,1.88-.08,2.58,.09,.88,.21,1.66,.64,2.28,1.06,.7,.47,1.35,1.08,1.83,1.71s.61,1.57,1.02,2.26,.97,1.34,1.45,1.96,.96,1.41,1.71,1.77c.64,.31,1.5,.43,2.46,.42s1.76,.15,2.5,.4c.86,.3,1.45,.81,2.09,1.36s1.62,.83,2.14,1.54,.9,1.49,1.38,2.2,.62,1.72,1.17,2.36,1.29,1.27,2.04,1.7c.81,.46,1.68,.72,2.31,1.23,.8,.64,1.44,1.3,1.79,1.91,.52,.91,.53,1.94-.42,2.45-.54,.29-1.49,.07-2.66,.13-.79,.04-1.65,.2-2.55,.19-.83-.02-1.69-.02-2.56-.08s-1.7-.3-2.54-.38c-.89-.08-1.78,.16-2.59,.06-.94-.11-1.83-.11-2.56-.23-1.43-.22-2.45-.53-2.57-.62-.13-.11-1.07,.12-2.44,.52-.79,.24-1.7,.32-2.59,.45-.92,.13-1.79,.27-2.58,.07-.87-.22-1.46-.69-1.85-1.6-.22-.51-.34-1.25-.48-2.2-.1-.68-.63-1.4-.69-2.24-.05-.72,.16-1.51,.13-2.31-.03-.74,.27-1.52,.26-2.3s-.25-1.53-.25-2.29-.15-1.55-.14-2.3,.03-1.56,.05-2.3c.02-.81,.3-1.58,.33-2.29,.03-.86-.25-1.65-.22-2.31,.06-1.42-.67-1.62,.18-2.39Z" style="fill:#473513;"/><path d="M98.13,241.2c.38-.99,.3-.9,1.11-1.82,.4-.46,.93-1.01,1.63-1.39,.55-.3,1.25-.56,2.03-.71,.62-.12,1.34,.11,2.13,.16,.83,.05,1.57-.2,2.23-.45,.72-.27,1.39-.62,1.97-1.12s1.12-1.03,1.6-1.62,.71-1.39,1.17-1.97c.49-.62,1.14-1.07,1.67-1.54,.58-.52,1.15-1.13,1.88-1.32,1.19-.3,1.78,.2,2.16,.74s.49,1.25,.48,2.26c0,.74,.05,1.57,.02,2.45-.03,.79-.09,1.63-.04,2.45s.03,1.65-.22,2.38-.85,1.33-1.37,1.94-1.06,1.13-1.74,1.58-1.29,.99-2.04,1.27-1.55,.58-2.32,.7c-.65,.1-1.49,.05-2.41,.16-.74,.09-1.56,.13-2.4,.22-.79,.09-1.62,0-2.42,.09s-1.62,.26-2.39,.34c-.88,.09-1.7,.15-2.4,.22-1.44,.14-2.35,1.53-2.29,.33,.07-1.43,.6-1.27,1.11-2.61s.34-1.4,.86-2.74Z" style="fill:#473513;"/><path d="M141,241.32c-.14-.91,.2-1.21,.63-1.78s.79-.72,1.63-1.01c.65-.23,1.24-.7,2.09-.8,.71-.08,1.46-.57,2.28-.57,.74,0,1.53-.12,2.34-.07,.75,.05,1.51,.37,2.29,.45s1.47,.59,2.24,.7,1.57-.1,2.34,.03,1.62-.23,2.38-.09,1.36,1.18,2.11,1.33,1.66-.3,2.4-.15c.79,.16,1.53,.42,2.25,.58,.8,.17,1.42,1.01,2.12,1.17,.84,.19,1.73-.23,2.39-.09,1.06,.22,1.88-.06,2.31-.03,.51,.03,1.33,.33,2.36,.48,.69,.11,1.38,.89,2.24,1.03,.74,.12,1.49,.47,2.31,.59,.76,.11,1.66-.52,2.46-.41s1.57,.16,2.36,.25,1.52,.74,2.31,.82,1.64-.27,2.41-.23c.82,.04,1.61-.58,2.37-.58,.85,0,1.7,.98,2.42,.89,.89-.1,1.61-.74,2.24-.98,.89-.34,.99-.94,1.2-1.63s1.06-1.36,1.69-2.01c.53-.53,1.67-.39,2.38-.87,.65-.44,1.36-.72,2.09-1.11s1.3-.96,2.04-1.29,1.52-.63,2.24-.91c.84-.32,1.24-1.65,1.92-1.88,1.39-.47,1.89-1.2,2.76-.35s-1.05,1.09-1.35,2.6c-.15,.73-.17,1.6-.36,2.52-.17,.79-.15,1.66-.34,2.52s-.4,1.65-.59,2.47,.33,1.87,.12,2.65c-.23,.89-1.56,1.41-1.78,2.13-.34,1.08-.37,1.88-.65,2.31-.3,.46-.71,.46-1.81,.49-.68,.02-1.4-.29-2.29-.37-.73-.07-1.52,0-2.34-.12-.76-.1-1.71,1.01-2.51,.9s-1.56-.24-2.34-.33-1.46-1.38-2.23-1.45c-.82-.07-1.67,.67-2.43,.65-.85-.02-1.61,.06-2.33,.14-.9,.1-1.65,.1-2.25,.42-.63,.33-1.4,.71-2.27,.88-.73,.14-1.62-.67-2.46-.61-.76,.05-1.52,1.43-2.35,1.43-.78,0-1.56-1.27-2.37-1.31s-1.65,1.05-2.45,1-1.59-.42-2.38-.47-1.58-.92-2.35-.96c-.84-.04-1.68-.2-2.42-.2-.89,0-1.64,1.11-2.33,1.2-.62,.08-1.46-.64-2.41-.65-.72,0-1.48-.13-2.33-.2-.75-.06-1.59,.49-2.41,.39-.76-.1-1.5-.51-2.29-.65s-1.73,.58-2.51,.41-1.22-1.66-1.98-1.87-1.91,.79-2.65,.53-1.16-1.48-1.86-1.79c-.75-.33-1.68-.23-2.34-.62-.72-.42-.91-1.47-1.48-1.95-.64-.54-1.09-.99-1.5-1.61-.44-.68-.85-1.16-.97-1.94Z" style="fill:#473513;"/><path d="M94.26,173.96c-.22-1.05,.18-2.09,.7-2.53,.49-.41,1.48-.46,2.45-.47,.7-.01,1.52,.05,2.39,.18,.73,.11,1.45,.62,2.26,.79,.75,.16,1.61-.04,2.4,.15s1.47,.61,2.25,.81,1.47,.71,2.23,.89,1.7-.24,2.45-.08c.82,.17,1.55,.58,2.28,.68,.87,.12,1.68,.31,2.38,.29,.95-.03,1.89-.17,2.41-.57s.95-1.23,1.74-1.63c.65-.33,1.5-.37,2.27-.69,.69-.28,1.42-.58,2.19-.84,.72-.25,1.5-.37,2.27-.6s1.43-.66,2.19-.87,1.49-.52,2.25-.71,1.62-.02,2.37-.18c.79-.18,1.52-.56,2.25-.7,.82-.16,1.56-.55,2.27-.67,.89-.15,1.77,.49,2.41,.41,1.15-.13,1.32,.1,.68,1.11-.32,.51-.76,1.25-1.41,1.94-.49,.52-1.28,.85-1.91,1.43-.55,.5-1.16,1.01-1.79,1.53-.59,.49-1.26,.9-1.9,1.39s-1.15,1.08-1.79,1.54-1.31,.89-1.96,1.31-1.27,1.01-1.93,1.38c-.72,.41-1.66,.31-2.33,.61-.79,.36-1.48,.66-2.14,.83s-1.49,.4-2.4,.64c-.74,.2-1.58,.25-2.44,.46-.77,.19-1.53,.54-2.37,.72-.79,.17-1.63,.14-2.46,.28s-1.53,.93-2.36,1.03c-.82,.09-1.69-.3-2.52-.27s-1.67,.5-2.49,.46-1.64-.47-2.45-.6-1.62-.35-2.39-.61-1.81-.13-2.52-.54c-.71-.41-1.06-1.39-1.66-1.97s-1.08-1.17-1.55-1.89c-.43-.66-.92-1.32-1.23-2.14-.28-.73-.92-1.44-1.1-2.3Z" style="fill:#473513;"/></g><path d="M109.4,208.42c-.63-.47-1.13-1.13-1.3-2.04-.13-.73-.28-1.62-.14-2.53,.12-.76,.03-1.73,.34-2.56,.27-.75,1.62-1.06,2.02-1.83,.38-.71,.75-1.39,1.24-2.08s.88-1.34,1.45-1.96,.69-1.66,1.34-2.2,1.6-.62,2.31-1.06,1.14-1.44,1.92-1.77,1.69-.3,2.51-.5c.81-.19,1.69,.05,2.52-.04s1.63,.05,2.47,.05,1.62,.13,2.46,.19,1.66-.12,2.49-.01,1.68,0,2.5,.13,1.64,.32,2.46,.45,1.58,.77,2.39,.9,1.78-.51,2.58-.42c.85,.1,1.66,.24,2.47,.28,.86,.04,1.74,.73,2.54,.66,.86-.07,1.7-.54,2.47-.77s1.73-.44,2.43-.89,1.31-.74,2.04-1,1.33-1.24,2.1-1.34,1.65,.21,2.42,.26c.81,.06,1.75-.3,2.48-.09,.8,.23,1.36,1.12,2,1.5,.74,.44,1.54,.79,1.97,1.37,.5,.67,.63,1.54,.58,2.33-.04,.7-.03,1.69-.61,2.41-.47,.59-1.33,1-2.07,1.51-.63,.44-1.35,.92-2.13,1.3-.71,.35-1.56,.51-2.35,.81-.75,.29-1.72-.03-2.52,.23s-1.3,1.39-2.1,1.61-1.62,.4-2.42,.59-1.67,.22-2.45,.38c-.84,.18-1.77-.24-2.54-.09-.88,.18-1.71,.28-2.43,.43-.99,.2-1.68,1.01-2.27,1.16-.74,.19-1.7,.22-2.54-.03-.72-.22-1.22-1.2-1.99-1.58-.72-.35-1.48-.67-2.21-1.02s-1.5-.87-2.23-1.1c-.83-.26-1.83-.33-2.58-.19s-1.51,.74-2.13,1.45c-.47,.54-.52,1.57-1.08,2.23-.49,.58-1.23,1.02-1.79,1.63s-1.21,1.05-1.8,1.59-1.13,1.16-1.77,1.62-1.25,1.13-1.96,1.46-1.56,.7-2.34,.85-1.6-.56-2.41-.67c-.74-.1-1.53-.04-2.31-.39-.67-.3-1.33-.73-2.02-1.25Z" style="fill:#473513;"/><path d="M144.85,214.23c.53,.02,1.02,1.05,1.53,1.06s1.07-.92,1.58-.91,1.04,.67,1.55,.68,1.05-.11,1.56-.11,1.05-.78,1.56-.78,1.05,.69,1.56,.69c.53,0,1.05,.05,1.56,.04,.53,0,1.05,.02,1.55,.01,.53-.01,1.04-.29,1.55-.3,.54-.01,1.06,.28,1.57,.26,.54-.02,1.05-.12,1.55-.14,.54-.02,1.04-.53,1.54-.55,.54-.02,1.07,.52,1.57,.5,.54-.02,1.06,.3,1.56,.29,.54-.01,1.04-.76,1.54-.77,.54,0,1.08-.58,1.57-.57,.54,.01,1.03,.99,1.51,1.03,.54,.04,1.09-.28,1.57-.2,.38,.06,.88,.57,1.52,.57,.46,0,.99,.03,1.56,.01,.48-.01,.97-.75,1.52-.78,.49-.02,1.05,.86,1.59,.83,.5-.03,1.03,.11,1.56,.08,.5-.03,.99-.56,1.52-.6s.99-.55,1.52-.58,1.08,.89,1.6,.86,.95-1.35,1.47-1.38,1.05,.3,1.57,.28,1.06,.5,1.58,.48,1.03-.1,1.55-.12,1.01-.94,1.53-.95,1.07,1.13,1.58,1.12,1.04-.72,1.55-.71c.53,0,1.06,0,1.56,0,.54,.02,1.06,.08,1.55,.12,.55,.04,1,.67,1.48,.73,.56,.07,1.01,.23,1.47,.33,.59,.13,.9,.36,1.29,.55,.58,.3,1.64,.13,1.64,.61,0,.6,.18,1.06,.21,1.51,.04,.62-1.11,1.15-1.11,1.59,0,.54,.46,.97,.19,1.47-.2,.37-.63,.61-1.09,1.06-.31,.31-.05,1.38-.51,1.77-.35,.29-1.03,.3-1.49,.66-.37,.29-.94,.41-1.39,.75-.4,.3-.81,.62-1.25,.9s-.9,.49-1.35,.73-.8,.71-1.27,.93-1.22-.28-1.7-.1-.85,.62-1.34,.77-.79,.97-1.29,1.1-1.04,.16-1.54,.26-1.19-.8-1.69-.72-.93,.64-1.44,.7-.98,.57-1.49,.61-1.05-.34-1.56-.32-1.02-.44-1.53-.44-1.05,.78-1.56,.76-1.08,.31-1.58,.25-.95-.81-1.45-.89-.88-.82-1.38-.92-1.06,.13-1.55,0-1.2,.59-1.68,.46-.76-1.06-1.24-1.2-1.22,.61-1.7,.48-.59-1.62-1.07-1.76-1-.16-1.49-.29-1.22,.63-1.7,.5-.78-.96-1.26-1.09-1.2,.6-1.68,.47-.75-1.13-1.24-1.25-1.24,.89-1.72,.79-.8-1.02-1.29-1.12-.94-.44-1.44-.52-.97-.37-1.46-.44-1.13,.89-1.62,.83-.97-.19-1.47-.23-.94-1.21-1.44-1.23c-.47-.02-.99,.54-1.52,.53-.48,0-.98,.06-1.5,.06-.49,0-.98-.39-1.5-.39s-.99-.05-1.5-.05-1,1.19-1.51,1.19-1-.32-1.5-.32-.99-.87-1.49-.88-1.03,.96-1.53,.94-1.01-.08-1.51-.1-.99-.55-1.48-.58-1.02,.04-1.51,0c-.51-.04-1.04,.14-1.52,.09-.52-.06-1.06,.08-1.54,0-.52-.09-1.08-.07-1.54-.18-.53-.13-.81-1.02-1.23-1.19-.54-.21-1.25-.08-1.57-.36-.42-.37,.06-1.01,.12-1.52s.21-.83,.44-1.28-.36-1.56,.04-1.93c.35-.32,.86-.78,1.35-1.04,.42-.22,1.03-.36,1.55-.54,.45-.16,1.17,.36,1.7,.23,.47-.11,1.07,.4,1.6,.31,.48-.08,.86-.99,1.4-1.05,.49-.06,1-.15,1.53-.19,.49-.04,1.01-.1,1.54-.13,.5-.02,1.02,.07,1.55,.06,.5-.01,1.01,.74,1.54,.74s1.02-.93,1.55-.92,1.03-.04,1.55-.03Z" style="fill:#473513;"/></g><g><path d="M74.24,76.7c-.24,1.23-.02,.95-.34,2.49-.14,.7-.16,1.57-.32,2.5-.13,.76-.22,1.6-.35,2.49-.12,.79-.23,1.62-.33,2.49-.09,.81,.25,1.68,.18,2.54s-.58,1.62-.61,2.47-.22,1.67-.22,2.51-.08,1.69-.05,2.53,.66,1.64,.75,2.47-.13,1.71,0,2.53,.5,1.61,.71,2.42-.17,1.84,.11,2.61,1.04,1.42,1.43,2.15,.7,1.57,1.2,2.24,.95,1.48,1.57,2.04,1.76,.41,2.5,.85c.69,.41,1.18,1.19,1.91,1.57s1.39,.86,2.13,1.21,1.46,.74,2.21,1.06,1.67,.21,2.43,.51,1.52,.56,2.29,.83,1.53,.56,2.3,.81,1.52,.62,2.3,.85,1.58,.44,2.36,.64,1.67,.03,2.46,.21,1.5,.85,2.28,1.01,1.67-.01,2.46,.12,1.66-.01,2.45,.09c.83,.11,1.59,.57,2.38,.64,.84,.08,1.65,.24,2.43,.28,.86,.04,1.68,.55,2.45,.54,.89-.01,1.74-.14,2.48-.22,.93-.1,1.61-.9,2.26-1.12,.69-.23,1-.73,1.39-1.7,.27-.67,.37-1.42,.49-2.38,.1-.76,.22-1.56,.23-2.47,.01-.79,.16-1.62,.11-2.5-.05-.8,.27-1.68,.17-2.55-.1-.81-.88-1.54-1.03-2.4s.6-1.81,.42-2.65-.76-1.55-.96-2.38-.15-1.7-.38-2.52-1.12-1.41-1.38-2.22,.03-1.79-.26-2.58-.83-1.49-1.15-2.27-.7-1.53-1.05-2.3-.4-1.69-.78-2.44-.73-1.55-1.15-2.27-1.47-1.08-1.93-1.78-.28-1.88-.79-2.55-1.19-1.26-1.74-1.88-1.35-1.09-1.95-1.66-1.47-.88-2.13-1.38-1.05-1.51-1.77-1.92-1.88,.04-2.58-.33c-.73-.38-1.38-.85-2.1-1.19s-1.42-.8-2.15-1.1-1.45-.77-2.19-1.04c-.78-.28-1.65-.19-2.4-.41-.8-.24-1.38-1.18-2.14-1.36-.81-.19-1.69,.05-2.46-.07-.83-.14-1.64,.04-2.41-.01-.84-.06-1.62-.32-2.39-.29-.85,.04-1.61,.25-2.36,.4-.84,.17-1.68,.09-2.38,.4-.78,.34-1.34,.93-1.92,1.44-.62,.54-1.36,.97-1.74,1.69s-.83,1.45-.94,2.3Z" style="fill:#d28728;"/><path d="M75.74,74.53c1.74,.59,1.41,.37,3.49,1.18,.99,.39,2,1.22,3.25,1.76,1.06,.46,2.46,.4,3.6,.95,1.08,.52,1.94,1.58,3.02,2.18s2.36,.89,3.37,1.54c1.07,.69,1.45,2.23,2.35,2.98,1.02,.84,2.72,.88,3.41,1.77,.83,1.07,.58,2.54,.73,3.65,.14,.99,.78,2.26,.54,3.75-.18,1.12-.3,2.43-.67,3.75-.32,1.14-.99,2.28-1.43,3.53-.4,1.14-.62,2.43-1.11,3.63-.46,1.14-1.36,2.13-1.9,3.3s-.71,2.45-1.28,3.58-1.33,2.16-1.94,3.26-1.29,2.18-1.95,3.25-1.03,2.38-1.72,3.4-2.48,1.35-3.23,2.32c-.8,1.03-.94,2.53-1.76,3.43-.89,.98-1.7,2-2.6,2.78-1.03,.89-2.36,1.2-3.37,1.76-.94,.52-1.92,1.34-3.22,1.61-1.09,.22-2.33,.15-3.62,.21-1.14,.05-2.31-.47-3.57-.55-1.15-.07-2.46,.85-3.69,.68-1.16-.16-2.39-.31-3.6-.56s-2.07-1.63-3.25-1.94-2.33-.48-3.48-.85-2.41-.38-3.53-.82-1.93-1.57-3.02-2.07-2.48-.39-3.53-.95-1.87-1.58-2.86-2.22c-1.03-.66-2.48-.7-3.41-1.42-.98-.76-1.41-2.1-2.25-2.91-.89-.87-2.13-1.37-2.83-2.3-.75-.99-.92-2.29-1.42-3.34s-1.59-2.05-1.8-3.23-.44-2.52-.29-3.75,1.65-2.19,1.82-3.33c.19-1.2,.16-2.38,.38-3.51,.23-1.2-.3-2.53-.02-3.63,.3-1.19,.31-2.45,.66-3.53,.38-1.17,2.02-1.82,2.47-2.86,.49-1.14,1.01-2.1,1.58-3.07,.62-1.06,1.01-2.12,1.74-2.99,.79-.93,1.12-2.3,2.04-2.99,.95-.71,2.18-1.03,3.28-1.48s2.19-.86,3.4-1.04c1.11-.17,2.32-.28,3.57-.24,1.24,.04,2.45,.61,3.58,.5,1.23-.11,2.35-.74,3.46-.98,1.2-.25,2.27-.77,3.37-1.11,1.17-.36,2.54,0,3.62-.4,1.15-.42,2.25-.83,3.33-1.2,1.16-.4,1.98-1.84,3.1-2.09s2.47-.08,3.65-.05,2.36,.26,3.54,.66Z" style="fill:#d28728;"/><path d="M72.92,133.98c.2-1.08,.18-.79,.76-2.01,.27-.57,.77-1.14,1.15-1.86,.32-.6,.36-1.42,.75-2.09,.36-.6,.69-1.27,1.11-1.9,.4-.59,1.21-.91,1.67-1.5s.49-1.48,.99-2.03,.99-1.12,1.52-1.61,1.33-.72,1.91-1.15,1.06-1.12,1.7-1.45,1.47-.32,2.17-.54,1.41-.24,2.15-.3c.78-.07,1.52-.47,2.26-.45,.78,.01,1.53,.26,2.26,.36,.77,.1,1.46,.47,2.17,.66,.75,.2,1.55,.17,2.22,.47,.72,.31,1.25,.9,1.86,1.3,.65,.43,1.48,.61,2,1.14,.54,.55,1.01,1.2,1.39,1.84s.75,1.38,.96,2.1,.09,1.52,.1,2.29c0,.73,.13,1.52-.04,2.29s-.76,1.36-.96,2.08-.21,1.51-.46,2.21-.25,1.55-.56,2.22-.87,1.28-1.25,1.91-.92,1.2-1.41,1.76-.87,1.28-1.46,1.75-1.41,.56-2.1,.91c-.64,.33-1.29,.66-2.04,.89-.68,.21-1.38,.52-2.16,.64-.7,.11-1.43,.18-2.17,.31s-1.39,.55-2.11,.67-1.51-.11-2.23-.02-1.46,.36-2.17,.4-1.49-.14-2.2-.2c-.75-.06-1.39-.43-2.08-.64s-1.43-.26-2.04-.67-.93-1.01-1.4-1.62c-.41-.54-1.09-.96-1.39-1.7-.26-.62-.14-1.41-.31-2.19-.15-.66-.64-1.31-.72-2.1-.07-.68,.2-1.39,.19-2.17Z" style="fill:#d28728;"/><path d="M56.31,110c.73-.46,1.67-.4,2.35-.69,.79-.34,1.49-.7,2.22-.83,.83-.15,1.63-.27,2.39-.2,.81,.08,1.57,.34,2.31,.62s1.39,.74,2.07,1.17,1.23,.97,1.84,1.49,1.29,.93,1.86,1.49,1.02,1.24,1.56,1.81,1.21,1.09,1.75,1.63c.6,.6,1.51,.76,2.08,1.23,.68,.55,1.15,1.14,1.82,1.4s1.39,.3,2.17,.44c.72,.13,1.42,.43,2.2,.49s1.5-.11,2.27-.09,1.52,.32,2.27,.32,1.54,.05,2.27,.07c.8,.03,1.55,.17,2.25,.26,.83,.11,1.75-.23,2.37,.03,.77,.32,1.45,1.04,1.74,1.73,.32,.73-.21,1.6-.29,2.41-.07,.77,.24,1.66-.13,2.4-.35,.69-.73,1.54-1.32,2.1s-1.39,.94-2.13,1.27c-.7,.32-1.58,.13-2.41,.19-.75,.06-1.55,.28-2.38,.08-.91-.22-1.6-.78-2.23-.82-.94-.06-1.71,.13-2.37,.29s-1.29,.61-2.18,.77c-.62,.11-1.35-.11-2.29-.11-.66,0-1.41,.27-2.29,.17-.68-.07-1.49,.11-2.33-.03-.72-.12-1.57-.18-2.39-.42-.73-.21-1.52-.46-2.3-.76-.72-.27-1.29-1.03-2.03-1.37s-1.48-.57-2.2-.95-1.41-.74-2.1-1.15-1.54-.59-2.19-1.04-1.31-.98-1.92-1.47-1.2-1.12-1.76-1.65c-.6-.57-.8-1.48-1.28-2.07-.53-.65-1.47-1-1.83-1.66-.4-.75-.65-1.61-.77-2.35-.13-.8,.32-1.59,.58-2.35,.23-.7,.73-1.2,1.33-1.85,.48-.52,.67-1.54,1.42-2.02Z" style="fill:#473513;"/><path d="M77.86,71.22c.3,.05,.75,.3,1,.93,.14,.36-.17,.94-.05,1.46,.1,.41,.26,.84,.34,1.33,.07,.43,.61,.82,.67,1.3,.06,.44-.44,.96-.4,1.44,.04,.45,.69,.86,.72,1.33s-.03,.93,0,1.4-.25,.93-.23,1.4,.34,.92,.35,1.38,.05,.93,.05,1.39-.57,.92-.58,1.38,.47,.95,.45,1.41,.07,.95,.04,1.4-.67,.89-.71,1.34,.14,.95,.09,1.4c-.06,.48,.01,.96-.06,1.4-.08,.48-.11,.95-.21,1.38-.11,.49-.13,.98-.27,1.39-.17,.5-.58,.85-.79,1.2-.29,.49-.58,.96-.94,1.08-.43,.13-.92,.1-1.38,.17s-.91-.07-1.38-.04-.88-.12-1.35-.14-.89,.08-1.36,.03-.89-.07-1.35-.14-.93,.04-1.38-.06-.92-.07-1.37-.19-.79-.58-1.23-.71-.89-.19-1.33-.34-1.01,.11-1.44-.04-.69-.78-1.12-.95-.92,.24-1.36,.25-.83,.03-1.29,.08c-.41,.04-.86-.19-1.34-.2-.4,0-.78-.26-1.25-.36-.39-.08-.95,.28-1.4,.1-.37-.15-.56-.76-.98-1-.35-.2-.85-.21-1.24-.48-.34-.23-.69-.5-1.06-.79-.32-.26-.67-.54-1.02-.85s-.43-.85-.75-1.18-.78-.52-1.07-.87-.48-.78-.74-1.15-.5-.75-.73-1.14-.86-.59-1.05-1-.15-.96-.3-1.38c-.16-.45-.25-.89-.35-1.32-.1-.47-.16-.91-.19-1.35-.03-.48,.24-.88,.31-1.31,.08-.47,0-.92,.21-1.31s.57-.64,.93-.93c.3-.25,.69-.49,1.12-.8,.34-.25,.48-.86,.9-1.14,.36-.24,1.02-.09,1.43-.34,.38-.24,.46-.98,.87-1.22,.39-.23,.81-.43,1.22-.67s.83-.4,1.25-.62,.89-.29,1.31-.5,.85-.37,1.27-.57,.89-.28,1.31-.47,.68-.79,1.1-.96,.88-.35,1.31-.51,.9-.31,1.33-.45,.9-.31,1.34-.43,.99,.07,1.44-.02c.47-.1,.9-.36,1.35-.41,.48-.06,.96-.11,1.4-.12,.49,0,.97,.34,1.43,.34,.5,0,.97-.17,1.43-.15,.5,.02,.99-.14,1.44-.11,.51,.03,.99,.06,1.43,.1,.52,.05,.94,.58,1.36,.64,.55,.07,1.1-.39,1.49-.32,.92,.16,.64,.44,1.33,.6Z" style="fill:#473513;"/><path d="M78.52,68.85c1.19,.21,.56,.87,2.3,.97,.64,.04,1.45-.52,2.42-.55,.71-.02,1.49-.09,2.39-.16,.73-.06,1.56,.14,2.43,.03,.87-.1,1.67,.07,2.4,.03,.9-.05,1.69-.48,2.38-.46,.97,.03,1.81-.08,2.43,0,1.63,.23,2.26,.93,2.3,.46,.03-.44-.34-1.35,.07-2.16,.25-.5,.85-.63,1.81-.92,.55-.17,1.16-.68,2.06-.71,.6-.02,1.09,.66,1.87,1.33,.51,.45,1.21,.83,1.78,1.53,.46,.56,.69,1.36,1.17,2.05,.43,.62,1.18,1.06,1.62,1.76,.4,.65,.39,1.57,.79,2.28,.38,.67,.77,1.35,1.15,2.06s1.17,1.16,1.53,1.87,1.03,1.26,1.37,1.97,.49,1.52,.82,2.24,.52,1.51,.82,2.23,.25,1.62,.54,2.34,1.14,1.28,1.4,2c.29,.77,.32,1.6,.56,2.32,.27,.79,.07,1.68,.27,2.39,.24,.83,.81,1.49,.96,2.19,.19,.93,.57,1.71,.56,2.33-.01,1.2-.51,1.92-1.04,2.17-.56,.27-1.28-.21-2.21-.66-.63-.3-1.33-.66-2.05-1.15-.63-.43-1.36-.79-2.02-1.28s-1.17-1.12-1.79-1.6c-.67-.51-1.62-.59-2.23-1.02-.76-.54-1.31-1.19-1.88-1.44-.83-.37-1.63-.62-2.17-1.12s-.81-1.35-1.48-1.9c-.53-.44-1.02-1.21-1.86-1.6-.62-.29-1.45-.44-2.34-.68-.68-.18-1.57,.23-2.45,.08-.71-.12-1.45-.47-2.31-.56-.73-.07-1.51-.41-2.36-.46-.81-.04-1.55-.31-2.21-.31-.83,0-1.53,.8-2.17,.86-.86,.09-1.72-.51-2.31-.34-.86,.25-1.16,1.28-1.66,1.63-.65,.45-1.47,.44-2.05,.87s-1.37,.62-2.32,.53c-.89-.08-2.04,.11-2.66-.41s-.65-1.6-.37-2.61c.19-.69,.33-1.66-.02-2.51-.28-.68-.83-1.37-1.26-2.1-.4-.68-1.31-1.1-1.69-1.78-.42-.74-.18-1.72-.4-2.41-.27-.85-.79-1.56-.45-2.25s.87-1.42,1-2.2,.3-1.51,.61-2.22,.24-1.78,1.05-2.23c.57-.31,1.55,.17,2.52,.03,.68-.09,1.47-.81,2.39-.79Z" style="fill:#473513;"/><path d="M49.46,108.9c.2-1.08,.48-.78,1.06-2,.27-.57,.52-1.28,.91-2.01,.32-.6,.88-1.13,1.28-1.8,.36-.6,.58-1.34,1-1.97,.4-.59,1.17-.94,1.62-1.53s.88-1.14,1.38-1.69,.97-1.08,1.5-1.57,1.15-.87,1.74-1.29,1-1.14,1.65-1.47,1.29-.8,1.98-1.02,1.48-.22,2.21-.28c.78-.07,1.55-.3,2.28-.28,.78,.01,1.55,.18,2.28,.28,.77,.1,1.45,.6,2.15,.79,.75,.2,1.6,.09,2.27,.38,.72,.31,1.26,.93,1.87,1.33,.65,.43,1.43,.69,1.95,1.22,.54,.55,.58,1.46,.96,2.1s.97,1.18,1.18,1.91,.59,1.46,.6,2.24c0,.73-.6,1.43-.78,2.19s.03,1.57-.17,2.28-.58,1.41-.83,2.1-.45,1.46-.75,2.13-.85,1.26-1.24,1.89-.54,1.48-1.03,2.05-1.07,1.11-1.66,1.58-1.43,.52-2.11,.88c-.64,.33-1.33,.51-2.08,.74-.68,.21-1.38,.33-2.16,.44-.7,.11-1.39,.46-2.13,.6s-1.44,.25-2.16,.37-1.42,.41-2.15,.51-1.48,.19-2.19,.23-1.51,.17-2.22,.11c-.75-.06-1.41-.58-2.09-.78s-1.52-.19-2.13-.6-.89-1.13-1.36-1.74c-.41-.54-.89-1.07-1.2-1.81-.26-.62-.57-1.29-.74-2.07-.15-.66-.43-1.37-.51-2.16-.07-.68-.15-1.49-.16-2.27Z" style="fill:#473513;"/></g></g></g><path d="M61.6,75.1s-19.64-16.56-24-14,3,28,3,28c0,0,7.17-5.37,12.04-8.19,4.87-2.82,8.96-5.81,8.96-5.81Z" style="fill:#473513;"/><path d="M90.02,75.1s19.64-16.56,24-14-3,28-3,28c0,0-7.17-5.37-12.04-8.19-4.87-2.82-8.96-5.81-8.96-5.81Z" style="fill:#473513;"/><path d="M90.66,211.05s-.05,0-.08,0c-.21,0-5.12-.25-11.72-4.08-6.74-3.9-9.93-11.16-10.07-11.47-.42-.96,.03-2.08,.99-2.5,.96-.42,2.08,.03,2.5,.99h0c.03,.06,2.85,6.43,8.49,9.69,5.8,3.36,9.93,3.57,9.97,3.57,1.05,.04,1.86,.93,1.82,1.98-.04,1.02-.88,1.82-1.9,1.82Zm48.74,31.57c0-1.05-.85-1.9-1.9-1.9-.06,0-5.88-.01-10.63-.96-5.75-1.15-10.68-2.91-10.73-2.93-.99-.35-2.08,.16-2.43,1.15s.16,2.08,1.15,2.43c.21,.08,5.24,1.87,11.27,3.08,5.13,1.03,11.12,1.04,11.37,1.04,1.05,0,1.9-.85,1.9-1.9ZM96.11,75.67c.39-.98-.09-2.08-1.06-2.47-.39-.15-9.58-3.77-19.84-3.77s-16.42,3.78-16.67,3.94c-.88,.57-1.13,1.74-.57,2.62,.56,.88,1.74,1.14,2.62,.58,.05-.03,5.36-3.34,14.62-3.34s18.34,3.47,18.43,3.5c.23,.09,.47,.13,.7,.13,.75,0,1.47-.45,1.77-1.2Zm-55.45,10.01c.87-.58,1.11-1.76,.53-2.64-1.71-2.56-4.14-17.18-3-20.01h.05c2.81,0,13.84,5.93,15.98,8.69,.64,.83,1.84,.98,2.67,.34,.83-.64,.98-1.84,.34-2.67-2.21-2.85-16.24-11.88-20.8-9.82-.9,.41-1.54,1.25-1.9,2.5-1.46,5.08,1.39,19.91,3.5,23.07,.37,.55,.97,.85,1.58,.85,.36,0,.73-.1,1.05-.32Zm72.94-.53c2.11-3.16,4.96-17.98,3.5-23.07-.36-1.25-1-2.09-1.9-2.5-4.56-2.05-18.59,6.97-20.8,9.82-.64,.83-.49,2.02,.34,2.67,.83,.64,2.02,.49,2.67-.34,2.14-2.77,13.2-8.71,15.94-8.71,.03,0,.06,0,.08,0,1.16,2.79-1.28,17.46-2.99,20.02-.58,.87-.35,2.05,.53,2.64,.32,.22,.69,.32,1.05,.32,.61,0,1.22-.3,1.58-.85Zm-24.91,160.71c0-.09,.23-9.23-.11-19.57-.28-8.54-1.45-10.48-2.56-11.26-.59-.42-1.33-.54-1.96-.33-1,.33-1.54,1.4-1.21,2.4,.16,.48,.49,.86,.91,1.08,.25,.58,.84,2.56,1.03,8.23,.34,10.22,.11,19.26,.11,19.35-.03,1.05,.8,1.92,1.85,1.95,.02,0,.03,0,.05,0,1.03,0,1.87-.82,1.9-1.85Zm-15.25,13.4c7.46-.03,11.03-3.16,11.18-3.29,.78-.69,.84-1.88,.15-2.66-.68-.78-1.88-.86-2.67-.19-.11,.09-2.77,2.31-8.68,2.34-3.52,0-7.67-.97-7.73-5.74-.03-2.2,.54-2.88,1.39-3.92,1.08-1.31,2.43-2.95,2.43-6.98v-1.57c.02-5.26-.05-5.94-2.58-12.79-.89-2.39-2.19-4.76-3.7-7.5-3.43-6.22-8.12-14.75-12.91-31.86-4.97-17.74,3-43.17,3.08-43.43,.32-1-.23-2.07-1.23-2.39-1-.32-2.07,.23-2.39,1.23-.35,1.08-8.4,26.76-3.12,45.61,4.91,17.54,9.72,26.28,13.24,32.67,1.5,2.71,2.67,4.86,3.46,6.99,2.37,6.4,2.37,6.59,2.35,11.46v1.59c0,2.67-.69,3.5-1.57,4.56-1.02,1.24-2.3,2.79-2.26,6.38,.07,5.95,4.34,9.5,11.45,9.5h.1Zm37.43-4.1c3.54-4.72,1.62-9.44,.35-12.57-.15-.37-.3-.73-.43-1.08-.84-2.21,.99-17.73,2.68-22.75,.33-1-.2-2.07-1.19-2.41-1-.34-2.07,.2-2.41,1.19-1.44,4.28-4.13,21.36-2.63,25.31,.14,.37,.3,.76,.46,1.16,1.4,3.43,2.22,6.07,.13,8.85-2.34,3.12-6.75,4.57-11.76,3.86-3.9-.55-6.07-1.92-6.74-2.92-.3-.45-.27-.76-.22-.98,.26-1.02-.36-2.05-1.38-2.31-1.02-.26-2.05,.36-2.31,1.38-.35,1.39-.09,2.78,.75,4.03,1.53,2.27,4.94,3.94,9.37,4.56,1.02,.14,2.02,.21,3,.21,5.17,0,9.66-1.98,12.34-5.56Zm-59.01-117.88c.9-.53,1.2-1.7,.67-2.6-.95-1.61-2.37-3.28-4.01-5.21-4.46-5.25-10.02-11.77-10.02-21.37s3.8-18.14,3.84-18.23c.42-.96-.01-2.08-.97-2.51-.96-.43-2.08,0-2.51,.97-.17,.38-4.16,9.51-4.16,19.77,0,11,6.31,18.42,10.92,23.83,1.53,1.8,2.85,3.35,3.64,4.68,.35,.6,.99,.93,1.64,.93,.33,0,.66-.08,.96-.26Zm160.9,59.73c0-.8-.16-19.85-29.09-39.48-10.51-7.13-22.76-10.29-34.62-13.34-14.09-3.63-27.4-7.06-33.76-16.96-.79-1.98-.72-4.15,.22-5.96,2.21-4.29,3.29-8.59,3.29-13.16,0-10.26-3.99-19.39-4.16-19.77-.43-.96-1.55-1.39-2.51-.97-.96,.42-1.39,1.55-.97,2.51,.04,.09,3.84,8.77,3.84,18.23,0,3.94-.94,7.68-2.86,11.42-1.48,2.87-1.58,6.26-.28,9.33,.04,.09,.09,.19,.14,.27,7.13,11.28,21.2,14.91,36.11,18.75,11.54,2.97,23.47,6.05,33.43,12.81,27.08,18.38,27.43,36.14,27.43,36.3,0,1.05,.83,1.91,1.88,1.92h.02c1.04,0,1.89-.84,1.9-1.88Zm-34.4,63.24c9.2-.32,27.69-10.73,35.35-21.97,7.82-11.48,1.27-30.15,.99-30.94-.35-.99-1.44-1.5-2.43-1.15-.99,.35-1.5,1.44-1.15,2.43,.06,.18,6.18,17.64-.55,27.52-6.9,10.12-24.07,20.03-32.34,20.32-5.61,.2-8.99,.13-12.56,.07-1.87-.03-3.81-.11-6.06-.07-2.9,0-12.83-.09-16.6-1.36-2.04-.68-2.51-1.62-2.51-5,0-3.79,14.66-8.29,28.35-10.12,1.04-.14,1.77-1.09,1.63-2.13-.14-1.04-1.09-1.76-2.13-1.63-7.42,.99-31.65,4.92-31.65,13.88,0,2.58,0,6.9,5.1,8.6,4.2,1.41,13.9,1.55,17.81,1.55,2.24,0,4.15,.03,5.99,.07,1.78,.03,3.52,.06,5.5,.06s4.36-.03,7.26-.13Z"/></g></svg>