<?xml version="1.0" encoding="UTF-8"?><svg id="pattern_1" xmlns="http://www.w3.org/2000/svg" xmlns:xlink="http://www.w3.org/1999/xlink" viewBox="0 0 280 280"><defs><clipPath id="clippath"><path d="m200.95,212.42s17.29-14.45,24.5-67.73c5.16-38.13,9.96-84.06-5.07-84.06-13.02,0-8.12,29.03-12.93,65.06-4,30-14,51-14,51,0,0-4.27,32.9,7.5,35.73Z" fill="none"/></clipPath><clipPath id="clippath-1"><path d="m200.89,211.24s17.29-14.45,24.5-67.73c5.16-38.13,9.96-84.06-5.07-84.06-13.02,0-8.12,29.03-12.93,65.06-4,30-14,51-14,51,0,0-4.27,32.9,7.5,35.73Z" fill="none"/></clipPath><clipPath id="clippath-2"><path d="m65.29,47.85c-5.4,5.92-6.81,16.25-4.4,24.14s21,23,35,23,25.8-11.67,32-22c3-5,4-18.23-4.22-25.14-9.67-8.13-14.68-10.86-29.78-10.86s-20.11,1.54-28.6,10.86Z" fill="none"/></clipPath><clipPath id="clippath-3"><path d="m187.9,152.99c-8.16-17.45-22.78-24.91-36.78-35.91-4.45-3.5-10.57-5.47-16-10-12-10-12-27-12-27,0,0-14.22,9.91-26.22,9.91s-16.78-.91-23.78-5.91c0,0,2.85,7.07,2.78,13.91-.1,9.47-2.42,21.54-3,32-1.28,22.96,7.07,62.73,14,77,6.33,13.04,6,39,6,39,0,0-8.61,5.28-7,10,1.61,4.72,6.41,4.88,11,4,4.13-.79,1.42-1.87,6-1.87s6.51,4.37,15,2.89c6.05-1.06,8-3.85,3-9.62-1.33-1.53-2-5.77-2-5.77,0,0-.63,5.34,1.22-4.53,2.41,5.04,9.5,1.03,11.85,4.67.81,1.26-.92,4.74,1.41,7.43,2.33,2.69,1.34,3.77,7.43,3.49,6.09-.28,24.61,2.08,30.38-1.27,5.78-3.34,22.27-11.16,25.7-30.41,3.95-22.14,5.67-40.65-9-72Z" fill="none"/></clipPath></defs><path d="m200.95,212.42s17.29-14.45,24.5-67.73c5.16-38.13,9.96-84.06-5.07-84.06-13.02,0-8.12,29.03-12.93,65.06-4,30-14,51-14,51,0,0-4.27,32.9,7.5,35.73Z" fill="#cd833b"/><g clip-path="url(#clippath)"><g clip-path="url(#clippath-1)"><path d="m233.68,93.17s-3.7-6.51-12.01-7.2c-5.82-.49-12.92,3.46-12.92,3.46,0,0,.41-9.85,0-18.7-.53-11.41,0-23.69,12.92-23.36,7.23.18,11.3,9.63,12.01,20.87.71,11.24,0,24.93,0,24.93Z" fill="#473513"/><path d="m214.86,179.25s-5.06-3.17-7.06-6.17-8-7-4-11,7.06,4.17,10.06,3.17,6.94-7.17,8.94-5.17,1,8,1,15-2.94,6.17-8.94,4.17Z" fill="#473513"/><path d="m197.86,152.25c-4-4,.94-8.17,5.94-9.17,1.39-.28,5,3,7,4s11,0,10,3-7,1-10,4-8.94,2.17-12.94-1.83Z" fill="#473513"/><path d="m212.8,112.08c2.19.44,5,5,9,5s6,1,8,4-8,0-10,1-8,2-11-1c-2.12-2.12-1-10,4-9Z" fill="#473513"/><path d="m198.86,169.25c1.18,1.9,3.26,8.08,6,11,2.74,2.92,8,12,5,17-1.86,3.09-7.9-1.22-10-2s-8.14-10.76-8-15c.1-3,4.31-15.33,7-11Z" fill="#473513"/><path d="m230.86,127.25c5,2,2.6,9.72.94,10.83-3,2-12,2-15,2s-8-3-6-7,7.06-1.83,10.06-2.83,5-5,10-3Z" fill="#473513"/><path d="m230.86,96.25c5,2,2.6,9.72.94,10.83-3,2-12,2-15,2s-8-3-6-7,7.06-1.83,10.06-2.83,5-5,10-3Z" fill="#473513"/></g></g><path d="m201.32,211.69c-.49,0-.99-.19-1.36-.57-.73-.75-.72-1.95.03-2.69,2.77-2.7,5.39-6.38,9.17-15.52,1.67-4.02,10.19-25.36,14.41-50.54,3.32-19.79,3.63-41.09,3.8-52.54l.04-2.31c.01-.63.06-1.4.11-2.29.16-2.56.38-6.07-.1-10.22-.12-1.04.63-1.99,1.67-2.11,1.05-.12,1.99.63,2.11,1.67.52,4.48.28,8.34.12,10.89-.05.82-.1,1.54-.11,2.12l-.04,2.3c-.17,11.55-.49,33.05-3.85,53.12-4.29,25.59-12.96,47.28-14.65,51.37-4.03,9.74-6.93,13.75-10.03,16.78-.37.36-.85.54-1.33.54Z"/><path d="m196.45,171.58c-.26,0-.53-.05-.79-.17-.96-.43-1.38-1.56-.94-2.52,4.61-10.15,7.96-26.1,11.86-48.54,2.33-13.38,2.47-25.24,2.59-34.77.18-14.8.3-24.57,8.6-26.65,2.11-.53,4.33-.11,6.42,1.21,2.72,1.72,4.88,4.86,5.51,7.99.21,1.03-.46,2.03-1.49,2.24-1.03.21-2.03-.46-2.24-1.49-.42-2.13-1.96-4.35-3.82-5.53-.83-.52-2.1-1.08-3.47-.74-5.21,1.3-5.54,8.78-5.72,23-.12,9.67-.26,21.7-2.64,35.38-3.95,22.73-7.36,38.94-12.14,49.46-.32.7-1.01,1.11-1.73,1.11Z"/><path d="m107.97,39.99s23.68-23.18,26.93-20c1.66,1.63,2.24,18.58-1,26-3.1,7.1-8,13-8,13,0,0-8.42-8.44-12.06-11.96-3.64-3.52-5.87-7.05-5.87-7.05Z" fill="#cd833b"/><path d="m81.24,39.99s-23.68-23.18-26.93-20c-1.66,1.63-2.24,18.58,1,26,3.1,7.1,8,13,8,13,0,0,8.42-8.44,12.06-11.96s5.87-7.05,5.87-7.05Z" fill="#cd833b"/><path d="m65.29,47.85c-5.4,5.92-6.81,16.25-4.4,24.14s21,23,35,23,25.8-11.67,32-22c3-5,4-18.23-4.22-25.14-9.67-8.13-14.68-10.86-29.78-10.86s-20.11,1.54-28.6,10.86Z" fill="#cd833b"/><path d="m187.9,152.99c-8.16-17.45-22.78-24.91-36.78-35.91-4.45-3.5-10.57-5.47-16-10-12-10-12-27-12-27,0,0-14.22,9.91-26.22,9.91s-16.78-.91-23.78-5.91c0,0,2.85,7.07,2.78,13.91-.1,9.47-2.42,21.54-3,32-1.28,22.96,7.07,62.73,14,77,6.33,13.04,6,39,6,39,0,0-8.61,5.28-7,10,1.61,4.72,6.41,4.88,11,4,4.13-.79,1.42-1.87,6-1.87s6.51,4.37,15,2.89c6.05-1.06,8-3.85,3-9.62-1.33-1.53-2-5.77-2-5.77,0,0-.63,5.34,1.22-4.53,2.41,5.04,9.5,1.03,11.85,4.67.81,1.26-.92,4.74,1.41,7.43,2.33,2.69,1.34,3.77,7.43,3.49,6.09-.28,24.61,2.08,30.38-1.27,5.78-3.34,22.27-11.16,25.7-30.41,3.95-22.14,5.67-40.65-9-72Z" fill="#cd833b"/><g clip-path="url(#clippath-2)"><path d="m91.25,55.29c-.86.09-2.59-3.45-4.32-7.3-1.69-3.76-2.94-9.34-2.59-10.5.8-2.7,3.42-.48,3.52.51s.8,5.23,1.67,8.68c.72,2.89,2.58,8.53,1.72,8.62Z" fill="#473513"/><path d="m97.43,55.29c.86.09,2.59-3.45,4.32-7.3,1.69-3.76,2.94-9.34,2.59-10.5-.8-2.7-3.42-.48-3.52.51-.1.99-.8,5.23-1.67,8.68-.72,2.89-2.58,8.53-1.72,8.62Z" fill="#473513"/><path d="m94.26,53.85c.54,0,1.46-5.88,1.87-11.32.25-3.29.32-6.22,0-6.79-.86-1.51-3.59-1.51-4.31,0-.27.56-.34,3.54,0,6.79.57,5.46,1.9,11.32,2.44,11.32Z" fill="#473513"/><path d="m73.8,62.73c0-.86-4.62-1.51-6.9,0-2.59,1.72-8.45,6.2-6.9,7.76,2.59,2.59,4.31-2.59,7.76-5.17,2.63-1.97,6.03-1.72,6.03-2.59Z" fill="#473513"/><path d="m72.07,73.07c-.86-.86-3.18,1.15-5.17,1.72-3.82,1.09-5.88-.52-6.39,1.47s3.8,1.98,6.39,1.12c2.59-.86,6.03-3.45,5.17-4.31Z" fill="#473513"/><path d="m115.19,62.73c0-.86,4.62-1.51,6.9,0,2.59,1.72,8.45,6.2,6.9,7.76-2.59,2.59-4.31-2.59-7.76-5.17-2.63-1.97-6.03-1.72-6.03-2.59Z" fill="#473513"/><path d="m116.91,73.07c.86-.86,3.18,1.15,5.17,1.72,3.82,1.09,5.88-.52,6.39,1.47s-3.8,1.98-6.39,1.12c-2.59-.86-6.03-3.45-5.17-4.31Z" fill="#473513"/><path d="m109.78,71.78c-.66-.27-.55-1.14.17-1.33s1.78-.63,3.12-1.45c1.72-1.06,2.75-2.35,3.36-3.5.38-.71,1.53-.51,1.51.25-.04,1.65-.66,3.62-2.93,5.11-2.29,1.51-4.04,1.42-5.24.92Z" fill="#473513"/><path d="m77.54,71.93c.69-.2.67-1.08-.03-1.35s-1.7-.81-2.95-1.78c-1.6-1.24-2.48-2.63-2.97-3.84-.3-.74-1.46-.67-1.53.09-.14,1.64.27,3.67,2.36,5.4,2.12,1.75,3.87,1.84,5.11,1.48Z" fill="#473513"/><path d="m81.16,54.57c.39.29.17.84-.34.85s-1.27.12-2.29.43c-1.31.41-2.2,1.09-2.79,1.74-.36.4-1.09.08-.95-.42.3-1.08,1.04-2.27,2.77-2.87,1.76-.61,2.89-.26,3.59.26Z" fill="#473513"/><path d="m106.58,54.84c-.36.32-.1.86.41.82s1.28,0,2.32.23c1.34.29,2.28.89,2.93,1.49.4.37,1.09-.01.91-.5-.39-1.05-1.23-2.17-3.01-2.62-1.8-.45-2.9,0-3.56.58Z" fill="#473513"/><path d="m85.4,48.49c.64-.28,1.23.26.91.84-.34.6-.67,1.48-.9,2.79-.3,1.68.03,3.05.51,4.06.3.62-.59,1.26-1.16.84-1.24-.92-2.34-2.39-2.02-4.66.32-2.29,1.52-3.37,2.67-3.87Z" fill="#473513"/><path d="m102.69,48.48c-.62-.3-1.24.23-.94.81.31.61.6,1.5.78,2.82.23,1.69-.16,3.04-.68,4.05-.32.62.54,1.28,1.13.87,1.27-.88,2.44-2.32,2.22-4.59-.23-2.3-1.38-3.41-2.51-3.95Z" fill="#473513"/></g><g clip-path="url(#clippath-3)"><path d="m154.53,161.61c-2.04-2.26-.96-7.46,1.92-10.66,4.55-5.06,8.9-4.78,12.48-2.13,2.88,2.13,1.99,9.53-2.88,12.79-4.87,3.26-8.64,3.2-11.52,0Z" fill="#a35519"/><path d="m158.17,192.01c-3.41-2.68-2.06-13.16,4.12-14.17,6.17-1.01,12.35-4.05,14.41,0,2.06,4.05,4.12,12.15,0,13.16-4.12,1.01-13.38,5.06-18.52,1.01Z" fill="#a35519"/><path d="m186.25,168.93c-3.26,1.81-9.11-2.02-9.11-5.06s2.73-6.07,6.38-5.06c3.65,1.01,3.65,4.05,3.65,6.07s.91,3.04-.91,4.05Z" fill="#a35519"/><path d="m179.83,124.16c1.55,5.7-4.92,14.17-8.88,13.41-3.96-.76-7.24-5.92-5.01-11.53,2.23-5.62,6.19-4.86,8.83-4.35s4.19-.71,5.06,2.48Z" fill="#a35519"/><path d="m189.89,211.02c-4.96-.66-9.05-9.96-6.98-13.43,2.06-3.47,7.26-4.65,10.74-.44s1.42,7.69.04,10c-1.38,2.32-1.02,4.24-3.8,3.87Z" fill="#a35519"/><path d="m209.41,158.51c-3.92,2.22-11.01-2.35-11.03-6.01-.03-3.66,3.25-7.35,7.65-6.17,4.4,1.18,4.43,4.84,4.45,7.29s1.12,3.65-1.06,4.89Z" fill="#473513"/><path d="m158.39,183.06c-1.1,0-1.1-3.66,4.4-8.54,3.84-3.41,15.38-4.88,18.68,0,3.3,4.88,1.1,15.87-5.49,18.31-5.32,1.97-12.09,3.66-14.29,0-.61-1.02,7-1.52,9.89-3.66,3.3-2.44,7.12-6.44,4.4-10.99-2.2-3.66-6.59-2.44-10.99,0-2.78,1.54-5.49,4.88-6.59,4.88Z" fill="#473513"/><path d="m156.19,185.5c3.3,0,.13,2.58,1.1,3.66,1.64,1.82,4.12,1.21,3.3,2.44-2.21,3.28-5.71,1.97-6.59,0-1.1-2.44-.36-6.1,2.2-6.1Z" fill="#473513"/><path d="m146.12,169.3c-3.4-2.26-3.3-6.1,0-6.1s5.49-3.66,6.59-1.22-1.1,10.99-6.59,7.32Z" fill="#473513"/><path d="m162.62,122.98c2.59-5.17,6.61-5.38,11.7-2.03,8.56,5.64,5.94,13.7,4.31,17.11-1.54,3.24-5.54,3.93-5.43-1.24.08-3.66,4.62-9.08-.47-12.44-7.62-5.02-4.28,6.67-6.79,8.7-3.77,3.05-6-4.75-3.32-10.11Z" fill="#473513"/><path d="m171.05,207.63c3.23.72,6.59,6.1,2.2,6.1s-6.59-3.66-15.38-2.44c-3.45.48-16.48,4.88-14.29,1.22,2.2-3.66,6.59-6.1,12.09-6.1s9.89,0,15.38,1.22Z" fill="#473513"/><path d="m170.97,224.9c3.23-.72,6.59-6.1,2.2-6.1s-6.59-1.22-15.38-2.44c-3.45-.48-16.48,0-14.29,3.66,2.2,3.66,6.59,1.22,12.09,1.22s9.89,4.88,15.38,3.66Z" fill="#473513"/><path d="m180.08,205.03c-1.65-2.59,0-9.76,3.12-7.32,3.12,2.44.78,3.66.78,6.1s-1.56,4.88-3.9,1.22Z" fill="#473513"/><path d="m178.52,229.26c1.1,0,10.99-2.44,9.89,3.66-1.1,6.1-12.09,6.1-15.38,3.66-3.3-2.44-3.3-7.32,5.49-7.32Z" fill="#473513"/><path d="m155.7,245.08c2.2-1.22,7.69,2.44,12.09,2.44s10.99,4.88,7.69,7.32c-3.3,2.44-19.78-3.66-19.78-3.66,0,0-4.4-3.66,0-6.1Z" fill="#473513"/><path d="m186.68,196.09c-.18,4.4,5.16,1.28,6.11,5,1.24,4.84-.2,7.15-2.1,7.68-2.4.67-2.96-3.08-4.51-3-3.16.17-1.43,3.09-1.48,4.31-.05,1.22,2.82,5.77,6.44,3.98,6.73-3.33,7.47-10.24,6.07-14.36-2.95-8.7-10.35-8.48-10.54-3.61Z" fill="#473513"/><path d="m205.15,182.83c-1.39-3.09-2.2-8.54-1.1-10.99,1.1-2.44,6.59-2.44,6.59,0,0,1.16-2.51,1.31-3.3,3.66-.86,2.58,0,7.32,0,7.32,0,0-1.1,2.44-2.2,0Z" fill="#473513"/><path d="m214.01,175.61c.86,3.32,1.41,7.49-.07,9.67-1.48,2.18-5.58,4.06-5.18,1.66.19-1.15,2.29-2.78,2.98-5.33.76-2.79.11-6.45.11-6.45,0,0,1.48-2.18,2.16.45Z" fill="#473513"/><path d="m155.49,107.94c5.48-1.8,13.39-.79,11.2,4.09-2.2,4.88-7.69,8.54-10.99,8.54s2.2-4.88,2.2-7.32-4.81-4.52-2.4-5.31Z" fill="#473513"/><path d="m156.76,132.12c-1.82-1.84-10.42,3.46-13.03,8.83-2.61,5.37-1.64,5.95-6.71,11.24s-8.41,1.89-7.52,5.2,12.36-2.3,13.4-4.45c1.04-2.15,3.73-10.25,8.2-11.73,4.47-1.48,9.01-5.7,5.66-9.09Z" fill="#473513"/><path d="m138.2,106.29c-4.27,1.15-6.5,9.61-9.14,11.44-2.63,1.83-6.05,5.55-8.69,7.38-1.86,1.29-9.76,5.44-13.22,5.8-3.46.37-1.63,4.3,1.83,3.93,3.46-.37,9.19-1.15,13.14-3.89,3.95-2.75,11.13-7.36,14.01-10.38,2.88-3.02,9.93-8.45,9.31-11.17-.62-2.72-4.86-3.75-7.25-3.11Z" fill="#473513"/><path d="m55.81,104.11c4.27,1.15,6.5,9.61,9.14,11.44,2.63,1.83,7.08,6.96,9.72,8.79,1.86,1.29,8.73,4.03,12.19,4.4,3.46.37,1.81,3.29-1.65,2.93-3.46-.37-13.06,5.22-17.01,2.47-3.95-2.75-8.15-6.68-11.03-9.7s-9.22-14.49-8.6-17.21c.62-2.72,4.86-3.75,7.25-3.11Z" fill="#473513"/><path d="m106.34,162.34c2.76,2.35,18.62-1.65,19.5-3.89.88-2.24-9.51-3.26-12.4-2-2.89,1.26-10.69,2.82-7.1,5.89Z" fill="#473513"/><path d="m77.58,102.01s0,12.21,3.1,13.43c3.1,1.22,12.45-.09,16.92-1.22,4.83-1.22,14.48,1.22,17.57,0s11.62-8.54,13.68-10.99,6.19-9.76,8.26-7.32c2.06,2.44,2.06,7.32-3.1,10.99-5.16,3.66-12.69,11.97-18.84,13.43-5.16,1.22-12.74-2.44-16.61-2.44-3.65,0-14.79,6.1-18.92,3.66s-6.19-6.1-6.19-12.21,3.1-8.54,4.13-7.32Z" fill="#473513"/><path d="m59.11,138.75c-1.23,2.44,7.41,10.99,13.58,10.99s8.64-2.44,14.81-2.44,20.98,6.1,28.39,2.44c7.41-3.66,23.45-19.53,22.22-21.97-1.23-2.44-20.98,15.87-27.15,15.87s-17.28-2.44-25.92-2.44c-7.41,0-8.64,2.44-13.58,2.44s-11.11-7.32-12.34-4.88Z" fill="#473513"/><path d="m99.6,176.24c4.24-1.29,11.07-5.91,15.31-7.2,4.24-1.29,10.51,5.65,14.75,4.36,4.37-1.33,7.31-7.29,8.19-3.76s-4.03,11.36-7.5,11.15c-3.47-.21-7.11-5.53-13.47-3.59-6.36,1.94-12.16,3.66-16.12,3.76-4.53.12-6.46-3.09-1.16-4.71Z" fill="#473513"/><path d="m114.02,199.84c.68-3.2,3.98-1.98,9.47-.76s14.29,2.44,16.48-1.22c2.2-3.66,7.69-2.44,10.99-1.22,3.3,1.22,3.3,4.88-1.1,6.1-4.4,1.22-13.19,4.88-17.58,4.88s-9.89-2.44-13.19-2.44-5.76-2.14-5.08-5.34Z" fill="#473513"/><path d="m109.07,212.69h5.49c5.49,0,8.79,1.22,10.99,4.88,2.2,3.66-1.1,2.44-5.49,2.44s-8.76,3.06-11.52,2.14c-2.76-.92-1.66-9.46.53-9.46Z" fill="#473513"/><path d="m129.04,230.32s-4.6-4.64-7.89-4.47c-3.29.18-6.43,4.01-8.62,4.13-2.2.12-3.13,3.83,1.26,3.6,4.39-.23,9.77-2.97,12.13.58s3.13-3.83,3.13-3.83Z" fill="#473513"/><path d="m66.52,152.56c3.33-.1,9.8,10.76,15.29,9.54,5.49-1.22,9.89,6.1,6.59,6.1s-9.89,1.22-14.29,0c-4.4-1.22-10.99-9.76-10.99-9.76,0,0-4.21-5.66,3.39-5.88Z" fill="#473513"/><path d="m71.75,208.5c2.2-2.44,5.49-2.44,10.99,0,5.49,2.44,7.69,6.1,10.99,6.1s10.5.84,9.65,3.47c-.85,2.63-5.25,2.63-9.65,2.63s-17.58-1.22-19.78-4.88c-2.2-3.66-4.4-4.88-2.2-7.32Z" fill="#473513"/><path d="m104.79,232.04c-2.93-2.32-11.72,1.34-15.01,2.56s-4.4,4.88,4.4,4.88,9.95,4.97,12.09,1.22c2.14-3.75,1.46-6.35-1.47-8.67Z" fill="#473513"/><path d="m134.66,231.01c3.66-2.71,7.69-4.88,12.09-4.88s12.09,6.1,7.69,8.54c-4.4,2.44-9.89,2.44-14.29,1.22-4.4-1.22-8.79-2.44-5.49-4.88Z" fill="#473513"/><path d="m178.48,157.13c3.54-1.97,5.69-2.42,8.47-.88,3.5,1.95,6.13,12.65,3.5,14.6-2.74,2.03-7.96,1.03-8.76-.97-1.4-3.53,5.57-2.25,5.57-4.69s-1.19-5.04-3.82-6.01c-2.33-.86-4.97,4.06-6.07,1.62,0,0-1.1-2.44,1.1-3.66Z" fill="#473513"/><path d="m198.55,271.93c-2.46,0-7.69-4.88-10.99-7.32-3.3-2.44-16.48-1.22-17.58-3.66-1.1-2.44,13.19-1.22,17.58-1.22s8.79,1.22,12.09,6.1c3.3,4.88,5.49,6.1-1.1,6.1Z" fill="#473513"/><path d="m99.43,199.94c.57,1.6-17.58-1.22-21.98-2.44-5.44-1.51-8.12-6.27-5.23-7.54,2.89-1.28,6.35-.95,8.94,1.62,2.59,2.57,7.14,2.62,9.47,3.48,3.3,1.22,7.64,1.67,8.79,4.88Z" fill="#473513"/><path d="m211.74,259.73s-5.49-2.44-7.69-2.44-7.69-4.88-3.3-4.88,5.49,1.22,8.79,1.22,9.15-2.35,8.97.05c-.18,2.4-1.28,6.06-6.77,6.06Z" fill="#473513"/><path d="m153.47,156.68c1.5,1.36.1-1.4,4.56-5.56,3.15-2.94,6.39-4.77,8.79-1.96,2.53,2.96.87,6.37-1.67,9.54-3.28,4.1-9.78,4.69-8.78,6.44.88,1.55,7.97,2.01,12.49-2.5,4.51-4.51,8.1-8.63,5.51-14.44-2.19-4.89-9.72-8.43-16.48-2.49-5.6,4.92-6.25,9.31-4.42,10.97Z" fill="#473513"/></g><path d="m196.4,181.27s-.03,0-.05,0c-1.05-.03-1.88-.9-1.85-1.94,0-.09.06-4.84-2.27-12.04-2.16-6.67-6.87-16.86-17.07-27.54-12.68-13.28-21.07-18.29-29.95-23.59-3.07-1.83-6.24-3.72-9.64-5.99-10.12-6.75-16.06-19.22-13.8-29.01.78-3.38,2.22-5.74,3.48-7.82,1.37-2.25,2.56-4.2,3-7.26.56-3.82.04-7.91-.49-10.67-.2-1.03.48-2.03,1.51-2.23,1.03-.2,2.03.48,2.23,1.51.59,3.05,1.15,7.59.52,11.94-.56,3.83-2.06,6.29-3.52,8.68-1.23,2.01-2.38,3.91-3.02,6.69-1.89,8.19,3.47,19.17,12.2,24.99,3.32,2.22,6.46,4.08,9.48,5.89,9.11,5.44,17.71,10.57,30.75,24.22,20.67,21.65,20.41,41.46,20.39,42.29-.03,1.03-.87,1.85-1.9,1.85Z"/><path d="m79.79,41.27c-.72,0-1.41-.41-1.73-1.11-.44-.95-.02-2.08.93-2.52.22-.1,5.62-2.53,15.98-2.53s15.18,2.47,15.38,2.58c.93.49,1.28,1.64.79,2.57-.49.93-1.64,1.28-2.57.79-.03-.01-4.26-2.13-13.6-2.13s-14.34,2.16-14.39,2.18c-.26.12-.53.17-.79.17Z"/><path d="m131.53,52.39c-.36,0-.73-.1-1.05-.32-.87-.58-1.11-1.76-.53-2.63,1.91-2.87,3.33-5.3,4.22-7.25,2.9-6.3,1.7-18.75.21-21.22-2.06.68-8.61,4.52-13.93,9.08-2.5,2.15-5.46,5.49-6.85,7.21-.66.82-1.85.95-2.67.29-.82-.66-.95-1.85-.29-2.67,1.47-1.83,4.64-5.4,7.34-7.72,4.44-3.81,14.27-10.62,17.27-10.05,1.03.19,1.88.93,2.53,2.2,2.21,4.28,2.95,17.72-.16,24.46-.98,2.12-2.49,4.73-4.51,7.76-.37.55-.97.85-1.58.85Zm3.26-31.52h0Z"/><path d="m57.42,52.39c-.62,0-1.22-.3-1.58-.85-2.01-3.03-3.53-5.64-4.51-7.76-3.11-6.74-2.37-20.18-.16-24.46.65-1.27,1.5-2.01,2.53-2.2.58-.11,1.93-.36,7.58,3.07,3.37,2.04,6.9,4.59,9.69,6.99,2.7,2.31,5.87,5.88,7.34,7.72.66.82.53,2.01-.29,2.67s-2.01.53-2.67-.29c-1.38-1.72-4.34-5.06-6.85-7.21-5.33-4.57-11.87-8.41-13.93-9.08-1.49,2.47-2.69,14.92.21,21.22.9,1.94,2.31,4.38,4.22,7.25.58.87.34,2.05-.53,2.63-.32.21-.69.32-1.05.32Zm-3.26-31.52h0Z"/><path d="m76.13,95.98c-.11,0-.22,0-.33-.03-1.03-.18-1.72-1.15-1.55-2.18.02-.13.35-2.57-1.43-5.23-.49-.73-1.66-1.83-3.01-3.1-4.23-3.98-10.63-9.99-11.92-18.81-.64-4.35-.07-8.89.52-11.94.2-1.03,1.19-1.71,2.23-1.51,1.03.2,1.71,1.2,1.51,2.23-.53,2.76-1.05,6.85-.49,10.67,1.1,7.51,6.91,12.98,10.76,16.59,1.59,1.49,2.84,2.67,3.57,3.76,2.67,3.99,2.04,7.81,2.02,7.97-.16.92-.96,1.58-1.87,1.58Z"/><path d="m104.4,250.54c-1.01,0-1.85-.8-1.9-1.82-.01-.33-1.37-32.84-2.49-41.48-1.41-10.87-3.48-17.03-4.37-19.66l-.18-.53-4.21-7.09c-.54-.9-.24-2.07.66-2.6.9-.54,2.07-.24,2.6.66l4.31,7.26c.07.12.13.25.17.38l.23.7c.92,2.74,3.07,9.14,4.53,20.38,1.14,8.81,2.46,40.47,2.52,41.82.04,1.05-.77,1.93-1.82,1.98-.03,0-.05,0-.08,0Z"/><path d="m116.21,262.93c-1.83,0-3.5-.21-4.53-.37-3.64-.58-6.53-2.08-7.92-4.14-.84-1.24-1.12-2.63-.81-4.03.23-1.02,1.25-1.67,2.27-1.44,1.02.23,1.67,1.25,1.44,2.27-.05.22-.08.58.25,1.06.61.9,2.34,2.04,5.37,2.52,4.04.64,7.59.33,9.05-.79.43-.33.64-.7.69-1.22.28-2.77-1.16-4.64-2.69-6.61-.91-1.18-1.78-2.29-2.22-3.59-1.38-4.07,10.84-56.68,10.98-57.16.3-1.01,1.36-1.58,2.37-1.27,1,.3,1.58,1.36,1.27,2.37-1.65,5.5-11.32,50.75-10.98,54.94.26.67.9,1.5,1.58,2.38,1.65,2.13,3.91,5.04,3.47,9.33-.16,1.55-.9,2.88-2.15,3.84-1.95,1.5-4.85,1.9-7.43,1.9Zm4.54-17.38h.01-.01Z"/><path d="m93.75,262.34c-6.06,0-9.86-3.4-9.92-8.9-.04-3.75,2.5-5.28,4.36-6.39,1.9-1.14,2.81-1.77,2.81-3.7,0-6.17-2.75-27.3-4.9-33.68-.35-1.05-.87-2.48-1.5-4.22-3.35-9.25-10.32-28.51-12.58-46.22-2.73-21.39-1.49-28.72.24-38.87.25-1.48.51-3.02.77-4.67.74-4.68,1.2-15.58,1.2-15.69.04-1.05.91-1.85,1.98-1.82,1.05.04,1.86.93,1.82,1.98-.02.46-.48,11.23-1.24,16.12-.26,1.67-.53,3.22-.78,4.72-1.67,9.82-2.87,16.91-.21,37.75,2.21,17.29,9.08,36.28,12.39,45.4.64,1.77,1.17,3.23,1.53,4.29,2.43,7.2,5.1,29,5.1,34.9,0,4.17-2.69,5.78-4.66,6.96-1.87,1.13-2.53,1.65-2.51,3.09.04,3.43,2.12,5.11,6.18,5.14,4.74-.02,6.68-1.79,6.76-1.86.76-.71,1.95-.7,2.67.05.72.74.73,1.91,0,2.65-.3.3-3.08,2.93-9.42,2.97h-.08Z"/><path d="m160.81,258.07c-1.72,0-3.22-.04-4.77-.08-1.6-.04-3.21-.06-5.17-.08-4.35,0-12.06-.24-15.67-1.86-2.66-1.2-5.62-3.8-4.6-9.42,1.21-6.65,22.2-8.9,31.17-9.55,1.03-.07,1.96.71,2.03,1.76.08,1.05-.71,1.96-1.76,2.03-14.08,1.03-27.29,4.1-27.71,6.44-.5,2.75.2,4.27,2.42,5.27,2.5,1.12,8.88,1.52,14.05,1.52h.16c1.94,0,3.57.04,5.17.08,3.08.07,5.99.15,10.82-.08,6.37-.3,21.3-10.97,27.68-23.55,6.02-11.88,2-37.83,1.96-38.09-.16-1.04.54-2.01,1.58-2.17,1.05-.17,2.01.54,2.17,1.58.18,1.11,4.25,27.43-2.33,40.41-5.54,10.92-21.19,25.18-30.89,25.63-2.53.12-4.54.16-6.32.16Z"/></svg>