<?xml version="1.0" encoding="UTF-8"?><svg xmlns="http://www.w3.org/2000/svg" viewBox="0 0 280 280"><path d="M199.53,208.04s17.29-14.45,24.5-67.73c5.16-38.13,9.96-84.06-5.07-84.06-13.02,0-8.12,29.03-12.93,65.06-4,30-14,51-14,51,0,0-4.27,32.9,7.5,35.73Z" style="fill:#d79a59;"/><path d="M187.71,152.99c-8.16-17.45-22.78-24.91-36.78-35.91-4.45-3.5-10.57-5.47-16-10-12-10-12-27-12-27,0,0-.22,.16-.64,.43,2.1-2.46,3.92-5.03,5.42-7.52,2.12-3.53,3.22-11.17,.8-17.78,1.62-2.37,3.64-5.64,5.2-9.22,3.24-7.42,2.66-24.37,1-26-2.8-2.75-20.81,14.13-25.7,18.81-3.99-1.28-8.67-1.81-15.3-1.81-6.24,0-10.75,.27-14.5,1.23-5.61-5.34-22.39-20.88-25.09-18.23-1.66,1.63-2.24,18.58,1,26,1.71,3.91,3.96,7.46,5.64,9.85-1.57,5.21-1.58,11.16-.05,16.15,1.24,4.05,6.43,9.75,13.05,14.46,.84,2.65,2,7.14,1.95,11.54-.1,9.47-2.42,21.54-3,32-1.28,22.96,7.07,62.73,14,77,6.33,13.04,6,39,6,39,0,0-8.61,5.28-7,10,1.61,4.72,6.41,4.88,11,4,4.13-.79,1.42-1.87,6-1.87s6.51,4.37,15,2.89c6.05-1.06,8-3.85,3-9.62-.97-1.12-1.59-3.69-1.85-4.99,.19-.78,.52-2.37,1.08-5.31,2.41,5.04,9.5,1.03,11.85,4.67,.81,1.26-.92,4.74,1.41,7.43,2.33,2.69,1.34,3.77,7.43,3.49,6.09-.28,24.61,2.08,30.38-1.27,5.78-3.34,22.27-11.16,25.7-30.41,3.95-22.14,5.67-40.65-9-72Z" style="fill:#d79a59;"/><path d="M193.11,165.32c-7.76,11.46-24.8,15.49-28.46,7.31-5.33-11.93-16.57,6.01-30.25-9.11-13.68-15.12-7.45-38.21-1.84-43.92,3.39-3.45,8.47-5.16,14.3-5.4-.88-.5-1.78-.99-2.71-1.49-3.02-1.63-6.15-3.32-9.11-5.78-11.03-9.19-11.86-24.54-11.92-26.61-.09,.06-.18,.12-.3,.2,.1-.12,.2-.25,.3-.37v-.07l-.15-.08c1.82-2.2,3.47-4.52,4.9-6.91,2.2-3.66,3.12-11.09,.99-17.43-4.84-3.08-16.52-8.98-35.09-8.98-16.42,0-26.32,5.64-31.21,9.55h-2.13c-1.45,5.15-1.44,10.88,.07,15.81,1.24,4.05,6.37,9.75,13.07,14.53,.91,2.89,1.97,7.19,1.92,11.41-.06,5.22-.77,11.11-1.53,17.34-.6,4.9-1.21,9.96-1.47,14.65-1.24,22.29,6.85,62.33,14.02,77.1,6.03,12.42,5.99,36.95,5.98,38.8-.99,.62-8.56,5.57-6.99,10.18,1.03,3.02,3.49,4.55,7.29,4.55,1.17,0,2.46-.14,3.94-.42,1.95-.38,2.44-.83,2.83-1.19,.42-.39,.73-.68,3.13-.68,1.72,0,3.04,.62,4.56,1.34,1.83,.87,3.91,1.85,7.13,1.85,1.04,0,2.17-.1,3.34-.31,3.35-.58,5.26-1.65,5.84-3.27,.6-1.69-.29-3.87-2.72-6.68-.93-1.07-1.53-3.53-1.81-4.81,.21-.83,.53-2.43,.98-4.77,1.44,2.34,4.08,2.42,6.43,2.49,2.13,.06,4.14,.12,5.16,1.7,.27,.42,.22,1.18,.16,2.07-.11,1.62-.24,3.64,1.27,5.38,.49,.57,.83,1.06,1.13,1.5,.96,1.4,1.45,2.1,4.79,2.1,.49,0,1.04-.01,1.67-.04,.36-.02,.76-.02,1.19-.02,1.69,0,3.9,.11,6.46,.23,3.21,.16,6.86,.33,10.34,.33h0c6.25,0,10.33-.6,12.47-1.84,.43-.25,.93-.53,1.47-.83,6.86-3.84,21.13-11.82,24.33-29.72,3.44-19.28,5.17-35.51-3.79-59.7Zm-8.86,63.09c-12.18,10.53-21.45,5.94-33.21-3.42-10.02-7.98-13.31-22.96-7.08-32.98,4.98-8.01,20.92-18.6,32.99-6.08,12.07,12.52,19.49,31.95,7.31,42.48Z" style="fill:#fff;"/><g><path d="M200.32,207.31c-.49,0-.99-.19-1.36-.57-.73-.75-.72-1.95,.03-2.69,2.77-2.7,5.39-6.38,9.17-15.52,1.67-4.02,10.19-25.36,14.41-50.54,3.32-19.77,3.63-41.08,3.8-52.52l.04-2.33c.01-.63,.06-1.4,.11-2.29,.16-2.56,.38-6.07-.1-10.22-.12-1.04,.63-1.99,1.67-2.11,1.05-.13,1.99,.63,2.11,1.67,.52,4.48,.28,8.34,.12,10.89-.05,.82-.1,1.54-.11,2.12l-.04,2.33c-.17,11.55-.49,33.04-3.85,53.09-4.29,25.59-12.96,47.28-14.65,51.37-4.04,9.74-6.93,13.75-10.03,16.78-.37,.36-.85,.54-1.33,.54Z"/><path d="M196.26,165.33c-.24,0-.49-.05-.72-.14-.97-.4-1.43-1.51-1.03-2.48,4.23-10.24,7.48-26.08,11.08-46.73,2.33-13.38,2.47-25.24,2.59-34.77,.18-14.8,.3-24.57,8.6-26.65,2.11-.53,4.33-.11,6.42,1.21,2.72,1.72,4.88,4.86,5.51,7.99,.21,1.03-.46,2.03-1.49,2.23-1.02,.21-2.03-.46-2.23-1.49-.42-2.13-1.96-4.35-3.81-5.53-.83-.52-2.11-1.08-3.47-.74-5.21,1.3-5.54,8.78-5.72,23.01-.12,9.67-.26,21.7-2.64,35.38-3.63,20.89-6.95,36.97-11.31,47.53-.3,.73-1.01,1.17-1.76,1.17Z"/><path d="M196.63,181.27s-.03,0-.05,0c-1.05-.03-1.88-.9-1.85-1.94,0-.09,.06-4.84-2.27-12.04-2.16-6.67-6.87-16.86-17.07-27.54-12.68-13.28-21.07-18.29-29.95-23.59-3.07-1.83-6.24-3.72-9.64-5.99-10.12-6.75-16.06-19.22-13.8-29.01,.78-3.38,2.22-5.74,3.48-7.82,1.37-2.25,2.55-4.19,3-7.26,.56-3.82,.04-7.91-.49-10.67-.2-1.03,.48-2.03,1.51-2.23,1.03-.2,2.03,.48,2.23,1.51,.59,3.05,1.15,7.59,.52,11.94-.56,3.83-2.06,6.29-3.52,8.68-1.23,2.01-2.38,3.91-3.02,6.69-1.89,8.19,3.47,19.17,12.2,24.99,3.32,2.22,6.45,4.08,9.48,5.89,9.11,5.44,17.71,10.57,30.75,24.23,20.67,21.65,20.41,41.46,20.39,42.3-.03,1.03-.87,1.85-1.9,1.85Z"/><path d="M109.68,41.27c-.3,0-.61-.07-.89-.22-.03-.02-4.26-2.13-13.6-2.13s-14.35,2.16-14.39,2.18c-.96,.43-2.08,0-2.51-.94-.43-.95-.02-2.07,.93-2.51,.22-.1,5.62-2.53,15.97-2.53s15.18,2.47,15.38,2.58c.93,.49,1.28,1.64,.79,2.57-.34,.64-1,1.01-1.68,1.01Z"/><path d="M131.77,52.39c-.36,0-.73-.1-1.05-.32-.87-.58-1.11-1.76-.53-2.63,1.91-2.87,3.33-5.31,4.22-7.24,2.9-6.3,1.7-18.75,.21-21.22-2.06,.68-8.61,4.52-13.93,9.08-2.5,2.15-5.47,5.49-6.85,7.21-.66,.82-1.85,.95-2.67,.29-.82-.66-.95-1.85-.29-2.67,1.47-1.83,4.63-5.4,7.34-7.72,4.44-3.81,14.28-10.63,17.27-10.05,1.03,.19,1.88,.93,2.53,2.2,2.21,4.28,2.95,17.72-.16,24.46-.98,2.11-2.49,4.72-4.51,7.76-.37,.55-.97,.85-1.58,.85Zm3.26-31.52"/><path d="M57.65,52.39c-.62,0-1.22-.3-1.58-.85-2.01-3.03-3.53-5.64-4.51-7.76-3.11-6.74-2.37-20.18-.16-24.46,.65-1.27,1.5-2.01,2.53-2.2,.58-.11,1.93-.36,7.58,3.07,3.37,2.04,6.9,4.59,9.69,6.99,2.7,2.31,5.87,5.88,7.34,7.72,.66,.82,.52,2.01-.29,2.67-.82,.66-2.02,.52-2.67-.29-1.38-1.72-4.34-5.06-6.85-7.21-5.33-4.57-11.87-8.41-13.93-9.08-1.49,2.47-2.69,14.92,.21,21.22,.9,1.94,2.32,4.38,4.22,7.24,.58,.87,.34,2.05-.53,2.63-.32,.21-.69,.32-1.05,.32Zm-3.26-31.52h0Z"/><path d="M76.36,95.98c-.11,0-.22,0-.33-.03-1.03-.18-1.72-1.15-1.55-2.18,.02-.14,.35-2.57-1.43-5.23-.49-.73-1.66-1.83-3.01-3.1-4.23-3.98-10.63-9.99-11.92-18.81-.64-4.35-.07-8.89,.52-11.94,.2-1.03,1.19-1.7,2.23-1.51,1.03,.2,1.71,1.19,1.51,2.23-.53,2.76-1.05,6.85-.49,10.67,1.1,7.51,6.91,12.98,10.76,16.59,1.59,1.49,2.84,2.67,3.57,3.76,2.67,3.99,2.04,7.81,2.02,7.97-.16,.92-.96,1.58-1.87,1.58Z"/><path d="M104.63,250.54c-1.01,0-1.85-.8-1.9-1.82-.01-.33-1.37-32.84-2.49-41.48-1.41-10.87-3.48-17.03-4.37-19.66l-.17-.52-4.21-7.09c-.54-.9-.24-2.07,.66-2.6,.9-.54,2.07-.24,2.6,.66l4.31,7.26c.07,.12,.13,.25,.17,.38l.23,.7c.92,2.74,3.07,9.14,4.53,20.38,1.14,8.81,2.46,40.47,2.52,41.82,.04,1.05-.77,1.93-1.82,1.98-.03,0-.05,0-.08,0Z"/><path d="M116.44,262.93c-1.83,0-3.5-.21-4.53-.37-3.64-.58-6.53-2.08-7.92-4.14-.84-1.24-1.12-2.63-.81-4.03,.23-1.02,1.25-1.67,2.27-1.44,1.02,.23,1.67,1.25,1.44,2.27-.05,.22-.08,.58,.25,1.06,.61,.9,2.34,2.04,5.37,2.52,4.04,.64,7.59,.33,9.05-.79,.43-.33,.64-.7,.69-1.22,.28-2.77-1.16-4.64-2.69-6.61-.91-1.18-1.78-2.29-2.22-3.59-1.38-4.08,10.84-56.68,10.98-57.16,.3-1,1.36-1.58,2.37-1.27,1,.3,1.58,1.36,1.27,2.37-1.65,5.5-11.32,50.75-10.98,54.94,.26,.67,.9,1.5,1.58,2.38,1.65,2.13,3.91,5.04,3.47,9.33-.16,1.55-.9,2.88-2.15,3.84-1.95,1.5-4.85,1.9-7.43,1.9Zm4.54-17.38h0Z"/><path d="M93.98,262.34c-6.06,0-9.86-3.4-9.92-8.9-.04-3.75,2.5-5.28,4.36-6.39,1.9-1.14,2.81-1.77,2.81-3.7,0-6.17-2.75-27.3-4.9-33.68-.35-1.05-.87-2.48-1.5-4.22-3.35-9.25-10.32-28.51-12.58-46.21-2.73-21.4-1.49-28.72,.24-38.87,.25-1.48,.51-3.02,.77-4.67,.74-4.68,1.2-15.58,1.2-15.69,.04-1.05,.93-1.87,1.98-1.82,1.05,.04,1.86,.93,1.82,1.98-.02,.46-.48,11.23-1.25,16.12-.26,1.67-.53,3.22-.78,4.71-1.67,9.82-2.87,16.91-.21,37.75,2.21,17.28,9.08,36.27,12.39,45.4,.64,1.78,1.17,3.23,1.53,4.3,2.43,7.2,5.1,29,5.1,34.9,0,4.17-2.69,5.78-4.66,6.96-1.87,1.13-2.53,1.65-2.51,3.09,.04,3.41,2.09,5.14,6.11,5.14h.07c4.74-.02,6.68-1.79,6.76-1.86,.76-.71,1.95-.69,2.67,.05,.72,.74,.73,1.91,0,2.65-.3,.3-3.08,2.93-9.42,2.97h-.08Z"/><path d="M161.04,258.07c-1.72,0-3.22-.04-4.77-.08-1.6-.04-3.23-.07-5.17-.08h-.07c-4.32,0-12.02-.24-15.6-1.86-2.66-1.2-5.62-3.81-4.6-9.42,1.21-6.65,22.2-8.9,31.17-9.55,1.03-.07,1.96,.71,2.03,1.76,.08,1.05-.71,1.96-1.76,2.03-14.08,1.03-27.29,4.1-27.71,6.44-.5,2.75,.2,4.27,2.42,5.27,2.5,1.12,8.88,1.52,14.05,1.52h.16c1.94,0,3.57,.04,5.17,.08,3.08,.07,5.99,.15,10.82-.08,6.37-.3,21.3-10.97,27.68-23.55,6.02-11.88,2.01-37.83,1.96-38.09-.16-1.04,.54-2.01,1.58-2.17,1.05-.16,2.01,.54,2.17,1.58,.18,1.11,4.25,27.43-2.33,40.41-5.54,10.92-21.19,25.18-30.89,25.63-2.53,.12-4.54,.16-6.32,.16Z"/></g></svg>