<?xml version="1.0" encoding="UTF-8"?><svg xmlns="http://www.w3.org/2000/svg" xmlns:xlink="http://www.w3.org/1999/xlink" viewBox="0 0 280 280"><defs><clipPath id="clippath"><path d="m200.8,211.83s17.29-14.45,24.5-67.73c5.16-38.13,9.96-84.06-5.07-84.06-13.02,0-8.12,29.03-12.93,65.06-4,30-14,51-14,51,0,0-4.27,32.9,7.5,35.73Z" style="fill:none;"/></clipPath><clipPath id="clippath-1"><path d="m188.13,152.99c-8.16-17.45-22.78-24.91-36.78-35.91-4.45-3.5-10.57-5.47-16-10-12-10-12-27-12-27,0,0-14.22,9.91-26.22,9.91s-16.78-.91-23.78-5.91c0,0,2.85,7.07,2.78,13.91-.1,9.47-2.42,21.54-3,32-1.28,22.96,7.07,62.73,14,77,6.33,13.04,6,39,6,39,0,0-8.61,5.28-7,10,1.61,4.72,6.41,4.88,11,4,4.13-.79,1.42-1.87,6-1.87s6.51,4.37,15,2.89c6.05-1.06,8-3.85,3-9.62-1.33-1.53-2-5.77-2-5.77,0,0-.63,5.34,1.22-4.53,2.41,5.04,9.5,1.03,11.85,4.67.81,1.26-.92,4.74,1.41,7.43,2.33,2.69,1.34,3.77,7.43,3.49,6.09-.28,24.61,2.08,30.38-1.27,5.78-3.34,22.27-11.16,25.7-30.41,3.95-22.14,5.67-40.65-9-72Z" style="fill:none;"/></clipPath><clipPath id="clippath-2"><path d="m65.53,47.85c-5.4,5.92-6.81,16.25-4.4,24.14,2.5,8.17,21,23,35,23s25.8-11.67,32-22c3-5,4-18.23-4.22-25.14-9.67-8.13-14.68-10.86-29.78-10.86s-20.11,1.54-28.6,10.86Z" style="fill:none;"/></clipPath></defs><g style="isolation:isolate;"><path d="m200.8,211.83s17.29-14.45,24.5-67.73c5.16-38.13,9.96-84.06-5.07-84.06-13.02,0-8.12,29.03-12.93,65.06-4,30-14,51-14,51,0,0-4.27,32.9,7.5,35.73Z" style="fill:#ffe2bc;"/><g style="mix-blend-mode:soft-light;"><g style="clip-path:url(#clippath);"><path d="m230.31,96.1s-2.97-5.22-9.63-5.78c-4.67-.39-10.37,2.78-10.37,2.78,0,0,.33-7.9,0-15-.43-9.16,0-19,10.36-18.74,5.8.14,9.06,7.72,9.64,16.74.57,9.02,0,20,0,20Z"/><path d="m209.71,194.67s-1-12-3-15-8-7-4-11,6,1,9,0c3-1,8-4,10-2s1,8,1,15-7,15-13,13Z"/><path d="m196.71,160.67c-4-4-1-12,4-13,1.39-.28,5,3,7,4s11,0,10,3-7,1-10,4-7,6-11,2Z"/><path d="m212.71,104.67c2.19.44,5,5,9,5s6,1,8,4-8,0-10,1c-2,1-8,2-11-1-2.12-2.12-1-10,4-9Z"/><path d="m230.71,127.67c5,2,2.66,9.89,1,11-3,2-12,2-15,2s-8-3-6-7c2-4,5-1,8-2s7-6,12-4Z"/></g></g><path d="m201.17,211.1c-.49,0-.99-.19-1.36-.57-.73-.75-.72-1.95.03-2.69,2.77-2.7,5.39-6.38,9.18-15.52,1.67-4.02,10.19-25.36,14.41-50.54,3.32-19.78,3.63-41.09,3.8-52.54l.04-2.32c.01-.63.06-1.4.11-2.29.16-2.56.38-6.07-.1-10.22-.12-1.04.63-1.99,1.67-2.11,1.04-.12,1.99.62,2.11,1.67.52,4.48.28,8.34.12,10.89-.05.82-.1,1.53-.11,2.12l-.04,2.31c-.17,11.55-.49,33.04-3.85,53.11-4.29,25.59-12.96,47.28-14.65,51.37-4.03,9.74-6.93,13.75-10.03,16.78-.37.36-.85.54-1.33.54Z"/><path d="m196.31,171c-.26,0-.53-.05-.78-.17-.96-.43-1.38-1.56-.94-2.52,4.61-10.15,7.96-26.1,11.86-48.54,2.33-13.38,2.47-25.24,2.59-34.77.18-14.8.3-24.57,8.6-26.64,2.11-.53,4.33-.11,6.42,1.21,2.72,1.72,4.88,4.86,5.51,8,.21,1.03-.46,2.03-1.49,2.23-1.03.21-2.03-.46-2.24-1.49-.42-2.13-1.96-4.35-3.81-5.53-.83-.52-2.1-1.08-3.47-.74-5.21,1.3-5.54,8.78-5.72,23-.12,9.67-.26,21.7-2.64,35.38-3.95,22.74-7.36,38.94-12.14,49.46-.32.7-1.01,1.11-1.73,1.11Z"/><path d="m108.21,39.99s23.68-23.18,26.93-20c1.66,1.63,2.24,18.58-1,26-3.1,7.1-8,13-8,13,0,0-8.42-8.44-12.06-11.96-3.64-3.52-5.87-7.05-5.87-7.05Z" style="fill:#ffe2bc;"/><path d="m81.47,39.99s-23.68-23.18-26.93-20c-1.66,1.63-2.24,18.58,1,26s8,13,8,13c0,0,8.42-8.44,12.06-11.96,3.64-3.52,5.87-7.05,5.87-7.05Z" style="fill:#ffe2bc;"/><path d="m65.53,47.85c-5.4,5.92-6.81,16.25-4.4,24.14,2.5,8.17,21,23,35,23s25.8-11.67,32-22c3-5,4-18.23-4.22-25.14-9.67-8.13-14.68-10.86-29.78-10.86s-20.11,1.54-28.6,10.86Z" style="fill:#ffe2bc;"/><path d="m188.13,152.99c-8.16-17.45-22.78-24.91-36.78-35.91-4.45-3.5-10.57-5.47-16-10-12-10-12-27-12-27,0,0-14.22,9.91-26.22,9.91s-16.78-.91-23.78-5.91c0,0,2.85,7.07,2.78,13.91-.1,9.47-2.42,21.54-3,32-1.28,22.96,7.07,62.73,14,77,6.33,13.04,6,39,6,39,0,0-8.61,5.28-7,10,1.61,4.72,6.41,4.88,11,4,4.13-.79,1.42-1.87,6-1.87s6.51,4.37,15,2.89c6.05-1.06,8-3.85,3-9.62-1.33-1.53-2-5.77-2-5.77,0,0-.63,5.34,1.22-4.53,2.41,5.04,9.5,1.03,11.85,4.67.81,1.26-.92,4.74,1.41,7.43,2.33,2.69,1.34,3.77,7.43,3.49,6.09-.28,24.61,2.08,30.38-1.27,5.78-3.34,22.27-11.16,25.7-30.41,3.95-22.14,5.67-40.65-9-72Z" style="fill:#ffe2bc;"/><g style="mix-blend-mode:soft-light;"><g style="clip-path:url(#clippath-1);"><path d="m161.44,189.95c-1.83-.18-4.81.61-6.83-1.78-2.39-2.84-4.5-8.48-4.56-12.49-.11-7.26,4.63-12.91,8.05-12.9,2.49.01,6.2,2.79,7.5,5.29,1.65,3.18,1.63,7.93,1.86,10.88.41,5.26-.35,11.57-6.02,11.01Z"/><path d="m162.75,159.36c6.77,2.67,7.63,10,8.44,15.7.8,5.7-.3,12.14-1.51,15-1.34,3.18-2.48,8.16-7.47,10.87-4.36,2.37-5.73,3.1-11.13,5.86-6.16,3.15-15.62,9.72-15.39,12.97.23,3.25,8.16-3.8,13.31-5.77,6.69-2.56,17.26-3.52,22.76-8.96,5.5-5.44,9.77-15.74,9.93-21.81s-1.6-19.67-6.21-25.33c-4.67-5.73-12.44-8.89-17.91-8.13-8.07,1.11-13.79,7.04-16.18,12.58-1.7,3.95-2.04,12.87-.97,19.58,1,6.34,3.46,10.16,8.03,14.1,4.71,4.06,13.41,3.45,12.73.51-.45-1.94-6.17-1.74-10-6.53-4.52-5.64-5.31-11.55-3.53-19.57,1.35-6.09,4.79-15.13,15.11-11.06Z"/><path d="m177.36,126.85c-6.4-3.03-13.58,3.04-18.85,4.51-8.08,2.26-16.25,12.05-26.06,18.28-8.98,5.71-4.83,34.48,1.7,34.51,4.48.02-4.11-21.67,8.16-31.02,9.66-7.36,15.29-14.88,26.75-11.32,5.7,1.77,11.27,9.94,15.38,18.41,3.62,7.48,2.91,12.79,3.06,21.09.15,8.3-2.72,14.59-6.27,20.97-3.76,6.76-6.63,11.93-15.79,15.77-8.66,3.62-24.69,4.25-23.33,7.53,1.36,3.28,19.04,4.16,29.92,0,9.3-3.56,13.65-8.74,17.86-18.71,4.2-9.97,8.88-18.47,8.07-29.56-.8-11.1-.17-19.2-4.53-26.26-4.56-7.38-10.57-21.62-16.07-24.23Z"/><path d="m185.88,122.58c3.91,1.54,7.96,9.74,6.19,11.33-1.77,1.59-8.3-3.9-15.61-4.75-3.46-.4-6.57-1.97-11.66,1.1-4.11,2.47-6.1-.62-9.89,9.16-3.03,7.84-13.25,6.72-20.79,11.17-4.38,2.59-11.09,4.33-12.09.06-.78-3.35,8.69-2.41,13.14-7.77,6.05-7.28,14.27-6.71,16.18-13.83,1.9-7.12,8.68-8.9,13.89-9.52,6.93-.82,15.94,1.21,20.64,3.06Z"/><path d="m170.29,105.13c4.01,1.05,11.1,16.7,9.46,18.5-1.64,1.8-5.57-4.28-12.92-4.22-3.48.03-9.45-1.97-14.29,1.72-3.9,2.97-2.04,1.75-8.34,9.09-6.64,7.73-15.31,8.68-22.48,14.05-4.16,3.12-27.03,8.96-28.71,4.47-1.99-5.29,23.15-8.49,27.18-14.37,5.47-8,13.13-5.15,17.44-10.02,4.4-4.97,7.45-14.76,12.59-16.02,6.83-1.68,15.25-4.45,20.07-3.19Z"/><path d="m71.11,141.49c6.44,1.77,14.31-.39,15.04,2.39,1.26,4.82-7.76,4.7-14.37,5.25-7.54.63-15.79-3.92-12.33-15.75,1.32-4.52,5.22,6.34,11.66,8.11Z"/><path d="m80.99,197c8.32,3.47,19.22,4.23,18.93,1.95-.3-2.28-7.1-5.83-11.69-6.26-4.59-.43-13.46-12.95-15.09-11.53-1.63,1.42-3.85,5.26-2.37,9.68s9.64,5.92,10.22,6.16Z"/><path d="m72.09,166.06c8.61.66,17.79-3.57,17.18-5.7-.62-2.13-3.56-1.82-8.1-.73-4.53,1.09-17.63-8.4-19.01-6.47s-2.99,6.41-.92,10.24c2.08,3.83,10.25,2.62,10.85,2.66Z"/><path d="m68.71,179.89c8.58,1.15,19.83,2.17,19.84-.13.02-5.75-5.32-8.94-9.84-8.1s-18.42-7.11-19.81-5.26c-1.39,1.85-3.03,6.26-.98,10.21,2.04,3.95,10.2,3.2,10.8,3.28Z"/><path d="m80.92,203.56s3.56,1.66,7.15,1.67c3.59.02,7.17.03,7.17,1.18s-1.8,2.29-4.49,2.28c-2.69-.01-5.39,3.43-8.97,1.11-3.58-2.32-8.06-2.34-8.05-5.79,0-3.45,5.42-.95,7.19-.46Z"/><path d="m98.2,212.75c-3.58-2.32-10.76,1.1-11.67,3.4s3.58,2.32,6.27,2.33c2.69.01,7.16,3.48,7.17,1.18,0-2.3,1.81-4.59-1.77-6.91Z"/><path d="m82.84,227.75c-.29-2.27,5.39-3.43,8.98-3.41,3.59.02,5.39-2.28,5.38.02,0,2.3-6.29,3.42-8.98,5.71-2.7,2.29-4.5,4.58-5.37-2.33Z"/><path d="m101.06,231.71c-2.69-.01-7.18,3.42-9.88,4.56-2.69,1.14-3.59,1.13-3.6,3.43s2.69.01,6.28.03,9.85,3.5,9.86.05c0-3.45.92-8.05-2.67-8.06Z"/><path d="m102.11,204.01c0,3.45.88,4.61,5.36,5.78,4.48,1.17,12.56-2.24,12.55,1.21,0,3.45-11.67,5.7-9.89,9.16,1.11,2.15,13.45,1.21,14.36-4.53.91-5.75,1.82-8.04.03-9.2-1.79-1.16-7.16-3.48-11.65-3.5s-10.74-6.95-10.76,1.1Z"/><path d="m118.78,227.8c-.85-.37-4.5,4.58-8.08,4.56-3.59-.02-6.27-1.18-6.28,1.12s5.37,2.33,8.06,2.34c2.69.01,7.16,3.48,7.17.03,0-3.45,1.81-6.89-.87-8.06Z"/><path d="m103.81,241.37c.44-2.23,7.17,1.18,8.96,1.19s4.48,1.17,4.48,2.32-8.97-.04-9.86-.05-4.49,1.13-3.58-3.47Z"/><path d="m97.45,158.69c.87-2.2,6.57-.47,12.56-2.24,3.69-1.09,5.69-5.56,8.09-6.86,5.64-3.07,12.99-3.24,14.35-1.08s2.47,11.83-1.83,12.64c-2.04.39-14.3.61-19.74,2.21-6.01,1.77-14.34-2.37-13.44-4.66Z"/><path d="m99.37,177.62c-.38,3.46,9.54.71,14.24,4.57,3.76,3.09,2.15,12.47,7.38,11.58,1.85-.32,4.25-6.56,3.47-11.09-.78-4.53.07-15.18-4.24-16.78s-5.56,6.78-8.17,7.23c-2.61.45-12.16-.26-12.68,4.5Z"/><path d="m198.66,205.16c4.48,1.17,2.65,16.12.84,21.86-1.81,5.74-8.11,12.62-14.39,13.74-6.28,1.12-17.51-1.23-21.52-1.25-4.48-.02-11.67,3.4-9.86-1.2s14.36-5.69,21.55-7.95c7.18-2.27,14.39-13.74,16.19-16.03,1.8-2.29,2.72-10.34,7.2-9.17Z"/><path d="m178.81,247.63s-5.37-2.33-10.75-2.35-12.55-2.36-17.04-1.23c-4.49,1.13-7.18,2.27-3.6,5.73,3.58,3.47,8.97-1.11,15.24,1.22,6.27,2.33,6.94,5.59,8.4,5.12,1.45-.47,9.54-5.04,7.75-8.5Z"/><path d="m139.93,194.07c2.47,4.8,11.64,8.11,10.73,10.4s-5.38-.02-8.97,2.26c-3.59,2.28-9.89,8.01-8.97,1.11.92-6.9-.85-16.11,1.84-16.09s3.59-1.13,5.37,2.33Z"/><path d="m71.16,97.97s.88,11.89,4.22,12.62,13.07-1.94,17.68-3.7c4.98-1.91,15.29-.96,18.45-2.61,3.16-1.65,11.58-10.05,13.57-12.73,1.99-2.68,5.8-10.43,8.14-8.36s2.69,6.83-2.46,11.16c-5.15,4.33-12.46,13.54-18.82,15.88-5.33,1.96-13.56-.48-17.61.09-3.83.54-15.09,8.14-19.6,6.38-4.51-1.76-6.94-5.02-7.38-10.97-.44-5.94,2.64-8.78,3.81-7.75Z"/><path d="m145.74,91.86c-3.39,2.01-3.99,10.61-5.92,12.93-1.92,2.32-4.87,8.18-6.79,10.5-1.36,1.64-6.67,5.72-9.5,6.8-2.83,1.08-1.02,3.55,1.81,2.47s7.58-4.48,10.46-7.96c2.88-3.48,8.38-7.06,10.33-10.57,1.95-3.51,7.02-10.22,6.1-12.71-.92-2.48-4.6-2.58-6.5-1.46Z"/><path d="m66.64,125.53c-.67,2.61,7.79,9,12.93,7.7,5.14-1.3,6.83-4.17,11.97-5.47,5.14-1.3,18.38,1.44,24-3.64,5.62-5.08,18.82-21.96,17.43-24.04-1.39-2.09-17.31,17.91-22.45,19.22-5.14,1.3-14.75,1.3-21.95,3.12-6.17,1.56-6.83,4.17-10.95,5.21s-10.34-4.7-11-2.09Z"/></g></g><path d="m196.63,181.27s-.03,0-.05,0c-1.05-.03-1.88-.9-1.85-1.94,0-.09.06-4.84-2.27-12.04-2.16-6.67-6.87-16.86-17.07-27.54-12.68-13.28-21.07-18.29-29.95-23.59-3.07-1.83-6.24-3.72-9.64-5.99-10.12-6.75-16.06-19.22-13.8-29.01.78-3.38,2.22-5.74,3.48-7.82,1.37-2.25,2.56-4.2,3-7.26.56-3.82.04-7.91-.49-10.67-.2-1.03.48-2.03,1.51-2.23,1.03-.2,2.03.48,2.23,1.51.59,3.05,1.15,7.59.52,11.94-.56,3.83-2.06,6.29-3.52,8.68-1.23,2.01-2.38,3.91-3.02,6.69-1.89,8.19,3.47,19.17,12.2,24.99,3.32,2.22,6.45,4.08,9.48,5.89,9.11,5.44,17.71,10.57,30.75,24.23,20.67,21.65,20.41,41.46,20.39,42.3-.03,1.03-.87,1.85-1.9,1.85Z"/><path d="m109.68,41.27c-.3,0-.61-.07-.89-.22-.03-.01-4.26-2.13-13.6-2.13s-14.35,2.16-14.39,2.18c-.96.43-2.08,0-2.51-.94-.43-.95-.02-2.07.93-2.51.22-.1,5.62-2.53,15.98-2.53s15.18,2.47,15.38,2.58c.93.49,1.28,1.64.79,2.57-.34.64-1,1.01-1.68,1.01Z"/><path d="m131.77,52.39c-.36,0-.73-.1-1.05-.32-.87-.58-1.11-1.76-.53-2.63,1.91-2.87,3.33-5.31,4.22-7.24,2.9-6.3,1.7-18.75.21-21.22-2.06.68-8.61,4.52-13.93,9.08-2.5,2.15-5.46,5.49-6.85,7.21-.66.82-1.85.95-2.67.29-.82-.66-.95-1.85-.29-2.67,1.47-1.83,4.64-5.4,7.34-7.72,4.44-3.81,14.29-10.62,17.27-10.05,1.03.19,1.88.93,2.53,2.2,2.21,4.28,2.95,17.72-.16,24.46-.98,2.11-2.49,4.72-4.51,7.76-.37.55-.97.85-1.58.85Zm3.26-31.51h0Z"/><path d="m57.65,52.39c-.62,0-1.22-.3-1.58-.85-2.01-3.03-3.53-5.64-4.51-7.76-3.11-6.74-2.37-20.18-.16-24.46.65-1.27,1.5-2.01,2.53-2.2.58-.11,1.93-.37,7.58,3.07,3.37,2.04,6.9,4.59,9.69,6.99,2.7,2.32,5.87,5.88,7.34,7.72.66.82.53,2.01-.29,2.67-.82.66-2.01.53-2.67-.29-1.38-1.72-4.34-5.06-6.85-7.21-5.33-4.57-11.87-8.41-13.93-9.08-1.49,2.47-2.69,14.92.21,21.22.89,1.94,2.31,4.38,4.22,7.24.58.87.34,2.05-.53,2.63-.32.21-.69.32-1.05.32Zm-3.26-31.51h0s0,0,0,0Z"/><path d="m76.36,95.98c-.11,0-.22,0-.33-.03-1.03-.18-1.72-1.15-1.55-2.18.02-.13.35-2.57-1.43-5.23-.49-.73-1.66-1.83-3.01-3.1-4.23-3.98-10.63-9.99-11.92-18.81-.64-4.35-.07-8.89.52-11.94.2-1.03,1.19-1.71,2.23-1.51,1.03.2,1.71,1.2,1.51,2.23-.53,2.76-1.05,6.85-.49,10.67,1.1,7.51,6.91,12.98,10.76,16.59,1.59,1.49,2.84,2.67,3.57,3.76,2.67,3.99,2.04,7.81,2.02,7.97-.16.92-.96,1.58-1.87,1.58Z"/><path d="m104.63,250.54c-1.01,0-1.85-.8-1.9-1.82-.01-.33-1.37-32.84-2.49-41.48-1.41-10.88-3.48-17.04-4.37-19.67l-.17-.52-4.21-7.09c-.54-.9-.24-2.07.66-2.6.9-.54,2.07-.24,2.6.66l4.31,7.26c.07.12.13.25.17.38l.23.69c.92,2.74,3.07,9.14,4.53,20.39,1.14,8.81,2.46,40.47,2.52,41.82.04,1.05-.77,1.93-1.82,1.98-.03,0-.05,0-.08,0Z"/><path d="m116.44,262.93c-1.83,0-3.5-.21-4.54-.37-3.64-.57-6.53-2.08-7.92-4.13-.84-1.24-1.12-2.64-.81-4.03.23-1.02,1.25-1.67,2.27-1.44,1.02.23,1.67,1.25,1.44,2.27-.05.22-.08.58.25,1.06.61.9,2.34,2.04,5.37,2.51,4.04.64,7.59.33,9.05-.79.43-.33.64-.7.69-1.22.28-2.77-1.16-4.64-2.69-6.61-.91-1.18-1.78-2.29-2.22-3.59-1.38-4.08,10.84-56.68,10.98-57.16.3-1,1.36-1.57,2.37-1.27,1,.3,1.58,1.36,1.27,2.37-1.65,5.5-11.32,50.75-10.98,54.94.26.67.9,1.5,1.58,2.38,1.65,2.13,3.91,5.04,3.47,9.33-.16,1.55-.9,2.88-2.15,3.84-1.95,1.5-4.85,1.9-7.43,1.9Zm4.53-17.38h.01-.01Z"/><path d="m93.98,262.34c-6.07,0-9.87-3.41-9.92-8.9-.04-3.75,2.5-5.28,4.36-6.39,1.9-1.14,2.81-1.77,2.81-3.7,0-6.17-2.75-27.3-4.9-33.68-.35-1.05-.87-2.48-1.5-4.22-3.35-9.25-10.32-28.51-12.58-46.22-2.73-21.4-1.49-28.72.24-38.87.25-1.48.51-3.02.77-4.67.73-4.68,1.2-15.58,1.2-15.69.04-1.05.93-1.86,1.98-1.82,1.05.04,1.86.93,1.82,1.98-.02.46-.48,11.23-1.24,16.12-.26,1.67-.53,3.22-.78,4.71-1.67,9.82-2.87,16.92-.21,37.75,2.21,17.29,9.08,36.28,12.39,45.4.64,1.77,1.17,3.23,1.53,4.29,2.43,7.21,5.1,29,5.1,34.9,0,4.17-2.69,5.78-4.66,6.96-1.87,1.13-2.53,1.65-2.51,3.09.04,3.43,2.11,5.16,6.18,5.14,4.74-.02,6.68-1.79,6.76-1.86.76-.71,1.95-.69,2.67.05.72.74.73,1.91,0,2.65-.3.3-3.08,2.93-9.42,2.97h-.08Z"/><path d="m161.04,258.07c-1.72,0-3.23-.04-4.78-.07-1.59-.04-3.23-.09-5.17-.08h-.07c-4.32,0-12.01-.24-15.6-1.86-2.66-1.2-5.62-3.8-4.6-9.42,1.21-6.65,22.2-8.89,31.17-9.55,1.05-.05,1.96.71,2.03,1.76.08,1.05-.71,1.96-1.76,2.03-14.08,1.03-27.29,4.1-27.71,6.44-.5,2.75.2,4.27,2.42,5.27,2.5,1.12,8.88,1.52,14.05,1.52h.13c1.95,0,3.59.04,5.19.08,3.08.08,5.99.15,10.82-.08,6.37-.3,21.3-10.97,27.68-23.55,6.02-11.88,2.01-37.83,1.96-38.09-.16-1.04.54-2.01,1.58-2.17,1.04-.16,2.01.54,2.17,1.58.18,1.11,4.25,27.43-2.33,40.41-5.54,10.92-21.19,25.18-30.89,25.63-2.52.12-4.54.16-6.32.16Z"/><g style="mix-blend-mode:soft-light;"><g style="clip-path:url(#clippath-2);"><path d="m73.55,65.43c0-.89-4.79-1.57-7.15,0-2.68,1.79-8.76,6.43-7.15,8.04,2.68,2.68,4.47-2.68,8.04-5.36,2.72-2.04,6.25-1.79,6.25-2.68Z"/><path d="m74.45,73.47c-.89-.89-3.29,1.2-5.36,1.79-3.96,1.13-6.09-.54-6.62,1.52s3.94,2.05,6.62,1.16,6.25-3.57,5.36-4.47Z"/><path d="m115.39,65.43c0-.89,4.79-1.57,7.15,0,2.68,1.79,8.76,6.43,7.15,8.04-2.68,2.68-4.47-2.68-8.04-5.36-2.72-2.04-6.25-1.79-6.25-2.68Z"/><path d="m114.5,72.58c.89-.89,3.29,1.2,5.36,1.79,3.96,1.13,6.09-.54,6.62,1.52.53,2.05-3.94,2.05-6.62,1.16s-6.25-3.57-5.36-4.47Z"/><path d="m85.76,56.7c-1.56,0-.14-5.78.64-8.12.85-2.56.92-8.26,2.48-8.26,1.74,0,4.71,13.73,3.9,14.82s-1.56-7.02-2.34-7.02-1.8,1.51-2.34,3.12c-.78,2.34-1.56,5.46-2.34,5.46Z"/><path d="m104.49,56.38c1.54-.46.78-5.46,0-7.8-.85-2.56-1.58-8.26-3.14-8.26-1.74,0-3.93,13.73-3.12,14.82s2.34-7.02,3.12-7.02,1.02,1.51,1.56,3.12c.78,2.34.75,5.38,1.58,5.14Z"/><path d="m89.88,46.57c-.85,0-2.32-2.7-2.54-5.6-.22-2.91-.2-4.74.85-4.9,1.26-.2,4.23-.7,4.23,0s-1.69,3.5-1.69,5.6c0,2.1,0,4.9-.85,4.9Z"/><path d="m100.76,46.57c.85,0,1.94-2.56,2.16-5.46.22-2.91.58-4.88-.47-5.04-1.26-.2-4.23-.7-4.23,0,0,.7,1.69,3.5,1.69,5.6,0,2.1,0,4.9.85,4.9Z"/><path d="m95.11,56.7c2.34,0,1.83-9.69,2.2-14.61.23-2.98.29-5.63,0-6.14-.78-1.36-3.25-1.36-3.9,0-.24.51-.31,3.2,0,6.14.52,4.94.14,14.61,1.7,14.61Z"/><path d="m112.26,49.87c.13-.27-.28-1.02-.67-.93-.11.03-.22.06-.33.09-.49.16-.92.4-1.31.66-.39.26-.74.56-1.06.87-.16.15-.31.31-.45.47-.11.11-.39.46-.5.67-.54.94-.75,1.81-.84,2.72-.04.46-.04.91,0,1.38.01.1.03.21.04.32.05.35.88.56,1.1.31.07-.08.14-.16.21-.24.29-.35.54-.7.78-1.06.46-.69.85-1.44,1.16-1.97.1-.16.08-.15.24-.37.12-.17.24-.35.35-.52.22-.35.43-.7.61-1.06.16-.32.33-.67.54-1.1.04-.08.08-.17.12-.25Z"/><path d="m80.24,50c-.06-.24.41-.96.76-.85.1.03.2.07.3.11.43.19.8.47,1.11.79.63.64,1,1.42,1.21,2.24.1.4.16.86.15,1.27,0,.42-.07.82-.17,1.21-.11.39-.25.77-.46,1.14-.05.08-.1.16-.15.25-.17.27-1.02.15-1.14-.1-.04-.08-.08-.17-.11-.25-.15-.36-.28-.7-.39-1.03-.11-.33-.2-.65-.28-.95-.08-.31-.15-.59-.22-.86-.14-.59-.26-1.18-.37-1.79-.05-.31-.11-.61-.18-.95-.02-.07-.03-.16-.05-.23Z"/></g></g></g></svg>