<?xml version="1.0" encoding="UTF-8"?><svg xmlns="http://www.w3.org/2000/svg" xmlns:xlink="http://www.w3.org/1999/xlink" viewBox="0 0 280 280"><defs><clipPath id="clippath"><path d="M199.53,207.44s17.29-14.45,24.5-67.73c5.16-38.13,9.96-84.06-5.07-84.06-13.02,0-8.12,29.03-12.93,65.06-4,30-14,51-14,51,0,0-4.27,32.9,7.5,35.73Z" style="fill:none;"/></clipPath><clipPath id="clippath-1"><path d="M187.71,152.99c-8.16-17.45-22.78-24.91-36.78-35.91-4.45-3.5-10.57-5.47-16-10-12-10-12-27-12-27,0,0-.22,.16-.64,.43,2.1-2.46,3.92-5.03,5.42-7.52,2.12-3.53,3.22-11.17,.8-17.78,1.62-2.37,3.64-5.64,5.2-9.22,3.24-7.42,2.66-24.37,1-26-2.8-2.75-20.81,14.13-25.7,18.81-3.99-1.28-8.67-1.81-15.3-1.81-6.24,0-10.75,.26-14.5,1.23-5.61-5.34-22.39-20.88-25.09-18.23-1.66,1.63-2.24,18.58,1,26,1.71,3.91,3.96,7.46,5.64,9.85-1.57,5.21-1.58,11.16-.05,16.15,1.24,4.05,6.43,9.75,13.05,14.46,.84,2.65,2,7.14,1.95,11.54-.1,9.47-2.42,21.54-3,32-1.28,22.96,7.07,62.73,14,77,6.33,13.04,6,39,6,39,0,0-8.61,5.28-7,10,1.61,4.72,6.41,4.88,11,4,4.13-.79,1.42-1.87,6-1.87s6.51,4.37,15,2.89c6.05-1.06,8-3.85,3-9.62-.97-1.12-1.59-3.69-1.85-4.99,.19-.78,.52-2.37,1.08-5.31,2.41,5.04,9.5,1.03,11.85,4.67,.81,1.26-.92,4.74,1.41,7.43,2.33,2.69,1.34,3.77,7.43,3.49,6.09-.28,24.61,2.08,30.38-1.27,5.78-3.34,22.27-11.16,25.7-30.41,3.95-22.14,5.67-40.65-9-72Z" style="fill:none;"/></clipPath><clipPath id="clippath-2"><path d="M188.13,152.99c-8.16-17.45-22.78-24.91-36.78-35.91-4.45-3.5-10.57-5.47-16-10-12-10-12-27-12-27,0,0-14.22,9.91-26.22,9.91s-16.78-.91-23.78-5.91c0,0,2.85,7.07,2.78,13.91-.1,9.47-2.42,21.54-3,32-1.28,22.96,7.07,62.73,14,77,6.33,13.04,6,39,6,39,0,0-8.61,5.28-7,10,1.61,4.72,6.41,4.88,11,4,4.13-.79,1.42-1.87,6-1.87s6.51,4.37,15,2.89c6.05-1.06,8-3.85,3-9.62-1.33-1.53-2-5.77-2-5.77,0,0-.63,5.34,1.22-4.53,2.41,5.04,9.5,1.03,11.85,4.67,.81,1.26-.92,4.74,1.41,7.43,2.33,2.69,1.34,3.77,7.43,3.49,6.09-.28,24.61,2.08,30.38-1.27,5.78-3.34,22.27-11.16,25.7-30.41,3.95-22.14,5.67-40.65-9-72Z" style="fill:none;"/></clipPath></defs><g style="isolation:isolate;"><g><path d="M199.53,208.04s17.29-14.45,24.5-67.73c5.16-38.13,9.96-84.06-5.07-84.06-13.02,0-8.12,29.03-12.93,65.06-4,30-14,51-14,51,0,0-4.27,32.9,7.5,35.73Z" style="fill:#eba731;"/><g style="mix-blend-mode:soft-light;"><g style="clip-path:url(#clippath);"><g><path d="M211.35,187.44c.12,.45-.18,.78-.57,.89-.4,.1-.87,.04-1.19-.29l-.29-.3-.3-.3c-.89-.88-1.81-1.72-2.76-2.52l-.72-.59c-.25-.19-.49-.38-.73-.57-.5-.37-.98-.75-1.49-1.1-.49-.37-1.03-.69-1.53-1.04l-.8-.48c-.13-.08-.26-.17-.4-.24l-.41-.23-.41-.23-.2-.12c-.07-.04-.14-.08-.2-.11-.13-.06-.25-.13-.37-.19l-.39-.18c-.53-.24-1.1-.46-1.69-.67-1.19-.41-2.48-.76-3.82-1.08-1.34-.32-2.73-.6-4.15-.87-.32-.06-.65-.12-.98-.18-.53-.09-.8-.41-.82-.74-.02-.33,.25-.66,.82-.76,.35-.06,.7-.11,1.06-.16,1.54-.2,3.11-.26,4.7-.2,1.59,.06,3.19,.26,4.78,.65,.8,.2,1.59,.44,2.36,.75,.19,.08,.38,.16,.58,.24,.19,.08,.38,.18,.57,.27,.1,.05,.18,.09,.26,.14l.25,.14,.5,.27,.49,.28c.16,.09,.31,.2,.47,.3,.31,.2,.62,.4,.92,.61,.58,.44,1.17,.87,1.69,1.35,.54,.46,1.02,.96,1.49,1.47,.22,.26,.44,.52,.66,.78,.21,.26,.4,.53,.6,.8,.76,1.09,1.38,2.22,1.79,3.41l.13,.4,.11,.4Z"/><path d="M217.91,170.72c.32,.38,.21,.78-.11,.99-.32,.21-.79,.29-1.24,.07l-.41-.2-.42-.19c-1.24-.57-2.5-1.08-3.76-1.56l-.95-.35c-.32-.11-.64-.22-.95-.33-.64-.2-1.26-.42-1.91-.59-.63-.2-1.28-.35-1.92-.52l-.97-.22c-.16-.04-.32-.08-.48-.11l-.49-.09-.49-.1-.24-.05c-.08-.02-.17-.04-.24-.05-.15-.02-.29-.05-.44-.07l-.45-.06c-.61-.07-1.24-.11-1.89-.13-1.3-.04-2.67,0-4.06,.09-1.39,.09-2.82,.23-4.27,.38-.33,.03-.66,.07-1,.11-.53,.06-.94-.15-1.11-.45-.17-.3-.08-.69,.4-.94,.3-.16,.6-.3,.91-.45,1.34-.62,2.77-1.13,4.28-1.53,1.5-.39,3.09-.67,4.75-.76,.83-.05,1.68-.05,2.55,.02,.22,.02,.43,.04,.65,.06,.22,.02,.44,.06,.65,.09,.11,.01,.21,.03,.31,.05l.3,.06,.59,.11,.59,.12c.2,.04,.39,.1,.58,.14,.38,.1,.77,.2,1.15,.3,.74,.24,1.5,.47,2.2,.77,.72,.27,1.41,.6,2.08,.94,.33,.18,.66,.35,.98,.53,.32,.18,.63,.38,.94,.57,1.22,.79,2.34,1.67,3.28,2.66l.31,.33,.3,.34Z"/><path d="M222.75,159.49c.32,.38,.21,.78-.11,.99-.32,.21-.79,.29-1.24,.07l-.41-.2-.42-.19c-1.24-.57-2.5-1.08-3.76-1.56l-.95-.35c-.32-.11-.64-.22-.95-.33-.64-.2-1.26-.42-1.91-.59-.63-.2-1.28-.35-1.92-.52l-.97-.22c-.16-.04-.32-.08-.48-.11l-.49-.09-.49-.1-.24-.05c-.08-.02-.17-.04-.24-.05-.15-.02-.29-.05-.44-.07l-.45-.06c-.61-.07-1.24-.11-1.89-.13-1.3-.04-2.67,0-4.06,.09-1.39,.09-2.82,.23-4.27,.38-.33,.03-.66,.07-1,.11-.53,.06-.94-.15-1.11-.45-.17-.3-.08-.69,.4-.94,.3-.16,.6-.3,.91-.45,1.34-.62,2.77-1.13,4.28-1.53,1.5-.39,3.09-.67,4.75-.76,.83-.05,1.68-.05,2.55,.02,.22,.02,.43,.04,.65,.06,.22,.02,.44,.06,.65,.09,.11,.01,.21,.03,.31,.05l.3,.06,.59,.11,.59,.12c.2,.04,.39,.1,.58,.14,.38,.1,.77,.2,1.15,.3,.74,.24,1.5,.47,2.2,.77,.72,.27,1.41,.6,2.08,.94,.33,.18,.66,.35,.98,.53,.32,.18,.63,.38,.94,.57,1.22,.79,2.34,1.67,3.28,2.66l.31,.33,.3,.34Z"/><path d="M224.22,148.29c.23,.36,.05,.72-.3,.91-.34,.19-.8,.26-1.17,.06-.23-.12-.46-.24-.69-.35-1.03-.52-2.07-.99-3.1-1.42-1.03-.43-2.07-.8-3.11-1.13-.51-.18-1.05-.3-1.56-.45-.53-.11-1.05-.26-1.59-.35l-.4-.08-.2-.04h-.05l-.04-.02h-.08c-.22-.05-.45-.08-.69-.1-.48-.05-.99-.06-1.52-.06-1.06,0-2.2,.09-3.37,.22-1.17,.13-2.37,.3-3.6,.49l-.85,.13c-.45,.07-.84-.13-1.05-.41-.21-.28-.19-.66,.19-.92,.23-.16,.48-.31,.72-.46,1.07-.64,2.24-1.19,3.5-1.63,1.26-.44,2.61-.78,4.08-.95,.73-.08,1.5-.11,2.28-.08,.39,.02,.79,.05,1.19,.11l.15,.02h.08l.07,.02,.26,.05,.52,.1c.71,.12,1.37,.33,2.05,.51,.65,.23,1.31,.44,1.92,.73,1.24,.54,2.37,1.2,3.37,1.96,.99,.76,1.87,1.59,2.56,2.52,.16,.21,.3,.42,.44,.63Z"/><path d="M225.29,135.97c.2,.35,0,.7-.35,.88-.35,.18-.8,.25-1.15,.05-.22-.12-.43-.23-.66-.34-.97-.51-1.95-.97-2.93-1.39-.97-.42-1.95-.78-2.93-1.09-.48-.17-.98-.29-1.47-.43-.5-.11-.99-.25-1.49-.33l-.37-.07-.19-.04c-.06-.01-.1-.02-.16-.02-.1-.02-.2-.03-.31-.04-.11-.01-.21-.03-.33-.03-.44-.04-.92-.05-1.42-.04-1,.02-2.07,.12-3.18,.26-1.11,.14-2.25,.32-3.42,.51l-.81,.13c-.43,.07-.82-.12-1.04-.4-.22-.28-.23-.66,.12-.91,.22-.16,.44-.31,.67-.46,1-.65,2.09-1.2,3.28-1.66,1.19-.46,2.48-.81,3.9-1,.71-.09,1.45-.14,2.21-.11,.19,0,.38,.02,.58,.03,.19,.01,.39,.03,.59,.06,.1,.01,.2,.02,.29,.04l.25,.05,.51,.1c.68,.12,1.33,.32,1.98,.5,.63,.22,1.27,.44,1.85,.72,1.18,.54,2.27,1.19,3.2,1.94,.93,.75,1.74,1.57,2.37,2.48,.14,.2,.27,.41,.4,.62Z"/><path d="M226.84,123.24c.17,.34-.06,.67-.42,.84-.36,.17-.8,.23-1.13,.04-.2-.11-.4-.22-.6-.33-.9-.49-1.79-.94-2.68-1.34-1.79-.79-3.54-1.4-5.35-1.74l-.34-.06c-.05,0-.12-.02-.16-.03l-.13-.02c-.09-.02-.18-.03-.27-.03-.09-.01-.19-.02-.29-.03-.39-.03-.82-.03-1.27-.01-.91,.03-1.9,.15-2.92,.3-1.03,.15-2.09,.35-3.18,.55l-.75,.14c-.4,.08-.79-.11-1.03-.38-.23-.27-.27-.64,.04-.9,.19-.16,.39-.31,.6-.46,.89-.65,1.89-1.21,2.98-1.69,1.09-.47,2.29-.86,3.63-1.07,.67-.11,1.38-.17,2.12-.16,.18,0,.37,0,.56,.02,.19,.01,.38,.03,.57,.05l.29,.04c.09,.01,.17,.03,.25,.04l.49,.09c.65,.13,1.28,.3,1.89,.5,.61,.2,1.2,.44,1.76,.71,1.11,.54,2.11,1.19,2.95,1.92,.84,.74,1.55,1.55,2.09,2.43,.12,.2,.23,.4,.33,.6Z"/><path d="M227.77,110.66c.22,.31,.05,.66-.27,.87-.32,.21-.75,.32-1.1,.18-.22-.08-.43-.17-.65-.25-.96-.37-1.9-.72-2.84-1.02l-.35-.12-.35-.11c-.23-.07-.46-.15-.69-.21-.23-.07-.46-.13-.69-.2-.23-.06-.46-.12-.69-.18-.92-.23-1.83-.45-2.75-.59l-.34-.06-.17-.03-.17-.02c-.23-.03-.46-.06-.69-.09l-.17-.03h-.08l-.07-.02c-.09,0-.18-.02-.26-.03-.18-.01-.35-.02-.52-.02-.7,0-1.43,.11-2.22,.37-.79,.26-1.61,.67-2.42,1.15-.19,.11-.37,.23-.56,.35-.29,.19-.74,.17-1.12,.03-.38-.14-.65-.45-.53-.8,.08-.21,.17-.43,.27-.63,.23-.45,.52-.9,.88-1.32,.36-.42,.79-.82,1.29-1.18,.51-.36,1.09-.69,1.74-.95,.65-.26,1.37-.45,2.12-.55,.37-.05,.75-.08,1.12-.09,.19,0,.37,0,.56,0h.27l.24,.03c.31,.03,.63,.05,.94,.09l.24,.02c.08,.01,.15,.02,.23,.04l.46,.08c2.47,.42,4.74,1.35,6.55,2.61,.91,.63,1.71,1.34,2.37,2.13,.15,.17,.28,.36,.42,.54Z"/><path d="M228.02,97.55c.09,.36-.25,.65-.65,.73-.41,.09-.84,.09-1.08-.08-.15-.11-.3-.21-.46-.3-.71-.42-1.45-.72-2.2-.93-.76-.21-1.53-.33-2.34-.42-.81-.08-1.66-.11-2.53-.11-.06,0-.11,0-.15,0h-.14c-.1,0-.19,0-.29,.01-.19,0-.39,.02-.58,.03-.39,.03-.79,.08-1.2,.14-.82,.12-1.67,.31-2.54,.53-.88,.23-1.78,.5-2.7,.79-.21,.07-.43,.14-.64,.21-.34,.11-.75-.02-1.06-.25-.3-.22-.46-.57-.24-.86,.13-.18,.27-.35,.42-.51,.65-.73,1.44-1.37,2.35-1.94,.91-.56,1.94-1.04,3.09-1.38,.57-.17,1.17-.3,1.8-.39,.31-.04,.63-.08,.95-.1,.16-.01,.32-.02,.48-.03h.24c.08,0,.16-.01,.23,0,1.18,0,2.39,.12,3.58,.4,1.19,.28,2.35,.74,3.33,1.39,.97,.65,1.75,1.49,2.15,2.41,.09,.21,.16,.42,.21,.63Z"/><path d="M229.03,91.71s-2.97-5.22-9.63-5.78c-4.67-.39-10.37,2.78-10.37,2.78,0,0,.33-7.9,0-15-.43-9.16,0-19,10.36-18.74,5.8,.14,9.06,7.72,9.64,16.74,.57,9.02,0,20,0,20Z"/></g></g></g><g><path d="M200.32,207.31c-.49,0-.99-.19-1.36-.57-.73-.75-.72-1.95,.03-2.69,2.77-2.7,5.39-6.38,9.17-15.52,1.67-4.02,10.19-25.36,14.41-50.54,3.32-19.77,3.63-41.08,3.8-52.52l.04-2.33c.01-.63,.06-1.4,.11-2.29,.16-2.56,.38-6.07-.1-10.22-.12-1.04,.63-1.99,1.67-2.11,1.05-.13,1.99,.63,2.11,1.67,.52,4.48,.28,8.34,.12,10.89-.05,.82-.1,1.54-.11,2.12l-.04,2.33c-.17,11.55-.49,33.04-3.85,53.09-4.29,25.59-12.96,47.28-14.65,51.37-4.04,9.74-6.93,13.75-10.03,16.78-.37,.36-.85,.54-1.33,.54Z"/><path d="M196.26,165.33c-.24,0-.49-.05-.72-.14-.97-.4-1.43-1.51-1.03-2.48,4.23-10.24,7.48-26.08,11.08-46.73,2.33-13.38,2.47-25.24,2.59-34.77,.18-14.8,.3-24.57,8.6-26.65,2.11-.53,4.33-.11,6.42,1.21,2.72,1.72,4.88,4.86,5.51,7.99,.21,1.03-.46,2.03-1.49,2.23-1.02,.21-2.03-.46-2.23-1.49-.42-2.13-1.96-4.35-3.81-5.53-.83-.52-2.11-1.08-3.47-.74-5.21,1.3-5.54,8.78-5.72,23.01-.12,9.67-.26,21.7-2.64,35.38-3.63,20.89-6.95,36.97-11.31,47.53-.3,.73-1.01,1.17-1.76,1.17Z"/></g><path d="M187.71,152.99c-8.16-17.45-22.78-24.91-36.78-35.91-4.45-3.5-10.57-5.47-16-10-12-10-12-27-12-27,0,0-.22,.16-.64,.43,2.1-2.46,3.92-5.03,5.42-7.52,2.12-3.53,3.22-11.17,.8-17.78,1.62-2.37,3.64-5.64,5.2-9.22,3.24-7.42,2.66-24.37,1-26-2.8-2.75-20.81,14.13-25.7,18.81-3.99-1.28-8.67-1.81-15.3-1.81-6.24,0-10.75,.26-14.5,1.23-5.61-5.34-22.39-20.88-25.09-18.23-1.66,1.63-2.24,18.58,1,26,1.71,3.91,3.96,7.46,5.64,9.85-1.57,5.21-1.58,11.16-.05,16.15,1.24,4.05,6.43,9.75,13.05,14.46,.84,2.65,2,7.14,1.95,11.54-.1,9.47-2.42,21.54-3,32-1.28,22.96,7.07,62.73,14,77,6.33,13.04,6,39,6,39,0,0-8.61,5.28-7,10,1.61,4.72,6.41,4.88,11,4,4.13-.79,1.42-1.87,6-1.87s6.51,4.37,15,2.89c6.05-1.06,8-3.85,3-9.62-.97-1.12-1.59-3.69-1.85-4.99,.19-.78,.52-2.37,1.08-5.31,2.41,5.04,9.5,1.03,11.85,4.67,.81,1.26-.92,4.74,1.41,7.43,2.33,2.69,1.34,3.77,7.43,3.49,6.09-.28,24.61,2.08,30.38-1.27,5.78-3.34,22.27-11.16,25.7-30.41,3.95-22.14,5.67-40.65-9-72Z" style="fill:#eba731;"/><g style="mix-blend-mode:soft-light;"><g style="clip-path:url(#clippath-1);"><g><g><path d="M83.11,63c0,.15-.11-.15-.12-.18-.9-2.59-1.14-5.35-1.03-8.08,.16-2.94,.8-5.67,2.02-8.39,.28-.72,1.34-.63,1.66-.27,.26,.22,.37,.47,.51,.73,1.23,2.81,2.01,5.75,2.6,8.75-1.62-2.52-2.91-5.49-4.52-7.95,.14,.11,.12,.22,.67,.28l.98-.66c-.64,2.46-1.14,5.2-1.58,7.74-.32,2.27-.82,5.78-1.19,8.03h0Z"/><path d="M92.73,49.28c-1.75-2.51-2.09-5.9-1.39-8.84,.24-1.03,1.02-1.76,1.39-2.7,.18,.99-.35,1.94-.37,2.91-.11,2.76,.2,5.85,.37,8.63h0Z"/><path d="M85.04,43.9c-.51-2.71,.38-6.34,3.33-7.18-1.65,2.43-1.84,4.7-3.33,7.18h0Z"/><path d="M106.26,63c-.37-2.23-.87-5.76-1.19-8.03-.43-2.54-.94-5.27-1.58-7.74l.98,.66c.55-.06,.53-.17,.67-.28-1.61,2.46-2.89,5.43-4.52,7.95,.64-3.11,1.4-6.22,2.79-9.09,.26-.35,.34-.59,1.06-.68,.45-.04,.83,.26,.98,.66,2.25,5.14,2.68,11.03,.94,16.36l-.05,.12-.03,.06s0,.02-.03,.03c-.02-.02,0-.03,0-.04h0Z"/><path d="M104.34,43.9c-1.49-2.48-1.68-4.74-3.33-7.18,2.95,.84,3.84,4.47,3.33,7.18h0Z"/><path d="M96.54,49.28c.16-2.78,.47-5.87,.37-8.63-.01-.97-.55-1.92-.37-2.91,.38,.94,1.15,1.67,1.39,2.7,.7,2.94,.35,6.32-1.39,8.84h0Z"/><path d="M61.71,64.39c2.12,.1,3.94,.09,5.94-.08,1.98-.11,3.96-1.03,6.08-.59-1.74,1.52-3.44,2.91-5.84,3.11-2.28,.18-4.81-.49-6.18-2.44h0Z"/><path d="M62.33,73.85c2.84-1.24,5.74-1.81,8.69-2.47,3.17-.66,8.13-3.04,2.48,1.38-3.27,2-7.55,2.4-11.17,1.09h0Z"/><path d="M128,64.39c-1.37,1.94-3.9,2.61-6.18,2.44-2.4-.2-4.1-1.6-5.84-3.11,2.12-.44,4.1,.48,6.08,.59,2,.17,3.82,.19,5.94,.08h0Z"/><path d="M127.38,73.85c-3.62,1.31-7.9,.91-11.17-1.09-5.64-4.41-.7-2.04,2.48-1.38,2.96,.66,5.85,1.23,8.69,2.47h0Z"/></g><g><g><path d="M105.13,123.54c-1.07-.03-1.64-.53-1.66-1.04-.02-.51,.43-1.04,1.41-1.3,.59-.16,1.18-.32,1.77-.49,2.63-.76,5.21-1.62,7.71-2.6,2.5-.98,4.94-2.07,7.28-3.28,1.17-.61,2.31-1.26,3.43-1.93,.28-.17,.56-.34,.83-.52l.41-.26c.13-.09,.29-.18,.39-.26l.35-.25c.12-.08,.23-.16,.35-.25l.34-.27c.11-.09,.23-.17,.34-.28,.91-.77,1.8-1.66,2.65-2.61,.85-.95,1.68-1.97,2.48-3.01,.81-1.05,1.58-2.14,2.35-3.24,.77-1.11,1.53-2.23,2.27-3.37,1.49-2.28,2.94-4.63,4.39-6.99l.99-1.63c.53-.88,1.18-1.16,1.66-.97,.48,.18,.77,.86,.5,1.88-.16,.63-.34,1.26-.52,1.89-.81,2.73-1.81,5.41-2.97,8.03-.58,1.31-1.22,2.6-1.9,3.88-.69,1.27-1.42,2.53-2.23,3.76-.81,1.23-1.68,2.43-2.65,3.59-.97,1.16-2.03,2.28-3.25,3.3-.14,.13-.31,.25-.47,.38l-.48,.37c-.15,.13-.33,.24-.5,.36l-.51,.35c-.18,.12-.33,.21-.49,.31l-.48,.29c-.32,.2-.64,.38-.96,.56-1.29,.72-2.62,1.38-3.97,1.96-2.7,1.16-5.5,2.05-8.34,2.66-2.84,.61-5.72,.97-8.6,1.03-.65,0-1.29,0-1.94-.02Z"/><path d="M124.2,134.06c-1.14,.04-1.78-.42-1.83-.93-.05-.51,.41-1.07,1.44-1.39,.62-.2,1.24-.41,1.85-.63,2.75-.97,5.41-2.09,7.95-3.38,2.54-1.29,4.96-2.74,7.22-4.36,1.12-.82,2.2-1.68,3.24-2.58,1.02-.92,2.01-1.87,2.93-2.87l.68-.77,.34-.39,.35-.42c.47-.56,.94-1.12,1.41-1.68l2.84-3.39c1.9-2.27,3.83-4.53,5.79-6.77,1.96-2.24,3.96-4.46,6.01-6.64l1.42-1.49c1.53-1.59,2.95-.57,1.9,1.38-.33,.61-.66,1.21-.99,1.81-1.47,2.62-3.03,5.19-4.65,7.71-1.62,2.52-3.31,5-5.09,7.43-.89,1.21-1.79,2.42-2.72,3.61-.46,.6-.94,1.19-1.42,1.77l-.36,.44c-.12,.15-.26,.3-.39,.46-.27,.3-.53,.61-.8,.91-1.1,1.18-2.28,2.29-3.51,3.32-1.24,1.01-2.55,1.94-3.9,2.79-2.71,1.68-5.59,3.01-8.56,3.99-2.97,.98-6.02,1.63-9.1,1.93-.69,.06-1.38,.11-2.07,.13Z"/><path d="M127.12,153.9c-1.55,.34-2.57,.01-2.82-.54-.25-.56,.21-1.34,1.58-1.99l2.48-1.19c3.69-1.78,7.34-3.58,10.94-5.42,3.59-1.85,7.14-3.73,10.57-5.71l.65-.37,.64-.38,1.28-.75c.83-.51,1.69-1.01,2.5-1.54,1.66-1.03,3.26-2.11,4.82-3.22l1.16-.84c.38-.28,.75-.57,1.12-.86l.56-.43,.54-.44,.54-.44c.18-.15,.37-.29,.53-.45l1.03-.91c.18-.15,.33-.31,.5-.47l.49-.47c.16-.16,.33-.31,.49-.47l.46-.48,.46-.48c.08-.08,.16-.16,.23-.24l.22-.26,.87-1.02c.15-.17,.28-.35,.42-.53l.42-.54c.57-.71,1.09-1.48,1.63-2.23,.28-.37,.52-.77,.79-1.15l.78-1.16,.76-1.19,.38-.59,.37-.6c2-3.2,3.9-6.51,5.79-9.84l1.3-2.29c.69-1.23,1.56-1.67,2.19-1.46,.63,.21,1.02,1.1,.69,2.49-.21,.86-.43,1.72-.66,2.58-1.03,3.74-2.31,7.41-3.86,11.01l-.29,.68-.31,.67-.63,1.34c-.22,.45-.45,.89-.67,1.33-.23,.44-.45,.89-.7,1.32-.5,.88-.98,1.75-1.55,2.61l-.42,.65c-.14,.22-.27,.43-.43,.64l-.93,1.27-.24,.32c-.08,.1-.17,.21-.25,.31l-.52,.61-.52,.61c-.18,.2-.36,.39-.55,.58l-.55,.58c-.19,.19-.36,.39-.56,.57l-1.16,1.09c-.19,.19-.39,.35-.59,.53l-.6,.52-.6,.52-.62,.49c-.42,.33-.83,.66-1.25,.98l-1.28,.93c-1.72,1.22-3.49,2.37-5.31,3.43-.9,.54-1.83,1.04-2.75,1.55l-1.4,.73-.7,.36-.71,.35c-3.78,1.88-7.69,3.51-11.68,4.95-4,1.43-8.08,2.68-12.24,3.71-.93,.23-1.87,.44-2.81,.65Z"/><path d="M196.5,114.47c.54-1.1,1.67-1.58,2.72-1.53,1.05,.05,2.03,.73,2.08,1.95,.02,.37,.03,.74,.03,1.1,0,.37,0,.74,0,1.1-.1,3.29-.72,6.56-1.76,9.81-1.05,3.24-2.58,6.46-4.66,9.57l-.38,.58c-.13,.19-.28,.38-.42,.58l-.86,1.15c-.55,.76-1.24,1.54-1.91,2.29-1.37,1.5-2.89,2.9-4.47,4.25-3.18,2.69-6.69,5.12-10.39,7.38-3.71,2.26-7.61,4.34-11.68,6.26-4.07,1.92-8.28,3.7-12.68,5.3-1.01,.36-2.02,.72-3.05,1.06-1.65,.56-3.03,.36-3.65-.2-.62-.55-.52-1.43,.72-2.29,0,0,20.91-12.01,24.07-14.29,3.15-2.29,6.21-4.59,9-6.94,1.38-1.18,2.72-2.36,3.93-3.56,.59-.61,1.18-1.18,1.73-1.84l.85-.96c.14-.16,.29-.32,.42-.48l.4-.49c2.17-2.61,4.12-5.34,5.93-8.16,1.81-2.82,1.47-6.71,3.01-9.67,.18-.33,.35-.66,.52-.99,.17-.33,.34-.66,.5-1Z"/><path d="M200.79,138.3c0-1.1,.5-1.75,1.16-1.9,.66-.15,1.52,.32,1.94,1.48,.25,.7,.48,1.41,.67,2.13,.84,3.2,1.08,6.54,.71,9.89-.37,3.34-1.42,6.69-3.13,9.81-.22,.39-.43,.78-.67,1.16l-.73,1.14-.8,1.1c-.07,.09-.13,.18-.2,.27l-.22,.27-.43,.53c-.15,.18-.29,.36-.44,.53l-.46,.51-.47,.51-.24,.26-.27,.26-.54,.53c-.18,.18-.37,.33-.55,.49l-.56,.48-.56,.45c-1.51,1.18-3.07,2.2-4.65,3.15-1.58,.95-3.19,1.82-4.82,2.64-3.26,1.64-6.6,3.08-10.01,4.38-3.41,1.3-6.87,2.47-10.4,3.48-.81,.23-1.62,.45-2.44,.67-1.32,.35-2.23,.06-2.51-.46-.29-.53,.03-1.29,1.15-1.93l2.09-1.2c3.05-1.74,6.11-3.43,9.13-5.13,3.03-1.7,6.03-3.39,8.95-5.11,1.46-.86,2.89-1.73,4.27-2.63,1.38-.89,2.71-1.8,3.9-2.73l.45-.35,.41-.35c.13-.12,.28-.23,.41-.35l.37-.35,.19-.17,.19-.2,.39-.4,.39-.4,.37-.42,.37-.42,.18-.21c.06-.07,.11-.14,.17-.21l.69-.86,.65-.88c.22-.29,.41-.6,.62-.9,1.6-2.43,2.84-5.06,3.7-7.85,.87-2.78,1.37-5.71,1.53-8.7,.04-.67,.06-1.34,.05-2.01Z"/><path d="M220.35,159.78c.82-1.07,1.58-1.39,2.03-1.14,.45,.25,.56,1.11-.02,2.36-.35,.76-.71,1.51-1.08,2.25-1.67,3.33-3.56,6.55-5.63,9.67-2.07,3.12-4.34,6.12-6.84,8.96-1.25,1.42-2.56,2.8-3.94,4.12-1.38,1.32-2.82,2.6-4.35,3.79-.39,.29-.78,.58-1.17,.86l-.59,.43c-.2,.14-.39,.29-.59,.41l-1.19,.79c-.4,.26-.79,.53-1.19,.77-.8,.49-1.6,.99-2.41,1.47-.81,.47-1.62,.93-2.43,1.39-3.26,1.81-6.57,3.46-9.93,5.01-3.36,1.55-6.76,2.99-10.22,4.31-.79,.3-1.59,.6-2.38,.88-1.28,.47-2.12,.3-2.34-.16-.22-.46,.16-1.21,1.3-1.94l2.13-1.36c3.1-1.97,6.22-3.89,9.33-5.8,3.11-1.92,6.21-3.81,9.27-5.74l2.28-1.45c.76-.49,1.49-.99,2.24-1.47,.38-.24,.73-.5,1.1-.75l1.09-.75c.19-.12,.36-.25,.53-.38l.52-.39c.35-.26,.7-.51,1.04-.77,1.37-1.06,2.7-2.2,4-3.38,1.3-1.18,2.58-2.41,3.82-3.68,2.49-2.54,4.9-5.2,7.24-7.94,2.35-2.74,4.63-5.57,6.87-8.44,.5-.64,1-1.29,1.5-1.93Z"/><path d="M220.77,187.35c.69-.92,1.4-1.19,1.86-.96,.46,.23,.64,1.01,.19,2.12-.14,.34-.28,.67-.43,1.01l-.45,1c-1.37,2.95-2.99,5.78-4.8,8.49-1.82,2.71-3.84,5.3-6.06,7.73-2.24,2.42-4.67,4.66-7.28,6.72-1.37,1.05-2.78,1.97-4.21,2.82-1.43,.85-2.88,1.62-4.35,2.34-2.93,1.44-5.92,2.68-8.96,3.77-3.03,1.09-6.11,2.04-9.22,2.83-.71,.18-1.43,.35-2.15,.52-1.16,.26-1.89-.03-2.05-.51-.17-.48,.21-1.16,1.24-1.7l1.93-1.01c2.81-1.46,5.62-2.9,8.39-4.36,2.78-1.46,5.52-2.93,8.2-4.46,1.34-.77,2.65-1.55,3.93-2.36,1.27-.81,2.51-1.65,3.65-2.53,2.37-1.86,4.67-3.86,6.89-5.96,2.21-2.12,4.33-4.34,6.4-6.65,2.06-2.31,4.06-4.7,5.99-7.17l.65-.83,.64-.84Z"/></g><path d="M88.46,123.54c1.06-.12,1.59-.66,1.57-1.17-.02-.51-.52-1-1.51-1.18-.6-.11-1.21-.22-1.81-.34-2.68-.54-5.32-1.19-7.9-1.95-2.58-.77-5.09-1.65-7.52-2.67-1.22-.51-2.41-1.06-3.58-1.65-.29-.15-.59-.29-.87-.45l-.43-.23c-.14-.08-.3-.15-.41-.22l-.37-.22c-.12-.07-.25-.14-.37-.22l-.37-.24c-.12-.08-.25-.16-.37-.25-.97-.69-1.93-1.51-2.86-2.39-.93-.88-1.84-1.82-2.72-2.8-.89-.98-1.75-2-2.61-3.03-.86-1.04-1.7-2.1-2.54-3.17-1.67-2.15-3.31-4.37-4.95-6.61l-1.12-1.54c-.6-.83-1.28-1.05-1.74-.83-.46,.22-.69,.92-.35,1.92,.21,.62,.44,1.23,.67,1.84,1.03,2.66,2.24,5.24,3.62,7.75,.69,1.26,1.43,2.49,2.21,3.71,.79,1.21,1.62,2.4,2.53,3.56,.91,1.16,1.88,2.28,2.94,3.35,1.06,1.07,2.21,2.1,3.51,3.03,.15,.12,.33,.23,.5,.34l.51,.33c.16,.11,.35,.21,.53,.32l.54,.3c.19,.11,.34,.18,.51,.27l.5,.25c.33,.17,.67,.32,1.01,.48,1.35,.61,2.72,1.16,4.12,1.63,2.79,.94,5.65,1.59,8.53,1.97,2.88,.37,5.78,.5,8.66,.32,.64-.04,1.29-.1,1.93-.17Z"/><path d="M84.44,142.37c1.14-.1,1.71-.64,1.7-1.15-.02-.51-.54-1.01-1.6-1.2-.64-.12-1.28-.25-1.92-.39-2.85-.62-5.63-1.39-8.32-2.35-2.68-.96-5.27-2.09-7.71-3.41-1.22-.67-2.4-1.39-3.54-2.15-1.13-.78-2.23-1.6-3.27-2.48l-.77-.68-.39-.34-.4-.37c-.54-.5-1.08-.99-1.61-1.49l-3.25-3.01c-2.17-2.01-4.37-4.01-6.6-5.98-2.23-1.97-4.49-3.92-6.8-5.83l-1.6-1.3c-1.72-1.39-3-.19-1.71,1.61,.4,.56,.81,1.12,1.21,1.67,1.79,2.42,3.66,4.76,5.59,7.06,1.93,2.3,3.92,4.54,5.98,6.72,1.03,1.09,2.08,2.17,3.16,3.23,.53,.53,1.08,1.06,1.63,1.58l.41,.39c.14,.13,.3,.27,.45,.4,.3,.27,.6,.54,.91,.8,1.24,1.03,2.55,1.98,3.9,2.85,1.36,.85,2.77,1.61,4.22,2.28,2.9,1.33,5.93,2.28,8.99,2.88,3.07,.59,6.18,.86,9.27,.76,.69-.03,1.38-.07,2.07-.13Z"/><path d="M83.65,163.5c1.19,.19,1.89-.15,1.99-.65,.1-.49-.36-1.13-1.46-1.6l-2-.86c-2.98-1.29-5.93-2.59-8.85-3.94-2.92-1.35-5.8-2.74-8.63-4.21l-.53-.27-.52-.28-1.05-.56c-.69-.39-1.39-.76-2.07-1.16-1.38-.78-2.71-1.6-4.03-2.45l-.98-.64c-.32-.22-.64-.44-.96-.66l-.48-.33-.46-.35-.46-.34c-.15-.11-.31-.23-.46-.35l-.9-.71c-.15-.12-.29-.24-.44-.37l-.43-.37c-.14-.12-.29-.24-.43-.37l-.41-.39-.41-.38c-.07-.06-.14-.13-.21-.19l-.2-.21-.79-.82c-.13-.13-.26-.28-.39-.43l-.39-.44c-.53-.57-1.03-1.19-1.54-1.8-.26-.3-.5-.62-.75-.94l-.75-.95-.74-.97-.37-.48-.36-.49c-1.95-2.61-3.85-5.32-5.75-8.05l-1.3-1.88c-.69-1.01-1.4-1.33-1.83-1.11-.43,.22-.58,1-.13,2.17,.28,.73,.58,1.45,.88,2.16,1.32,3.13,2.82,6.19,4.51,9.17l.32,.56,.33,.55,.66,1.11c.23,.37,.46,.73,.7,1.09,.24,.36,.46,.73,.72,1.09,.5,.72,.99,1.44,1.54,2.14l.4,.53c.14,.18,.27,.35,.42,.52l.88,1.03,.22,.26c.08,.08,.16,.16,.23,.25l.47,.49,.47,.49c.16,.16,.33,.31,.49,.46l.49,.46c.16,.15,.33,.31,.5,.45l1.01,.86c.17,.15,.34,.28,.52,.41l.52,.4,.52,.4,.53,.38c.35,.25,.71,.51,1.06,.76l1.08,.72c1.45,.93,2.92,1.8,4.42,2.59,.75,.41,1.5,.77,2.26,1.15l1.14,.54,.57,.27,.57,.25c3.06,1.36,6.18,2.51,9.33,3.49,3.15,.97,6.33,1.78,9.55,2.39,.72,.14,1.44,.26,2.16,.38Z"/><g><path d="M47.47,160.85c-.66-.56-1.32-.58-1.73-.28-.41,.3-.54,.99-.08,1.78,.14,.24,.28,.48,.43,.71,.15,.24,.29,.47,.44,.7,1.35,2.08,2.92,4.01,4.64,5.82,1.73,1.8,3.64,3.47,5.73,4.92l.39,.28c.13,.09,.27,.17,.4,.26l.81,.51c.53,.34,1.12,.67,1.7,.98,1.16,.61,2.34,1.12,3.53,1.57,2.38,.9,4.79,1.56,7.22,2.06,2.42,.49,4.86,.82,7.3,1.01,2.44,.19,4.88,.24,7.32,.13,.56-.03,1.12-.06,1.68-.1,.9-.07,1.39-.55,1.42-1.06,.03-.51-.36-1.05-1.21-1.28l-1.58-.43c-2.29-.61-4.58-1.21-6.86-1.82-2.27-.61-4.52-1.22-6.73-1.87-2.21-.65-4.39-1.34-6.47-2.13-1.04-.4-2.06-.81-3.04-1.27-.48-.24-.96-.46-1.44-.73l-.73-.39c-.12-.07-.25-.13-.37-.2l-.36-.21c-1.93-1.11-3.83-2.36-5.69-3.69-1.87-1.34-3.71-2.76-5.52-4.26-.21-.16-.41-.33-.61-.5-.2-.17-.41-.34-.61-.51Z"/><path d="M55.5,182.22c-.44-.73-.99-.98-1.43-.84-.44,.13-.74,.74-.52,1.65,.14,.55,.3,1.1,.48,1.63,.81,2.4,2.02,4.69,3.58,6.76,1.56,2.07,3.51,3.91,5.75,5.37,.28,.18,.56,.36,.85,.53l.88,.49,.9,.45c.08,.04,.15,.07,.23,.11l.23,.1,.46,.2c.15,.07,.31,.13,.46,.2l.47,.18,.47,.17,.24,.09,.26,.08,.52,.16c.18,.05,.34,.09,.51,.13l.51,.12,.5,.1c1.34,.25,2.64,.37,3.93,.44,1.29,.07,2.56,.08,3.82,.05,2.53-.06,5.02-.28,7.5-.62,2.48-.34,4.93-.78,7.36-1.35,.56-.13,1.11-.27,1.67-.42,.89-.23,1.3-.74,1.25-1.19-.05-.45-.54-.84-1.44-.87l-1.68-.06c-2.45-.08-4.88-.12-7.3-.18-2.42-.06-4.82-.12-7.19-.23-1.18-.06-2.36-.13-3.51-.23-1.15-.1-2.28-.24-3.33-.43l-.4-.07-.38-.09c-.12-.03-.26-.05-.37-.09l-.35-.1-.18-.05-.19-.06-.38-.13-.38-.13-.38-.15-.38-.14-.19-.07c-.06-.03-.12-.05-.19-.08l-.74-.32-.73-.35c-.24-.12-.48-.25-.72-.38-1.9-1.04-3.67-2.34-5.29-3.87-1.62-1.53-3.09-3.28-4.39-5.19-.29-.43-.57-.86-.84-1.31Z"/><path d="M49.89,206.26c-.88-.31-1.45-.2-1.62,.11-.17,.31,.08,.85,.89,1.35,.49,.3,.98,.6,1.48,.89,2.22,1.29,4.53,2.44,6.91,3.45,2.38,1.02,4.83,1.89,7.36,2.58,1.26,.35,2.55,.64,3.85,.89,1.3,.24,2.63,.43,3.97,.54,.34,.02,.67,.04,1.01,.06l.51,.02c.17,0,.34,.02,.5,.02h.99c.33,0,.66,.01,.99,0,.65-.02,1.31-.03,1.96-.07,.65-.04,1.3-.07,1.95-.12,2.59-.19,5.16-.49,7.71-.87,2.55-.38,5.09-.84,7.62-1.38,.58-.13,1.15-.26,1.73-.39,.93-.22,1.36-.63,1.32-.98-.04-.35-.55-.64-1.49-.63l-1.76,.02c-2.56,.04-5.11,.11-7.65,.19-2.54,.07-5.07,.15-7.59,.2l-1.88,.02c-.63,0-1.25,0-1.87,0-.31,0-.62-.01-.92-.02l-.92-.02c-.15,0-.3-.01-.45-.02l-.45-.03c-.3-.02-.6-.03-.9-.05-1.2-.1-2.41-.25-3.61-.44-1.21-.19-2.41-.41-3.62-.68-2.41-.52-4.82-1.15-7.22-1.84-2.4-.69-4.79-1.46-7.18-2.27-.53-.18-1.07-.36-1.6-.55Z"/><path d="M56.56,221.25c-.85-.22-1.38-.05-1.53,.3-.15,.35,.12,.9,.92,1.34,.24,.13,.49,.27,.73,.4l.74,.38c2.22,1.11,4.52,2.02,6.88,2.77,2.36,.75,4.77,1.34,7.22,1.73,2.46,.38,4.94,.56,7.44,.56,1.3-.02,2.55-.14,3.78-.31,1.23-.17,2.44-.4,3.62-.66,2.38-.53,4.69-1.2,6.96-1.98,2.27-.78,4.49-1.66,6.66-2.66,.5-.23,.99-.46,1.48-.7,.79-.39,1.07-.9,.93-1.27-.14-.37-.68-.59-1.54-.42l-1.6,.31c-2.32,.45-4.63,.92-6.93,1.36-2.3,.44-4.59,.86-6.86,1.21-1.14,.17-2.27,.33-3.4,.45-1.12,.12-2.24,.2-3.32,.22-2.26,.01-4.55-.09-6.84-.29-2.29-.22-4.59-.54-6.89-.93-2.3-.4-4.61-.88-6.91-1.43l-.77-.19-.77-.2Z"/></g><g><path d="M147.56,170.29c.75-.44,1.4-.35,1.75,.02,.35,.37,.37,1.07-.22,1.77-.18,.21-.36,.42-.54,.63-.18,.21-.37,.42-.56,.62-1.68,1.82-3.55,3.46-5.56,4.95-2.01,1.49-4.17,2.8-6.48,3.88l-.43,.21c-.14,.07-.29,.13-.44,.19l-.89,.37c-.58,.25-1.22,.47-1.84,.68-1.25,.4-2.5,.7-3.75,.96-2.5,.49-4.99,.73-7.46,.81-2.47,.08-4.93-.01-7.36-.24-2.44-.23-4.85-.59-7.24-1.1-.55-.12-1.09-.25-1.64-.38-.88-.22-1.27-.78-1.22-1.29,.05-.51,.53-.97,1.41-1.06l1.63-.15c2.36-.21,4.72-.42,7.07-.63,2.34-.21,4.66-.44,6.95-.71,2.29-.27,4.55-.58,6.74-1.01,1.09-.22,2.17-.45,3.21-.74,.52-.15,1.02-.29,1.55-.48l.79-.26c.13-.04,.26-.08,.39-.13l.39-.15c2.09-.77,4.17-1.68,6.23-2.68,2.07-1,4.12-2.1,6.16-3.27,.23-.13,.46-.26,.69-.39,.23-.13,.46-.26,.68-.4Z"/><path d="M148.19,187.63c.56-.64,1.14-.79,1.56-.58,.41,.21,.6,.86,.22,1.72-.23,.52-.48,1.03-.75,1.53-1.22,2.23-2.81,4.26-4.71,6.03-1.9,1.77-4.14,3.24-6.6,4.28-.31,.12-.62,.26-.93,.37l-.95,.33-.97,.28c-.08,.02-.16,.05-.24,.07l-.25,.06-.49,.12c-.16,.04-.33,.08-.49,.11l-.5,.09-.5,.09-.25,.04-.27,.03-.54,.06c-.18,.02-.35,.02-.53,.04l-.53,.03h-.51c-1.36,.02-2.67-.09-3.95-.24-1.28-.16-2.54-.37-3.77-.62-2.48-.5-4.9-1.16-7.28-1.92-2.38-.76-4.72-1.63-7.02-2.62-.52-.23-1.05-.46-1.57-.7-.84-.39-1.15-.95-1.03-1.39,.13-.43,.68-.73,1.57-.6l1.67,.24c2.42,.35,4.83,.73,7.22,1.1,2.39,.37,4.77,.73,7.12,1.03,1.17,.15,2.34,.28,3.49,.38,1.15,.1,2.28,.16,3.36,.16h.4l.39-.02c.13,0,.26,0,.38-.02l.36-.04,.18-.02,.2-.03,.4-.06,.4-.06,.4-.08,.4-.08,.2-.04c.07-.01,.13-.03,.2-.05l.79-.19,.78-.22c.26-.07,.51-.17,.77-.25,2.05-.69,4.02-1.66,5.88-2.89,1.86-1.22,3.61-2.69,5.23-4.35,.36-.37,.71-.75,1.06-1.14Z"/><path d="M152.98,209.17c.91-.2,1.46-.03,1.6,.31,.13,.33-.19,.83-1.05,1.24-.52,.24-1.05,.48-1.57,.7-2.36,1.01-4.8,1.87-7.28,2.59-2.48,.72-5.03,1.28-7.62,1.67-1.3,.19-2.61,.33-3.93,.41-1.32,.08-2.66,.11-4,.05-.34-.02-.67-.04-1.01-.07l-.5-.04c-.17-.01-.34-.02-.5-.05l-.99-.11c-.33-.04-.66-.07-.98-.13-.65-.1-1.3-.19-1.94-.3-.64-.12-1.28-.23-1.92-.35-2.55-.51-5.06-1.12-7.55-1.8-2.49-.69-4.95-1.45-7.39-2.3-.56-.2-1.11-.4-1.67-.6-.89-.33-1.27-.79-1.19-1.13,.08-.34,.62-.57,1.55-.44l1.74,.24c2.53,.35,5.06,.74,7.57,1.12,2.51,.38,5.02,.77,7.51,1.12l1.86,.25c.62,.08,1.24,.15,1.85,.23,.31,.04,.61,.06,.92,.1l.92,.09c.15,.02,.3,.03,.45,.04l.45,.03c.3,.02,.6,.04,.9,.06,1.2,.05,2.42,.04,3.64,0,1.22-.04,2.45-.12,3.67-.23,2.46-.22,4.92-.55,7.39-.95,2.47-.4,4.94-.87,7.41-1.37,.55-.11,1.11-.23,1.66-.35Z"/><path d="M149.08,222.25c.85-.22,1.38-.05,1.53,.3,.15,.35-.12,.9-.92,1.34-.24,.13-.49,.27-.73,.4l-.74,.38c-2.22,1.11-4.52,2.02-6.88,2.77-2.36,.75-4.77,1.34-7.22,1.73-2.46,.38-4.94,.56-7.44,.56-1.3-.02-2.55-.14-3.78-.31-1.23-.17-2.44-.4-3.62-.66-2.38-.53-4.69-1.2-6.96-1.98-2.27-.78-4.49-1.66-6.66-2.66-.5-.23-.99-.46-1.48-.7-.79-.39-1.07-.9-.93-1.27,.14-.37,.68-.59,1.54-.42l1.6,.31c2.32,.45,4.63,.92,6.93,1.36,2.3,.44,4.59,.86,6.86,1.21,1.14,.17,2.27,.33,3.4,.45,1.12,.12,2.24,.2,3.32,.22,2.26,.01,4.55-.09,6.84-.29,2.29-.22,4.59-.54,6.89-.93,2.3-.4,4.61-.88,6.91-1.43l.77-.19,.77-.2Z"/></g></g></g></g></g><g style="clip-path:url(#clippath-2);"><path d="M69.76,86.31c1.39-4.57,7.49,3.75,26.23,2.5,24.9-1.66,33.58-11.77,34.97-6.24,1.39,5.52-8.66,7.45-12.49,21.23-6.24,22.48,5.37,60.39-17.48,58.7-33.48-2.49-19.57-48.47-23.73-59.94-5.3-14.61-8.88-11.67-7.49-16.24Z" style="fill:#fff;"/></g><g><path d="M196.63,181.27s-.03,0-.05,0c-1.05-.03-1.88-.9-1.85-1.94,0-.09,.06-4.84-2.27-12.04-2.16-6.67-6.87-16.86-17.07-27.54-12.68-13.28-21.07-18.29-29.95-23.59-3.07-1.83-6.24-3.72-9.64-5.99-10.12-6.75-16.06-19.22-13.8-29.01,.78-3.38,2.22-5.74,3.48-7.82,1.37-2.25,2.55-4.19,3-7.26,.56-3.82,.04-7.91-.49-10.67-.2-1.03,.48-2.03,1.51-2.23,1.03-.2,2.03,.48,2.23,1.51,.59,3.05,1.15,7.59,.52,11.94-.56,3.83-2.06,6.29-3.52,8.68-1.23,2.01-2.38,3.91-3.02,6.69-1.89,8.19,3.47,19.17,12.2,24.99,3.32,2.22,6.45,4.08,9.48,5.89,9.11,5.44,17.71,10.57,30.75,24.23,20.67,21.65,20.41,41.46,20.39,42.3-.03,1.03-.87,1.85-1.9,1.85Z"/><path d="M109.68,41.27c-.3,0-.61-.07-.89-.22-.03-.02-4.26-2.13-13.6-2.13s-14.35,2.16-14.39,2.18c-.96,.43-2.08,0-2.51-.94-.43-.95-.02-2.07,.93-2.51,.22-.1,5.62-2.53,15.97-2.53s15.18,2.47,15.38,2.58c.93,.49,1.28,1.64,.79,2.57-.34,.64-1,1.01-1.68,1.01Z"/><path d="M131.77,52.39c-.36,0-.73-.1-1.05-.32-.87-.58-1.11-1.76-.53-2.63,1.91-2.87,3.33-5.31,4.22-7.24,2.9-6.3,1.7-18.75,.21-21.22-2.06,.68-8.61,4.52-13.93,9.08-2.5,2.15-5.47,5.49-6.85,7.21-.66,.82-1.85,.95-2.67,.29-.82-.66-.95-1.85-.29-2.67,1.47-1.83,4.63-5.4,7.34-7.72,4.44-3.81,14.28-10.63,17.27-10.05,1.03,.19,1.88,.93,2.53,2.2,2.21,4.28,2.95,17.72-.16,24.46-.98,2.11-2.49,4.72-4.51,7.76-.37,.55-.97,.85-1.58,.85Zm3.26-31.52"/><path d="M57.65,52.39c-.62,0-1.22-.3-1.58-.85-2.01-3.03-3.53-5.64-4.51-7.76-3.11-6.74-2.37-20.18-.16-24.46,.65-1.27,1.5-2.01,2.53-2.2,.58-.11,1.93-.36,7.58,3.07,3.37,2.04,6.9,4.59,9.69,6.99,2.7,2.31,5.87,5.88,7.34,7.72,.66,.82,.52,2.01-.29,2.67-.82,.66-2.02,.52-2.67-.29-1.38-1.72-4.34-5.06-6.85-7.21-5.33-4.57-11.87-8.41-13.93-9.08-1.49,2.47-2.69,14.92,.21,21.22,.9,1.94,2.32,4.38,4.22,7.24,.58,.87,.34,2.05-.53,2.63-.32,.21-.69,.32-1.05,.32Zm-3.26-31.52h0Z"/><path d="M76.36,95.98c-.11,0-.22,0-.33-.03-1.03-.18-1.72-1.15-1.55-2.18,.02-.14,.35-2.57-1.43-5.23-.49-.73-1.66-1.83-3.01-3.1-4.23-3.98-10.63-9.99-11.92-18.81-.64-4.35-.07-8.89,.52-11.94,.2-1.03,1.19-1.7,2.23-1.51,1.03,.2,1.71,1.19,1.51,2.23-.53,2.76-1.05,6.85-.49,10.67,1.1,7.51,6.91,12.98,10.76,16.59,1.59,1.49,2.84,2.67,3.57,3.76,2.67,3.99,2.04,7.81,2.02,7.97-.16,.92-.96,1.58-1.87,1.58Z"/><path d="M104.63,250.54c-1.01,0-1.85-.8-1.9-1.82-.01-.33-1.37-32.84-2.49-41.48-1.41-10.87-3.48-17.03-4.37-19.66l-.17-.52-4.21-7.09c-.54-.9-.24-2.07,.66-2.6,.9-.54,2.07-.24,2.6,.66l4.31,7.26c.07,.12,.13,.25,.17,.38l.23,.7c.92,2.74,3.07,9.14,4.53,20.38,1.14,8.81,2.46,40.47,2.52,41.82,.04,1.05-.77,1.93-1.82,1.98-.03,0-.05,0-.08,0Z"/><path d="M116.44,262.93c-1.83,0-3.5-.21-4.53-.37-3.64-.58-6.53-2.08-7.92-4.14-.84-1.24-1.12-2.63-.81-4.03,.23-1.02,1.25-1.67,2.27-1.44,1.02,.23,1.67,1.25,1.44,2.27-.05,.22-.08,.58,.25,1.06,.61,.9,2.34,2.04,5.37,2.52,4.04,.64,7.59,.33,9.05-.79,.43-.33,.64-.7,.69-1.22,.28-2.77-1.16-4.64-2.69-6.61-.91-1.18-1.78-2.29-2.22-3.59-1.38-4.08,10.84-56.68,10.98-57.16,.3-1,1.36-1.58,2.37-1.27,1,.3,1.58,1.36,1.27,2.37-1.65,5.5-11.32,50.75-10.98,54.94,.26,.67,.9,1.5,1.58,2.38,1.65,2.13,3.91,5.04,3.47,9.33-.16,1.55-.9,2.88-2.15,3.84-1.95,1.5-4.85,1.9-7.43,1.9Zm4.54-17.38h0Z"/><path d="M93.98,262.34c-6.06,0-9.86-3.4-9.92-8.9-.04-3.75,2.5-5.28,4.36-6.39,1.9-1.14,2.81-1.77,2.81-3.7,0-6.17-2.75-27.3-4.9-33.68-.35-1.05-.87-2.48-1.5-4.22-3.35-9.25-10.32-28.51-12.58-46.21-2.73-21.4-1.49-28.72,.24-38.87,.25-1.48,.51-3.02,.77-4.67,.74-4.68,1.2-15.58,1.2-15.69,.04-1.05,.93-1.87,1.98-1.82,1.05,.04,1.86,.93,1.82,1.98-.02,.46-.48,11.23-1.25,16.12-.26,1.67-.53,3.22-.78,4.71-1.67,9.82-2.87,16.91-.21,37.75,2.21,17.28,9.08,36.27,12.39,45.4,.64,1.78,1.17,3.23,1.53,4.3,2.43,7.2,5.1,29,5.1,34.9,0,4.17-2.69,5.78-4.66,6.96-1.87,1.13-2.53,1.65-2.51,3.09,.04,3.41,2.09,5.14,6.11,5.14h.07c4.74-.02,6.68-1.79,6.76-1.86,.76-.71,1.95-.69,2.67,.05,.72,.74,.73,1.91,0,2.65-.3,.3-3.08,2.93-9.42,2.97h-.08Z"/><path d="M161.04,258.07c-1.72,0-3.22-.04-4.77-.08-1.6-.04-3.23-.07-5.17-.08h-.07c-4.32,0-12.02-.24-15.6-1.86-2.66-1.2-5.62-3.81-4.6-9.42,1.21-6.65,22.2-8.9,31.17-9.55,1.03-.07,1.96,.71,2.03,1.76,.08,1.05-.71,1.96-1.76,2.03-14.08,1.03-27.29,4.1-27.71,6.44-.5,2.75,.2,4.27,2.42,5.27,2.5,1.12,8.88,1.52,14.05,1.52h.16c1.94,0,3.57,.04,5.17,.08,3.08,.07,5.99,.15,10.82-.08,6.37-.3,21.3-10.97,27.68-23.55,6.02-11.88,2.01-37.83,1.96-38.09-.16-1.04,.54-2.01,1.58-2.17,1.05-.16,2.01,.54,2.17,1.58,.18,1.11,4.25,27.43-2.33,40.41-5.54,10.92-21.19,25.18-30.89,25.63-2.53,.12-4.54,.16-6.32,.16Z"/></g></g></g></svg>