<?xml version="1.0" encoding="UTF-8"?><svg xmlns="http://www.w3.org/2000/svg" xmlns:xlink="http://www.w3.org/1999/xlink" viewBox="0 0 280 280"><defs><clipPath id="clippath"><path d="M199.95,208.03s17.29-14.45,24.5-67.73c5.16-38.13,9.96-84.06-5.07-84.06-13.02,0-8.12,29.03-12.93,65.06-4,30-14,51-14,51,0,0-4.27,32.9,7.5,35.73Z" style="fill:none;"/></clipPath><clipPath id="clippath-1"><path d="M187.71,152.99c-8.16-17.45-22.78-24.91-36.78-35.91-4.45-3.5-10.57-5.47-16-10-12-10-12-27-12-27,0,0-.22,.16-.64,.43,2.1-2.46,3.92-5.03,5.42-7.52,2.12-3.53,3.22-11.17,.8-17.78,1.62-2.37,3.64-5.64,5.2-9.22,3.24-7.42,2.66-24.37,1-26-2.8-2.75-20.81,14.13-25.7,18.81-3.99-1.28-8.67-1.81-15.3-1.81-6.24,0-10.75,.26-14.5,1.23-5.61-5.34-22.39-20.88-25.09-18.23-1.66,1.63-2.24,18.58,1,26,1.71,3.91,3.96,7.46,5.64,9.85-1.57,5.21-1.58,11.16-.05,16.15,1.24,4.05,6.43,9.75,13.05,14.46,.84,2.65,2,7.14,1.95,11.54-.1,9.47-2.42,21.54-3,32-1.28,22.96,7.07,62.73,14,77,6.33,13.04,6,39,6,39,0,0-8.61,5.28-7,10,1.61,4.72,6.41,4.88,11,4,4.13-.79,1.42-1.87,6-1.87s6.51,4.37,15,2.89c6.05-1.06,8-3.85,3-9.62-.97-1.12-1.59-3.69-1.85-4.99,.19-.78,.52-2.37,1.08-5.31,2.41,5.04,9.5,1.03,11.85,4.67,.81,1.26-.92,4.74,1.41,7.43,2.33,2.69,1.34,3.77,7.43,3.49,6.09-.28,24.61,2.08,30.38-1.27,5.78-3.34,22.27-11.16,25.7-30.41,3.95-22.14,5.67-40.65-9-72Z" style="fill:none;"/></clipPath></defs><path d="M199.95,208.04s17.29-14.45,24.5-67.73c5.16-38.13,9.96-84.06-5.07-84.06-13.02,0-8.12,29.03-12.93,65.06-4,30-14,51-14,51,0,0-4.27,32.9,7.5,35.73Z" style="fill:#d1a67b;"/><g style="clip-path:url(#clippath);"><g><path d="M183.89,59.62c1.28,.24,.86,.41,2.16,1.47,.56,.45,1.15,1.08,1.84,1.82,.53,.57,.51,1.66,1.09,2.42,.48,.64,2.27,.45,2.76,1.24,.43,.69,.09,1.91,.53,2.72,.39,.72,.45,1.64,.83,2.47,.4,.88,1.61,1.39,1.9,2.22,.32,.91,.12,1.96,.34,2.82,.24,.94,.32,1.86,.47,2.73,.16,.95,.15,1.88,.26,2.76,.12,.96,.58,1.84,.69,2.71,.11,.97-.23,1.97-.06,2.83,.19,.94,.47,1.9,.84,2.71s.86,1.75,1.53,2.45c.6,.63,1.98,.51,2.62,1.12s.56,1.98,1.21,2.59,1.99,.49,2.62,1.11,.27,2.17,.86,2.83,2.22,.49,2.73,1.21,.8,1.66,1.2,2.46,.3,1.79,.55,2.65c.22,.77,.44,1.62,.69,2.5,.22,.81,.88,1.52,1.13,2.38s.78,1.55,1.06,2.37-.55,2.06-.23,2.86,1.93,1.03,2.32,1.78c.42,.8,.41,1.73,.91,2.39,.55,.73,.75,1.74,1.41,2.24,.71,.53,1.68,.46,2.54,.62,.66,.13,1.3-.14,2.27-.79,.64-.43,1.67-.59,2.38-1.29,.59-.58,.76-1.63,1.38-2.36,.54-.65,.72-1.6,1.27-2.35,.51-.69,2.22-.59,2.72-1.35s.86-1.58,1.32-2.36,.2-1.93,.62-2.72,1.74-1.14,2.12-1.94-.08-2,.25-2.82,.44-1.73,.72-2.57,1.05-1.56,1.27-2.4,.85-1.71,.99-2.56c.15-.91-.58-1.9-.55-2.76,.03-.92-.44-1.72-.56-2.57-.13-.91-.49-1.56-.81-2.35s.34-2.22-.24-2.9-1.42-1.22-2.22-1.7-1.52-1.01-2.25-1.48c-.79-.51-1.37-1.22-2.08-1.73-.77-.55-1.5-1.02-2.17-1.57-.74-.6-1.94-.58-2.56-1.18-.69-.66-.62-1.94-1.17-2.59-.62-.73-1.16-1.34-1.6-2.06-.51-.82-2.04-1.07-2.33-1.87-.33-.89-.43-1.95-.5-2.81-.07-.91,.03-1.96,.24-2.84s.31-1.97,.76-2.79c.39-.7,1.66-1.11,2.54-1.75,.69-.5,1.89-.28,2.79-.75,.79-.41,1.02-2.11,1.93-2.51,.83-.36,1.83-.47,2.72-.83s2.19,.47,3.07,.12,1.34-1.71,2.21-2.06,2.01-.08,2.86-.45,1.72-.85,2.54-1.25c.88-.43,1.43-1.38,2.19-1.84,.86-.52,1.51-1.1,2.17-1.67,.78-.67,1.86-.93,2.28-1.69,.47-.84,.28-1.8,.18-2.77-.1-.91,.15-2.28-.62-2.91-.62-.51-1.67-1-2.64-1.36-.78-.29-1.79-.4-2.76-.61-.84-.18-1.89,.51-2.84,.39-.87-.11-1.68-1.26-2.63-1.32-.88-.06-1.84,.33-2.77,.3s-1.81-.39-2.74-.39-1.8,1.35-2.73,1.37c-.91,.02-1.81-.1-2.73-.07s-1.87-.9-2.78-.85-1.85-.17-2.76-.11-1.75,1.34-2.65,1.4-1.91-.74-2.8-.66c-.94,.08-1.83,.42-2.71,.49-.96,.08-1.82,.71-2.68,.79-.99,.09-1.94-.21-2.76-.14-1.07,.09-2.03-.44-2.76-.39-.83,.05-1.75,1.15-2.7,1.05-.85-.08-1.67-.85-2.59-1.02-.86-.16-1.64-.74-2.53-.94s-1.73-.41-2.6-.63-1.88,.11-2.74-.09-1.82-.19-2.66-.37c-.92-.19-1.73-.77-2.56-.88-.98-.13-1.88,.11-2.68,.16-1.05,.06-2.17-.21-2.77,.29s.01,1.57,.02,2.69c0,.92-.42,1.87-.48,2.78s.01,1.87-.06,2.77c-.08,.95,0,1.86-.03,2.73-.04,.98-.21,1.83-.1,2.67,.12,1-.09,1.94,.38,2.65s1.18,1.26,2.17,1.59c.73,.25,1.63,.33,2.72,.33Z" style="fill:#d28728;"/><path d="M196.44,57.56c.86,.49,2.04,.54,3.03,1.04,.91,.46,1.94,.78,2.9,1.24s1.75,1.23,2.69,1.69,1.91,.98,2.81,1.45c.98,.52,2.09,.75,2.93,1.26,1,.61,1.68,1.55,2.37,2.15,1,.88,1.79,1.73,1.83,2.59s-.57,1.8-1.83,2.59c-.93,.59-1.91,1.1-2.89,1.5-1,.42-2.04,.83-3.09,1.05s-2.14,.52-3.24,.57-2.12-.68-3.22-.79c-1.04-.1-2.17,.17-3.25-.07-1.02-.22-2.02-.67-3.08-1.01-1-.32-2.03-.62-3.07-1.04-.97-.39-2.03-.68-3.04-1.15s-2.12-.88-3.07-1.4c-1.02-.56-1.64-1.69-2.54-2.28-.98-.64-2.09-1-2.91-1.68-.91-.75-1.72-1.54-2.42-2.33-.79-.88-1.69-1.67-2.2-2.59-.57-1.03-.29-2.29-.47-3.35s-.67-2.18-.4-3.29c.3-1.24,.8-2.28,1.47-2.93,.73-.7,1.81-.68,3.08-.69,.9,0,2.03-.35,3.25,0,.91,.26,1.7,1.25,2.81,1.71,.91,.37,1.97,.59,3.03,1.09,.91,.43,1.88,.89,2.9,1.42,.9,.47,2.01,.68,3.01,1.23,.9,.49,1.61,1.44,2.59,2Z" style="fill:#473513;"/><path d="M274.33,56.01c-.11,.87-.24,1.43-.63,2.3-.36,.79-.77,1.55-1.32,2.33-.5,.71-.71,1.71-1.34,2.41-.59,.66-1.68,.86-2.36,1.5s-.99,1.59-1.7,2.18-1.67,.81-2.4,1.36-.96,1.79-1.7,2.31-1.61,.91-2.36,1.41-1.97,.34-2.73,.81c-.8,.5-1.64,.85-2.39,1.3-.83,.49-1.61,.96-2.34,1.39-.88,.51-1.51,1.25-2.2,1.64-1.06,.61-1.71,1.34-2.18,1.65-.66,.44-1.41,1.05-2.39,1.43-.77,.3-1.6,.79-2.57,1.09-.81,.25-1.72,.44-2.68,.69-.83,.22-1.79,.17-2.73,.41-.84,.21-1.85-.07-2.79,.16-.85,.21-1.74,.43-2.66,.65-.86,.21-1.54,1.27-2.46,1.5-.86,.21-1.72,.52-2.64,.75-.86,.22-1.87-.02-2.78,.22s-1.7,.7-2.55,.92-1.76,.46-2.62,.67-1.7,.76-2.56,.96-2.11-1.06-2.97-.88-1.49,1.77-2.35,1.94c-.91,.18-1.96-.55-2.82-.41-.91,.16-1.69,.99-2.56,1.11-.92,.13-1.83,.19-2.7,.27-.92,.09-1.85-.23-2.73-.2-.93,.03-1.85,.8-2.72,.77-.92-.04-1.87-.24-2.74-.35-1.52-.2-1.18-1.14-.75-2.02,.28-.58,.08-1.82,1.03-2.59,.64-.52,1.18-1.48,2.06-2.04,.73-.47,2.05-.13,2.92-.62,.78-.44,1.42-1.24,2.29-1.68,.81-.41,1.44-1.3,2.32-1.7s2.03-.02,2.91-.39,1.42-1.52,2.3-1.85,2.29,.83,3.18,.52,1.43-1.68,2.33-1.95,1.75-.81,2.65-1.05,2.06,.45,2.96,.26c.92-.19,1.74-.54,2.52-.75,.92-.25,1.63-.86,2.38-1.13,.92-.33,1.88-.28,2.57-.63,.89-.46,1.06-1.66,1.65-2.14,.77-.63,2.25-.4,2.68-1.03,.53-.78,.22-1.98,.63-2.7s1.5-.8,2.24-1.39c.57-.46,.67-2.03,1.66-2.36,.84-.28,2.21,.29,3.01-.36,.69-.56,1.24-1.49,1.89-2.26,.59-.7,1.54-1.26,2.08-2.08s.14-2.15,.61-2.99,.71-1.76,1.12-2.61,1.59-1.4,1.94-2.26c.38-.92,1-1.75,1.29-2.6,.34-.99-.52-2.27-.31-3.09,.33-1.23,1.74-2.06,1.74-2.66,0-.68-.02,.14,1.49,.79,.72,.31,2.15-.46,3.09,.05,.76,.41,.93,2.02,1.79,2.53,.78,.46,2.03,.2,2.85,.71s1.24,1.53,2.04,2.04,1.62,.96,2.39,1.47,2.01,.43,2.76,.94c.82,.55,1.78,.83,2.51,1.33,.87,.59,1.49,1.37,2.15,1.83,1.42,.99,1.06,.86,1.71,2.11Z" style="fill:#473513;"/><path d="M157.35,79.69c.97,.3,.86,.06,1.95,.76,.49,.31,1.07,.6,1.75,.97,.55,.3,.58,1.72,1.25,2.04,.58,.27,1.56-.23,2.22,.04,.6,.25,.89,1.47,1.56,1.7,.62,.21,1.34,.37,2.01,.56,.64,.18,1.49-.31,2.17-.17s1.45-.52,2.13-.41,1.21,1.04,1.91,1.1,1.38-.54,2.07-.51,1.34,.68,2.04,.65c.73-.02,1.43-.44,2.15-.48,.73-.04,1.51,.82,2.22,.78s1.42-.64,2.12-.7,1.51,.5,2.21,.43c.74-.07,1.43-.47,2.12-.54,.74-.07,1.49,.1,2.18,.03,.75-.07,1.46-.15,2.14-.21,.76-.07,1.4-1.22,2.07-1.26,.79-.05,1.53,1.17,2.18,1.17,.84,0,1.51-.48,2.09-.34,.91,.21,2.29,.14,2.45,.78,.15,.6-.16,1.78,.79,2.02,.6,.16,1.57-1.11,2.41-1.03,.67,.06,1.35,.59,2.14,.63,.7,.04,1.45-.11,2.21-.07,.71,.04,1.45,.14,2.2,.2s1.47,.18,2.21,.26,1.54-.2,2.27-.07,1.31,1.07,2.02,1.24,1.67-.31,2.35-.06c.7,.25,.82,1.8,1.47,2.14,.79,.41,2.27-.08,2.55,.46,.35,.66,.08,1.83-.19,2.56-.23,.62-.93,1.17-1.49,1.74-.48,.49-1.09,.94-1.75,1.33-.61,.36-1.45,.18-2.16,.42s-1.33,.09-2.06,.15-1.49,1.27-2.21,1.13-1.3-.99-2.04-1.06-1.47,.61-2.21,.59-1.43-.55-2.17-.54-1.44,.02-2.18,.04-1.43,.5-2.16,.52-1.45,.26-2.18,.26-1.46-.21-2.19-.23-1.43-.41-2.17-.47-1.46,0-2.19-.09-1.55,.36-2.27,.22-1.29-.73-1.97-.79c-.72-.06-1.4-.23-2.09-.22s-1.35,.56-2.05,.64-1.36,.16-2.05,.27-1.3,.52-2,.66-1.42-.06-2.13,.08-1.34,.38-2.05,.51-1.56-.94-2.27-.83c-.67,.1-1.2,1.48-1.92,1.56-.68,.08-1.44-.48-2.17-.43-.68,.04-1.38,.14-2.11,.16-.68,.01-1.36-.87-2.09-.89s-1.42,1.16-2.14,1.15-1.4-.08-2.11-.08-1.41-.92-2.12-.91-1.41,.1-2.12,.11-1.41,1.07-2.12,1.08-1.43,.07-2.13,.07-1.41-1.32-2.11-1.33-1.46,1.18-2.16,1.15-1.41-.68-2.09-.72c-.73-.05-1.35-.9-2.02-.97-.74-.08-1.4-.11-2.05-.23-.75-.14-1.59,.5-2.21,.31-.76-.24-1.84,.09-2.35-.25-.66-.45-.87-1.6-1.02-2.26-.14-.58-.76-1.3-.84-2.13-.06-.67,.98-1.48,.95-2.25-.03-.7-1.07-1.41-1.07-2.15s1.02-1.44,1.03-2.18,.12-1.45,.14-2.17,.26-1.46,.29-2.16c.03-.77-1.13-1.55-1.1-2.23,.04-.81,.13-1.55,.17-2.17,.08-1.33-.4-1.9,.66-2.11s1.04,.42,2.12,.61c1.09,.2,1.19-.38,2.28-.18s1.11,.07,2.2,.27,1.05,.42,2.14,.61c1.09,.2,1.08,.24,2.17,.44s1.01,.62,2.1,.81,1.13-.04,2.23,.09,1.13,.07,2.19,.4Z" style="fill:#473513;"/><path d="M161.93,160.89c0-.79,.57-1.18,1.44-1.93,.6-.52,.56-2.33,1.48-2.83,.75-.4,2.38,.87,3.3,.49,.81-.33,1.71-.41,2.63-.71,.85-.28,1.48-1.27,2.39-1.53,.87-.25,1.44-1.78,2.35-2s1.84-.37,2.75-.56,1.94,.15,2.85,0,1.81-.64,2.71-.77,1.89-.31,2.77-.4c.96-.1,2.04,1.68,2.91,1.63,1-.06,1.85-.33,2.69-.31,.79,.01,1.74-1.26,2.8-1.25,.85,.01,1.77,.91,2.77,.93,.88,.01,1.81-.68,2.78-.68,.89,0,1.82,.86,2.78,.85,.9,0,1.84,.3,2.79,.29s1.85,.03,2.79,0,1.83-.7,2.77-.74,1.82-.81,2.75-.85,1.9,.66,2.82,.59,1.86-.21,2.78-.29,1.84-.41,2.75-.51,1.91,.12,2.81-.01c.94-.14,2.02,.46,2.9,.3,.95-.18,1.82-.79,2.68-1,.95-.23,1.62-1.34,2.44-1.62,.95-.32,2.34,.4,3.1,.01,.92-.48,1.92-1.24,2.48-1.83,.53-.56-.19-2.65,.6-3.31,.64-.53,1.93-.42,2.7-1,.69-.51,2.06-.12,2.84-.64,.73-.49,.7-2.19,1.48-2.68s1.54-.96,2.33-1.41,1.98-.15,2.78-.57,1.22-1.61,2.03-2,1.48-1.22,2.3-1.57,2.48,1.31,3.31,1.01c.88-.32,1.19-2.25,2.02-2.49,.91-.26,2,.3,2.84,.15,.95-.16,1.82,.6,2.66,.61,.99,0,1.59-.05,2.37,.24,.88,.33,1.35,.43,1.88,1.18,.46,.66,1.5,1.09,1.63,2.12,.1,.81,.15,1.71,.24,2.65,.08,.84,.96,1.67,1.03,2.59,.06,.85-.71,1.8-.66,2.72,.05,.86-1.06,1.8-1.02,2.7s1.94,1.69,1.96,2.59-1.59,1.79-1.59,2.68-.2,1.75-.22,2.64-.01,1.75-.04,2.64,1.38,1.84,1.33,2.72-.81,1.73-.89,2.61,0,1.79-.09,2.66-.1,1.79-.23,2.65,.19,1.87,.02,2.72c-.18,.89-1.63,1.46-1.85,2.3-.23,.89-.7,1.6-.98,2.41-.31,.87,.55,2.15,.18,2.91-.41,.84-.59,1.87-1.08,2.55-.55,.76-1.22,1.6-1.88,2.13s-2.26-.19-3.06,.32c-.71,.46-1.01,1.66-1.82,2.11-.76,.41-1.47,1.01-2.29,1.4s-1.43,1.19-2.26,1.54-1.98-.15-2.82,.17-1.66,.62-2.51,.91-1.98-.42-2.83-.18-1.47,1.34-2.33,1.55-1.87-.25-2.74-.08-1.65,.82-2.52,.95-1.68,1.22-2.55,1.29c-.92,.08-1.87-.39-2.72-.39-.94,0-1.83-.09-2.67-.18-.95-.1-2.06,.48-2.85,.25-.92-.28-1.88-.91-2.55-1.39s-1.42-.71-2.33-1.14c-.76-.36-1.55-.65-2.45-.99-.81-.3-1.69-.38-2.59-.66-.84-.26-1.44-1.35-2.34-1.59s-1.58-1.05-2.48-1.27-1.97,.51-2.86,.31-1.59-1.24-2.48-1.41-1.77-.48-2.65-.64-1.96,.63-2.84,.49-1.63-1.49-2.51-1.62c-.93-.13-1.86-.07-2.73-.18-.95-.12-2,1.06-2.85,.97-.98-.1-1.83-.69-2.65-.75-1.08-.08-1.96-1.33-2.68-1.34s-1.61,.47-2.66,.46c-.8-.01-1.66-.47-2.62-.51-.84-.04-1.73,.38-2.65,.3-.85-.08-1.68-.41-2.58-.55s-1.67-.37-2.55-.55-2.07,1.03-2.93,.78-1.48-1.21-2.31-1.54-1.43-1.06-2.22-1.47-1.4-.96-2.13-1.47-2.5,.23-3.15-.38-.2-2.26-.75-2.97-.55-1.61-.98-2.41c-.41-.76-2.48-.82-2.79-1.68-.28-.8,.02-1.91-.16-2.81-.17-.83,.01-1.78-.07-2.71-.07-.85,.25-1.74,.26-2.66Z" style="fill:#d28728;"/><path d="M195.78,122.27c-.57-.96-1.31-1.46-.44-2.04,.34-.22,1.1-.47,2.28-.33,.59,.07,1.39,.04,2.27,.25,.64,.15,1.4,.26,2.21,.5,.65,.19,1.19,1,1.97,1.26,.82,.27,1.73,0,2.5,.14,.85,.17,1.59,.59,2.38,.63,.86,.04,1.71,.44,2.5,.37,.85-.08,1.75-.05,2.52-.23,.83-.19,1.47-1.02,2.23-1.28,.81-.28,1.56-.61,2.29-.92,.8-.33,1.6-.57,2.32-.86,.83-.33,1.62-.55,2.36-.69,.87-.18,1.82-.67,2.57-.4,.69,.24,.87,1.39,1.49,2.14,.49,.59,1.74,.64,2.27,1.32,.48,.62,.2,1.87,.7,2.54s1.13,1.17,1.6,1.86,1.13,1.2,1.57,1.9,1.34,1.14,1.73,1.84,.36,1.7,.71,2.42,.81,1.48,1.08,2.22c.29,.8,.08,1.72,.24,2.48,.18,.84,.77,1.61,.77,2.38,0,.85-.41,1.66-.69,2.4s-1.1,.9-1.87,1.36c-.63,.38-1.25,.63-2.13,.86-.73,.19-1.44,.62-2.3,.73-.77,.1-1.54,.85-2.39,.9-.79,.05-1.63-.08-2.47-.07s-1.63-.79-2.45-.79-1.64,1-2.46,.99-1.64-.91-2.45-.92-1.66,.06-2.46,.07c-.85,.01-1.66,.37-2.44,.41-.87,.05-1.64,.42-2.39,.52-.9,.12-1.84-.36-2.53-.13s-1.33,1.25-2.23,1.38c-.76,.11-1.68-.54-2.55-.5-.79,.04-1.61-.23-2.46-.24s-1.62,.06-2.46,0-1.72,.55-2.54,.44-1.61-.55-2.41-.7-1.74,.01-2.52-.19c-.83-.22-1.64-.56-2.37-.83-.84-.31-1.43-1.06-2.09-1.42-.82-.46-1.44-.95-1.89-1.5-.59-.7-.41-1.25-.22-2.08,.17-.73-.95-1.49-1.13-2.29-.16-.7-.31-1.35-.66-2.09-.32-.66-.36-1.49-.78-2.18-.4-.64-.96-1.19-1.4-1.85s-.68-1.41-1.11-2.05-.41-1.58-.8-2.23c-.41-.69-.78-1.32-1.08-1.99-.34-.75-1.13-1.28-1.24-1.99-.13-.8,.58-1.37,.85-2.09,.29-.78,.33-1.45,.86-1.95s1.05-1.08,1.81-1.33c.68-.23,1.45-.37,2.27-.4,.72-.03,1.45,.33,2.26,.44,.73,.1,1.39,.48,2.17,.68,.72,.19,1.48,.2,2.23,.47,.71,.25,1.4,.54,2.12,.86s1.73-.08,2.43,.28,1.15,1.11,1.82,1.51Z" style="fill:#d28728;"/><path d="M182.71,200.36c17.44-.61,29.14-.53,39.14,0,10,.53,19.08,2.65,19.08-8.63s-42.35,3.33-47.28,0c-4.93-3.33-24.49-6.98-24.92-1.75s-3.38,10.99,13.98,10.38Z" style="fill:#d28728;"/><path d="M206.31,107.85c.61-.06,1.28,.44,1.93,.41,.61-.04,1.22-.7,1.86-.72s1.25,0,1.9,0,1.25,.35,1.9,.36,1.26-.42,1.91-.41,1.26-.08,1.9-.06,1.24,.61,1.88,.64,1.27-.15,1.91-.12c.53,.03,1.13,.55,1.83,.58,.57,.03,1.23-.53,1.89-.5,.59,.03,1.19,.53,1.83,.57,.6,.04,1.22,.13,1.85,.17s1.23,.11,1.86,.15,1.29-.67,1.91-.62,1.19,.81,1.81,.85,1.26-.03,1.87,.02,1.23,.34,1.83,.4c.64,.06,1.32-.38,1.91-.31,.66,.07,1.22,.63,1.79,.71,.7,.1,1.33,.02,1.85,.13,.94,.18,1.53,.29,1.71,.49,.28,.31,.6,1.12,.08,1.92-.29,.44-1.12,.6-1.7,1.08-.43,.36-.84,.89-1.45,1.24-.51,.29-1.22,.25-1.86,.52-.55,.23-1.05,.67-1.7,.87-.57,.18-1.24,.11-1.89,.25-.59,.13-1.22,.1-1.88,.2-.6,.09-1.14,.88-1.8,.94-.61,.06-1.26,.12-1.92,.14-.61,.02-1.26-.3-1.92-.3-.62,0-1.25-.12-1.91-.15s-1.28,.2-1.92,.19-1.28-.09-1.91-.09-1.29-.47-1.92-.45-1.26,.75-1.9,.77-1.29-.15-1.92-.12-1.26,.39-1.89,.43-1.32-.46-1.95-.41-1.26,.42-1.88,.48-1.32-.18-1.93-.11c-.65,.07-1.25,.48-1.86,.55-.66,.07-1.35-.35-1.96-.28-.67,.08-1.24,.73-1.83,.8-.69,.08-1.36-.15-1.93-.08-.74,.08-1.41-.28-1.93-.25-1.24,.08-1.67,.52-1.45,.17,.17-.27-.42-1-1.27-1.57-.46-.31-1.38-.1-1.95-.47-.52-.34-.89-.97-1.38-1.35-.54-.4-1.23-.67-1.62-1.1-.49-.55-.48-1.36-.48-1.92,0-.52,.37-.84,1.06-1.34,.41-.29,.78-.87,1.5-1.14,.51-.2,1.08-.53,1.77-.71,.55-.15,1.26,.12,1.94-.02,.57-.11,1.11-.65,1.78-.76,.59-.09,1.31,.51,1.97,.43,.59-.08,1.2-.21,1.86-.29,.6-.07,1.16-.74,1.82-.8Z" style="fill:#473513;"/><path d="M214.34,118.59c.59-.35,1.12-.69,1.71-.97s1-1.12,1.62-1.33,1.47,.27,2.11,.12,1.14-1.26,1.79-1.35,1.41,.43,2.07,.4,1.35-.41,2.01-.39,1.31,.64,1.97,.7,1.42-.47,2.06-.38,1.37,.09,2.01,.22,1.2,.91,1.83,1.05c.67,.15,1.42-.13,2.05,.01,.68,.16,1.25,.63,1.87,.76,.69,.15,1.28,.63,1.9,.72,.71,.11,1.42-.14,2.02-.14s1.24,.14,1.94,.06c.6-.07,1.12-.9,1.79-1.01,.61-.11,1.46,.89,2.1,.75s1.01-1.32,1.65-1.47,1.27-.18,1.9-.33,1.42,.37,2.04,.21,1.27-.28,1.88-.43c.65-.15,1.24-.43,1.84-.57,.66-.15,1.33-.04,1.93-.15,.7-.13,1.31-.21,1.87-.27,.81-.09,1.39-.47,1.84-.36,.49,.12,1.15,.26,1.89,.4,.58,.11,1.28-.05,1.95,.08,.62,.11,1.23,.38,1.87,.51s1.13,.89,1.75,1.04c.65,.15,1.48-.48,2.07-.3,.68,.21,1.35,.39,1.86,.63,.78,.36,1.73,.86,1.85,1.31,.14,.51-.29,1.41,.04,2.16,.26,.6,.95,1.1,1.16,1.78s-.46,1.43-.45,2.11,.91,1.59,.55,2.22c-.3,.53-1.14,.85-1.81,1.3-.52,.35-1.22,.43-1.88,.69-.59,.23-1.2,.43-1.88,.6-.62,.16-1.16,.83-1.84,.96-.64,.12-1.33,.12-2,.22s-1.3,.3-1.97,.37-1.33,.09-2,.16-1.35-.08-2.01,0-1.33,.13-1.99,.21-1.42-.53-2.08-.44-1.3,.48-1.95,.6c-.6,.11-1.25-.1-1.95-.03-.62,.06-1.22,.93-1.91,.96-.63,.02-1.3-.3-1.98-.3-.64,0-1.3,.18-1.98,.15-.64-.02-1.33,.39-2,.35s-1.24-.97-1.91-1.02c-.65-.05-1.35,.45-2.02,.38s-1.32-.06-1.98-.15-1.26-.5-1.92-.59-1.26-.45-1.92-.55-1.28-.27-1.94-.38-1.31-.14-1.96-.27-1.46,.55-2.1,.42-1.26-.45-1.9-.59-1.1-1.14-1.73-1.29-1.25-.41-1.88-.57-1.43,.23-2.05,.05c-.69-.19-1.17-.86-1.78-1.06-.69-.22-1.28-.48-1.86-.71-.68-.27-1.72,.43-2.27,.15-.67-.33-1.32-.69-1.82-1.02-.65-.43-.72-1.43-1.1-1.86-.54-.6-1.49-.96-1.59-1.52-.13-.69,.14-1.7,.53-2.27,.35-.51,1.44-.37,2.08-.74Z" style="fill:#473513;"/><path d="M211.68,170.18c3.14,.07,6.06,2.36,9.71,2.92,3.65,.56,11.46-1.46,11.46-1.46l1.32-6.49s-11.89,1.14-12.78-1.99c-.89-3.12-12.38-10.04-12.38-10.04,0,0-4.27,14.62-4.34,15.31s7,1.75,7,1.75Z" style="fill:#d28728;"/><path d="M195.48,139.55c1.04,0,2.12-.06,2.92,.13,1,.24,1.8,.84,2.5,1.31,.8,.54,1.6,1.1,2.14,1.82s.77,1.74,1.23,2.52,1.27,1.38,1.82,2.08,.96,1.58,1.82,1.99c.73,.35,1.62,.57,2.7,.56,1.1-.01,2.05,.1,2.89,.39,.98,.34,1.63,1.04,2.35,1.66s1.37,1.31,1.96,2.11,1.02,1.66,1.56,2.48,1.31,1.51,1.94,2.24,1.49,1.25,2.34,1.74c.92,.52,1.54,1.38,2.25,1.95,.91,.73,1.69,1.33,2.09,2.02,.59,1.03,.51,1.72-.56,2.3-.61,.33-1.46,.77-2.79,.84-.9,.05-1.88-.14-2.9-.16-.94-.02-1.91-.23-2.89-.29s-1.96,.09-2.91,0c-1.01-.09-2.02,.11-2.93,0-1.07-.13-2.05-.32-2.89-.45-1.62-.25-2.86-.41-2.99-.51-.15-.12-1.2-.02-2.74,.44-.9,.27-1.85,.8-2.87,.95s-2.15,.21-3.05-.02c-.98-.25-1.51-1.07-1.94-2.11-.25-.58-.98-1.31-1.13-2.39-.11-.77,.18-1.69,.12-2.64-.06-.82,.05-1.7,.02-2.61-.03-.84-.62-1.7-.63-2.59s.47-1.74,.47-2.61-.12-1.75-.11-2.61-.04-1.77-.02-2.61c.02-.92,.4-1.79,.43-2.6,.03-.97-.22-1.87-.18-2.61,.07-1.61-.98-1.84-.01-2.72Z" style="fill:#473513;"/><path d="M193.28,190.12c.43-1.12,.14-1.1,1.06-2.15,.46-.52,1.17-.95,1.97-1.38,.63-.34,1.36-.62,2.24-.79,.71-.13,1.51-.45,2.4-.4,.94,.05,1.82,.3,2.57,.02,.81-.3,1.34-1.08,1.99-1.64s1.2-1.17,1.74-1.84,1.28-1.19,1.8-1.85c.55-.7,1.01-1.45,1.62-1.99,.66-.59,1.39-1.11,2.22-1.33,1.35-.35,2.29-.1,2.73,.51s.54,1.63,.54,2.78c0,.84-.14,1.79-.18,2.78-.03,.9-.26,1.85-.2,2.78s.2,1.9-.08,2.73-.89,1.62-1.48,2.32-1.32,1.23-2.09,1.74-1.48,1.15-2.33,1.47-1.81,.48-2.69,.62c-.73,.11-1.69,.08-2.73,.2-.84,.1-1.79-.03-2.74,.08-.89,.1-1.8,.34-2.71,.43s-1.84,.34-2.71,.43c-1,.1-1.92,.19-2.72,.26-1.63,.15-2.63,1.57-2.56,.21,.08-1.62,.49-1.5,1.13-2.99s.65-1.5,1.23-3.02Z" style="fill:#473513;"/><path d="M201.58,136.35c-.15-1.03,.45-2.26,.94-2.92s1.82-.19,2.77-.52c.74-.26,1.38-1.18,2.34-1.29,.81-.09,1.71,.18,2.64,.18,.84,0,1.72-.2,2.63-.15,.85,.05,1.68,.64,2.57,.73s1.8-.41,2.68-.29,1.83-.3,2.7-.16,1.58,1.21,2.44,1.37,1.76,.19,2.61,.36,1.83-.04,2.67,.13c.89,.19,1.85-.07,2.67,.11,.91,.2,1.56,1.36,2.36,1.53,.96,.21,1.91,.01,2.66,.17,1.2,.25,2.07,.44,2.56,.47,.58,.04,1.41,.87,2.57,1.04,.78,.12,1.79-.47,2.77-.32,.83,.13,1.6,1.08,2.54,1.22,.86,.13,1.95-1.15,2.86-1.02,.88,.12,1.72,.6,2.61,.71s1.78,.25,2.66,.33c.91,.08,1.76,.93,2.64,.97,.93,.05,1.86,.03,2.72,.02,.96,0,1.92,.08,2.74-.01,1.01-.12,2.12-.08,2.85-.36,1.01-.39,.7-1.9,.94-2.68s1.02-1.81,1.75-2.53c.6-.6,2.2-.12,3.02-.67,.74-.5,1.14-1.57,1.98-2.01s1.56-1.05,2.39-1.42,1.71-.86,2.53-1.18c.95-.37,2.07-.04,2.83-.3,1.58-.54,1.11-1.65,2.1-.68s.68,.77,.34,2.48c-.17,.82-.08,1.85-.3,2.89-.19,.9-1.11,1.7-1.32,2.67s-.84,1.79-1.06,2.72,.4,2.13,.17,3.02c-.26,1.01-1.26,1.76-1.51,2.58-.38,1.23-.82,2.05-1.14,2.54-.34,.52-.91,.44-2.17,.47-.77,.02-1.62,.03-2.63-.06-.83-.08-1.86,.96-2.8,.84-.86-.11-1.66-.98-2.57-1.1s-1.76-.43-2.65-.54-1.81-.24-2.69-.32c-.93-.08-1.84-.51-2.7-.53-.96-.02-1.89,.64-2.7,.73-1.02,.11-1.52,1.06-2.2,1.41-.72,.38-2.02-.32-3-.13-.83,.16-1.7,.28-2.66,.35-.87,.06-1.76-.26-2.7-.27-.89,0-1.79,.35-2.71,.31s-1.82,.09-2.72,.04-1.8-.56-2.69-.62-1.85-.21-2.72-.25c-.96-.04-1.9,.93-2.74,.93-1.01,0-1.84,.22-2.62,.33-.7,.09-1.69-1.07-2.76-1.08-.81,0-1.71,.4-2.68,.32-.85-.06-1.78,.18-2.71,.06-.86-.11-1.76-.22-2.67-.38-.87-.15-1.75-.37-2.64-.56s-1.74-.48-2.6-.71-1.52-1.13-2.36-1.42c-.87-.3-1.59-.78-2.39-1.14-.85-.37-1.68-.57-2.42-1.01-.81-.48-1.37-1.05-2.02-1.6-.72-.61-1.93-.64-2.39-1.36-.5-.77-1.5-1.56-1.63-2.45Z" style="fill:#473513;"/><path d="M233.05,95.67c-.25-1.19,.38-1.68,.97-2.17,.56-.47,1.16-1.07,2.27-1.09,.79-.01,1.64,.55,2.62,.69,.83,.12,1.86-.49,2.79-.29,.85,.18,1.56,1.12,2.45,1.34s1.85-.01,2.72,.21,1.65,.85,2.52,1.06,1.91-.16,2.76,.02c.93,.19,1.75,.73,2.58,.85,.99,.13,1.92,.36,2.71,.33,1.08-.04,1.85-.65,2.43-1.1s1.29-1.17,2.18-1.62c.73-.37,1.69-.49,2.57-.84,.79-.32,1.55-.88,2.42-1.18,.82-.28,1.71-.48,2.57-.74,.84-.25,1.84-.04,2.7-.27s1.57-1.1,2.42-1.31c.88-.22,1.84-.07,2.69-.26,.9-.2,1.72-.66,2.56-.83,.93-.18,1.94,.36,2.75,.23,1.01-.17,1.89-.28,2.61-.36,1.3-.15,1.05,.04,.32,1.19-.37,.58-.94,1.2-1.67,1.98-.55,.59-.91,1.49-1.62,2.14-.62,.57-1.09,1.41-1.8,2-.67,.56-1.56,.88-2.28,1.43s-1.44,1.06-2.16,1.57-1.57,.88-2.31,1.35-1.21,1.52-1.96,1.94c-.82,.46-2.02,.08-2.78,.42-.9,.41-1.44,1.62-2.2,1.81s-1.68,.44-2.72,.71c-.84,.22-1.95-.28-2.92-.04-.87,.21-1.73,.7-2.68,.9-.9,.19-1.75,.8-2.69,.96s-1.97-.5-2.91-.39-1.84,.49-2.78,.53-1.91,.56-2.84,.51c-.95-.05-1.91-.37-2.83-.53-.94-.16-1.98-.16-2.86-.46s-1.37-1.56-2.18-2.03-2.05-.36-2.74-1.01-.84-1.73-1.37-2.55c-.48-.75-.76-1.6-1.12-2.53-.32-.83-1-1.59-1.2-2.57Z" style="fill:#473513;"/></g></g><g><path d="M200.32,207.31c-.49,0-.99-.19-1.36-.57-.73-.75-.72-1.95,.03-2.69,2.77-2.7,5.39-6.38,9.17-15.52,1.67-4.02,10.19-25.36,14.41-50.54,3.32-19.79,3.63-41.09,3.8-52.54l.04-2.31c.01-.63,.06-1.4,.11-2.29,.16-2.56,.38-6.07-.1-10.21-.12-1.04,.63-1.99,1.67-2.11,1.06-.12,1.99,.63,2.11,1.67,.52,4.48,.28,8.34,.12,10.89-.05,.82-.1,1.54-.11,2.12l-.04,2.3c-.17,11.55-.49,33.05-3.85,53.12-4.29,25.59-12.96,47.28-14.65,51.37-4.03,9.74-6.93,13.75-10.03,16.78-.37,.36-.85,.54-1.33,.54Z"/><path d="M196.26,165.33c-.24,0-.49-.05-.72-.14-.97-.4-1.43-1.51-1.03-2.48,4.23-10.23,7.48-26.08,11.08-46.73,2.33-13.38,2.47-25.24,2.59-34.77,.18-14.8,.3-24.57,8.6-26.65,2.11-.53,4.33-.11,6.42,1.21,2.72,1.72,4.88,4.86,5.51,8,.21,1.03-.46,2.03-1.49,2.23-1.03,.21-2.03-.46-2.23-1.49-.42-2.13-1.96-4.35-3.81-5.53-.83-.52-2.1-1.08-3.47-.74-5.21,1.3-5.54,8.78-5.72,23-.12,9.67-.26,21.7-2.64,35.38-3.74,21.49-6.93,36.94-11.31,47.53-.3,.73-1.01,1.17-1.76,1.17Z"/></g><path d="M187.71,152.99c-8.16-17.45-22.78-24.91-36.78-35.91-4.45-3.5-10.57-5.47-16-10-12-10-12-27-12-27,0,0-.22,.16-.64,.43,2.1-2.46,3.92-5.03,5.42-7.52,2.12-3.53,3.22-11.17,.8-17.78,1.62-2.37,3.64-5.64,5.2-9.22,3.24-7.42,2.66-24.37,1-26-2.8-2.75-20.81,14.13-25.7,18.81-3.99-1.28-8.67-1.81-15.3-1.81-6.24,0-10.75,.26-14.5,1.23-5.61-5.34-22.39-20.88-25.09-18.23-1.66,1.63-2.24,18.58,1,26,1.71,3.91,3.96,7.46,5.64,9.85-1.57,5.21-1.58,11.16-.05,16.15,1.24,4.05,6.43,9.75,13.05,14.46,.84,2.65,2,7.14,1.95,11.54-.1,9.47-2.42,21.54-3,32-1.28,22.96,7.07,62.73,14,77,6.33,13.04,6,39,6,39,0,0-8.61,5.28-7,10,1.61,4.72,6.41,4.88,11,4,4.13-.79,1.42-1.87,6-1.87s6.51,4.37,15,2.89c6.05-1.06,8-3.85,3-9.62-.97-1.12-1.59-3.69-1.85-4.99,.19-.78,.52-2.37,1.08-5.31,2.41,5.04,9.5,1.03,11.85,4.67,.81,1.26-.92,4.74,1.41,7.43,2.33,2.69,1.34,3.77,7.43,3.49,6.09-.28,24.61,2.08,30.38-1.27,5.78-3.34,22.27-11.16,25.7-30.41,3.95-22.14,5.67-40.65-9-72Z" style="fill:#d1a67b;"/><g style="clip-path:url(#clippath-1);"><g><g><path d="M91.66,40.66c-.22,1.11-.26,.81-.55,2.19-.13,.63-.15,1.39-.29,2.23-.12,.68-.51,1.38-.63,2.18-.1,.71-.34,1.44-.43,2.22-.08,.73,.21,1.51,.15,2.28s-.64,1.45-.68,2.22,.51,1.51,.5,2.27-.72,1.52-.69,2.28,.05,1.53,.13,2.28,.3,1.51,.42,2.25,.31,1.51,.49,2.23,1.01,1.27,1.27,1.97,.25,1.52,.59,2.18,.89,1.21,1.33,1.81,.77,1.32,1.32,1.82,1.4,.54,2.06,.93c.62,.37,.88,1.41,1.53,1.75s1.5,.27,2.17,.58,1.16,1,1.83,1.29,1.49,.23,2.17,.5,1.26,.84,1.95,1.08,1.44,.33,2.14,.55,1.41,.44,2.11,.64,1.55-.1,2.25,.08,1.41,.4,2.12,.56,1.45,.21,2.16,.35,1.32,1,2.03,1.12c.74,.12,1.46,.32,2.17,.42,.75,.1,1.54-.35,2.25-.28,.76,.07,1.48,.14,2.18,.17,.77,.04,1.5,.28,2.19,.27,.79-.01,1.48-.61,2.14-.68,.84-.09,1.49-.14,2.08-.33,.62-.2,.79-.6,1.14-1.47,.24-.6,1.23-1.12,1.34-1.98,.09-.68-.57-1.5-.56-2.32,0-.71,.1-1.45,.05-2.25-.04-.72,.05-1.48-.04-2.26-.09-.73-.29-1.46-.41-2.23s.01-1.52-.15-2.28-.82-1.35-1-2.09,.15-1.59-.06-2.33-.23-1.52-.46-2.24-.75-1.35-1.01-2.06-.29-1.52-.58-2.22-.76-1.33-1.08-2.02-.46-1.48-.8-2.15-1.47-.92-1.85-1.57-.69-1.33-1.1-1.96-.59-1.43-1.04-2.03-.97-1.16-1.47-1.72-.87-1.28-1.41-1.79-1.34-.77-1.93-1.22-1.28-.77-1.93-1.13-1.17-.91-1.8-1.24-1.17-.96-1.81-1.26-1.44-.39-2.1-.66-1.29-.76-1.95-1c-.7-.26-1.49-.19-2.17-.4-.72-.22-1.3-.88-1.98-1.04-.73-.17-1.53,.01-2.22-.1-.75-.12-1.47-.28-2.16-.33-.76-.05-1.49,.24-2.18,.27-.77,.03-1.43,.25-2.1,.38-.76,.15-1.45,.19-2.08,.46-.7,.31-1.45,.46-1.97,.92-.55,.48-.71,1.25-1.04,1.89s-.47,1.25-.57,2.01Z" style="fill:#d28728;"/><path d="M92.4,38.57c1.56,.53,1.1,.77,2.96,1.5,.89,.35,2.03,.53,3.14,1.01,.95,.41,1.65,1.52,2.68,2.02,.97,.47,2.27,.33,3.24,.87s1.65,1.53,2.56,2.12c.96,.62,1.91,1.13,2.72,1.8,.91,.75,1.71,1.45,2.33,2.24,.75,.96,1.39,1.81,1.53,2.81,.13,.89,.47,2.09,.26,3.43-.16,1-1.08,1.97-1.41,3.16-.28,1.02-.37,2.17-.77,3.3-.36,1.03-.54,2.17-.98,3.26-.42,1.02-.62,2.19-1.1,3.23s-1.19,1.94-1.71,2.96-.93,2.08-1.48,3.07-1.17,1.96-1.75,2.92-1.39,1.83-2.01,2.75-1.74,1.56-2.41,2.43c-.72,.93-.98,2.17-1.71,2.97-.8,.88-1.86,1.41-2.67,2.11-.92,.8-1.73,1.57-2.63,2.08-.84,.47-1.92,.43-3.1,.67-.98,.2-1.94,1.37-3.1,1.42-1.02,.04-2.15-.24-3.27-.31-1.04-.06-2.13-.23-3.23-.39-1.04-.15-1.96-1.14-3.04-1.36s-2.25,.24-3.3-.05-2.12-.45-3.16-.79-1.73-1.56-2.73-1.95-2.11-.5-3.09-.94-2.13-.57-3.08-1.08-1.84-1.17-2.74-1.74-2.05-.92-2.88-1.56c-.88-.68-1.68-1.46-2.43-2.2-.8-.78-1.55-1.62-2.18-2.45-.67-.89-.63-2.17-1.08-3.11s-1.75-1.75-1.94-2.81,.94-2.16,1.07-3.26,.17-2.13,.33-3.15c.17-1.08,.47-2.09,.67-3.1,.21-1.08-.21-2.25,.04-3.24,.27-1.07,.77-2.03,1.08-3,.34-1.05,.8-2,1.2-2.93,.44-1.02,1.2-1.76,1.71-2.64,.56-.95,.6-2.17,1.26-2.95,.71-.83,1.76-1.21,2.59-1.83s1.52-1.52,2.51-1.93c.95-.39,1.95-.93,3.04-1.1,1-.15,2.12-.16,3.24-.12,1.11,.04,2.11-.26,3.13-.36,1.1-.1,2.08-.29,3.08-.5,1.08-.23,2.39,.62,3.38,.31,1.05-.33,1.74-1.62,2.7-1.97,1.03-.38,2.3,0,3.27-.34,1.04-.36,1.81-1.56,2.81-1.79s2.2,.7,3.26,.72,2.14-.56,3.21-.19Z" style="fill:#d28728;"/><path d="M89.45,91.91c.18-.97,.61-.61,1.13-1.71,.24-.51,.26-1.25,.6-1.9,.29-.54,.66-1.1,1.02-1.7,.32-.54,.69-1.1,1.07-1.66,.36-.53,.84-1.01,1.24-1.54s.83-1.01,1.27-1.51,1-.85,1.49-1.29,.96-.89,1.49-1.27,1.06-.77,1.63-1.08,1.09-.86,1.71-1.05,1.36,.13,2.02,.07c.7-.06,1.36-.55,2.02-.54,.7,.01,1.38,.24,2.04,.33,.7,.09,1.4,.14,2.03,.31,.68,.18,1.34,.42,1.94,.68,.64,.28,1.3,.57,1.85,.93,.58,.39,1.18,.82,1.64,1.28,.49,.49,.86,1.13,1.2,1.7s.72,1.23,.91,1.88-.21,1.39-.21,2.08c0,.66,.12,1.31-.04,2s-.35,1.31-.53,1.95-.2,1.36-.42,1.98-.52,1.26-.8,1.87-.74,1.14-1.09,1.7-.64,1.2-1.07,1.71-.94,.96-1.47,1.39-1.08,.78-1.69,1.1c-.58,.3-1.16,.66-1.84,.87-.61,.19-1.27,.48-1.97,.58-.63,.1-1.28,.14-1.95,.26s-1.31,.1-1.97,.21-1.31,.16-1.96,.24-1.31,.3-1.96,.33-1.34-.17-1.98-.22c-.68-.05-1.31-.17-1.92-.36s-1.2-.47-1.75-.83-1.26-.56-1.69-1.11c-.37-.48-.72-1.11-.99-1.77-.23-.56,.03-1.33-.13-2.02-.13-.59-.39-1.2-.46-1.9-.06-.61-.43-1.3-.44-2.01Z" style="fill:#d28728;"/><path d="M75.01,70.56c.65-.41,1.53-.24,2.14-.5,.71-.3,1.22-.99,1.87-1.11,.74-.13,1.51-.38,2.19-.32,.72,.07,1.45,.42,2.11,.67s1.05,1.04,1.66,1.43,1.19,.72,1.74,1.18,1.13,.86,1.64,1.36,1.21,.83,1.7,1.34,.68,1.38,1.17,1.87c.54,.53,1.24,.86,1.76,1.28,.61,.49,1.41,.45,2.01,.69s1.14,.66,1.84,.78c.65,.12,1.31,.27,2.01,.32s1.34,.39,2.03,.4,1.37-.04,2.05-.04,1.37,.13,2.03,.15c.72,.02,1.46-.66,2.09-.58,.75,.1,1.35,.67,1.91,.9,.69,.29,1.33,.62,1.59,1.23,.28,.65,.58,1.44,.51,2.17-.06,.69-.71,1.29-1.05,1.95-.32,.62-.53,1.36-1.06,1.87s-1.27,.62-1.93,.93c-.63,.29-1.23,.71-1.98,.76-.67,.05-1.45,.22-2.2,.04-.82-.2-1.43-.4-1.99-.44-.84-.06-1.49-.32-2.09-.18s-1.11,.86-1.91,1c-.56,.1-1.28,.1-2.11,.1-.59,0-1.3,.03-2.09-.06-.61-.06-1.26-.46-2.02-.59-.65-.11-1.38-.17-2.11-.39-.65-.19-1.38-.34-2.07-.6-.65-.25-1.08-1.07-1.75-1.37s-1.41-.33-2.05-.66-1.12-.91-1.73-1.28-1.31-.59-1.9-.99-1.35-.6-1.9-1.04-.81-1.27-1.31-1.75c-.54-.51-1.57-.54-2.01-1.07-.48-.59-.73-1.34-1.05-1.94-.36-.67-.61-1.4-.72-2.07-.12-.72-.25-1.56-.03-2.25,.21-.62,.74-1.26,1.28-1.85,.44-.47,1.04-.94,1.71-1.37Z" style="fill:#473513;"/><path d="M94.3,35.59c.27,.04,.68,.3,.9,.86,.13,.33,.08,.79,.19,1.26,.09,.37,.26,.76,.33,1.21,.07,.39-.23,.85-.17,1.28,.05,.4,.14,.8,.18,1.23,.04,.4,.02,.82,.06,1.24s.5,.79,.52,1.21,0,.83,.01,1.25,.02,.83,.03,1.25,.18,.83,.18,1.25-.09,.84-.1,1.25-.22,.83-.24,1.24,.18,.85,.16,1.26-.41,.81-.44,1.22-.09,.84-.14,1.24c-.05,.43,.13,.88,.06,1.27-.07,.43-.12,.85-.21,1.24-.1,.44-.3,.82-.42,1.19-.15,.45-.2,.91-.39,1.22-.26,.44-.77,.45-1.1,.56-.38,.12-.75,.26-1.16,.33s-.79,.06-1.21,.08-.8,.17-1.22,.15-.8-.08-1.22-.12-.81-.05-1.22-.12-.84,.03-1.25-.05-.79-.24-1.19-.34-.77-.3-1.17-.42-.7-.48-1.1-.61-.93,.18-1.32,.04-.75-.36-1.13-.51-.73-.16-1.12-.15-.75,.05-1.17,.09c-.37,.04-.77,.26-1.19,.25-.36,0-.75-.31-1.17-.4-.35-.07-.71-.23-1.11-.39-.33-.13-.78-.13-1.15-.34-.32-.18-.74-.28-1.09-.52-.3-.21-.63-.46-.96-.72-.29-.23-.58-.53-.89-.81s-.65-.55-.93-.84-.29-.85-.55-1.17-.35-.75-.59-1.09-.61-.58-.82-.92-.28-.78-.45-1.14-.47-.69-.6-1.07c-.14-.4-.33-.77-.41-1.16-.09-.42-.06-.83-.08-1.22-.02-.43-.31-.88-.24-1.26,.07-.42,.46-.75,.65-1.1s.41-.71,.73-.98c.27-.22,.72-.32,1.11-.6,.31-.22,.42-.8,.79-1.05,.33-.22,.72-.39,1.09-.62,.34-.21,.9-.09,1.27-.32,.35-.21,.48-.81,.85-1.02s.86-.16,1.23-.36,.63-.59,1-.78,.79-.27,1.17-.46,.73-.41,1.11-.58,.81-.23,1.2-.39,.75-.38,1.14-.52,.8-.26,1.19-.39,.88,.01,1.27-.09,.71-.67,1.1-.76c.42-.09,.88,.09,1.28,.04,.43-.05,.84-.36,1.24-.37,.44,0,.88,0,1.29,0,.45,0,.86,.47,1.27,.48,.45,.02,.88-.12,1.29-.1,.46,.03,.86,.25,1.26,.28,.47,.04,.94-.4,1.32-.35,.49,.06,.88,.41,1.23,.47,.83,.14,.62,.12,1.24,.27Z" style="fill:#473513;"/><path d="M94.89,33.49c1.07,.18,.5,.85,2.06,.94,.58,.03,1.32-.11,2.19-.13,.63-.02,1.36-.1,2.17-.16,.66-.05,1.36-.28,2.15-.38s1.51,.13,2.16,.1c.81-.04,1.51-.42,2.13-.4,.88,.03,1.6,0,2.16,.08,1.46,.21,1.9,.66,1.93,.24,.03-.4-.04-1.15,.32-1.87,.23-.45,.57-.9,1.44-1.16,.5-.15,1.11-.66,1.92-.69,.54-.02,1.03,.88,1.72,1.49,.46,.4,1.01,.83,1.51,1.45,.41,.51,.99,.96,1.42,1.58,.38,.55,1.04,.99,1.43,1.62,.36,.58,.35,1.42,.71,2.06,.34,.6,1.05,1.03,1.39,1.66s.02,1.58,.34,2.22,.68,1.23,.99,1.88,1.2,1.01,1.49,1.66,.54,1.33,.81,1.98,.46,1.37,.72,2.02,.07,1.51,.31,2.16c.26,.69,1.14,1.13,1.36,1.78,.24,.71,.13,1.5,.32,2.15,.21,.75,.52,1.42,.64,2.05,.17,.83,.03,1.58,.03,2.14-.01,1.08-.15,1.85-.62,2.08-.5,.24-1.34-.04-2.18-.44-.57-.27-1.32-.49-1.97-.93-.57-.38-1.21-.76-1.8-1.2s-.77-1.39-1.33-1.82c-.6-.46-1.47-.52-2.01-.9-.69-.49-1.36-.68-1.88-.91-.75-.33-.92-1.31-1.41-1.76s-1.25-.64-1.85-1.13c-.48-.39-.84-1.11-1.6-1.46-.56-.26-1.4,.06-2.2-.15-.61-.16-1.15-1-1.94-1.13-.64-.11-1.36-.24-2.14-.31-.66-.07-1.41,.37-2.18,.33-.72-.04-1.37-.38-1.97-.38-.75,0-1.38,.4-1.96,.46-.78,.08-1.48-.17-2.01-.01-.77,.22-1.21,.79-1.67,1.1-.59,.4-1.24,.52-1.76,.9s-1.23,.99-2.08,.91c-.8-.07-1.64-.47-2.2-.94s-.97-1.32-.72-2.22c.17-.62,.28-1.33-.03-2.09-.25-.61-.69-1.22-1.08-1.87-.36-.61-.9-1.15-1.25-1.77-.38-.67-.96-1.27-1.16-1.89-.24-.76-.19-1.73,.12-2.35s.7-1.23,.81-1.93,.46-1.35,.73-1.99,.37-1.45,1.1-1.85c.51-.28,1.3-.19,2.17-.31,.61-.08,1.36-.5,2.19-.49Z" style="fill:#473513;"/><path d="M69.17,69.53c.18-.97,.03-.78,.55-1.88,.24-.51,.53-1.12,.88-1.77,.29-.54,.7-1.07,1.06-1.67,.32-.54,.7-1.08,1.08-1.65,.36-.53,.83-1,1.24-1.53s.7-1.12,1.14-1.61,.86-1.01,1.34-1.46,1.12-.72,1.64-1.1,1.1-.69,1.68-.99,1.05-.93,1.68-1.12,1.32-.33,1.98-.39c.7-.06,1.4,.14,2.06,.16,.7,.01,1.35,.3,2,.38,.7,.09,1.33,.25,1.96,.42,.68,.18,1.29,.38,1.89,.64,.64,.28,1.42,.26,1.97,.62,.58,.39,.98,.99,1.45,1.46,.49,.49,1.15,.87,1.49,1.44s.21,1.39,.4,2.04,.22,1.26,.23,1.95c0,.66-.07,1.27-.23,1.95s.09,1.42-.09,2.06-.36,1.32-.58,1.95-.57,1.25-.85,1.85-.76,1.13-1.11,1.69-.87,1-1.31,1.51-.81,1.04-1.34,1.46-.91,1.04-1.52,1.36c-.58,.3-1.3,.33-1.97,.53-.61,.19-1.25,.35-1.95,.45-.63,.1-1.32,.01-1.98,.13-.64,.12-1.26,.38-1.91,.5s-1.31,.12-1.96,.21-1.28,.6-1.92,.64-1.37,.06-2,.01c-.68-.05-1.33-.33-1.95-.51-.64-.19-1.27-.46-1.81-.82s-.97-.86-1.39-1.41c-.37-.48-.55-1.12-.82-1.78-.23-.56-.51-1.14-.67-1.84-.13-.59-.5-1.21-.57-1.92-.06-.61,.25-1.27,.24-1.97Z" style="fill:#473513;"/></g><g><path d="M187.39,132.29c-.33,.45-1.54,.59-2.17,1.41-.44,.57-.15,1.82-.7,2.53-.47,.6-1.4,.91-1.93,1.58-.48,.61-1.48,.86-2,1.51-.49,.62-.58,1.59-1.1,2.23s-.94,1.32-1.46,1.95-.59,1.63-1.11,2.25-1,1.31-1.52,1.92c-.54,.63-1.31,1.05-1.85,1.64-.56,.62-1.25,1.11-1.79,1.68-.59,.62-1.6,.77-2.14,1.31-.64,.63-1.43,.92-1.99,1.39-.76,.65-.65,2.34-1.2,2.61s-1.28,.56-2.12,1.07c-.63,.38-2.08-.37-2.81,.11-.64,.42-.98,1.4-1.68,1.89-.64,.45-.74,1.69-1.42,2.19s-1.88,.17-2.53,.68-.91,1.46-1.54,1.98-1.39,.87-2.01,1.39-1.43,.85-2.03,1.39-1.63,.7-2.19,1.25c-.61,.59-.81,1.57-1.33,2.14-.59,.64-1.66,.87-2.11,1.47-.55,.73-.57,1.8-.87,2.44s-.73,1.23-1.51,1.86c-.59,.47-1.08,1.26-1.88,1.71-.68,.38-1.2,1.34-2,1.7-.73,.33-1.85-.11-2.66,.19-.77,.29-1.33,1.29-2.15,1.54s-1.71,.21-2.52,.42c-.81,.21-1.65,.42-2.47,.59s-1.89-1.03-2.71-.91-1.55,1.11-2.36,1.18c-.87,.08-1.71-.22-2.52-.22-.89,0-1.79,.79-2.57,.7-.91-.11-1.38-1.6-2.09-1.87-.88-.33-1.32-.47-1.8-1.05-.51-.62-1.62-.94-1.59-1.89,.03-.76,.02-1.59,.12-2.44,.09-.77-.1-1.65,.05-2.47,.14-.77,1.53-1.3,1.73-2.1s-.43-1.77-.18-2.55,.65-1.48,.95-2.24,1.17-1.23,1.52-1.97-.22-1.92,.18-2.63,1.8-.78,2.26-1.45,.78-1.37,1.29-2,1.16-1.06,1.72-1.65,1.06-1.13,1.67-1.67,1.32-.8,1.99-1.27,1.3-.78,2.01-1.19,.87-1.76,1.62-2.09,1.32-1.15,2.1-1.41c.75-.25,1.89,.75,2.69,.57s1.47-.78,2.19-.99c.78-.23,1.3-1.11,2.01-1.37,.77-.28,1.39-.69,2.08-1.01,.74-.34,1.65-.21,2.31-.59,.71-.4,1.21-1.01,1.83-1.45,.66-.47,1.94-.13,2.52-.64,.6-.53,.81-1.5,1.33-2.06s.59-1.54,1.05-2.16,1.29-1.01,1.7-1.67,.84-1.33,1.21-2.02,.78-1.37,1.12-2.07,.44-1.53,.77-2.24,1.61-.97,1.95-1.68,.28-1.59,.64-2.29c.33-.64-.12-1.74,.21-2.55,.28-.7,1.67-1.04,1.95-1.84,.26-.72,.56-1.49,.82-2.28,.24-.74-.86-1.94-.61-2.72s.2-1.6,.44-2.38,.92-1.39,1.16-2.16,.66-1.47,.9-2.24,.8-1.44,1.04-2.2,.22-1.63,.47-2.38,.85-1.42,1.11-2.16,.89-1.39,1.18-2.11c.31-.77-.49-1.99-.17-2.69,.35-.77,1.79-.95,2.15-1.61,.42-.76-.09-2.06,.35-2.64,.55-.72,1.33-1.31,1.92-1.7,.73-.48,1.75-.4,2.54-.25,.66,.13,1.52,.31,2.33,.78,.63,.36,1.17,1.04,1.85,1.58,.59,.47,1.81,.35,2.43,.93,.56,.53,.82,1.46,1.38,2.08,.52,.57,1.28,1.03,1.8,1.67s.38,1.73,.86,2.39,.67,1.46,1.11,2.14,1.19,1.14,1.58,1.85,.73,1.43,1.08,2.16,.49,1.53,.79,2.28,.96,1.37,1.21,2.13,1.02,1.43,1.2,2.21-.23,1.73-.12,2.52,.5,1.61,.52,2.41,.19,1.69,.13,2.49-1.71,1.36-1.88,2.15,.64,1.81,.36,2.57-1.06,1.26-1.45,1.98-.16,1.79-.65,2.46Z" style="fill:#d28728;"/><path d="M155.54,91.85c-.58,1.1-1.55-.33-2.93,.31-.64,.3-1.29,.88-2.06,1.43-.61,.44-.97,1.25-1.59,1.9-.53,.55-1.4,.88-1.91,1.61-.44,.64-.67,1.46-1.07,2.25-.35,.69-.22,1.6-.52,2.43-.27,.74-1.24,1.27-1.46,2.12s-.67,1.54-.84,2.29c-.19,.82-.47,1.59-.64,2.34-.18,.83-.33,1.61-.5,2.36-.18,.82-.52,1.54-.72,2.29-.21,.81,.29,1.77,.03,2.51s-1.05,1.29-1.4,2.01-.64,1.39-1.11,2.07c-.44,.63-.57,1.53-1.14,2.15-.51,.56-1.59,.55-2.24,1.12-.57,.5-.85,1.37-1.54,1.88-.61,.45-1.54,.49-2.25,.97s-1.17,1.21-1.82,1.7-1.03,1.32-1.65,1.85-1.53,.73-2.13,1.28-.57,1.77-1.15,2.33-1.29,1.01-1.86,1.58-.93,1.38-1.5,1.95-1.56,.77-2.13,1.33-1.6,.7-2.18,1.24c-.61,.57-1.03,1.3-1.63,1.8-.65,.54-1.18,1.15-1.83,1.59-.7,.48-1.45,.75-2.15,1.09-.75,.37-1.41,.84-2.18,1.02s-1.62,.8-2.44,.75c-.75-.05-1.55-.22-2.36-.31-.76-.09-1.58-.09-2.37-.23s-1.6-.17-2.36-.35-1.4-.96-2.14-1.19c-.77-.24-1.38-.85-2.07-1.14-.76-.32-1.91,.14-2.54-.25-.73-.44-1.46-1.07-1.93-1.6-.56-.63-.77-1.65-.88-2.41-.11-.7,.14-1.56,.52-2.38,.29-.61,1.3-.79,1.91-1.46s.76-1.63,1.17-2.3c.44-.73,.06-1.78,.34-2.53,.29-.79,1.65-1.25,1.82-2.04s-.14-1.75-.03-2.55c.12-.85,.49-1.62,.61-2.41,.14-.86-.06-1.72,.18-2.47,.27-.81,.79-1.4,1.32-2.03,.49-.58,.7-1.81,1.54-2.18,.66-.29,1.74,.29,2.67,.15,.86-.13,1.67-.5,2.47-.79s1.71-.44,2.45-.86,1.32-1.14,2-1.65,1.63-.74,2.27-1.31,.79-1.67,1.39-2.27,1.57-.88,2.15-1.49,.77-1.66,1.35-2.26c.62-.64,1.85-.59,2.45-1.14,.67-.62,.62-2.04,1.27-2.49,.77-.53,1.78-.69,2.54-.87s1.63-.25,2.2-.85c.5-.53,1.3-1.08,1.68-1.84,.33-.66-.16-1.76,.12-2.54,.25-.72,.47-1.47,.68-2.25s.77-1.43,.96-2.2,.61-1.49,.8-2.25c.2-.79-.25-1.74-.03-2.47,.24-.81,1.04-1.38,1.32-2.06,.34-.82,.2-1.89,.65-2.4,.49-.56,1.72-.26,2.44-.67,.66-.37,1.26-.67,2.04-.92,.73-.23,1.3-1.18,2.09-1.31s1.61,.09,2.39,.04,1.59,.19,2.34,.23c.85,.04,1.66-.14,2.36,0,.95,.18,1.88,.2,2.37,.53s.74,1.27,1.36,2.05c.45,.56,1.42,.86,1.91,1.56,.44,.64,.4,1.64,.83,2.32s1.37,1.06,1.77,1.72c.45,.74,.71,1.55,1.06,2.15,.71,1.23,1.98,1.41,1.43,2.46Z" style="fill:#d28728;"/><path d="M68.24,118.06c1.17,.25,.97,.56,2.08,1.68,.46,.47,.24,1.7,.81,2.45,.43,.57,1.61,.72,2.07,1.47,.38,.62,.45,1.52,.84,2.29,.34,.66,.55,1.44,.89,2.22,.3,.69,1.23,1.19,1.53,1.97s.71,1.53,.93,2.27c.24,.79-.61,1.85-.44,2.61,.18,.81,.48,1.55,.6,2.32,.13,.82,.37,1.59,.46,2.36,.09,.83-.36,1.67-.29,2.44,.08,.83,.49,1.6,.58,2.36,.09,.84,.02,1.69,.16,2.44,.16,.82,.83,1.49,1.11,2.21s.13,1.86,.62,2.5,1.86,.59,2.39,1.21,.2,1.98,.73,2.6,1.08,1.19,1.6,1.82,1.42,.93,1.89,1.59,1.14,1.19,1.55,1.9,.13,1.69,.44,2.46,1.24,1.26,1.43,2.07c.17,.74-.11,1.66,.08,2.5,.18,.77,.18,1.62,.38,2.44s1.7,1.25,1.91,2.04-.66,1.9-.41,2.67,1.46,1.23,1.76,1.96c.33,.8-.39,2.06,0,2.73,.44,.77,1.23,1.33,1.77,1.86,.62,.62,1.41,1.17,2.18,1.35,.56,.13,1.49-.31,2.32-1.02,.51-.44,.54-1.5,1.11-2.2,.46-.56,.79-1.25,1.28-1.95,.42-.62,1.33-.95,1.76-1.66,.4-.65,.93-1.26,1.32-1.98,.37-.68,0-1.75,.36-2.48s1.21-1.15,1.53-1.89,.61-1.45,.9-2.19,1.12-1.28,1.39-2.03-.06-1.7,.17-2.46,.84-1.43,1.02-2.19,.89-1.48,1.03-2.25-.16-1.69-.08-2.46c.08-.81-.29-1.64-.29-2.41,0-.82-.7-1.52-.8-2.27-.11-.82-.04-1.53-.29-2.25-.27-.77-.82-1.19-1.26-1.82s-.2-1.88-.85-2.36c-.7-.51-1.49-.84-2.12-1.34-.68-.54-.99-1.45-1.59-1.99-.65-.58-1.39-.97-1.95-1.55-.61-.63-1.28-1.12-1.79-1.73-.56-.68-.56-1.66-1-2.32-.48-.74-1.52-1.05-1.86-1.77-.37-.79,.03-1.76-.18-2.53-.22-.84-.59-1.5-.62-2.31s-.33-1.65-.16-2.46,.32-1.64,.68-2.41c.31-.67,.98-1.17,1.66-1.78,.56-.5,1.27-.87,2.01-1.34,.65-.41,1.31-.88,2.06-1.29,.7-.37,1.08-1.44,1.83-1.8s1.46-.72,2.21-1.07,1.86,.09,2.59-.27,1.35-.98,2.06-1.36c.74-.39,1.52-.69,2.2-1.1,.72-.45,.92-1.55,1.54-2.03,.68-.53,1.7-.55,2.21-1.13,.57-.65,1.04-1.33,1.33-2.06s.69-1.59,.62-2.45-1.29-1-1.84-1.6c-.49-.54-.44-1.81-1.24-2.19-.66-.31-1.58-.21-2.41-.43-.73-.19-1.38-1.19-2.21-1.31-.76-.11-1.61-.14-2.44-.2-.77-.06-1.61,.08-2.43,.06s-1.6,.37-2.41,.37-1.6-.32-2.41-.3-1.54,1.24-2.34,1.28-1.69-1.3-2.48-1.24-1.57,.67-2.35,.74-1.63-.04-2.41,.03c-.82,.08-1.53,1.02-2.29,1.1-.84,.09-1.75-.9-2.5-.82-.86,.09-1.6,.73-2.32,.8-.94,.1-1.69,.9-2.32,.95-.76,.06-1.75,.09-2.63-.03-.78-.11-1.31-1.82-2.14-2.02-.79-.19-1.54-.44-2.35-.68s-1.8,.26-2.59,.03c-.81-.24-1.7-.16-2.48-.37-.84-.23-1.68-.19-2.44-.34-.91-.17-1.62-.04-2.35,0-.96,.04-1.52-.21-2.04,.35-.46,.5-.16,1.01-.15,2.08,0,.87-.41,1.77-.45,2.63s-.55,1.73-.6,2.58c-.06,.9-.92,1.74-.95,2.57-.04,.92,.71,1.84,.77,2.64,.06,.96,.26,1.82,.55,2.54,.34,.84,1.02,1.23,1.81,1.66,.65,.34,1.44,.28,2.49,.27Z" style="fill:#d28728;"/><path d="M68.04,106.11c-.18,.92,.86,1.73,.95,2.44,.11,.9-.56,1.98-.09,2.59s1.37,1.07,2.13,1.46c.68,.34,1.61,.21,2.45,.4,.76,.18,1.49,.91,2.33,1s1.68-.91,2.51-.88,1.62,.88,2.43,.88,1.67,.14,2.45,.14c.88,0,1.69-.06,2.43,0,.99,.07,1.9-.24,2.48,0,.84,.36,.87,1.03,.41,2.05-.35,.78-.86,1.32-1.2,1.9-.47,.8-.82,1.43-1.16,1.92-.73,1.04-.78,1.74-.11,2.15,.37,.23,1,.69,2.09,.98,.6,.16,1.3,.49,2.17,.71,.73,.18,1.77-.57,2.66-.4,.78,.15,1.61,.14,2.48,.26,.81,.12,1.52,1.14,2.37,1.21s1.71-.7,2.55-.68,1.68,.92,2.52,.88c.85-.04,1.59-.99,2.4-1.11s1.84,.48,2.62,.25c.83-.25,1.22-1.39,1.93-1.78,.75-.41,1.4-.68,1.98-1.27s1.05-1.1,1.42-1.88c.34-.71,.29-1.44,.42-2.33,.11-.77,1.09-1.52,1.03-2.44-.05-.84-.6-1.62-.58-2.36,.02-.85,.81-1.57,.91-2.29,.12-.85-.2-1.68,.02-2.38,.26-.81,.28-1.7,.65-2.34,.42-.71,.84-1.49,1.38-2.04s1.8-.31,2.45-.76,.98-1.33,1.68-1.72,1.42-.65,2.13-1.02,1.32-.85,2.01-1.25,1.07-1.18,1.73-1.64,1.64-.56,2.33-1.04,1.65-.58,2.32-1.07,1.2-1.23,1.85-1.73c.69-.53,1.16-1.3,1.77-1.81,.69-.58,1.82-.61,2.37-1.14,.7-.68,.35-2.06,.73-2.63,.64-.97,1.15-1.22,.48-1.7-.32-.23-1.1-.54-2.27-.15-.64,.21-1.21,.98-2.04,1.34-.67,.28-1.29,.82-2.06,1.18-.68,.32-1.85-.28-2.6,.08-.69,.34-1.36,.8-2.09,1.17-.69,.35-.89,1.72-1.61,2.09s-1.8-.04-2.51,.33-1.37,.81-2.07,1.18-1.68,.24-2.38,.61-.91,1.69-1.61,2.06-1.82-.02-2.52,.34-1.45,.69-2.14,1.05c-.73,.38-1.41,.79-2.09,1.14-.74,.38-.94,1.75-1.62,2.09-.76,.38-1.73,.24-2.39,.55-.81,.38-1.67,.42-2.3,.68-1.02,.42-1.73,.69-2.19,.73-.8,.07-1.57,.67-2.35,.67s-1.59-.39-2.37-.44-1.63,.19-2.4,.08-1.54-.49-2.31-.65-1.46-.71-2.22-.9-1.66,.04-2.41-.19-1.42-.81-2.15-1.06c-.77-.26-1.57-.35-2.3-.6-.77-.27-1.3-1.2-2.02-1.43-.79-.26-1.74,.11-2.47-.08-.81-.21-1.54-.79-2.28-.88-.84-.1-1.73,.1-2.46,.21-.79,.12-1.8,.18-2.47,.62-.61,.4-1.3,1.09-1.81,1.81-.4,.58-.5,1.51-.83,2.33-.27,.66,.25,1.64,.02,2.48-.19,.7-1.42,1.22-1.58,2.06Z" style="fill:#473513;"/><path d="M77.66,103.32c.71,.49,1.58,.85,2.41,1.36,.77,.47,1.3,1.38,2.11,1.85s1.8,.59,2.59,1.06,1.46,1.2,2.21,1.68c.81,.53,1.63,.97,2.32,1.5,.81,.63,1.76,1.03,2.29,1.65,.72,.83,1.19,1.87,1.16,2.68s-.62,1.69-1.57,2.43c-.84,.65-1.98,.73-2.86,1.16-.94,.45-1.81,.87-2.8,1.07-.99,.2-1.96,.58-3.01,.56-.99-.02-2.03-.1-3.06-.32-.96-.2-1.86-.75-2.87-1.11-.92-.33-1.92-.58-2.88-1.04-.89-.42-1.62-1.21-2.54-1.73s-1.78-1.01-2.6-1.56c-.87-.59-1.91-.89-2.67-1.51-.82-.67-1.5-1.45-2.17-2.16-.73-.77-1.44-1.52-1.99-2.32-.6-.87-.78-1.91-1.15-2.82-.4-.97-1.03-1.83-1.14-2.82s.12-2.02,.32-3.03c.22-1.08,.6-1.85,1.05-2.48,.56-.79,1.2-1.04,2.21-1.11,.76-.05,1.53,.14,2.59,.49,.76,.25,1.77,.18,2.7,.65,.75,.37,1.41,1.09,2.28,1.6,.74,.43,1.47,.99,2.3,1.52,.73,.47,1.73,.61,2.54,1.15,.73,.49,1.45,1.08,2.24,1.63Z" style="fill:#473513;"/><path d="M186.93,95.11c-.08,.79,0,1.39-.28,2.18-.26,.74-.4,1.57-.81,2.3-.38,.69-1.35,1.02-1.83,1.7s-.84,1.33-1.37,1.96-.57,1.65-1.14,2.25-1.05,1.27-1.64,1.83-1.33,.97-1.94,1.5-1.75,.45-2.37,.95-1.09,1.25-1.72,1.73c-.67,.51-1.14,1.24-1.76,1.7-.69,.51-1.24,1.15-1.85,1.59-.74,.52-1.9,.29-2.49,.69-.89,.62-1.19,1.64-1.58,1.96-.58,.47-1.09,1.4-1.97,1.81-.69,.32-1.61,.44-2.5,.75-.74,.26-1.8-.23-2.68,.05-.76,.24-1.31,1.34-2.18,1.61-.77,.23-1.87-.47-2.73-.21-.78,.23-1.55,.64-2.4,.9-.78,.24-1.39,1.16-2.24,1.43-.79,.25-1.86-.3-2.7-.03-.79,.25-1.59,.4-2.34,.64s-1.36,1.14-2.12,1.37c-.8,.24-1.46,.89-2.22,1.1-.8,.23-1.63,.28-2.4,.48-.81,.21-1.76-.28-2.52-.11-.81,.19-1.54,.61-2.31,.75-.82,.15-1.58,.58-2.35,.68-.83,.11-1.67-.17-2.45-.12-.83,.05-1.63,.08-2.41,.05-.83-.03-1.73,.6-2.51,.47-1.18-.19-1.14-1.26-.87-2.07,.18-.55,.52-1.15,1.23-1.88,.49-.5,.96-1.16,1.66-1.71,.58-.46,1.48-.57,2.18-1.06,.63-.43,1.25-.9,1.96-1.34,.66-.41,1.4-.68,2.12-1.09s.8-1.86,1.52-2.24,1.74-.09,2.47-.43,1.24-1.17,1.98-1.48,1.46-.74,2.21-1.01c.76-.28,1.9,.57,2.66,.33s1.29-1.33,2.05-1.53c.92-.24,1.89-.01,2.63-.27,.92-.32,1.74-.65,2.43-1,.89-.45,1.48-1.13,2.07-1.61,.77-.63,1.23-1.3,1.65-1.95,.53-.79,1.15-1.41,1.48-2.16,.36-.81,.33-1.86,.9-2.53,.49-.57,1.33-1.04,2.3-1.44,.68-.27,.97-1.01,1.61-1.64,.53-.52,1.87-.44,2.37-1.14,.44-.63-.05-1.89,.36-2.63,.39-.69,1.6-.96,1.95-1.71s.67-1.49,.98-2.24,.14-1.69,.41-2.45,1.25-1.32,1.48-2.07c.26-.81,0-1.75,.19-2.49,.23-.86,.59-1.63,.73-2.33,.21-1.04-.15-1.91-.15-2.44,0-.68,1.33-1.04,2.59-.38,.6,.31,.72,1.72,1.5,2.23,.62,.41,1.23,.93,1.93,1.44,.63,.46,1.45,.71,2.11,1.21s1.3,.96,1.94,1.46,1.16,1.15,1.78,1.66,1.93,.24,2.54,.74c.66,.54,1.23,1.15,1.81,1.64,.7,.58,1.1,1.39,1.63,1.84,1.14,.97,.95,.68,1.45,1.79Z" style="fill:#473513;"/><path d="M46.01,124.97c.87,.34,.04,1.39,.97,2.1,.42,.32,.86,.86,1.45,1.25,.48,.32,1.38,.07,1.96,.39,.52,.29,.98,.75,1.57,1.03,.54,.26,1.1,.56,1.7,.8,.56,.22,1.3-.03,1.92,.15s1.11,.57,1.73,.7,1.23,.02,1.87,.11,1.16,.99,1.8,1.02,1.28-.12,1.91-.15,1.3-.32,1.94-.36,1.33,.12,1.97,.06,1.29-.41,1.92-.48c.67-.07,1.37,.35,2,.28,.67-.08,1.28-.43,1.91-.51,.67-.08,1.34,0,1.95-.06,.69-.08,1.23-1.25,1.83-1.3,.71-.06,1.42,.53,2,.53,.77,0,1.42,.09,1.93,.23,.76,.2,1.84,.49,1.97,1.13,.11,.57,.14,.51,.84,.76,.48,.17,.91,.75,1.6,.83,.55,.06,1.11,.83,1.76,.87,.58,.04,1.26-1.07,1.89-1.03,.59,.04,1.2,.17,1.82,.22s1.19,.35,1.8,.43,1.22,.11,1.82,.24,1.01,.91,1.59,1.09,1.13,.32,1.68,.56,1.1,.4,1.62,.73c.63,.4,1.43,.55,1.66,1.08,.26,.59,.69,1.49,.54,2.15-.14,.59-1.48,.73-1.87,1.29-.36,.5-.79,.78-1.31,1.2s-.65,1.25-1.24,1.51c-.59,.26-1.18,.74-1.82,.83s-1.28-.43-1.92-.58-1.38,.64-2.05,.58-1.24-.4-1.91-.41-1.3-.58-1.97-.56-1.31-.12-1.97-.09-1.29,.2-1.96,.21-1.3,.1-1.96,.09-1.33,.44-2,.39-1.33-.08-1.99-.18-1.23-.6-1.88-.75-1.29,.15-1.89,.09c-.64-.06-1.25-1.06-1.86-1.03s-1.29,.22-1.91,.32-1.02,1.25-1.64,1.39-1.24,.07-1.85,.22-1.37-.44-1.99-.29-1.2,.17-1.83,.3c-.59,.12-1.01,1.39-1.64,1.48-.6,.09-1.31-.42-1.95-.36-.6,.05-1.23,.11-1.87,.13-.6,.02-1.25,.57-1.9,.55-.61-.02-1.21-.98-1.85-.99s-1.25-.05-1.88-.05-1.25,.34-1.88,.34-1.25,.31-1.88,.31-1.26-.65-1.88-.65-1.26-.17-1.87-.18-1.29,.78-1.9,.76-1.24-.62-1.84-.67c-.65-.05-1.25-.22-1.84-.3-.66-.08-1.28-.01-1.85-.14-.66-.14-1.54,.48-2.07,.27-.65-.25-.78-1.36-1.21-1.73-.5-.43-1.54-.62-1.66-1.25-.1-.53,.77-1.31,.71-2.05-.05-.59-1.2-1.18-1.22-1.87-.02-.62,.45-1.29,.44-1.95,0-.63,.62-1.28,.62-1.94s-.59-1.3-.58-1.94-.07-1.31-.05-1.94,.07-1.32,.09-1.94c.02-.68-.07-1.34-.04-1.94,.03-.72,.89-1.34,.92-1.89,.06-1.19-1.4-2.24-.45-2.42,.89-.17,.88,1.1,1.76,1.29s1.07-.67,1.95-.48,.87,.26,1.75,.45,.82,.46,1.71,.66,.72,.92,1.6,1.11,1.06-.61,1.94-.41c.89,.2,.86,1.26,1.76,1.21,1.03-.05,1.13-1.18,1.97-.85Z" style="fill:#473513;"/><path d="M120.68,192c0-.76-.83-1.9-.16-2.62,.5-.54,1.12-1.41,1.91-1.92,.66-.42,1.68-.5,2.49-.89,.72-.35,1.53-.7,2.35-1.03,.76-.3,1.66-.36,2.48-.63s1.71-.15,2.53-.38,1.67-.23,2.49-.42,1.58-.7,2.39-.86,1.65-.55,2.46-.66c.88-.13,1.73-.27,2.52-.34,.92-.07,1.79-.28,2.55-.26,.68,.02,1.47,1.07,2.4,1.09,.74,.02,1.56-.5,2.43-.49,.76,.01,1.58-.75,2.42-.74,.78,0,1.58-.12,2.41-.13,.79,0,1.6,.52,2.42,.5s1.59-.38,2.4-.41,1.65,.86,2.46,.81,1.6-.38,2.41-.44,1.54-.92,2.34-1,1.61-.05,2.4-.15,1.57-.34,2.36-.47,1.66,.09,2.43-.08c.82-.18,1.54-.52,2.28-.73,.82-.24,1.95,.52,2.65,.23,.8-.33,1.59-.79,2.22-1.2,.74-.48,.49-1.89,.94-2.48s1.3-1.01,1.96-1.68c.54-.55,1.75-.48,2.41-1.07,.59-.53,.75-1.62,1.42-2.16,.63-.51,.95-1.5,1.63-2s2.24,.29,2.94-.18,.72-1.92,1.43-2.36,1.84-.18,2.56-.58,1.55-.61,2.28-.96c.78-.37,1.14-1.62,1.89-1.91,.82-.31,1.82,.03,2.58-.16,.87-.22,1.63-1.36,2.4-1.38,.91-.02,1.6,1.26,2.3,1.58,.74,.34,2.25,.15,2.68,.95,.34,.63-.05,1.81,.05,2.78,.07,.76,.85,1.53,.92,2.4,.06,.78-.42,1.65-.36,2.51,.05,.79,.57,1.59,.62,2.44,.04,.8,.13,1.63,.16,2.47s-.06,1.64-.04,2.48,.1,1.64,.11,2.47-.82,1.65-.82,2.47-.7,1.63-.71,2.45,1.35,1.68,1.32,2.5-.72,1.62-.77,2.44-.12,1.65-.19,2.46-.02,1.66-.1,2.47,.44,1.74,.34,2.54-1.03,1.54-1.16,2.33c-.14,.83,.24,1.76,.07,2.54-.18,.83-.02,1.77-.24,2.53-.24,.83-.89,1.55-1.18,2.27-.32,.81-.64,1.67-1.03,2.33-.45,.77-1.58,.99-2.12,1.52s-1.02,1.15-1.68,1.67c-.6,.47-1.43,.65-2.12,1.1-.64,.43-1.17,1.06-1.88,1.46s-1.11,1.28-1.84,1.64-1.48,.62-2.21,.95-1.51,.56-2.25,.85c-.74,.29-1.55,.43-2.3,.68s-1.76-.35-2.52-.14-1.51,.39-2.28,.55-1.34,1.72-2.11,1.82c-.82,.11-1.71-.48-2.47-.45-.84,.03-1.7,.6-2.45,.52-.84-.09-1.68-.52-2.39-.76-.8-.28-1.74-.59-2.32-1.08s-.41-2.11-1.18-2.55c-.65-.37-1.72-.16-2.5-.51-.7-.31-1.75,.15-2.53-.14-.73-.27-1.39-.75-2.18-1s-1.26-1.32-2.05-1.54-1.83,.65-2.62,.45-1.3-1.45-2.08-1.63-1.56-.51-2.33-.67-1.8,.75-2.58,.61c-.82-.15-1.47-1.12-2.23-1.24-.83-.13-1.77,.72-2.52,.61-.87-.12-1.66-.08-2.39-.15-.96-.09-1.7-1.07-2.32-1.08s-1.51,1.04-2.52,1.02c-.75-.02-1.61-.39-2.51-.45-.79-.06-1.62-.35-2.49-.48-.8-.11-1.56-.63-2.4-.81s-1.41-.96-2.21-1.23-1.43-.65-2.19-1.01-1.88,.08-2.59-.37-.77-1.64-1.4-2.2-2.28-.07-2.82-.72c-.52-.62,.31-2.2-.13-2.94-.41-.69-2.12-.74-2.45-1.54-.3-.74,.54-1.91,.31-2.75-.21-.77-1.33-1.37-1.47-2.23-.13-.79,.58-1.71,.52-2.57-.05-.8,.35-1.6,.36-2.47Z" style="fill:#d28728;"/><path d="M100.54,148.9c.62-1.08-.02-1.39,1.17-2.38,.54-.45,1.36-.81,2.09-1.39,.6-.48,1.54-.64,2.25-1.18,.63-.48,.99-1.42,1.69-1.93,.65-.47,1.7-.44,2.41-.92s1.79-.27,2.49-.73,1.21-1.16,1.93-1.59,1.15-1.34,1.88-1.74c.74-.4,1.5-.76,2.24-1.11s1.62-.51,2.37-.81,1.47-.94,2.24-1.18c.82-.25,1.89,.75,2.68,.61,.85-.16,1.53-.32,2.32-.32,.86,0,1.84-1.3,2.61-1.09s1.44,.93,2.3,1.11c.79,.17,1.63,.26,2.48,.4,.81,.14,1.5,1.22,2.35,1.33s1.74-.45,2.59-.36,1.61,.81,2.46,.87,1.76-1.02,2.59-.98,1.66,.35,2.5,.38,1.69-.27,2.51-.27,1.71,.84,2.53,.82c.86-.03,1.64-1.28,2.45-1.34,.87-.06,1.79,.89,2.59,.79,.88-.11,1.58-1.01,2.35-1.16,.9-.18,1.93,.41,2.64,.16,.93-.32,1.41-1.22,1.94-1.67s1.54-.64,2.54-.6c.73,.03,1.34,1.06,2.24,1.33,.74,.22,1.43,.51,2.25,.88,.73,.33,2.21-.74,2.97-.31,.7,.4,.63,2.15,1.34,2.62s1.43,.78,2.11,1.3,1.45,.81,2.09,1.37,1.45,.88,2.05,1.47,1.35,1.05,1.9,1.67,1.35,1.11,1.85,1.78,1.13,1.34,1.56,2.05,.87,1.54,1.23,2.28-.79,2.13-.54,2.91,1.58,1.31,1.71,2.12-.35,1.71-.37,2.55,.41,1.75,.1,2.51c-.29,.72-.73,1.52-1.25,2.2-.47,.61-1.9,.34-2.53,.91-.57,.51-.64,1.65-1.33,2.14-.64,.45-1,1.43-1.73,1.85-.68,.39-1.58,.49-2.33,.86-.7,.35-1.82-.15-2.58,.18s-1.36,.86-2.12,1.16-1.09,1.71-1.86,1.98-1.7,.05-2.48,.3-1.81-.41-2.59-.18-1.59,.27-2.37,.48-1.37,1.13-2.15,1.33-1.58,.33-2.37,.51c-.79,.18-1.74-.41-2.53-.23-.79,.17-1.48,.79-2.27,.95s-1.48,.9-2.27,1.04-1.65,.03-2.44,.17-1.7-.3-2.48-.18-1.58,.44-2.36,.55c-.82,.12-1.58,.54-2.36,.64-.83,.1-1.55,.98-2.32,1.07-.84,.09-1.8-1.39-2.57-1.33-.86,.08-1.61,.74-2.35,.78-.91,.06-1.7,.35-2.4,.36s-1.52,.22-2.4,.36c-.75,.12-1.54,.29-2.37,.48-.76,.17-1.44,.78-2.25,.98-.77,.19-1.9-1.02-2.7-.82s-1.37,1.14-2.17,1.33-1.51,.66-2.31,.82-1.49,.95-2.29,1.08-1.8-1.05-2.6-.96-1.58,.34-2.38,.37-1.58-.38-2.37-.43-1.82,1.24-2.6,1.08-1.75-.31-2.5-.61-.97-1.73-1.65-2.19-1.49-.66-2.07-1.27c-.53-.56-.5-1.54-.95-2.26-.4-.65-1.52-.96-1.85-1.75-.29-.71-1.15-1.35-1.38-2.17-.2-.74,1.19-1.89,1.05-2.73-.13-.76-.18-1.51-.26-2.36-.07-.77-.78-1.51-.81-2.36-.03-.78-.2-1.58-.18-2.43,.01-.78,.53-1.56,.57-2.4,.04-.78-.15-1.6-.08-2.43,.07-.78,.56-1.54,.66-2.37,.09-.78,.5-1.53,.62-2.36,.11-.78-.51-1.62-.37-2.44Z" style="fill:#d28728;"/><path d="M76.73,167.76c-.54-1.06-1.03-1.9,.07-2.37,.41-.17,1.11,.45,2.32,.73,.62,.14,1.35,.26,2.26,.57,.66,.23,1.35,.58,2.18,.92,.67,.27,1.46,.18,2.09,.33,.7,.17,1.4,.2,2.05,.23,.71,.04,1.37-.21,2.03-.29,.7-.09,1.41,.03,2.05-.16,.67-.2,1.24-.64,1.85-.9,.65-.28,1.16-.77,1.75-1.07,.65-.33,1.27-.63,1.85-.9,.68-.32,1.55,.17,2.15,.04,.71-.16,1.2-.5,1.83-.2,.51,.25,1.32,.39,1.79,1.08,.37,.55,.28,1.47,.68,2.09,.37,.57,.66,1.21,1.04,1.84s.78,1.15,1.14,1.78,1.15,.98,1.49,1.61,.39,1.4,.69,2.04,.8,1.2,1.07,1.85,.4,1.39,.63,2.04,.13,1.45,.31,2.12c.19,.71,.5,1.34,.6,2.02,.1,.73,.35,1.42,.33,2.1-.03,.74,.27,1.58,.06,2.23-.23,.72-.84,1.53-1.45,1.98-.54,.4-1.57,.06-2.34,.29-.65,.2-1.31,.45-2.09,.56-.69,.1-1.39,.67-2.15,.71-.71,.04-1.46,.16-2.21,.17s-1.46-.78-2.2-.79-1.47-.12-2.2-.13-1.49,.69-2.21,.69c-.76,0-1.52-.61-2.22-.57-.78,.04-1.55,.11-2.23,.21-.8,.12-1.3,1.06-1.9,1.31s-1.4,.06-2.15,.19c-.64,.11-1.34,.18-2.07,.22-.67,.04-1.35-.48-2.06-.5s-1.34-.06-2.04-.14-1.37,0-2.06-.12-1.54,.52-2.2,.36-1.11-1.23-1.75-1.45c-.69-.23-1.62,.22-2.21-.07-.67-.32-1.23-.85-1.74-1.23-.61-.46-.65-1.3-.96-1.85-.35-.62-.71-1.07-.57-1.78s.38-1.53,.24-2.3c-.12-.69-.97-1.24-1.25-1.96-.26-.66-.36-1.42-.7-2.1s-.53-1.39-.89-2.04-.93-1.19-1.28-1.83-.72-1.32-1.04-1.97c-.34-.69-.63-1.39-.87-2.05-.27-.74-.07-1.53-.15-2.22-.1-.77-.55-1.53-.34-2.22,.24-.78,.65-1.48,1.1-1.99,.49-.56,1.09-1.28,1.8-1.53,.65-.23,1.52,.57,2.31,.59,.68,.02,1.53-.77,2.29-.59,.67,.16,1.1,1.25,1.83,1.53,.65,.26,1.69-.25,2.37,.1,.63,.32,1.31,.69,1.96,1.08,.61,.37,.75,1.28,1.36,1.72Z" style="fill:#d28728;"/><path d="M66.37,244.91c14.15-.61,23.65-.52,31.76,0,8.11,.52,15.48,2.62,15.48-8.53,0-11.16-34.36,3.3-38.36,0-4-3.3-19.87-6.91-20.22-1.73-.35,5.17-2.74,10.87,11.35,10.27Z" style="fill:#d28728;"/><path d="M85.56,153.76c.56-.06,1.14-.13,1.74-.17,.57-.04,1.14-.16,1.74-.18s1.16-.04,1.76-.04,1.17-.41,1.77-.4,1.16,.21,1.76,.23,1.17,.08,1.76,.12,1.16,.11,1.76,.14c.46,.03,1.03-.18,1.66-.14,.51,.03,1.04,.25,1.63,.3,.52,.04,1.03,.54,1.6,.58,.53,.04,1.12-.44,1.68-.39s1.09,.07,1.64,.11,1.08,.28,1.63,.33,1.12-.08,1.66-.02,1.06,.55,1.59,.61c.57,.06,1.16-.25,1.68-.18,.58,.08,1.1,.38,1.6,.47,.61,.1,1.17,.12,1.63,.23,.82,.19,1.24,.53,1.39,.73,.22,.3,.53,.99,.13,1.75-.23,.44-1.06,.57-1.55,1.06-.37,.38-.81,.68-1.35,1.05-.45,.31-.93,.55-1.51,.83-.5,.24-.99,.47-1.59,.67-.53,.18-.99,.65-1.6,.79-.55,.13-1.17-.1-1.79-.02-.56,.08-1.09,.66-1.71,.71-.57,.04-1.17-.35-1.79-.34-.57,0-1.17,.27-1.78,.24-.56-.03-1.12,.05-1.67,.03s-1.11,.04-1.67,.04-1.11,.06-1.66,.08-1.12-.15-1.67-.13-1.13-.05-1.67-.01-1.13-.03-1.68,.02-1.13,.1-1.67,.16-1.13,.07-1.67,.14c-.57,.07-1.05,.7-1.59,.77-.57,.08-1.14,.08-1.66,.15-.58,.08-1.16,0-1.67,.07-.6,.09-1.11,.47-1.61,.53-.64,.09-1.24-.14-1.7-.11-1.05,.09-1.76-.12-1.58-.47,.14-.28,.06-.9-.65-1.49-.4-.33-1.31-.18-1.8-.58-.45-.36-.8-.91-1.22-1.31-.45-.43-.78-.97-1.06-1.43-.35-.55-.58-1.14-.47-1.69,.09-.48,.29-1.18,.89-1.63,.39-.29,1.01-.48,1.66-.75,.48-.2,1.09-.24,1.73-.42,.51-.15,1.09-.26,1.71-.4,.53-.12,1.08-.43,1.7-.53,.55-.09,1.14-.11,1.76-.2,.55-.08,1.17,.13,1.79,.06Z" style="fill:#473513;"/><path d="M156.24,148.19c.5-.36,.64-1.21,1.13-1.49,.53-.3,1.17-.34,1.7-.56,.56-.23,.98-.91,1.54-1.06s1.34,.62,1.92,.54,1.13-.2,1.71-.22,1.15-.01,1.74,.03,1.15,.17,1.72,.25,1.13,.26,1.7,.38,1.33-.46,1.89-.32,.99,.93,1.54,1.08c.59,.17,1.28-.1,1.82,.05,.6,.16,1.21,.11,1.74,.21,.63,.13,1.15,0,1.68,0s1.08,.35,1.71,.25c.54-.08,1.06-.38,1.65-.51,.54-.12,1.06-.4,1.64-.55s1.17-.05,1.74-.21,1.14-.23,1.69-.4,1.11-.37,1.66-.53,1.19-.14,1.73-.29c.59-.17,1.15-.29,1.68-.42,.62-.15,1.18-.33,1.68-.4,.73-.11,1.28-.05,1.67,.07,.46,.14,1.06,.47,1.79,.63,.56,.13,1.31-.28,1.95-.13,.6,.14,1.15,.58,1.76,.74s1.16,.53,1.73,.73c.65,.22,1.56-.2,2.04,.06,.7,.38,1.14,1.19,1.25,1.67,.09,.43,.4,.9,.62,1.51,.18,.49-.19,1.21-.02,1.76,.16,.52,.44,1.01,.53,1.56s.02,1.07-.03,1.61-.36,.89-.63,1.39c-.24,.46-.34,.9-.81,1.29s-.63,1.28-1.2,1.55c-.52,.24-1.35-.18-1.96,0-.56,.17-1.03,.77-1.65,.9-.58,.12-1.23-.05-1.85,.04s-1.19,.15-1.81,.23-1.22-.03-1.83,.05-1.11,.82-1.72,.91-1.35-.73-1.94-.62-1.15,.58-1.74,.7c-.52,.11-1.04,.5-1.64,.57-.54,.06-1.11,.39-1.71,.41-.55,.02-1.14-.12-1.73-.13-.55,0-1.11-.49-1.7-.52s-1.12-.02-1.71-.07-1.09-.39-1.67-.46-1.11-.17-1.69-.25-1.21,.43-1.78,.34c-.56-.09-1.1-.34-1.67-.44s-1.02-.7-1.58-.82-1.26,.42-1.82,.3-.99-.77-1.55-.9-1.14-.13-1.7-.28-1.21,.06-1.76-.1-1.11-.33-1.65-.5-1.14-.24-1.67-.43c-.6-.2-1.19-.36-1.71-.57-.59-.24-.93-.96-1.43-1.2-.58-.29-1-.7-1.47-.99-.56-.35-1.21-.43-1.61-.78-.51-.45-1.06-.8-1.34-1.23-.37-.57-.76-1.22-.8-1.75-.05-.61,.64-1.14,.94-1.65s.79-.68,1.3-1.04Z" style="fill:#473513;"/><path d="M89.87,215.04c2.55,.07,4.92,2.34,7.88,2.89s9.3-1.44,9.3-1.44l1.07-6.42s-9.65,1.12-10.37-1.97-10.04-9.93-10.04-9.93c0,0-3.47,14.46-3.52,15.15s5.68,1.73,5.68,1.73Z" style="fill:#d28728;"/><path d="M76.85,184.88c.92,0,1.71,.01,2.39,.24,.83,.27,1.67,.57,2.24,1.08,.6,.54,1.12,1.27,1.54,1.96s.64,1.52,.99,2.25,.79,1.44,1.2,2.09c.45,.72,.81,1.45,1.47,1.88,.62,.4,1.38,.43,2.32,.41s1.73,.55,2.45,.89c.8,.37,1.56,.73,2.15,1.39s.97,1.42,1.42,2.19,1.02,1.43,1.44,2.2,.98,1.45,1.47,2.14c.53,.74,.89,1.56,1.59,2.04,.76,.53,1.55,1,2.13,1.57,.71,.71,1.3,1.45,1.62,2.12,.46,.96,.15,1.66-.57,2.24-.49,.39-1.12,.96-2.32,1.04-.73,.05-1.53-.28-2.37-.3-.77-.02-1.58,.31-2.38,.25s-1.55-.48-2.33-.57c-.82-.09-1.66,.17-2.4,.06-.87-.13-1.59-.66-2.27-.78-1.31-.24-2.05-.4-2.15-.5-.12-.12-1.21,.68-2.48,1.14-.74,.27-1.68,.17-2.52,.31-.88,.15-1.81,.62-2.55,.35s-1.14-1.1-1.48-2.06c-.19-.54-.34-1.3-.45-2.27-.09-.69-.17-1.47-.23-2.32-.05-.74,.11-1.53,.08-2.35-.03-.75-.08-1.53-.1-2.33s-.51-1.55-.51-2.34,.12-1.57,.12-2.35,.19-1.58,.2-2.34c.01-.81,.22-1.59,.24-2.34,.02-.83-.05-1.62-.03-2.35,.03-.88,.04-1.67,.06-2.34,.05-1.45-.87-1.51-.02-2.31Z" style="fill:#473513;"/><path d="M110.55,216.93c.4-1.33,.31-1.28,1.3-2.45,.53-.63,1.3-1.2,2.27-1.58,.75-.29,1.65-.4,2.73-.33,.83,.06,1.48-.31,2.12-.63s1.42-.57,1.94-1.15c.49-.54,.92-1.2,1.34-1.85s.79-1.31,1.19-1.93c.43-.67,.82-1.33,1.29-1.85,.55-.6,1.13-1.13,1.81-1.34,1.25-.39,1.88,.03,2.2,.84,.25,.63,.53,1.53,.51,2.6-.01,.8-.1,1.7-.13,2.64-.03,.86-.11,1.74-.06,2.63s-.11,1.69-.3,2.44c-.21,.82-.43,1.64-.86,2.32s-1.05,1.32-1.66,1.85-1.39,.91-2.11,1.26-1.57,.45-2.35,.6c-.69,.13-1.58,.41-2.61,.56-.83,.12-1.73,.19-2.65,.31s-1.79,.25-2.65,.35c-.96,.12-1.87,.24-2.65,.33-1.57,.18-2.38,1.67-2.66,.37-.23-1.02,.52-.94,.85-1.94s.24-1.02,.57-2.02,.25-1.02,.55-2.02Z" style="fill:#473513;"/><path d="M149.38,217.12c-.12-1,.71-1.61,1.09-2.25,.41-.68,.76-1.25,1.64-1.59,.7-.27,1.46-.69,2.39-.78,.78-.07,1.62,.49,2.51,.52,.8,.03,1.61,.1,2.48,.19,.81,.09,1.69-.17,2.53-.03s1.59,.59,2.42,.75,1.82-.45,2.64-.26,1.56,.81,2.37,1.01c.84,.21,1.7,.28,2.48,.48,.86,.23,1.69,.4,2.45,.6,.91,.24,1.62,.89,2.33,1.08,1.15,.3,2.12-.16,2.57-.12,.51,.04,1.31,.54,2.37,.74,.71,.13,1.45,.62,2.33,.79,.75,.14,1.66-.26,2.5-.11,.78,.14,1.58,.24,2.4,.37s1.59,.32,2.39,.42,1.57,.89,2.36,.95c.84,.07,1.69,.24,2.47,.25,.87,0,1.77-.06,2.51-.15,.91-.11,1.76-.66,2.4-.96,.83-.38,1.62-1.11,1.82-1.89,.19-.73,.23-1.51,.75-2.18,.46-.59,1.41-.71,2.05-1.25,.59-.5,.52-1.92,1.2-2.37s1.65-.41,2.34-.79,1.48-.69,2.16-1.02c.79-.38,1.77-.14,2.41-.41,1.32-.55,1.24-2.39,2.14-1.61s-.69,1.07-.93,2.56c-.12,.71,.65,1.69,.5,2.59-.13,.77-1.19,1.43-1.35,2.27-.14,.8,.3,1.72,.15,2.54s-1.09,1.48-1.25,2.28c-.17,.84,.55,1.84,.38,2.61-.19,.88-1.16,1.51-1.35,2.21-.28,1.07,.2,2.16-.03,2.61-.29,.55-1.38,.56-2.51,.57-.71,0-1.59,.35-2.51,.23-.77-.1-1.46-1.12-2.31-1.26-.79-.13-1.71,.35-2.54,.22s-1.57-.79-2.38-.9-1.76,.79-2.55,.75c-.89-.05-1.63,0-2.38,.08-.93,.1-1.8-.26-2.4,.13-.64,.41-1.53,.18-2.42,.38-.75,.16-1.5,.25-2.38,.3-.8,.04-1.6,.39-2.46,.37s-1.63-.31-2.46-.36-1.67,.03-2.49-.04-1.73,.45-2.53,.4c-.88-.06-1.69-1-2.47-1.01-.93,0-1.86,.13-2.57,.24-.63,.1-1.38,.42-2.38,.39-.75-.02-1.65,.74-2.55,.64-.78-.09-1.5-1.01-2.35-1.16-.79-.14-1.73,.27-2.56,.07s-1.62-.42-2.42-.67-1.24-1.45-2-1.75c-.78-.31-1.66-.3-2.38-.68s-1.95-.09-2.61-.55c-.7-.5-.67-1.83-1.22-2.41-.59-.62-1.36-1.02-1.73-1.73s-.95-1.47-1.05-2.31Z" style="fill:#473513;"/><path d="M107.73,141.23c-.19-1.11-.74-2.04-.32-2.53,.46-.55,1.54-.65,2.55-.65,.72,0,1.52,.35,2.42,.53,.75,.15,1.53,.44,2.36,.68,.77,.21,1.54,.51,2.35,.76s1.78-.16,2.57,.08c.8,.25,1.53,.7,2.3,.91,.84,.23,1.62,.5,2.38,.65,.9,.17,1.71-.06,2.44-.06,.99,0,1.66,.06,2.17-.43s1.27-.93,2.05-1.4c.65-.39,1.28-1.01,2.07-1.39,.71-.34,1.54-.55,2.32-.87s1.55-.52,2.33-.8,1.54-.58,2.32-.82,1.54-.68,2.31-.9c.82-.23,1.64-.39,2.4-.57,.85-.21,1.81,.26,2.54,.11,.93-.2,1.69-.6,2.35-.69,1.03-.14,.76,.25,.22,1.35-.28,.55-.59,1.23-1.16,1.97-.43,.57-.51,1.53-1.07,2.16-.49,.56-1.25,.94-1.82,1.53-.54,.55-.87,1.35-1.45,1.89s-1.15,1.09-1.74,1.61-1.42,.79-2.02,1.27c-.64,.5-1.16,1.13-1.78,1.56-.69,.48-1.28,1.08-1.91,1.44-.77,.43-1.65,.55-2.29,.74s-1.38,.55-2.25,.83c-.71,.23-1.52,.33-2.34,.58-.74,.22-1.47,.63-2.27,.84-.76,.19-1.67-.18-2.47-.03s-1.55,.33-2.35,.42-1.58,.2-2.38,.22-1.65,.6-2.44,.53-1.61-.45-2.37-.66-1.68-.28-2.39-.64-1-1.4-1.62-1.93c-.59-.5-1.43-.78-1.93-1.45-.45-.61-.62-1.44-.98-2.21-.32-.68-.46-1.45-.7-2.27-.21-.73-.24-1.5-.38-2.34Z" style="fill:#473513;"/><path d="M120.94,180.04c-.52-.48-1.35-1-1.52-1.88-.14-.69,.17-1.57,.23-2.43,.05-.74,.29-1.5,.48-2.31,.17-.74,.16-1.57,.44-2.34,.26-.72,.93-1.3,1.28-2.02s.25-1.66,.67-2.34,.73-1.46,1.22-2.09,1.68-.63,2.23-1.19,1-1.2,1.63-1.67,.99-1.44,1.69-1.8,1.61-.35,2.37-.57c.81-.23,1.66-.33,2.5-.42s1.68-.59,2.53-.57,1.68,.44,2.52,.53,1.6,.69,2.43,.83,1.68,.16,2.5,.33,1.69,.22,2.5,.38,1.63,.62,2.44,.76c.86,.14,1.72,.35,2.53,.41,.87,.07,1.73-.8,2.53-.86,.87-.06,1.58-.26,2.35-.52s1.39-.6,2.07-1.14c.64-.51,1.42-.97,2.1-1.27,.74-.32,1.69-.04,2.44-.15,.79-.11,1.62-.57,2.38-.48,.8,.1,1.63,.4,2.33,.7,.75,.31,1.21,1.12,1.78,1.61,.62,.53,1.41,.94,1.73,1.62s.76,1.63,.68,2.43c-.08,.71-1.03,1.25-1.51,1.98-.41,.62-.94,1.08-1.57,1.62-.56,.49-1.01,1.14-1.71,1.57-.64,.39-1.24,.94-1.97,1.29s-1.55,.33-2.28,.62-1.47,.5-2.21,.75-1.56,.25-2.3,.47-1.36,1.02-2.1,1.21c-.79,.21-1.65,0-2.37,.18-.83,.2-1.49,.79-2.18,.96-.93,.22-1.68,.49-2.23,.66-.7,.21-1.39-.45-2.19-.75-.66-.25-1.62-.05-2.32-.47-.65-.39-1.27-.89-1.93-1.29-.7-.41-1.16-1.29-1.84-1.54-.79-.3-1.69-.1-2.4,.08-.65,.16-1.31,.57-1.86,1.34-.41,.58-.75,1.32-1.24,2.02-.43,.62-.88,1.28-1.37,1.93s-.93,1.28-1.44,1.88-1.17,1.09-1.74,1.61-1.06,1.27-1.71,1.68c-.69,.44-1.58,.37-2.32,.57-.75,.21-1.43,.17-2.24,.06-.72-.1-1.47-.09-2.23-.5-.62-.34-1.18-.87-1.83-1.46Z" style="fill:#473513;"/><path d="M153.5,187.6c.55,.02,1.1-.19,1.62-.18s1.09,.27,1.61,.28,1.1-.57,1.62-.57,1.09,.36,1.61,.36c.55,0,1.09-.09,1.61-.09,.55,0,1.08-.81,1.6-.82,.55,0,1.09,.18,1.61,.16,.55-.01,1.1,.48,1.62,.46,.56-.02,1.11,.34,1.63,.32,.56-.02,1.07-.69,1.59-.71,.56-.02,1.08-.24,1.6-.26,.56-.02,1.12,.67,1.64,.65,.57-.02,1.08-.94,1.59-.95,.57-.01,1.11,.67,1.61,.68,.57,0,1.12-.33,1.62-.29,.56,.05,1.12,.04,1.62,.13,.38,.07,.88-.14,1.54-.13,.47,0,.99,.33,1.58,.31,.49-.02,1.03,.05,1.59,.02,.51-.03,.99-.68,1.54-.72,.51-.04,1.12,.97,1.66,.93s1.05,0,1.59-.05,1.07,.15,1.6,.11,1-.86,1.53-.9,1.03-.5,1.56-.53,1.12,.91,1.65,.89,1.06,.03,1.59,0,1.05-.6,1.57-.61,1.07-.5,1.59-.5c.55,0,1.07,.86,1.59,.87,.55,.01,1.06,.19,1.56,.23,.56,.04,1.12-.38,1.61-.31,.57,.08,.94,.75,1.4,.88,.6,.16,1.32-.39,1.7-.14,.52,.33,1.16,.86,1.16,1.39,0,.63,.07,1.14,.09,1.62,.03,.65-.1,1.2-.09,1.67,.01,.6,.33,1.35,.14,1.87-.16,.44-1.28,.48-1.7,1.01-.28,.36-.32,1.04-.76,1.5-.34,.35-.65,.82-1.09,1.25-.36,.35-.67,.83-1.12,1.24-.37,.34-.73,.78-1.14,1.09s-.82,.67-1.25,.95-1.35-.25-1.79,0-.93,.34-1.4,.55-.99,.17-1.47,.35-.89,.4-1.38,.55-.95,.24-1.45,.36-.8,1.05-1.31,1.14-1.02,.11-1.53,.17-1.04-.28-1.55-.24-1-.14-1.51-.13-1,.05-1.51,.02-1.07,.6-1.58,.55-1.09,.18-1.59,.09-.86-.94-1.36-1.05-.96-.32-1.44-.47c-.51-.16-.94-.55-1.45-.72s-1.15,.07-1.66-.1-.97-.48-1.48-.65-.99-.43-1.49-.6-.92-.64-1.42-.81-1.22,.27-1.73,.1-1.17,.17-1.68,0-.67-1.46-1.18-1.61-1.04-.32-1.55-.46-1.2,.35-1.72,.23-.92-.87-1.44-.97-1.27,1.1-1.8,1.02-.94-.97-1.47-1.03-1.06-.38-1.59-.4c-.49-.02-1.03-.05-1.6-.06-.51-.01-1.05,.85-1.6,.85-.51,0-1.04-.84-1.58-.84s-1.06,.79-1.6,.78-1.04-1.09-1.58-1.1-1.07,.51-1.6,.5-1.08,.26-1.61,.24-1.04-.53-1.57-.56-1.15,.94-1.66,.9-1.07-.33-1.58-.39c-.55-.07-1.03-.54-1.53-.63-.55-.1-1.22,.32-1.7,.19-.56-.15-1.16-.34-1.6-.54-.55-.25-.47-1.33-.78-1.68-.37-.41-.17-.58-.11-1.15s-.1-.98,.09-1.46,.54-.72,.89-1.13c.33-.39-.09-1.68,.38-1.99,.41-.27,1.33,.23,1.86,.01,.46-.19,.86-.64,1.4-.79,.48-.13,.96-.52,1.51-.62,.5-.09,1.13,.52,1.68,.45,.51-.06,1.04,.21,1.59,.18,.51-.04,1.01-.32,1.56-.34,.51-.02,1.03-.55,1.58-.55,.52,0,1.05-.06,1.6-.05,.52,0,1.03,.79,1.58,.81Z" style="fill:#473513;"/></g></g></g><g><path d="M65.53,47.85c4.91-5.38,8.65-8.17,13.84-9.56-5.54-5.28-22.46-20.96-25.16-18.3-1.66,1.63-2.24,18.58,1,26,1.79,4.1,4.18,7.8,5.88,10.19,.91-3.16,2.38-6.07,4.44-8.33Z" style="fill:#473513;"/><path d="M135.29,19.99c-2.81-2.76-20.92,14.23-25.74,18.85,5.04,1.64,8.98,4.49,14.36,9.02,2.46,2.06,4.07,4.7,5.08,7.5,1.64-2.38,3.71-5.71,5.3-9.37,3.24-7.42,2.66-24.37,1-26Z" style="fill:#473513;"/></g><g><path d="M196.63,181.27s-.03,0-.05,0c-1.05-.03-1.88-.9-1.85-1.94,0-.09,.06-4.84-2.27-12.04-2.16-6.67-6.87-16.86-17.07-27.54-12.68-13.28-21.07-18.29-29.95-23.59-3.07-1.83-6.24-3.72-9.64-5.99-10.12-6.75-16.06-19.22-13.8-29.01,.78-3.38,2.22-5.74,3.48-7.82,1.37-2.25,2.55-4.19,3-7.26,.56-3.82,.04-7.91-.49-10.67-.2-1.03,.48-2.03,1.51-2.23,1.03-.2,2.03,.48,2.23,1.51,.59,3.05,1.15,7.59,.52,11.94-.56,3.83-2.06,6.29-3.52,8.68-1.23,2.01-2.38,3.91-3.02,6.69-1.89,8.19,3.47,19.17,12.2,24.99,3.32,2.22,6.45,4.08,9.48,5.89,9.11,5.44,17.71,10.57,30.75,24.23,20.67,21.65,20.41,41.46,20.39,42.3-.03,1.03-.87,1.85-1.9,1.85Z"/><path d="M109.68,41.27c-.3,0-.61-.07-.89-.22-.03-.02-4.26-2.13-13.6-2.13s-14.35,2.16-14.39,2.18c-.96,.43-2.08,0-2.51-.94-.43-.95-.02-2.07,.93-2.51,.22-.1,5.62-2.53,15.97-2.53s15.18,2.47,15.38,2.58c.93,.49,1.28,1.64,.79,2.57-.34,.64-1,1.01-1.68,1.01Z"/><path d="M131.77,52.39c-.36,0-.73-.1-1.05-.32-.87-.58-1.11-1.76-.53-2.63,1.91-2.87,3.33-5.31,4.22-7.24,2.9-6.3,1.7-18.75,.21-21.22-2.06,.68-8.61,4.52-13.93,9.08-2.5,2.15-5.47,5.49-6.85,7.21-.66,.82-1.85,.95-2.67,.29-.82-.66-.95-1.85-.29-2.67,1.47-1.83,4.63-5.4,7.34-7.72,4.44-3.81,14.28-10.63,17.27-10.05,1.03,.19,1.88,.93,2.53,2.2,2.21,4.28,2.95,17.72-.16,24.46-.98,2.11-2.49,4.72-4.51,7.76-.37,.55-.97,.85-1.58,.85Zm3.26-31.52"/><path d="M57.65,52.39c-.62,0-1.22-.3-1.58-.85-2.01-3.03-3.53-5.64-4.51-7.76-3.11-6.74-2.37-20.18-.16-24.46,.65-1.27,1.5-2.01,2.53-2.2,.58-.11,1.93-.36,7.58,3.07,3.37,2.04,6.9,4.59,9.69,6.99,2.7,2.31,5.87,5.88,7.34,7.72,.66,.82,.52,2.01-.29,2.67-.82,.66-2.02,.52-2.67-.29-1.38-1.72-4.34-5.06-6.85-7.21-5.33-4.57-11.87-8.41-13.93-9.08-1.49,2.47-2.69,14.92,.21,21.22,.9,1.94,2.32,4.38,4.22,7.24,.58,.87,.34,2.05-.53,2.63-.32,.21-.69,.32-1.05,.32Zm-3.26-31.52h0Z"/><path d="M76.36,95.98c-.11,0-.22,0-.33-.03-1.03-.18-1.72-1.15-1.55-2.18,.02-.14,.35-2.57-1.43-5.23-.49-.73-1.66-1.83-3.01-3.1-4.23-3.98-10.63-9.99-11.92-18.81-.64-4.35-.07-8.89,.52-11.94,.2-1.03,1.19-1.7,2.23-1.51,1.03,.2,1.71,1.19,1.51,2.23-.53,2.76-1.05,6.85-.49,10.67,1.1,7.51,6.91,12.98,10.76,16.59,1.59,1.49,2.84,2.67,3.57,3.76,2.67,3.99,2.04,7.81,2.02,7.97-.16,.92-.96,1.58-1.87,1.58Z"/><path d="M104.63,250.54c-1.01,0-1.85-.8-1.9-1.82-.01-.33-1.37-32.84-2.49-41.48-1.41-10.87-3.48-17.03-4.37-19.66l-.17-.52-4.21-7.09c-.54-.9-.24-2.07,.66-2.6,.9-.54,2.07-.24,2.6,.66l4.31,7.26c.07,.12,.13,.25,.17,.38l.23,.7c.92,2.74,3.07,9.14,4.53,20.38,1.14,8.81,2.46,40.47,2.52,41.82,.04,1.05-.77,1.93-1.82,1.98-.03,0-.05,0-.08,0Z"/><path d="M116.44,262.93c-1.83,0-3.5-.21-4.53-.37-3.64-.58-6.53-2.08-7.92-4.14-.84-1.24-1.12-2.63-.81-4.03,.23-1.02,1.25-1.67,2.27-1.44,1.02,.23,1.67,1.25,1.44,2.27-.05,.22-.08,.58,.25,1.06,.61,.9,2.34,2.04,5.37,2.52,4.04,.64,7.59,.33,9.05-.79,.43-.33,.64-.7,.69-1.22,.28-2.77-1.16-4.64-2.69-6.61-.91-1.18-1.78-2.29-2.22-3.59-1.38-4.08,10.84-56.68,10.98-57.16,.3-1,1.36-1.58,2.37-1.27,1,.3,1.58,1.36,1.27,2.37-1.65,5.5-11.32,50.75-10.98,54.94,.26,.67,.9,1.5,1.58,2.38,1.65,2.13,3.91,5.04,3.47,9.33-.16,1.55-.9,2.88-2.15,3.84-1.95,1.5-4.85,1.9-7.43,1.9Zm4.54-17.38h0Z"/><path d="M93.98,262.34c-6.06,0-9.86-3.4-9.92-8.9-.04-3.75,2.5-5.28,4.36-6.39,1.9-1.14,2.81-1.77,2.81-3.7,0-6.17-2.75-27.3-4.9-33.68-.35-1.05-.87-2.48-1.5-4.22-3.35-9.25-10.32-28.51-12.58-46.21-2.73-21.4-1.49-28.72,.24-38.87,.25-1.48,.51-3.02,.77-4.67,.74-4.68,1.2-15.58,1.2-15.69,.04-1.05,.93-1.87,1.98-1.82,1.05,.04,1.86,.93,1.82,1.98-.02,.46-.48,11.23-1.25,16.12-.26,1.67-.53,3.22-.78,4.71-1.67,9.82-2.87,16.91-.21,37.75,2.21,17.28,9.08,36.27,12.39,45.4,.64,1.78,1.17,3.23,1.53,4.3,2.43,7.2,5.1,29,5.1,34.9,0,4.17-2.69,5.78-4.66,6.96-1.87,1.13-2.53,1.65-2.51,3.09,.04,3.41,2.09,5.14,6.11,5.14h.07c4.74-.02,6.68-1.79,6.76-1.86,.76-.71,1.95-.69,2.67,.05,.72,.74,.73,1.91,0,2.65-.3,.3-3.08,2.93-9.42,2.97h-.08Z"/><path d="M161.04,258.07c-1.72,0-3.22-.04-4.77-.08-1.6-.04-3.23-.07-5.17-.08h-.07c-4.32,0-12.02-.24-15.6-1.86-2.66-1.2-5.62-3.81-4.6-9.42,1.21-6.65,22.2-8.9,31.17-9.55,1.03-.07,1.96,.71,2.03,1.76,.08,1.05-.71,1.96-1.76,2.03-14.08,1.03-27.29,4.1-27.71,6.44-.5,2.75,.2,4.27,2.42,5.27,2.5,1.12,8.88,1.52,14.05,1.52h.16c1.94,0,3.57,.04,5.17,.08,3.08,.07,5.99,.15,10.82-.08,6.37-.3,21.3-10.97,27.68-23.55,6.02-11.88,2.01-37.83,1.96-38.09-.16-1.04,.54-2.01,1.58-2.17,1.05-.16,2.01,.54,2.17,1.58,.18,1.11,4.25,27.43-2.33,40.41-5.54,10.92-21.19,25.18-30.89,25.63-2.53,.12-4.54,.16-6.32,.16Z"/></g></svg>