<?xml version="1.0" encoding="UTF-8"?><svg id="pattern_1" xmlns="http://www.w3.org/2000/svg" xmlns:xlink="http://www.w3.org/1999/xlink" viewBox="0 0 280 280"><defs><clipPath id="clippath"><path d="m206.61,219.3s17.29-14.45,24.5-67.73c5.16-38.13,9.96-84.06-5.07-84.06-13.02,0-8.12,29.03-12.93,65.06-4,30-14,51-14,51,0,0-4.27,32.9,7.5,35.73Z" fill="none"/></clipPath><clipPath id="clippath-1"><path d="m206.55,218.13s17.29-14.45,24.5-67.73c5.16-38.13,9.96-84.06-5.07-84.06-13.02,0-8.12,29.03-12.93,65.06-4,30-14,51-14,51,0,0-4.27,32.9,7.5,35.73Z" fill="none"/></clipPath><clipPath id="clippath-2"><path d="m191.39,158.81c-14.06-27.9-44.34-35.4-44.34-35.4h0c-7.81-3.49-20.58-9.17-20.58-9.17,0,0-20.39,8.22-35.42,11.27-15.03,3.04-30.19,1.94-36.71,5.82,0,0-5.15,26.04-2.12,39.57,3.03,13.54,9.44,31.23,18.23,46.06,8.03,13.55,2.49,28.5,2.49,28.5,0,0-3.84,5.58-1.79,10.48,2.05,4.9,5.86,5.62,11.67,4.7,5.24-.83,5.33-3.13,11.14-3.13s6.67,4.1,17.43,2.56c7.68-1.1,10.77-5.13,10.9-10.34.03-1.08-.79-3.61-1.57-5.78,0,0,0,0,0,0,0,0,3.48-.55,7.03,4.54.91,1.31-1.03,4.92,1.58,7.72,2.6,2.8,1.5,3.92,8.32,3.63,6.81-.29,28.11,3.54,34.57.07,6.46-3.47,27.62-14.98,31.46-34.97,4.42-22.99,4.1-33.59-12.31-66.15Z" fill="#cd833b"/></clipPath><clipPath id="clippath-3"><path d="m82.68,56.25c-9.85,0-17.69,0-28.46,9.74-12.05,10.9-12.18,21.23-12.05,31.02.13,9.8,8.46,22.05,10.04,24.69,1.58,2.64,1.49,12.74,1.49,12.74,0,0,13.59,1.03,38.72-2.82,20.46-3.13,31.73-11.97,36.53-14.66.51-.29.47-1.04-.08-1.26-1.28-.52-4.67-2.43-5.18-6.13-.77-5.64.9-6.36,1.03-16.15.13-9.8-.77-16.79-12.82-27.69-10.77-9.74-18.65-9.49-28.49-9.49h-.73Z" fill="none"/></clipPath></defs><path d="m206.61,219.3s17.29-14.45,24.5-67.73c5.16-38.13,9.96-84.06-5.07-84.06-13.02,0-8.12,29.03-12.93,65.06-4,30-14,51-14,51,0,0-4.27,32.9,7.5,35.73Z" fill="#cd833b"/><g clip-path="url(#clippath)"><g clip-path="url(#clippath-1)"><path d="m238.34,99.06s-3.7-6.51-12.01-7.2c-5.82-.49-12.92,3.46-12.92,3.46,0,0,.41-9.85,0-18.7-.53-11.41,0-23.69,12.92-23.36,7.23.18,11.3,9.63,12.01,20.87.71,11.24,0,24.93,0,24.93Z" fill="#473513"/><path d="m220.52,186.13s-5.06-3.17-7.06-6.17-8-7-4-11,7.06,4.17,10.06,3.17,6.94-7.17,8.94-5.17,1,8,1,15-2.94,6.17-8.94,4.17Z" fill="#473513"/><path d="m203.52,159.13c-4-4,.94-8.17,5.94-9.17,1.39-.28,5,3,7,4s11,0,10,3-7,1-10,4-8.94,2.17-12.94-1.83Z" fill="#473513"/><path d="m218.46,118.96c2.19.44,5,5,9,5s6,1,8,4-8,0-10,1-8,2-11-1c-2.12-2.12-1-10,4-9Z" fill="#473513"/><path d="m204.52,176.13c1.18,1.9,3.26,8.08,6,11s8,12,5,17c-1.86,3.09-7.9-1.22-10-2s-8.14-10.76-8-15c.1-3,4.31-15.33,7-11Z" fill="#473513"/><path d="m236.52,134.13c5,2,2.6,9.72.94,10.83-3,2-12,2-15,2s-8-3-6-7,7.06-1.83,10.06-2.83,5-5,10-3Z" fill="#473513"/><path d="m236.52,103.13c5,2,2.6,9.72.94,10.83-3,2-12,2-15,2s-8-3-6-7,7.06-1.83,10.06-2.83,5-5,10-3Z" fill="#473513"/></g></g><path d="m234.98,81.67c.67,5.74.04,10.32,0,12.76-.17,10.43-.28,33.75-3.86,55.13-3.72,22.16-10.97,42.37-14.53,50.96-3.78,9.13-6.54,13.16-9.6,16.15" fill="none" stroke="#000" stroke-linecap="round" stroke-linejoin="round" stroke-width="3.8"/><path d="m202.11,176.57c4.63-10.19,8-26,12-49,5.8-33.33-1.8-57,9.77-59.9,4.31-1.08,8.74,3.39,9.61,7.74" fill="none" stroke="#000" stroke-linecap="round" stroke-linejoin="round" stroke-width="3.8"/><path d="m82.68,56.25c-9.85,0-17.69,0-28.46,9.74-12.05,10.9-12.18,21.23-12.05,31.02.13,9.8,8.46,22.05,10.04,24.69,1.58,2.64,2.02,13.23,2.02,13.23,0,0,13.06.54,38.19-3.3,20.46-3.13,31.73-11.97,36.53-14.66.51-.29.47-1.04-.08-1.26-1.28-.52-4.67-2.43-5.18-6.13-.77-5.64.9-6.36,1.03-16.15.13-9.8-.77-16.79-12.82-27.69-10.77-9.74-18.65-9.49-28.49-9.49h-.73Z" fill="#cd833b"/><path d="m191.39,158.81c-14.06-27.9-44.34-35.4-44.34-35.4h0c-7.81-3.49-20.58-9.17-20.58-9.17,0,0-20.39,8.22-35.42,11.27-15.03,3.04-30.19,1.94-36.71,5.82,0,0-5.15,26.04-2.12,39.57,3.03,13.54,9.44,31.23,18.23,46.06,8.03,13.55,2.49,28.5,2.49,28.5,0,0-3.84,5.58-1.79,10.48,2.05,4.9,5.86,5.62,11.67,4.7,5.24-.83,5.33-3.13,11.14-3.13s6.67,4.1,17.43,2.56c7.68-1.1,10.77-5.13,10.9-10.34.03-1.08-.79-3.61-1.57-5.78,0,0,0,0,0,0,0,0,3.48-.55,7.03,4.54.91,1.31-1.03,4.92,1.58,7.72,2.6,2.8,1.5,3.92,8.32,3.63,6.81-.29,26.11,3.54,32.57.07,6.46-3.47,29.62-14.98,33.46-34.97,4.42-22.99,4.1-33.59-12.31-66.15Z" fill="#cd833b"/><path d="m191.39,158.81c-14.06-27.9-44.34-35.4-44.34-35.4h0c-7.81-3.49-20.58-9.17-20.58-9.17,0,0-20.39,8.22-35.42,11.27-15.03,3.04-30.19,1.94-36.71,5.82,0,0-5.15,26.04-2.12,39.57,3.03,13.54,9.44,31.23,18.23,46.06,8.03,13.55,2.49,28.5,2.49,28.5,0,0-3.84,5.58-1.79,10.48,2.05,4.9,5.86,5.62,11.67,4.7,5.24-.83,5.33-3.13,11.14-3.13s6.67,4.1,17.43,2.56c7.68-1.1,10.77-5.13,10.9-10.34.03-1.08-.79-3.61-1.57-5.78,0,0,0,0,0,0,0,0,3.48-.55,7.03,4.54.91,1.31-1.03,4.92,1.58,7.72,2.6,2.8,1.5,3.92,8.32,3.63,6.81-.29,28.11,3.54,34.57.07,6.46-3.47,27.62-14.98,31.46-34.97,4.42-22.99,4.1-33.59-12.31-66.15Z" fill="#cd833b"/><g clip-path="url(#clippath-2)"><path d="m149.35,177.89c-2.57-2.05-1.95-7.5.95-11.13,4.58-5.75,9.55-6.02,13.9-3.78,3.51,1.81,3.36,9.47-1.79,13.43-5.14,3.96-9.43,4.37-13.06,1.48Z" fill="#a35519"/><path d="m156.99,208.47c-4.18-2.3-3.85-13.17,3.03-15,6.89-1.83,13.54-5.72,16.34-1.85,2.8,3.87,6.07,11.87,1.52,13.44-4.55,1.56-14.59,6.88-20.89,3.41Z" fill="#a35519"/><path d="m186.17,181.3c-3.49,2.27-10.57-.9-10.92-4-.35-3.1,2.4-6.55,6.65-5.99,4.25.57,4.6,3.67,4.84,5.73.23,2.07,1.38,2.98-.57,4.25Z" fill="#a35519"/><path d="m177.72,133.41c2.42,5.62-3.94,15.1-8.52,14.83s-8.9-5.11-7.02-11.13,6.46-5.76,9.52-5.58c3.05.18,4.67-1.26,6.02,1.88Z" fill="#a35519"/><path d="m195.16,223.81c-5.7-.04-11.41-9.01-9.47-12.82s7.69-5.68,12.13-1.82c4.43,3.86,2.49,7.67,1.2,10.21-1.29,2.54-.67,4.46-3.86,4.43Z" fill="#a35519"/><path d="m211.23,167.68c-4.19,2.77-12.75-.98-13.21-4.72s2.83-7.92,7.96-7.28c5.13.64,5.58,4.38,5.88,6.87.3,2.49,1.7,3.59-.64,5.13Z" fill="#473513"/><path d="m156.2,199.3c-1.25.14-1.67-3.6,4-9.29,3.96-3.97,16.89-6.96,21.19-2.4,4.3,4.56,3.08,16.06-4.12,19.4-5.8,2.69-13.29,5.29-16.2,1.83-.81-.96,7.76-2.45,10.79-5.01,3.46-2.92,7.33-7.49,3.72-11.78-2.92-3.46-7.76-1.65-12.46,1.41-2.97,1.93-5.67,5.69-6.91,5.83Z" fill="#473513"/><path d="m153.99,202.08c3.74-.42.45,2.62,1.67,3.6,2.07,1.65,4.82.71,4.02,2.07-2.13,3.63-6.25,2.74-7.48.85-1.53-2.35-1.12-6.19,1.79-6.51Z" fill="#473513"/><path d="m140.7,186.83c-4.12-1.88-4.44-5.81-.71-6.23,3.74-.42,5.81-4.44,7.34-2.09s.02,11.36-6.63,8.32Z" fill="#473513"/><path d="m158.06,134.4c2.34-5.61,6.88-6.34,13.03-3.57,10.36,4.66,8.32,13.23,6.87,16.92-1.37,3.5-5.83,4.73-6.31-.57-.34-3.75,4.19-9.87-1.97-12.64-9.22-4.15-4.08,7.36-6.69,9.76-3.92,3.6-7.36-4.08-4.93-9.9Z" fill="#473513"/><path d="m173.41,222.77c3.75.32,8.18,5.39,3.2,5.95-4.99.56-7.9-2.89-17.73-.52-3.86.93-18.13,7.1-16.06,3.08s6.77-7.08,13.01-7.78,11.22-1.27,17.59-.73Z" fill="#473513"/><path d="m175.31,240.41c3.58-1.15,6.77-7.08,1.79-6.51-4.99.56-7.62-.4-17.73-.52-3.97-.05-18.7,2.12-15.78,5.57s7.62.4,13.85-.3c6.23-.71,11.78,3.72,17.87,1.76Z" fill="#473513"/><path d="m183.35,218.95c-2.17-2.43-1.13-9.97,2.69-7.88,3.82,2.09,1.31,3.64,1.59,6.13.28,2.49-1.2,5.19-4.28,1.75Z" fill="#473513"/><path d="m184.37,243.89c1.25-.14,12.18-3.9,11.64,2.47s-13.01,7.78-17.03,5.71-4.59-7.06,5.39-8.18Z" fill="#473513"/><path d="m160.32,262.98c2.35-1.53,9.01,1.51,13.99.94,4.99-.56,13.03,3.58,9.57,6.49-3.46,2.92-22.86-1.2-22.86-1.2,0,0-5.41-3.18-.71-6.23Z" fill="#473513"/><path d="m189.79,208.97c.31,4.51,6,.65,7.51,4.32,1.97,4.78.6,7.33-1.49,8.11-2.65.99-3.71-2.77-5.46-2.48-3.56.58-1.26,3.34-1.18,4.59.09,1.25,3.87,5.53,7.77,3.24,7.25-4.27,7.29-11.42,5.23-15.45-4.35-8.5-12.72-7.34-12.37-2.33Z" fill="#473513"/><path d="m209.21,193.07c-1.93-2.97-3.48-8.44-2.52-11.08s7.2-3.34,7.48-.85c.13,1.19-2.7,1.66-3.32,4.16-.68,2.75.85,7.48.85,7.48,0,0-.96,2.63-2.49.28Z" fill="#473513"/><path d="m218.43,184.55c1.36,3.28,2.47,7.47,1.04,9.88s-5.86,4.87-5.69,2.36c.09-1.19,2.28-3.13,2.77-5.82.54-2.94-.63-6.6-.63-6.6,0,0,1.43-2.41,2.5.18Z" fill="#473513"/><path d="m144.24,122.97c6.01-2.54,15.1-2.52,13.17,2.74-1.93,5.27-7.74,9.71-11.48,10.13-3.74.42,1.93-5.27,1.65-7.76-.28-2.49-5.98-4-3.34-5.12Z" fill="#473513"/><path d="m148.48,147.49c-2.27-1.65-11.42,4.87-13.76,10.69-2.34,5.82-1.17,6.29-6.31,12.34-5.13,6.05-9.32,3.01-7.93,6.28,1.39,3.26,13.75-3.94,14.68-6.27.94-2.33,3.05-10.94,7.94-13.03,4.89-2.09,9.56-6.97,5.37-10.01Z" fill="#473513"/><path d="m134.43,117.49c-4.71,1.72-6.27,10.65-9.04,12.86-2.78,2.21-6.22,6.45-9,8.65-1.96,1.56-10.44,6.8-14.32,7.62-3.88.82-1.35,4.6,2.53,3.78,3.88-.82,10.29-2.35,14.46-5.66,4.17-3.31,11.77-8.95,14.69-12.4,2.92-3.45,10.29-9.9,9.27-12.6-1.02-2.7-5.95-3.2-8.58-2.24Z" fill="#473513"/><path d="m36.64,135.84c4.68.62,7.98,8.98,11,10.51,3.01,1.53,8.31,6.2,11.32,7.73,2.13,1.08,9.75,3,13.49,2.93,3.73-.07,2.29,3.13-1.44,3.2-3.73.07-13.37,7-17.89,4.71-4.52-2.3-9.43-5.78-12.83-8.49-3.4-2.71-11.42-13.62-11.05-16.47.37-2.86,4.78-4.45,7.4-4.1Z" fill="#473513"/><path d="m94.78,184.82c3.4,2.05,20.93-4.07,21.67-6.47.74-2.4-11.16-2.11-14.29-.45-3.13,1.66-11.8,4.25-7.37,6.92Z" fill="#473513"/><path d="m55.49,127.21s1.42,13.31,5.41,14.18c3.99.87,15.45-1.96,20.87-3.86,5.86-2.05,18.13-.83,21.83-2.62s13.44-11.06,15.72-14.03c2.28-2.97,6.56-11.58,9.41-9.22,2.85,2.35,3.41,7.68-2.57,12.45-5.98,4.77-14.37,14.95-21.85,17.46-6.27,2.1-16.11-.76-20.91-.18-4.53.55-17.66,8.87-23.07,6.82-5.41-2.05-8.4-5.73-9.11-12.39-.71-6.66,2.85-9.78,4.28-8.61Z" fill="#473513"/><path d="m43.93,166.79c-1.05,2.65,9.1,10.27,15.68,9.48,6.59-.79,8.96-3.6,15.54-4.39,6.59-.79,23.06,3.54,30.56-1.15,7.51-4.69,22.91-22.95,21.32-25.29-1.58-2.33-20.67,18.9-27.26,19.69-6.59.79-18.71-.28-27.93.83-7.9.95-8.96,3.6-14.23,4.24s-12.65-6.05-13.7-3.4Z" fill="#473513"/><path d="m100.92,197.75c3.88-1.55,9.89-6.21,13.76-7.76s10.47,3.68,14.35,2.13c4-1.6,6.2-6.98,7.37-4.07,1.16,2.91-2.71,10.08-6.01,10.28s-7.25-3.94-13.06-1.62-11.12,4.41-14.85,4.92c-4.26.58-6.4-1.94-1.55-3.88Z" fill="#473513"/><path d="m107.81,222.13c.4-3.36,4.28-2.54,10.66-1.99s16.49.66,18.55-3.36,8.44-3.48,12.32-2.66c3.88.82,4.3,4.56-.54,6.37s-14.39,6.68-19.38,7.24c-4.99.56-11.5-1.22-15.24-.8-3.74.42-6.78-1.44-6.38-4.8Z" fill="#473513"/><path d="m99.69,232.88c2.49-.28,0,0,6.23-.71s10.11.12,13.03,3.58c2.92,3.46-.96,2.63-5.95,3.2s-9.58,4.25-12.82,3.66-2.98-9.45-.49-9.73Z" fill="#473513"/><path d="m53.34,179.94c3.54-.53,11.63,9.73,17.36,7.78s11.22,4.96,7.7,5.39c-3.52.42-10.42,2.52-15.25,1.83-4.82-.68-12.79-8.56-12.79-8.56,0,0-5.11-5.24,2.98-6.44Z" fill="#473513"/><path d="m64.06,225.39c2.08-2.77,5.6-3.2,11.73-1.41,6.13,1.79,8.87,5.24,12.39,4.82,3.52-.42,11.3-.49,10.67,2.31s-5.32,3.36-10.01,3.93-18.9,1.01-21.64-2.45c-2.74-3.46-5.22-4.42-3.14-7.2Z" fill="#473513"/><path d="m134.83,251.31c3.84-3.23,8.16-5.97,13.15-6.54s14.42,4.68,9.71,7.74c-4.7,3.06-10.94,3.76-16.06,3.08-5.13-.68-10.25-1.36-6.8-4.28Z" fill="#473513"/><path d="m176,170.24c3.79-2.46,6.18-3.21,9.51-1.99,4.2,1.54,8.42,12.13,5.66,14.46-2.88,2.43-8.91,2.08-10.05.13-2-3.43,6.06-3.02,5.78-5.51-.28-2.49-1.94-4.99-5.03-5.65-2.74-.58-5.17,4.79-6.69,2.44,0,0-1.53-2.35.82-3.88Z" fill="#473513"/><path d="m212.03,284.9c-2.79.32-9.29-4-13.31-6.07s-18.84.87-20.37-1.48c-1.53-2.35,14.82-2.94,19.8-3.5,4.99-.56,10.11.12,14.42,4.68,4.3,4.56,6.94,5.53-.54,6.37Z" fill="#473513"/><path d="m91.73,212.1c.79,1.56-18.9,1.01-23.72.33-5.97-.84-9.34-5.36-6.4-7.03,2.94-1.67,6.67-1.78,9.72.51,3.05,2.29,7.9,1.75,10.49,2.34,3.65.82,8.34.73,9.91,3.86Z" fill="#473513"/><path d="m225.57,270.74s-6.51-1.79-9.01-1.51c-2.49.28-9.29-4-4.3-4.56,4.99-.56,6.37.54,10.11.12,3.74-.42,10.11-3.57,10.18-1.1.07,2.47-.75,6.35-6.98,7.05Z" fill="#473513"/><path d="m147.57,172.99c1.86,1.2-.05-1.44,4.53-6.27,3.24-3.41,6.7-5.69,9.75-3.13,3.21,2.69,1.72,6.4-.79,9.96-3.24,4.61-10.55,6.05-9.22,7.71,1.18,1.47,9.27,1.03,13.87-4.16,4.6-5.19,8.19-9.86,4.58-15.45-3.05-4.71-12-7.36-18.98-.42-5.78,5.74-6.01,10.31-3.75,11.77Z" fill="#473513"/></g><path d="m64.42,59.83s-15.33-14.6-19.69-12.04,2.5,27.14,2.5,27.14c0,0,3.3-4.79,9.04-9.19,4.96-3.81,8.15-5.91,8.15-5.91Z" fill="#cd833b"/><path d="m100.65,59.83s15.33-14.6,19.69-12.04c4.36,2.56-2.05,26.15-2.05,26.15,0,0-5.05-4.01-9.49-8.2-4.09-3.87-8.15-5.91-8.15-5.91Z" fill="#cd833b"/><path d="m82.2,56.44c-9.7,0-17.72,2-28.33,10.62-11.87,9.65-13.4,18.77-13.28,27.44s1.77,16.82,7.08,24.79c3.54,5.31,6.07,6.66,6.07,6.66,0,0,3.46,7.51,28.45,7.51,19.48,0,28.02-6.47,32.75-8.85.5-.25,13.28-6.13,13.28-28.33,0-15.05-2.29-18.68-14.16-28.33-10.61-8.62-31.87-11.51-31.87-11.51Z" fill="none"/><g clip-path="url(#clippath-3)"><path d="m80.32,78.58c-.99.1-3-4-5.01-8.47s-3.41-10.84-3-12.19c.93-3.13,3.96-.55,4.08.59s.93,6.07,1.93,10.07c.84,3.35,2.99,9.9,2,10Z" fill="#473513"/><path d="m87.5,78.58c.99.1,3-4,5.01-8.47,1.96-4.36,3.41-10.84,3-12.19-.93-3.13-3.96-.55-4.08.59s-.93,6.07-1.93,10.07c-.84,3.35-2.99,9.9-2,10Z" fill="#473513"/><path d="m83.82,76.91c.62,0,1.69-6.82,2.17-13.13.29-3.82.38-7.22,0-7.88-1-1.75-4.17-1.75-5,0-.31.65-.4,4.1,0,7.88.66,6.34,2.2,13.13,2.83,13.13Z" fill="#473513"/><path d="m60.08,91.21c0-1-5.36-1.76-8,0-3,2-9.8,7.2-8,9,3,3,5-3,9-6,3.05-2.28,7-2,7-3Z" fill="#473513"/><path d="m58.08,103.21c-1-1-3.69,1.34-6,2-4.43,1.27-6.82-.6-7.41,1.7s4.41,2.3,7.41,1.3,7-4,6-5Z" fill="#473513"/><path d="m105.78,91.21c0-1,5.36-1.76,8,0,3,2,9.8,7.2,8,9-3,3-5-3-9-6-3.05-2.28-7-2-7-3Z" fill="#473513"/><path d="m107.78,103.21c1-1,3.69,1.34,6,2,4.43,1.27,6.82-.6,7.41,1.7.59,2.3-4.41,2.3-7.41,1.3-3-1-7-4-6-5Z" fill="#473513"/><path d="m100.66,101.42c-.77-.32-.64-1.33.2-1.55s2.06-.73,3.62-1.68c2-1.23,3.19-2.73,3.9-4.06.44-.82,1.77-.6,1.75.29-.04,1.91-.77,4.2-3.4,5.93-2.66,1.75-4.69,1.64-6.08,1.07Z" fill="#473513"/><path d="m64.43,101.89c.8-.23.78-1.25-.03-1.56-.85-.32-1.97-.94-3.42-2.06-1.86-1.44-2.88-3.06-3.45-4.46-.35-.86-1.7-.78-1.77.1-.16,1.91.32,4.26,2.74,6.26s4.49,2.14,5.93,1.71Z" fill="#473513"/><path d="m68.62,77.74c.45.34.2.98-.39.98s-1.48.13-2.66.5c-1.52.48-2.55,1.26-3.24,2.02-.42.46-1.26.1-1.1-.48.35-1.25,1.2-2.63,3.22-3.33,2.04-.71,3.35-.3,4.17.31Z" fill="#473513"/><path d="m98.11,78.06c-.42.37-.12.99.47.95s1.48,0,2.69.27c1.55.34,2.65,1.03,3.4,1.73.46.43,1.27-.01,1.06-.58-.46-1.21-1.43-2.52-3.5-3.04s-3.37,0-4.13.67Z" fill="#473513"/><path d="m73.54,70.68c.74-.32,1.43.31,1.05.97s-.77,1.72-1.05,3.24c-.35,1.95.03,3.53.59,4.71.34.72-.69,1.46-1.35.97-1.43-1.07-2.72-2.77-2.35-5.4.37-2.66,1.77-3.91,3.1-4.49Z" fill="#473513"/><path d="m93.6,70.68c-.72-.34-1.44.26-1.1.94.36.71.7,1.74.91,3.27.27,1.96-.18,3.53-.79,4.69-.37.71.62,1.48,1.31,1.01,1.48-1.02,2.83-2.69,2.57-5.33-.26-2.67-1.6-3.96-2.91-4.58Z" fill="#473513"/></g><path d="m76.17,189.58s3,6.94,9.28,10.58c6.27,3.64,10.84,3.82,10.84,3.82" fill="none" stroke="#000" stroke-linecap="round" stroke-linejoin="round" stroke-width="3.8"/><path d="m45.32,70.35c0-2.73-4.49-21.84-1.48-23.19,3.01-1.36,16.17,6.23,18.52,9.25" fill="none" stroke="#000" stroke-linecap="round" stroke-linejoin="round" stroke-width="3.8"/><path d="m120.6,70.35c0-2.73,4.49-21.84,1.48-23.19-3.01-1.36-16.17,6.23-18.52,9.25" fill="none" stroke="#000" stroke-linecap="round" stroke-linejoin="round" stroke-width="3.8"/><path d="m65.19,59.8s5.62-3.64,15.64-3.64,19.14,3.64,19.14,3.64" fill="none" stroke="#000" stroke-linecap="round" stroke-linejoin="round" stroke-width="3.8"/><path d="m45.32,75.1s-3.28,8.2-3.28,18.17c0,13.92,6.15,21.57,9.49,27.21,3.21,5.43,2.79,8.42,2.79,8.42" fill="none" stroke="#000" stroke-linecap="round" stroke-linejoin="round" stroke-width="3.8"/><path d="m53.83,135.35s-4.97,25.78,0,44.36c5.9,22.05,15.22,32.88,17.95,40.25,2.73,7.37,2.47,15.15,2.47,21.7s-3.89,5-3.82,10.92c.07,5.86,4.91,7.64,9.64,7.62,6.83-.03,9.92-2.81,9.92-2.81" fill="none" stroke="#000" stroke-linecap="round" stroke-linejoin="round" stroke-width="3.8"/><path d="m122.3,212c-1.55,4.6-3.83,28.93-2.65,32.03,1.17,3.09,3.61,7.46.34,11.83-2.89,3.85-8.01,5.38-13.55,4.6-5.54-.78-9.28-3.32-8.54-6.24" fill="none" stroke="#000" stroke-linecap="round" stroke-linejoin="round" stroke-width="3.8"/><path d="m120.74,75.1s3.86,6.41,4.09,14.6c.22,7.7-3,14.47-1.77,18.47,4.1,13.33,27.84,11.84,46.66,26.66,28.97,22.82,30.77,48.97,30.77,48.97" fill="none" stroke="#000" stroke-linecap="round" stroke-linejoin="round" stroke-width="3.8"/><path d="m202.54,197.4s6.6,22.78-.77,36.15c-7.37,13.37-25.24,25.78-33.84,26.15-8.6.37-12.05,0-18.69,0-3.74,0-13.27-.17-17.21-1.8-3.43-1.42-4.84-3.88-4.06-7.81,1.24-6.29,12.01-7.32,12.01-7.32" fill="none" stroke="#000" stroke-linecap="round" stroke-linejoin="round" stroke-width="3.8"/><path d="m95.28,210.35s1.69,7.44,2.03,17.84c.34,10.4.11,19.46.11,19.46" fill="none" stroke="#000" stroke-linecap="round" stroke-linejoin="round" stroke-width="3.8"/></svg>