<?xml version="1.0" encoding="UTF-8"?><svg id="basic" xmlns="http://www.w3.org/2000/svg" viewBox="0 0 280 280"><path d="M226.04,68.48c-13.02,0-8.12,29.03-12.93,65.06-2.68,20.09-8.05,36.13-11.3,44.55-2.18-5.46-5.04-11.62-8.7-18.88-14.06-27.9-44.34-35.4-44.34-35.4h0c-7.79-3.47-20.48-9.12-20.57-9.16-1.25-1.02-2.48-2.55-2.77-4.67-.77-5.64,.9-6.36,1.03-16.15,.1-7.44,.36-13.15-4.79-20.24,1.32-7.41,3.73-23.44,.4-25.4-3.3-1.94-13.7,6.59-18.55,10.85-6.23-2.41-12.17-2.39-18.37-2.39h-.73c-6.6,0-12.75-.47-19.33,2.15-5.07-4.33-15.38-12.52-18.62-10.61-3.53,2.08-.35,19.95,.98,26.63-4.09,7.84-3.63,15.62-3.54,22.6,.13,9.8,8.46,22.05,10.04,24.69,1.58,2.64,1.49,12.74,1.49,12.74h.06c-1.25,7.32-3.95,25.77-1.56,36.46,3.03,13.54,9.44,31.23,18.23,46.06,8.03,13.55,2.49,28.5,2.49,28.5,0,0-3.84,5.58-1.79,10.48,2.05,4.9,5.86,5.62,11.67,4.7,5.24-.83,5.33-3.13,11.14-3.13s6.67,4.1,17.43,2.56c7.68-1.1,10.77-5.13,10.9-10.34,.03-1.08-.79-3.61-1.57-5.78h0s3.48-.55,7.03,4.55c.91,1.31-1.03,4.92,1.58,7.72,2.6,2.8,1.5,3.92,8.32,3.63,6.81-.29,26.11,2.54,32.57-.93,6.46-3.47,29.62-13.98,33.46-33.97,.35-1.8,.66-3.51,.94-5.17,.08,.02,.16,.06,.24,.08,0,0,17.29-14.45,24.5-67.73,5.16-38.13,9.96-84.06-5.07-84.06Z" style="fill:#d79a59;"/><g><path d="M234.98,83.9c.67,5.74,.04,10.32,0,12.76-.17,10.43-.28,33.75-3.86,55.13-3.72,22.16-10.97,42.37-14.53,50.96-3.78,9.13-6.54,13.16-9.6,16.15" style="fill:none; stroke:#000; stroke-linecap:round; stroke-linejoin:round; stroke-width:3.8px;"/><path d="M202.11,178.79c4.63-10.19,8-26,12-49,5.8-33.33-1.8-57,9.77-59.9,4.31-1.08,8.74,3.39,9.61,7.74" style="fill:none; stroke:#000; stroke-linecap:round; stroke-linejoin:round; stroke-width:3.8px;"/><path d="M77.9,189.98s3,6.94,9.28,10.58c6.27,3.64,10.84,3.82,10.84,3.82" style="fill:none; stroke:#000; stroke-linecap:round; stroke-linejoin:round; stroke-width:3.8px;"/><path d="M47.04,70.75c0-2.73-4.49-21.84-1.48-23.19,3.01-1.36,16.17,6.23,18.52,9.25" style="fill:none; stroke:#000; stroke-linecap:round; stroke-linejoin:round; stroke-width:3.8px;"/><path d="M122.33,70.75c0-2.73,4.49-21.84,1.48-23.19-3.01-1.36-16.17,6.23-18.52,9.25" style="fill:none; stroke:#000; stroke-linecap:round; stroke-linejoin:round; stroke-width:3.8px;"/><path d="M66.92,60.2s5.62-3.64,15.64-3.64,19.14,3.64,19.14,3.64" style="fill:none; stroke:#000; stroke-linecap:round; stroke-linejoin:round; stroke-width:3.8px;"/><path d="M47.04,75.5s-3.28,8.2-3.28,18.17c0,13.92,6.15,21.57,9.49,27.21,3.21,5.43,2.79,8.42,2.79,8.42" style="fill:none; stroke:#000; stroke-linecap:round; stroke-linejoin:round; stroke-width:3.8px;"/><path d="M55.56,135.75s-4.97,25.78,0,44.36c5.9,22.05,15.22,32.88,17.95,40.25,2.73,7.37,2.47,15.15,2.47,21.7s-3.89,5-3.82,10.92c.07,5.86,4.91,7.64,9.64,7.62,6.83-.03,9.92-2.81,9.92-2.81" style="fill:none; stroke:#000; stroke-linecap:round; stroke-linejoin:round; stroke-width:3.8px;"/><path d="M124.03,212.4c-1.55,4.6-3.83,28.93-2.65,32.03,1.17,3.09,3.61,7.46,.34,11.83-2.89,3.85-8.01,5.38-13.55,4.6-5.54-.78-9.28-3.32-8.54-6.24" style="fill:none; stroke:#000; stroke-linecap:round; stroke-linejoin:round; stroke-width:3.8px;"/><path d="M122.46,75.5s3.86,6.41,4.09,14.6c.22,7.7-3,14.47-1.77,18.47,4.1,13.33,27.84,11.84,46.66,26.66,28.97,22.82,30.77,48.97,30.77,48.97" style="fill:none; stroke:#000; stroke-linecap:round; stroke-linejoin:round; stroke-width:3.8px;"/><path d="M204.27,197.8s6.6,22.78-.77,36.15c-7.37,13.37-25.24,25.78-33.84,26.15-8.6,.37-12.05,0-18.69,0-3.74,0-13.27-.17-17.21-1.8-3.43-1.42-4.84-3.88-4.06-7.81,1.24-6.29,12.01-7.32,12.01-7.32" style="fill:none; stroke:#000; stroke-linecap:round; stroke-linejoin:round; stroke-width:3.8px;"/><path d="M97.01,210.75s1.69,7.44,2.03,17.84,.11,19.46,.11,19.46" style="fill:none; stroke:#000; stroke-linecap:round; stroke-linejoin:round; stroke-width:3.8px;"/></g></svg>