<?xml version="1.0" encoding="UTF-8"?><svg xmlns="http://www.w3.org/2000/svg" xmlns:xlink="http://www.w3.org/1999/xlink" viewBox="0 0 280 280"><defs><clipPath id="clippath"><path d="M206.61,221.52s17.29-14.45,24.5-67.73c5.16-38.13,9.96-84.06-5.07-84.06-13.02,0-8.12,29.03-12.93,65.06-4,30-14,51-14,51,0,0-4.27,32.9,7.5,35.73Z" style="fill:none;"/></clipPath><clipPath id="clippath-1"><path d="M193.12,159.21c-14.06-27.9-44.34-35.4-44.34-35.4h0c-7.79-3.47-20.48-9.12-20.57-9.16-1.25-1.02-2.48-2.55-2.77-4.67-.77-5.64,.9-6.36,1.03-16.15,.1-7.53-.42-13.41-6.13-20.68,1.23-4.8,5.51-22.74,1.74-24.96-3.67-2.16-15.1,7.84-18.64,11.06-6.17-2.71-11.8-2.6-18.29-2.6h-.73c-6.68,0-12.44,0-18.82,3.05-2.79-2.58-15.26-13.78-19.12-11.51-4.36,2.56,2.05,26.15,2.05,26.15,0,0,.85-.98,2.19-2.33-6.83,8.85-6.91,17.31-6.8,25.4,.13,9.8,8.46,22.05,10.04,24.69,1.58,2.64,1.49,12.74,1.49,12.74h.06c-1.25,7.32-3.95,25.77-1.56,36.46,3.03,13.54,9.44,31.23,18.23,46.06,8.03,13.55,2.49,28.5,2.49,28.5,0,0-3.84,5.58-1.79,10.48,2.05,4.9,5.86,5.62,11.67,4.7,5.24-.83,5.33-3.13,11.14-3.13s6.67,4.1,17.43,2.56c7.68-1.1,10.77-5.13,10.9-10.34,.03-1.08-.79-3.61-1.57-5.78h0s3.48-.55,7.03,4.55c.91,1.31-1.03,4.92,1.58,7.72,2.6,2.8,1.5,3.92,8.32,3.63,6.81-.29,27.27,3,33.73-.48,6.46-3.47,28.47-14.43,32.31-34.43,4.42-22.99,4.1-33.59-12.31-66.15Z" style="fill:none;"/></clipPath><clipPath id="clippath-2"><path d="M193.12,159.21c-14.06-27.9-44.34-35.4-44.34-35.4h0c-7.79-3.47-20.48-9.12-20.57-9.16-1.25-1.02-2.48-2.55-2.77-4.67-.77-5.64,.9-6.36,1.03-16.15,.1-7.53-.42-13.41-6.13-20.68,1.23-4.8,5.51-22.74,1.74-24.96-3.67-2.16-15.1,7.84-18.63,11.06-6.17-2.71-11.8-2.6-18.29-2.6h-.73c-6.68,0-12.44,0-18.82,3.05-2.79-2.58-15.26-13.78-19.12-11.51-4.36,2.56,2.05,26.15,2.05,26.15,0,0,.85-.98,2.19-2.33-6.83,8.85-6.91,17.31-6.8,25.4,.13,9.8,8.46,22.05,10.04,24.69,1.58,2.64,1.49,12.74,1.49,12.74h.06c-1.25,7.32-3.95,25.77-1.56,36.46,3.03,13.54,9.44,31.23,18.23,46.06,8.03,13.55,2.49,28.5,2.49,28.5,0,0-3.84,5.58-1.79,10.48,2.05,4.9,5.86,5.62,11.67,4.7,5.24-.83,5.33-3.13,11.14-3.13s6.67,4.1,17.43,2.56c7.68-1.1,10.77-5.13,10.9-10.34,.03-1.08-.79-3.61-1.57-5.78h0s3.48-.55,7.03,4.55c.91,1.31-1.03,4.92,1.58,7.72,2.6,2.8,1.5,3.92,8.32,3.63,6.81-.29,27.11,2.54,33.57-.93,6.46-3.47,28.62-13.98,32.46-33.97,4.42-22.99,4.1-33.59-12.31-66.15Z" style="fill:none;"/></clipPath></defs><g style="isolation:isolate;"><g id="pattern_4"><path d="M206.61,221.52s17.29-14.45,24.5-67.73c5.16-38.13,9.96-84.06-5.07-84.06-13.02,0-8.12,29.03-12.93,65.06-4,30-14,51-14,51,0,0-4.27,32.9,7.5,35.73Z" style="fill:#696969;"/><g style="clip-path:url(#clippath);"><path d="M216.52,124.36s8,4,8,13,0,15-6,18-13,15-14,4-2-36,12-35Z" style="fill:#ffdb53;"/><path d="M221.71,100.81s-14.2-13.45-17.2-15.45c-9-6-5.1-19.85-2-21s13,2,17,6,10,15,10,21-.61,12.9-7.8,9.45Z" style="fill:#ffdb53;"/><path d="M226.52,80.36s-10-2-10-9,2-8,5-8,14,3,14,8,2,13-9,9Z" style="fill:#ffdb53;"/><path d="M222.28,177.32s-3.76-3.96-5.76-9.96-5-14-2-19,10.63-5.13,13.82,2.43c3.18,7.57,7.71,31.48-6.05,26.52Z" style="fill:#ffdb53;"/></g><g><path d="M234.98,83.9c.67,5.74,.04,10.32,0,12.76-.17,10.43-.28,33.75-3.86,55.13-3.72,22.16-10.97,42.37-14.53,50.96-3.78,9.13-6.54,13.16-9.6,16.15" style="fill:none; stroke:#000; stroke-linecap:round; stroke-linejoin:round; stroke-width:3.8px;"/><path d="M202.11,178.79c4.63-10.19,8-26,12-49,5.8-33.33-1.8-57,9.77-59.9,4.31-1.08,8.74,3.39,9.61,7.74" style="fill:none; stroke:#000; stroke-linecap:round; stroke-linejoin:round; stroke-width:3.8px;"/></g><path d="M193.12,159.21c-14.06-27.9-44.34-35.4-44.34-35.4h0c-7.79-3.47-20.48-9.12-20.57-9.16-1.25-1.02-2.48-2.55-2.77-4.67-.77-5.64,.9-6.36,1.03-16.15,.1-7.53-.42-13.41-6.13-20.68,1.23-4.8,5.51-22.74,1.74-24.96-3.67-2.16-15.1,7.84-18.64,11.06-6.17-2.71-11.8-2.6-18.29-2.6h-.73c-6.68,0-12.44,0-18.82,3.05-2.79-2.58-15.26-13.78-19.12-11.51-4.36,2.56,2.05,26.15,2.05,26.15,0,0,.85-.98,2.19-2.33-6.83,8.85-6.91,17.31-6.8,25.4,.13,9.8,8.46,22.05,10.04,24.69,1.58,2.64,1.49,12.74,1.49,12.74h.06c-1.25,7.32-3.95,25.77-1.56,36.46,3.03,13.54,9.44,31.23,18.23,46.06,8.03,13.55,2.49,28.5,2.49,28.5,0,0-3.84,5.58-1.79,10.48,2.05,4.9,5.86,5.62,11.67,4.7,5.24-.83,5.33-3.13,11.14-3.13s6.67,4.1,17.43,2.56c7.68-1.1,10.77-5.13,10.9-10.34,.03-1.08-.79-3.61-1.57-5.78h0s3.48-.55,7.03,4.55c.91,1.31-1.03,4.92,1.58,7.72,2.6,2.8,1.5,3.92,8.32,3.63,6.81-.29,27.27,3,33.73-.48,6.46-3.47,28.47-14.43,32.31-34.43,4.42-22.99,4.1-33.59-12.31-66.15Z" style="fill:#fff;"/><g style="clip-path:url(#clippath-1);"><g><path d="M66.15,60.23s-15.33-14.6-19.69-12.04c-4.36,2.56,2.5,27.14,2.5,27.14,0,0,4-4,9.04-9.19,3.92-4.04,8.15-5.91,8.15-5.91Z" style="fill:#696969;"/><path d="M102.37,60.23s15.33-14.6,19.69-12.04-2.05,26.15-2.05,26.15c0,0-4.62-5.38-9.49-8.2s-8.15-5.91-8.15-5.91Z" style="fill:#ffdb53;"/><path d="M142.96,190.34c-7.14-1.54-7.15-22.12,0-32,7.13-9.86,26.03-21.25,34.32-20.35,8.3,.9,26.44,32.28,23.68,42.35-2.76,10.07-47.45,12.28-58,10Z" style="fill:#ffdb53;"/><path d="M132.64,109.91c-7,12-42.68,9.43-42.68,34.43,0,48.37,33.93,27.04,41,33s34.34-15.7,44-28c11-14,2.68-31.43-8.32-39.43s-27-12-34,0Z" style="fill:#696969;"/><path d="M181.31,196.84c-12.88,2.01-30.2,10.2-22.43,23.63,7.76,13.44,20.76,22.74,38.76,21.09,18-1.65,22.39-22.79,21.69-32.72-.69-9.93-18.35-15.08-38.02-12.01Z" style="fill:#ffdb53;"/><path d="M161.96,229.34c17.42,1.62,39.63-3.77,45.62-15.43,4.01-7.8,1.32-20.51-.91-28.07-.75-2.56-5.42-3.44-7.97-1.5-6.31,4.81-14.2,11.44-19.74,11-8.59-.69-20.25,2.54-26,10s-8.42,22.38,9,24Z" style="fill:#696969;"/><path d="M40.55,106.42c6.13,3.54,20.93,5.65,28.33-5.31,4.06-6.02,10.44-29.26,15.61-29.26,4.59,0,13.88,24.17,16.26,28.38,7.3,12.87,24.13,11.51,30.1,7.08,5.96-4.43,7.63-20.41,0-31.87-8.25-12.39-22.55-21.25-46.92-21.25-19.49,0-35.74,12-40.72,21.25-7.05,13.09-8.79,27.44-2.66,30.98Z" style="fill:#ffdb53;"/><path d="M72.4,56.97c3.43-.63,10.68,1.32,11.56,4.37,1.89,6.52,2.17,21.27-11,31-10.51,7.76-30.51,3.56-35.3-.76-1.56-1.41-1.55-15.53,14.37-27.04,8.93-6.45,15.76-6.72,20.36-7.57Z" style="fill:#696969;"/></g></g><g style="mix-blend-mode:soft-light;"><g style="clip-path:url(#clippath-2);"><g><path d="M47.93,90.58c2.12,.1,3.94,.09,5.94-.08,1.98-.11,3.96-1.03,6.08-.59-1.74,1.52-3.44,2.91-5.84,3.11-2.28,.18-4.81-.49-6.18-2.44h0Z"/><path d="M48.55,100.04c2.84-1.24,5.74-1.81,8.69-2.47,3.17-.66,8.13-3.04,2.48,1.38-3.27,2-7.55,2.4-11.17,1.09h0Z"/><path d="M122.23,90.58c-1.37,1.94-3.9,2.61-6.18,2.44-2.4-.2-4.1-1.6-5.84-3.11,2.12-.44,4.1,.48,6.08,.59,2,.17,3.82,.19,5.94,.08h0Z"/><path d="M121.61,100.04c-3.62,1.31-7.9,.91-11.17-1.09-5.64-4.41-.71-2.04,2.48-1.38,2.96,.66,5.85,1.23,8.69,2.47h0Z"/><path d="M72.36,85.37c0,.15-.11-.15-.12-.18-.9-2.59-1.14-5.35-1.03-8.08,.16-2.94,.8-5.67,2.02-8.39,.28-.72,1.34-.63,1.66-.27,.25,.22,.37,.47,.51,.73,1.23,2.81,2.01,5.75,2.6,8.75-1.62-2.52-2.91-5.49-4.52-7.95,.14,.11,.12,.22,.67,.28l.98-.66c-.64,2.46-1.14,5.2-1.58,7.74-.32,2.27-.82,5.78-1.19,8.03h0Z"/><path d="M81.97,71.66c-1.75-2.51-2.09-5.9-1.39-8.84,.24-1.03,1.02-1.76,1.39-2.7,.18,.99-.35,1.94-.37,2.91-.11,2.76,.2,5.85,.37,8.63h0Z"/><path d="M74.28,66.27c-.51-2.71,.38-6.34,3.33-7.18-1.65,2.43-1.84,4.69-3.33,7.18h0Z"/><path d="M95.5,85.37c-.37-2.23-.87-5.76-1.19-8.03-.43-2.54-.94-5.27-1.58-7.74l.98,.66c.55-.07,.53-.17,.67-.28-1.61,2.46-2.89,5.43-4.52,7.95,.64-3.11,1.4-6.22,2.79-9.09,.26-.35,.34-.59,1.06-.68,.45-.04,.83,.26,.98,.66,2.25,5.14,2.68,11.03,.94,16.36l-.05,.12-.03,.06s0,.02-.03,.03c-.02-.02,0-.03,0-.04h0Z"/><path d="M93.58,66.27c-1.49-2.48-1.68-4.74-3.33-7.18,2.95,.84,3.84,4.47,3.33,7.18h0Z"/><path d="M85.78,71.66c.16-2.78,.47-5.87,.37-8.63-.01-.97-.55-1.92-.37-2.91,.38,.94,1.15,1.67,1.39,2.7,.7,2.94,.35,6.32-1.39,8.84h0Z"/></g><g><path d="M99.5,141.21c-1.07-.03-1.64-.53-1.66-1.04-.02-.51,.43-1.04,1.41-1.3,.59-.16,1.18-.32,1.77-.49,2.63-.76,5.21-1.62,7.71-2.6,2.5-.98,4.94-2.07,7.28-3.28,1.17-.61,2.31-1.26,3.43-1.93,.28-.17,.56-.34,.83-.52l.41-.26c.13-.09,.29-.18,.39-.26l.35-.25c.12-.08,.23-.16,.35-.25l.34-.27c.11-.09,.23-.17,.34-.28,.91-.77,1.8-1.66,2.65-2.61,.85-.95,1.68-1.97,2.48-3.01,.81-1.05,1.58-2.14,2.35-3.24,.77-1.11,1.53-2.23,2.27-3.37,1.49-2.28,2.94-4.63,4.39-6.99l.99-1.63c.53-.88,1.18-1.16,1.66-.97,.48,.18,.77,.86,.5,1.88-.16,.63-.34,1.26-.52,1.89-.81,2.73-1.81,5.41-2.97,8.03-.58,1.31-1.22,2.6-1.9,3.88-.69,1.27-1.42,2.53-2.23,3.76-.81,1.23-1.68,2.43-2.65,3.59-.97,1.16-2.03,2.28-3.25,3.3-.14,.13-.31,.25-.47,.38l-.48,.37c-.15,.13-.33,.24-.5,.36l-.51,.35c-.18,.12-.33,.21-.49,.31l-.48,.29c-.32,.2-.64,.38-.96,.56-1.29,.72-2.62,1.38-3.97,1.96-2.7,1.16-5.5,2.05-8.34,2.66-2.84,.61-5.72,.97-8.6,1.03-.65,0-1.29,0-1.94-.02Z"/><path d="M118.58,151.72c-1.14,.04-1.78-.42-1.83-.93-.05-.51,.41-1.07,1.44-1.39,.62-.2,1.24-.41,1.85-.63,2.75-.97,5.41-2.09,7.95-3.38,2.54-1.29,4.96-2.74,7.22-4.36,1.12-.82,2.2-1.68,3.24-2.58,1.02-.92,2.01-1.87,2.93-2.87l.68-.77,.34-.39,.35-.42c.47-.56,.94-1.12,1.41-1.68l2.84-3.39c1.9-2.27,3.83-4.53,5.79-6.77,1.96-2.24,3.96-4.46,6.01-6.64l1.42-1.49c1.53-1.59,2.95-.57,1.9,1.38-.33,.61-.66,1.21-.99,1.81-1.47,2.62-3.03,5.19-4.65,7.71-1.62,2.52-3.31,5-5.09,7.43-.89,1.21-1.79,2.42-2.72,3.61-.46,.6-.94,1.19-1.42,1.77l-.36,.44c-.12,.15-.26,.3-.39,.46-.27,.3-.53,.61-.8,.91-1.1,1.18-2.28,2.29-3.51,3.32-1.24,1.01-2.55,1.94-3.9,2.79-2.71,1.68-5.59,3.01-8.56,3.99-2.97,.98-6.02,1.63-9.1,1.93-.69,.06-1.38,.11-2.07,.13Z"/><path d="M133.32,166.52c-1.21,.34-1.98,.08-2.16-.4-.18-.48,.2-1.17,1.27-1.77l1.95-1.1c2.9-1.65,5.77-3.31,8.6-5.01,2.83-1.7,5.61-3.43,8.32-5.24l.51-.34,.5-.34,1.01-.69c.66-.47,1.33-.92,1.98-1.41,1.31-.94,2.58-1.92,3.81-2.93l.92-.76c.3-.26,.59-.52,.89-.78l.44-.39,.43-.4,.43-.4c.14-.13,.29-.26,.42-.4l.82-.82c.14-.13,.27-.28,.4-.42l.39-.42c.13-.14,.26-.28,.39-.42l.37-.43,.37-.43c.06-.07,.12-.14,.18-.22l.17-.23,.7-.91c.12-.15,.23-.31,.34-.47l.34-.48c.46-.63,.88-1.31,1.32-1.98,.22-.33,.43-.68,.64-1.02l.64-1.03,.62-1.05,.31-.53,.3-.53c1.63-2.84,3.19-5.77,4.74-8.72l1.06-2.03c.57-1.09,1.25-1.49,1.73-1.33,.48,.17,.76,.93,.47,2.15-.18,.76-.38,1.51-.58,2.26-.89,3.28-1.98,6.51-3.27,9.69l-.24,.6-.26,.59-.52,1.18c-.18,.39-.37,.78-.56,1.18-.19,.39-.37,.78-.58,1.17-.41,.77-.8,1.55-1.27,2.32l-.34,.57c-.11,.19-.22,.38-.35,.57l-.75,1.13-.19,.28c-.07,.09-.14,.18-.2,.27l-.41,.55-.42,.55c-.14,.18-.29,.35-.44,.52l-.44,.52c-.15,.17-.29,.35-.45,.51l-.92,.98c-.15,.17-.31,.32-.47,.48l-.48,.47-.48,.47-.49,.45c-.33,.29-.66,.59-.99,.88l-1.01,.84c-1.36,1.1-2.76,2.15-4.2,3.12-.71,.5-1.44,.95-2.17,1.42l-1.1,.68-.55,.34-.56,.32c-2.97,1.73-6.04,3.26-9.16,4.61-3.13,1.35-6.31,2.55-9.56,3.55-.73,.22-1.46,.44-2.19,.64Z"/><path d="M192.6,131.96c.35-.97,1.08-1.4,1.76-1.36,.68,.05,1.31,.65,1.34,1.73,.01,.33,.02,.65,.02,.98,0,.33,0,.65,0,.98-.06,2.91-.47,5.82-1.14,8.69-.68,2.88-1.66,5.72-3,8.48l-.25,.52c-.08,.17-.18,.34-.27,.51l-.56,1.02c-.36,.67-.8,1.36-1.23,2.03-.88,1.33-1.86,2.57-2.88,3.77-2.05,2.38-4.31,4.54-6.7,6.54-2.39,2-4.91,3.85-7.53,5.55-2.62,1.7-5.34,3.28-8.17,4.69-.65,.32-1.3,.64-1.97,.94-1.07,.49-1.95,.31-2.35-.17-.4-.49-.34-1.27,.46-2.03l1.49-1.41c2.16-2.03,4.31-4.06,6.47-6.09,2.13-2.02,4.24-4.03,6.28-6.05,2.03-2.03,4.01-4.07,5.8-6.15,.89-1.04,1.76-2.09,2.53-3.16,.38-.54,.76-1.05,1.11-1.63l.55-.85c.09-.14,.19-.28,.27-.42l.26-.44c1.4-2.31,2.66-4.73,3.82-7.23,1.16-2.5,2.24-5.06,3.23-7.69,.12-.29,.22-.59,.33-.88,.11-.29,.22-.59,.32-.88Z"/><path d="M202.33,152.75c0-.98,.37-1.54,.87-1.68,.49-.13,1.14,.28,1.45,1.31,.19,.62,.36,1.25,.5,1.88,.63,2.83,.81,5.78,.53,8.74-.28,2.95-1.06,5.91-2.34,8.67-.17,.34-.32,.69-.5,1.02l-.55,1-.6,.98c-.05,.08-.1,.16-.15,.24l-.16,.24-.32,.47c-.11,.16-.22,.31-.33,.47l-.35,.45-.35,.45-.18,.23-.2,.23-.41,.47c-.14,.15-.28,.29-.41,.43l-.42,.42-.42,.39c-1.13,1.04-2.29,1.94-3.48,2.78-1.18,.84-2.39,1.61-3.61,2.33-2.44,1.45-4.94,2.72-7.49,3.87-2.55,1.15-5.14,2.18-7.78,3.08-.61,.2-1.21,.4-1.83,.59-.98,.31-1.67,.06-1.88-.41-.21-.47,.02-1.14,.86-1.71l1.57-1.06c2.28-1.54,4.57-3.03,6.83-4.54,2.26-1.5,4.51-2.99,6.7-4.52,1.09-.76,2.16-1.53,3.2-2.32,1.03-.79,2.03-1.59,2.92-2.41l.33-.31,.31-.31c.1-.1,.21-.2,.3-.31l.28-.31,.14-.15,.14-.18,.29-.36,.29-.35,.27-.37,.27-.37,.14-.18c.04-.06,.09-.13,.13-.19l.52-.76,.49-.78c.16-.26,.31-.53,.46-.8,1.2-2.14,2.12-4.47,2.77-6.93,.65-2.46,1.02-5.05,1.15-7.69,.03-.59,.04-1.18,.04-1.78Z"/><path d="M217.73,175.44c.82-1.07,1.58-1.39,2.03-1.14,.45,.25,.56,1.11-.02,2.36-.35,.76-.71,1.51-1.08,2.25-1.67,3.33-3.56,6.55-5.63,9.67-2.07,3.12-4.34,6.12-6.84,8.96-1.25,1.42-2.56,2.8-3.94,4.12-1.38,1.32-2.82,2.6-4.35,3.79-.39,.29-.78,.58-1.17,.86l-.59,.43c-.2,.14-.39,.29-.59,.41l-1.19,.79c-.4,.26-.79,.53-1.19,.77-.8,.49-1.6,.99-2.41,1.47-.81,.47-1.62,.93-2.43,1.39-3.26,1.81-6.57,3.46-9.93,5.01-3.36,1.55-6.76,2.99-10.22,4.31-.79,.3-1.59,.6-2.38,.88-1.28,.47-2.12,.3-2.34-.16-.22-.46,.16-1.21,1.3-1.94l2.13-1.36c3.1-1.97,6.22-3.89,9.33-5.8,3.11-1.92,6.21-3.81,9.27-5.74l2.28-1.45c.76-.49,1.49-.99,2.24-1.47,.38-.24,.73-.5,1.1-.75l1.09-.75c.19-.12,.36-.25,.53-.38l.52-.39c.35-.26,.7-.51,1.04-.77,1.37-1.06,2.7-2.2,4-3.38,1.3-1.18,2.58-2.41,3.82-3.68,2.49-2.54,4.9-5.2,7.24-7.94,2.35-2.74,4.63-5.57,6.87-8.44,.5-.64,1-1.29,1.5-1.93Z"/><path d="M218.15,206.01c.69-.92,1.4-1.19,1.86-.96,.46,.23,.64,1.01,.19,2.12-.14,.34-.28,.67-.43,1.01l-.45,1c-1.37,2.95-2.99,5.78-4.8,8.49-1.82,2.71-3.84,5.3-6.06,7.73-2.24,2.42-4.67,4.66-7.28,6.72-1.37,1.05-2.78,1.97-4.21,2.82-1.43,.85-2.88,1.62-4.35,2.34-2.93,1.44-5.92,2.68-8.96,3.77-3.03,1.09-6.11,2.04-9.22,2.83-.71,.18-1.43,.35-2.15,.52-1.16,.26-1.89-.03-2.05-.51-.17-.48,.21-1.16,1.24-1.7l1.93-1.01c2.81-1.46,5.62-2.9,8.39-4.36,2.78-1.46,5.52-2.93,8.2-4.46,1.34-.77,2.65-1.55,3.93-2.36,1.27-.81,2.51-1.65,3.65-2.53,2.37-1.86,4.67-3.86,6.89-5.96,2.21-2.12,4.33-4.34,6.4-6.65,2.06-2.31,4.06-4.7,5.99-7.17l.65-.83,.64-.84Z"/></g></g></g><g><path d="M77.9,189.98s3,6.94,9.28,10.58c6.27,3.64,10.84,3.82,10.84,3.82" style="fill:none; stroke:#000; stroke-linecap:round; stroke-linejoin:round; stroke-width:3.8px;"/><path d="M47.04,70.75c0-2.73-4.49-21.84-1.48-23.19,3.01-1.36,16.17,6.23,18.52,9.25" style="fill:none; stroke:#000; stroke-linecap:round; stroke-linejoin:round; stroke-width:3.8px;"/><path d="M122.33,70.75c0-2.73,4.49-21.84,1.48-23.19-3.01-1.36-16.17,6.23-18.52,9.25" style="fill:none; stroke:#000; stroke-linecap:round; stroke-linejoin:round; stroke-width:3.8px;"/><path d="M66.92,60.2s5.62-3.64,15.64-3.64,19.14,3.64,19.14,3.64" style="fill:none; stroke:#000; stroke-linecap:round; stroke-linejoin:round; stroke-width:3.8px;"/><path d="M47.04,75.5s-3.28,8.2-3.28,18.17c0,13.92,6.15,21.57,9.49,27.21,3.21,5.43,2.79,8.42,2.79,8.42" style="fill:none; stroke:#000; stroke-linecap:round; stroke-linejoin:round; stroke-width:3.8px;"/><path d="M55.56,135.75s-4.97,25.78,0,44.36c5.9,22.05,15.22,32.88,17.95,40.25,2.73,7.37,2.47,15.15,2.47,21.7s-3.89,5-3.82,10.92c.07,5.86,4.91,7.64,9.64,7.62,6.83-.03,9.92-2.81,9.92-2.81" style="fill:none; stroke:#000; stroke-linecap:round; stroke-linejoin:round; stroke-width:3.8px;"/><path d="M124.03,212.4c-1.55,4.6-3.83,28.93-2.65,32.03,1.17,3.09,3.61,7.46,.34,11.83-2.89,3.85-8.01,5.38-13.55,4.6-5.54-.78-9.28-3.32-8.54-6.24" style="fill:none; stroke:#000; stroke-linecap:round; stroke-linejoin:round; stroke-width:3.8px;"/><path d="M122.46,75.5s3.86,6.41,4.09,14.6c.22,7.7-3,14.47-1.77,18.47,4.1,13.33,27.84,11.84,46.66,26.66,28.97,22.82,30.77,48.97,30.77,48.97" style="fill:none; stroke:#000; stroke-linecap:round; stroke-linejoin:round; stroke-width:3.8px;"/><path d="M204.27,197.8s6.6,22.78-.77,36.15c-7.37,13.37-25.24,25.78-33.84,26.15-8.6,.37-12.05,0-18.69,0-3.74,0-13.27-.17-17.21-1.8-3.43-1.42-4.84-3.88-4.06-7.81,1.24-6.29,12.01-7.32,12.01-7.32" style="fill:none; stroke:#000; stroke-linecap:round; stroke-linejoin:round; stroke-width:3.8px;"/><path d="M97.01,210.75s1.69,7.44,2.03,17.84,.11,19.46,.11,19.46" style="fill:none; stroke:#000; stroke-linecap:round; stroke-linejoin:round; stroke-width:3.8px;"/></g></g></g></svg>