<?xml version="1.0" encoding="UTF-8"?><svg xmlns="http://www.w3.org/2000/svg" xmlns:xlink="http://www.w3.org/1999/xlink" viewBox="0 0 280 280"><defs><clipPath id="clippath"><path d="m207.95,217.95s17.29-14.45,24.5-67.73c5.16-38.13,9.96-84.06-5.07-84.06-13.02,0-8.12,29.03-12.93,65.06-4,30-14,51-14,51,0,0-4.27,32.9,7.5,35.73Z" style="fill:none;"/></clipPath><clipPath id="clippath-1"><path d="m194.02,157.66c-14.06-27.9-44.34-35.4-44.34-35.4h0c-7.81-3.49-20.58-9.17-20.58-9.17,0,0-20.39,8.22-35.42,11.27-15.03,3.04-30.19,1.94-36.71,5.82,0,0-5.15,26.04-2.12,39.57,3.03,13.54,9.44,31.23,18.23,46.06,8.03,13.55,2.49,28.5,2.49,28.5,0,0-3.84,5.58-1.79,10.48,2.05,4.9,5.86,5.62,11.67,4.7,5.24-.83,5.33-3.13,11.14-3.13s6.67,4.1,17.43,2.56c7.68-1.1,10.77-5.13,10.9-10.34.03-1.08-.79-3.61-1.57-5.78,0,0,0,0,0,0,0,0,3.48-.55,7.03,4.54.91,1.31-1.03,4.92,1.58,7.72,2.6,2.8,1.5,3.92,8.32,3.63,6.81-.29,25.42,4.6,31.89,1.13,6.46-3.47,30.31-16.04,34.15-36.04,4.42-22.99,4.1-33.59-12.31-66.15Z" style="fill:none;"/></clipPath></defs><g style="isolation:isolate;"><path d="m207.95,217.95s17.29-14.45,24.5-67.73c5.16-38.13,9.96-84.06-5.07-84.06-13.02,0-8.12,29.03-12.93,65.06-4,30-14,51-14,51,0,0-4.27,32.9,7.5,35.73Z" style="fill:#ffe2bc;"/><g style="mix-blend-mode:soft-light;"><g style="clip-path:url(#clippath);"><path d="m237.46,102.22s-2.97-5.22-9.63-5.78c-4.67-.39-10.37,2.78-10.37,2.78,0,0,.33-7.9,0-15-.43-9.16,0-19,10.36-18.74,5.8.14,9.06,7.72,9.64,16.74.57,9.02,0,20,0,20Z"/><path d="m216.86,200.78s-1-12-3-15-8-7-4-11,6,1,9,0,8-4,10-2,1,8,1,15-7,15-13,13Z"/><path d="m203.86,166.78c-4-4-1-12,4-13,1.39-.28,5,3,7,4s11,0,10,3-7,1-10,4-7,6-11,2Z"/><path d="m219.86,110.78c2.19.44,5,5,9,5s6,1,8,4-8,0-10,1-8,2-11-1c-2.12-2.12-1-10,4-9Z"/><path d="m237.86,133.78c5,2,2.66,9.89,1,11-3,2-12,2-15,2s-8-3-6-7,5-1,8-2,7-6,12-4Z"/></g></g><path d="m208.32,217.22c-.49,0-.99-.19-1.36-.57-.73-.75-.72-1.95.03-2.69,2.77-2.7,5.39-6.38,9.18-15.52,1.67-4.02,10.19-25.36,14.41-50.54,3.32-19.78,3.63-41.08,3.8-52.53l.04-2.32c.01-.63.06-1.4.11-2.29.16-2.56.38-6.08-.1-10.22-.12-1.04.63-1.99,1.67-2.11,1.03-.13,1.99.63,2.11,1.67.52,4.48.28,8.34.12,10.9-.05.82-.1,1.53-.11,2.12l-.04,2.31c-.17,11.55-.49,33.04-3.85,53.1-4.29,25.58-12.96,47.28-14.65,51.37-4.03,9.74-6.93,13.75-10.03,16.78-.37.36-.85.54-1.33.54Z"/><path d="m203.46,177.12c-.26,0-.53-.05-.78-.17-.96-.43-1.38-1.56-.94-2.52,4.61-10.15,7.96-26.1,11.86-48.54,2.33-13.38,2.47-25.24,2.59-34.77.18-14.8.3-24.57,8.6-26.65,2.11-.53,4.33-.11,6.42,1.21,2.72,1.72,4.88,4.86,5.51,8,.21,1.03-.46,2.03-1.49,2.23-1.03.21-2.03-.46-2.23-1.49-.42-2.13-1.96-4.35-3.81-5.53-.83-.52-2.1-1.08-3.47-.74-5.21,1.3-5.54,8.78-5.72,23-.12,9.67-.26,21.7-2.64,35.38-3.95,22.74-7.36,38.94-12.14,49.46-.32.7-1.01,1.11-1.73,1.11Z"/><path d="m85.31,55.1c-9.85,0-17.69,0-28.46,9.74-12.05,10.9-12.18,21.23-12.05,31.02.13,9.8,8.46,22.05,10.04,24.69,1.58,2.64,1.49,12.74,1.49,12.74,0,0,13.59,1.03,38.72-2.82,20.46-3.13,31.73-11.97,36.53-14.66.51-.29.47-1.04-.08-1.26-1.28-.52-4.67-2.43-5.18-6.13-.77-5.64.9-6.36,1.03-16.15.13-9.8-.77-16.79-12.82-27.69-10.77-9.74-18.65-9.49-28.49-9.49h-.73Z" style="fill:#ffe2bc;"/><path d="m194.02,157.66c-14.06-27.9-44.34-35.4-44.34-35.4h0c-7.81-3.49-20.58-9.17-20.58-9.17,0,0-20.39,8.22-35.42,11.27-15.03,3.04-30.19,1.94-36.71,5.82,0,0-5.15,26.04-2.12,39.57,3.03,13.54,9.44,31.23,18.23,46.06,8.03,13.55,2.49,28.5,2.49,28.5,0,0-3.84,5.58-1.79,10.48,2.05,4.9,5.86,5.62,11.67,4.7,5.24-.83,5.33-3.13,11.14-3.13s6.67,4.1,17.43,2.56c7.68-1.1,10.77-5.13,10.9-10.34.03-1.08-.79-3.61-1.57-5.78,0,0,0,0,0,0,0,0,3.48-.55,7.03,4.54.91,1.31-1.03,4.92,1.58,7.72,2.6,2.8,1.5,3.92,8.32,3.63,6.81-.29,25.42,4.6,31.89,1.13,6.46-3.47,30.31-16.04,34.15-36.04,4.42-22.99,4.1-33.59-12.31-66.15Z" style="fill:#ffe2bc;"/><path d="m68.86,58.78s-17.14-14.71-21.5-12.14,1.5,29.14,1.5,29.14c0,0,5-7,10.04-11.19,4.33-3.6,9.96-5.81,9.96-5.81Z" style="fill:#ffe2bc;"/><path d="m103.27,58.68s15.33-14.6,19.69-12.04c4.36,2.56-2.05,26.15-2.05,26.15,0,0-4.62-5.38-9.49-8.2-4.87-2.82-8.15-5.91-8.15-5.91Z" style="fill:#ffe2bc;"/><g style="mix-blend-mode:soft-light;"><g style="clip-path:url(#clippath-1);"><g style="mix-blend-mode:multiply;"><path d="m168.31,198.71c-2.04-.15-5.36.55-7.62-1.52-2.67-2.46-5.05-7.35-5.13-10.84-.15-6.31,5.13-11.25,8.93-11.25,2.78,0,6.92,2.4,8.38,4.57,1.85,2.76,1.84,6.89,2.11,9.45.48,4.57-.35,10.06-6.68,9.59Z"/><path d="m169.67,172.11c7.56,2.29,8.54,8.67,9.46,13.62.92,4.95-.3,10.55-1.64,13.05-1.49,2.77-2.74,7.1-8.3,9.48-4.85,2.07-6.38,2.72-12.4,5.14-6.86,2.76-17.39,8.52-17.12,11.34s9.09-3.34,14.83-5.07c7.45-2.25,19.24-3.13,25.36-7.88,6.12-4.75,10.85-13.73,11-19s-1.84-17.09-7-22-13.9-7.68-20-7c-9,1-15.35,6.17-18,11-1.89,3.44-2.23,11.2-1.03,17.03,1.14,5.51,3.89,8.81,9,12.22,5.27,3.51,14.97,2.95,14.2.39-.51-1.68-6.88-1.49-11.17-5.64-5.06-4.89-5.96-10.02-4-17,1.49-5.3,5.3-13.17,16.81-9.68Z"/><path d="m185.86,143.78c-7.14-2.61-15.13,2.7-21,4-9,2-18.08,10.54-29,16-10,5-5.28,30,2,30,5,0-4.65-18.82,9-27,10.75-6.44,17-13,29.8-9.95,6.36,1.52,12.6,8.6,17.2,15.95,4.06,6.49,3.29,11.11,3.48,18.33.2,7.22-2.99,12.69-6.93,18.26-4.17,5.89-7.35,10.4-17.56,13.77-9.65,3.18-27.52,3.79-25.99,6.64s21.24,3.54,33.37-.12c10.36-3.13,15.2-7.65,19.85-16.34,4.65-8.69,9.84-16.09,8.91-25.73s-.24-16.69-5.13-22.81-11.85-18.76-18-21Z"/><path d="m195.34,140.03c4.37,1.33,8.9,8.43,6.94,9.82s-9.26-3.36-17.42-4.07c-3.86-.34-7.33-1.69-13,1-4.58,2.17-6.81-.52-11,8-3.36,6.82-14.76,5.89-23.15,9.79-4.88,2.27-12.36,3.81-13.48.1-.88-2.91,9.69-2.13,14.63-6.8,6.73-6.35,15.89-5.89,17.99-12.09,2.1-6.2,9.66-7.77,15.46-8.33,7.72-.74,17.78.99,23.03,2.58Z"/><path d="m181.89,120.56c4.47.9,12.43,14.48,10.61,16.05s-6.23-3.7-14.42-3.62c-3.88.04-10.54-1.67-15.92,1.55-4.34,2.6-2.27,1.53-9.27,7.94-7.38,6.75-17.05,7.61-25.02,12.31-4.63,2.73-30.11,7.9-32,4-2.23-4.59,25.79-7.48,30.26-12.6,6.08-6.98,14.62-4.53,19.42-8.78s8.26-12.86,13.98-13.98c7.61-1.49,16.99-3.93,22.37-2.85Z"/><path d="m57.93,159.56c7.35.74,15.78-2.08,16.93.22,2,4-8,5-15.24,6.29-8.27,1.47-17.96-1.46-15.61-12.08.9-4.06,6.57,4.83,13.92,5.57Z"/><path d="m63.25,205.49c8.68,4.14,20.61,6.29,20.61,4.29s-7-6-12-7-13-13-15-12-5,4-4,8,9.79,6.42,10.39,6.71Z"/><path d="m57.8,180.25c9.6-.52,19.21-5.33,18.25-7.09s-4.18-1.12-9.05.4-20.58-5-21.86-3.17-2.48,5.9.32,8.94c2.79,3.03,11.67.96,12.34.92Z"/><path d="m53.74,192.98c9.57.96,22.12,1.8,22.12-.2,0-5-5.96-7.75-11-7s-20.57-6.11-22.11-4.49c-1.54,1.62-3.36,5.45-1.06,8.88,2.29,3.43,11.38,2.74,12.05,2.81Z"/><path d="m71.88,214.36s3.98,1.42,7.98,1.42,8,0,8,1-2,2-5,2-6,3-10,1-9-2-9-5,6.04-.85,8.02-.42Z"/><path d="m97.86,218.78c-4-2-12,1-13,3s4,2,7,2,8,3,8,1,2-4-2-6Z"/><path d="m71.86,232.78c-.33-1.97,6-3,10-3s6-2,6,0-7,3-10,5-5,4-6-2Z"/><path d="m98.86,231.78c-3,0-8,3-11,4s-4,1-4,3,3,0,7,0,11,3,11,0,1-7-3-7Z"/><path d="m98.86,213.78c0,3,1,4,6,5s14-2,14,1-13,5-11,8c1.24,1.86,15,1,16-4s2-7,0-8-8-3-13-3-12-6-12,1Z"/><path d="m120.86,231.78c-.95-.32-5,4-9,4s-7-1-7,1,6,2,9,2,8,3,8,0,2-6-1-7Z"/><path d="m100.86,242.78c.49-1.94,8,1,10,1s5,1,5,2-10,0-11,0-5,1-4-3Z"/><path d="m96.86,171.78c.96-1.92,7.33-.44,14-2,4.11-.96,6.33-4.86,9-6,6.28-2.69,14.47-2.86,16-1s2.79,10.28-2,11c-2.27.34-15.94.59-22,2-6.7,1.56-16-2-15-4Z"/><path d="m99.93,189.78c-1.08,2.91,10.35,2,14.79,6,3.55,3.2,0,11,5.91,11,2.09,0,5.91-5,5.91-9s2.96-13-1.48-15-7.39,5-10.35,5-13.31-2-14.79,2Z"/><path d="m209.86,211.78c5,1,3,14,1,19s-9,11-16,12-19.53-1-24-1c-5,0-13,3-11-1s16-5,24-7,16-12,18-14,3-9,8-8Z"/><path d="m187.86,248.78s-6-2-12-2-14-2-19-1-8,2-4,5,10-1,17,1,7.76,4.83,9.38,4.42,10.62-4.42,8.62-7.42Z"/><path d="m139.86,199.78c2.77,4.16,13,7,12,9s-6,0-10,2-11,7-10,1-1-14,2-14,4-1,6,2Z"/><path d="m55.41,129.06s1.66,10.27,5.9,10.64c4.24.37,16.36-2.73,22.08-4.63,6.18-2.05,19.2-2.05,23.11-3.74s14.11-9.66,16.5-12.15c2.38-2.49,6.81-9.53,9.86-7.92s3.71,5.72-2.58,9.9c-6.29,4.18-15.05,12.77-22.95,15.3-6.62,2.13-17.09.66-22.17,1.48-4.8.78-18.62,8.28-24.38,7.11-5.76-1.18-8.97-3.82-9.8-8.95s2.91-7.85,4.43-7.04Z"/><path d="m152.48,110c-3.77,1.76-4.42,9.24-6.56,11.26s-5.4,7.13-7.54,9.16c-1.51,1.43-7.42,5-10.57,5.95-3.15.95-1.13,3.09,2.02,2.14,3.15-.95,8.43-3.93,11.64-6.96s9.33-6.17,11.49-9.23c2.17-3.06,7.8-8.92,6.76-11.07s-5.14-2.22-7.25-1.24Z"/><path d="m57.96,149.18c-.73,2.27,8.72,7.79,14.45,6.64,5.73-1.15,7.61-3.65,13.33-4.81s20.5,1.18,26.75-3.26c6.26-4.44,20.92-19.16,19.37-20.97-1.56-1.81-19.25,15.64-24.97,16.8-5.73,1.15-16.45,1.19-24.46,2.8-6.87,1.38-7.61,3.65-12.19,4.57s-11.54-4.04-12.27-1.77Z"/></g></g></g><g style="mix-blend-mode:soft-light;"><path d="m61.86,89.78c0-1-5.36-1.76-8,0-3,2-9.8,7.2-8,9,3,3,5-3,9-6,3.05-2.28,7-2,7-3Z"/><path d="m59.86,101.78c-1-1-3.69,1.34-6,2-4.43,1.27-6.82-.6-7.41,1.7s4.41,2.3,7.41,1.3,7-4,6-5Z"/><path d="m107.56,89.78c0-1,5.36-1.76,8,0,3,2,9.8,7.2,8,9-3,3-5-3-9-6-3.05-2.28-7-2-7-3Z"/><path d="m109.56,101.78c1-1,3.69,1.34,6,2,4.43,1.27,6.82-.6,7.41,1.7s-4.41,2.3-7.41,1.3c-3-1-7-4-6-5Z"/><path d="m73.72,81.82c-2,0-.17-7.41.83-10.41,1.1-3.29,1.17-10.59,3.17-10.59,2.24,0,6.04,17.6,5,19s-2-9-3-9-2.31,1.94-3,4c-1,3-2,7-3,7Z"/><path d="m97.75,81.4c1.97-.59,1-7,0-10-1.1-3.29-2.03-10.59-4.03-10.59-2.24,0-5.04,17.6-4,19,1.04,1.4,3-9,4-9s1.31,1.94,2,4c1,3,.97,6.9,2.03,6.59Z"/><path d="m79.01,68.82c-1.08,0-2.97-3.46-3.25-7.18-.28-3.73-.25-6.08,1.08-6.28,1.61-.25,5.42-.9,5.42,0,0,.9-2.17,4.49-2.17,7.18,0,2.69,0,6.28-1.08,6.28Z"/><path d="m92.96,68.82c1.08,0,2.49-3.28,2.76-7,.28-3.73.74-6.26-.6-6.47-1.61-.25-5.42-.9-5.42,0s2.17,4.49,2.17,7.18,0,6.28,1.08,6.28Z"/><path d="m85.72,81.81c3,0,2.34-12.42,2.83-18.73.29-3.82.38-7.21,0-7.87-1-1.75-4.17-1.75-5,0-.31.65-.4,4.1,0,7.87.66,6.33.17,18.73,2.17,18.73Z"/><path d="m107.7,73.05c.17-.34-.36-1.3-.85-1.19-.14.04-.29.07-.42.12-.62.2-1.18.51-1.68.85-.5.34-.95.72-1.36,1.11-.2.2-.4.4-.58.6-.14.14-.5.59-.64.86-.7,1.21-.96,2.32-1.08,3.49-.05.58-.06,1.17,0,1.77.02.13.04.27.05.41.07.45,1.13.72,1.41.4.09-.11.18-.21.26-.31.37-.45.69-.9,1-1.35.59-.89,1.09-1.85,1.49-2.53.12-.21.1-.19.31-.47.16-.22.31-.44.45-.67.29-.45.55-.9.79-1.37.2-.41.43-.86.7-1.4.05-.11.1-.21.16-.33Z"/><path d="m66.65,73.22c-.08-.31.53-1.23.97-1.1.13.04.25.09.38.14.55.24,1.03.61,1.43,1.01.8.83,1.29,1.83,1.55,2.87.13.51.2,1.1.19,1.63-.01.53-.09,1.05-.22,1.56-.14.5-.33.99-.59,1.46-.06.1-.13.21-.19.32-.22.35-1.3.2-1.46-.13-.05-.11-.1-.21-.14-.32-.2-.46-.35-.9-.49-1.32-.14-.42-.26-.83-.36-1.22-.1-.4-.19-.75-.28-1.11-.18-.75-.34-1.51-.47-2.29-.07-.39-.14-.79-.23-1.21-.02-.09-.04-.2-.07-.29Z"/></g><path d="m98.92,204.73s-.05,0-.08,0c-.21,0-5.12-.25-11.72-4.08-6.74-3.91-9.93-11.16-10.07-11.47-.42-.96.03-2.08.99-2.5.96-.42,2.08.03,2.5.99h0c.03.06,2.86,6.43,8.49,9.69,5.72,3.32,9.94,3.57,9.98,3.57,1.04.05,1.85.94,1.81,1.99-.05,1.02-.88,1.81-1.89,1.81Z"/><path d="m47.94,71.09c-1.05,0-1.9-.85-1.9-1.9,0-.59-.38-2.8-.74-4.94-2.21-12.98-2.65-18.62.38-19.99,4.57-2.06,18.59,6.97,20.8,9.82.64.83.49,2.02-.34,2.67-.83.64-2.02.49-2.67-.34-2.14-2.76-13.17-8.69-15.98-8.69h0c-.75,2.38.92,12.13,1.56,15.9.52,3.06.8,4.7.8,5.58,0,1.05-.85,1.9-1.9,1.9Z"/><path d="m123.23,71.09c-1.05,0-1.9-.85-1.9-1.9,0-.87.27-2.51.8-5.58.65-3.78,2.32-13.57,1.55-15.92h-.04c-2.74,0-13.8,5.94-15.94,8.71-.64.83-1.84.98-2.67.34-.83-.64-.98-1.84-.34-2.67,2.21-2.85,16.24-11.88,20.8-9.82,3.03,1.37,2.6,7.01.38,19.99-.36,2.14-.74,4.35-.74,4.94,0,1.05-.85,1.9-1.9,1.9Z"/><path d="m102.59,60.55c-.23,0-.47-.04-.7-.13-.09-.04-8.92-3.5-18.43-3.5s-14.56,3.3-14.62,3.33c-.88.56-2.06.3-2.62-.58-.56-.88-.31-2.05.56-2.62.25-.16,6.22-3.94,16.67-3.94s19.45,3.62,19.84,3.77c.97.39,1.45,1.49,1.06,2.47-.3.75-1.01,1.2-1.77,1.2Z"/><path d="m56.95,129.65c-.09,0-.18,0-.27-.02-1.04-.14-1.76-1.11-1.62-2.14h0s.19-2.57-2.54-7.2c-.44-.74-.93-1.52-1.44-2.34-3.51-5.58-8.31-13.23-8.31-25.83,0-10.22,3.27-18.53,3.41-18.88.39-.97,1.49-1.45,2.47-1.06.97.39,1.45,1.49,1.06,2.47-.03.08-3.14,8.01-3.14,17.47,0,11.51,4.47,18.62,7.73,23.81.54.85,1.04,1.66,1.5,2.43,3.45,5.83,3.09,9.28,3.04,9.66-.13.95-.95,1.64-1.88,1.64Z"/><path d="m82.6,260.95c-7.1,0-11.38-3.54-11.44-9.5-.04-3.59,1.23-5.13,2.26-6.38.87-1.06,1.56-1.9,1.56-4.56v-1.6c.02-6.08.04-12.98-2.35-19.44-.82-2.21-2.3-4.81-4.18-8.1-4.11-7.21-9.75-17.08-13.82-32.32-5.02-18.78-.24-44.14-.03-45.21.2-1.03,1.19-1.7,2.23-1.51,1.03.2,1.71,1.2,1.51,2.23-.05.25-4.83,25.58-.03,43.51,3.95,14.76,9.44,24.39,13.45,31.42,1.96,3.44,3.52,6.16,4.44,8.66,2.63,7.1,2.61,14.37,2.59,20.77v1.59c0,4.03-1.35,5.67-2.44,6.98-.85,1.03-1.41,1.71-1.39,3.92.05,4.78,4.26,5.74,7.73,5.74,5.91-.03,8.57-2.24,8.68-2.34.79-.68,1.99-.59,2.67.19.68.78.62,1.96-.15,2.66-.15.13-3.72,3.26-11.18,3.29h-.1Z"/><path d="m111.79,261.4c-.98,0-1.98-.07-3-.21-4.42-.62-7.84-2.29-9.37-4.56-.84-1.25-1.1-2.64-.75-4.03.26-1.02,1.29-1.63,2.31-1.38,1.02.26,1.63,1.29,1.38,2.31-.06.22-.08.53.22.98.67,1,2.84,2.37,6.74,2.92,5.02.71,9.42-.73,11.77-3.86,2.09-2.79,1.26-5.43-.13-8.85-.16-.4-.32-.79-.46-1.16-1.46-3.84,1.08-28.69,2.63-33.3.33-.99,1.41-1.53,2.41-1.2.99.33,1.53,1.41,1.2,2.41-1.52,4.52-3.57,28.09-2.67,30.75.13.34.27.7.43,1.07,1.27,3.12,3.19,7.84-.35,12.56-2.68,3.58-7.17,5.56-12.34,5.56Z"/><path d="m203.12,184.56c-.99,0-1.83-.77-1.89-1.77,0-.06-.5-6.46-4.44-15.48-3.63-8.32-11.02-20.65-25.6-32.13-8.29-6.53-17.59-9.81-25.81-12.71-10.18-3.59-18.97-6.69-21.5-14.89-.78-2.53-.17-5.59.53-9.13.59-2.98,1.26-6.35,1.16-9.84-.21-7.57-3.79-13.62-3.82-13.68-.54-.9-.25-2.07.65-2.61.9-.54,2.06-.25,2.61.65.17.28,4.12,6.93,4.37,15.53.11,3.92-.6,7.52-1.23,10.69-.6,3.04-1.12,5.66-.62,7.27,1.96,6.37,9.54,9.04,19.13,12.43,8.49,2.99,18.11,6.39,26.89,13.3,29.3,23.08,31.41,49.23,31.49,50.33.07,1.05-.72,1.95-1.77,2.03-.04,0-.09,0-.13,0Z"/><path d="m163.36,260.61c-1.98,0-3.72-.04-5.5-.08-1.84-.04-3.7-.1-5.99-.08-4.94.05-13.84-.25-17.93-1.94-4.33-1.79-6.12-5.23-5.2-9.93,1.5-7.59,13.2-8.79,13.69-8.84,1.04-.1,1.97.67,2.07,1.71.1,1.04-.67,1.97-1.71,2.07-2.6.25-9.54,1.79-10.32,5.79-.58,2.94.27,4.59,2.92,5.69,2.5,1.04,8.63,1.65,16.4,1.65.06,0,.12,0,.18,0,2.25,0,4.14.04,5.97.08,3.57.08,6.94.16,12.53-.09,7.44-.32,24.85-11.73,32.26-25.17,6.9-12.52.67-34.49.61-34.71-.29-1.01.29-2.06,1.3-2.35,1.01-.29,2.06.29,2.35,1.3.28.96,6.73,23.69-.93,37.6-6.37,11.56-24.33,26.66-35.43,27.13-2.91.13-5.23.17-7.28.17Z"/><path d="m100.05,248.4s-.03,0-.05,0c-1.05-.03-1.88-.9-1.85-1.95,0-.09.23-9.13-.11-19.35-.33-10.08-1.97-17.41-1.99-17.49-.23-1.02.41-2.04,1.43-2.27,1.02-.24,2.04.41,2.27,1.43.07.31,1.74,7.74,2.08,18.2.34,10.34.11,19.48.11,19.57-.03,1.03-.87,1.85-1.9,1.85Z"/></g></svg>