<?xml version="1.0" encoding="UTF-8"?><svg id="bicolor_7" xmlns="http://www.w3.org/2000/svg" xmlns:xlink="http://www.w3.org/1999/xlink" viewBox="0 0 280 280"><defs><clipPath id="clippath"><path d="M193.12,159.21c-14.06-27.9-44.34-35.4-44.34-35.4h0c-7.79-3.47-20.48-9.12-20.57-9.16-1.25-1.02-2.48-2.55-2.77-4.67-.77-5.64,.9-6.36,1.03-16.15,.1-7.53-.42-13.41-6.13-20.68,1.23-4.8,5.51-22.74,1.74-24.96-3.67-2.16-15.1,7.84-18.64,11.06-6.17-2.71-11.8-2.6-18.29-2.6h-.73c-6.68,0-12.44,0-18.82,3.05-2.79-2.58-15.26-13.78-19.12-11.51-4.36,2.56,2.05,26.15,2.05,26.15,0,0,.85-.98,2.19-2.33-6.83,8.85-6.91,17.31-6.8,25.4,.13,9.8,8.46,22.05,10.04,24.69,1.58,2.64,1.49,12.74,1.49,12.74h.06c-1.25,7.32-3.95,25.77-1.56,36.46,3.03,13.54,9.44,31.23,18.23,46.06,8.03,13.55,2.49,28.5,2.49,28.5,0,0-3.84,5.58-1.79,10.48,2.05,4.9,5.86,5.62,11.67,4.7,5.24-.83,5.33-3.13,11.14-3.13s6.67,4.1,17.43,2.56c7.68-1.1,10.77-5.13,10.9-10.34,.03-1.08-.79-3.61-1.57-5.78h0s3.48-.55,7.03,4.55c.91,1.31-1.03,4.92,1.58,7.72,2.6,2.8,1.5,3.92,8.32,3.63,6.81-.29,27.27,3,33.73-.48,6.46-3.47,28.47-14.43,32.31-34.43,4.42-22.99,4.1-33.59-12.31-66.15Z" style="fill:none;"/></clipPath></defs><path d="M206.61,221.52s17.29-14.45,24.5-67.73c5.16-38.13,9.96-84.06-5.07-84.06-13.02,0-8.12,29.03-12.93,65.06-4,30-14,51-14,51,0,0-4.27,32.9,7.5,35.73Z" style="fill:#666;"/><g><path d="M234.98,83.9c.67,5.74,.04,10.32,0,12.76-.17,10.43-.28,33.75-3.86,55.13-3.72,22.16-10.97,42.37-14.53,50.96-3.78,9.13-6.54,13.16-9.6,16.15" style="fill:none; stroke:#000; stroke-linecap:round; stroke-linejoin:round; stroke-width:3.8px;"/><path d="M202.11,178.79c4.63-10.19,8-26,12-49,5.8-33.33-1.8-57,9.77-59.9,4.31-1.08,8.74,3.39,9.61,7.74" style="fill:none; stroke:#000; stroke-linecap:round; stroke-linejoin:round; stroke-width:3.8px;"/></g><path d="M193.12,159.21c-14.06-27.9-44.34-35.4-44.34-35.4h0c-7.79-3.47-20.48-9.12-20.57-9.16-1.25-1.02-2.48-2.55-2.77-4.67-.77-5.64,.9-6.36,1.03-16.15,.1-7.53-.42-13.41-6.13-20.68,1.23-4.8,5.51-22.74,1.74-24.96-3.67-2.16-15.1,7.84-18.64,11.06-6.17-2.71-11.8-2.6-18.29-2.6h-.73c-6.68,0-12.44,0-18.82,3.05-2.79-2.58-15.26-13.78-19.12-11.51-4.36,2.56,2.05,26.15,2.05,26.15,0,0,.85-.98,2.19-2.33-6.83,8.85-6.91,17.31-6.8,25.4,.13,9.8,8.46,22.05,10.04,24.69,1.58,2.64,1.49,12.74,1.49,12.74h.06c-1.25,7.32-3.95,25.77-1.56,36.46,3.03,13.54,9.44,31.23,18.23,46.06,8.03,13.55,2.49,28.5,2.49,28.5,0,0-3.84,5.58-1.79,10.48,2.05,4.9,5.86,5.62,11.67,4.7,5.24-.83,5.33-3.13,11.14-3.13s6.67,4.1,17.43,2.56c7.68-1.1,10.77-5.13,10.9-10.34,.03-1.08-.79-3.61-1.57-5.78h0s3.48-.55,7.03,4.55c.91,1.31-1.03,4.92,1.58,7.72,2.6,2.8,1.5,3.92,8.32,3.63,6.81-.29,27.27,3,33.73-.48,6.46-3.47,28.47-14.43,32.31-34.43,4.42-22.99,4.1-33.59-12.31-66.15Z" style="fill:#fff;"/><g style="clip-path:url(#clippath);"><g><path d="M141.74,122.91c-5.62,5.69-11.9,28.77,1.74,43.92s24.92-2.76,30.22,9.18,39.13-1.99,31.17-27.19c-7.96-25.2-49.33-39.88-63.14-25.91Z" style="fill:#666;"/><path d="M159.96,228.34c-10-8-13.26-22.99-7-33,5-8,20.96-18.55,33-6,12.04,12.55,19.41,32,7.21,42.5s-21.47,5.89-33.21-3.5Z" style="fill:#666;"/></g></g><g><path d="M44.4,89.81s12.94,1.04,24.51-7.56c5.09-3.78,10.49-14.6,15.72-14.6,4.63,0,12.41,12.17,15.72,14.6,13.11,9.64,26.61,7.56,26.61,7.56,0,0,2.08-32.21-44.67-32.21-40.52,0-37.88,32.21-37.88,32.21Z" style="fill:#666;"/><path d="M65.58,59.73s-15.33-14.6-19.69-12.04c-4.36,2.56,2.05,26.15,2.05,26.15,0,0,4.62-5.38,9.49-8.2,4.87-2.82,8.15-5.91,8.15-5.91Z" style="fill:#666;"/><path d="M101.81,59.73s15.33-14.6,19.69-12.04c4.36,2.56-2.05,26.15-2.05,26.15,0,0-4.62-5.38-9.49-8.2-4.87-2.82-8.15-5.91-8.15-5.91Z" style="fill:#666;"/></g><g><path d="M77.9,189.98s3,6.94,9.28,10.58c6.27,3.64,10.84,3.82,10.84,3.82" style="fill:none; stroke:#000; stroke-linecap:round; stroke-linejoin:round; stroke-width:3.8px;"/><path d="M47.04,70.75c0-2.73-4.49-21.84-1.48-23.19,3.01-1.36,16.17,6.23,18.52,9.25" style="fill:none; stroke:#000; stroke-linecap:round; stroke-linejoin:round; stroke-width:3.8px;"/><path d="M122.33,70.75c0-2.73,4.49-21.84,1.48-23.19-3.01-1.36-16.17,6.23-18.52,9.25" style="fill:none; stroke:#000; stroke-linecap:round; stroke-linejoin:round; stroke-width:3.8px;"/><path d="M66.92,60.2s5.62-3.64,15.64-3.64,19.14,3.64,19.14,3.64" style="fill:none; stroke:#000; stroke-linecap:round; stroke-linejoin:round; stroke-width:3.8px;"/><path d="M47.04,75.5s-3.28,8.2-3.28,18.17c0,13.92,6.15,21.57,9.49,27.21,3.21,5.43,2.79,8.42,2.79,8.42" style="fill:none; stroke:#000; stroke-linecap:round; stroke-linejoin:round; stroke-width:3.8px;"/><path d="M55.56,135.75s-4.97,25.78,0,44.36c5.9,22.05,15.22,32.88,17.95,40.25,2.73,7.37,2.47,15.15,2.47,21.7s-3.89,5-3.82,10.92c.07,5.86,4.91,7.64,9.64,7.62,6.83-.03,9.92-2.81,9.92-2.81" style="fill:none; stroke:#000; stroke-linecap:round; stroke-linejoin:round; stroke-width:3.8px;"/><path d="M124.03,212.4c-1.55,4.6-3.83,28.93-2.65,32.03,1.17,3.09,3.61,7.46,.34,11.83-2.89,3.85-8.01,5.38-13.55,4.6-5.54-.78-9.28-3.32-8.54-6.24" style="fill:none; stroke:#000; stroke-linecap:round; stroke-linejoin:round; stroke-width:3.8px;"/><path d="M122.46,75.5s3.86,6.41,4.09,14.6c.22,7.7-3,14.47-1.77,18.47,4.1,13.33,27.84,11.84,46.66,26.66,28.97,22.82,30.77,48.97,30.77,48.97" style="fill:none; stroke:#000; stroke-linecap:round; stroke-linejoin:round; stroke-width:3.8px;"/><path d="M204.27,197.8s6.6,22.78-.77,36.15c-7.37,13.37-25.24,25.78-33.84,26.15-8.6,.37-12.05,0-18.69,0-3.74,0-13.27-.17-17.21-1.8-3.43-1.42-4.84-3.88-4.06-7.81,1.24-6.29,12.01-7.32,12.01-7.32" style="fill:none; stroke:#000; stroke-linecap:round; stroke-linejoin:round; stroke-width:3.8px;"/><path d="M97.01,210.75s1.69,7.44,2.03,17.84,.11,19.46,.11,19.46" style="fill:none; stroke:#000; stroke-linecap:round; stroke-linejoin:round; stroke-width:3.8px;"/></g></svg>