<?xml version="1.0" encoding="UTF-8"?><svg id="pattern_1" xmlns="http://www.w3.org/2000/svg" xmlns:xlink="http://www.w3.org/1999/xlink" viewBox="0 0 280 280"><defs><radialGradient id="_称未設定グラデーション_2" cx="-62.81" cy="294.37" fx="-62.81" fy="294.37" r="31.46" gradientTransform="translate(151.97 -158.78) rotate(-.18) scale(1.09 .86) skewX(.04)" gradientUnits="userSpaceOnUse"><stop offset=".58" stop-color="#483700"/><stop offset=".67" stop-color="#52420d" stop-opacity=".94"/><stop offset=".77" stop-color="#736335" stop-opacity=".75"/><stop offset=".88" stop-color="#a99b78" stop-opacity=".45"/><stop offset=".99" stop-color="#f3e8d5" stop-opacity=".02"/><stop offset="1" stop-color="#f8eddb" stop-opacity="0"/></radialGradient><linearGradient id="_称未設定グラデーション_28" x1="161.53" y1="243.68" x2="186.67" y2="227.6" gradientTransform="matrix(1, 0, 0, 1, 0, 0)" gradientUnits="userSpaceOnUse"><stop offset=".58" stop-color="#483700"/><stop offset=".63" stop-color="#4b3a04"/><stop offset=".69" stop-color="#564511"/><stop offset=".74" stop-color="#685827"/><stop offset=".81" stop-color="#807146"/><stop offset=".87" stop-color="#a0926e"/><stop offset=".93" stop-color="#c7bb9f"/><stop offset="1" stop-color="#f5ead7"/><stop offset="1" stop-color="#f8eddb"/></linearGradient><linearGradient id="_称未設定グラデーション_28-2" x1="96.77" y1="256.16" x2="96.09" y2="217.99" xlink:href="#_称未設定グラデーション_28"/></defs><path d="M206.61,221.27s17.29-14.45,24.5-67.73c5.16-38.13,9.96-84.06-5.07-84.06-13.02,0-8.12,29.03-12.93,65.06-4,30-14,51-14,51,0,0-4.27,32.9,7.5,35.73Z" style="fill:#483700;"/><g><path d="M206.98,220.54c-.49,0-.99-.19-1.36-.57-.73-.75-.72-1.95,.03-2.69,2.77-2.71,5.39-6.38,9.18-15.52,1.67-4.02,10.19-25.36,14.41-50.54,3.32-19.77,3.63-41.08,3.8-52.52l.04-2.33c.01-.63,.06-1.4,.11-2.29,.16-2.56,.38-6.08-.1-10.22-.12-1.04,.63-1.99,1.67-2.11,1.05-.13,1.99,.63,2.11,1.67,.52,4.48,.28,8.34,.12,10.89-.05,.82-.1,1.54-.11,2.12l-.04,2.33c-.17,11.55-.49,33.04-3.85,53.09-4.29,25.59-12.96,47.28-14.65,51.37-4.03,9.74-6.93,13.75-10.03,16.78-.37,.36-.85,.54-1.33,.54Z"/><path d="M202.11,180.44c-.26,0-.53-.05-.79-.17-.96-.43-1.38-1.56-.94-2.52,4.61-10.15,7.96-26.1,11.86-48.54,2.33-13.38,2.47-25.24,2.59-34.77,.18-14.8,.3-24.57,8.6-26.65,2.12-.53,4.33-.11,6.42,1.21,2.72,1.72,4.88,4.86,5.51,7.99,.21,1.03-.46,2.03-1.49,2.23-1.02,.21-2.03-.46-2.23-1.49-.42-2.13-1.96-4.35-3.81-5.53-.83-.53-2.1-1.08-3.47-.74-5.21,1.3-5.54,8.78-5.72,23-.12,9.67-.26,21.7-2.64,35.38-3.95,22.74-7.37,38.94-12.14,49.46-.32,.7-1.01,1.11-1.73,1.11Z"/></g><path d="M193.12,158.96c-14.06-27.9-44.34-35.4-44.34-35.4h0c-7.79-3.47-20.48-9.12-20.57-9.16-1.25-1.02-2.48-2.55-2.77-4.67-.77-5.64,.9-6.36,1.03-16.15,.1-7.53-.42-13.41-6.13-20.68,1.23-4.8,5.51-22.74,1.74-24.96-3.67-2.16-15.1,7.84-18.64,11.06-6.17-2.71-11.8-2.6-18.29-2.6h-.73c-6.68,0-12.44,0-18.82,3.05-2.79-2.58-15.26-13.78-19.12-11.51-4.36,2.56,2.05,26.15,2.05,26.15,0,0,.85-.98,2.19-2.33-6.83,8.85-6.91,17.31-6.8,25.4,.13,9.8,8.46,22.05,10.04,24.69,1.58,2.64,1.49,12.74,1.49,12.74h.06c-1.25,7.32-3.95,25.77-1.56,36.46,3.03,13.54,9.44,31.23,18.23,46.06,8.03,13.55,2.49,28.5,2.49,28.5,0,0-3.84,5.58-1.79,10.48,2.05,4.9,5.86,5.62,11.67,4.7,5.24-.83,5.33-3.13,11.14-3.13s6.67,4.1,17.43,2.56c7.68-1.1,10.77-5.13,10.9-10.34,.03-1.08-.79-3.61-1.57-5.78h0s3.48-.55,7.03,4.55c.91,1.31-1.03,4.92,1.58,7.72,2.6,2.8,1.5,3.92,8.32,3.63,6.81-.29,27.27,3,33.73-.48,6.46-3.47,28.47-14.43,32.31-34.43,4.42-22.99,4.1-33.59-12.31-66.15Z" style="fill:#f8eddb;"/><path d="M66.15,59.98s-15.33-14.6-19.69-12.04c-4.36,2.56,2.5,27.14,2.5,27.14,0,0,4-5,9.04-9.19,4.33-3.6,8.15-5.91,8.15-5.91Z" style="fill:#483700;"/><path d="M102.37,59.98s15.33-14.6,19.69-12.04c4.36,2.56-2.1,28.14-2.1,28.14,0,0-5-6-9.43-10.19-4.09-3.87-8.15-5.91-8.15-5.91Z" style="fill:#483700;"/><path d="M123.5,91.67c-4.11-15.9-19.39-26.59-38.78-26.59s-35.16,11.58-39.27,26.59c-4.12,15.04,18.86,30.41,39.27,30.41s42.73-15.16,38.78-30.41Z" style="fill:url(#_称未設定グラデーション_2);"/><path d="M131.96,257.08c4.39,2.76,13.07,3.18,22,3,8.93-.18,16.6,.16,16.6,.16,0,0,31.4-10.16,33.4-30.16,1.5-14.96-17.35-22.22-33-17-12,4-8,24-12,26-3.68,1.84-17,1-26,6-5.29,2.94-4.48,9.81-1,12Z" style="fill:url(#_称未設定グラデーション_28);"/><path d="M67.96,209.08s8.32,5.34,15.66,5.17c7.34-.17,13.39-.94,13.39-.94,0,0,8.24,1.12,14.1,.94,5.85-.17,12.85-2.17,12.85-2.17,0,0-3.07,30.57-2,32,3,4,4.16,12.62-3,16-7.16,3.38-17.41,.66-20-2-2.59-2.66-8.25,1.99-9,2,0,0-10.12,2.79-15,0-7-4-2.06-12.62,0-14,2.06-1.38,2-16,.33-22.29-.78-2.92-7.33-14.71-7.33-14.71Z" style="fill:url(#_称未設定グラデーション_28-2);"/><g><path d="M98.02,206.03s-.05,0-.08,0c-.21,0-5.12-.25-11.72-4.08-6.74-3.91-9.93-11.16-10.07-11.47-.42-.96,.03-2.08,.99-2.5,.96-.42,2.08,.03,2.5,.99,.05,.11,2.88,6.44,8.48,9.69,5.73,3.32,9.94,3.57,9.98,3.57,1.04,.05,1.85,.94,1.81,1.99-.05,1.02-.88,1.81-1.89,1.81Z"/><path d="M47.04,72.39c-1.05,0-1.9-.85-1.9-1.9,0-.59-.38-2.8-.74-4.94-2.21-12.98-2.65-18.62,.38-19.99,4.57-2.05,18.59,6.97,20.8,9.82,.64,.83,.49,2.02-.34,2.67-.83,.64-2.02,.49-2.67-.34-2.14-2.76-13.17-8.69-15.98-8.69h0c-.75,2.38,.92,12.13,1.56,15.9,.52,3.06,.8,4.7,.8,5.58,0,1.05-.85,1.9-1.9,1.9Z"/><path d="M122.33,72.39c-1.05,0-1.9-.85-1.9-1.9,0-.87,.27-2.51,.8-5.58,.65-3.78,2.32-13.57,1.55-15.92h-.04c-2.74,0-13.8,5.94-15.94,8.71-.64,.83-1.84,.98-2.67,.34-.83-.64-.98-1.84-.34-2.67,2.21-2.85,16.24-11.87,20.8-9.82,3.03,1.37,2.6,7.01,.38,19.99-.36,2.14-.74,4.35-.74,4.94,0,1.05-.85,1.9-1.9,1.9Z"/><path d="M101.69,61.85c-.23,0-.47-.04-.7-.13-.09-.04-8.92-3.5-18.43-3.5s-14.56,3.3-14.62,3.33c-.88,.56-2.06,.3-2.62-.58-.56-.88-.31-2.05,.56-2.62,.25-.16,6.22-3.94,16.67-3.94s19.45,3.62,19.84,3.77c.97,.39,1.45,1.49,1.06,2.47-.3,.75-1.01,1.2-1.77,1.2Z"/><path d="M56.05,130.95c-.09,0-.18,0-.27-.02-1.04-.14-1.76-1.11-1.62-2.14h0s.19-2.57-2.54-7.2c-.44-.74-.93-1.52-1.44-2.34-3.51-5.58-8.31-13.23-8.31-25.83,0-10.22,3.27-18.53,3.41-18.88,.39-.97,1.49-1.45,2.47-1.06,.97,.39,1.45,1.49,1.06,2.47-.03,.08-3.14,8.01-3.14,17.47,0,11.51,4.47,18.62,7.73,23.81,.54,.85,1.04,1.66,1.5,2.43,3.45,5.83,3.09,9.28,3.04,9.65-.13,.95-.95,1.64-1.88,1.64Z"/><path d="M81.7,262.25c-7.1,0-11.38-3.55-11.45-9.5-.04-3.59,1.23-5.13,2.26-6.38,.87-1.06,1.56-1.9,1.56-4.56v-1.6c.02-6.09,.04-12.98-2.35-19.44-.82-2.21-2.3-4.81-4.18-8.1-4.11-7.21-9.75-17.08-13.82-32.32-5.02-18.78-.24-44.14-.03-45.21,.2-1.03,1.2-1.71,2.23-1.51,1.03,.2,1.71,1.2,1.51,2.23-.05,.25-4.83,25.58-.03,43.51,3.95,14.76,9.44,24.39,13.45,31.42,1.96,3.44,3.52,6.16,4.44,8.66,2.63,7.1,2.61,14.36,2.59,20.77v1.59c0,4.03-1.35,5.67-2.44,6.98-.85,1.03-1.41,1.71-1.39,3.92,.05,4.74,4.17,5.74,7.64,5.74h.08c5.91-.03,8.57-2.24,8.68-2.34,.79-.68,1.99-.6,2.67,.19,.68,.78,.62,1.96-.15,2.66-.15,.13-3.72,3.26-11.18,3.29h-.1Z"/><path d="M110.89,262.7c-.98,0-1.98-.07-3-.21-4.42-.62-7.84-2.29-9.37-4.56-.84-1.25-1.1-2.64-.75-4.03,.26-1.02,1.29-1.63,2.31-1.38,1.02,.26,1.63,1.29,1.38,2.31-.06,.22-.08,.53,.22,.98,.67,1,2.84,2.37,6.74,2.92,5.02,.71,9.42-.73,11.76-3.86,2.09-2.79,1.26-5.43-.13-8.85-.16-.4-.32-.79-.46-1.16-1.46-3.84,1.08-28.69,2.63-33.3,.33-.99,1.41-1.53,2.41-1.2,.99,.33,1.53,1.41,1.2,2.41-1.52,4.52-3.57,28.09-2.67,30.75,.13,.34,.27,.7,.43,1.07,1.27,3.12,3.19,7.84-.35,12.57-2.68,3.58-7.17,5.56-12.34,5.56Z"/><path d="M202.22,185.86c-.99,0-1.83-.77-1.89-1.77,0-.06-.5-6.46-4.44-15.48-3.63-8.32-11.02-20.65-25.6-32.13-8.29-6.53-17.59-9.81-25.81-12.71-10.18-3.59-18.97-6.69-21.5-14.89-.78-2.53-.17-5.59,.53-9.13,.59-2.98,1.26-6.35,1.16-9.84-.21-7.57-3.79-13.62-3.82-13.68-.54-.9-.25-2.07,.65-2.61,.9-.54,2.06-.25,2.61,.65,.17,.28,4.12,6.93,4.37,15.53,.11,3.92-.6,7.52-1.23,10.69-.6,3.04-1.12,5.66-.62,7.27,1.96,6.37,9.54,9.04,19.13,12.43,8.49,2.99,18.11,6.39,26.89,13.3,29.3,23.08,31.41,49.23,31.49,50.33,.07,1.05-.72,1.95-1.77,2.03-.04,0-.09,0-.13,0Z"/><path d="M162.46,261.92c-1.98,0-3.72-.04-5.5-.08-1.84-.04-3.74-.1-5.99-.08h-.08c-4.95,0-13.78-.25-17.86-1.94-4.33-1.79-6.12-5.23-5.2-9.93,1.5-7.6,13.19-8.8,13.69-8.84,1.05-.1,1.97,.67,2.07,1.71,.1,1.04-.67,1.97-1.71,2.07-2.6,.25-9.54,1.79-10.32,5.79-.58,2.94,.27,4.59,2.92,5.69,2.5,1.04,8.63,1.65,16.4,1.65,.06,0,.12,0,.18,0,2.25,0,4.14,.04,5.97,.08,3.57,.08,6.94,.16,12.53-.09,7.44-.32,24.85-11.72,32.26-25.17,6.9-12.52,.67-34.49,.61-34.71-.29-1.01,.29-2.06,1.3-2.35,1.01-.29,2.06,.29,2.35,1.3,.28,.96,6.73,23.69-.93,37.6-6.37,11.56-24.33,26.65-35.43,27.13-2.91,.13-5.23,.17-7.28,.17Z"/><path d="M99.15,249.7s-.03,0-.05,0c-1.05-.03-1.88-.9-1.85-1.95,0-.09,.23-9.13-.11-19.35-.33-10.08-1.97-17.41-1.99-17.49-.23-1.02,.41-2.04,1.43-2.27,1.02-.23,2.04,.41,2.27,1.43,.07,.31,1.74,7.74,2.08,18.2,.34,10.34,.11,19.48,.11,19.57-.03,1.03-.87,1.85-1.9,1.85Z"/></g></svg>