<?xml version="1.0" encoding="UTF-8"?><svg id="pattern_1" xmlns="http://www.w3.org/2000/svg" xmlns:xlink="http://www.w3.org/1999/xlink" viewBox="0 0 280 280"><defs><clipPath id="clippath"><path d="M206.61,221.52s17.29-14.45,24.5-67.73c5.16-38.13,9.96-84.06-5.07-84.06-13.02,0-8.12,29.03-12.93,65.06-4,30-14,51-14,51,0,0-4.27,32.9,7.5,35.73Z" style="fill:none;"/></clipPath><clipPath id="clippath-1"><path d="M193.12,159.21c-14.06-27.9-44.34-35.4-44.34-35.4h0c-7.79-3.47-20.48-9.12-20.57-9.16-1.25-1.02-2.48-2.55-2.77-4.67-.77-5.64,.9-6.36,1.03-16.15,.1-7.53-.42-13.41-6.13-20.68,1.23-4.8,5.51-22.74,1.74-24.96-3.67-2.16-15.1,7.84-18.64,11.06-6.17-2.71-11.8-2.6-18.29-2.6h-.73c-6.68,0-12.44,0-18.82,3.05-2.79-2.58-15.26-13.78-19.12-11.51-4.36,2.56,2.05,26.15,2.05,26.15,0,0,.85-.98,2.19-2.33-6.83,8.85-6.91,17.31-6.8,25.4,.13,9.8,8.46,22.05,10.04,24.69,1.58,2.64,1.49,12.74,1.49,12.74h.06c-1.25,7.32-3.95,25.77-1.56,36.46,3.03,13.54,9.44,31.23,18.23,46.06,8.03,13.55,2.49,28.5,2.49,28.5,0,0-3.84,5.58-1.79,10.48,2.05,4.9,5.86,5.62,11.67,4.7,5.24-.83,5.33-3.13,11.14-3.13s6.67,4.1,17.43,2.56c7.68-1.1,10.77-5.13,10.9-10.34,.03-1.08-.79-3.61-1.57-5.78h0s3.48-.55,7.03,4.55c.91,1.31-1.03,4.92,1.58,7.72,2.6,2.8,1.5,3.92,8.32,3.63,6.81-.29,27.27,3,33.73-.48,6.46-3.47,28.47-14.43,32.31-34.43,4.42-22.99,4.1-33.59-12.31-66.15Z" style="fill:none;"/></clipPath></defs><path d="M206.61,221.52s17.29-14.45,24.5-67.73c5.16-38.13,9.96-84.06-5.07-84.06-13.02,0-8.12,29.03-12.93,65.06-4,30-14,51-14,51,0,0-4.27,32.9,7.5,35.73Z" style="fill:#d1a67b;"/><g style="clip-path:url(#clippath);"><g><path d="M190.62,72.75c1.28,.24,.72,.85,2.03,1.91,.56,.45,.82,1.37,1.51,2.11,.53,.57,1.3,.99,1.88,1.75,.48,.64,1.22,1.17,1.71,1.95,.43,.69,1.32,1.19,1.75,2,.39,.72,.13,1.83,.5,2.66,.4,.88,.66,1.75,.95,2.58,.32,.91,.75,1.73,.97,2.59,.24,.94,.56,1.81,.71,2.69,.16,.95,.69,1.82,.8,2.7,.12,.96-.91,2.01-.81,2.89,.11,.97,1.47,1.69,1.65,2.55,.19,.94-.39,2.06-.02,2.87s.97,1.62,1.64,2.32c.6,.63,1.43,1.06,2.08,1.68s1.57,.9,2.22,1.51c.65,.61,.53,2,1.16,2.62s1.44,1.04,2.02,1.7,.85,1.52,1.36,2.24,1.94,.88,2.34,1.67,.66,1.71,.91,2.57c.22,.77,.32,1.66,.56,2.54,.22,.81-.18,1.83,.07,2.68s1.09,1.47,1.37,2.3-.12,1.91,.2,2.71,1.11,1.46,1.5,2.2c.42,.8,.61,1.76,1.1,2.42,.55,.73,1.91,.56,2.57,1.05,.71,.53,1.03,1.67,1.89,1.83,.66,.13,1.28-.79,2.24-1.44,.64-.43,1.96-.23,2.68-.94,.59-.58,.58-1.82,1.19-2.55,.54-.65,.69-1.62,1.25-2.37,.51-.69,1.78-.87,2.29-1.64s.79-1.59,1.25-2.37,.83-1.56,1.25-2.35,1.59-1.21,1.97-2.02-.05-1.99,.29-2.81,.39-1.75,.67-2.58,.77-1.63,.99-2.47,.63-1.71,.77-2.57c.15-.91-.18-1.82-.15-2.68,.03-.92,.37-1.81,.25-2.66-.13-.91-.54-1.71-.86-2.51s-.92-1.42-1.49-2.1-1.28-.92-2.08-1.4-1-1.88-1.73-2.35c-.79-.51-1.44-1.13-2.14-1.64-.77-.55-1.53-.99-2.2-1.54-.74-.6-1.39-1.17-2.01-1.77-.69-.66-1.43-1.16-1.98-1.81-.62-.73-1.5-1.2-1.95-1.92-.51-.82-.38-1.87-.67-2.66-.33-.89-.69-1.65-.76-2.51-.07-.91-.17-1.79,.04-2.67s.28-1.83,.74-2.65c.39-.7,1.73-.64,2.61-1.27,.69-.5,1.22-1.29,2.12-1.76,.79-.41,1.34-1.45,2.24-1.84,.83-.36,1.62-.95,2.52-1.31s2.07,.15,2.95-.2,1.6-1.06,2.47-1.41c.88-.35,2-.13,2.85-.5s1.55-1.21,2.37-1.62c.88-.43,1.9-.57,2.66-1.04,.86-.52,1.84-.92,2.5-1.49,.78-.67,1.49-1.57,1.91-2.32,.47-.84-.55-1.94-.65-2.9-.1-.91,.13-1.71-.64-2.34-.62-.51-1.58-.48-2.55-.83-.78-.29-1.59-.49-2.56-.7-.84-.18-1.64-.78-2.59-.9-.87-.11-1.75-.46-2.7-.53-.88-.06-1.83,.8-2.77,.77s-1.78-.2-2.71-.2-1.8-.14-2.72-.12c-.91,.02-1.83-.52-2.75-.48s-1.81,.43-2.72,.48-1.86-.48-2.77-.42c-.92,.06-1.85,.05-2.74,.11s-1.77,1.11-2.65,1.18c-.94,.08-1.86,.05-2.73,.13-.96,.08-1.9-.14-2.75-.06-.99,.09-1.91,.05-2.74,.12-1.07,.09-1.95,.84-2.68,.89-.83,.05-1.83-.06-2.78-.15-.85-.08-1.81-.11-2.72-.27-.86-.16-1.45-1.75-2.34-1.94s-2,.7-2.87,.49c-.88-.21-1.79-.24-2.65-.45s-1.71-.62-2.56-.8c-.92-.19-1.62-1.55-2.45-1.66-.98-.13-1.98,.8-2.77,.84-1.05,.06-2.08-.09-2.68,.4s-.61,1.47-.6,2.59c0,.92,.43,1.88,.37,2.8s-1.52,1.75-1.6,2.64c-.08,.95,.93,1.95,.89,2.83-.04,.98-.55,1.92-.45,2.76,.12,1,.99,1.57,1.46,2.28s.69,1.7,1.69,2.04c.73,.25,1.75-.19,2.84-.19Z" style="fill:#d28728;"/><path d="M203.42,70.48c.86,.49,1.54,1.46,2.53,1.96,.91,.46,2,.67,2.96,1.14s1.76,1.22,2.7,1.68,1.9,.98,2.81,1.45c.98,.52,1.82,1.15,2.66,1.67,1,.61,1.89,1.11,2.59,1.71,1,.88,2.08,1.52,2.11,2.37s-.75,1.67-2.01,2.47c-.93,.59-1.93,.99-2.91,1.39s-1.98,.9-3.03,1.12-2.12,.43-3.21,.47c-1.05,.05-2.1-.45-3.2-.56-1.04-.1-2.14,.05-3.22-.19-1.02-.22-2.03-.6-3.09-.94-1-.32-2.18-.24-3.21-.66-.97-.39-1.93-.94-2.94-1.41-1.04-.49-1.84-1.4-2.79-1.92-1.02-.56-1.98-1.1-2.88-1.69-.98-.64-2.06-1.05-2.89-1.73-.91-.75-1.6-1.66-2.3-2.45-.79-.88-1.48-1.76-1.99-2.68-.57-1.03-1.24-2.03-1.42-3.09s.06-2.28,.34-3.39c.3-1.24,.87-2.16,1.54-2.81,.73-.7,1.69-.9,2.95-.91,.9,0,2.06-.38,3.28-.03,.91,.26,1.96,.66,3.07,1.11,.91,.37,1.86,.93,2.92,1.43,.91,.43,1.93,.82,2.95,1.35,.9,.47,1.64,1.38,2.64,1.93,.9,.49,2.07,.62,3.05,1.17Z" style="fill:#473513;"/><path d="M281.97,69c-.11,.87-.55,2.24-.95,3.11-.36,.79-1.17,1.43-1.72,2.21-.5,.71-1.05,1.46-1.68,2.16-.59,.66-1.26,1.29-1.94,1.93s-1.64,.85-2.36,1.44-1.54,.94-2.27,1.49-.85,1.92-1.6,2.44-1.85,.53-2.61,1.03-1.29,1.4-2.05,1.87c-.8,.5-1.71,.77-2.46,1.22-.83,.49-1.93,.42-2.66,.85-.88,.51-1.03,2.09-1.72,2.48-1.06,.61-2.4,.2-2.87,.51-.66,.44-1.38,.91-2.35,1.29-.77,.3-1.36,1.42-2.33,1.71-.81,.25-1.72,.48-2.67,.73-.83,.22-2.02-.74-2.96-.51-.84,.21-1.75,.35-2.68,.58-.85,.21-1.41,1.77-2.34,2-.86,.21-2.04-.76-2.96-.53-.86,.21-1.5,1.42-2.42,1.65-.86,.22-1.94-.28-2.85-.04s-1.54,1.29-2.4,1.51-1.85,.12-2.7,.33-1.71,.69-2.57,.89-2.03-.71-2.89-.52c-.9,.2-1.68,.85-2.54,1.02-.91,.18-1.72,.73-2.58,.88-.91,.16-1.8,.35-2.67,.47-.92,.13-1.91-.73-2.78-.65-.92,.09-1.79,.07-2.66,.11-.93,.03-1.79,.59-2.66,.56-.92-.04-1.81-.05-2.67-.17-1.52-.2-2.25-.84-1.82-1.72,.28-.58,.92-1.53,1.87-2.29,.64-.52,1.3-1.33,2.18-1.89,.73-.47,1.98-.26,2.86-.74,.78-.44,1.52-1.06,2.39-1.5,.81-.41,1.96-.18,2.83-.58s1.27-1.73,2.16-2.09c.85-.36,2.1,.23,2.98-.11s1.42-1.59,2.31-1.9,1.79-.64,2.69-.91,2.13,.64,3.04,.41,1.79-.51,2.7-.7,1.66-.92,2.43-1.13c.92-.25,1.65-.78,2.4-1.05,.92-.33,1.94-.17,2.62-.52,.89-.46,1.83-.76,2.42-1.24,.77-.63,1.5-1.36,1.94-1.99,.53-.78-.15-2.2,.26-2.92s1.49-1.01,2.22-1.6c.57-.46,1.16-1.1,2.15-1.43,.84-.28,1.48-.94,2.28-1.59,.69-.56,1.47-1.08,2.12-1.85,.59-.7,1.23-1.4,1.78-2.22s.73-1.75,1.2-2.6,1.05-1.59,1.46-2.45,.88-1.71,1.23-2.58c.38-.92,1.54-1.53,1.83-2.39,.34-.99-.31-2.22-.09-3.04,.33-1.23,.31-2.15,.31-2.75,0-.68,1.31-.44,2.82,.21,.72,.31,1.55,.76,2.49,1.27,.76,.41,1.53,.96,2.39,1.47,.78,.46,1.32,1.37,2.13,1.88,.78,.49,2,.32,2.8,.83s1.36,1.36,2.14,1.87c.8,.53,2.15,.22,2.91,.72,.82,.55,1.14,1.78,1.86,2.27,.87,.59,1.33,1.59,2,2.05,1.42,.99,2.66-.52,3.3,.73Z" style="fill:#473513;"/><path d="M164.03,93.11c.97,.3,.55,.6,1.63,1.29,.49,.31,1.4,.08,2.08,.45,.55,.3,1.11,.6,1.77,.92,.58,.27,.7,1.69,1.36,1.96,.6,.25,1.37,.23,2.04,.45,.62,.21,1.35,.21,2.03,.4,.64,.18,1.39-.06,2.07,.09s1.26,.52,1.95,.63,1.33,.21,2.02,.28,1.33,.64,2.02,.66,1.38-.02,2.07-.04c.73-.02,1.43-.63,2.14-.67s1.5,.61,2.2,.56,1.37-1.16,2.08-1.22,1.53,.71,2.23,.64c.74-.07,1.39-.84,2.09-.91,.74-.07,1.51,.35,2.21,.28,.75-.07,1.49,.14,2.17,.08,.76-.07,1.49,.22,2.17,.18,.79-.05,1.46-.33,2.11-.32,.84,0,1.65-.76,2.23-.62,.91,.21,2.02,.78,2.18,1.41,.15,.6-.07,1.91,.87,2.15,.6,.16,1.54-.49,2.38-.41,.67,.06,1.38,.76,2.16,.8,.7,.04,1.47-.56,2.23-.53,.71,.04,1.47-.23,2.22-.18,.72,.05,1.47,.1,2.21,.18s1.41,.58,2.14,.7,1.52-.06,2.24,.11,1.2,1.1,1.88,1.35,1.83-.48,2.48-.15c.79,.41,1.56,1.16,1.85,1.7,.35,.66,.08,1.76-.18,2.49-.23,.62-1.48,.58-2.04,1.15-.48,.49-.82,.96-1.48,1.36-.61,.36-.99,1.13-1.7,1.36s-1.38,.46-2.11,.52-1.35-.54-2.07-.68-1.59,1.06-2.33,1-1.38-.49-2.13-.51-1.44-.78-2.18-.77-1.42,1-2.15,1.02-1.46-.44-2.19-.42-1.45-.66-2.18-.66-1.46,1.19-2.19,1.17-1.38-1.32-2.11-1.37-1.52,.81-2.25,.72-1.33-.77-2.06-.91-1.47,.01-2.15-.05c-.72-.06-1.43,.24-2.11,.25s-1.39,.06-2.09,.14-1.48-.46-2.18-.34-1.45-.07-2.14,.07-1.36,.3-2.06,.44-1.24,.83-1.94,.96-1.32,.49-2.03,.6c-.67,.1-1.32,.66-2.04,.74-.68,.08-1.45-.71-2.18-.66-.68,.04-1.36,.39-2.08,.41-.68,.01-1.36-.67-2.09-.69s-1.42,.61-2.14,.6-1.4-.26-2.12-.26c-.7,0-1.41-.11-2.12-.11s-1.41,1.08-2.12,1.09-1.42,.01-2.12,.01-1.42-.33-2.12-.34-1.41-1.2-2.1-1.21-1.47,1.46-2.16,1.43-1.43-.42-2.11-.47c-.73-.05-1.43-.34-2.1-.41-.74-.08-1.5,.11-2.15,0-.75-.14-1.13-1.43-1.75-1.62-.76-.24-1.89,.59-2.4,.24-.66-.45-1.43-1.2-1.58-1.86-.14-.58,.68-1.48,.6-2.32-.06-.67-1.03-1.34-1.06-2.11-.03-.7,.84-1.45,.83-2.2s.41-1.43,.42-2.16-1.41-1.49-1.39-2.21,1-1.44,1.03-2.15c.03-.77-.67-1.53-.64-2.21,.04-.81,1.34-1.47,1.38-2.1,.08-1.33-1.68-2.1-.61-2.31s.96,1.08,2.05,1.27,1.1,.14,2.18,.33,1.32-1.07,2.4-.87c1.09,.2,.85,1.52,1.94,1.72s1.13-.04,2.22,.15,1.3-.94,2.38-.75,.98,.75,2.09,.85,1.15,.07,2.21,.4Z" style="fill:#473513;"/><path d="M168.08,174.37c0-.79,.22-2.17,1.08-2.92,.6-.52,1.7-.82,2.63-1.31,.75-.4,2.1,.33,3.02-.04,.81-.33,1.09-2.27,2-2.58,.85-.28,2.14,.71,3.05,.45,.87-.25,1.77-.41,2.68-.63s1.86-.06,2.76-.25,1.64-1.22,2.55-1.38,1.86-.2,2.76-.33,1.91,.22,2.8,.12c.96-.1,1.81-1.01,2.68-1.06,1-.06,1.93,.66,2.77,.67,.79,.01,1.71,.41,2.77,.43,.85,.01,1.81-1.55,2.8-1.54,.88,.01,1.8,.37,2.77,.37,.89,0,1.82,1.28,2.78,1.28,.9,0,1.83-.74,2.78-.76s1.85,.13,2.78,.11c.92-.02,1.85-.16,2.78-.2s1.8-1.22,2.72-1.27,1.93,1.19,2.85,1.12,1.91,.3,2.82,.22,1.9-.03,2.81-.13,1.85-.53,2.75-.66c.94-.14,1.89-.26,2.78-.43,.95-.18,1.87-.5,2.73-.71,.95-.23,1.37-2.03,2.2-2.31,.95-.32,2.07,.16,2.82-.23,.92-.48,2.4-.26,2.96-.86,.53-.56,.73-1.57,1.52-2.23,.64-.53,1.59-.75,2.37-1.32,.69-.51,.52-2.33,1.3-2.85,.73-.49,2.13,0,2.92-.5s1.46-1.04,2.25-1.49,1.16-1.65,1.96-2.07,2.42,.8,3.23,.41,.89-2.42,1.71-2.77,2.32,.94,3.15,.64c.88-.32,1.34-1.71,2.18-1.95,.91-.26,1.92,.13,2.76-.01,.95-.16,1.78-.06,2.61-.05,.99,0,1.92-.57,2.69-.29,.88,.33,1.31,1.12,1.83,1.87,.46,.66,.07,1.42,.19,2.46,.1,.81,1.55,1.55,1.64,2.49,.08,.84,.27,1.72,.34,2.65,.06,.85,.55,1.72,.6,2.64,.05,.86-1.63,1.84-1.59,2.74s.26,1.74,.28,2.64,1.56,1.74,1.57,2.64,.05,1.79,.04,2.68-.8,1.77-.83,2.65-.51,1.75-.56,2.64,.16,1.79,.09,2.67,.31,1.83,.21,2.7,.25,1.87,.12,2.73-2.38,1.39-2.55,2.24c-.18,.89,1.39,2.16,1.17,2.99-.23,.89-2.1,1.23-2.38,2.04-.31,.87,1.06,2.4,.7,3.16-.41,.84-2.43,.66-2.92,1.34-.55,.76,.32,2.82-.33,3.34s-2.63-.71-3.43-.2c-.71,.46-.64,2.29-1.46,2.74-.76,.41-2.28-.65-3.11-.25s-1.41,1.05-2.25,1.41-1.25,1.6-2.1,1.92c-.83,.31-1.59,.87-2.44,1.15s-1.56,1.11-2.41,1.35-1.92-.15-2.78,.07-2.04-.94-2.9-.77-1.6,1.13-2.47,1.26-1.75,.68-2.61,.75c-.92,.08-1.85-1.25-2.7-1.25-.94,0-1.77,.6-2.61,.51-.95-.1-1.67-.52-2.46-.76-.92-.28-2.44,.74-3.11,.27s-1.08-1.35-1.99-1.78c-.76-.36-1.55-.78-2.45-1.12-.81-.3-1.91,.2-2.81-.09-.84-.26-1.31-1.82-2.21-2.06s-1.87,.08-2.77-.14-1.55-1.31-2.45-1.51-2.05,.97-2.94,.79-1.83-.02-2.72-.18-1.76-.46-2.64-.6-1.72-.86-2.59-.99c-.93-.13-1.87,.07-2.73-.04-.95-.12-1.87,.1-2.72,.01-.98-.1-1.88-.06-2.69-.12-1.08-.08-1.91-1.53-2.62-1.54s-1.61,.83-2.67,.82c-.8-.01-1.66-1.06-2.62-1.11-.84-.04-1.69-.18-2.62-.26-.85-.08-1.91,1.23-2.81,1.1s-1.47-1.79-2.35-1.97-2.02,.83-2.88,.58-1.4-1.4-2.22-1.73-1.9-.08-2.69-.5-.93-1.81-1.66-2.32-1.39-.9-2.04-1.51-1.21-1.12-1.76-1.83-2.51-.5-2.94-1.3c-.41-.76,.73-2.27,.43-3.14-.28-.8-.93-1.49-1.11-2.4-.17-.83-1.41-1.59-1.49-2.52-.07-.85,.62-1.82,.63-2.75Z" style="fill:#d28728;"/><path d="M202.38,135.8c-.57-.96-1.25-1.49-.38-2.07,.34-.22,1.04-.02,2.23,.12,.59,.07,1.31,.12,2.2,.33,.64,.15,1.42,.09,2.23,.33,.65,.19,1.26,.74,2.04,1,.82,.27,1.8-.3,2.57-.15,.85,.17,1.58,.38,2.36,.42,.86,.04,1.65,.48,2.44,.41,.85-.08,1.73,.07,2.5-.11,.83-.19,1.42-1.08,2.18-1.34,.81-.28,1.72-.19,2.45-.49,.8-.33,1.54-.73,2.26-1.01,.83-.33,1.52-1.1,2.25-1.25,.87-.18,1.86,.13,2.62,.4,.69,.24,.99,1.14,1.6,1.9,.49,.59,1.14,1.12,1.67,1.79,.48,.62,1.35,1,1.85,1.67s.44,1.68,.91,2.36,1.21,1.15,1.65,1.84,1.11,1.26,1.51,1.97,.69,1.52,1.03,2.25,.77,1.5,1.04,2.24c.29,.8,.49,1.63,.66,2.39,.18,.84-.51,1.7-.52,2.47,0,.85,.1,1.54-.18,2.28s-.2,1.97-.96,2.43c-.63,.38-1.58,.65-2.45,.87-.73,.19-1.6,.39-2.46,.5-.77,.1-1.66-.32-2.5-.27-.79,.05-1.61,.34-2.44,.35s-1.63-.06-2.46-.06c-.81,0-1.63-.59-2.45-.6s-1.65,.79-2.46,.79-1.66-.89-2.45-.88c-.85,.01-1.65,.65-2.43,.69-.87,.05-1.76-.54-2.51-.44-.9,.12-1.45,1.3-2.13,1.53s-1.73-.38-2.63-.25c-.76,.11-1.54,.93-2.41,.98-.79,.04-1.65-.29-2.5-.31s-1.63-.31-2.46-.38-1.6-.46-2.42-.57-1.79,.65-2.59,.5c-.83-.16-1.56-.79-2.34-.99-.83-.22-1.61-.53-2.35-.8-.84-.31-1.81-.27-2.47-.64-.82-.46-1.59-1.08-2.05-1.62-.59-.7-.78-1.78-.59-2.61,.17-.73,.5-1.46,.32-2.26-.16-.7-.48-1.43-.84-2.17-.32-.66-.82-1.28-1.24-1.96-.4-.64-.55-1.47-.99-2.12s-1.33-.98-1.76-1.62-.8-1.36-1.19-2c-.41-.69-.4-1.58-.7-2.24-.34-.75-1.24-1.33-1.35-2.04-.13-.8,0-1.78,.26-2.49,.29-.78,1.12-1.25,1.66-1.75s1.02-1.44,1.78-1.7c.68-.23,1.62,.28,2.45,.25,.72-.03,1.53-.41,2.34-.3,.73,.1,1.41,.68,2.19,.88,.72,.19,1.55,.1,2.31,.37,.71,.25,1.44,.52,2.17,.84s1.56,.33,2.26,.69,1.04,1.26,1.71,1.65Z" style="fill:#d28728;"/><path d="M189.37,213.86c17.44-.61,29.14-.53,39.14,0,10,.53,19.08,2.65,19.08-8.63,0-11.28-42.35,3.33-47.28,0-4.93-3.33-24.49-6.98-24.92-1.75s-3.38,10.99,13.98,10.38Z" style="fill:#d28728;"/><path d="M213,121.72c.61-.06,1.2-.64,1.85-.68,.61-.04,1.26,.05,1.9,.03s1.26,.2,1.9,.2,1.26-.37,1.9-.36,1.25,.53,1.89,.54,1.24,.43,1.88,.46,1.28-.49,1.92-.46,1.23,.6,1.87,.64c.53,.03,1.21-.95,1.91-.91,.57,.03,1.16,.66,1.82,.7,.59,.03,1.22-.02,1.86,.02,.6,.04,1.22,.08,1.86,.12s1.25-.13,1.87-.08,1.2,.63,1.82,.68,1.31-.7,1.92-.65,1.23,.41,1.84,.46,1.25,.23,1.85,.28c.64,.06,1.25,.26,1.84,.32,.66,.07,1.33-.19,1.9-.11,.7,.1,1.27,.49,1.8,.59,.94,.18,1.84,.1,2.02,.3,.28,.31-.36,1.02-.88,1.81-.29,.44-.21,1.36-.79,1.84-.43,.36-1.11,.56-1.73,.92-.51,.29-1.08,.58-1.72,.85-.55,.23-1.14,.51-1.79,.7-.57,.18-1.3-.09-1.95,.05-.59,.13-1.18,.38-1.84,.48-.6,.09-1.19,.53-1.85,.59-.61,.06-1.28-.44-1.94-.41-.61,.02-1.24,.67-1.9,.67-.62,0-1.26-.21-1.92-.23s-1.27-.06-1.91-.08-1.28-.02-1.91-.02-1.29-.47-1.92-.46-1.28,.24-1.91,.26-1.29,.01-1.92,.05-1.28,.09-1.91,.13-1.3-.04-1.92,.01c-.65,.05-1.22,.84-1.84,.9s-1.33-.35-1.95-.29c-.65,.07-1.27,.34-1.88,.41-.66,.07-1.32-.05-1.93,.02-.67,.08-1.25,.6-1.85,.67-.69,.08-1.39-.46-1.97-.4-.74,.08-1.33,.74-1.85,.78-1.24,.08-1.87-.36-1.65-.71,.17-.27-.35-.79-1.2-1.37-.46-.31-.96-.74-1.53-1.11-.52-.34-1.31-.34-1.81-.71-.54-.4-.88-1.02-1.27-1.45-.49-.55-.28-1.12-.28-1.68,0-.52-.2-1,.49-1.5,.41-.29,.92-.65,1.64-.92,.51-.2,1.22,.03,1.91-.15,.55-.15,1.09-.51,1.77-.65,.57-.11,1.22,.04,1.89-.07,.59-.09,1.2-.19,1.86-.28,.59-.08,1.22-.1,1.87-.17,.6-.07,1.19-.48,1.84-.54Z" style="fill:#473513;"/><path d="M220.52,131.26c.59-.35,1.55,.01,2.14-.26s1.3-.29,1.92-.5,1.15-.78,1.78-.93,1.24-.78,1.89-.87,1.4,.42,2.06,.39,1.34-.43,2-.41,1.35,.09,2.01,.15,1.39-.15,2.04-.06,1.12,1.38,1.77,1.51,1.47-.46,2.1-.32c.67,.15,1.37,.11,1.99,.26,.68,.16,1.26,.57,1.88,.71,.69,.15,1.24,.89,1.86,.99,.71,.11,1.46-.19,2.06-.19s1.29,.34,1.99,.26c.6-.07,1.19-.63,1.86-.75,.61-.11,1.12-.82,1.77-.96s1.2-.42,1.84-.56,1.29-.11,1.91-.26,1.51,.76,2.13,.61,.98-1.48,1.59-1.62c.65-.15,1.44,.41,2.05,.27,.66-.15,1.26-.45,1.85-.56,.7-.13,1.35-.1,1.92-.16,.81-.09,1.35,.16,1.8,.28,.49,.12,1.29-.44,2.04-.3,.58,.11,1.24,.13,1.91,.25,.62,.11,1.29,.12,1.93,.25s1.11,1.04,1.73,1.18c.65,.15,1.26,.35,1.84,.52,.68,.21,1.17,.6,1.68,.84,.78,.36,1.15,.4,1.27,.86,.14,.51,.42,1.25,.74,2,.26,.6,.49,1.22,.7,1.9s.71,1.22,.72,1.9,.48,1.64,.12,2.27c-.3,.53-.97,1.19-1.64,1.63-.52,.35-1.29,.52-1.94,.78-.59,.23-1.36,.05-2.04,.23-.62,.16-1.22,.56-1.9,.68-.64,.12-1.3,.24-1.98,.33s-1.26,.58-1.94,.66-1.37-.28-2.04-.21-1.28,.55-1.95,.62-1.41-.6-2.07-.52-1.28,.53-1.94,.62-1.43-.44-2.08-.33c-.6,.11-1.13,1.22-1.83,1.28-.62,.06-1.35-1.02-2.04-.99-.63,.02-1.27,.79-1.96,.79-.64,0-1.28-.74-1.96-.76-.64-.02-1.33,.66-2,.62s-1.3-.11-1.97-.16-1.28-.38-1.94-.45-1.32,.02-1.98-.06-1.27-.39-1.93-.48-1.33-.01-1.98-.12-1.24-.58-1.89-.69-1.24-.54-1.88-.66-1.31-.12-1.96-.25-1.44,.43-2.08,.28-1.22-.59-1.86-.75-1.31-.2-1.95-.37-1.25-.46-1.88-.63c-.69-.19-1.5,.14-2.1-.06-.69-.22-1.24-.73-1.83-.96-.68-.27-1.32-.52-1.87-.8-.67-.33-1.16-.85-1.66-1.18-.65-.43-1.55-.51-1.94-.94-.54-.6-.28-1.58-.38-2.14-.13-.69,.38-.96,.78-1.54,.35-.51,.06-1.8,.7-2.17Z" style="fill:#473513;"/><path d="M218.33,183.67c3.14,.07,6.06,2.36,9.71,2.92s11.46-1.46,11.46-1.46l1.32-6.49s-11.89,1.14-12.78-1.99c-.89-3.12-12.38-10.04-12.38-10.04,0,0-4.27,14.62-4.34,15.31s7,1.75,7,1.75Z" style="fill:#d28728;"/><path d="M202.17,153.07c1.04,0,1.99,.31,2.78,.5,1,.24,1.82,.54,2.52,1.01,.8,.54,1.4,1.2,1.94,1.91s1.15,1.46,1.61,2.24,.82,1.71,1.37,2.41,1.41,1.1,2.26,1.52c.73,.35,1.52,.65,2.6,.64s2.05,.23,2.89,.52c.98,.34,1.84,.8,2.56,1.42s1.19,1.53,1.78,2.33,1,1.68,1.54,2.49,1.5,1.35,2.13,2.07,1.2,1.58,2.06,2.07c.92,.52,1.83,.98,2.53,1.55,.91,.73,1.85,1.37,2.25,2.06,.59,1.03,.09,1.83-.98,2.41-.61,.33-1.4,1.02-2.73,1.09-.9,.05-1.89-.24-2.91-.26-.94-.02-1.93,.12-2.91,.06s-1.94-.26-2.89-.35c-1.01-.09-2-.03-2.92-.14-1.07-.13-2.07-.13-2.91-.26-1.62-.25-2.78-.58-2.91-.69-.15-.12-1.12,.5-2.67,.96-.9,.27-2.03,.03-3.05,.17s-2.02,.21-2.91-.02c-.98-.25-2.09-.52-2.53-1.56-.25-.58-.47-1.52-.62-2.6-.11-.77-.16-1.67-.22-2.61-.06-.82-.04-1.71-.07-2.61-.03-.84,.34-1.73,.33-2.61s-.13-1.73-.13-2.61-.35-1.76-.33-2.61,.57-1.76,.6-2.6c.02-.92-.57-1.82-.54-2.63,.03-.97,.29-1.85,.32-2.6,.07-1.61-.81-1.8,.15-2.68Z" style="fill:#473513;"/><path d="M199.79,203.55c.43-1.12,.44-.92,1.36-1.96,.46-.52,1.06-1.02,1.85-1.45,.63-.34,1.28-.94,2.16-1.1,.71-.13,1.54,.01,2.43,.06,.94,.05,1.84,.11,2.58-.17,.81-.3,1.33-1.09,1.98-1.65s1.2-1.16,1.74-1.84,1.08-1.35,1.6-2.01c.55-.7,1.24-1.26,1.85-1.8,.66-.59,1.41-.94,2.24-1.15,1.35-.35,2.06-.18,2.49,.44s.32,1.5,.31,2.65c0,.84,0,1.78-.04,2.77-.03,.9,.09,1.85,.16,2.79s.14,1.92-.15,2.74-.81,1.69-1.41,2.39-1.46,1.08-2.23,1.59-1.53,.96-2.39,1.28c-.86,.32-1.73,.63-2.61,.76-.73,.11-1.69,0-2.74,.13-.84,.1-1.75,.31-2.7,.42-.89,.1-1.8,.34-2.71,.44s-1.86,.13-2.73,.22c-1,.1-1.91,.35-2.71,.43-1.63,.15-2.64,1.46-2.58,.09,.08-1.62,.31-1.57,.9-3.09s.72-1.46,1.31-2.98Z" style="fill:#473513;"/><path d="M208.96,149.73c-.15-1.03,.61-1.49,1.1-2.14s.63-1.72,1.59-2.06c.74-.26,1.75,.34,2.72,.23,.81-.09,1.63-1.09,2.56-1.09,.84,0,1.73,.31,2.64,.36,.85,.05,1.79-.44,2.69-.35s1.59,1.34,2.48,1.47,1.73,.21,2.6,.35,1.68,.56,2.54,.72c.87,.16,2-1.04,2.85-.87s1.64,.91,2.48,1.08c.89,.19,1.85-.05,2.67,.12,.91,.2,1.63,1.05,2.43,1.22,.96,.21,2-.44,2.75-.28,1.2,.25,1.94,1.05,2.44,1.08,.58,.04,1.43,.69,2.6,.87,.78,.12,1.83-.68,2.8-.53,.83,.13,1.61,1.06,2.54,1.2,.86,.13,1.7,.69,2.61,.82s1.85-.32,2.75-.22,1.78,.38,2.67,.46,1.87-.84,2.75-.8c.93,.05,1.8,.92,2.66,.92,.96,0,1.91,.23,2.74,.14,1.01-.12,1.84-.76,2.56-1.03,1.01-.39,1.56-.96,1.81-1.74s1.19-1.25,1.91-1.98c.6-.6,1.24-1.2,2.05-1.74,.74-.5,1.17-1.6,2-2.05s1.98-.17,2.82-.54,1.53-1.25,2.35-1.57c.95-.37,1.92-.47,2.68-.73,1.58-.54,1.74-1.85,2.72-.89s-.99,1.06-1.34,2.77c-.17,.82,.29,1.92,.07,2.96-.19,.9,.42,2.03,.21,3s-1.29,1.69-1.51,2.63-1.13,1.73-1.37,2.62c-.26,1.01,.31,2.18,.05,3-.38,1.23-.14,2.6-.46,3.09-.34,.52-1.92-.27-3.18-.23-.77,.02-1.65,.41-2.66,.32-.83-.08-1.84,.73-2.78,.61-.86-.11-1.73-.46-2.64-.58s-1.7-.79-2.6-.9-1.82,.03-2.7-.05c-.93-.08-1.81-.47-2.66-.49-.96-.02-1.83,.48-2.65,.57-1.02,.11-1.94-.06-2.62,.3-.72,.38-1.54,.9-2.52,1.1-.83,.16-1.79-.16-2.76-.1-.87,.06-1.76-.39-2.7-.39-.89,0-1.77-.01-2.69-.05s-1.83,.48-2.74,.42-1.85,.33-2.75,.27-1.8-1.01-2.67-1.05c-.96-.04-1.89,.51-2.74,.51-1.01,0-1.84,.55-2.63,.65-.7,.09-1.68-1.14-2.75-1.15-.81,0-1.7,.38-2.67,.3-.85-.06-1.68-.57-2.61-.69-.86-.11-1.95,1.08-2.85,.92s-1.77-.41-2.65-.6-1.83-.24-2.69-.48-1.56-1.15-2.4-1.44c-.87-.3-1.69-.68-2.49-1.04-.85-.37-1.83-.49-2.57-.93-.81-.48-1.38-1.28-2.03-1.83-.72-.61-1.35-1.27-1.81-1.98-.5-.77-.89-1.6-1.02-2.48Z" style="fill:#473513;"/><path d="M239.4,109.22c-.25-1.19,.68-1.73,1.28-2.23,.56-.47,1.16-.87,2.27-.89,.79-.01,1.76-.52,2.75-.37,.83,.12,1.75,.31,2.67,.51,.85,.18,1.62,.86,2.52,1.08s1.62,.87,2.5,1.1,1.92-.24,2.79-.03,1.76,.46,2.61,.64c.93,.19,1.76,.71,2.59,.82,.99,.13,1.91-.1,2.71-.13,1.08-.04,1.84-.29,2.42-.75s1.65-.48,2.54-.93c.73-.37,1.24-1.43,2.12-1.78,.79-.32,1.85-.05,2.72-.35,.82-.28,1.71-.39,2.58-.65s1.64-.69,2.5-.92,1.76-.31,2.62-.52,1.68-.7,2.53-.89c.9-.2,1.71-.7,2.55-.87,.93-.18,1.79-.52,2.6-.65,1.01-.17,1.96,0,2.69-.08,1.3-.15,1.52,.78,.8,1.93-.37,.58-1.38,.91-2.12,1.69-.55,.59-.59,1.83-1.3,2.49-.62,.57-1.68,.74-2.39,1.33-.67,.56-1.08,1.48-1.8,2.03s-1.56,.89-2.29,1.41-1.44,1.09-2.18,1.57-1.47,1.11-2.22,1.53c-.82,.46-1.7,.76-2.46,1.1-.9,.41-1.73,.93-2.49,1.12s-1.86-.23-2.9,.05c-.84,.22-1.67,.8-2.64,1.04-.87,.21-1.73,.73-2.69,.93-.9,.19-1.95-.31-2.9-.15s-1.85,.12-2.79,.22c-.93,.11-1.81,.83-2.75,.87s-1.92,.34-2.85,.3-1.9-.4-2.82-.55c-.94-.16-1.94-.25-2.81-.55s-1.53-1.22-2.34-1.68-1.35-1.17-2.04-1.83-1.19-1.26-1.72-2.08c-.48-.75-.91-1.48-1.27-2.41-.32-.83-1.38-1.49-1.59-2.47Z" style="fill:#473513;"/></g></g><g><path d="M234.98,83.9c.67,5.74,.04,10.32,0,12.76-.17,10.43-.28,33.75-3.86,55.13-3.72,22.16-10.97,42.37-14.53,50.96-3.78,9.13-6.54,13.16-9.6,16.15" style="fill:none; stroke:#000; stroke-linecap:round; stroke-linejoin:round; stroke-width:3.8px;"/><path d="M202.11,178.79c4.63-10.19,8-26,12-49,5.8-33.33-1.8-57,9.77-59.9,4.31-1.08,8.74,3.39,9.61,7.74" style="fill:none; stroke:#000; stroke-linecap:round; stroke-linejoin:round; stroke-width:3.8px;"/></g><path d="M193.12,159.21c-14.06-27.9-44.34-35.4-44.34-35.4h0c-7.79-3.47-20.48-9.12-20.57-9.16-1.25-1.02-2.48-2.55-2.77-4.67-.77-5.64,.9-6.36,1.03-16.15,.1-7.53-.42-13.41-6.13-20.68,1.23-4.8,5.51-22.74,1.74-24.96-3.67-2.16-15.1,7.84-18.64,11.06-6.17-2.71-11.8-2.6-18.29-2.6h-.73c-6.68,0-12.44,0-18.82,3.05-2.79-2.58-15.26-13.78-19.12-11.51-4.36,2.56,2.05,26.15,2.05,26.15,0,0,.85-.98,2.19-2.33-6.83,8.85-6.91,17.31-6.8,25.4,.13,9.8,8.46,22.05,10.04,24.69,1.58,2.64,1.49,12.74,1.49,12.74h.06c-1.25,7.32-3.95,25.77-1.56,36.46,3.03,13.54,9.44,31.23,18.23,46.06,8.03,13.55,2.49,28.5,2.49,28.5,0,0-3.84,5.58-1.79,10.48,2.05,4.9,5.86,5.62,11.67,4.7,5.24-.83,5.33-3.13,11.14-3.13s6.67,4.1,17.43,2.56c7.68-1.1,10.77-5.13,10.9-10.34,.03-1.08-.79-3.61-1.57-5.78h0s3.48-.55,7.03,4.55c.91,1.31-1.03,4.92,1.58,7.72,2.6,2.8,1.5,3.92,8.32,3.63,6.81-.29,27.27,3,33.73-.48,6.46-3.47,28.47-14.43,32.31-34.43,4.42-22.99,4.1-33.59-12.31-66.15Z" style="fill:#d1a67b;"/><g style="clip-path:url(#clippath-1);"><g><path d="M66.15,60.23s-15.33-14.6-19.69-12.04,2.5,27.14,2.5,27.14c0,0,3.3-4.79,9.04-9.19,4.96-3.81,8.15-5.91,8.15-5.91Z" style="fill:#473513;"/><path d="M102.37,60.23s15.33-14.6,19.69-12.04c4.36,2.56-2.05,26.15-2.05,26.15,0,0-5.05-4.01-9.49-8.2-4.09-3.87-8.15-5.91-8.15-5.91Z" style="fill:#473513;"/><path d="M80.84,70.77c.24-.11,.78-.04,1.09-.35,.23-.23,.22-.76,.5-1.01,.26-.23,.52-.5,.83-.69s.61-.5,.96-.59c.33-.09,.74,.34,1.12,.37,.44,.03,.88-.26,1.23-.19,.45,.09,.67,.62,.99,.77,.4,.19,.85,.14,1.08,.43s.67,.59,.78,1c.1,.35,0,.81,.03,1.24,.04,.37-.12,.78-.1,1.21,.02,.38,.11,.77,.13,1.19,.01,.38,.4,.76,.42,1.17,.02,.38-.3,.8-.26,1.22,.03,.29-.11,.68-.1,1.14,0,.34,.1,.72,.1,1.14,0,.36,.4,.74,.4,1.15,0,.37-.28,.74-.29,1.14,0,.37,.26,.76,.24,1.15s-.64,.73-.66,1.12,.51,.79,.49,1.17-.73,.72-.76,1.1,.61,.81,.58,1.19-.46,.74-.5,1.11,.4,.81,.36,1.18c-.04,.39-.22,.76-.26,1.12-.05,.39-.51,.74-.55,1.14s-.19,.78-.22,1.18,.2,.81,.17,1.21,.14,.8,.12,1.2,.25,.8,.23,1.2-.21,.79-.22,1.19-.51,.79-.52,1.18,.35,.81,.35,1.2,.07,.8,.06,1.19,.05,.81,.04,1.19c0,.41-.38,.8-.4,1.18-.01,.42,.06,.81,.04,1.19-.02,.43-.06,.82-.1,1.18-.05,.45,.36,.94,.29,1.26-.13,.56-.72,.66-.95,.75-.35,.15-.54,.09-.92-.25-.25-.23-.78-.31-1.04-.7-.2-.31-.1-.84-.3-1.23-.18-.34-.21-.76-.39-1.14-.17-.35-.94-.44-1.11-.82s-.21-.79-.37-1.16,0-.88-.15-1.25-.62-.62-.77-.99-.13-.83-.28-1.19c-.17-.39-.53-.66-.69-1.01-.18-.39,.02-.94-.16-1.27-.22-.41-.72-.57-.92-.83-.24-.31-.62-.47-.86-.76s-.2-.83-.44-1.11-.52-.56-.75-.85-.45-.61-.68-.91-.42-.63-.62-.95-.17-.74-.34-1.09-.63-.53-.75-.9c-.12-.35-.2-.72-.28-1.11-.07-.35,.24-.77,.2-1.16-.03-.36-.69-.71-.69-1.11s.33-.8,.34-1.18-.13-.81-.1-1.19,.13-.79,.17-1.17,.34-.75,.4-1.13-.31-.88-.23-1.25,.28-.77,.38-1.14,.72-.61,.84-.97-.3-.96-.16-1.31,.31-.75,.47-1.1,.31-.75,.49-1.09c.2-.37,.87-.44,1.04-.74,.22-.38,.54-.62,.72-.89,.26-.41,.37-.73,.56-.96,.35-.42,.37-.85,.63-.97Z" style="fill:#473513;"/><path d="M82.47,62.89c-.24,1.23-.31,.9-.63,2.44-.14,.7-.5,1.49-.66,2.43-.13,.76-.21,1.6-.34,2.49-.12,.79-.8,1.55-.9,2.42-.09,.81-.13,1.66-.2,2.52s.48,1.7,.44,2.55-.32,1.66-.32,2.5,.14,1.67,.18,2.51,.46,1.64,.54,2.47,.21,1.64,.35,2.46-.15,1.73,.06,2.54,.24,1.7,.52,2.48,.35,1.75,.73,2.48,1.06,1.4,1.55,2.07,1.52,.88,2.14,1.45,1.31,.88,2.05,1.32c.69,.41,1.06,1.41,1.79,1.79s1.52,.6,2.26,.95,1.32,1.04,2.08,1.37,1.73,.08,2.49,.38,1.37,1.02,2.13,1.29,1.72,.01,2.49,.26,1.54,.55,2.32,.77,1.49,.78,2.27,.98,1.72-.13,2.5,.05,1.48,.97,2.26,1.12,1.72-.25,2.51-.12,1.52,1,2.31,1.11c.83,.11,1.7-.21,2.49-.13,.84,.08,1.65,.35,2.43,.39,.86,.04,1.68-.75,2.45-.76,.89-.01,1.69,.3,2.43,.22,.93-.1,1.81,.08,2.46-.14,.69-.23,1.52-.91,1.9-1.88,.27-.67,.08-1.64,.21-2.59,.1-.76,.46-1.6,.47-2.51,.01-.79-.19-1.64-.25-2.53-.05-.8-.71-1.58-.81-2.45-.1-.81,.42-1.73,.28-2.58s-.87-1.53-1.04-2.37-.23-1.65-.44-2.48,.34-1.82,.1-2.64-.76-1.53-1.03-2.34-1.15-1.37-1.44-2.17-.28-1.68-.61-2.46-.78-1.49-1.13-2.25-.32-1.72-.7-2.47-.65-1.58-1.07-2.31-1.28-1.21-1.73-1.9-.93-1.41-1.43-2.07-.93-1.42-1.48-2.04-1.36-1.03-1.96-1.6-.93-1.52-1.59-2.02-1.5-.83-2.22-1.24-1.26-1.11-1.97-1.48-1.64-.4-2.35-.74-1.38-.93-2.11-1.24-1.76,0-2.5-.26c-.78-.28-1.36-1.09-2.11-1.32-.8-.24-1.7,0-2.46-.17-.81-.19-1.49-.95-2.26-1.07-.83-.14-1.69,.1-2.46,.04-.84-.06-1.67-.55-2.44-.52-.85,.04-1.55,1.03-2.3,1.18-.84,.17-1.74-.13-2.44,.18-.78,.34-1.58,.68-2.16,1.19-.62,.54-.55,1.56-.92,2.28s-.6,1.32-.71,2.17Z" style="fill:#d28728;"/><path d="M83.29,60.3c1.74,.59,1.26,.79,3.33,1.6,.99,.39,2.06,1.07,3.31,1.6,1.06,.46,1.93,1.49,3.08,2.04,1.08,.52,2.22,.94,3.3,1.53,1.08,.59,2.26,.98,3.27,1.63,1.07,.69,2.38,.98,3.28,1.73,1.02,.84,1.59,2.02,2.28,2.9,.83,1.07,1.73,2.04,1.89,3.15,.14,.99-.08,2.31-.32,3.8-.18,1.12-.78,2.27-1.15,3.59-.32,1.14-1.09,2.19-1.52,3.44-.4,1.14-.86,2.28-1.35,3.49-.46,1.14-.72,2.37-1.26,3.54s-.23,2.67-.8,3.8-1.86,1.87-2.47,2.97-.47,2.66-1.12,3.73-1.46,2.11-2.16,3.13-1.46,2.13-2.2,3.1c-.8,1.03-2.17,1.54-2.98,2.44-.89,.98-1.94,1.66-2.84,2.44-1.03,.89-1.94,1.63-2.94,2.19-.94,.52-1.78,1.75-3.08,2.01-1.09,.22-2.41-.72-3.7-.66-1.14,.05-2.36,1.25-3.62,1.17-1.15-.07-2.29-.95-3.52-1.12-1.16-.16-2.38-.14-3.59-.39s-2.3-.63-3.48-.95-2.33-.56-3.48-.93-2.26-.82-3.39-1.25-1.97-1.49-3.06-1.99-2.7,.01-3.75-.55-1.91-1.59-2.9-2.22-2.27-1.04-3.2-1.76c-.98-.76-1.9-1.62-2.73-2.43-.89-.87-1.07-2.32-1.77-3.25-.75-.99-1.65-1.8-2.14-2.86s-.71-2.27-.91-3.44-1.02-2.39-.87-3.62,1.09-2.27,1.26-3.41c.19-1.2-.06-2.45,.16-3.57,.23-1.2,.8-2.29,1.07-3.4,.3-1.19,1.06-2.18,1.42-3.26,.38-1.17,.16-2.49,.61-3.53,.49-1.14,1.57-1.88,2.14-2.86,.62-1.06,.4-2.68,1.14-3.54,.79-.93,2.04-1.42,2.97-2.11s1.84-1.66,2.95-2.11,2.35-.44,3.57-.62c1.11-.17,2.33-.72,3.58-.68,1.24,.04,2.38,.42,3.51,.32,1.23-.11,2.5,.33,3.62,.1,1.2-.25,2.37-.61,3.47-.95,1.17-.36,2.41-.47,3.48-.87,1.15-.42,2.13-1.15,3.21-1.52,1.16-.4,2.22-.84,3.34-1.08s2.29-1.37,3.47-1.34,2.44,.43,3.62,.84Z" style="fill:#d28728;"/><path d="M80.05,119.96c.2-1.08,.45-.75,1.03-1.98,.27-.57,.4-1.33,.79-2.06,.32-.6,1-1.07,1.39-1.73,.36-.6,.41-1.44,.83-2.07,.4-.59,.99-1.09,1.44-1.68s.87-1.19,1.36-1.73,1.3-.76,1.84-1.26,.88-1.22,1.47-1.64,1.18-.9,1.83-1.24,1.39-.49,2.09-.71,1.42-.15,2.16-.22c.78-.07,1.51-.04,2.24-.03,.78,.01,1.5,.04,2.23,.14,.77,.1,1.62-.26,2.32-.07,.75,.2,1.36,.8,2.03,1.09,.72,.31,1.4,.61,2.01,1.01,.65,.43,1.28,.85,1.8,1.37,.54,.55,.87,1.24,1.25,1.87s.68,1.31,.89,2.04,.23,1.43,.24,2.2c0,.73-.05,1.44-.23,2.2s-.29,1.48-.49,2.19-.22,1.52-.47,2.21-.36,1.51-.67,2.18-1.01,1.19-1.4,1.82-.88,1.2-1.36,1.76-.88,1.23-1.47,1.7-1.22,.84-1.91,1.2c-.64,.33-1.33,.63-2.08,.86-.68,.21-1.45,.17-2.23,.28-.7,.11-1.37,.59-2.1,.72s-1.42,.33-2.15,.45-1.47,.15-2.2,.24-1.49-.04-2.21,0-1.47-.12-2.18-.17c-.75-.06-1.46-.07-2.15-.27s-1.56-.19-2.17-.59-1.04-1.06-1.51-1.67c-.41-.54-.59-1.27-.9-2-.26-.62-.46-1.3-.63-2.07-.15-.66-.26-1.37-.34-2.15-.07-.68-.4-1.43-.41-2.21Z" style="fill:#d28728;"/><path d="M63.91,96.25c.73-.46,1.64-.38,2.32-.67,.79-.34,1.4-.89,2.13-1.02,.83-.15,1.58,.06,2.34,.13,.81,.08,1.59,.02,2.33,.3s1.44,.64,2.12,1.06,1.23,.98,1.84,1.5,1.42,.81,1.99,1.36,1.28,1,1.83,1.57,.57,1.71,1.12,2.25c.6,.6,1.21,1.17,1.79,1.63,.68,.55,1.7,.39,2.37,.66s1.24,.97,2.02,1.11c.72,.13,1.49,.37,2.26,.43s1.53-.13,2.29-.12c.76,.01,1.52-.04,2.27-.03s1.55-.49,2.28-.47c.8,.03,1.5,.83,2.2,.92,.83,.11,1.63-.1,2.25,.16,.77,.32,1.58,.7,1.88,1.38,.32,.73,.52,1.66,.44,2.47-.07,.77-.9,1.38-1.27,2.11-.35,.69-.39,1.67-.97,2.23s-1.52,.57-2.26,.91c-.7,.32-1.35,.95-2.18,1.02-.75,.06-1.61,.03-2.44-.17-.91-.22-1.59-.65-2.21-.7-.94-.06-1.66,.02-2.32,.18s-1.25,.92-2.13,1.07c-.62,.11-1.43-.13-2.36-.13-.66,0-1.45,.24-2.33,.15-.68-.07-1.45-.23-2.3-.37-.72-.12-1.54-.3-2.36-.54-.73-.21-1.54-.4-2.31-.69-.72-.27-1.47-.62-2.22-.95s-1.47-.65-2.18-1.03-1.1-1.31-1.78-1.72-1.48-.65-2.13-1.09-1.22-1.05-1.83-1.53-1.11-1.16-1.67-1.69c-.6-.57-1.7-.65-2.19-1.24-.53-.65-.95-1.42-1.31-2.08-.4-.75-.16-1.69-.28-2.43-.13-.8-.23-1.52,.03-2.29,.23-.7,.45-1.49,1.05-2.14,.48-.52,1.14-1.02,1.89-1.5Z" style="fill:#473513;"/><path d="M85.41,56.88c.3,.05,.57,.72,.82,1.34,.14,.36,.37,.8,.5,1.32,.1,.41,.19,.88,.27,1.37,.07,.43-.14,.93-.08,1.42,.06,.44,.53,.86,.58,1.33,.04,.45-.25,.94-.21,1.42s.32,.9,.35,1.37,0,.93,.02,1.39-.03,.93-.03,1.39,0,.93,0,1.39-.2,.93-.21,1.39,.19,.94,.17,1.4-.32,.92-.35,1.38-.15,.92-.19,1.38,.08,.95,.03,1.4c-.06,.48-.08,.94-.15,1.38-.08,.48-.46,.87-.56,1.3-.11,.49-.24,.9-.37,1.31-.17,.5,.15,1.14-.06,1.49-.29,.49-.85,.59-1.22,.7-.43,.13-.87,.19-1.33,.27s-.85,.6-1.32,.62-.91-.55-1.38-.57-.95,.53-1.41,.48-.86-.47-1.32-.55-.97,.21-1.42,.11-.84-.44-1.29-.55-.8-.52-1.25-.65-.98,.07-1.42-.07-.77-.59-1.2-.74-.84-.37-1.27-.53-.94,.02-1.38,.03-.85,.04-1.31,.09c-.41,.04-.83-.03-1.31-.04-.4,0-.82,0-1.29-.1-.39-.08-.94,.16-1.39-.01-.37-.15-.52-.86-.93-1.09-.35-.2-.77-.32-1.16-.59-.34-.23-.99-.1-1.35-.39-.32-.26-.33-.94-.68-1.25s-.97-.32-1.28-.64-.21-1.04-.5-1.39-.95-.43-1.21-.8-.32-.9-.54-1.29-.45-.8-.64-1.2-.45-.81-.6-1.23c-.16-.45-.24-.9-.33-1.33-.1-.47-.16-.91-.19-1.35-.03-.48,.2-.89,.28-1.32,.08-.47-.07-.97,.14-1.36s.62-.63,.99-.92c.3-.25,.68-.5,1.12-.81,.34-.25,.73-.5,1.14-.78,.36-.24,.56-.79,.98-1.05,.38-.24,.95-.19,1.36-.44,.39-.23,.8-.43,1.21-.66s.54-.92,.96-1.14,.92-.25,1.33-.46,.82-.43,1.24-.63,1.01-.03,1.43-.22,.8-.48,1.23-.66,.74-.68,1.17-.84,.86-.4,1.3-.54,1.02,.14,1.46,.02,.83-.54,1.28-.63c.47-.1,.92-.28,1.37-.34,.48-.06,.97-.02,1.41-.03,.49,0,.97,.26,1.43,.27,.5,0,.97,.03,1.42,.05,.5,.02,.99-.15,1.44-.12,.51,.03,.96,.31,1.4,.35,.52,.05,1.01-.07,1.43-.02,.55,.07,1.01,.2,1.4,.27,.92,.16,.78-.24,1.47-.08Z" style="fill:#473513;"/><path d="M85.91,55.26c1.19,.21,.64,.13,2.39,.23,.64,.04,1.45,.42,2.42,.39,.71-.02,1.5-.34,2.4-.41,.73-.06,1.56,.05,2.43-.05,.87-.1,1.64-.25,2.36-.29,.9-.05,1.69-.16,2.38-.14,.97,.03,1.82-.35,2.45-.26,1.63,.23,1.76,.92,1.8,.46,.03-.44,.35-1.22,.75-2.02,.25-.5,.46-1.37,1.42-1.67,.55-.17,1.36,.34,2.27,.31,.6-.02,1.53-.24,2.31,.44,.51,.45,.71,1.39,1.27,2.09,.46,.56,.68,1.36,1.16,2.06,.43,.62,1.18,1.05,1.62,1.75,.4,.65,1.18,1.11,1.58,1.82,.38,.67,.03,1.77,.41,2.48s1.4,1.04,1.76,1.75,.1,1.7,.45,2.42,1.03,1.26,1.35,1.98,.51,1.51,.82,2.23,1.16,1.25,1.45,1.97-.12,1.77,.15,2.49c.29,.77,.64,1.48,.88,2.2,.27,.79,.31,1.6,.51,2.31,.24,.83,.36,1.59,.5,2.29,.19,.93,.29,1.62,.28,2.24-.01,1.2,0,1.55-.54,1.8-.56,.27-1.1,.17-2.03-.27-.63-.3-1.32-.68-2.04-1.17-.63-.43-1.25-.94-1.9-1.43s-1.59-.58-2.21-1.06c-.67-.51-1.22-1.12-1.83-1.55-.76-.54-1.42-1.03-1.99-1.28-.83-.37-1.09-1.2-1.63-1.7s-1.35-.77-2.02-1.32c-.53-.44-1.19-.84-2.03-1.23-.62-.29-1.35-.55-2.24-.79-.68-.18-1.52,.09-2.4-.06-.71-.12-1.38-1.11-2.24-1.19-.73-.07-1.54-.11-2.4-.16-.81-.04-1.56,.07-2.22,.07-.83,0-1.56,.33-2.2,.4-.86,.09-1.65-.07-2.24,.1-.86,.25-1.24,1.07-1.75,1.42-.65,.45-1,1.08-1.58,1.51s-1.79,.02-2.74-.06c-.89-.08-1.5-.51-2.11-1.03s-1.13-.94-.86-1.95c.19-.69-.54-1.34-.9-2.19-.28-.68-.16-1.63-.59-2.35-.4-.68-.65-1.48-1.04-2.16-.42-.74-1.14-1.29-1.36-1.98-.27-.85-.45-1.76-.11-2.44s.24-1.49,.37-2.28,.29-1.71,.6-2.42,1.23-1,2.05-1.45c.57-.31,1.23-.84,2.2-.97,.68-.09,1.48,.1,2.41,.12Z" style="fill:#473513;"/><path d="M57,94.95c.2-1.08,.55-.72,1.13-1.94,.27-.57,.76-1.14,1.15-1.87,.32-.6,.33-1.44,.73-2.1,.36-.6,1.11-.99,1.53-1.62,.4-.59,.61-1.34,1.06-1.92s1.04-1.02,1.53-1.57,.68-1.39,1.21-1.89,1.46-.54,2.04-.96,1.12-.92,1.76-1.25,1.28-.67,1.98-.89,1.41-.15,2.15-.22c.78-.07,1.51-.41,2.24-.4,.78,.01,1.55-.06,2.28,.04,.77,.1,1.44,.6,2.15,.78,.75,.2,1.51,.28,2.18,.58,.72,.31,1.5,.48,2.11,.89,.65,.43,1.33,.87,1.85,1.39,.54,.55,.74,1.39,1.12,2.02s.84,1.28,1.05,2.01-.05,1.49-.04,2.26c0,.73,0,1.43-.17,2.2s-.3,1.47-.51,2.19-.32,1.48-.57,2.17-.58,1.39-.89,2.06-.49,1.45-.88,2.08-.89,1.22-1.38,1.79-.94,1.2-1.53,1.67-1.44,.47-2.12,.83c-.64,.33-1.15,1.03-1.9,1.26-.68,.21-1.45,.29-2.23,.41-.7,.11-1.45,.1-2.18,.24-.71,.13-1.44,.23-2.17,.35s-1.41,.55-2.13,.64-1.51-.3-2.23-.26-1.49,.5-2.2,.44c-.75-.06-1.54-.1-2.23-.3s-1.4-.64-2.01-1.04-1.18-.92-1.65-1.53c-.41-.54-.83-1.2-1.14-1.94-.26-.62-.11-1.44-.29-2.22-.15-.66-.54-1.34-.62-2.12-.07-.68-.17-1.46-.18-2.24Z" style="fill:#473513;"/><path d="M183.04,156.77c-.37,.41-.47,1.41-1.17,2.16-.48,.52-.28,1.81-.88,2.45-.51,.54-1.14,1.06-1.72,1.67-.53,.55-2.13,.11-2.7,.7-.54,.56-.89,1.33-1.46,1.9s-1.35,.88-1.92,1.45-.43,1.83-1,2.39-1.46,.8-2.03,1.34c-.59,.56-.93,1.37-1.5,1.9-.61,.55-1.34,.94-1.92,1.44-.63,.55-1.55,.68-2.14,1.15-.68,.55-1.27,1.05-1.86,1.45-.79,.55-1.45,.76-2.02,.98-.6,.24-.81,1.8-1.68,2.24-.66,.33-1.52,.44-2.3,.86-.68,.37-1.88-.09-2.63,.34-.69,.39-1.35,.91-2.07,1.34s-1.47,.73-2.18,1.17-.83,1.74-1.52,2.19-1.4,.85-2.07,1.31-1.96,.12-2.61,.59-.96,1.51-1.58,2.01c-.67,.53-1.27,1.1-1.86,1.62-.66,.59-1.58,.86-2.09,1.41-.64,.69-.41,1.88-.75,2.48-.31,.55-1.7,.32-2.55,.87-.61,.4-.94,1.41-1.76,1.79-.69,.32-1.73-.09-2.54,.22-.73,.28-1.46,.57-2.27,.82-.76,.24-1.36,1.06-2.17,1.28-.78,.21-1.39,1.22-2.2,1.41s-1.87-.9-2.67-.75c-.81,.15-1.53,.78-2.34,.9s-1.67-.11-2.48-.02-1.66-.23-2.46-.19c-.85,.05-1.63,.59-2.42,.58-.87-.01-1.77,.84-2.53,.75-.89-.1-1.68-.76-2.39-.98-.9-.27-1.54-.88-2.06-1.36-.63-.57-.61-1.22-.57-2.11,.03-.73-.67-1.59-.55-2.4,.11-.74,.99-1.37,1.18-2.16,.17-.73,.5-1.42,.74-2.19,.23-.72,.39-1.46,.7-2.2s.1-1.65,.46-2.36,1.34-1,1.76-1.68-.16-1.99,.32-2.62,1.26-1.03,1.78-1.62,1.16-1.06,1.73-1.61,.93-1.34,1.55-1.83,1.75-.24,2.41-.68,.83-1.65,1.53-2.03,1.85,.24,2.58-.08,1.3-.85,2.06-1.11,1.41-.67,2.18-.88,1.67,.46,2.45,.31,1.28-1.6,2.02-1.78c.79-.19,1.85,.76,2.57,.55,.78-.23,1.41-.88,2.12-1.14,.77-.28,1.54-.5,2.22-.8,.74-.33,1.09-1.37,1.75-1.73,.71-.39,1.55-.46,2.17-.88,.67-.45,1.23-.98,1.81-1.46,.62-.51,.83-1.36,1.36-1.9s1.58-.66,2.06-1.26,.91-1.28,1.35-1.91,1.21-1.09,1.62-1.75,.19-1.7,.57-2.38,.44-1.54,.84-2.22,1.53-.9,1.94-1.56c.38-.61,1.11-1.17,1.5-1.95,.33-.67,.56-1.47,.89-2.25,.3-.7,.91-1.34,1.21-2.1,.28-.72-.84-2.01-.55-2.77s1.82-1.01,2.1-1.77-.43-1.86-.15-2.61,1.54-1.12,1.83-1.87,.01-1.71,.31-2.45,1.25-1.21,1.56-1.93,.03-1.75,.36-2.45c.36-.75,.56-1.55,.93-2.22,.4-.74,1.54-.95,1.96-1.57,.48-.71,.91-1.23,1.42-1.77,.61-.63,.73-1.58,1.38-1.9,.74-.37,1.36,.17,2.17,.3,.68,.11,1.32,.14,2.16,.52,.67,.31,1.3,.67,2.03,1.13,.64,.4,1.26,.82,1.93,1.34,.61,.47,2.12-.08,2.74,.47,.58,.52,1.09,1.22,1.67,1.8s.75,1.51,1.29,2.12,1.17,1.12,1.67,1.76,.84,1.39,1.29,2.05,1.23,1.16,1.63,1.85,.04,1.81,.37,2.53,.34,1.56,.61,2.31,.71,1.42,.89,2.19-.12,1.58-.04,2.37,1.03,1.53,.99,2.32,.47,1.75,.3,2.54-1.16,1.37-1.48,2.12-1,1.22-1.45,1.91c-.42,.65-1.19,.95-1.74,1.57Z" style="fill:#d28728;"/><path d="M149.45,121.59c-.56,1.08-1.61-.61-3-.1-.66,.24-.96,1.54-1.75,1.99-.65,.37-1.93-.09-2.62,.45-.6,.48-1.31,1.03-1.89,1.67-.51,.57-.02,1.96-.49,2.68-.42,.65-1.26,1.04-1.62,1.82-.32,.7-1.15,1.27-1.41,2.09s-.13,1.76-.35,2.52c-.24,.85-.35,1.68-.55,2.45-.23,.85,.01,1.79-.21,2.55-.24,.84-.77,1.57-1.05,2.32-.3,.8-.9,1.45-1.29,2.18s-1.07,1.21-1.61,1.89c-.49,.61-.33,1.93-.99,2.54-.57,.52-1.87,.27-2.6,.8-.63,.45-1.34,.83-2.1,1.3-.67,.41-.96,1.56-1.75,1.99-.73,.4-1.34,.92-2.04,1.36s-1.75,.34-2.42,.81-.91,1.55-1.57,2.05-1.56,.68-2.2,1.19-1.67,.59-2.3,1.11-1.16,1.21-1.79,1.73-1.27,1.07-1.91,1.58-1.15,1.25-1.79,1.74-1.58,.66-2.25,1.11c-.71,.47-1.15,1.33-1.85,1.72-.75,.41-1.37,1.18-2.12,1.47s-1.86-.36-2.67-.22-1.58,.37-2.41,.33c-.77-.04-1.61,.38-2.44,.3-.78-.07-1.57-.4-2.37-.51s-1.6-.2-2.39-.34-1.66-.06-2.43-.25-1.45-.94-2.18-1.18c-.81-.26-1.41-.86-2.1-1.17-.8-.36-2.08,.19-2.66-.24-.74-.55-.91-1.66-1.16-2.33-.26-.7-.14-1.46,.3-2.31,.31-.58,.57-1.44,1.28-2.09,.62-.57,1.38-.9,1.81-1.49,.49-.67,.25-1.64,.56-2.32,.33-.74,1.42-1.15,1.61-1.88,.2-.78,.58-1.53,.71-2.28,.14-.8,.29-1.55,.44-2.28,.17-.8-.52-1.84-.19-2.52s.84-1.53,1.49-2.04c.54-.43,1.67,.05,2.53-.23,.65-.21,1.25-1,2.13-1.11,.8-.1,1.66,.17,2.42-.04s1.32-1.03,2.04-1.33,1.75-.03,2.44-.42,1.14-1.2,1.79-1.64,1.55-.59,2.17-1.07,.75-1.61,1.35-2.11,1.64-.54,2.23-1.05,.97-1.34,1.56-1.83c.63-.53,1.66-.49,2.27-.94,.67-.49,.79-1.81,1.45-2.16,.74-.39,1.76-.11,2.49-.25,.85-.17,1.48-.69,2.11-1.24,.59-.52,1.47-.92,1.91-1.68,.4-.68,.5-1.59,.82-2.4,.29-.75,1.04-1.4,1.29-2.2s.02-1.74,.26-2.53-.22-1.86,.04-2.62c.28-.84,1.45-1.29,1.79-1.99,.4-.83,.66-1.6,1.2-2.11s1.08-1.36,1.92-1.73c.72-.32,1.83,.37,2.68,.16,.79-.2,1.5-.78,2.34-.89s1.68,.15,2.51,.11,1.7-.68,2.5-.65c.91,.04,1.7,.6,2.45,.72,1.03,.16,2.2-.46,2.74-.16,.49,.27,1.05,1.07,1.71,1.73,.49,.5,.79,1.29,1.31,1.91,.48,.57,1.24,.96,1.71,1.57s.97,1.23,1.4,1.82c.49,.67,1.16,1.16,1.55,1.71,.79,1.11,1.77,1.49,1.25,2.5Z" style="fill:#d28728;"/><path d="M54.5,145.8c1.13,.21,.5,.29,1.65,1.22,.49,.4,1.89,.03,2.5,.68,.47,.5-.1,1.98,.41,2.65,.43,.56,1.94,.43,2.38,1.12,.38,.6,.05,1.7,.43,2.41,.34,.64,.3,1.48,.63,2.21,.35,.77,.62,1.48,.88,2.22,.28,.8,1.48,1.28,1.67,2.04,.21,.82,.22,1.68,.35,2.45,.14,.84-.36,1.73-.26,2.5,.1,.85,1.21,1.54,1.3,2.31,.1,.85-.76,1.8-.6,2.56,.17,.83,1.25,1.3,1.57,2.02s.39,1.5,.98,2.11c.53,.56,.62,1.59,1.19,2.13s1.94,.21,2.51,.75,.52,1.72,1.07,2.27,1.76,.51,2.27,1.09,.16,1.89,.61,2.52,.7,1.31,1.05,2.01,1.78,.98,2,1.74c.2,.68,.21,1.48,.43,2.26,.2,.71-.67,1.76-.44,2.51s.42,1.49,.66,2.22,1.18,1.22,1.46,1.92,0,1.74,.34,2.4c.37,.71,1.92,.63,2.36,1.21,.48,.65,.73,1.24,1.3,1.67,.62,.47,1.04,1.02,1.79,1.17,.58,.11,1.67,.6,2.52,.03,.56-.38,.63-1.61,1.26-2.23,.52-.51,.92-1.17,1.46-1.81,.48-.57,1.44-.81,1.93-1.46,.45-.61,.81-1.33,1.25-2.01s.75-1.37,1.15-2.06,.19-1.66,.56-2.36,1.6-.94,1.93-1.66,.46-1.53,.75-2.25-.11-1.71,.14-2.45,1.76-1.13,1.95-1.88-.24-1.72-.12-2.47c.13-.8,.74-1.58,.77-2.33,.03-.81-1.31-1.53-1.42-2.28-.11-.81-.16-1.44-.44-2.15s.34-2.05-.17-2.65-1.66-.53-2.37-.96-1.04-1.38-1.69-1.8c-.7-.45-1.79-.26-2.41-.71-.68-.49-.82-1.59-1.41-2.08-.65-.53-1.4-.84-1.95-1.36-.61-.58-.94-1.31-1.42-1.89-.55-.65-1.91-.65-2.3-1.28-.45-.72-.84-1.55-1.1-2.26-.29-.79,.3-1.78,.24-2.54-.06-.81-.63-1.68-.44-2.45s.84-1.42,1.24-2.14c.35-.62,1.12-.98,1.9-1.54,.61-.44,1.45-.53,2.25-.94,.69-.36,1.26-1.03,2.06-1.38,.73-.32,1.21-1.34,1.99-1.66s1.98,.54,2.76,.23,1.33-1.15,2.09-1.46,1.46-.82,2.21-1.15,1.87,0,2.59-.35c.77-.38,1.09-1.58,1.76-1.99,.76-.46,1.87-.37,2.45-.87,.68-.59,1.48-1.26,1.84-1.92,.41-.74,.16-1.85,.07-2.7-.09-.8-.46-1.64-1.14-2.2-.54-.45-1.46-.51-2.31-.83-.69-.25-1.51-.14-2.37-.31-.74-.16-1.48-.41-2.32-.51-.76-.1-1.56-.05-2.39-.11-.78-.06-1.57,.12-2.39,.1s-1.57-.77-2.38-.77-1.61-.46-2.42-.44-1.62,0-2.42,.03-1.58,.84-2.38,.88-1.59,.5-2.38,.55-1.68-.86-2.47-.8-1.65-.2-2.44-.14c-.83,.07-1.52,1.44-2.29,1.5-.84,.07-1.74-.94-2.5-.87-.87,.08-1.59,1.18-2.31,1.24-.94,.08-1.79-.21-2.43-.17-.73,.04-1.57,.09-2.4,0-.75-.07-1.55-.23-2.35-.37-.76-.14-1.63,.09-2.41-.09s-1.42-.89-2.18-1.07-1.54-.38-2.3-.56-1.41-1.1-2.15-1.25c-.81-.17-1.66-.15-2.39-.24-.86-.12-1.74-.11-2.44-.07-.93,.05-1.67,.65-2.2,1.08s-1.38,1.14-1.37,2.13c0,.81-.02,1.58-.07,2.39s.35,1.66,.29,2.45c-.07,.84-.49,1.64-.52,2.41-.03,.87,0,1.75,.08,2.49,.11,.88,1.14,1.33,1.56,1.96s.85,.72,1.72,1.02c.64,.22,1.12,1.45,2.08,1.44Z" style="fill:#d28728;"/><path d="M54.4,134.21c-.21,.87-.12,1.85,0,2.51,.15,.81,.89,1.47,1.43,2.01,.51,.5,.97,1.51,1.74,1.83,.66,.27,1.62,.17,2.42,.34,.72,.15,1.59-.32,2.39-.24,.75,.08,1.49,.72,2.27,.76s1.56-.53,2.33-.53,1.56-.42,2.31-.42c.8,0,1.59,.3,2.32,.31,.84,.01,1.59,.73,2.28,.78,.93,.07,1.93-.72,2.49-.52,.91,.32,.47,1.07-.03,1.98-.41,.75,.03,1.9-.36,2.44-.55,.75-.76,1.6-1.14,2.04-.77,.91-1.34,.2-.29,.58,.46,.17,.97,.88,1.99,1.1,.62,.13,1.19,1.08,2.06,1.25,.71,.14,1.68-.63,2.54-.49,.75,.12,1.47,.8,2.3,.9,.77,.1,1.55,.56,2.36,.63s1.63-.13,2.44-.09,1.63-.09,2.43-.09,1.65,.29,2.44,.24,1.48-1.45,2.25-1.56c.82-.12,1.81,.8,2.56,.6,.8-.21,1.65-.44,2.36-.75,.76-.34,1.02-1.5,1.62-1.97,.64-.5,1.35-.82,1.78-1.49s.73-1.35,.9-2.18c.15-.72,.09-1.49,.02-2.36-.06-.83-.16-1.62-.14-2.33,.03-.84,.42-1.58,.56-2.28,.17-.82,.73-1.39,1.02-2.05,.34-.74,.04-1.84,.52-2.41s1.16-1.16,1.79-1.62,1.31-.9,2.01-1.27,1.52-.42,2.24-.74,1.33-.77,2.05-1.08,1.57-.23,2.27-.57,1.47-.53,2.14-.91c.72-.41,1.65-.48,2.38-.91s.85-1.86,1.57-2.29,1.44-.88,2.13-1.31c.74-.46,2-.07,2.66-.52,.75-.51,.75-1.93,1.35-2.4,.77-.61,1.36-1.05,1.8-1.56,.79-.92,1.53-1.49,.75-1.93-.33-.19-1.19,.39-2.37,.7-.65,.17-1.42,.31-2.27,.6-.69,.23-1.42,.52-2.21,.82-.7,.26-1.54,.27-2.31,.58-.71,.28-1.43,.6-2.19,.91-.71,.29-1.64,.12-2.39,.44s-1.12,1.37-1.86,1.69-1.66,.12-2.39,.44-1.45,.62-2.18,.93-1.44,.67-2.16,.99-1.5,.54-2.22,.86-1.17,1.32-1.89,1.62-1.47,.63-2.18,.93c-.75,.32-1.52,.54-2.23,.83-.76,.32-1.62,.33-2.31,.61-.78,.32-1.42,.87-2.1,1.14-.83,.32-1.86-.21-2.51,0-1.02,.34-1.65,.77-2.13,.81-.84,.06-1.64-.02-2.45-.02-.84,0-1.67,.71-2.48,.67s-1.67-.13-2.48-.22c-.83-.09-1.6-.61-2.4-.74s-1.66-.14-2.45-.3-1.46-1.03-2.24-1.23-1.95,.88-2.72,.67-1.62-.43-2.39-.65c-.82-.23-1.3-1.57-2.07-1.78-.83-.23-1.82,.29-2.59,.11-.84-.2-1.61-.51-2.38-.63-.87-.13-1.68-.4-2.45-.39-.87,.02-1.69,.23-2.44,.48s-1.96,.15-2.6,.72c-.56,.5-1.02,1.43-1.48,2.22-.37,.64-.27,1.64-.58,2.5-.25,.71-1.02,1.37-1.23,2.25Z" style="fill:#473513;"/><path d="M64.96,131.69c.76,.43,1.36,1.3,2.23,1.74,.81,.41,1.76,.61,2.61,1.02s1.71,.75,2.54,1.16c.85,.42,1.61,.99,2.41,1.41,.87,.46,1.73,.82,2.47,1.27,.88,.54,1.57,1.15,2.18,1.68,.88,.77,1.52,1.38,1.56,2.13s-.43,1.4-1.54,2.1c-.82,.52-1.5,1.32-2.36,1.68s-1.96,.13-2.89,.33c-.92,.2-1.8,.81-2.77,.86s-1.92,.03-2.89-.06c-.92-.09-1.82-.58-2.77-.79-.9-.2-1.75-.63-2.69-.93-.88-.28-1.88-.29-2.79-.65-.86-.34-1.84-.51-2.72-.92s-1.8-.92-2.63-1.38c-.9-.49-1.48-1.44-2.27-1.96-.86-.57-1.67-1.1-2.39-1.69-.8-.66-1.58-1.25-2.2-1.95-.7-.78-1.38-1.51-1.83-2.32-.5-.91-.87-1.85-1.03-2.78s-.19-2,.06-2.98c.27-1.1,.8-1.93,1.4-2.5,.64-.61,1.53-.76,2.65-.77,.79,0,1.67,.19,2.74,.5,.81,.23,1.62,.69,2.6,1.09,.8,.33,1.84,.31,2.77,.76,.8,.38,1.58,.94,2.48,1.41,.8,.41,1.57,.97,2.44,1.45,.79,.44,1.78,.61,2.65,1.1Z" style="fill:#473513;"/><path d="M183.67,124.49c-.1,.76-.61,1.13-.96,1.89-.31,.69,.16,1.86-.32,2.55-.44,.63-1.35,.95-1.91,1.57-.52,.58-.88,1.35-1.48,1.92s-1.1,1.18-1.72,1.7-1.3,.95-1.95,1.44-1.34,.89-2,1.35-1.31,.94-1.98,1.38-1.55,.59-2.22,1c-.7,.44-1.21,1.15-1.88,1.54-.73,.43-1.52,.69-2.16,1.06-.77,.45-1.5,.81-2.11,1.16-.93,.53-1.79,.74-2.21,1.01-.58,.39-.91,1.53-1.78,1.87-.67,.27-1.45,.63-2.31,.89-.71,.22-1.75-.46-2.59-.24-.73,.19-1.4,.84-2.23,1.04-.74,.19-1.45,.69-2.27,.89-.75,.18-1.58,.18-2.4,.38-.75,.19-1.57,.23-2.39,.43-.76,.19-1.67-.13-2.48,.08-.76,.19-1.45,.76-2.25,.98s-1.5,.6-2.25,.8-1.72-.25-2.47-.06-1.53,.48-2.29,.65-1.46,.79-2.22,.96-1.64,0-2.4,.14c-.8,.16-1.6,.1-2.37,.23-.81,.14-1.44,1.23-2.2,1.34-.81,.11-1.69-.64-2.46-.57-.81,.08-1.58,.19-2.35,.21-.82,.03-1.58-.09-2.34-.12-.81-.03-1.56-.11-2.32-.21-1.34-.18-1.76-.29-1.38-1.06,.25-.51,1.07-.82,1.91-1.5,.56-.45,.81-1.53,1.58-2.03,.65-.41,1.73-.21,2.5-.64,.69-.38,1.25-1.07,2.02-1.46,.71-.36,1.63-.34,2.41-.69s1.18-1.39,1.95-1.71c.75-.31,1.48-.76,2.26-1.06s1.74-.07,2.52-.33,1.61-.4,2.4-.64,1.37-1.3,2.17-1.5,1.9,.82,2.7,.65,1.25-1.59,1.94-1.77c.81-.22,1.56-.24,2.21-.47,.81-.29,1.91,.32,2.51,0,.79-.4,.97-1.53,1.49-1.95,.68-.56,.85-1.23,1.23-1.79,.47-.68,.85-1.26,1.21-1.89s1.16-1.09,1.81-1.61c.5-.41,1.08-1.07,1.96-1.36,.74-.25,1.33-.61,2.04-1.18,.61-.5,1.99-.33,2.57-1.01,.52-.62,.71-1.6,1.19-2.32s.46-1.67,.87-2.42,.81-1.46,1.17-2.22,.94-1.44,1.25-2.2c.33-.81,1.18-1.42,1.44-2.17,.3-.88,.21-1.83,.4-2.55,.29-1.08,.55-2.01,.55-2.53,0-.6,.52-.56,1.85,.01,.64,.27,1.47,.51,2.3,.96,.67,.37,1.54,.56,2.29,1.01,.68,.41,1.15,1.25,1.87,1.7,.69,.43,1.06,1.39,1.76,1.84s1.35,.96,2.03,1.41,1.77,.38,2.43,.82c.72,.49,1.77,.44,2.41,.88,.76,.52,1.11,1.5,1.7,1.9,1.25,.87,1.15,.51,1.71,1.61Z" style="fill:#473513;"/><path d="M30.42,151.23c.86,.27,.8,.16,1.75,.76,.43,.27,.25,1.75,.85,2.08,.48,.26,1.12,.4,1.7,.68,.51,.24,1.12,.4,1.71,.64,.53,.22,1.33-.2,1.92,0,.55,.19,.93,.99,1.53,1.15,.56,.16,1.36-.61,1.96-.48s.95,1.39,1.56,1.48,1.26-.36,1.87-.31,1.17,.63,1.79,.65,1.23,.03,1.84,0c.64-.02,1.27-.46,1.89-.5s1.31,.42,1.94,.38,1.29-.14,1.91-.19,1.19-1.12,1.81-1.17c.65-.06,1.28-.21,1.89-.27,.66-.06,1.35,.45,1.96,.39,.66-.07,1.31,.12,1.92,.06,.67-.06,1.27-.59,1.86-.62,.69-.04,1.34,.05,1.91,.06,.74,0,1.46-.25,1.97-.13,.8,.18,1.22,.88,1.36,1.44,.13,.53,.79,.37,1.62,.59,.53,.14,1.07,.56,1.81,.63,.59,.05,1.22,.44,1.91,.48,.62,.03,1.28-.18,1.95-.15,.63,.03,1.24,.59,1.9,.64s1.3-.21,1.95-.14,1.33-.18,1.98-.07,1.38-.11,2.01,.05,1.19,.68,1.8,.9,1.47,.03,2.05,.32c.7,.36,.83,1.43,1.08,1.91,.3,.58-.09,1.08-.32,1.73-.2,.55-.7,.71-1.2,1.22-.42,.43-.4,1.36-.98,1.71-.54,.32-1.32,0-1.95,.21s-1.04,1.04-1.69,1.1-1.42,.55-2.05,.43-1.1-1.24-1.75-1.3-1.29-.14-1.94-.15-1.27,.65-1.92,.66-1.29-.72-1.94-.7-1.25,.64-1.9,.66-1.27,.03-1.92,.03-1.28,.01-1.92,0-1.28,.06-1.93,.01-1.17-.96-1.81-1.04-1.31,.3-1.95,.17-1.23-.62-1.82-.67c-.63-.06-1.29,1.08-1.9,1.09s-1.31-1.08-1.92-1.01-1.11,1.04-1.73,1.14-1.15,.46-1.76,.58-1.32-.39-1.94-.27-1.15,.46-1.77,.58-1.11,.82-1.74,.92c-.59,.09-1.29-.34-1.93-.27-.6,.07-1.27-.61-1.91-.57-.6,.04-1.19,.38-1.83,.4-.6,.01-1.21,.13-1.85,.11s-1.24,.19-1.87,.18-1.24-.6-1.87-.6-1.24,.4-1.87,.4-1.24,.67-1.86,.67-1.25-.57-1.87-.57-1.25-.26-1.87-.27-1.25-.3-1.86-.31-1.27,.39-1.88,.37-1.29,.47-1.9,.43c-.65-.04-1.29-.04-1.89-.1-.65-.07-1.11-1.24-1.68-1.35-.66-.12-1.39,.36-1.93,.19-.67-.21-.84-1.08-1.29-1.38-.58-.39-1.71-.19-1.85-.77-.12-.51-.16-1.21-.23-1.95-.05-.59,.93-1.29,.91-1.97-.02-.61-.55-1.23-.56-1.89s-.5-1.27-.49-1.92-.2-1.3-.18-1.93,.08-1.3,.11-1.92c.03-.67,.93-1.28,.96-1.88,.04-.71-.42-1.39-.38-1.94,.07-1.18-.6-1.14,.33-1.32s.78-.06,1.74,.11,1.02-.2,1.98-.03,.82,.91,1.78,1.08c.96,.17,1.14-.82,2.1-.65s.88,.61,1.84,.78,.89,.54,1.85,.72,1.04-.69,2.02-.68c1.03,.01,1.1,.21,2.03,.5Z" style="fill:#473513;"/><path d="M111.04,210.75c0-.69-.44-2.1,.32-2.76,.53-.46,1.92-.04,2.74-.48,.66-.35,1.1-1.41,1.91-1.73,.72-.29,1.53-.56,2.34-.83,.75-.25,1.86,.57,2.66,.35s1.63-.07,2.43-.27,1.52-.53,2.32-.69,1.45-1.08,2.24-1.22,1.65-.12,2.44-.23,1.58-.71,2.37-.79c.85-.09,1.72,.43,2.48,.39,.88-.05,1.68-.23,2.42-.21,.69,.01,1.51,.48,2.44,.49,.75,.01,1.58-.84,2.46-.83,.77,0,1.59-.57,2.45-.57,.79,0,1.6,1.59,2.45,1.59,.8,0,1.62-.35,2.45-.37s1.6-.9,2.43-.92,1.64,.59,2.47,.56c.81-.03,1.64,.09,2.46,.05s1.65,.11,2.47,.05,1.53-1.48,2.34-1.55,1.75,1.01,2.55,.92,1.69,.08,2.48-.03c.83-.12,1.63-.44,2.41-.59,.84-.16,1.79,.22,2.55,.03,.84-.21,1.11-2.19,1.84-2.44,.84-.29,1.67-.15,2.33-.5,.81-.43,1.24-.9,1.73-1.43,.46-.49,1.89-.16,2.58-.74,.56-.47,.97-1.21,1.65-1.71,.61-.45,1.65-.32,2.33-.78,.64-.43,.73-1.74,1.42-2.17s1.7-.22,2.4-.62,1.46-.59,2.16-.97c.71-.37,.79-1.98,1.5-2.32s1.88,.26,2.6-.05,1.13-1.53,1.86-1.8c.77-.28,1.89,.58,2.63,.37,.8-.23,1.31-1.62,2.06-1.74,.84-.14,1.74,.97,2.48,.98,.87,0,1.6-.26,2.29-.01,.78,.29,.81,1.05,1.27,1.71,.41,.58,1.4,.85,1.51,1.76,.09,.72-.12,1.53-.05,2.36,.07,.74,1.03,1.45,1.1,2.26,.06,.75-.75,1.59-.7,2.4,.04,.76,.65,1.51,.68,2.31s.18,1.55,.2,2.34-.63,1.57-.63,2.35,.6,1.56,.59,2.35-.56,1.55-.58,2.33-.67,1.53-.71,2.3,1.53,1.68,1.46,2.46-.69,1.53-.78,2.3-.96,1.46-1.07,2.22,.37,1.67,.22,2.42c-.16,.79,.07,1.67-.13,2.4-.21,.78-1.29,1.28-1.54,1.99-.27,.77-.18,1.65-.51,2.32-.36,.74-.88,1.37-1.31,1.96-.48,.67-1.54,.61-2.11,1.07s-.97,1.14-1.67,1.59c-.63,.4-.6,2.02-1.32,2.41-.67,.36-1.6,.36-2.33,.71s-1.58,.3-2.32,.62-1.29,1.01-2.04,1.28-1.65,.08-2.4,.33-1.45,.65-2.21,.86-1.62,.07-2.37,.26-1.36,1.2-2.13,1.35-1.61,.2-2.37,.31-1.65-.19-2.41-.12c-.81,.07-1.62-.44-2.38-.43-.83,0-1.57-.08-2.31-.16-.83-.09-1.73,.41-2.43,.2-.81-.24-1.55-.7-2.14-1.12s-1.24-.81-2.04-1.19c-.67-.32-1.29-.89-2.09-1.19-.71-.27-1.77,.42-2.57,.17-.74-.23-1.41-.69-2.2-.91-.75-.21-1.3-1.29-2.08-1.48-.77-.19-1.8,.75-2.58,.58s-1.31-1.51-2.1-1.67-1.49-.83-2.27-.97-1.81,1.01-2.59,.89-1.48-1.04-2.25-1.15c-.82-.12-1.75,.8-2.51,.71-.83-.11-1.54-.95-2.29-1.03-.87-.09-1.61-.94-2.33-1-.95-.07-1.83,1.34-2.46,1.34s-1.4-.64-2.33-.65c-.71,0-1.47-.47-2.32-.51-.74-.03-1.63,1.33-2.44,1.26-.75-.07-1.36-1.69-2.15-1.81s-1.79,1.16-2.56,1-1.1-1.99-1.86-2.21-1.44-.38-2.17-.67c-.73-.28-1.71,.1-2.4-.27s-.95-1.35-1.59-1.79-2.11,.15-2.69-.39-1.34-1.04-1.82-1.66-.48-1.64-.86-2.34c-.36-.67,.28-1.76,0-2.52-.25-.71-.42-1.37-.59-2.16-.15-.73-.6-1.39-.67-2.2-.07-.75-.23-1.49-.22-2.31Z" style="fill:#d28728;"/><path d="M88.95,171.86c.67-1.01,.83-.91,2.08-1.77,.57-.39,1.94,.19,2.71-.31,.62-.41,1.4-.68,2.14-1.14,.65-.41,.69-1.9,1.42-2.34,.67-.4,1.68-.3,2.4-.71s1.07-1.41,1.79-1.8,2.15,.64,2.88,.28,.9-1.86,1.63-2.2,1.63-.37,2.37-.68,1.45-.82,2.2-1.09,2,.87,2.76,.64,1.08-2.29,1.85-2.47c.81-.18,1.7-.32,2.48-.41,.83-.1,1.75,.63,2.53,.64,.84,.01,1.52,.75,2.28,.91s1.66-.37,2.47-.23c.75,.13,1.49,.57,2.3,.68,.76,.11,1.51,.56,2.32,.66s1.6-.14,2.4-.06,1.54,.56,2.34,.62,1.59,.05,2.38,.1,1.61-.25,2.4-.21,1.61-.52,2.39-.5,1.59-.17,2.37-.17c.8,0,1.61,1.51,2.39,1.5s1.57-1.37,2.34-1.4c.82-.04,1.61,.12,2.38,.06,.82-.06,1.61-.13,2.36-.22,.83-.1,1.66,.07,2.39-.07,.86-.16,1.7-.16,2.38-.37,.9-.27,2.08-.07,2.61-.43s.77-1.44,1.71-1.45c.69,0,1.41,.5,2.26,.67,.71,.14,1.7-.49,2.49-.23,.71,.23,1.6,.24,2.35,.55,.7,.29,1.3,.95,2.02,1.31s.95,1.52,1.64,1.91,1.03,1.23,1.69,1.65,1.98-.18,2.62,.28,1,1.27,1.6,1.76,1.35,.83,1.92,1.36,1.56,.71,2.08,1.27,1.29,1.07,1.75,1.68,.99,1.37,1.38,2.02-.73,2.15-.44,2.86,.71,1.31,.86,2.06,.45,1.44,.43,2.21,.38,1.72,0,2.45c-.34,.65-1.77,.49-2.37,1.1-.52,.52-1,.95-1.68,1.45-.61,.43-1.13,.93-1.85,1.34-.66,.37-1,1.36-1.75,1.71-.69,.33-1.27,.99-2.02,1.3-.71,.29-1.41,.71-2.17,.99s-1.83-.52-2.59-.27-1.26,1.19-2.03,1.42-1.32,1.15-2.09,1.36-1.67-.12-2.44,.08-1.39,.97-2.17,1.16-1.58,.22-2.35,.39-1.76-.67-2.53-.52-1.67-.37-2.45-.22-1.51,.49-2.29,.62c-.78,.14-1.33,1.6-2.11,1.73s-1.78-1.12-2.56-1-1.52,.51-2.3,.62-1.62-.13-2.39-.03-1.44,1.28-2.21,1.37-1.67-.56-2.44-.47c-.81,.09-1.6,0-2.37,.08-.81,.08-1.58,.27-2.34,.33-.83,.07-1.62,0-2.36,.05-.84,.06-1.63-.13-2.36-.09-.88,.04-1.63,.63-2.32,.64-.73,0-1.51,.59-2.38,.7-.75,.09-1.55,.17-2.38,.31-.76,.13-1.6,.05-2.41,.21-.77,.15-1.39,1.12-2.2,1.29s-1.74-.56-2.54-.4-1.71-.43-2.51-.28-1.55,.36-2.35,.49-1.39,1.67-2.19,1.77-1.71-.76-2.51-.71-1.59,1.1-2.38,1.11c-.82,.01-1.63-.76-2.42-.81s-1.68,.2-2.46,.06-1.25-1.51-2-1.76-1.72,.16-2.42-.22-1.46-.67-2.08-1.19-1.69-.67-2.2-1.32c-.47-.61-.56-1.6-.94-2.36-.34-.68-.79-1.41-1.05-2.22-.23-.73-.93-1.45-1.09-2.29-.14-.75,1.31-1.77,1.23-2.62-.07-.76-1.53-1.49-1.54-2.33-.01-.77,.34-1.6,.38-2.44,.03-.77,1.35-1.47,1.43-2.31,.07-.77-.81-1.67-.7-2.49,.1-.77,.22-1.57,.36-2.39,.13-.77-.34-1.99-.17-2.8Z" style="fill:#d28728;"/><path d="M64.11,189.1c-.5-.85-.96-1.12-.19-1.63,.3-.2,.82-.48,1.86-.35,.52,.06,1.21,.03,1.99,.21,.56,.13,1.04,.85,1.76,1.06,.58,.17,1.24,.22,1.93,.44,.72,.24,1.47,.32,2.15,.46,.75,.15,1.48,.17,2.17,.21,.75,.04,1.43-.48,2.13-.55,.75-.07,1.47,.13,2.15-.03,.73-.17,1.36-.52,2.02-.75,.71-.25,1.68,.24,2.33-.02,.71-.29,1.14-1.18,1.77-1.42,.73-.29,1.37-.9,2.02-1.03,.76-.15,1.41,.83,2.08,1.06,.6,.21,1.17,.28,1.71,.95,.43,.52,1.31,.75,1.77,1.35,.43,.55,.54,1.37,.98,1.96s1.01,1.03,1.43,1.64,.27,1.54,.65,2.15,1.32,.89,1.67,1.51,.43,1.42,.73,2.06,.45,1.38,.69,2.03c.26,.7,.55,1.34,.7,2.01,.16,.74,.93,1.42,.93,2.1,0,.75-.26,1.59-.51,2.25s-1.04,1.12-1.72,1.53c-.55,.33-1.37,.14-2.14,.34-.64,.17-1.31,.24-2.08,.34-.68,.09-1.33,.77-2.08,.81-.7,.04-1.44-.64-2.18-.63s-1.42,.21-2.15,.2-1.45,.61-2.17,.6-1.45-.55-2.16-.56-1.46,.43-2.16,.44c-.75,0-1.47-.1-2.16-.06-.76,.04-1.51-.11-2.17-.02-.79,.11-1.4,.61-2.01,.82s-1.39,.19-2.19,.3c-.67,.1-1.42,0-2.18,.03-.7,.03-1.43,.24-2.18,.23s-1.47,.25-2.21,.19-1.4-.69-2.12-.78-1.45-.15-2.16-.28c-.73-.14-1.41-.43-2.09-.61-.74-.19-1.62,.15-2.26-.08-.74-.27-1.06-1.31-1.64-1.63-.73-.4-1.2-.72-1.6-1.2-.52-.61-.7-.9-.53-1.63,.15-.64-.73-1.3-.89-2-.14-.62-.04-1.31-.35-1.96-.28-.59-.53-1.22-.9-1.82-.35-.57-.37-1.38-.75-1.95s-1.11-.9-1.49-1.46-.48-1.32-.82-1.89c-.37-.61-1.36-.87-1.62-1.46-.3-.66,.05-1.52-.05-2.15-.11-.7,.19-1.19,.43-1.82,.26-.69,.08-1.53,.56-1.98s1.29-.38,1.96-.6c.6-.2,1.19-.18,1.92-.21,.64-.03,1.35-.82,2.07-.72,.64,.09,1.27,.54,1.96,.72,.63,.16,1.22,.55,1.89,.79,.62,.22,1.11,.78,1.75,1.06s1.37,.21,1.99,.53,1.16,.61,1.75,.95Z" style="fill:#d28728;"/><path d="M52.66,257.87c15.36-.54,25.68-.46,34.49,0s16.81,2.34,16.81-7.6-37.31,2.94-41.66,0c-4.34-2.94-21.58-6.15-21.96-1.54-.38,4.61-2.97,9.68,12.32,9.14Z" style="fill:#d28728;"/><path d="M73.44,176.17c.54-.05,1.15,.59,1.72,.56,.54-.03,1.08-.18,1.65-.2s1.1-.01,1.66-.02,1.1,.21,1.67,.22,1.12-.81,1.69-.8,1.1,.24,1.67,.26,1.11,.02,1.68,.05,1.08,.62,1.65,.64c.47,.02,1.05-.45,1.66-.42,.51,.03,1.04,.39,1.62,.42,.52,.03,1.08-.16,1.65-.13,.53,.03,1.07,.16,1.63,.2s1.09,.04,1.64,.08,1.07,.32,1.62,.37,1.09,.17,1.63,.22,1.1,.09,1.64,.14,1.14-.29,1.67-.24c.57,.06,1.15-.23,1.67-.17,.58,.07,1.09,.52,1.59,.59,.61,.08,1.09,.52,1.55,.61,.83,.16,1.22,.19,1.38,.36,.25,.28,.23,.53-.23,1.23-.25,.38-.32,1.08-.83,1.51-.38,.32-1.19,.11-1.73,.42-.45,.26-.79,.74-1.35,.97-.48,.2-.99,.42-1.56,.6-.51,.15-.99,.53-1.57,.66-.52,.11-1.15-.27-1.73-.18-.53,.08-1.04,.44-1.62,.49-.54,.05-1.07,.57-1.66,.59-.54,.02-1.12-.62-1.7-.63-.54,0-1.09-.04-1.67-.07s-1.14,.25-1.7,.24-1.13,.03-1.69,.03-1.13-.16-1.69-.15-1.12,.34-1.68,.36-1.14-.23-1.7-.2-1.11,.42-1.66,.45-1.11,.24-1.66,.28-1.2-.66-1.74-.61c-.58,.05-1.11,.41-1.65,.47-.58,.06-1.19-.33-1.73-.27-.58,.07-1.13,.21-1.67,.27-.59,.07-1.05,.94-1.58,1-.61,.07-1.22-.39-1.73-.33-.65,.07-1.23-.18-1.69-.15-1.09,.07-1.68,.37-1.49,.06,.15-.24-.35-.46-1.1-.96-.41-.27-.63-.98-1.13-1.31-.46-.3-.85-.68-1.29-1.01-.47-.36-1.2-.36-1.53-.73-.44-.48-.28-1.01-.28-1.5,0-.46-.12-.88,.49-1.32,.36-.26,.72-.82,1.35-1.06,.45-.17,1.04-.22,1.65-.38,.49-.13,.98-.55,1.57-.67,.5-.1,1.17,.45,1.76,.35,.52-.08,1.05-.25,1.63-.33,.52-.07,1.06-.26,1.64-.33,.53-.06,1.05-.49,1.63-.54Z" style="fill:#473513;"/><path d="M149.85,171.21c.52-.31,1.36,.06,1.88-.18s.83-1.09,1.37-1.28,1.18-.24,1.74-.38,1.18-.12,1.76-.2,1.19,.3,1.77,.27,1.17-.92,1.75-.91,1.17,.47,1.75,.52,1.13,.4,1.71,.49,1.16,.18,1.72,.29,1.14,.3,1.71,.42c.59,.13,1.36-.59,1.91-.46,.59,.14,1.1,.53,1.65,.65,.61,.13,1.19,.11,1.73,.19,.63,.1,1.15,.34,1.68,.34s1.04-.14,1.65-.21c.53-.06,1.05-.29,1.63-.39,.54-.09,1.12,.02,1.69-.1s1.03-.5,1.59-.63,1.24,.34,1.79,.21,.97-.84,1.51-.98,1.25,.3,1.79,.17c.57-.14,.99-.85,1.53-.97,.58-.13,1.26,.31,1.79,.22,.61-.12,1.19-.03,1.69-.08,.71-.08,1.33-.61,1.73-.51,.43,.11,1,.17,1.66,.3,.51,.1,.93,.99,1.52,1.1,.54,.1,1.12,.11,1.69,.22s1.27-.43,1.81-.31c.58,.14,1.15,.28,1.67,.43,.6,.18,.88,1.06,1.33,1.28,.68,.32,.81,.44,.92,.84,.12,.45,.97,.87,1.26,1.53,.23,.53,.52,1.1,.71,1.7s.47,1.23,.48,1.83-.28,1.26-.59,1.82c-.26,.47-.57,1.16-1.16,1.55-.46,.31-1.08,.53-1.66,.76-.52,.2-1.19,.07-1.79,.23-.54,.14-1.05,.62-1.65,.73-.56,.1-1.19-.05-1.79,.04s-1.19-.19-1.79-.12-1.19-.14-1.78-.07-1.09,.87-1.67,.94-1.13,.4-1.72,.47-1.19-.08-1.77,0-1.29-.55-1.86-.45c-.53,.09-.98,1.15-1.59,1.21-.55,.05-1.18-.56-1.79-.54-.56,.02-1.13,.38-1.74,.38-.56,0-1.14-.17-1.74-.19s-1.16,.26-1.76,.22-1.11-.6-1.7-.65-1.13-.23-1.72-.29-1.2,.37-1.78,.3-1.04-.91-1.62-.99-1.24,.5-1.82,.41-1.08-.57-1.66-.67-1.22,.22-1.79,.11-1-.92-1.57-1.04-1.19,.03-1.76-.09-1.27,.31-1.83,.18-1.05-.6-1.61-.75-1.18-.13-1.73-.28c-.6-.17-1.3,.02-1.83-.15-.6-.2-.81-1.38-1.32-1.58-.6-.24-1.34,.04-1.83-.2-.59-.29-1.13-.55-1.57-.84-.57-.38-.62-1.14-.96-1.52-.48-.53-.56-.82-.65-1.31-.11-.61-.15-.83,.2-1.34,.3-.45,.27-1.31,.83-1.64Z" style="fill:#473513;"/><path d="M78.19,231.27c2.77,.06,5.34,2.08,8.56,2.57,3.21,.49,10.1-1.29,10.1-1.29l1.17-5.72s-10.48,1-11.26-1.75c-.79-2.75-10.91-8.85-10.91-8.85,0,0-3.76,12.88-3.82,13.49s6.17,1.54,6.17,1.54Z" style="fill:#d28728;"/><path d="M63.86,204.23c.92,0,1.93,0,2.63,.17,.88,.21,1.49,.88,2.11,1.29,.7,.47,1.37,.93,1.85,1.56s.75,1.47,1.15,2.16,.77,1.51,1.25,2.12,1.36,.86,2.11,1.23c.64,.31,1.33,.88,2.28,.87s1.9-.35,2.64-.09c.86,.3,1.67,.81,2.31,1.35s.92,1.51,1.44,2.21,1.32,1.19,1.8,1.9,.86,1.5,1.42,2.14,1.24,1.08,1.99,1.52c.81,.46,1.39,1.22,2.01,1.73,.8,.64,1.39,1.31,1.75,1.92,.52,.91,.46,1.62-.48,2.13-.54,.29-1.35,.3-2.52,.36-.79,.04-1.64,.2-2.54,.18-.83-.02-1.69,0-2.56-.06s-1.75,.19-2.58,.11c-.89-.08-1.72-.43-2.53-.53-.94-.11-1.79-.33-2.53-.44-1.43-.22-2.35-.37-2.47-.46-.13-.11-1.25,.24-2.61,.65-.79,.24-1.67,.49-2.56,.62s-1.77,.01-2.56-.19c-.87-.22-1.9-.37-2.28-1.28-.22-.51-.27-1.37-.41-2.32-.1-.68-.31-1.45-.37-2.28-.05-.72-.04-1.5-.07-2.31-.03-.74,.15-1.52,.14-2.3s-.09-1.53-.08-2.3,.03-1.54,.04-2.3-.08-1.56-.06-2.3c.02-.81,.12-1.58,.14-2.3,.03-.86,.35-1.62,.38-2.28,.06-1.42-1.05-1.69-.21-2.46Z" style="fill:#473513;"/><path d="M100.65,232.95c.38-.99,.32-.85,1.13-1.78,.4-.46,1.03-.76,1.72-1.15,.55-.3,1.12-.71,1.89-.86,.62-.12,1.32-.1,2.1-.06,.83,.05,1.56-.17,2.22-.42,.72-.27,1.4-.6,1.97-1.1s.94-1.18,1.42-1.77,1.03-1.13,1.49-1.71c.49-.62,.96-1.22,1.5-1.69,.58-.52,1.26-.79,1.99-.98,1.19-.3,2.01-.33,2.39,.21s.47,1.47,.47,2.49c0,.74-.17,1.57-.2,2.45-.03,.79-.2,1.63-.14,2.45s.1,1.66-.16,2.39-.88,1.31-1.41,1.92-1.06,1.13-1.74,1.58-1.32,.89-2.08,1.17-1.51,.69-2.28,.81c-.65,.1-1.52-.17-2.44-.06-.74,.09-1.52,.44-2.36,.53-.79,.09-1.59,.24-2.39,.32s-1.66-.12-2.43-.05c-.88,.09-1.69,.18-2.4,.25-1.44,.14-2.35,1.58-2.29,.38,.07-1.43,.31-1.39,.84-2.72s.67-1.28,1.18-2.61Z" style="fill:#473513;"/><path d="M143.8,232.99c-.14-.91-.5-1.43-.07-2.01s.78-1.54,1.62-1.83c.65-.23,1.58,.05,2.43-.04,.71-.08,1.5,.59,2.32,.59,.74,0,1.52-.87,2.33-.82,.75,.05,1.43,1.02,2.22,1.1s1.57-.33,2.35-.22,1.52,.26,2.29,.38c.77,.13,1.54,.17,2.3,.3s1.59,0,2.34,.14,1.36,1.15,2.1,1.3c.79,.16,1.54,.32,2.27,.47,.8,.17,1.59,.23,2.29,.39,.84,.19,1.64,.24,2.3,.37,1.06,.22,1.93,.06,2.36,.09,.51,.03,1.23,.66,2.26,.82,.69,.11,1.49,.16,2.35,.29,.74,.12,1.71-.95,2.53-.83,.76,.11,1.36,1.47,2.17,1.58s1.67-.59,2.46-.5c.79,.09,1.54,.53,2.32,.6s1.6,.22,2.37,.26c.82,.04,1.63-.55,2.38-.55,.85,0,1.59-.23,2.31-.31,.89-.1,1.66,.06,2.3-.18,.89-.34,2.06-.49,2.27-1.18s.62-1.11,1.25-1.75c.53-.53,.95-1.17,1.67-1.66,.65-.44,.91-1.62,1.65-2.01s1.8-.05,2.54-.37,1.21-1.46,1.93-1.74c.84-.32,1.81-.11,2.48-.34,1.39-.47,1.11-1.08,1.98-.23s.46,.65,.16,2.16c-.15,.73,.08,1.66-.11,2.58-.17,.79-.71,1.55-.9,2.41s-.67,1.59-.86,2.42-.08,1.77-.28,2.56c-.23,.89-1.26,1.5-1.49,2.22-.34,1.08,.29,2.38,.01,2.82-.3,.46-1.58,.09-2.69,.12-.68,.02-1.47,.13-2.35,.05-.73-.07-1.46-.61-2.29-.72-.76-.1-1.53-.29-2.33-.4-.78-.1-1.6,.02-2.39-.07s-1.61-.05-2.39-.12c-.82-.07-1.63,.03-2.39,.02-.85-.02-1.66,.05-2.37,.13-.9,.1-1.89-.1-2.49,.22-.63,.33-1.29,.41-2.16,.57-.73,.14-1.44,.35-2.29,.4-.76,.05-1.54,.83-2.36,.83-.78,0-1.57-.56-2.38-.6s-1.58-.24-2.38-.29-1.66,.66-2.44,.61-1.63,.17-2.4,.14c-.84-.04-1.62-.43-2.37-.42-.89,0-1.67-.04-2.36,.05-.62,.08-1.44-.38-2.38-.39-.72,0-1.52,.36-2.37,.29-.75-.06-1.48-.59-2.3-.69-.76-.1-1.69,.76-2.49,.62s-1.48-.7-2.26-.87-1.41-.88-2.17-1.09c-.77-.21-1.75,.27-2.49,.01s-1.14-1.44-1.85-1.75c-.75-.33-1.43-.61-2.09-.99-.72-.42-1.54-.53-2.11-1.01-.64-.54-.75-1.35-1.16-1.98-.44-.68-.58-1.17-.7-1.95Z" style="fill:#473513;"/><path d="M97.21,165.58c-.22-1.05,.04-1.56,.56-2,.49-.41,1.13-.69,2.1-.71,.7-.01,1.52-.2,2.39-.07,.73,.11,1.48,.5,2.29,.67,.75,.16,1.59,.05,2.38,.25s1.52,.42,2.29,.62,1.41,.95,2.17,1.14,1.61,.23,2.36,.38c.82,.17,1.64,.16,2.37,.26,.87,.12,1.66-.27,2.37-.3,.95-.03,1.5-.14,2.02-.55s1.64-.13,2.43-.53c.65-.33,1-1.46,1.77-1.77,.69-.28,1.56-.25,2.33-.51,.72-.25,1.59-.12,2.35-.35s1.46-.56,2.22-.76,1.47-.6,2.23-.78,1.51-.52,2.26-.68c.79-.18,1.52-.58,2.26-.72,.82-.16,1.76,.58,2.47,.46,.89-.15,1.62-.57,2.26-.64,1.15-.13,1.03,.23,.39,1.24-.32,.51-.47,1.42-1.12,2.11-.49,.52-1.42,.7-2.04,1.28-.55,.5-.72,1.51-1.35,2.03-.59,.49-1.48,.65-2.12,1.13s-1.09,1.17-1.74,1.62-1.6,.45-2.25,.87-1.29,.93-1.95,1.3c-.72,.41-1.31,.98-1.98,1.28-.79,.36-1.57,.5-2.24,.66s-1.47,.48-2.38,.72c-.74,.2-1.44,.84-2.3,1.05-.77,.19-1.68-.05-2.52,.13-.79,.17-1.53,.77-2.36,.91s-1.71-.23-2.54-.14-1.64,.32-2.47,.36-1.67-.03-2.49-.07-1.63-.38-2.43-.51-1.56-.45-2.34-.71-1.76-.09-2.48-.5-1-1.37-1.61-1.95-1.49-.83-1.95-1.55c-.43-.66-.96-1.36-1.28-2.18-.28-.73-.16-1.64-.34-2.5Z" style="fill:#473513;"/><path d="M111.6,200.48c-.63-.47-1.25-1.4-1.42-2.31-.13-.73,.38-1.64,.52-2.55,.12-.76,.41-1.53,.71-2.36,.27-.75,.4-1.6,.81-2.36,.38-.71,.69-1.52,1.19-2.22s.9-1.44,1.47-2.07,1.36-1.02,2.01-1.56c.63-.53,1.61-.56,2.33-1s1.3-.98,2.08-1.3,1.51-.6,2.33-.8,1.6-.41,2.43-.49,1.65-.13,2.48-.13,1.68-.37,2.52-.31,1.59,.83,2.42,.93,1.77-.57,2.59-.45,1.66,.26,2.47,.39,1.57,.77,2.38,.9,1.69,.02,2.5,.12c.85,.1,1.68,0,2.48,.04,.86,.04,1.71,.71,2.51,.65,.86-.07,1.77-.16,2.54-.39s1.67-.63,2.37-1.08,1.07-1.42,1.79-1.68,1.56-.72,2.33-.83c.8-.11,1.64,.78,2.42,.83,.81,.06,1.51,.22,2.25,.43,.8,.23,1.82-.13,2.46,.25,.74,.44,.93,1.43,1.37,2.01,.5,.67,.69,1.23,.64,2.02-.04,.7-.14,1.35-.72,2.08-.47,.59-1.08,1.08-1.82,1.59-.63,.44-1.13,1.24-1.92,1.62-.71,.35-1.52,.63-2.31,.93-.75,.29-1.64,.28-2.44,.53s-1.41,1.08-2.21,1.3-1.84-.47-2.63-.28-1.51,.86-2.3,1.03c-.84,.18-1.57,.76-2.34,.92-.88,.18-1.71,.27-2.44,.41-.99,.2-1.96-.28-2.54-.14-.74,.19-1.37-.16-2.22-.42-.72-.22-1.47-.4-2.24-.78-.72-.35-1.57-.49-2.29-.84s-1.43-.99-2.16-1.21c-.83-.26-1.81-.49-2.56-.35s-1.51,.79-2.13,1.51c-.47,.54-.74,1.38-1.3,2.04-.49,.58-1.41,.84-1.97,1.44s-.83,1.39-1.42,1.94-1.06,1.25-1.7,1.72-1.3,1.06-2.01,1.4-1.58,.54-2.36,.69-1.66,.33-2.48,.22c-.74-.1-1.59-.4-2.37-.76-.67-.3-1.42-.74-2.12-1.26Z" style="fill:#473513;"/><path d="M147.28,207c.53,.02,1.06-.5,1.57-.49s1.04,.32,1.55,.33,1.05,.02,1.56,.02,1.06-1.06,1.56-1.06,1.05,.89,1.55,.89,1.05-.55,1.55-.56c.53,0,1.04-.31,1.55-.31,.53,0,1.06,.55,1.56,.54,.53-.01,1.07,.58,1.57,.57,.54-.01,1.06,.11,1.56,.1,.54-.02,1.01-1.47,1.51-1.49,.54-.02,1.09,1.02,1.59,1.01,.54-.02,1.06,.22,1.56,.21,.54-.02,1.03-.88,1.52-.89,.54-.01,1.07,.68,1.56,.68,.54,0,1.04,.08,1.53,.09,.54,.01,1.02,.23,1.5,.26,.54,.04,1.1-.6,1.58-.53,.38,.06,.9,.76,1.54,.77,.46,0,.98-1.16,1.55-1.17,.48-.01,1.02,.73,1.57,.7,.49-.02,.98-.52,1.52-.55,.5-.03,1.02,0,1.55-.02,.5-.03,1-.4,1.52-.43s1.01-.27,1.53-.3,1.09,1.05,1.61,1.02,1.02-.22,1.54-.25,.99-.86,1.51-.89,1.05,.31,1.57,.28,1.03-.27,1.54-.29,1.07,1.01,1.58,1,1.03-.45,1.54-.46,1.05-.51,1.55-.51c.53,0,1.04,.58,1.54,.59,.54,.02,1.03,.29,1.52,.33,.55,.04,1.08-.34,1.56-.28,.56,.07,1.04,.22,1.49,.32,.59,.13,.84,.62,1.22,.82,.58,.3,.52,.1,.52,.58,0,.6,.45,1.13,.48,1.58,.04,.62,.75,1.1,.75,1.54,0,.54-.06,1.24-.33,1.73-.2,.37-.92,.54-1.38,1-.31,.31-1.14,.11-1.61,.49-.35,.29-.41,1.02-.87,1.37-.37,.29-1.14,.13-1.59,.48-.4,.3,.02,1.83-.41,2.1s-1.49-.52-1.95-.28-.82,.57-1.29,.79-1.03,.1-1.51,.29-.81,.69-1.3,.85-.93,.4-1.43,.53-.83,.95-1.34,1.05-1.21-.91-1.72-.82-.86,1.2-1.37,1.26-1.04,.12-1.55,.15-1.06-.39-1.57-.37-1.02-.3-1.53-.31-1.02,.08-1.53,.05-1.1,.81-1.61,.76-1.05-.13-1.56-.21-1.01-.34-1.51-.44-.72-1.41-1.21-1.54-.97-.26-1.45-.39-1-.16-1.48-.29-.98-.24-1.46-.37-.92-.44-1.4-.58-.99-.21-1.47-.34-1.01-.12-1.49-.26-1.17,.46-1.65,.33-.97-.26-1.45-.39-.99-.17-1.47-.28-.78-1.09-1.27-1.2-1.14,.5-1.63,.4-.97-.26-1.46-.34-.89-.79-1.39-.87-1.06,.32-1.56,.26-.95-.69-1.45-.73-1.03,.1-1.53,.08c-.47-.02-.98,.08-1.51,.07-.48,0-.99,.24-1.5,.23-.49,0-.99,.83-1.5,.83s-.98-1.44-1.49-1.45-1,1.05-1.51,1.04-1-.31-1.5-.31-.99-.76-1.49-.77-1.04,1.44-1.54,1.42-.95-1.53-1.45-1.55-1.07,1.21-1.57,1.18-1.02-.12-1.51-.17c-.51-.04-1.04,.01-1.52-.04-.52-.06-1.03-.21-1.5-.28-.52-.09-.84-1.05-1.3-1.16-.53-.13-.84-.57-1.26-.74-.54-.21-1.27,.26-1.59-.02-.42-.37,0-.77,.06-1.28s-.89-1.34-.66-1.79,1.46-.13,1.86-.49c.35-.32,.08-1.59,.57-1.85,.42-.22,1.21,.22,1.73,.04,.45-.16,.97-.13,1.5-.25,.47-.11,.82-1.02,1.35-1.1,.48-.08,1-.28,1.54-.34,.49-.06,1.02-.16,1.55-.2,.49-.04,1.08,1.06,1.61,1.04,.5-.02,.98-.87,1.51-.88,.5-.01,1.02,.71,1.55,.71s1.01,.28,1.54,.29,1.01,.08,1.54,.1Z" style="fill:#473513;"/></g></g><g><path d="M77.9,189.98s3,6.94,9.28,10.58c6.27,3.64,10.84,3.82,10.84,3.82" style="fill:none; stroke:#000; stroke-linecap:round; stroke-linejoin:round; stroke-width:3.8px;"/><path d="M47.04,70.75c0-2.73-4.49-21.84-1.48-23.19s16.17,6.23,18.52,9.25" style="fill:none; stroke:#000; stroke-linecap:round; stroke-linejoin:round; stroke-width:3.8px;"/><path d="M122.33,70.75c0-2.73,4.49-21.84,1.48-23.19-3.01-1.36-16.17,6.23-18.52,9.25" style="fill:none; stroke:#000; stroke-linecap:round; stroke-linejoin:round; stroke-width:3.8px;"/><path d="M66.92,60.2s5.62-3.64,15.64-3.64,19.14,3.64,19.14,3.64" style="fill:none; stroke:#000; stroke-linecap:round; stroke-linejoin:round; stroke-width:3.8px;"/><path d="M47.04,75.5s-3.28,8.2-3.28,18.17c0,13.92,6.15,21.57,9.49,27.21s2.79,8.42,2.79,8.42" style="fill:none; stroke:#000; stroke-linecap:round; stroke-linejoin:round; stroke-width:3.8px;"/><path d="M55.56,135.75s-4.97,25.78,0,44.36c5.9,22.05,15.22,32.88,17.95,40.25,2.73,7.37,2.47,15.15,2.47,21.7s-3.89,5-3.82,10.92c.07,5.86,4.91,7.64,9.64,7.62,6.83-.03,9.92-2.81,9.92-2.81" style="fill:none; stroke:#000; stroke-linecap:round; stroke-linejoin:round; stroke-width:3.8px;"/><path d="M124.03,212.4c-1.55,4.6-3.83,28.93-2.65,32.03,1.17,3.09,3.61,7.46,.34,11.83-2.89,3.85-8.01,5.38-13.55,4.6-5.54-.78-9.28-3.32-8.54-6.24" style="fill:none; stroke:#000; stroke-linecap:round; stroke-linejoin:round; stroke-width:3.8px;"/><path d="M122.46,75.5s3.86,6.41,4.09,14.6c.22,7.7-3,14.47-1.77,18.47,4.1,13.33,27.84,11.84,46.66,26.66,28.97,22.82,30.77,48.97,30.77,48.97" style="fill:none; stroke:#000; stroke-linecap:round; stroke-linejoin:round; stroke-width:3.8px;"/><path d="M204.27,197.8s6.6,22.78-.77,36.15c-7.37,13.37-25.24,25.78-33.84,26.15-8.6,.37-12.05,0-18.69,0-3.74,0-13.27-.17-17.21-1.8-3.43-1.42-4.84-3.88-4.06-7.81,1.24-6.29,12.01-7.32,12.01-7.32" style="fill:none; stroke:#000; stroke-linecap:round; stroke-linejoin:round; stroke-width:3.8px;"/><path d="M97.01,210.75s1.69,7.44,2.03,17.84,.11,19.46,.11,19.46" style="fill:none; stroke:#000; stroke-linecap:round; stroke-linejoin:round; stroke-width:3.8px;"/></g></svg>