<?xml version="1.0" encoding="UTF-8"?><svg id="eye_13" xmlns="http://www.w3.org/2000/svg" viewBox="0 0 280 280"><g><g><path d="M74.78,131.07c2.55-2.46,25.59-7.89,28.41-6,7.32,4.95,10.38,13.35,5.73,20.55-5.97,9.18-17.16,11.4-24.42,8.28-8.58-3.69-14.94-17.73-9.69-22.8l-.03-.03Z" style="fill:#fff;"/><path d="M99.29,156.24c-5.43,1.98-11.25,1.83-15.78-.09-6-2.58-11.49-9.84-12.78-16.92-.75-4.14,.06-7.65,2.37-9.87h0c3.06-2.97,27.33-9.06,31.47-6.27,8.82,5.97,11.52,15.99,6.39,23.88-3,4.62-7.2,7.65-11.64,9.27h-.03Zm-22.83-23.37c-1.44,1.41-1.2,4.05-.96,5.46,1.02,5.52,5.37,11.37,9.93,13.35,6.42,2.76,16.17,.75,21.45-7.35,4.29-6.6,.39-13.53-5.04-17.19-2.94-.9-22.98,3.87-25.38,5.76v-.03Z"/></g><circle cx="92" cy="137.85" r="11.46"/></g><g><g><path d="M205.19,131.07c-2.55-2.46-25.59-7.89-28.41-6-7.32,4.95-10.38,13.35-5.73,20.55,5.97,9.18,17.16,11.4,24.42,8.28,8.58-3.69,14.94-17.73,9.69-22.8l.03-.03Z" style="fill:#fff;"/><path d="M169.04,146.94c-5.13-7.86-2.43-17.91,6.39-23.88,4.11-2.79,28.38,3.3,31.47,6.27h0c2.28,2.22,3.12,5.73,2.37,9.87-1.29,7.08-6.81,14.34-12.78,16.92-4.53,1.95-10.35,2.07-15.78,.09-4.44-1.62-8.64-4.65-11.64-9.27h-.03Zm9.12-19.86c-5.43,3.66-9.33,10.62-5.04,17.19,5.28,8.1,15.03,10.11,21.45,7.35,4.56-1.95,8.91-7.8,9.93-13.35,.27-1.44,.48-4.05-.96-5.46-2.4-1.89-22.41-6.66-25.38-5.76v.03Z"/></g><circle cx="188" cy="137.85" r="11.46"/></g></svg>