<?xml version="1.0" encoding="UTF-8"?><svg id="eye_17" xmlns="http://www.w3.org/2000/svg" viewBox="0 0 280 280"><path d="M170.99,146.72c-.75,0-1.5-.21-2.19-.6-2.01-1.2-2.67-3.81-1.47-5.82,.99-1.62,3.72-4.08,16.35-6.48,13.14-2.52,20.85,.78,21.69,1.14,2.13,.99,3.06,3.51,2.07,5.64-.99,2.13-3.51,3.06-5.64,2.07,0,0-6.03-2.52-16.53-.51-8.19,1.56-10.71,2.94-11.22,3.27-.81,.84-1.95,1.32-3.09,1.32l.03-.03Zm3.63-2.04,0,0,0,0"/><g><g><path d="M89.69,123.8c6,0,9,3,12,6,5.85,5.85,6,18-1.14,22.77-8.79,5.85-18.33,4.29-22.86-1.77-9-12,3-27,12-27Z" style="fill:#fff;"/><path d="M89.15,158.51c-5.31,0-10.2-2.13-13.32-6.33-4.29-5.7-4.83-12.78-1.5-19.44,3.27-6.51,9.72-11.25,15.33-11.25,6.96,0,10.5,3.54,13.62,6.69,3.57,3.57,5.46,9.27,4.89,14.85-.48,4.98-2.76,9.03-6.39,11.46-4.05,2.7-8.49,4.02-12.66,4.02h.03Zm.54-32.4c-3.9,0-8.73,3.75-11.22,8.7-1.47,2.97-3.3,8.79,1.05,14.61,3.57,4.77,11.49,6.72,19.74,1.23,2.46-1.62,3.99-4.5,4.35-8.07,.42-4.2-.99-8.55-3.57-11.13-2.85-2.85-5.31-5.31-10.38-5.31l.03-.03Z"/></g><ellipse cx="94.34" cy="138.8" rx="12.45" ry="15"/></g></svg>