<?xml version="1.0" encoding="UTF-8"?><svg id="eye_18" xmlns="http://www.w3.org/2000/svg" viewBox="0 0 280 280"><path d="M105.97,145.4c-.51-.33-3.03-1.68-11.22-3.27-10.5-2.01-16.5,.51-16.53,.51-2.13,.99-4.65,.06-5.64-2.07-.99-2.13-.06-4.65,2.07-5.64,.84-.39,8.52-3.66,21.69-1.14,12.6,2.4,15.36,4.86,16.35,6.48,1.2,2.01,.57,4.62-1.47,5.82-.69,.42-1.44,.6-2.19,.6-1.14,0-2.28-.48-3.09-1.32l.03,.03Zm-.54-.72,0,0,0,0"/><g><g><path d="M190.33,123.8c-6,0-9,3-12,6-5.85,5.85-6,18,1.14,22.77,8.79,5.85,18.33,4.29,22.86-1.77,9-12-3-27-12-27Z" style="fill:#fff;"/><path d="M178.21,154.49c-3.63-2.4-5.88-6.48-6.39-11.46-.57-5.58,1.32-11.28,4.89-14.85,3.12-3.12,6.69-6.69,13.62-6.69,5.64,0,12.09,4.74,15.33,11.25,3.33,6.66,2.79,13.74-1.5,19.44-3.12,4.17-8.01,6.33-13.32,6.33-4.17,0-8.61-1.32-12.66-4.02h.03Zm1.77-23.04c-2.58,2.58-3.99,6.96-3.57,11.13,.36,3.57,1.89,6.42,4.35,8.07,8.25,5.49,16.17,3.54,19.74-1.23,4.35-5.82,2.52-11.64,1.05-14.61-2.49-4.95-7.29-8.7-11.22-8.7-5.04,0-7.5,2.46-10.38,5.31l.03,.03Z"/></g><ellipse cx="185.68" cy="138.8" rx="12.45" ry="15"/></g></svg>