<?xml version="1.0" encoding="UTF-8"?><svg id="eye_8" xmlns="http://www.w3.org/2000/svg" viewBox="0 0 280 280"><path d="M108.29,146.94c-1.15,0-2.27-.47-3.08-1.32-.5-.32-3.04-1.69-11.22-3.26-10.5-2.01-16.51,.52-16.57,.54-2.13,.93-4.64-.03-5.6-2.16-.95-2.13-.03-4.61,2.08-5.59,.83-.39,8.52-3.67,21.68-1.15,12.61,2.41,15.37,4.86,16.34,6.49,1.21,2.01,.56,4.63-1.46,5.83-.69,.41-1.44,.61-2.19,.61h0Zm-3.64-2.04,0,0,0-.01h0s0,0,0,0Z"/><path d="M171.69,146.94c-.75,0-1.5-.2-2.19-.61-2.01-1.21-2.67-3.82-1.46-5.83,.98-1.63,3.73-4.07,16.34-6.49,13.15-2.52,20.84,.77,21.68,1.15,2.13,.98,3.07,3.51,2.08,5.64-.98,2.13-3.5,3.07-5.64,2.08-.02,0-6.03-2.53-16.52-.52-8.18,1.57-10.72,2.94-11.22,3.26-.81,.85-1.94,1.32-3.08,1.32h0Zm3.64-2.05,0,0,0-.01h0s0,0,0,0Z"/></svg>