<?xml version="1.0" encoding="UTF-8"?><svg id="eye_12" xmlns="http://www.w3.org/2000/svg" viewBox="0 0 280 280"><g><path d="M89.57,120.53c11.06,0,20.74,8.3,22.12,16.59,1.36,8.18-1.39,20.78-22.12,21.5-17.98,.62-23.89-19.34-20.74-25.65,2.77-5.53,9.68-12.44,20.74-12.45Z" style="fill:#fff;"/><path d="M88.76,161c-7.89,0-14.6-3.69-18.95-10.47-3.97-6.19-5.3-14.19-3.1-18.6,3.33-6.65,11.07-13.75,22.85-13.75,12.77,0,22.95,9.6,24.45,18.56,.59,3.56,.89,10.38-3.78,16.09-4.16,5.08-11.08,7.83-20.59,8.16-.3,0-.59,.01-.89,.01h0Zm.8-38.11c-9.63,0-15.94,5.76-18.63,11.14-1.12,2.24-.76,8.33,2.85,13.94,2.53,3.95,7.24,8.6,15.71,8.29,8.08-.28,13.84-2.44,17.1-6.43,3.49-4.28,3.24-9.56,2.78-12.33-1.15-6.92-9.57-14.63-19.8-14.63Z"/></g><ellipse cx="90.26" cy="137.82" rx="11.75" ry="17.28"/><g><path d="M188.34,120.53c-11.06,0-20.74,8.3-22.12,16.59-1.36,8.18,1.39,20.78,22.12,21.5,17.98,.62,23.89-19.34,20.74-25.65-2.77-5.53-9.68-12.44-20.74-12.45Z" style="fill:#fff;"/><path d="M189.15,161c-.29,0-.59,0-.89-.01-9.5-.33-16.43-3.08-20.59-8.16-4.67-5.71-4.37-12.53-3.78-16.09,1.49-8.96,11.67-18.56,24.45-18.56,11.78,0,19.53,7.1,22.85,13.75,2.21,4.42,.88,12.42-3.1,18.6-4.35,6.78-11.05,10.47-18.95,10.47h0Zm-.8-38.11c-10.23,0-18.65,7.71-19.8,14.62-.46,2.77-.71,8.05,2.78,12.33,3.26,3.98,9.01,6.15,17.1,6.43,8.39,.3,13.18-4.35,15.71-8.29,3.6-5.61,3.97-11.71,2.85-13.95-2.69-5.38-9-11.14-18.63-11.14Z"/></g><ellipse cx="187.65" cy="137.82" rx="11.75" ry="17.28"/></svg>