<?xml version="1.0" encoding="UTF-8"?><svg id="eye_9" xmlns="http://www.w3.org/2000/svg" viewBox="0 0 280 280"><g><g><path d="M79.49,125.38c3.23-1.44,26.75,1.33,28.74,4.08,5.19,7.16,5.21,16.09-1.65,21.25-8.74,6.59-20.01,4.84-25.78-.59-6.8-6.4-7.97-21.76-1.3-24.74h0Z" style="fill:#fff;"/><path d="M93.93,157.39c-5.78,0-11.2-2.12-14.8-5.5-4.75-4.46-7.42-13.18-6.23-20.27,.7-4.15,2.68-7.16,5.59-8.46h0c3.9-1.74,28.78,.85,31.7,4.87,6.25,8.62,5.34,18.98-2.16,24.62-4.4,3.31-9.38,4.73-14.11,4.73h0Zm-13.47-29.78c-1.84,.85-2.52,3.38-2.76,4.82-.93,5.54,1.16,12.53,4.76,15.93,5.08,4.78,14.94,6.23,22.66,.42,6.28-4.73,5-12.59,1.15-17.89-2.46-1.86-22.92-4.22-25.81-3.28h0Z"/></g><ellipse cx="93.05" cy="137.51" rx="12" ry="9" transform="translate(-53.86 214.87) rotate(-83.68)"/></g><g><g><path d="M200.51,125.38c-3.23-1.44-26.75,1.33-28.74,4.08-5.19,7.16-5.21,16.09,1.65,21.25,8.74,6.59,20.01,4.84,25.78-.59,6.8-6.4,7.97-21.76,1.3-24.74h0Z" style="fill:#fff;"/><path d="M186.07,157.39c-4.74,0-9.71-1.42-14.12-4.74-7.5-5.65-8.41-16-2.16-24.62,2.92-4.02,27.81-6.62,31.7-4.87h0c2.91,1.3,4.9,4.31,5.59,8.46,1.2,7.09-1.48,15.81-6.23,20.27-3.59,3.38-9.02,5.5-14.8,5.5Zm10.96-30c-6.35,0-21.25,1.95-23.46,3.68-3.68,5.12-4.96,12.98,1.32,17.7,7.72,5.81,17.58,4.36,22.66-.42,3.6-3.39,5.7-10.39,4.76-15.93-.24-1.44-.92-3.97-2.76-4.82-.45-.15-1.34-.22-2.51-.22h0Z"/></g><ellipse cx="186.95" cy="137.51" rx="9" ry="12" transform="translate(-13.99 21.4) rotate(-6.31)"/></g></svg>