<?xml version="1.0" encoding="UTF-8"?><svg id="eye_16" xmlns="http://www.w3.org/2000/svg" viewBox="0 0 280 280"><path d="M110.1,147.15c-.51-.33-3.03-1.68-11.22-3.27-10.5-2.01-16.5,.51-16.53,.51-2.13,.99-4.65,.06-5.64-2.07-.99-2.13-.06-4.65,2.07-5.64,.84-.39,8.52-3.66,21.69-1.14,12.6,2.4,15.36,4.86,16.35,6.48,1.2,2.01,.57,4.62-1.47,5.82-.69,.42-1.44,.6-2.19,.6-1.14,0-2.28-.48-3.09-1.32l.03,.03Zm-.54-.72,0,0,0,0"/><path d="M198.87,129.72c-5.76-4.38-11.49-2.28-14.43,1.77-4.23,5.79-2.19,13.74-.39,16.32,4.32,6.15,11.46,6.12,16.14,2.07,5.52-4.74,4.05-16.08-1.32-20.19v.03Z"/></svg>