<?xml version="1.0" encoding="UTF-8"?><svg id="eye_20" xmlns="http://www.w3.org/2000/svg" viewBox="0 0 280 280"><g id="right"><g><path d="M192.58,121.41c-10.8,.99-20.01,9.36-22.32,18.06-2.1,7.86,5.46,20.25,25.74,19.08,17.58-.99,21.57-21,17.94-26.88-3.18-5.16-10.56-11.28-21.33-10.29l-.03,.03Z" style="fill:#fff;"/><path d="M193.33,161.19c-12.93,0-19.38-5.43-22.14-8.85-3.33-4.08-4.59-9.15-3.42-13.53,2.79-10.32,13.35-18.9,24.57-19.92h0c11.64-1.05,19.86,5.22,23.73,11.46,2.58,4.17,2.01,12.21-1.35,18.66-3.81,7.35-10.41,11.64-18.6,12.12-.96,.06-1.89,.09-2.79,.09v-.03Zm1.53-37.35c-.66,0-1.35,.03-2.07,.09h0c-10.11,.93-18.15,8.94-20.1,16.17-.75,2.82,.15,6.18,2.46,9,2.34,2.88,8.19,7.62,20.7,6.87,8.1-.45,12.3-5.34,14.37-9.36,2.94-5.64,2.76-11.64,1.53-13.62-2.85-4.56-8.67-9.18-16.86-9.18l-.03,.03Z"/></g><ellipse cx="193.91" cy="136.52" rx="16.95" ry="13.11" transform="translate(11.72 288.32) rotate(-74.95)"/></g><g id="left"><g><path d="M87.45,121.41c10.8,.99,20.01,9.36,22.32,18.06,2.1,7.86-5.46,20.25-25.74,19.08-17.58-.99-21.57-21-17.94-26.88,3.18-5.16,10.56-11.28,21.33-10.29l.03,.03Z" style="fill:#fff;"/><path d="M86.67,161.19c-.9,0-1.83,0-2.79-.09-8.19-.48-14.79-4.77-18.6-12.09-3.36-6.45-3.93-14.49-1.35-18.66,3.87-6.24,12.15-12.51,23.76-11.46,11.22,1.02,21.78,9.6,24.57,19.92,1.17,4.38-.09,9.45-3.42,13.53-2.76,3.39-9.21,8.85-22.14,8.85h-.03Zm-1.53-37.35c-8.19,0-14.04,4.62-16.86,9.18-1.23,1.98-1.38,7.98,1.53,13.62,2.1,4.02,6.27,8.91,14.37,9.36,12.54,.72,18.33-3.99,20.67-6.87,2.28-2.82,3.21-6.18,2.46-9-1.95-7.23-9.99-15.24-20.1-16.17-.69-.06-1.38-.09-2.07-.09v-.03Z"/></g><ellipse cx="86.13" cy="136.5" rx="13.11" ry="16.95" transform="translate(-32.49 27.05) rotate(-15.05)"/></g></svg>