<?xml version="1.0" encoding="UTF-8"?><svg id="eye_11" xmlns="http://www.w3.org/2000/svg" viewBox="0 0 280 280"><g><g><path d="M94.03,123.8c6,0,9,3,12,6,5.86,5.86,6,18-1.14,22.76-8.8,5.86-18.32,4.3-22.86-1.76-9-12,3-27,12-27Z" style="fill:#fff;"/><path d="M93.5,158.51c-5.31,0-10.19-2.14-13.32-6.32-4.28-5.7-4.82-12.79-1.49-19.44,3.26-6.52,9.71-11.26,15.34-11.26,6.96,0,10.5,3.55,13.63,6.68,3.57,3.57,5.45,9.27,4.89,14.86-.49,4.97-2.76,9.03-6.39,11.45-4.06,2.7-8.49,4.03-12.67,4.03h0Zm.53-32.39c-3.91,0-8.73,3.74-11.21,8.71-1.48,2.96-3.3,8.78,1.06,14.6,3.57,4.76,11.49,6.71,19.73,1.22,2.46-1.63,4-4.49,4.35-8.06,.42-4.19-.98-8.56-3.56-11.14-2.86-2.86-5.32-5.32-10.37-5.32h0Z"/></g><ellipse cx="98.7" cy="138.8" rx="12.46" ry="15"/></g><g><g><path d="M185.97,123.8c-6,0-9,3-12,6-5.86,5.86-6,18,1.14,22.76,8.8,5.86,18.32,4.3,22.86-1.76,9-12-3-27-12-27Z" style="fill:#fff;"/><path d="M186.5,158.51c-4.17,0-8.61-1.32-12.66-4.03-3.62-2.41-5.89-6.48-6.39-11.45-.56-5.59,1.32-11.29,4.89-14.86,3.13-3.13,6.68-6.68,13.63-6.68,5.63,0,12.08,4.73,15.34,11.26,3.33,6.65,2.78,13.73-1.49,19.44-3.13,4.17-8.01,6.32-13.32,6.32h0Zm-.53-32.39c-5.04,0-7.51,2.47-10.37,5.32-2.58,2.58-3.98,6.96-3.56,11.14,.35,3.56,1.9,6.42,4.35,8.06,8.24,5.49,16.15,3.54,19.73-1.22,4.36-5.82,2.53-11.64,1.06-14.6-2.48-4.96-7.3-8.71-11.21-8.71h0Z"/></g><ellipse cx="181.3" cy="138.8" rx="12.46" ry="15"/></g></svg>