<?xml version="1.0" encoding="UTF-8"?><svg id="eye_15" xmlns="http://www.w3.org/2000/svg" viewBox="0 0 280 280"><path d="M166.82,148.47c-.75,0-1.5-.21-2.19-.6-2.01-1.2-2.67-3.81-1.47-5.82,.99-1.62,3.72-4.08,16.35-6.48,13.14-2.52,20.85,.78,21.69,1.14,2.13,.99,3.06,3.51,2.07,5.64-.99,2.13-3.51,3.06-5.64,2.07,0,0-6.03-2.52-16.53-.51-8.19,1.56-10.71,2.94-11.22,3.27-.81,.84-1.95,1.32-3.09,1.32l.03-.03Zm3.63-2.04,0,0,0,0"/><path d="M81.14,129.72c5.76-4.38,11.49-2.28,14.43,1.77,4.23,5.79,2.19,13.74,.39,16.32-4.32,6.15-11.46,6.12-16.14,2.07-5.52-4.74-4.05-16.08,1.32-20.19v.03Z"/></svg>