<?xml version="1.0" encoding="UTF-8"?><svg id="eye_19" xmlns="http://www.w3.org/2000/svg" viewBox="0 0 280 280"><g id="left"><g><path d="M92.38,122.25c10.17,3.75,16.89,14.25,16.89,23.25,0,8.13-10.53,18.15-29.82,11.76-16.71-5.52-15.39-25.89-10.35-30.6,4.41-4.14,13.11-8.13,23.28-4.38v-.03Z" style="fill:#fff;"/><path d="M90.97,161.82c-3.51,0-7.59-.6-12.33-2.16-7.8-2.58-13.05-8.43-14.82-16.53-1.56-7.11-.03-15,3.54-18.36,5.37-5.01,15-8.97,25.92-4.92,10.56,3.9,18.54,14.91,18.54,25.62,0,4.56-2.55,9.09-6.81,12.18-2.52,1.83-7.11,4.14-14.01,4.14l-.03,.03Zm-6.81-38.52c-5.61,0-10.32,2.37-13.35,5.19-1.71,1.59-3.42,7.35-2.04,13.56,.96,4.41,3.75,10.23,11.46,12.78,11.94,3.96,18.75,.9,21.75-1.29,2.94-2.13,4.71-5.13,4.71-8.04,0-7.47-5.7-17.31-15.21-20.85h0c-2.55-.93-5.01-1.35-7.32-1.35Z"/></g><ellipse cx="87.16" cy="136.5" rx="13.11" ry="16.95"/></g><g id="right"><g><path d="M187.63,122.25c-10.17,3.75-16.89,14.25-16.89,23.25,0,8.13,10.53,18.15,29.82,11.76,16.71-5.52,15.39-25.89,10.35-30.6-4.41-4.14-13.11-8.13-23.28-4.38v-.03Z" style="fill:#fff;"/><path d="M189.01,161.82c-6.9,0-11.49-2.34-14.01-4.14-4.26-3.09-6.81-7.65-6.81-12.18,0-10.71,7.98-21.72,18.54-25.62h0c10.92-4.05,20.55-.12,25.89,4.92,3.6,3.36,5.13,11.25,3.54,18.36-1.77,8.07-7.05,13.95-14.82,16.5-4.74,1.56-8.85,2.16-12.33,2.16Zm6.81-38.52c-2.31,0-4.77,.39-7.32,1.35h0c-9.51,3.51-15.21,13.35-15.21,20.85,0,2.91,1.77,5.91,4.71,8.04,3,2.16,9.84,5.22,21.75,1.29,7.71-2.55,10.47-8.34,11.46-12.78,1.38-6.21-.36-11.94-2.04-13.56-3-2.82-7.74-5.19-13.32-5.19h-.03Z"/></g><ellipse cx="192.82" cy="136.5" rx="13.11" ry="16.95"/></g></svg>