<?xml version="1.0" encoding="UTF-8"?><svg id="eye_10" xmlns="http://www.w3.org/2000/svg" viewBox="0 0 280 280"><g><g><path d="M78.26,128.49c3.23-1.3,28.52-1.5,30.51,.98,5.19,6.46,5.21,14.53-1.65,19.19-8.74,5.95-20.01,4.37-25.78-.53-6.8-5.78-9.74-16.95-3.07-19.64h0Z" style="fill:#fff;"/><path d="M94.47,154.8c-5.72,0-11.08-1.89-14.63-4.91-5.22-4.43-8.37-11.58-7.5-17,.5-3.1,2.29-5.43,5.05-6.54h0c3.19-1.3,29.98-2.31,33.18,1.67,3.28,4.08,4.72,8.71,4.07,13.05-.57,3.83-2.73,7.11-6.23,9.5-4.35,2.96-9.26,4.23-13.95,4.23Zm-15.35-24.17c-1.25,.51-1.98,1.49-2.22,2.99-.62,3.8,1.99,9.4,5.93,12.74,5.04,4.28,15.26,5.65,22.99,.38,2.41-1.63,3.88-3.84,4.26-6.36,.45-2.99-.6-6.28-2.95-9.29-3.22-1.56-24.91-1.64-28-.47Zm28.12,.54"/></g><ellipse cx="94.93" cy="136.74" rx="7.33" ry="10.84"/></g><g><g><path d="M201.74,128.49c-3.23-1.3-28.52-1.5-30.51,.98-5.19,6.46-5.21,14.53,1.65,19.19,8.74,5.95,20.01,4.37,25.78-.53,6.8-5.78,9.74-16.95,3.07-19.64h0Z" style="fill:#fff;"/><path d="M185.53,154.8c-4.68,0-9.6-1.27-13.95-4.22-3.5-2.38-5.65-5.67-6.23-9.5-.65-4.34,.8-8.98,4.08-13.05,3.2-3.98,29.98-2.97,33.18-1.68h0c2.76,1.12,4.55,3.44,5.05,6.54,.87,5.42-2.28,12.57-7.5,17-3.55,3.02-8.92,4.91-14.63,4.91h0Zm-12.65-23.69c-2.35,3.01-3.4,6.3-2.96,9.29,.38,2.53,1.85,4.72,4.26,6.36,7.73,5.26,17.96,3.9,23-.38,3.94-3.35,6.54-8.94,5.93-12.75-.24-1.51-.97-2.49-2.22-2.99-3.09-1.16-24.78-1.09-28,.47h0Zm-.11,.06"/></g><ellipse cx="185.07" cy="136.74" rx="7.34" ry="10.84"/></g></svg>