<?xml version="1.0" encoding="UTF-8"?><svg xmlns="http://www.w3.org/2000/svg" xmlns:xlink="http://www.w3.org/1999/xlink" viewBox="0 0 280 280"><defs><clipPath id="clippath"><path d="m202.94,206.16s17.29-14.45,24.5-67.73c5.16-38.13,9.96-84.06-5.07-84.06-13.02,0-8.12,29.03-12.93,65.06-4,30-14,51-14,51,0,0-4.27,32.9,7.5,35.73Z" fill="none"/></clipPath><clipPath id="clippath-1"><path d="m202.88,204.99s17.29-14.45,24.5-67.73c5.16-38.13,9.96-84.06-5.07-84.06-13.02,0-8.12,29.03-12.93,65.06-4,30-14,51-14,51,0,0-4.27,32.9,7.5,35.73Z" fill="none"/></clipPath><clipPath id="clippath-2"><path d="m189.56,139.52c-13.55-29.14-44.36-27.36-55.2-27.85-7.95-.36-12.7-12.24-14.67-18.54-.6-1.92-2.79-2.85-4.58-1.93-5.61,2.88-16.89,7.99-26.24,7.97-13.23-.03-15.6-7.54-21.19-3.5,0,0-10.92,33.56-9.28,56.52,1.02,14.32,7.58,31.15,15.06,46.63,6.83,14.15,5.31,44.44,5.31,44.44,0,0-9.35,5.7-7.61,10.82,1.74,5.12,10.25,4.47,15.22,3.53,4.48-.85,7.98-1.3,12.95-1.29,4.96.01,4.87,4.88,14.08,3.3,6.56-1.13,14.1-5.64,8.7-11.91-1.43-1.66-3.24-4.34-3.24-4.34,0,0,.39.06,1.1-5.42,2.79,2.33,6.69,2,8.74,5.18.88,1.37-1.01,5.13,1.51,8.06,2.51,2.92,1.45,4.09,8.04,3.8,6.6-.29,26.66,2.31,32.92-1.29,6.27-3.61,26.32-10.53,30.1-31.38,4.34-23.98,4.09-48.8-11.72-82.8Z" fill="none"/></clipPath><clipPath id="clippath-3"><path d="m56.62,48.35c-5.85,6.5-7.9,20.6-5.28,29.26,2.71,8.97,5.94,10.84,12.44,16.25,2.78,2.32,12.83,6.5,26.01,6.5,7.34,0,17.87-.68,24.31-5.61,5.92-4.54,7.97-13.17,10.36-17.14,2.36-3.91,4.33-21.67-4.57-29.26-10.48-8.93-16.52-13.2-32.88-13.2s-21.18,2.96-30.39,13.2Z" fill="none"/></clipPath></defs><path d="m202.94,206.16s17.29-14.45,24.5-67.73c5.16-38.13,9.96-84.06-5.07-84.06-13.02,0-8.12,29.03-12.93,65.06-4,30-14,51-14,51,0,0-4.27,32.9,7.5,35.73Z" fill="#cd833b"/><g clip-path="url(#clippath)"><g clip-path="url(#clippath-1)"><path d="m234.67,82.92s-3.7-6.51-12.01-7.2c-5.82-.49-12.92,3.46-12.92,3.46,0,0,.41-9.85,0-18.7-.53-11.41,0-23.69,12.92-23.36,7.23.18,11.3,9.63,12.01,20.87.71,11.24,0,24.93,0,24.93Z" fill="#473513"/><path d="m216.85,173s-5.06-3.17-7.06-6.17-8-7-4-11,7.06,4.17,10.06,3.17,6.94-7.17,8.94-5.17,1,8,1,15-2.94,6.17-8.94,4.17Z" fill="#473513"/><path d="m199.85,146c-4-4,.94-8.17,5.94-9.17,1.39-.28,5,3,7,4s11,0,10,3-7,1-10,4-8.94,2.17-12.94-1.83Z" fill="#473513"/><path d="m214.79,105.83c2.19.44,5,5,9,5s6,1,8,4-8,0-10,1-8,2-11-1c-2.12-2.12-1-10,4-9Z" fill="#473513"/><path d="m200.85,163c1.18,1.9,3.26,8.08,6,11,2.74,2.92,8,12,5,17-1.86,3.09-7.9-1.22-10-2s-8.14-10.76-8-15c.1-3,4.31-15.33,7-11Z" fill="#473513"/><path d="m232.85,121c5,2,2.6,9.72.94,10.83-3,2-12,2-15,2s-8-3-6-7,7.06-1.83,10.06-2.83,5-5,10-3Z" fill="#473513"/><path d="m232.85,90c5,2,2.6,9.72.94,10.83-3,2-12,2-15,2s-8-3-6-7,7.06-1.83,10.06-2.83,5-5,10-3Z" fill="#473513"/></g></g><path d="m203.31,205.44c-.49,0-.99-.19-1.36-.57-.73-.75-.72-1.95.03-2.69,2.77-2.7,5.39-6.38,9.17-15.52,1.67-4.02,10.19-25.36,14.41-50.54,3.32-19.77,3.63-41.08,3.8-52.52l.04-2.33c.01-.63.06-1.4.11-2.29.16-2.56.38-6.07-.1-10.22-.12-1.04.63-1.99,1.67-2.11,1.05-.13,1.99.63,2.11,1.67.52,4.48.28,8.34.12,10.89-.05.82-.1,1.54-.11,2.12l-.04,2.33c-.17,11.55-.49,33.04-3.85,53.09-4.29,25.59-12.96,47.28-14.65,51.37-4.03,9.74-6.93,13.75-10.03,16.78-.37.36-.85.54-1.33.54Z"/><path d="m198.44,165.33c-.26,0-.53-.05-.79-.17-.96-.43-1.38-1.56-.94-2.52,4.61-10.15,7.96-26.1,11.86-48.54,2.33-13.38,2.47-25.24,2.59-34.77.18-14.8.3-24.57,8.6-26.65,2.11-.53,4.33-.11,6.42,1.21,2.72,1.72,4.88,4.86,5.51,8,.21,1.03-.46,2.03-1.49,2.23-1.02.21-2.03-.46-2.23-1.49-.42-2.13-1.96-4.35-3.81-5.53-.83-.52-2.1-1.08-3.47-.74-5.21,1.3-5.54,8.78-5.72,23-.12,9.67-.26,21.7-2.64,35.38-3.95,22.74-7.36,38.94-12.14,49.46-.32.7-1.01,1.11-1.73,1.11Z"/><path d="m189.48,139.37c-13.62-29.1-44.43-27.25-55.26-27.71-7.95-.34-12.73-12.21-14.71-18.5-.61-1.92-2.79-2.84-4.58-1.92-5.6,2.89-16.87,8.03-26.22,8.03-13.23,0-15.62-7.5-21.2-3.45,0,0-10.84,33.59-9.14,56.54,1.06,14.32,7.66,31.13,15.17,46.6,6.86,14.13,5.42,44.43,5.42,44.43,0,0-9.33,5.72-7.59,10.84,1.75,5.12,10.26,4.44,15.23,3.49,4.48-.86,7.98-1.32,12.94-1.32s4.89,4.87,14.09,3.26c6.56-1.14,14.09-5.68,8.67-11.93-1.44-1.66-3.25-4.33-3.25-4.33,0,0,.39.05,1.08-5.42,2.79,2.32,6.7,1.99,8.75,5.16.88,1.36-.99,5.13,1.53,8.05,2.52,2.92,1.46,4.09,8.05,3.78s26.66,2.25,32.92-1.38c6.26-3.62,26.3-10.59,30.02-31.45,4.28-23.99,3.97-48.81-11.92-82.77Z" fill="#cd833b"/><g clip-path="url(#clippath-2)"><path d="m152.83,155.51c-2.32-2.32-1.1-7.67,2.19-10.95,5.2-5.2,10.16-4.91,14.24-2.19,3.29,2.19,2.27,9.79-3.29,13.14-5.56,3.35-9.86,3.29-13.14,0Z" fill="#a35519"/><path d="m156.99,186.75c-3.89-2.76-2.35-13.52,4.7-14.56,7.05-1.04,14.1-4.16,16.44,0,2.35,4.16,4.7,12.48,0,13.52s-15.27,5.2-21.14,1.04Z" fill="#a35519"/><path d="m189.04,163.03c-3.72,1.86-10.4-2.08-10.4-5.2s3.12-6.24,7.28-5.2c4.16,1.04,4.16,4.16,4.16,6.24s1.04,3.12-1.04,4.16Z" fill="#a35519"/><path d="m181.72,117.02c1.77,5.86-5.61,14.56-10.13,13.78s-8.27-6.08-5.72-11.85c2.55-5.77,7.07-4.99,10.08-4.47,3.02.52,4.78-.73,5.77,2.55Z" fill="#a35519"/><path d="m193.19,206.29c-5.66-.68-10.33-10.23-7.97-13.8,2.36-3.57,8.28-4.78,12.26-.45s1.62,7.9.05,10.28-1.17,4.35-4.33,3.97Z" fill="#a35519"/><path d="m215.47,152.32c-4.47,2.28-12.56-2.41-12.59-6.17-.03-3.76,3.7-7.55,8.73-6.34s5.06,4.98,5.08,7.49c.02,2.51,1.28,3.75-1.22,5.03Z" fill="#473513"/><path d="m157.23,177.55c-1.25,0-1.25-3.76,5.02-8.78,4.38-3.5,17.56-5.02,21.32,0,3.76,5.02,1.25,16.31-6.27,18.82-6.07,2.02-13.8,3.76-16.31,0-.7-1.04,7.99-1.56,11.29-3.76,3.76-2.51,8.13-6.62,5.02-11.29-2.51-3.76-7.53-2.51-12.54,0-3.17,1.59-6.27,5.02-7.53,5.02Z" fill="#473513"/><path d="m154.73,180.06c3.76,0,.15,2.66,1.25,3.76,1.87,1.87,4.71,1.25,3.76,2.51-2.52,3.37-6.51,2.02-7.53,0-1.25-2.51-.41-6.27,2.51-6.27Z" fill="#473513"/><path d="m143.23,163.41c-3.88-2.33-3.76-6.27,0-6.27s6.27-3.76,7.53-1.25c1.25,2.51-1.25,11.29-7.53,7.53Z" fill="#473513"/><path d="m162.06,115.8c2.96-5.31,7.54-5.53,13.35-2.08,9.77,5.8,6.78,14.08,4.92,17.58-1.76,3.33-6.32,4.04-6.2-1.28.09-3.76,5.27-9.33-.54-12.78-8.7-5.16-4.88,6.85-7.75,8.95-4.3,3.14-6.85-4.88-3.79-10.39Z" fill="#473513"/><path d="m171.69,202.8c3.69.74,7.53,6.27,2.51,6.27s-7.53-3.76-17.56-2.51c-3.94.49-18.82,5.02-16.31,1.25,2.51-3.76,7.53-6.27,13.8-6.27s11.29,0,17.56,1.25Z" fill="#473513"/><path d="m171.6,220.54c3.69-.74,7.53-6.27,2.51-6.27s-7.53-1.25-17.56-2.51c-3.94-.49-18.82,0-16.31,3.76,2.51,3.76,7.53,1.25,13.8,1.25s11.29,5.02,17.56,3.76Z" fill="#473513"/><path d="m182,200.13c-1.89-2.66,0-10.03,3.56-7.53,3.56,2.51.89,3.76.89,6.27s-1.78,5.02-4.45,1.25Z" fill="#473513"/><path d="m180.22,225.03c1.25,0,12.54-2.51,11.29,3.76s-13.8,6.27-17.56,3.76c-3.76-2.51-3.76-7.53,6.27-7.53Z" fill="#473513"/><path d="m154.16,241.29c2.51-1.25,8.78,2.51,13.8,2.51s12.54,5.02,8.78,7.53c-3.76,2.51-22.58-3.76-22.58-3.76,0,0-5.02-3.76,0-6.27Z" fill="#473513"/><path d="m189.53,190.94c-.2,4.52,5.89,1.32,6.97,5.13,1.42,4.97-.22,7.35-2.39,7.89-2.74.69-3.38-3.17-5.15-3.08-3.6.17-1.63,3.18-1.68,4.43-.06,1.25,3.22,5.93,7.35,4.09,7.69-3.43,8.53-10.53,6.93-14.76-3.37-8.94-11.81-8.72-12.03-3.71Z" fill="#473513"/><path d="m210.61,177.31c-1.59-3.17-2.51-8.78-1.25-11.29,1.25-2.51,7.53-2.51,7.53,0,0,1.19-2.87,1.35-3.76,3.76-.98,2.65,0,7.53,0,7.53,0,0-1.25,2.51-2.51,0Z" fill="#473513"/><path d="m220.72,169.89c.98,3.41,1.61,7.7-.08,9.93-1.69,2.24-6.37,4.18-5.92,1.71.22-1.18,2.62-2.86,3.41-5.47.87-2.87.12-6.63.12-6.63,0,0,1.69-2.24,2.47.46Z" fill="#473513"/><path d="m153.93,100.36c6.26-1.85,15.29-.81,12.78,4.21s-8.78,8.78-12.54,8.78,2.51-5.02,2.51-7.53-5.49-4.65-2.75-5.46Z" fill="#473513"/><path d="m155.38,125.2c-2.07-1.89-11.9,3.56-14.87,9.08s-1.87,6.12-7.66,11.55c-5.78,5.43-9.6,1.95-8.58,5.35,1.02,3.4,14.1-2.37,15.3-4.58s4.26-10.53,9.35-12.06c5.1-1.53,10.28-5.85,6.46-9.34Z" fill="#473513"/><path d="m134.19,98.65c-4.88,1.18-7.42,9.88-10.43,11.76-3.01,1.88-6.91,5.71-9.92,7.59-2.13,1.33-11.14,5.59-15.09,5.96s-1.86,4.41,2.09,4.04,10.49-1.18,15-4c4.51-2.82,12.71-7.57,15.99-10.67,3.29-3.1,11.34-8.68,10.63-11.48s-5.55-3.85-8.28-3.19Z" fill="#473513"/><path d="m40.15,96.42c4.88,1.18,7.42,9.88,10.43,11.76,3.01,1.88,8.08,7.15,11.09,9.03,2.13,1.33,9.96,4.14,13.91,4.52,3.95.38,2.07,3.39-1.88,3.01-3.95-.38-14.9,5.36-19.42,2.54-4.51-2.82-9.3-6.87-12.59-9.97s-10.53-14.9-9.82-17.69c.71-2.79,5.55-3.85,8.28-3.19Z" fill="#473513"/><path d="m97.83,156.26c3.14,2.42,21.26-1.7,22.26-4s-10.85-3.35-14.15-2.05c-3.3,1.3-12.2,2.9-8.1,6.05Z" fill="#473513"/><path d="m64.99,94.26s0,12.54,3.53,13.8c3.53,1.25,14.21-.09,19.31-1.25,5.51-1.25,16.52,1.25,20.06,0s13.26-8.78,15.62-11.29,7.07-10.03,9.42-7.53c2.36,2.51,2.36,7.53-3.53,11.29-5.89,3.76-14.48,12.3-21.51,13.8-5.89,1.25-14.55-2.51-18.96-2.51-4.17,0-16.88,6.27-21.59,3.76-4.71-2.51-7.07-6.27-7.07-12.54s3.53-8.78,4.71-7.53Z" fill="#473513"/><path d="m43.92,132.01c-1.41,2.51,8.45,11.29,15.5,11.29s9.86-2.51,16.91-2.51,23.95,6.27,32.4,2.51c8.45-3.76,26.77-20.07,25.36-22.58-1.41-2.51-23.95,16.31-31,16.31s-19.72-2.51-29.59-2.51c-8.45,0-9.86,2.51-15.5,2.51s-12.68-7.53-14.09-5.02Z" fill="#473513"/><path d="m90.13,170.54c4.84-1.33,12.64-6.07,17.48-7.4,4.84-1.33,12,5.81,16.84,4.48,4.99-1.37,8.35-7.5,9.34-3.87s-4.6,11.67-8.56,11.46-8.12-5.69-15.38-3.69-13.88,3.76-18.4,3.87c-5.17.12-7.38-3.18-1.33-4.84Z" fill="#473513"/><path d="m106.59,194.79c.78-3.29,4.54-2.04,10.81-.78,6.27,1.25,16.31,2.51,18.82-1.25,2.51-3.76,8.78-2.51,12.54-1.25,3.76,1.25,3.76,5.02-1.25,6.27-5.02,1.25-15.05,5.02-20.07,5.02s-11.29-2.51-15.05-2.51-6.57-2.19-5.8-5.49Z" fill="#473513"/><path d="m100.94,208h6.27c6.27,0,10.03,1.25,12.54,5.02,2.51,3.76-1.25,2.51-6.27,2.51s-10,3.14-13.15,2.2c-3.15-.94-1.9-9.72.61-9.72Z" fill="#473513"/><path d="m123.74,226.12s-5.25-4.77-9.01-4.59c-3.76.18-7.34,4.12-9.84,4.24s-3.58,3.94,1.43,3.7c5.01-.24,11.16-3.05,13.84.59s3.58-3.94,3.58-3.94Z" fill="#473513"/><path d="m52.38,146.21c3.8-.1,11.19,11.06,17.46,9.81,6.27-1.25,11.29,6.27,7.53,6.27s-11.29,1.25-16.31,0c-5.02-1.25-12.54-10.03-12.54-10.03,0,0-4.81-5.81,3.87-6.04Z" fill="#473513"/><path d="m58.34,203.69c2.51-2.51,6.27-2.51,12.54,0,6.27,2.51,8.78,6.27,12.54,6.27s11.99.86,11.01,3.57-5.99,2.71-11.01,2.71-20.07-1.25-22.58-5.02c-2.51-3.76-5.02-5.02-2.51-7.53Z" fill="#473513"/><path d="m96.06,227.89c-3.34-2.38-13.38,1.38-17.14,2.63-3.76,1.25-5.02,5.02,5.02,5.02s11.36,5.11,13.8,1.25,1.66-6.52-1.68-8.91Z" fill="#473513"/><path d="m130.15,226.83c4.17-2.78,8.78-5.02,13.8-5.02s13.8,6.27,8.78,8.78c-5.02,2.51-11.29,2.51-16.31,1.25-5.02-1.25-10.03-2.51-6.27-5.02Z" fill="#473513"/><path d="m180.17,150.9c4.05-2.02,6.5-2.49,9.67-.9,4,2,7,13,4,15s-9.09,1.06-10-1c-1.6-3.63,6.36-2.32,6.36-4.82s-1.36-5.18-4.36-6.18c-2.66-.89-5.67,4.18-6.93,1.67,0,0-1.25-2.51,1.25-3.76Z" fill="#473513"/><path d="m203.08,268.88c-2.8,0-8.78-5.02-12.54-7.53s-18.82-1.25-20.07-3.76c-1.25-2.51,15.05-1.25,20.07-1.25s10.03,1.25,13.8,6.27c3.76,5.02,6.27,6.27-1.25,6.27Z" fill="#473513"/><path d="m89.94,194.89c.66,1.65-20.07-1.25-25.09-2.51-6.2-1.55-9.26-6.44-5.97-7.75,3.3-1.31,7.25-.97,10.21,1.67,2.96,2.64,8.15,2.69,10.81,3.57,3.76,1.25,8.72,1.72,10.03,5.02Z" fill="#473513"/><path d="m218.14,256.34s-6.27-2.51-8.78-2.51-8.78-5.02-3.76-5.02,6.27,1.25,10.03,1.25,10.45-2.42,10.24.05c-.21,2.46-1.46,6.22-7.73,6.22Z" fill="#473513"/><path d="m151.62,150.44c1.71,1.4.12-1.44,5.21-5.72,3.6-3.02,7.3-4.9,10.04-2.02,2.88,3.04.99,6.55-1.9,9.81-3.74,4.22-11.16,4.82-10.03,6.62,1,1.59,9.1,2.07,14.25-2.57,5.15-4.64,9.25-8.87,6.28-14.84-2.5-5.02-11.09-8.66-18.81-2.55-6.39,5.06-7.13,9.56-5.05,11.28Z" fill="#473513"/></g><path d="m72.3,39.97s-17.78-19.83-20.78-18.83c-4.8,1.6.78,34.83.78,34.83,0,0,5.17-8.37,10.04-11.19,4.87-2.82,9.96-4.81,9.96-4.81Z" fill="#cd833b"/><path d="m104.7,39.97s17.78-19.83,20.78-18.83c4.8,1.6-.78,34.83-.78,34.83,0,0-5.17-8.37-10.04-11.19-4.87-2.82-9.96-4.81-9.96-4.81Z" fill="#cd833b"/><path d="m56.62,48.35c-5.85,6.5-7.9,20.6-5.28,29.26,2.71,8.97,5.94,10.84,12.44,16.25,2.78,2.32,12.83,6.5,26.01,6.5,7.34,0,17.87-.68,24.31-5.61,5.92-4.54,7.97-13.17,10.36-17.14,2.36-3.91,4.33-21.67-4.57-29.26-10.48-8.93-16.52-13.2-32.88-13.2s-21.18,2.96-30.39,13.2Z" fill="#cd833b"/><path d="m97.37,244.21s-.08,0-.12,0c-1.05-.06-1.85-.96-1.78-2.01.01-.18,1.09-18.37.63-27.79-.12-2.38-.55-4.73-1.28-6.98l-4.67-14.37c-.32-1,.22-2.07,1.22-2.4,1-.33,2.07.22,2.39,1.22l4.67,14.37c.84,2.58,1.33,5.26,1.46,7.97.47,9.62-.58,27.45-.63,28.21-.06,1.01-.9,1.79-1.9,1.79Z"/><path d="m116.75,260.81c-2.18,0-4.73-.23-7.68-.7-3.9-.62-6.99-2.22-8.47-4.41-.89-1.31-1.18-2.78-.85-4.24.23-1.02,1.25-1.67,2.27-1.44,1.02.23,1.67,1.25,1.44,2.27-.06.27-.1.7.29,1.27.68,1.01,2.6,2.27,5.92,2.79,9.16,1.45,11.82.06,12.42-.4.31-.24.45-.48.49-.83.31-3.07-1.35-5.21-2.95-7.28-.98-1.27-1.91-2.46-2.38-3.84-1.49-4.39,11.75-61.32,11.9-61.84.3-1,1.36-1.57,2.37-1.27,1.01.3,1.58,1.36,1.27,2.37-1.81,6.01-12.32,55.24-11.91,59.62.29.76,1,1.67,1.75,2.64,1.77,2.28,4.2,5.41,3.73,9.99-.14,1.39-.82,2.58-1.95,3.46-1.6,1.23-4.13,1.84-7.65,1.84Zm4.13-17.87h0,0Z"/><path d="m160.12,256.33c-1.87,0-3.5-.04-5.18-.08-1.72-.04-3.49-.07-5.6-.08h-.07c-4.67,0-12.99-.26-16.85-2-4.12-1.86-5.77-5.23-4.9-10.03,1.4-7.73,12.46-8.96,12.93-9.01,1.05-.11,1.98.65,2.09,1.7.11,1.04-.65,1.98-1.7,2.09-.08,0-8.71,1.06-9.59,5.91-.56,3.06.23,4.77,2.72,5.89,2.73,1.23,9.67,1.66,15.29,1.66h.13c2.12,0,3.9.04,5.62.09,3.34.08,6.5.16,11.74-.09,6.93-.33,23.19-11.93,30.13-25.61,6.56-12.93,2.19-41.09,2.14-41.38-.16-1.04.54-2.01,1.58-2.17,1.03-.17,2.01.54,2.17,1.58.19,1.21,4.6,29.67-2.51,43.69-5.98,11.8-22.88,27.2-33.34,27.69-2.73.13-4.91.17-6.83.17Z"/><path d="m51.39,51.29c-.61,0-1.21-.29-1.58-.84-2.87-4.25-3.88-22.01-2.17-28.03.29-1.01.82-2.43,2.1-3.01,5.26-2.37,20.04,14.69,20.18,14.87.64.83.49,2.02-.34,2.67-.83.64-2.02.49-2.67-.34-2.83-3.66-12.52-12.77-15.5-13.6-1.52,3.47-.87,21.73,1.54,25.31.59.87.36,2.05-.51,2.64-.33.22-.7.33-1.06.33Zm.22-28.62h0Z"/><path d="m125.61,51.29c-.37,0-.74-.11-1.06-.33-.87-.59-1.1-1.77-.51-2.64,2.42-3.58,3.07-21.85,1.54-25.31-2.98.83-12.67,9.94-15.5,13.6-.64.83-1.84.98-2.67.34-.83-.64-.98-1.84-.34-2.67.14-.18,14.94-17.23,20.18-14.87,1.28.58,1.82,1.99,2.1,3.01,1.71,6.01.7,23.78-2.17,28.03-.37.54-.97.84-1.58.84Zm-.22-28.62h0Z"/><path d="m106.03,40.74c-.23,0-.47-.04-.7-.13-.09-.04-8.92-3.5-18.43-3.5s-14.56,3.3-14.62,3.33c-.88.56-2.06.31-2.62-.58-.56-.88-.31-2.05.57-2.62.25-.16,6.22-3.94,16.67-3.94s19.45,3.62,19.84,3.77c.97.39,1.45,1.49,1.06,2.47-.3.75-1.01,1.2-1.77,1.2Z"/><path d="m83.17,260.47c-6.17,0-12.74-2.36-12.81-9-.04-3.97,2.67-5.6,4.65-6.79,2.05-1.23,3.12-1.98,3.12-4.15,0-6.7-2.98-29.62-5.32-36.55-.67-1.99-1.98-4.78-3.51-8.02-3.93-8.36-9.87-21-12.35-35.89-2.92-17.51.08-28.84,3.55-41.95.47-1.78.95-3.59,1.42-5.45,1.35-5.33,2.14-9.38,2.14-9.42.2-1.03,1.19-1.71,2.22-1.51,1.03.2,1.71,1.19,1.51,2.22-.03.17-.81,4.19-2.19,9.64-.48,1.87-.96,3.69-1.43,5.48-3.36,12.69-6.26,23.65-3.48,40.35,2.39,14.37,7.97,26.23,12.04,34.9,1.64,3.48,2.93,6.23,3.67,8.42,2.63,7.79,5.52,31.38,5.52,37.76,0,4.42-2.87,6.15-4.97,7.41-1.9,1.14-2.82,1.77-2.8,3.49.05,4.9,7,5.25,9.11,5.24,5.62-.03,10.94-2.98,11-3.01.92-.51,2.07-.19,2.59.73.51.91.19,2.07-.72,2.59-.25.14-6.21,3.46-12.84,3.5h-.12Z"/><g clip-path="url(#clippath-3)"><path d="m85.85,58c-.99.1-3-4-5.01-8.47-1.96-4.36-3.41-10.84-3-12.19.93-3.13,3.96-.55,4.08.59.12,1.14.93,6.07,1.93,10.07.84,3.35,2.99,9.9,2,10Z" fill="#473513"/><path d="m93.02,58c.99.1,3-4,5.01-8.47,1.96-4.36,3.41-10.84,3-12.19-.93-3.13-3.96-.55-4.08.59-.12,1.14-.93,6.07-1.93,10.07-.84,3.35-2.99,9.9-2,10Z" fill="#473513"/><path d="m89.35,56.33c.62,0,1.69-6.82,2.17-13.13.29-3.82.38-7.22,0-7.88-1-1.75-4.17-1.75-5,0-.31.65-.4,4.1,0,7.88.66,6.34,2.2,13.13,2.83,13.13Z" fill="#473513"/><path d="m65.6,66.63c0-1-5.36-1.76-8,0-3,2-9.8,7.2-8,9,3,3,5-3,9-6,3.05-2.28,7-2,7-3Z" fill="#473513"/><path d="m63.6,78.63c-1-1-3.69,1.34-6,2-4.43,1.27-6.82-.6-7.41,1.7s4.41,2.3,7.41,1.3,7-4,6-5Z" fill="#473513"/><path d="m111.3,66.63c0-1,5.36-1.76,8,0,3,2,9.8,7.2,8,9-3,3-5-3-9-6-3.05-2.28-7-2-7-3Z" fill="#473513"/><path d="m113.3,78.63c1-1,3.69,1.34,6,2,4.43,1.27,6.82-.6,7.41,1.7.59,2.3-4.41,2.3-7.41,1.3-3-1-7-4-6-5Z" fill="#473513"/><path d="m106.18,76.83c-.77-.32-.64-1.33.2-1.55.88-.23,2.06-.73,3.62-1.68,2-1.23,3.19-2.73,3.9-4.06.44-.82,1.77-.6,1.75.29-.04,1.91-.77,4.2-3.4,5.93-2.66,1.75-4.69,1.64-6.08,1.07Z" fill="#473513"/><path d="m69.95,77.3c.8-.23.78-1.25-.03-1.56s-1.97-.94-3.42-2.06c-1.86-1.44-2.88-3.06-3.45-4.46-.35-.86-1.7-.78-1.77.1-.16,1.91.32,4.26,2.74,6.26,2.46,2.03,4.49,2.14,5.93,1.71Z" fill="#473513"/><path d="m74.15,57.16c.45.34.2.98-.39.98s-1.48.13-2.66.5c-1.52.48-2.55,1.26-3.24,2.02-.42.46-1.26.1-1.1-.48.35-1.25,1.2-2.63,3.22-3.33,2.04-.71,3.35-.3,4.17.31Z" fill="#473513"/><path d="m103.63,57.48c-.42.37-.12.99.47.95s1.48,0,2.69.27c1.55.34,2.65,1.03,3.4,1.73.46.43,1.27-.01,1.06-.58-.46-1.21-1.43-2.52-3.5-3.04s-3.37,0-4.13.67Z" fill="#473513"/><path d="m79.06,50.1c.74-.32,1.43.31,1.05.97s-.77,1.72-1.05,3.24c-.35,1.95.03,3.53.59,4.71.34.72-.69,1.46-1.35.97-1.43-1.07-2.72-2.77-2.35-5.4.37-2.66,1.77-3.91,3.1-4.49Z" fill="#473513"/><path d="m99.12,50.1c-.72-.34-1.44.26-1.1.94.36.71.7,1.74.91,3.27.27,1.96-.18,3.53-.79,4.69-.37.71.62,1.48,1.31,1.01,1.48-1.02,2.83-2.69,2.57-5.33-.26-2.67-1.6-3.96-2.91-4.58Z" fill="#473513"/></g><path d="m200.85,173.1s-.03,0-.05,0c-1.05-.03-1.88-.9-1.85-1.95,0-.05.08-5.23-2.46-13.08-2.34-7.25-7.46-18.32-18.54-29.92-12.71-13.32-26.16-14.46-36.97-15.39-4.63-.4-8.62-.74-11.81-2.01-7.93-3.18-14.19-13.27-10.94-24.66.76-2.64,1.71-4.5,2.73-6.46,1.28-2.48,2.6-5.04,3.76-9.73,1.8-7.35-1.72-17.01-1.76-17.11-.36-.98.14-2.08,1.12-2.44.98-.37,2.08.14,2.44,1.12.16.44,3.97,10.84,1.88,19.34-1.26,5.13-2.75,8.02-4.07,10.57-.96,1.86-1.8,3.47-2.45,5.75-2.66,9.32,2.33,17.53,8.7,20.09,2.66,1.07,6.4,1.39,10.72,1.75,10.84.93,25.69,2.19,39.39,16.55,22.35,23.41,22.08,44.82,22.05,45.72-.03,1.03-.87,1.85-1.9,1.85Z"/><path d="m104.47,39.82c-.3,0-.61-.07-.89-.22-.03-.02-4.64-2.33-14.81-2.33s-15.61,2.36-15.66,2.38c-.96.43-2.08,0-2.51-.94-.43-.95-.02-2.08.93-2.51.24-.11,6.06-2.73,17.24-2.73s16.38,2.66,16.59,2.77c.93.49,1.28,1.64.79,2.57-.34.64-1,1.01-1.68,1.01Z"/><path d="m65.82,99.7c-.71,0-1.4-.4-1.72-1.09-.67-1.42-1.82-3.17-3.44-5.19-.53-.66-1.08-1.32-1.64-2-3.88-4.66-8.72-10.46-10.27-21.83-1.17-8.52,1.72-17.65,1.84-18.03.32-1,1.39-1.55,2.39-1.23,1,.32,1.55,1.39,1.23,2.39-.03.09-2.74,8.71-1.69,16.36,1.41,10.29,5.67,15.4,9.43,19.91.58.7,1.15,1.38,1.69,2.06,1.8,2.25,3.11,4.25,3.91,5.95.45.95.04,2.08-.91,2.53-.26.12-.54.18-.8.18Z"/><path d="m96.88,189.59s-.06,0-.09,0c-.19,0-4.75-.26-10.82-4.2-6.15-4-9.06-11.38-9.18-11.69-.38-.98.11-2.08,1.09-2.46.98-.38,2.08.11,2.46,1.08h0c.03.07,2.6,6.56,7.71,9.88,5.13,3.33,8.9,3.59,8.94,3.59,1.04.06,1.85.95,1.79,2-.05,1.01-.89,1.8-1.89,1.8Z"/></svg>