<?xml version="1.0" encoding="UTF-8"?><svg xmlns="http://www.w3.org/2000/svg" xmlns:xlink="http://www.w3.org/1999/xlink" viewBox="0 0 280 280"><defs><clipPath id="clippath"><path d="M109.92,260.09c-3.24,0-4.92-1.08-6.41-2.04-1.28-.83-2.39-1.54-4.29-1.54-5.06,0-8.56,.48-12.9,1.32-1.59,.3-4,.67-6.46,.67-4.93,0-8.04-1.48-9-4.29-1.71-4.99,6.55-10.37,7.58-11.01,.08-1.97,1.16-30.72-5.4-44.23-9.32-19.2-14.29-34.46-15.19-46.67-1.59-21.6,7.72-52.09,9.05-56.3-1.54-.71-2.8-1.45-3.56-2.08-.68-.56-1.32-1.09-1.92-1.58-5.25-4.3-8.14-6.67-10.58-14.76-1.82-6.03-1.4-14.66,1.02-21.64h-.07c-.23-1.38-5.55-33.43-.64-35.06,.09-.03,.2-.05,.31-.05,2.77,0,12.63,10.2,18.33,16.37,4.12-1.65,9.03-2.33,16.9-2.33s13.84,1.04,18.93,3.36c4.88-5.32,16.29-17.4,19.29-17.4,.11,0,.22,.02,.31,.05,4.59,1.53,.33,29.08-.59,34.74,3,8.36,1.5,19-.32,22.02-.7,1.16-1.36,2.69-2.12,4.47-1.22,2.83-2.6,6.04-4.62,8.85,.87,.41,1.52,1.16,1.8,2.07,2.11,6.71,6.81,18.03,14.53,18.36,.88,.04,1.88,.06,3,.08,12.94,.29,39.87,.88,52.43,27.74,17.05,36.44,15.6,62.35,11.94,82.89-3.23,18.07-18.57,25.74-26.81,29.87-1.31,.66-2.45,1.22-3.31,1.72-2.32,1.34-6.74,1.99-13.51,1.99h0c-3.77,0-7.72-.19-11.2-.36-2.78-.14-5.18-.25-7.01-.25-.48,0-.91,0-1.3,.03-.68,.03-1.28,.05-1.81,.05-3.61,0-4.14-.76-5.18-2.27-.33-.47-.69-1.01-1.23-1.63-1.63-1.89-1.48-4.07-1.37-5.82,.06-.96,.12-1.8-.17-2.25-1.15-1.77-2.89-2.41-4.73-3.09-1.26-.46-2.55-.94-3.69-1.8-.45,3.49-.78,4.66-.99,5.05,.36,.53,1.91,2.76,3.16,4.2,1.75,2.02,2.3,4,1.63,5.89-1.2,3.36-6.09,5.62-10.42,6.37-1.25,.22-2.4,.33-3.42,.33Z" style="fill:none;"/></clipPath></defs><path d="M202.94,206.65s17.29-14.45,24.5-67.73c5.16-38.13,9.96-84.06-5.07-84.06-13.02,0-8.12,29.03-12.93,65.06-4,30-14,51-14,51,0,0-4.27,32.9,7.5,35.73Z" style="fill:#d79a59;"/><g><path d="M203.31,205.93c-.49,0-.99-.19-1.36-.57-.73-.75-.72-1.95,.03-2.69,2.77-2.7,5.39-6.38,9.17-15.52,1.67-4.02,10.19-25.36,14.41-50.54,3.32-19.78,3.63-41.09,3.8-52.54l.04-2.31c.01-.63,.06-1.4,.11-2.29,.16-2.56,.38-6.07-.1-10.21-.12-1.04,.63-1.99,1.67-2.11,1.06-.12,1.99,.63,2.11,1.67,.52,4.48,.28,8.34,.12,10.89-.05,.82-.1,1.54-.11,2.12l-.04,2.3c-.17,11.55-.49,33.05-3.85,53.12-4.29,25.59-12.96,47.28-14.65,51.37-4.04,9.74-6.93,13.75-10.03,16.78-.37,.36-.85,.54-1.33,.54Z"/><path d="M199.25,163.95c-.24,0-.49-.05-.72-.14-.97-.4-1.43-1.51-1.03-2.48,4.23-10.23,7.48-26.08,11.08-46.73,2.33-13.38,2.47-25.24,2.59-34.77,.18-14.8,.3-24.57,8.6-26.65,2.11-.53,4.33-.11,6.42,1.21,2.72,1.72,4.88,4.86,5.51,7.99,.21,1.03-.46,2.03-1.49,2.23-1.02,.21-2.03-.46-2.23-1.49-.42-2.13-1.96-4.35-3.81-5.53-.83-.53-2.1-1.08-3.47-.74-5.21,1.3-5.54,8.78-5.72,23-.12,9.67-.26,21.7-2.64,35.38-3.63,20.9-6.95,36.97-11.31,47.53-.3,.73-1.01,1.17-1.76,1.17Z"/></g><path d="M189.16,139.28c-13.62-29.1-44.43-27.25-55.26-27.71-7.95-.34-12.73-12.21-14.71-18.5-.31-.99-1.04-1.7-1.92-2.05,3.38-4.59,5.03-10.44,6.88-13.51,1.76-2.91,3.3-13.54,.28-21.89,.49-3,5.29-33.05,.73-34.56-2.51-.84-15.35,12.89-19.49,17.41-4.94-2.29-10.61-3.41-18.98-3.41-7.62,0-12.74,.64-16.96,2.36-4.88-5.28-16.19-17.15-18.53-16.37-4.8,1.6,.78,34.83,.78,34.83,0,0,.08-.13,.22-.35-2.53,6.96-3.04,15.83-1.18,21.98,2.71,8.97,5.94,10.84,12.44,16.25,.74,.61,2,1.36,3.68,2.12-.75,2.35-10.72,34.29-9.09,56.39,1.06,14.32,7.66,31.13,15.17,46.59,6.86,14.13,5.42,44.43,5.42,44.43,0,0-9.33,5.72-7.59,10.84,1.75,5.12,10.26,4.44,15.23,3.49,4.48-.86,7.98-1.32,12.94-1.32s4.89,4.87,14.09,3.26c6.56-1.14,14.09-5.68,8.67-11.93-1.44-1.66-3.25-4.33-3.25-4.33,0,0,.39,.05,1.08-5.42,2.79,2.32,6.7,1.99,8.75,5.16,.88,1.36-.99,5.13,1.53,8.05,2.52,2.92,1.46,4.09,8.05,3.78s26.66,2.25,32.92-1.38c6.26-3.62,26.3-10.59,30.02-31.45,4.28-23.99,3.97-48.81-11.92-82.77Z" style="fill:#d79a59;"/><g style="clip-path:url(#clippath);"><g><path d="M67.53,94.91c2.7-2.7,7,3,22,2,19.94-1.33,30-8.56,30-4,0,5-7.94,14.97-11,26-5,18,4.3,48.36-14,47-26.81-1.99-14.67-41.81-18-51-4.24-11.7-12-17-9-20Z" style="fill:#fff;"/><path d="M104.35,67.45c-3.2-3.9-10.81-23.07-15.33-23.07-5.1,0-10.14,17.64-15.33,23.07-4.01,4.19-16.06,9.02-21.36,11.01,2.65,8.15,5.87,10.09,12.14,15.31,2.78,2.32,12.83,6.5,26.01,6.5,7.34,0,17.87-.68,24.31-5.61,5.58-4.27,7.71-12.17,9.94-16.4-5.73-1.75-16-5.48-20.38-10.81Z" style="fill:#fff;"/></g></g><g><path d="M97.06,244.12s-.08,0-.12,0c-1.05-.06-1.85-.96-1.78-2.01,.01-.18,1.09-18.37,.62-27.79-.12-2.38-.55-4.73-1.28-6.98l-4.67-14.37c-.32-1,.22-2.07,1.22-2.4,1-.33,2.07,.22,2.4,1.22l4.67,14.37c.84,2.58,1.33,5.26,1.46,7.97,.47,9.62-.58,27.45-.63,28.2-.06,1.01-.9,1.79-1.89,1.79Z"/><path d="M116.44,260.72c-2.17,0-4.73-.23-7.68-.7-3.9-.62-6.99-2.22-8.47-4.41-.89-1.31-1.18-2.78-.85-4.24,.23-1.02,1.25-1.67,2.27-1.44,1.02,.23,1.67,1.25,1.44,2.27-.06,.27-.1,.7,.29,1.27,.68,1.01,2.6,2.27,5.92,2.79,9.16,1.45,11.82,.06,12.42-.4,.31-.24,.45-.48,.49-.83,.31-3.07-1.35-5.21-2.95-7.27-.98-1.27-1.91-2.46-2.38-3.84-1.49-4.39,11.74-61.32,11.9-61.84,.3-1,1.36-1.57,2.37-1.27,1,.3,1.58,1.36,1.27,2.37-1.81,6.02-12.32,55.24-11.91,59.62,.29,.76,1,1.67,1.75,2.64,1.77,2.28,4.2,5.41,3.73,9.99-.14,1.39-.82,2.58-1.95,3.46-1.6,1.23-4.13,1.84-7.65,1.84Zm4.13-17.87h0Z"/><path d="M159.8,256.24c-1.86,0-3.49-.04-5.17-.08-1.72-.04-3.53-.05-5.61-.08h-.07c-4.67,0-12.99-.26-16.84-2-4.12-1.86-5.77-5.23-4.9-10.03,1.4-7.73,12.46-8.96,12.93-9.01,1.04-.11,1.98,.65,2.09,1.7,.11,1.04-.65,1.98-1.7,2.09-.08,0-8.71,1.06-9.58,5.91-.56,3.06,.23,4.77,2.72,5.89,2.73,1.23,9.67,1.67,15.29,1.67h.16c2.11,0,3.89,.04,5.61,.09,3.34,.08,6.5,.16,11.74-.09,6.93-.33,23.19-11.93,30.13-25.61,6.55-12.92,2.19-41.09,2.14-41.38-.16-1.04,.54-2.01,1.58-2.17,1.05-.17,2.01,.54,2.17,1.58,.19,1.21,4.6,29.67-2.51,43.69-5.98,11.8-22.88,27.2-33.34,27.69-2.73,.13-4.91,.17-6.84,.17Z"/><path d="M51.07,51.19c-.61,0-1.21-.29-1.58-.84-2.87-4.25-3.88-22.01-2.17-28.03,.29-1.01,.82-2.43,2.11-3.01,5.25-2.36,20.04,14.69,20.18,14.87,.64,.83,.49,2.02-.34,2.67-.83,.64-2.02,.49-2.67-.34-2.83-3.66-12.52-12.76-15.5-13.6-1.52,3.47-.87,21.73,1.54,25.31,.59,.87,.36,2.05-.51,2.64-.33,.22-.7,.33-1.06,.33Zm.22-28.62"/><path d="M125.3,51.19c-.37,0-.74-.11-1.06-.33-.87-.59-1.1-1.77-.51-2.64,2.42-3.58,3.07-21.85,1.54-25.31-2.98,.83-12.67,9.94-15.5,13.6-.64,.83-1.84,.98-2.67,.34-.83-.64-.98-1.84-.34-2.67,.14-.18,14.95-17.23,20.18-14.87,1.29,.58,1.82,1.99,2.11,3.01,1.71,6.01,.7,23.78-2.17,28.03-.37,.54-.97,.84-1.58,.84Zm-.22-28.62h0Z"/><path d="M105.72,40.65c-.23,0-.47-.04-.7-.13-.09-.04-8.92-3.5-18.43-3.5s-14.56,3.3-14.62,3.33c-.88,.56-2.06,.3-2.62-.58-.56-.88-.31-2.05,.57-2.62,.25-.16,6.22-3.94,16.67-3.94s19.45,3.62,19.84,3.77c.97,.39,1.45,1.49,1.06,2.47-.3,.75-1.01,1.2-1.77,1.2Z"/><path d="M82.86,260.37c-6.17,0-12.74-2.36-12.81-9-.04-3.97,2.67-5.6,4.65-6.79,2.05-1.23,3.12-1.98,3.12-4.15,0-6.7-2.98-29.62-5.32-36.55-.67-1.98-1.98-4.78-3.51-8.02-3.93-8.36-9.87-21-12.35-35.89-2.92-17.51,.08-28.84,3.55-41.95,.47-1.78,.95-3.59,1.42-5.45,1.36-5.33,2.14-9.38,2.14-9.42,.2-1.03,1.19-1.71,2.22-1.51,1.03,.2,1.71,1.19,1.51,2.22-.03,.17-.81,4.19-2.19,9.64-.48,1.87-.96,3.69-1.43,5.49-3.36,12.69-6.26,23.64-3.48,40.35,2.39,14.37,7.97,26.23,12.04,34.9,1.64,3.48,2.93,6.23,3.67,8.42,2.63,7.8,5.52,31.38,5.52,37.76,0,4.42-2.87,6.15-4.97,7.41-1.91,1.14-2.82,1.77-2.8,3.49,.05,4.83,6.8,5.24,9.02,5.24h.09c5.62-.03,10.95-2.98,11-3.01,.91-.51,2.07-.19,2.59,.73,.51,.91,.19,2.07-.72,2.59-.25,.14-6.21,3.46-12.84,3.5h-.12Z"/><path d="M200.54,173.01s-.03,0-.05,0c-1.05-.03-1.88-.9-1.85-1.95,0-.05,.08-5.23-2.46-13.08-2.34-7.25-7.46-18.32-18.54-29.92-12.71-13.32-26.16-14.46-36.97-15.39-4.63-.4-8.62-.74-11.81-2.01-7.93-3.18-14.19-13.27-10.94-24.66,.76-2.64,1.71-4.5,2.73-6.46,1.28-2.47,2.61-5.03,3.76-9.73,1.8-7.35-1.72-17.01-1.76-17.11-.36-.98,.14-2.08,1.12-2.44,.98-.37,2.08,.14,2.44,1.12,.16,.44,3.97,10.84,1.88,19.34-1.26,5.13-2.75,8.02-4.07,10.57-.96,1.86-1.8,3.47-2.45,5.75-2.66,9.32,2.33,17.53,8.7,20.09,2.66,1.07,6.4,1.39,10.72,1.75,10.84,.93,25.69,2.19,39.39,16.55,22.35,23.41,22.08,44.82,22.05,45.72-.03,1.03-.87,1.85-1.9,1.85Z"/><path d="M104.16,39.73c-.3,0-.61-.07-.89-.22-.04-.02-4.64-2.33-14.81-2.33s-15.61,2.36-15.66,2.38c-.95,.43-2.08,0-2.51-.94s-.02-2.08,.93-2.51c.24-.11,6.06-2.73,17.24-2.73s16.38,2.66,16.59,2.77c.93,.49,1.28,1.64,.79,2.57-.34,.64-1,1.01-1.68,1.01Z"/><path d="M65.51,99.61c-.71,0-1.4-.4-1.72-1.09-.67-1.43-1.82-3.17-3.44-5.19-.53-.66-1.08-1.33-1.65-2-3.88-4.66-8.71-10.46-10.27-21.82-1.17-8.52,1.72-17.65,1.84-18.03,.32-1,1.39-1.55,2.39-1.23,1,.32,1.55,1.39,1.23,2.39-.03,.09-2.74,8.71-1.69,16.36,1.41,10.29,5.67,15.4,9.42,19.9,.58,.7,1.15,1.38,1.7,2.07,1.8,2.25,3.11,4.25,3.91,5.95,.45,.95,.04,2.08-.91,2.53-.26,.12-.54,.18-.81,.18Z"/><path d="M96.57,189.49s-.06,0-.09,0c-.19,0-4.75-.26-10.82-4.2-6.16-3.99-9.06-11.38-9.18-11.69-.38-.98,.11-2.08,1.09-2.46,.98-.38,2.08,.11,2.46,1.08h0c.03,.07,2.6,6.56,7.7,9.88,5.13,3.33,8.9,3.59,8.94,3.59,1.04,.06,1.85,.95,1.79,2-.05,1.01-.89,1.8-1.89,1.8Z"/></g></svg>