<?xml version="1.0" encoding="UTF-8"?><svg xmlns="http://www.w3.org/2000/svg" xmlns:xlink="http://www.w3.org/1999/xlink" viewBox="0 0 280 280"><defs><clipPath id="clippath"><path d="M202.62,206.15s17.29-14.45,24.5-67.73c5.16-38.13,9.96-84.06-5.07-84.06-13.02,0-8.12,29.03-12.93,65.06-4,30-14,51-14,51,0,0-4.27,32.9,7.5,35.73Z" style="fill:none;"/></clipPath><clipPath id="clippath-1"><path d="M109.92,260.19c-3.24,0-4.92-1.08-6.41-2.04-1.28-.83-2.39-1.54-4.29-1.54-5.06,0-8.56,.48-12.91,1.32-1.59,.31-4,.67-6.46,.67-4.93,0-8.04-1.48-9-4.29-1.71-4.99,6.56-10.37,7.58-11.02,.08-1.97,1.16-30.72-5.4-44.23-9.32-19.2-14.29-34.46-15.19-46.67-1.59-21.59,7.72-52.09,9.05-56.3-1.54-.71-2.81-1.45-3.56-2.08-.68-.56-1.32-1.09-1.92-1.59-5.25-4.3-8.14-6.67-10.58-14.76-1.82-6.03-1.4-14.66,1.02-21.64h-.06c-.23-1.38-5.55-33.43-.64-35.06,.09-.03,.2-.05,.31-.05,2.77,0,12.63,10.2,18.33,16.37,4.12-1.65,9.03-2.33,16.9-2.33s13.84,1.04,18.93,3.37c4.88-5.32,16.28-17.4,19.29-17.4,.11,0,.22,.02,.31,.05,4.59,1.53,.33,29.08-.59,34.74,3,8.36,1.51,19-.31,22.02-.7,1.16-1.36,2.69-2.12,4.47-1.22,2.83-2.6,6.04-4.62,8.85,.87,.41,1.52,1.16,1.81,2.07,2.11,6.71,6.81,18.03,14.53,18.36,.88,.04,1.88,.06,3,.08,12.94,.29,39.87,.88,52.43,27.74,17.05,36.44,15.6,62.35,11.94,82.89-3.23,18.07-18.57,25.74-26.81,29.87-1.31,.66-2.45,1.22-3.31,1.72-2.32,1.34-6.73,1.99-13.51,1.99h0c-3.77,0-7.72-.19-11.2-.36-2.78-.14-5.18-.25-7.01-.25-.47,0-.91,0-1.3,.03-.68,.03-1.28,.05-1.81,.05-3.61,0-4.14-.76-5.18-2.27-.32-.47-.69-1.01-1.23-1.63-1.63-1.89-1.48-4.07-1.37-5.82,.06-.96,.12-1.8-.18-2.25-1.15-1.77-2.89-2.41-4.73-3.09-1.26-.46-2.55-.94-3.69-1.8-.45,3.49-.78,4.66-.99,5.05,.36,.53,1.91,2.76,3.16,4.2,1.75,2.02,2.3,4,1.63,5.89-1.2,3.36-6.09,5.62-10.42,6.37-1.25,.22-2.4,.33-3.42,.33Z" style="fill:none;"/></clipPath></defs><g style="isolation:isolate;"><g><path d="M202.94,206.74s17.29-14.45,24.5-67.73c5.16-38.13,9.96-84.06-5.07-84.06-13.02,0-8.12,29.03-12.93,65.06-4,30-14,51-14,51,0,0-4.27,32.9,7.5,35.73Z" style="fill:#eba731;"/><g style="mix-blend-mode:soft-light;"><g style="clip-path:url(#clippath);"><g><path d="M214.45,186.15c.12,.45-.18,.78-.57,.89-.4,.1-.87,.04-1.19-.29l-.29-.3-.3-.3c-.89-.88-1.81-1.72-2.76-2.52l-.72-.59c-.25-.19-.49-.38-.73-.57-.5-.37-.98-.75-1.49-1.1-.49-.37-1.03-.69-1.53-1.04l-.8-.48c-.13-.08-.26-.17-.4-.24l-.41-.23-.41-.23-.2-.12c-.07-.04-.14-.08-.2-.11-.13-.06-.25-.13-.37-.19l-.39-.18c-.53-.24-1.1-.46-1.69-.67-1.19-.41-2.48-.76-3.82-1.08-1.34-.32-2.73-.6-4.15-.87-.32-.06-.65-.12-.98-.18-.53-.09-.8-.41-.82-.74-.02-.33,.25-.66,.82-.76,.35-.06,.7-.11,1.06-.16,1.54-.2,3.11-.26,4.7-.2,1.59,.06,3.19,.26,4.78,.65,.8,.2,1.59,.44,2.36,.75,.19,.08,.38,.16,.58,.24,.19,.08,.38,.18,.57,.27,.1,.05,.18,.09,.26,.14l.25,.14,.5,.27,.49,.28c.16,.09,.31,.2,.47,.3,.31,.2,.62,.4,.92,.61,.58,.44,1.17,.87,1.69,1.35,.54,.46,1.02,.96,1.49,1.47,.22,.26,.44,.52,.66,.78,.21,.26,.4,.53,.6,.8,.76,1.09,1.38,2.22,1.79,3.41l.13,.4,.11,.4Z"/><path d="M221,169.43c.32,.38,.21,.78-.11,.99-.32,.21-.79,.29-1.24,.07l-.41-.2-.42-.19c-1.24-.57-2.5-1.08-3.76-1.56l-.95-.35c-.32-.11-.64-.22-.95-.33-.64-.2-1.26-.42-1.91-.59-.63-.2-1.28-.35-1.92-.52l-.97-.22c-.16-.04-.32-.08-.48-.11l-.49-.09-.49-.1-.24-.05c-.08-.02-.17-.04-.24-.05-.15-.02-.29-.05-.44-.07l-.45-.06c-.61-.07-1.24-.11-1.89-.13-1.3-.04-2.67,0-4.06,.09-1.39,.09-2.82,.23-4.27,.38-.33,.03-.66,.07-1,.11-.53,.06-.94-.15-1.11-.45-.17-.3-.08-.69,.4-.94,.3-.16,.6-.3,.91-.45,1.34-.62,2.77-1.13,4.28-1.53,1.5-.39,3.09-.67,4.75-.76,.83-.05,1.68-.05,2.55,.02,.22,.02,.43,.04,.65,.06,.22,.02,.44,.06,.65,.09,.11,.01,.21,.03,.31,.05l.3,.06,.59,.11,.59,.12c.2,.04,.39,.1,.58,.14,.38,.1,.77,.2,1.15,.3,.74,.24,1.5,.47,2.2,.77,.72,.27,1.41,.6,2.08,.94,.33,.18,.66,.35,.98,.53,.32,.18,.63,.38,.94,.57,1.22,.79,2.34,1.67,3.28,2.66l.31,.33,.3,.34Z"/><path d="M225.85,158.2c.32,.38,.21,.78-.11,.99-.32,.21-.79,.29-1.24,.07l-.41-.2-.42-.19c-1.24-.57-2.5-1.08-3.76-1.56l-.95-.35c-.32-.11-.64-.22-.95-.33-.64-.2-1.26-.42-1.91-.59-.63-.2-1.28-.35-1.92-.52l-.97-.22c-.16-.04-.32-.08-.48-.11l-.49-.09-.49-.1-.24-.05c-.08-.02-.17-.04-.24-.05-.15-.02-.29-.05-.44-.07l-.45-.06c-.61-.07-1.24-.11-1.89-.13-1.3-.04-2.67,0-4.06,.09-1.39,.09-2.82,.23-4.27,.38-.33,.03-.66,.07-1,.11-.53,.06-.94-.15-1.11-.45-.17-.3-.08-.69,.4-.94,.3-.16,.6-.3,.91-.45,1.34-.62,2.77-1.13,4.28-1.53,1.5-.39,3.09-.67,4.75-.76,.83-.05,1.68-.05,2.55,.02,.22,.02,.43,.04,.65,.06,.22,.02,.44,.06,.65,.09,.11,.01,.21,.03,.31,.05l.3,.06,.59,.11,.59,.12c.2,.04,.39,.1,.58,.14,.38,.1,.77,.2,1.15,.3,.74,.24,1.5,.47,2.2,.77,.72,.27,1.41,.6,2.08,.94,.33,.18,.66,.35,.98,.53,.32,.18,.63,.38,.94,.57,1.22,.79,2.34,1.67,3.28,2.66l.31,.33,.3,.34Z"/><path d="M227.32,147c.23,.36,.05,.72-.3,.91-.34,.19-.8,.26-1.17,.06-.23-.12-.46-.24-.69-.35-1.03-.52-2.07-.99-3.1-1.42-1.03-.43-2.07-.8-3.11-1.13-.51-.18-1.05-.3-1.56-.45-.53-.11-1.05-.26-1.59-.35l-.4-.08-.2-.04h-.05l-.04-.02h-.08c-.22-.05-.45-.08-.69-.1-.48-.05-.99-.06-1.52-.06-1.06,0-2.2,.09-3.37,.22-1.17,.13-2.37,.3-3.6,.49l-.85,.13c-.45,.07-.84-.13-1.05-.41-.21-.28-.19-.66,.19-.92,.23-.16,.48-.31,.72-.46,1.07-.64,2.24-1.19,3.5-1.63,1.26-.44,2.61-.78,4.08-.95,.73-.08,1.5-.11,2.28-.08,.39,.02,.79,.05,1.19,.11l.15,.02h.08l.07,.02,.26,.05,.52,.1c.71,.12,1.37,.33,2.05,.51,.65,.23,1.31,.44,1.92,.73,1.24,.54,2.37,1.2,3.37,1.96,.99,.76,1.87,1.59,2.56,2.52,.16,.21,.3,.42,.44,.63Z"/><path d="M228.39,134.67c.2,.35,0,.7-.35,.88-.35,.18-.8,.25-1.15,.05-.22-.12-.43-.23-.66-.34-.97-.51-1.95-.97-2.93-1.39-.97-.42-1.95-.78-2.93-1.09-.48-.17-.98-.29-1.47-.43-.5-.11-.99-.25-1.49-.33l-.37-.07-.19-.04c-.06-.01-.1-.02-.16-.02-.1-.02-.2-.03-.31-.04-.11-.01-.21-.03-.33-.03-.44-.04-.92-.05-1.42-.04-1,.02-2.07,.12-3.18,.26-1.11,.14-2.25,.32-3.42,.51l-.81,.13c-.43,.07-.82-.12-1.04-.4-.22-.28-.23-.66,.12-.91,.22-.16,.44-.31,.67-.46,1-.65,2.09-1.2,3.28-1.66,1.19-.46,2.48-.81,3.9-1,.71-.09,1.45-.14,2.21-.11,.19,0,.38,.02,.58,.03,.19,.01,.39,.03,.59,.06,.1,.01,.2,.02,.29,.04l.25,.05,.51,.1c.68,.12,1.33,.32,1.98,.5,.63,.22,1.27,.44,1.85,.72,1.18,.54,2.27,1.19,3.2,1.94,.93,.75,1.74,1.57,2.37,2.48,.14,.2,.27,.41,.4,.62Z"/><path d="M229.94,121.95c.17,.34-.06,.67-.42,.84-.36,.17-.8,.23-1.13,.04-.2-.11-.4-.22-.6-.33-.9-.49-1.79-.94-2.68-1.34-1.79-.79-3.54-1.4-5.35-1.74l-.34-.06c-.05,0-.12-.02-.16-.03l-.13-.02c-.09-.02-.18-.03-.27-.03-.09-.01-.19-.02-.29-.03-.39-.03-.82-.03-1.27-.01-.91,.03-1.9,.15-2.92,.3-1.03,.15-2.09,.35-3.18,.55l-.75,.14c-.4,.08-.79-.11-1.03-.38-.23-.27-.27-.64,.04-.9,.19-.16,.39-.31,.6-.46,.89-.65,1.89-1.21,2.98-1.69,1.09-.47,2.29-.86,3.63-1.07,.67-.11,1.38-.17,2.12-.16,.18,0,.37,0,.56,.02,.19,.01,.38,.03,.57,.05l.29,.04c.09,.01,.17,.03,.25,.04l.49,.09c.65,.13,1.28,.3,1.89,.5,.61,.2,1.2,.44,1.76,.71,1.11,.54,2.11,1.19,2.95,1.92,.84,.74,1.55,1.55,2.09,2.43,.12,.2,.23,.4,.33,.6Z"/><path d="M230.87,109.37c.22,.31,.05,.66-.27,.87-.32,.21-.75,.32-1.1,.18-.22-.08-.43-.17-.65-.25-.96-.37-1.9-.72-2.84-1.02l-.35-.12-.35-.11c-.23-.07-.46-.15-.69-.21-.23-.07-.46-.13-.69-.2-.23-.06-.46-.12-.69-.18-.92-.23-1.83-.45-2.75-.59l-.34-.06-.17-.03-.17-.02c-.23-.03-.46-.06-.69-.09l-.17-.03h-.08l-.07-.02c-.09,0-.18-.02-.26-.03-.18-.01-.35-.02-.52-.02-.7,0-1.43,.11-2.22,.37-.79,.26-1.61,.67-2.42,1.15-.19,.11-.37,.23-.56,.35-.29,.19-.74,.17-1.12,.03-.38-.14-.65-.45-.53-.8,.08-.21,.17-.43,.27-.63,.23-.45,.52-.9,.88-1.32,.36-.42,.79-.82,1.29-1.18,.51-.36,1.09-.69,1.74-.95,.65-.26,1.37-.45,2.12-.55,.37-.05,.75-.08,1.12-.09,.19,0,.37,0,.56,0h.27l.24,.03c.31,.03,.63,.05,.94,.09l.24,.02c.08,.01,.15,.02,.23,.04l.46,.08c2.47,.42,4.74,1.35,6.55,2.61,.91,.63,1.71,1.34,2.37,2.13,.15,.17,.28,.36,.42,.54Z"/><path d="M231.11,96.26c.09,.36-.25,.65-.65,.73-.41,.09-.84,.09-1.08-.08-.15-.11-.3-.21-.46-.3-.71-.42-1.45-.72-2.2-.93-.76-.21-1.53-.33-2.34-.42-.81-.08-1.66-.11-2.53-.11-.06,0-.11,0-.15,0h-.14c-.1,0-.19,0-.29,.01-.19,0-.39,.02-.58,.03-.39,.03-.79,.08-1.2,.14-.82,.12-1.67,.31-2.54,.53-.88,.23-1.78,.5-2.7,.79-.21,.07-.43,.14-.64,.21-.34,.11-.75-.02-1.06-.25-.3-.22-.46-.57-.24-.86,.13-.18,.27-.35,.42-.51,.65-.73,1.44-1.37,2.35-1.94,.91-.56,1.94-1.04,3.09-1.38,.57-.17,1.17-.3,1.8-.39,.31-.04,.63-.08,.95-.1,.16-.01,.32-.02,.48-.03h.24c.08,0,.16-.01,.23,0,1.18,0,2.39,.12,3.58,.4,1.19,.28,2.35,.74,3.33,1.39,.97,.65,1.75,1.49,2.15,2.41,.09,.21,.16,.42,.21,.63Z"/><path d="M232.13,90.42s-2.97-5.22-9.63-5.78c-4.67-.39-10.37,2.78-10.37,2.78,0,0,.33-7.9,0-15-.43-9.16,0-19,10.36-18.74,5.8,.14,9.06,7.72,9.64,16.74,.57,9.02,0,20,0,20Z"/></g></g></g><g><path d="M203.31,206.02c-.49,0-.99-.19-1.36-.57-.73-.75-.72-1.95,.03-2.69,2.77-2.7,5.39-6.38,9.17-15.52,1.67-4.02,10.19-25.36,14.41-50.54,3.32-19.78,3.63-41.09,3.8-52.54l.04-2.31c.01-.63,.06-1.4,.11-2.29,.16-2.56,.38-6.07-.1-10.21-.12-1.04,.63-1.99,1.67-2.11,1.06-.12,1.99,.63,2.11,1.67,.52,4.48,.28,8.34,.12,10.89-.05,.82-.1,1.54-.11,2.12l-.04,2.3c-.17,11.55-.49,33.05-3.85,53.12-4.29,25.59-12.96,47.28-14.65,51.37-4.04,9.74-6.93,13.75-10.03,16.78-.37,.36-.85,.54-1.33,.54Z"/><path d="M199.25,164.04c-.24,0-.49-.05-.72-.14-.97-.4-1.43-1.51-1.03-2.48,4.23-10.23,7.48-26.08,11.08-46.73,2.33-13.38,2.47-25.24,2.59-34.77,.18-14.8,.3-24.57,8.6-26.65,2.11-.53,4.33-.11,6.42,1.21,2.72,1.72,4.88,4.86,5.51,7.99,.21,1.03-.46,2.03-1.49,2.23-1.02,.21-2.03-.46-2.23-1.49-.42-2.13-1.96-4.35-3.81-5.53-.83-.53-2.1-1.08-3.47-.74-5.21,1.3-5.54,8.78-5.72,23-.12,9.67-.26,21.7-2.64,35.38-3.63,20.9-6.95,36.97-11.31,47.53-.3,.73-1.01,1.17-1.76,1.17Z"/></g><path d="M189.16,139.37c-13.62-29.1-44.43-27.25-55.26-27.71-7.95-.34-12.73-12.21-14.71-18.5-.31-.99-1.04-1.7-1.92-2.05,3.38-4.59,5.03-10.44,6.88-13.51,1.76-2.91,3.3-13.54,.28-21.89,.49-3,5.29-33.05,.73-34.56-2.51-.84-15.35,12.89-19.49,17.41-4.94-2.29-10.61-3.41-18.98-3.41-7.62,0-12.74,.64-16.96,2.36-4.88-5.28-16.19-17.15-18.53-16.37-4.8,1.6,.78,34.83,.78,34.83,0,0,.08-.13,.22-.35-2.53,6.96-3.04,15.83-1.18,21.98,2.71,8.97,5.94,10.84,12.44,16.25,.74,.61,2,1.36,3.68,2.12-.75,2.35-10.72,34.29-9.09,56.39,1.06,14.32,7.66,31.13,15.17,46.59,6.86,14.13,5.42,44.43,5.42,44.43,0,0-9.33,5.72-7.59,10.84,1.75,5.12,10.26,4.44,15.23,3.49,4.48-.86,7.98-1.32,12.94-1.32s4.89,4.87,14.09,3.26c6.56-1.14,14.09-5.68,8.67-11.93-1.44-1.66-3.25-4.33-3.25-4.33,0,0,.39,.05,1.08-5.42,2.79,2.32,6.7,1.99,8.75,5.16,.88,1.36-.99,5.13,1.53,8.05,2.52,2.92,1.46,4.09,8.05,3.78s26.66,2.25,32.92-1.38c6.26-3.62,26.3-10.59,30.02-31.45,4.28-23.99,3.97-48.81-11.92-82.77Z" style="fill:#eba731;"/><g style="mix-blend-mode:soft-light;"><g style="clip-path:url(#clippath-1);"><g><g><path d="M95.75,133.83c-1.07-.03-1.64-.53-1.66-1.04-.02-.51,.43-1.04,1.41-1.3,.59-.16,1.18-.32,1.77-.49,2.63-.76,5.21-1.62,7.71-2.6,2.5-.98,4.94-2.07,7.28-3.28,1.17-.61,2.31-1.26,3.43-1.93,.28-.17,.56-.34,.83-.52l.41-.26c.13-.09,.29-.18,.39-.26l.35-.25c.12-.08,.23-.16,.35-.25l.34-.27c.11-.09,.23-.17,.34-.28,.91-.77,1.8-1.66,2.65-2.61,.85-.95,1.68-1.97,2.48-3.01,.81-1.05,1.58-2.14,2.35-3.24,.77-1.11,1.53-2.23,2.27-3.37,1.49-2.28,2.94-4.63,4.39-6.99l.99-1.63c.53-.88,1.18-1.16,1.66-.97,.48,.18,.77,.86,.5,1.88-.16,.63-.34,1.26-.52,1.89-.81,2.73-1.81,5.41-2.97,8.03-.58,1.31-1.22,2.6-1.9,3.88-.69,1.27-1.42,2.53-2.23,3.76-.81,1.23-1.68,2.43-2.65,3.59-.97,1.16-2.03,2.28-3.25,3.3-.14,.13-.31,.25-.47,.38l-.48,.37c-.15,.13-.33,.24-.5,.36l-.51,.35c-.18,.12-.33,.21-.49,.31l-.48,.29c-.32,.2-.64,.38-.96,.56-1.29,.72-2.62,1.38-3.97,1.96-2.7,1.16-5.5,2.05-8.34,2.66-2.84,.61-5.72,.97-8.6,1.03-.65,0-1.29,0-1.94-.02Z"/><path d="M114.82,144.35c-1.14,.04-1.78-.42-1.83-.93-.05-.51,.41-1.07,1.44-1.39,.62-.2,1.24-.41,1.85-.63,2.75-.97,5.41-2.09,7.95-3.38,2.54-1.29,4.96-2.74,7.22-4.36,1.12-.82,2.2-1.68,3.24-2.58,1.02-.92,2.01-1.87,2.93-2.87l.68-.77,.34-.39,.35-.42c.47-.56,.94-1.12,1.41-1.68l2.84-3.39c1.9-2.27,3.83-4.53,5.79-6.77,1.96-2.24,3.96-4.46,6.01-6.64l1.42-1.49c1.53-1.59,2.95-.57,1.9,1.38-.33,.61-.66,1.21-.99,1.81-1.47,2.62-3.03,5.19-4.65,7.71-1.62,2.52-3.31,5-5.09,7.43-.89,1.21-1.79,2.42-2.72,3.61-.46,.6-.94,1.19-1.42,1.77l-.36,.44c-.12,.15-.26,.3-.39,.46-.27,.3-.53,.61-.8,.91-1.1,1.18-2.28,2.29-3.51,3.32-1.24,1.01-2.55,1.94-3.9,2.79-2.71,1.68-5.59,3.01-8.56,3.99-2.97,.98-6.02,1.63-9.1,1.93-.69,.06-1.38,.11-2.07,.13Z"/><path d="M117.75,164.19c-1.55,.34-2.57,.01-2.82-.54-.25-.56,.21-1.34,1.58-1.99l2.48-1.19c3.69-1.78,7.34-3.58,10.94-5.42,3.59-1.85,7.14-3.73,10.57-5.71l.65-.37,.64-.38,1.28-.75c.83-.51,1.69-1.01,2.5-1.54,1.66-1.03,3.26-2.11,4.82-3.22l1.16-.84c.38-.28,.75-.57,1.12-.86l.56-.43,.54-.44,.54-.44c.18-.15,.37-.29,.53-.45l1.03-.91c.18-.15,.33-.31,.5-.47l.49-.47c.16-.16,.33-.31,.49-.47l.46-.48,.46-.48c.08-.08,.16-.16,.23-.24l.22-.26,.87-1.02c.15-.17,.28-.35,.42-.53l.42-.54c.57-.71,1.09-1.48,1.63-2.23,.28-.37,.52-.77,.79-1.15l.78-1.16,.76-1.19,.38-.59,.37-.6c2-3.2,3.9-6.51,5.79-9.84l1.3-2.29c.69-1.23,1.56-1.67,2.19-1.46,.63,.21,1.02,1.1,.69,2.49-.21,.86-.43,1.72-.66,2.58-1.03,3.74-2.31,7.41-3.86,11.01l-.29,.68-.31,.67-.63,1.34c-.22,.45-.45,.89-.67,1.33-.23,.44-.45,.89-.7,1.32-.5,.88-.98,1.75-1.55,2.61l-.42,.65c-.14,.22-.27,.43-.43,.64l-.93,1.27-.24,.32c-.08,.1-.17,.21-.25,.31l-.52,.61-.52,.61c-.18,.2-.36,.39-.55,.58l-.55,.58c-.19,.19-.36,.39-.56,.57l-1.16,1.09c-.19,.19-.39,.35-.59,.53l-.6,.52-.6,.52-.62,.49c-.42,.33-.83,.66-1.25,.98l-1.28,.93c-1.72,1.22-3.49,2.37-5.31,3.43-.9,.54-1.83,1.04-2.75,1.55l-1.4,.73-.7,.36-.71,.35c-3.78,1.88-7.69,3.51-11.68,4.95-4,1.43-8.08,2.68-12.24,3.71-.93,.23-1.87,.44-2.81,.65Z"/><path d="M187.13,124.77c.54-1.1,1.67-1.58,2.72-1.53,1.05,.05,2.03,.73,2.08,1.95,.02,.37,.03,.74,.03,1.1,0,.37,0,.74,0,1.1-.1,3.29-.72,6.56-1.76,9.81-1.05,3.24-2.58,6.46-4.66,9.57l-.38,.58c-.13,.19-.28,.38-.42,.58l-.86,1.15c-.55,.76-1.24,1.54-1.91,2.29-1.37,1.5-2.89,2.9-4.47,4.25-3.18,2.69-6.69,5.12-10.39,7.38-3.71,2.26-7.61,4.34-11.68,6.26-4.07,1.92-8.28,3.7-12.68,5.3-1.01,.36-2.02,.72-3.05,1.06-1.65,.56-3.03,.36-3.65-.2-.62-.55-.52-1.43,.72-2.29,0,0,20.91-12.01,24.07-14.29,3.15-2.29,6.21-4.59,9-6.94,1.38-1.18,2.72-2.36,3.93-3.56,.59-.61,1.18-1.18,1.73-1.84l.85-.96c.14-.16,.29-.32,.42-.48l.4-.49c2.17-2.61,4.12-5.34,5.93-8.16,1.81-2.82,1.47-6.71,3.01-9.67,.18-.33,.35-.66,.52-.99,.17-.33,.34-.66,.5-1Z"/><path d="M197.41,145.6c0-1.1,.5-1.75,1.16-1.9,.66-.15,1.52,.32,1.94,1.48,.25,.7,.48,1.41,.67,2.13,.84,3.2,1.08,6.54,.71,9.89-.37,3.34-1.42,6.69-3.13,9.81-.22,.39-.43,.78-.67,1.16l-.73,1.14-.8,1.1c-.07,.09-.13,.18-.2,.27l-.22,.27-.43,.53c-.15,.18-.29,.36-.44,.53l-.46,.51-.47,.51-.24,.26-.27,.26-.54,.53c-.18,.18-.37,.33-.55,.49l-.56,.48-.56,.45c-1.51,1.18-3.07,2.2-4.65,3.15-1.58,.95-3.19,1.82-4.82,2.64-3.26,1.64-6.6,3.08-10.01,4.38-3.41,1.3-6.87,2.47-10.4,3.48-.81,.23-1.62,.45-2.44,.67-1.32,.35-2.23,.06-2.51-.46-.29-.53,.03-1.29,1.15-1.93l2.09-1.2c3.05-1.74,6.11-3.43,9.13-5.13,3.03-1.7,6.03-3.39,8.95-5.11,1.46-.86,2.89-1.73,4.27-2.63,1.38-.89,2.71-1.8,3.9-2.73l.45-.35,.41-.35c.13-.12,.28-.23,.41-.35l.37-.35,.19-.17,.19-.2,.39-.4,.39-.4,.37-.42,.37-.42,.18-.21c.06-.07,.11-.14,.17-.21l.69-.86,.65-.88c.22-.29,.41-.6,.62-.9,1.6-2.43,2.84-5.06,3.7-7.85,.87-2.78,1.37-5.71,1.53-8.7,.04-.67,.06-1.34,.05-2.01Z"/><path d="M213.97,168.07c.82-1.07,1.58-1.39,2.03-1.14,.45,.25,.56,1.11-.02,2.36-.35,.76-.71,1.51-1.08,2.25-1.67,3.33-3.56,6.55-5.63,9.67-2.07,3.12-4.34,6.12-6.84,8.96-1.25,1.42-2.56,2.8-3.94,4.12-1.38,1.32-2.82,2.6-4.35,3.79-.39,.29-.78,.58-1.17,.86l-.59,.43c-.2,.14-.39,.29-.59,.41l-1.19,.79c-.4,.26-.79,.53-1.19,.77-.8,.49-1.6,.99-2.41,1.47-.81,.47-1.62,.93-2.43,1.39-3.26,1.81-6.57,3.46-9.93,5.01-3.36,1.55-6.76,2.99-10.22,4.31-.79,.3-1.59,.6-2.38,.88-1.28,.47-2.12,.3-2.34-.16-.22-.46,.16-1.21,1.3-1.94l2.13-1.36c3.1-1.97,6.22-3.89,9.33-5.8,3.11-1.92,6.21-3.81,9.27-5.74l2.28-1.45c.76-.49,1.49-.99,2.24-1.47,.38-.24,.73-.5,1.1-.75l1.09-.75c.19-.12,.36-.25,.53-.38l.52-.39c.35-.26,.7-.51,1.04-.77,1.37-1.06,2.7-2.2,4-3.38,1.3-1.18,2.58-2.41,3.82-3.68,2.49-2.54,4.9-5.2,7.24-7.94,2.35-2.74,4.63-5.57,6.87-8.44,.5-.64,1-1.29,1.5-1.93Z"/><path d="M214.39,198.64c.69-.92,1.4-1.19,1.86-.96,.46,.23,.64,1.01,.19,2.12-.14,.34-.28,.67-.43,1.01l-.45,1c-1.37,2.95-2.99,5.78-4.8,8.49-1.82,2.71-3.84,5.3-6.06,7.73-2.24,2.42-4.67,4.66-7.28,6.72-1.37,1.05-2.78,1.97-4.21,2.82-1.43,.85-2.88,1.62-4.35,2.34-2.93,1.44-5.92,2.68-8.96,3.77-3.03,1.09-6.11,2.04-9.22,2.83-.71,.18-1.43,.35-2.15,.52-1.16,.26-1.89-.03-2.05-.51-.17-.48,.21-1.16,1.24-1.7l1.93-1.01c2.81-1.46,5.62-2.9,8.39-4.36,2.78-1.46,5.52-2.93,8.2-4.46,1.34-.77,2.65-1.55,3.93-2.36,1.27-.81,2.51-1.65,3.65-2.53,2.37-1.86,4.67-3.86,6.89-5.96,2.21-2.12,4.33-4.34,6.4-6.65,2.06-2.31,4.06-4.7,5.99-7.17l.65-.83,.64-.84Z"/></g><g><g><path d="M50.65,66.21c2.12,.1,3.94,.09,5.94-.08,1.98-.11,3.96-1.03,6.08-.59-1.74,1.52-3.44,2.91-5.84,3.11-2.28,.18-4.81-.49-6.18-2.44h0Z"/><path d="M51.27,75.66c2.84-1.24,5.74-1.81,8.69-2.47,3.17-.65,8.13-3.04,2.48,1.38-3.27,2-7.55,2.4-11.17,1.09h0Z"/></g><g><path d="M124.95,66.21c-1.37,1.94-3.9,2.61-6.18,2.44-2.4-.2-4.1-1.6-5.84-3.11,2.12-.44,4.1,.48,6.08,.59,2,.17,3.82,.19,5.94,.08h0Z"/><path d="M124.33,75.66c-3.62,1.31-7.9,.91-11.17-1.09-5.64-4.41-.7-2.04,2.48-1.38,2.96,.66,5.85,1.23,8.69,2.47h0Z"/></g><g><path d="M75.08,61c0,.15-.11-.16-.12-.18-.9-2.59-1.14-5.35-1.03-8.08,.16-2.94,.8-5.67,2.02-8.39,.28-.72,1.34-.63,1.66-.27,.25,.22,.37,.47,.51,.73,1.23,2.81,2.01,5.75,2.6,8.75-1.62-2.52-2.91-5.49-4.52-7.95,.14,.11,.12,.22,.67,.28l.98-.66c-.64,2.46-1.14,5.2-1.58,7.74-.32,2.27-.82,5.79-1.19,8.03h0Z"/><path d="M84.69,47.28c-1.75-2.51-2.09-5.9-1.39-8.84,.24-1.03,1.02-1.76,1.39-2.7,.18,.99-.35,1.94-.37,2.91-.11,2.76,.2,5.85,.37,8.63h0Z"/><path d="M77,41.9c-.51-2.71,.38-6.34,3.33-7.18-1.65,2.43-1.84,4.69-3.33,7.18h0Z"/><path d="M98.22,61c-.37-2.23-.87-5.76-1.19-8.03-.43-2.54-.94-5.27-1.58-7.74l.98,.66c.55-.07,.53-.17,.67-.28-1.61,2.46-2.89,5.43-4.52,7.95,.64-3.11,1.4-6.22,2.79-9.09,.26-.35,.34-.59,1.06-.68,.45-.04,.83,.26,.98,.66,2.25,5.13,2.68,11.03,.94,16.36l-.05,.12-.03,.06s0,.02-.03,.03c-.02-.02,0-.03,0-.04h0Z"/><path d="M96.3,41.9c-1.49-2.48-1.68-4.74-3.33-7.18,2.95,.84,3.84,4.47,3.33,7.18h0Z"/><path d="M88.5,47.28c.16-2.78,.47-5.87,.37-8.63-.02-.97-.55-1.92-.37-2.91,.38,.94,1.15,1.67,1.39,2.7,.7,2.94,.35,6.32-1.39,8.84h0Z"/></g></g></g></g></g><path d="M180,228.11c-11.48-7.84-15.13-14.85-15.33-25.83-.21-10.99,13.76-29.01,7.21-41.39-7.56-14.28-39.57,26.94-61.92-4.54-8.95-12.61-9.87-37.13,9.4-53.29,1.01-.85,1.98-1.66,2.93-2.46-1.25-2.63-2.22-5.3-2.91-7.49-.29-.92-.94-1.66-1.8-2.07,2.03-2.82,3.4-6.02,4.62-8.85,.62-1.44,1.17-2.71,1.73-3.76-5.69-1.72-16.14-5.47-20.57-10.87-3.2-3.9-10.81-23.07-15.33-23.07-5.1,0-10.14,17.64-15.33,23.07-4.06,4.24-16.35,9.13-21.55,11.08,2.38,7.32,5.24,9.68,10.27,13.8,.61,.5,1.25,1.02,1.92,1.59,.76,.63,2.02,1.37,3.56,2.08-1.33,4.2-10.64,34.7-9.05,56.3,.9,12.21,5.87,27.47,15.19,46.67,6.56,13.51,5.49,42.25,5.4,44.23-1.02,.64-9.29,6.02-7.58,11.02,.96,2.81,4.07,4.29,9,4.29,2.46,0,4.87-.36,6.46-.67,4.34-.83,7.84-1.32,12.9-1.32,1.9,0,3.01,.72,4.29,1.54,1.48,.96,3.16,2.04,6.41,2.04,1.03,0,2.18-.11,3.42-.33,4.32-.75,9.22-3.02,10.42-6.37,.67-1.88,.12-3.86-1.63-5.89-1.25-1.44-2.79-3.67-3.16-4.2,.22-.39,.54-1.55,.99-5.05,1.14,.86,2.44,1.34,3.69,1.8,1.84,.68,3.59,1.32,4.73,3.09,.29,.46,.24,1.29,.17,2.25-.12,1.75-.26,3.94,1.37,5.82,.54,.62,.9,1.16,1.23,1.63,1.04,1.51,1.56,2.27,5.18,2.27,.53,0,1.13-.02,1.81-.05,.39-.02,.82-.03,1.29-.03,1.83,0,4.23,.12,7.01,.25,3.48,.17,7.43,.36,11.2,.36h0c6.77,0,11.19-.65,13.51-1.99,.86-.5,2-1.07,3.31-1.72,6.77-3.39,18.33-9.18,24.03-21.16-7.47,.96-14.73-.2-18.5-2.78Z" style="fill:#fff;"/><g><path d="M97.06,244.21s-.08,0-.12,0c-1.05-.06-1.85-.96-1.78-2.01,.01-.18,1.09-18.37,.62-27.79-.12-2.38-.55-4.73-1.28-6.98l-4.67-14.37c-.32-1,.22-2.07,1.22-2.4,1-.33,2.07,.22,2.4,1.22l4.67,14.37c.84,2.58,1.33,5.26,1.46,7.97,.47,9.62-.58,27.45-.63,28.2-.06,1.01-.9,1.79-1.89,1.79Z"/><path d="M116.44,260.81c-2.17,0-4.73-.23-7.68-.7-3.9-.62-6.99-2.22-8.47-4.41-.89-1.31-1.18-2.78-.85-4.24,.23-1.02,1.25-1.67,2.27-1.44,1.02,.23,1.67,1.25,1.44,2.27-.06,.27-.1,.7,.29,1.27,.68,1.01,2.6,2.27,5.92,2.79,9.16,1.45,11.82,.06,12.42-.4,.31-.24,.45-.48,.49-.83,.31-3.07-1.35-5.21-2.95-7.27-.98-1.27-1.91-2.46-2.38-3.84-1.49-4.39,11.74-61.32,11.9-61.84,.3-1,1.36-1.57,2.37-1.27,1,.3,1.58,1.36,1.27,2.37-1.81,6.02-12.32,55.24-11.91,59.62,.29,.76,1,1.67,1.75,2.64,1.77,2.28,4.2,5.41,3.73,9.99-.14,1.39-.82,2.58-1.95,3.46-1.6,1.23-4.13,1.84-7.65,1.84Zm4.13-17.87h0Z"/><path d="M159.8,256.33c-1.86,0-3.49-.04-5.17-.08-1.72-.04-3.53-.05-5.61-.08h-.07c-4.67,0-12.99-.26-16.84-2-4.12-1.86-5.77-5.23-4.9-10.03,1.4-7.73,12.46-8.96,12.93-9.01,1.04-.11,1.98,.65,2.09,1.7,.11,1.04-.65,1.98-1.7,2.09-.08,0-8.71,1.06-9.58,5.91-.56,3.06,.23,4.77,2.72,5.89,2.73,1.23,9.67,1.67,15.29,1.67h.16c2.11,0,3.89,.04,5.61,.09,3.34,.08,6.5,.16,11.74-.09,6.93-.33,23.19-11.93,30.13-25.61,6.55-12.92,2.19-41.09,2.14-41.38-.16-1.04,.54-2.01,1.58-2.17,1.05-.17,2.01,.54,2.17,1.58,.19,1.21,4.6,29.67-2.51,43.69-5.98,11.8-22.88,27.2-33.34,27.69-2.73,.13-4.91,.17-6.84,.17Z"/><path d="M51.07,51.28c-.61,0-1.21-.29-1.58-.84-2.87-4.25-3.88-22.01-2.17-28.03,.29-1.01,.82-2.43,2.11-3.01,5.25-2.36,20.04,14.69,20.18,14.87,.64,.83,.49,2.02-.34,2.67-.83,.64-2.02,.49-2.67-.34-2.83-3.66-12.52-12.76-15.5-13.6-1.52,3.47-.87,21.73,1.54,25.31,.59,.87,.36,2.05-.51,2.64-.33,.22-.7,.33-1.06,.33Zm.22-28.62"/><path d="M125.3,51.28c-.37,0-.74-.11-1.06-.33-.87-.59-1.1-1.77-.51-2.64,2.42-3.58,3.07-21.85,1.54-25.31-2.98,.83-12.67,9.94-15.5,13.6-.64,.83-1.84,.98-2.67,.34-.83-.64-.98-1.84-.34-2.67,.14-.18,14.95-17.23,20.18-14.87,1.29,.58,1.82,1.99,2.11,3.01,1.71,6.01,.7,23.78-2.17,28.03-.37,.54-.97,.84-1.58,.84Zm-.22-28.62h0Z"/><path d="M105.72,40.74c-.23,0-.47-.04-.7-.13-.09-.04-8.92-3.5-18.43-3.5s-14.56,3.3-14.62,3.33c-.88,.56-2.06,.3-2.62-.58-.56-.88-.31-2.05,.57-2.62,.25-.16,6.22-3.94,16.67-3.94s19.45,3.62,19.84,3.77c.97,.39,1.45,1.49,1.06,2.47-.3,.75-1.01,1.2-1.77,1.2Z"/><path d="M82.86,260.47c-6.17,0-12.74-2.36-12.81-9-.04-3.97,2.67-5.6,4.65-6.79,2.05-1.23,3.12-1.98,3.12-4.15,0-6.7-2.98-29.62-5.32-36.55-.67-1.98-1.98-4.78-3.51-8.02-3.93-8.36-9.87-21-12.35-35.89-2.92-17.51,.08-28.84,3.55-41.95,.47-1.78,.95-3.59,1.42-5.45,1.36-5.33,2.14-9.38,2.14-9.42,.2-1.03,1.19-1.71,2.22-1.51,1.03,.2,1.71,1.19,1.51,2.22-.03,.17-.81,4.19-2.19,9.64-.48,1.87-.96,3.69-1.43,5.49-3.36,12.69-6.26,23.64-3.48,40.35,2.39,14.37,7.97,26.23,12.04,34.9,1.64,3.48,2.93,6.23,3.67,8.42,2.63,7.8,5.52,31.38,5.52,37.76,0,4.42-2.87,6.15-4.97,7.41-1.91,1.14-2.82,1.77-2.8,3.49,.05,4.83,6.8,5.24,9.02,5.24h.09c5.62-.03,10.95-2.98,11-3.01,.91-.51,2.07-.19,2.59,.73,.51,.91,.19,2.07-.72,2.59-.25,.14-6.21,3.46-12.84,3.5h-.12Z"/><path d="M200.54,173.1s-.03,0-.05,0c-1.05-.03-1.88-.9-1.85-1.95,0-.05,.08-5.23-2.46-13.08-2.34-7.25-7.46-18.32-18.54-29.92-12.71-13.32-26.16-14.46-36.97-15.39-4.63-.4-8.62-.74-11.81-2.01-7.93-3.18-14.19-13.27-10.94-24.66,.76-2.64,1.71-4.5,2.73-6.46,1.28-2.47,2.61-5.03,3.76-9.73,1.8-7.35-1.72-17.01-1.76-17.11-.36-.98,.14-2.08,1.12-2.44,.98-.37,2.08,.14,2.44,1.12,.16,.44,3.97,10.84,1.88,19.34-1.26,5.13-2.75,8.02-4.07,10.57-.96,1.86-1.8,3.47-2.45,5.75-2.66,9.32,2.33,17.53,8.7,20.09,2.66,1.07,6.4,1.39,10.72,1.75,10.84,.93,25.69,2.19,39.39,16.55,22.35,23.41,22.08,44.82,22.05,45.72-.03,1.03-.87,1.85-1.9,1.85Z"/><path d="M104.16,39.82c-.3,0-.61-.07-.89-.22-.04-.02-4.64-2.33-14.81-2.33s-15.61,2.36-15.66,2.38c-.95,.43-2.08,0-2.51-.94s-.02-2.08,.93-2.51c.24-.11,6.06-2.73,17.24-2.73s16.38,2.66,16.59,2.77c.93,.49,1.28,1.64,.79,2.57-.34,.64-1,1.01-1.68,1.01Z"/><path d="M65.51,99.7c-.71,0-1.4-.4-1.72-1.09-.67-1.43-1.82-3.17-3.44-5.19-.53-.66-1.08-1.33-1.65-2-3.88-4.66-8.71-10.46-10.27-21.82-1.17-8.52,1.72-17.65,1.84-18.03,.32-1,1.39-1.55,2.39-1.23,1,.32,1.55,1.39,1.23,2.39-.03,.09-2.74,8.71-1.69,16.36,1.41,10.29,5.67,15.4,9.42,19.9,.58,.7,1.15,1.38,1.7,2.07,1.8,2.25,3.11,4.25,3.91,5.95,.45,.95,.04,2.08-.91,2.53-.26,.12-.54,.18-.81,.18Z"/><path d="M96.57,189.59s-.06,0-.09,0c-.19,0-4.75-.26-10.82-4.2-6.16-3.99-9.06-11.38-9.18-11.69-.38-.98,.11-2.08,1.09-2.46,.98-.38,2.08,.11,2.46,1.08h0c.03,.07,2.6,6.56,7.7,9.88,5.13,3.33,8.9,3.59,8.94,3.59,1.04,.06,1.85,.95,1.79,2-.05,1.01-.89,1.8-1.89,1.8Z"/></g></g></g></svg>