<?xml version="1.0" encoding="UTF-8"?><svg xmlns="http://www.w3.org/2000/svg" xmlns:xlink="http://www.w3.org/1999/xlink" viewBox="0 0 280 280"><defs><clipPath id="clippath"><path d="m202.92,206.4s17.29-14.45,24.5-67.73c5.16-38.13,9.96-84.06-5.07-84.06-13.02,0-8.12,29.03-12.93,65.06-4,30-14,51-14,51,0,0-4.27,32.9,7.5,35.73Z" style="fill:none;"/></clipPath><clipPath id="clippath-1"><path d="m189.16,139.37c-13.62-29.1-44.43-27.25-55.26-27.71-7.95-.34-12.73-12.21-14.71-18.5-.61-1.92-2.79-2.84-4.58-1.92-5.6,2.89-16.87,8.03-26.22,8.03-13.23,0-15.62-7.5-21.2-3.45,0,0-10.84,33.59-9.14,56.54,1.06,14.32,7.66,31.13,15.17,46.6,6.86,14.13,5.42,44.43,5.42,44.43,0,0-9.33,5.72-7.59,10.84,1.75,5.12,10.26,4.44,15.23,3.49,4.48-.86,7.98-1.32,12.94-1.32s4.89,4.87,14.09,3.26c6.56-1.14,14.09-5.68,8.67-11.93-1.44-1.66-3.25-4.33-3.25-4.33,0,0,.39.05,1.08-5.42,2.79,2.32,6.7,1.99,8.75,5.16.88,1.36-.99,5.13,1.53,8.05,2.52,2.92,1.46,4.09,8.05,3.78s26.66,2.25,32.92-1.38c6.26-3.62,26.3-10.59,30.02-31.45,4.28-23.99,3.97-48.81-11.92-82.77Z" style="fill:none;"/></clipPath><clipPath id="clippath-2"><path d="m56.31,48.35c-5.85,6.5-7.9,20.6-5.28,29.26,2.71,8.97,5.94,10.84,12.44,16.25,2.78,2.32,12.83,6.5,26.01,6.5,7.34,0,17.87-.68,24.31-5.61,5.92-4.54,7.97-13.17,10.36-17.14,2.36-3.91,4.33-21.67-4.57-29.26-10.48-8.93-16.52-13.2-32.88-13.2s-21.18,2.96-30.39,13.2Z" style="fill:none;"/></clipPath></defs><path d="m202.92,206.4s17.29-14.45,24.5-67.73c5.16-38.13,9.96-84.06-5.07-84.06-13.02,0-8.12,29.03-12.93,65.06-4,30-14,51-14,51,0,0-4.27,32.9,7.5,35.73Z" style="fill:#c9c9c9;"/><g style="opacity:.8;"><g style="clip-path:url(#clippath);"><path d="m232.43,90.66s-2.97-5.22-9.63-5.78c-4.67-.39-10.37,2.78-10.37,2.78,0,0,.33-7.9,0-15-.43-9.16,0-19,10.36-18.74,5.8.14,9.06,7.72,9.64,16.74.57,9.02,0,20,0,20Z"/><path d="m211.83,189.23s-1-12-3-15-8-7-4-11,6,1,9,0,8-4,10-2,1,8,1,15-7,15-13,13Z"/><path d="m198.83,155.23c-4-4-1-12,4-13,1.39-.28,5,3,7,4s11,0,10,3-7,1-10,4-7,6-11,2Z"/><path d="m214.83,99.23c2.19.44,5,5,9,5s6,1,8,4-8,0-10,1-8,2-11-1c-2.12-2.12-1-10,4-9Z"/><path d="m232.83,122.23c5,2,2.66,9.89,1,11-3,2-12,2-15,2s-8-3-6-7,5-1,8-2,7-6,12-4Z"/></g></g><path d="m203.29,205.67c-.49,0-.99-.19-1.36-.57-.73-.75-.72-1.95.03-2.69,2.77-2.7,5.39-6.38,9.18-15.52,1.67-4.02,10.19-25.36,14.41-50.54,3.32-19.78,3.63-41.08,3.8-52.53l.04-2.32c.01-.63.06-1.4.11-2.29.16-2.56.38-6.08-.1-10.22-.12-1.04.63-1.99,1.67-2.11,1.04-.13,1.99.62,2.11,1.67.52,4.48.28,8.34.12,10.9-.05.82-.1,1.53-.11,2.12l-.04,2.31c-.17,11.55-.49,33.04-3.85,53.1-4.29,25.59-12.96,47.28-14.65,51.37-4.03,9.74-6.93,13.75-10.03,16.78-.37.36-.85.54-1.33.54Z"/><path d="m198.43,165.57c-.26,0-.53-.05-.78-.17-.96-.43-1.38-1.56-.94-2.52,4.61-10.15,7.96-26.1,11.86-48.54,2.33-13.38,2.47-25.24,2.59-34.77.18-14.8.3-24.57,8.6-26.65,2.12-.53,4.34-.11,6.42,1.21,2.72,1.72,4.88,4.86,5.51,7.99.21,1.03-.46,2.03-1.49,2.23-1.03.21-2.03-.46-2.23-1.49-.42-2.13-1.96-4.35-3.81-5.53-.83-.53-2.11-1.08-3.47-.74-5.21,1.3-5.54,8.78-5.72,23-.12,9.67-.26,21.7-2.64,35.38-3.95,22.73-7.36,38.94-12.14,49.46-.32.7-1.01,1.11-1.73,1.11Z"/><path d="m189.16,139.37c-13.62-29.1-44.43-27.25-55.26-27.71-7.95-.34-12.73-12.21-14.71-18.5-.61-1.92-2.79-2.84-4.58-1.92-5.6,2.89-16.87,8.03-26.22,8.03-13.23,0-15.62-7.5-21.2-3.45,0,0-10.84,33.59-9.14,56.54,1.06,14.32,7.66,31.13,15.17,46.6,6.86,14.13,5.42,44.43,5.42,44.43,0,0-9.33,5.72-7.59,10.84,1.75,5.12,10.26,4.44,15.23,3.49,4.48-.86,7.98-1.32,12.94-1.32s4.89,4.87,14.09,3.26c6.56-1.14,14.09-5.68,8.67-11.93-1.44-1.66-3.25-4.33-3.25-4.33,0,0,.39.05,1.08-5.42,2.79,2.32,6.7,1.99,8.75,5.16.88,1.36-.99,5.13,1.53,8.05,2.52,2.92,1.46,4.09,8.05,3.78s26.66,2.25,32.92-1.38c6.26-3.62,26.3-10.59,30.02-31.45,4.28-23.99,3.97-48.81-11.92-82.77Z" style="fill:#c9c9c9;"/><g style="opacity:.8;"><g style="clip-path:url(#clippath-1);"><path d="m166.81,186.78c-2.04-.18-5.36.61-7.61-1.78-2.66-2.84-5.02-8.48-5.09-12.49-.12-7.26,5.17-12.91,8.98-12.9,2.78.01,6.91,2.79,8.36,5.29,1.84,3.18,1.82,7.93,2.07,10.88.46,5.26-.39,11.57-6.71,11.01Z"/><path d="m168.26,156.19c7.55,2.67,8.51,10,9.41,15.7s-.34,12.14-1.68,15c-1.5,3.18-2.76,8.16-8.33,10.87-4.86,2.37-6.39,3.1-12.42,5.86-6.87,3.15-17.42,9.72-17.16,12.97s9.1-3.8,14.84-5.77c7.46-2.56,19.25-3.52,25.38-8.96,6.13-5.44,10.9-15.74,11.07-21.81.17-6.06-1.78-19.67-6.92-25.33-5.2-5.73-13.87-8.89-19.97-8.13-9,1.11-15.37,7.04-18.04,12.58-1.9,3.95-2.27,12.87-1.09,19.58,1.12,6.34,3.86,10.16,8.96,14.1,5.25,4.06,14.96,3.45,14.19.51-.5-1.94-6.88-1.74-11.15-6.53-5.04-5.64-5.92-11.55-3.94-19.57,1.5-6.09,5.35-15.13,16.84-11.06Z"/><path d="m184.55,123.68c-7.14-3.03-15.14,3.04-21.01,4.51-9.01,2.26-18.12,12.05-29.06,18.28-10.02,5.71-5.39,34.48,1.89,34.51,5,.02-4.58-21.67,9.1-31.02,10.77-7.36,17.05-14.88,29.83-11.32,6.36,1.77,12.57,9.94,17.14,18.41,4.04,7.48,3.25,12.79,3.42,21.09.17,8.3-3.03,14.59-6.99,20.97-4.2,6.76-7.39,11.93-17.61,15.77-9.66,3.62-27.53,4.25-26.02,7.53,1.51,3.28,21.23,4.16,33.37,0,10.37-3.56,15.23-8.74,19.91-18.71,4.69-9.97,9.9-18.47,9-29.56-.89-11.1-.18-19.2-5.05-26.26-5.09-7.38-11.79-21.62-17.92-24.23Z"/><path d="m194.05,119.4c4.36,1.54,8.87,9.74,6.9,11.33-1.97,1.59-9.25-3.9-17.41-4.75-3.86-.4-7.33-1.97-13,1.1-4.58,2.47-6.81-.62-11.03,9.16-3.38,7.84-14.78,6.72-23.18,11.17-4.88,2.59-12.37,4.33-13.48.06-.87-3.35,9.69-2.41,14.65-7.77,6.75-7.28,15.92-6.71,18.04-13.83,2.12-7.12,9.68-8.9,15.49-9.52,7.72-.82,17.77,1.21,23.02,3.06Z"/><path d="m176.67,101.95c4.47,1.05,12.37,16.7,10.55,18.5-1.83,1.8-6.21-4.28-14.41-4.22-3.88.03-10.54-1.97-15.93,1.72-4.35,2.97-2.27,1.75-9.3,9.09-7.4,7.73-17.08,8.68-25.06,14.05-4.64,3.12-30.14,8.96-32.01,4.47-2.21-5.29,25.82-8.49,30.3-14.37,6.1-8,14.64-5.15,19.45-10.02,4.91-4.97,8.31-14.76,14.03-16.02,7.62-1.68,17.01-4.45,22.38-3.19Z"/><path d="m60.5,142.31c7.18,1.77,15.96-.39,16.77,2.39,1.41,4.82-8.65,4.7-16.02,5.25-8.41.63-17.6-3.92-13.75-15.75,1.47-4.52,5.82,6.34,13.01,8.11Z"/><path d="m62.59,194.83c9.27,3.47,21.43,4.23,21.1,1.95-.33-2.28-7.92-5.83-13.03-6.26s-15.01-12.95-16.82-11.53c-1.81,1.42-4.29,5.26-2.64,9.68,1.65,4.41,10.75,5.92,11.39,6.16Z"/><path d="m59.36,164.89c9.6.66,19.84-3.57,19.15-5.7-.69-2.13-3.97-1.82-9.03-.73-5.05,1.09-19.66-8.4-21.2-6.47-1.54,1.93-3.34,6.41-1.02,10.24s11.42,2.62,12.09,2.66Z"/><path d="m52.25,179.72c9.56,1.15,22.12,2.17,22.12-.13.02-5.75-5.93-8.94-10.97-8.1-5.05.84-20.54-7.11-22.09-5.26-1.55,1.85-3.37,6.26-1.09,10.21s11.37,3.2,12.04,3.28Z"/><path d="m70.32,204.38s3.97,1.66,7.97,1.67,8,.03,8,1.18-2.01,2.29-5.01,2.28c-3-.01-6.01,3.43-10,1.11-3.99-2.32-8.99-2.34-8.98-5.79s6.04-.95,8.02-.46Z"/><path d="m96.28,209.58c-3.99-2.32-12,1.1-13.01,3.4-1.01,2.3,3.99,2.32,6.99,2.33,3,.01,7.99,3.48,8,1.18,0-2.3,2.01-4.59-1.98-6.91Z"/><path d="m70.23,225.57c-.32-2.27,6.01-3.43,10.01-3.41s6.01-2.28,6,.02-7.01,3.42-10.02,5.71c-3.01,2.29-5.01,4.58-5.99-2.33Z"/><path d="m97.24,224.54c-3-.01-8.01,3.42-11.01,4.56-3,1.14-4,1.13-4.01,3.43,0,2.3,3,.01,7,.03,4,.02,10.99,3.5,11,.05s1.03-8.05-2.97-8.06Z"/><path d="m97.3,203.83c-.01,3.45.99,4.61,5.98,5.78,5,1.17,14.01-2.24,14,1.21-.01,3.45-13.02,5.7-11.03,9.16,1.23,2.15,15,1.21,16.01-4.53,1.02-5.75,2.03-8.04.03-9.2-2-1.16-7.99-3.48-12.99-3.5-5-.02-11.98-6.95-12,1.1Z"/><path d="m119.24,224.63c-.95-.37-5.01,4.58-9.01,4.56s-7-1.18-7,1.12,5.99,2.33,8.99,2.34c3,.01,7.99,3.48,8,.03.01-3.45,2.02-6.89-.97-8.06Z"/><path d="m99.2,237.2c.49-2.23,8,1.18,10,1.19,2,0,5,1.17,4.99,2.32s-10-.04-11-.05-5,1.13-3.99-3.47Z"/><path d="m95.45,155.51c.97-2.2,7.33-.47,14.01-2.24,4.11-1.09,6.35-5.56,9.02-6.86,6.29-3.07,14.48-3.24,16-1.08,1.52,2.15,2.75,11.83-2.04,12.64-2.27.39-15.95.61-22.01,2.21-6.7,1.77-15.99-2.37-14.99-4.66Z"/><path d="m98.46,176.23c-1.09,3.34,10.34,2.34,14.77,6.96,3.54,3.7-.04,12.65,5.88,12.68,2.09,0,5.93-5.73,5.95-10.33.01-4.6,3-14.94-1.42-17.26-4.43-2.32-7.41,5.72-10.37,5.71s-13.3-2.36-14.79,2.24Z"/><path d="m208.31,201.99c5,1.17,2.95,16.12.93,21.86-2.02,5.74-9.04,12.62-16.04,13.74-7,1.12-19.52-1.23-24-1.25-5-.02-13.01,3.4-11-1.2,2.01-4.59,16.02-5.69,24.02-7.95,8.01-2.27,16.04-13.74,18.05-16.03,2.01-2.29,3.03-10.34,8.03-9.17Z"/><path d="m186.18,244.46s-5.99-2.33-11.99-2.35c-6-.02-13.99-2.36-19-1.23-5,1.13-8.01,2.27-4.02,5.73s10-1.11,17,1.22c6.99,2.33,7.74,5.59,9.36,5.12,1.62-.47,10.64-5.04,8.65-8.5Z"/><path d="m138.35,187.9c2.76,4.8,12.97,8.11,11.97,10.4-1.01,2.3-6-.02-10.01,2.26-4.01,2.28-11.03,8.01-10,1.11,1.02-6.9-.95-16.11,2.05-16.09s4-1.13,5.99,2.33Z"/><path d="m61.68,99.79s.98,11.89,4.7,12.62,14.57-1.94,19.71-3.7c5.56-1.91,17.05-.96,20.58-2.61,3.53-1.65,12.92-10.05,15.14-12.73,2.22-2.68,6.47-10.43,9.08-8.36,2.61,2.07,3,6.83-2.74,11.16-5.75,4.33-13.89,13.54-20.98,15.88-5.94,1.96-15.12-.48-19.64.09-4.27.54-16.83,8.14-21.85,6.38-5.03-1.76-7.74-5.02-8.23-10.97-.49-5.94,2.94-8.78,4.25-7.75Z"/><path d="m149.29,88.68c-3.78,2.01-4.45,10.61-6.6,12.93-2.14,2.32-5.43,8.18-7.57,10.5-1.52,1.64-7.44,5.72-10.59,6.8s-1.14,3.55,2.01,2.47,8.45-4.48,11.66-7.96c3.22-3.48,9.35-7.06,11.52-10.57,2.18-3.51,7.83-10.22,6.8-12.71s-5.13-2.58-7.24-1.46Z"/><path d="m56.64,129.36c-.74,2.61,8.69,9,14.42,7.7,5.73-1.3,7.62-4.17,13.35-5.47,5.73-1.3,20.49,1.44,26.77-3.64,6.27-5.08,20.99-21.96,19.44-24.04-1.55-2.09-19.3,17.91-25.03,19.22s-16.45,1.3-24.47,3.12c-6.88,1.56-7.62,4.17-12.2,5.21-4.58,1.04-11.52-4.7-12.27-2.09Z"/></g></g><path d="m71.98,39.97s-17.78-19.83-20.78-18.83c-4.8,1.6.78,34.83.78,34.83,0,0,5.17-8.37,10.04-11.19,4.87-2.82,9.96-4.81,9.96-4.81Z" style="fill:#c9c9c9;"/><path d="m104.38,39.97s17.78-19.83,20.78-18.83c4.8,1.6-.78,34.83-.78,34.83,0,0-5.17-8.37-10.04-11.19-4.87-2.82-9.96-4.81-9.96-4.81Z" style="fill:#c9c9c9;"/><path d="m56.31,48.35c-5.85,6.5-7.9,20.6-5.28,29.26,2.71,8.97,5.94,10.84,12.44,16.25,2.78,2.32,12.83,6.5,26.01,6.5,7.34,0,17.87-.68,24.31-5.61,5.92-4.54,7.97-13.17,10.36-17.14,2.36-3.91,4.33-21.67-4.57-29.26-10.48-8.93-16.52-13.2-32.88-13.2s-21.18,2.96-30.39,13.2Z" style="fill:#c9c9c9;"/><g style="opacity:.8;"><g style="clip-path:url(#clippath-2);"><path d="m64.63,67.71c0-1-5.36-1.76-8,0-3,2-9.8,7.2-8,9,3,3,5-3,9-6,3.05-2.28,7-2,7-3Z"/><path d="m65.63,76.71c-1-1-3.69,1.34-6,2-4.43,1.27-6.82-.6-7.41,1.7s4.41,2.3,7.41,1.3,7-4,6-5Z"/><path d="m110.33,67.71c0-1,5.36-1.76,8,0,3,2,9.8,7.2,8,9-3,3-5-3-9-6-3.05-2.28-7-2-7-3Z"/><path d="m109.33,75.71c1-1,3.69,1.34,6,2,4.43,1.27,6.82-.6,7.41,1.7.59,2.3-4.41,2.3-7.41,1.3-3-1-7-4-6-5Z"/><path d="m76.05,60.95c-2,0-.17-7.41.83-10.41,1.1-3.29,1.17-10.59,3.17-10.59,2.24,0,6.04,17.6,5,19-1.04,1.4-2-9-3-9s-2.31,1.94-3,4c-1,3-2,7-3,7Z"/><path d="m100.08,60.54c1.97-.59,1-7,0-10-1.1-3.29-2.03-10.59-4.03-10.59-2.24,0-5.04,17.6-4,19s3-9,4-9,1.31,1.94,2,4c1,3,.97,6.9,2.03,6.59Z"/><path d="m81.34,47.95c-1.08,0-2.97-3.46-3.25-7.18-.28-3.73-.25-6.08,1.08-6.28,1.61-.25,5.42-.9,5.42,0s-2.17,4.49-2.17,7.18,0,6.28-1.08,6.28Z"/><path d="m95.29,47.95c1.08,0,2.49-3.28,2.76-7,.28-3.73.74-6.26-.6-6.47-1.61-.25-5.42-.9-5.42,0s2.17,4.49,2.17,7.18,0,6.28,1.08,6.28Z"/><path d="m88.05,60.95c3,0,2.34-12.42,2.83-18.73.29-3.82.38-7.21,0-7.87-1-1.75-4.17-1.75-5,0-.31.65-.4,4.1,0,7.87.66,6.33.17,18.73,2.17,18.73Z"/><path d="m110.03,52.18c.17-.34-.36-1.3-.85-1.19-.14.04-.29.07-.42.12-.62.2-1.18.51-1.68.85-.5.34-.95.72-1.36,1.11-.2.2-.4.4-.58.6-.14.14-.5.59-.64.86-.7,1.21-.96,2.32-1.08,3.49-.05.58-.06,1.17,0,1.77.02.13.04.27.05.41.07.45,1.13.72,1.41.4.09-.11.18-.21.26-.31.37-.45.69-.9,1-1.35.59-.89,1.09-1.85,1.49-2.53.12-.21.1-.19.31-.47.16-.22.31-.44.45-.67.29-.45.55-.9.79-1.37.2-.41.43-.86.7-1.4.05-.11.1-.21.16-.33Z"/><path d="m68.99,52.35c-.08-.31.53-1.23.97-1.1.13.04.25.09.38.14.55.24,1.03.61,1.43,1.01.8.83,1.29,1.83,1.55,2.87.13.51.2,1.1.19,1.63-.01.53-.09,1.05-.22,1.56-.14.5-.33.99-.59,1.46-.06.1-.13.21-.19.32-.22.35-1.3.2-1.46-.13-.05-.11-.1-.21-.14-.32-.2-.46-.35-.9-.49-1.32-.14-.42-.26-.83-.36-1.22-.1-.4-.19-.75-.28-1.11-.18-.75-.34-1.51-.47-2.29-.07-.39-.14-.79-.23-1.21-.02-.09-.04-.2-.07-.29Z"/></g></g><path d="m97.06,244.21s-.08,0-.12,0c-1.05-.06-1.85-.96-1.78-2.01.01-.18,1.09-18.37.63-27.79-.12-2.38-.55-4.73-1.28-6.98l-4.67-14.37c-.32-1,.22-2.07,1.22-2.4,1-.32,2.07.22,2.39,1.22l4.67,14.37c.84,2.58,1.33,5.26,1.46,7.97.47,9.62-.58,27.45-.63,28.21-.06,1.01-.9,1.79-1.9,1.79Z"/><path d="m116.44,260.81c-2.18,0-4.73-.23-7.68-.7-3.9-.62-6.99-2.22-8.48-4.41-.89-1.31-1.18-2.78-.85-4.24.23-1.02,1.25-1.67,2.27-1.44,1.02.23,1.67,1.25,1.44,2.27-.06.27-.1.7.29,1.27.68,1.01,2.6,2.27,5.92,2.79,9.16,1.45,11.82.06,12.42-.4.31-.24.45-.48.49-.83.31-3.07-1.35-5.21-2.95-7.28-.98-1.26-1.91-2.46-2.38-3.84-1.49-4.4,11.75-61.33,11.9-61.84.3-1,1.36-1.57,2.37-1.27,1,.3,1.58,1.36,1.27,2.37-1.81,6.01-12.33,55.24-11.91,59.62.29.76,1,1.67,1.75,2.64,1.77,2.28,4.2,5.41,3.73,9.99-.14,1.39-.82,2.58-1.95,3.46-1.6,1.23-4.13,1.84-7.65,1.84Zm4.13-17.87h.01-.01Z"/><path d="m159.8,256.33c-1.86,0-3.49-.04-5.17-.08-1.72-.04-3.5-.13-5.61-.08h-.07c-4.67,0-12.99-.26-16.85-2-4.12-1.86-5.77-5.23-4.9-10.03,1.4-7.73,12.46-8.96,12.93-9.01,1.05-.11,1.98.65,2.09,1.7.11,1.04-.65,1.98-1.69,2.09-.08,0-8.71,1.06-9.59,5.91-.56,3.06.23,4.77,2.72,5.89,2.73,1.23,9.68,1.67,15.29,1.67.05,0,.1,0,.16,0,2.11,0,3.89.04,5.6.09,3.34.08,6.5.16,11.73-.09,6.94-.33,23.19-11.93,30.13-25.61,6.56-12.93,2.19-41.09,2.14-41.38-.16-1.04.54-2.01,1.58-2.17,1.04-.16,2.01.54,2.17,1.58.19,1.21,4.6,29.67-2.51,43.69-5.98,11.8-22.88,27.2-33.34,27.69-2.73.13-4.91.17-6.84.17Z"/><path d="m51.07,51.28c-.61,0-1.21-.29-1.58-.84-2.87-4.25-3.88-22.01-2.17-28.03.29-1.01.82-2.43,2.1-3.01,5.24-2.35,20.04,14.69,20.18,14.87.64.83.49,2.02-.34,2.67-.83.64-2.02.49-2.67-.34-2.83-3.66-12.52-12.76-15.5-13.6-1.52,3.47-.87,21.73,1.54,25.31.59.87.36,2.05-.51,2.64-.33.22-.7.33-1.06.33Zm.22-28.62h0Z"/><path d="m125.3,51.28c-.37,0-.74-.11-1.06-.33-.87-.59-1.1-1.77-.51-2.64,2.42-3.58,3.07-21.85,1.54-25.31-2.98.83-12.67,9.94-15.5,13.6-.64.83-1.84.98-2.67.34-.83-.64-.98-1.84-.34-2.67.14-.18,14.94-17.23,20.18-14.87,1.29.58,1.82,1.99,2.1,3.01,1.71,6.01.7,23.78-2.17,28.03-.37.54-.97.84-1.58.84Zm-.22-28.62h0Z"/><path d="m105.72,40.74c-.23,0-.47-.04-.7-.13-.09-.04-8.92-3.5-18.43-3.5s-14.56,3.3-14.61,3.33c-.88.56-2.06.3-2.62-.58-.56-.88-.31-2.05.56-2.62.25-.16,6.22-3.94,16.67-3.94s19.45,3.62,19.84,3.77c.97.39,1.45,1.49,1.06,2.47-.3.75-1.01,1.2-1.77,1.2Z"/><path d="m82.86,260.47c-6.17,0-12.74-2.36-12.81-9-.04-3.97,2.67-5.6,4.65-6.79,2.05-1.23,3.12-1.98,3.12-4.15,0-6.7-2.98-29.62-5.32-36.55-.67-1.99-1.98-4.78-3.51-8.02-3.93-8.36-9.87-21-12.35-35.88-2.92-17.52.08-28.84,3.55-41.96.47-1.78.95-3.59,1.42-5.44,1.35-5.33,2.13-9.38,2.14-9.42.2-1.03,1.19-1.71,2.22-1.51,1.03.2,1.71,1.19,1.51,2.22-.03.17-.81,4.19-2.19,9.64-.48,1.87-.96,3.69-1.43,5.48-3.36,12.69-6.26,23.65-3.48,40.36,2.39,14.37,7.97,26.23,12.04,34.89,1.64,3.48,2.93,6.23,3.67,8.42,2.63,7.8,5.52,31.38,5.52,37.76,0,4.42-2.87,6.15-4.97,7.41-1.9,1.14-2.82,1.77-2.8,3.49.05,4.9,7.01,5.21,9.11,5.24,5.62-.03,10.94-2.98,11-3.01.91-.51,2.07-.19,2.59.73.51.91.19,2.07-.72,2.59-.25.14-6.21,3.46-12.84,3.5h-.12Z"/><path d="m200.54,173.1s-.03,0-.05,0c-1.05-.03-1.88-.9-1.85-1.95,0-.05.08-5.23-2.46-13.08-2.34-7.25-7.46-18.32-18.54-29.92-12.71-13.32-26.16-14.46-36.97-15.39-4.63-.4-8.62-.74-11.81-2.01-7.93-3.18-14.19-13.27-10.94-24.66.76-2.64,1.71-4.5,2.73-6.46,1.28-2.48,2.6-5.04,3.76-9.73,1.8-7.35-1.72-17.01-1.76-17.11-.36-.98.14-2.08,1.12-2.44.98-.37,2.08.13,2.44,1.12.16.44,3.97,10.84,1.88,19.34-1.26,5.13-2.75,8.02-4.07,10.57-.96,1.86-1.8,3.47-2.45,5.75-2.66,9.32,2.33,17.53,8.7,20.09,2.66,1.07,6.4,1.39,10.72,1.75,10.84.93,25.69,2.19,39.39,16.55,22.35,23.41,22.08,44.82,22.05,45.72-.03,1.03-.87,1.85-1.9,1.85Z"/><path d="m104.15,39.82c-.3,0-.61-.07-.89-.22-.03-.02-4.64-2.33-14.81-2.33s-15.61,2.36-15.66,2.38c-.96.43-2.08,0-2.51-.94-.43-.95-.02-2.08.93-2.51.24-.11,6.06-2.73,17.24-2.73s16.38,2.66,16.59,2.77c.93.49,1.28,1.64.79,2.57-.34.64-1,1.01-1.68,1.01Z"/><path d="m65.51,99.7c-.71,0-1.4-.4-1.72-1.09-.67-1.43-1.82-3.17-3.44-5.19-.53-.66-1.08-1.33-1.65-2-3.88-4.66-8.71-10.46-10.27-21.82-1.17-8.52,1.72-17.65,1.84-18.03.32-1,1.39-1.55,2.39-1.23,1,.32,1.55,1.39,1.23,2.39-.03.09-2.74,8.71-1.69,16.36,1.41,10.29,5.67,15.4,9.42,19.91.58.7,1.15,1.38,1.7,2.06,1.8,2.25,3.11,4.25,3.91,5.95.45.95.04,2.08-.91,2.53-.26.12-.54.18-.8.18Z"/><path d="m96.57,189.59s-.06,0-.09,0c-.19,0-4.74-.26-10.82-4.2-6.15-3.99-9.06-11.38-9.18-11.69-.38-.98.11-2.08,1.09-2.46.98-.38,2.08.11,2.46,1.08h0c.03.07,2.6,6.56,7.7,9.88,5.13,3.33,8.9,3.59,8.94,3.59,1.04.06,1.85.95,1.79,2-.05,1.01-.89,1.8-1.89,1.8Z"/></svg>