<?xml version="1.0" encoding="UTF-8"?><svg xmlns="http://www.w3.org/2000/svg" xmlns:xlink="http://www.w3.org/1999/xlink" viewBox="0 0 280 280"><defs><clipPath id="clippath"><path d="M202.62,206.16s17.29-14.45,24.5-67.73c5.16-38.13,9.96-84.06-5.07-84.06-13.02,0-8.12,29.03-12.93,65.06-4,30-14,51-14,51,0,0-4.27,32.9,7.5,35.73Z" style="fill:none;"/></clipPath><clipPath id="clippath-1"><path d="M109.92,260.19c-3.24,0-4.92-1.08-6.41-2.04-1.28-.83-2.39-1.54-4.29-1.54-5.06,0-8.56,.48-12.91,1.32-1.59,.31-4,.67-6.46,.67-4.93,0-8.04-1.48-9-4.29-1.71-4.99,6.56-10.37,7.58-11.02,.08-1.97,1.16-30.72-5.4-44.23-9.32-19.2-14.29-34.46-15.19-46.67-1.59-21.59,7.72-52.09,9.05-56.3-1.54-.71-2.81-1.45-3.56-2.08-.68-.56-1.32-1.09-1.92-1.59-5.25-4.3-8.14-6.67-10.58-14.76-1.82-6.03-1.4-14.66,1.02-21.64h-.06c-.23-1.38-5.55-33.43-.64-35.06,.09-.03,.2-.05,.31-.05,2.77,0,12.63,10.2,18.33,16.37,4.12-1.65,9.03-2.33,16.9-2.33s13.84,1.04,18.93,3.37c4.88-5.32,16.28-17.4,19.29-17.4,.11,0,.22,.02,.31,.05,4.59,1.53,.33,29.08-.59,34.74,3,8.36,1.51,19-.31,22.02-.7,1.16-1.36,2.69-2.12,4.47-1.22,2.83-2.6,6.04-4.62,8.85,.87,.41,1.52,1.16,1.81,2.07,2.11,6.71,6.81,18.03,14.53,18.36,.88,.04,1.88,.06,3,.08,12.94,.29,39.87,.88,52.43,27.74,17.05,36.44,15.6,62.35,11.94,82.89-3.23,18.07-18.57,25.74-26.81,29.87-1.31,.66-2.45,1.22-3.31,1.72-2.32,1.34-6.73,1.99-13.51,1.99h0c-3.77,0-7.72-.19-11.2-.36-2.78-.14-5.18-.25-7.01-.25-.47,0-.91,0-1.3,.03-.68,.03-1.28,.05-1.81,.05-3.61,0-4.14-.76-5.18-2.27-.32-.47-.69-1.01-1.23-1.63-1.63-1.89-1.48-4.07-1.37-5.82,.06-.96,.12-1.8-.18-2.25-1.15-1.77-2.89-2.41-4.73-3.09-1.26-.46-2.55-.94-3.69-1.8-.45,3.49-.78,4.66-.99,5.05,.36,.53,1.91,2.76,3.16,4.2,1.75,2.02,2.3,4,1.63,5.89-1.2,3.36-6.09,5.62-10.42,6.37-1.25,.22-2.4,.33-3.42,.33Z" style="fill:none;"/></clipPath></defs><path d="M202.94,206.75s17.29-14.45,24.5-67.73c5.16-38.13,9.96-84.06-5.07-84.06-13.02,0-8.12,29.03-12.93,65.06-4,30-14,51-14,51,0,0-4.27,32.9,7.5,35.73Z" style="fill:#d1a67b;"/><g style="clip-path:url(#clippath);"><g><path d="M186.69,57.06c1.28,.24,1.21,.5,2.51,1.57,.56,.45,1.11,1.26,1.8,2,.53,.57,.49,1.75,1.07,2.51,.48,.64,1.09,1.25,1.59,2.04,.43,.69,1.6,1.03,2.03,1.84,.39,.72,.59,1.63,.97,2.46,.4,.88-.08,2.07,.21,2.91,.32,.91,1.47,1.54,1.69,2.4,.24,.94,.49,1.87,.64,2.75,.16,.95-1.02,2.06-.91,2.94,.12,.96,.59,1.83,.69,2.71,.11,.97,.84,1.79,1.02,2.65,.19,.94,.78,1.6,1.15,2.42s.4,1.73,1.06,2.42c.6,.63,.58,1.93,1.22,2.55s1.66,.82,2.31,1.43,1.11,1.38,1.74,2.01,1.88,.66,2.46,1.32,1.11,1.44,1.62,2.15,1.22,1.42,1.61,2.21-.31,2.01-.06,2.88c.22,.77,.39,1.63,.63,2.52,.22,.81,.78,1.56,1.04,2.41s-.03,1.84,.25,2.67,1.21,1.44,1.53,2.24,.44,1.76,.83,2.51c.42,.8,1.45,1.2,1.94,1.86,.55,.73,.7,1.84,1.36,2.34,.71,.53,1.7,.76,2.55,.92,.66,.13,1.75-.04,2.72-.69,.64-.43,1-1.44,1.72-2.14,.59-.58,1.44-1,2.06-1.73,.54-.65,1.19-1.29,1.74-2.04,.51-.69,.4-1.85,.9-2.62s1.37-1.21,1.83-1.99,1.42-1.25,1.84-2.04-.02-2.01,.36-2.81,.63-1.65,.96-2.47,.79-1.6,1.07-2.43,.84-1.62,1.06-2.46,.59-1.73,.73-2.59c.15-.91,.41-1.82,.44-2.68,.03-.92-.1-1.87-.21-2.72-.13-.91-.42-1.83-.74-2.63s-1.6-1.02-2.18-1.7-1.05-1.06-1.86-1.54-.73-2.31-1.46-2.78c-.79-.51-2.16-.09-2.87-.6-.77-.55-1.64-.95-2.31-1.49-.74-.6-1.64-1.02-2.27-1.61-.69-.66-1.26-1.48-1.81-2.13-.62-.73-.18-2.18-.63-2.9-.51-.82-1.54-1.27-1.83-2.07-.33-.89-.88-1.79-.95-2.65-.07-.91,.46-1.86,.67-2.74s1.04-1.43,1.49-2.25c.39-.7,.18-2.22,1.06-2.86,.69-.5,1.84-.56,2.75-1.03,.79-.41,1.89-.27,2.79-.67,.83-.36,1.25-1.81,2.15-2.17s1.79-.56,2.67-.91,1.86-.39,2.73-.74,1.57-1.11,2.42-1.47,2.15,.15,2.97-.25c.88-.43,1.38-1.46,2.14-1.92,.86-.52,2.05-.46,2.71-1.03,.78-.67,1.84-1.25,2.26-2,.47-.84,.23-2.11,.13-3.08-.1-.91-.28-2.22-1.05-2.86-.62-.51-2.03-.02-3-.38-.78-.29-1.68-.2-2.65-.41-.84-.18-1.54-1.49-2.49-1.61-.87-.11-1.81-.12-2.75-.19-.88-.06-1.84,.81-2.78,.78s-1.79-.99-2.71-1-1.83-.04-2.75-.02-1.79,1.03-2.71,1.06-1.82,.06-2.73,.1c-.92,.05-1.85-.32-2.75-.26-.92,.06-1.89-.62-2.78-.55-.93,.07-1.81,.62-2.7,.69-.94,.08-1.8,.76-2.68,.84-.96,.08-1.88,0-2.74,.07-.99,.09-1.89,.35-2.71,.42-1.07,.09-2.01,.07-2.74,.11-.83,.05-1.69-.91-2.63-1-.85-.08-1.91,1-2.82,.83-.86-.16-1.65-.84-2.54-1.04s-1.81-.14-2.68-.35-1.56-1.22-2.41-1.42c-.9-.21-1.76-.55-2.6-.72-.92-.19-1.85-.35-2.68-.46-.98-.13-2-.45-2.79-.41-1.05,.06-1.59,1.44-2.19,1.93s-.86,.94-.85,2.06c0,.92-.95,1.81-1.01,2.72s.57,1.9,.49,2.8c-.08,.95-.65,1.85-.68,2.72-.04,.98,.11,1.95,.22,2.79,.12,1,1.12,1.49,1.59,2.2s.5,1.98,1.5,2.32c.73,.25,1.88-.71,2.97-.71Z" style="fill:#d28728;"/><path d="M199.16,55.61c.86,.49,1.86,.88,2.85,1.38,.91,.46,1.91,.85,2.88,1.32s1.97,.78,2.91,1.24,1.66,1.46,2.56,1.94c.98,.52,2.24,.46,3.08,.98,1,.61,1.58,1.64,2.27,2.24,1,.88,1.57,1.58,1.61,2.43s-.4,1.47-1.66,2.27c-.93,.59-1.89,.98-2.87,1.38-1,.42-1.93,.95-2.98,1.18-1.04,.23-2.11,.17-3.2,.22s-2.09-.02-3.19-.13c-1.04-.1-2.14,.05-3.23-.19-1.02-.22-2.14-.26-3.2-.6-1-.32-1.98-.83-3.01-1.24-.97-.39-2.01-.73-3.02-1.2s-1.99-1.12-2.94-1.64c-1.02-.56-1.88-1.29-2.78-1.89-.98-.64-1.77-1.42-2.59-2.1-.91-.75-2.16-1.08-2.87-1.87-.79-.88-1.14-2.06-1.65-2.98-.57-1.03-1.32-2.01-1.5-3.07s.03-2.31,.3-3.43c.3-1.24,.87-2.23,1.55-2.88,.73-.7,1.78-.6,3.04-.6,.9,0,1.92-.11,3.14,.24,.91,.26,1.94,.56,3.05,1.01,.91,.37,1.99,.59,3.05,1.1,.91,.43,1.61,1.42,2.63,1.95,.9,.47,1.99,.7,2.99,1.25,.9,.49,1.78,1.13,2.76,1.69Z" style="fill:#473513;"/><path d="M277.77,53.75c-.11,.87-1.4,1.65-1.8,2.52-.36,.79-.41,1.7-.96,2.48-.5,.71-.37,2.01-1,2.71-.59,.66-1.51,1.09-2.19,1.73s-1.2,1.41-1.91,2-2.02,.38-2.75,.93-.93,1.82-1.67,2.35-1.57,.97-2.32,1.46c-.78,.51-1.47,1.14-2.23,1.61-.8,.5-2.23-.1-2.98,.35-.83,.49-.94,2.11-1.67,2.53-.88,.51-2.02,.37-2.71,.76-1.06,.61-1.45,1.72-1.92,2.04-.66,.44-2.12-.42-3.1-.03-.77,.3-1.21,1.77-2.18,2.07-.81,.25-2.03-.72-2.98-.46-.83,.22-1.63,.74-2.57,.98-.84,.21-1.62,.89-2.55,1.12-.85,.21-1.6,.99-2.53,1.21-.86,.21-1.98-.51-2.9-.28-.86,.21-1.69,.67-2.61,.9-.86,.22-1.71,.6-2.62,.84s-1.77,.42-2.62,.64-1.81,.24-2.67,.45-1.64,1-2.49,1.2-1.94-.31-2.8-.12-1.71,.68-2.57,.85c-.91,.18-1.9-.32-2.77-.17-.91,.16-1.66,1.14-2.52,1.26-.92,.13-1.88-.5-2.75-.42-.92,.09-1.78,.38-2.65,.41-.93,.03-1.78-.35-2.65-.38-.92-.04-1.75-.1-2.61-.21-1.52-.2-1.62,.14-1.19-.75,.28-.58,.3-1.75,1.25-2.52,.64-.52,1.96-.27,2.84-.84,.73-.47,1.58-.8,2.45-1.29,.78-.44,1.4-1.23,2.27-1.67,.81-.41,1.75-.58,2.63-.98s1.31-1.64,2.19-2,2.01,.02,2.9-.32,1.85-.32,2.75-.62,1.59-1.13,2.49-1.4,1.75-.74,2.65-.97,2,.31,2.9,.12,1.59-1.19,2.37-1.4c.92-.25,1.91-.04,2.65-.31,.92-.33,1.3-1.59,1.99-1.94,.89-.46,2.36,.18,2.94-.3,.77-.63,.2-2.31,.63-2.95,.53-.78,.98-1.42,1.38-2.14s1.44-1.11,2.17-1.71c.57-.46,1.2-1.18,2.19-1.51,.84-.28,2.09-.07,2.89-.71,.69-.56,1.01-1.68,1.66-2.45,.59-.7,1.17-1.46,1.71-2.28s.46-1.9,.93-2.75,1.65-1.28,2.06-2.14,.49-1.9,.84-2.76c.38-.92,.37-1.93,.67-2.79,.34-.99,1.39-1.68,1.61-2.49,.33-1.23,.14-2.28,.14-2.88,0-.68,1.07-.63,2.59,.02,.72,.31,1.21,1.43,2.15,1.94,.76,.41,2.16-.14,3.02,.37,.78,.46,1.56,1.01,2.38,1.52s1,1.9,1.8,2.42,2.06,.3,2.83,.81,1.84,.68,2.6,1.19c.82,.55,1.64,1.04,2.37,1.54,.87,.59,1.04,2.02,1.7,2.49,1.42,.99,2.24-.12,2.88,1.13Z" style="fill:#473513;"/><path d="M160.05,77.73c.97,.3,.85,.13,1.94,.82,.49,.31,.56,1.52,1.25,1.89,.55,.3,1.25,.46,1.91,.77,.58,.27,1.27,.42,1.93,.69,.6,.25,1.33,.23,2,.46,.62,.21,1.02,1.29,1.7,1.48,.64,.18,1.31,.46,2,.61s1.56-.96,2.25-.85,1.3,.26,2,.33,1.33,.07,2.02,.09,1.35,.71,2.04,.69c.73-.02,1.46-.07,2.17-.1s1.43-.47,2.14-.52,1.47,.16,2.18,.1,1.45-.17,2.15-.24c.74-.07,1.38-.89,2.08-.96,.74-.07,1.6,1.19,2.29,1.12,.75-.07,1.34-1.57,2.02-1.63,.76-.07,1.59,1.25,2.26,1.21,.79-.05,1.47-.72,2.12-.72,.84,0,1.38,.86,1.96,1,.91,.21,1.7-.22,1.86,.42,.15,.6,.71,.98,1.66,1.22,.6,.16,1.4-.43,2.24-.35,.67,.06,1.33,1.03,2.12,1.08,.7,.04,1.45-.17,2.21-.13,.71,.04,1.42,.44,2.17,.5s1.41,.43,2.15,.51,1.59-.81,2.32-.68,1.46,.35,2.17,.53,1.27,.89,1.96,1.14,1.8-.36,2.45-.02c.79,.41,1.11,1.47,1.4,2.02,.35,.66-.15,1.33-.41,2.06-.23,.62-.54,1.11-1.1,1.68-.48,.49-.87,1.09-1.53,1.49-.61,.36-1.45,.05-2.16,.29s-1.09,1.95-1.83,2.01-1.42-1.38-2.15-1.51-1.53,.41-2.27,.35-1.42-.91-2.16-.93-1.45,1.15-2.19,1.17-1.45-.38-2.18-.36-1.43,.41-2.17,.43-1.46-.98-2.19-.98-1.43,.38-2.17,.36-1.39-.6-2.13-.65-1.43,.16-2.16,.07-1.38-.3-2.1-.44-1.5,.05-2.18,0c-.72-.06-1.45,.16-2.14,.17s-1.38,.41-2.07,.48-1.49-.55-2.19-.43-1.17,1.31-1.87,1.44-1.51-.47-2.21-.32-1.24,.88-1.94,1.01-1.56-.99-2.28-.88c-.67,.1-1.34,.19-2.05,.27-.68,.08-1.34,.15-2.06,.19-.68,.04-1.33,.76-2.06,.77-.68,.01-1.4,.94-2.13,.92-.69-.02-1.38-.3-2.1-.31s-1.4-1.06-2.11-1.06-1.41-.07-2.12-.07-1.41,1.42-2.11,1.42-1.42-1.41-2.12-1.41-1.41-.22-2.12-.23-1.43,.85-2.13,.83-1.42-.3-2.11-.32-1.48,.73-2.16,.68c-.73-.05-1.42-.52-2.09-.59-.74-.08-1.32-.93-1.97-1.05-.75-.14-1.41-.18-2.02-.37-.76-.24-1.14-.7-1.65-1.04-.66-.45-1.55-.38-1.7-1.03-.14-.58-.95-1.26-1.03-2.09-.06-.67-.07-1.44-.1-2.21-.03-.7,.34-1.45,.34-2.2s.83-1.44,.84-2.17,.14-1.45,.16-2.17-.18-1.48-.15-2.18c.03-.77-1.11-1.55-1.07-2.23,.04-.81,.7-1.52,.74-2.14,.08-1.33-.63-1.36,.43-1.57s1.1-1.11,2.19-.92,1.04,.45,2.13,.65c1.09,.2,.92,1.13,2.01,1.32s1.12,.05,2.2,.24c1.09,.2,1.09,.16,2.18,.36s1.05,.42,2.14,.62,1.11,.39,2.22,.48,1.23-.69,2.28-.35Z" style="fill:#473513;"/><path d="M163.73,159.01c0-.79,1.68-.9,2.55-1.65,.6-.52,.74-1.83,1.66-2.32,.75-.4,1.35-1.42,2.27-1.79,.81-.33,1.84-.36,2.75-.66,.85-.28,1.89-.08,2.81-.34s1.71-.75,2.61-.97,1.86-.17,2.77-.36,1.96,.43,2.87,.27,1.75-.77,2.65-.9,1.82-.57,2.7-.67c.96-.1,1.91,.29,2.79,.24,1-.06,1.91-1.14,2.74-1.12,.79,.01,1.73-.49,2.79-.47,.85,.01,1.77,1.05,2.76,1.06,.88,.01,1.8,.7,2.77,.7,.89,0,1.82-1.58,2.78-1.58,.9,0,1.83,.21,2.77,.2s1.86,1.16,2.8,1.14,1.82-1.04,2.75-1.08,1.9,1.09,2.83,1.05c.93-.05,1.8-1.06,2.73-1.12s1.95,.97,2.87,.89,1.92,.13,2.82,.03,1.64-2.02,2.54-2.15c.94-.14,2.04,.83,2.93,.66,.95-.18,1.86-.47,2.72-.68,.95-.23,1.46-1.69,2.29-1.98,.95-.32,2.25,.47,3,.08,.92-.48,1.12-1.68,1.68-2.27,.53-.56,1.87-.49,2.65-1.15,.64-.53,1.22-1.24,2-1.81,.69-.51,.99-1.67,1.77-2.2,.73-.49,2.15,.05,2.94-.44s.66-2.4,1.46-2.85c.78-.45,1.89-.36,2.69-.78s2.02-.02,2.83-.41,1.48-1.12,2.3-1.47,1.49-1.25,2.32-1.55c.88-.32,2.11,.57,2.95,.33,.91-.26,1.44-2.09,2.29-2.24,.95-.16,2.02,1.35,2.85,1.36,.99,0,1.69,.05,2.46,.34,.88,.33,1.93,.22,2.45,.97,.46,.66,1.64,1.46,1.76,2.49,.1,.81-1.42,1.88-1.33,2.82,.08,.84,.29,1.7,.36,2.62,.06,.85,1.68,1.64,1.73,2.55,.05,.86-.38,1.79-.35,2.69s-.6,1.78-.58,2.68,1.17,1.75,1.17,2.65-.8,1.78-.81,2.67-.87,1.75-.9,2.63,1.22,1.84,1.16,2.72-.4,1.77-.47,2.65-.15,1.79-.25,2.66-1.37,1.61-1.5,2.48,.46,1.89,.29,2.74c-.18,.89,.38,1.96,.16,2.79-.23,.89-1.86,1.33-2.14,2.13-.31,.87-.36,1.76-.73,2.52-.41,.84-1.33,1.2-1.82,1.88-.55,.76-.93,1.28-1.59,1.81s-.89,1.63-1.69,2.14c-.71,.46-1.01,1.76-1.83,2.2-.76,.41-1.72,.57-2.55,.97-.79,.37-1.68,.62-2.52,.97s-1.93-.05-2.77,.26-1.83,.07-2.68,.35c-.84,.28-1.6,.75-2.46,.99s-1.29,2.12-2.15,2.33-2.14-1.33-3-1.16-1.51,1.82-2.37,1.95c-.9,.14-1.89-.39-2.76-.31-.92,.08-1.82,.33-2.68,.33-.94,0-1.78-.75-2.62-.84-.95-.1-1.78-.16-2.57-.39-.92-.28-1.9-.23-2.58-.7s-1.59-.57-2.5-1c-.76-.36-1.51-.81-2.42-1.15-.81-.3-1.69-.47-2.59-.75-.84-.26-1.81-.08-2.71-.32s-1.62-.82-2.51-1.03-1.59-1.13-2.48-1.32-1.93,.43-2.83,.26-1.62-1.21-2.51-1.37-1.71-.87-2.6-1.01c-.91-.15-2.01,.96-2.88,.83-.93-.13-1.84-.07-2.71-.18-.95-.12-1.66-1.93-2.51-2.02-.98-.1-2.03,1.18-2.85,1.11-1.08-.08-1.96-1.3-2.67-1.3s-1.61,1.06-2.67,1.04c-.8-.01-1.74,.74-2.7,.69-.84-.04-1.64-1.57-2.56-1.65-.85-.08-1.71-.18-2.61-.32s-1.84,.38-2.72,.19-1.4-1.54-2.26-1.79-1.63-.43-2.46-.75-2.15,.52-2.93,.11-1.12-1.56-1.85-2.07c-.72-.5-1.15-1.25-1.79-1.86s-2.27-.31-2.81-1.02-.93-1.59-1.36-2.39c-.41-.76-1.01-1.56-1.32-2.42-.28-.8-.52-1.76-.71-2.66-.17-.83-.53-1.77-.61-2.69-.07-.85,.19-1.82,.2-2.74Z" style="fill:#d28728;"/><path d="M198.67,120.27c-.57-.96-1.36-1.07-.49-1.64,.34-.22,.88-.34,2.06-.2,.59,.07,1.4-.19,2.28,.02,.64,.15,1.26,.72,2.07,.96,.65,.19,1.3,.61,2.08,.86,.82,.27,1.82-.36,2.59-.21,.85,.17,1.54,1.2,2.33,1.24,.86,.04,1.72-.15,2.51-.22,.85-.08,1.71-.17,2.48-.35,.83-.19,1.44-1.05,2.19-1.31,.81-.28,1.52-.68,2.25-.98,.8-.33,1.91,.2,2.63-.08,.83-.33,1.38-1.34,2.11-1.49,.87-.18,1.89-.33,2.64-.07,.69,.24,1.6,.79,2.22,1.55,.49,.59,.68,1.5,1.2,2.18,.48,.62,.74,1.45,1.24,2.13s.85,1.38,1.32,2.06,.86,1.37,1.3,2.07,1.6,.97,1.99,1.67,.43,1.66,.78,2.38,1.02,1.4,1.3,2.14c.29,.8,.18,1.73,.35,2.49,.18,.84,.03,1.67,.02,2.45,0,.85-.45,1.47-.73,2.21s-.54,1.21-1.3,1.67c-.63,.38-1.24,.84-2.12,1.07-.73,.19-1.54,.16-2.41,.27-.77,.1-1.52,.95-2.37,1-.79,.05-1.64-.47-2.48-.45s-1.62,.14-2.45,.14-1.63-.21-2.45-.22-1.65,.38-2.46,.38-1.66-.56-2.45-.55c-.85,.01-1.68,.04-2.46,.08-.87,.05-1.73-.05-2.48,.05-.9,.12-1.68,.6-2.37,.83s-1.47,.51-2.37,.64c-.76,.11-1.59,.16-2.46,.2-.79,.04-1.62,.26-2.48,.24s-1.65,.02-2.49-.04-1.58-.7-2.4-.81-1.72,.22-2.52,.07-1.51-.87-2.29-1.07c-.83-.22-1.84,.22-2.58-.05-.84-.31-1.29-1.3-1.95-1.66-.82-.46-1.42-.83-1.88-1.38-.59-.7-1.04-1.23-.85-2.06,.17-.73,.52-1.61,.34-2.41-.16-.7-.52-1.5-.87-2.24-.32-.66-.82-1.32-1.24-2-.4-.64-.94-1.22-1.38-1.88s-1.14-1.11-1.56-1.75-.38-1.6-.77-2.25c-.41-.69-.82-1.31-1.12-1.98-.34-.75-.62-1.4-.74-2.11-.13-.8-.11-1.43,.15-2.15,.29-.78,.39-1.6,.92-2.11s1.49-.26,2.25-.51c.68-.23,1.27-.77,2.09-.8,.72-.03,1.46,.11,2.27,.22,.73,.1,1.63-.44,2.42-.23,.72,.19,1.14,1.42,1.89,1.69,.71,.25,1.46,.35,2.18,.67s1.52,.32,2.22,.68,1.6,.53,2.28,.92Z" style="fill:#d28728;"/><path d="M185.38,198.49c17.44-.61,29.14-.53,39.14,0,10,.53,19.08,2.65,19.08-8.63,0-11.28-42.35,3.33-47.28,0s-24.49-6.98-24.92-1.75-3.38,10.99,13.98,10.38Z" style="fill:#d28728;"/><path d="M208.97,105.79c.61-.06,1.27,.19,1.92,.15,.61-.04,1.24-.35,1.88-.37s1.26,.55,1.91,.55,1.25-.07,1.89-.07,1.27-.54,1.91-.53,1.24,.62,1.88,.64,1.26,0,1.9,.03,1.24,.32,1.89,.36c.53,.03,1.16,.1,1.86,.13,.57,.03,1.21-.2,1.87-.16,.59,.03,1.21,.08,1.86,.12,.6,.04,1.22,.08,1.86,.12s1.26-.41,1.89-.37,1.24,.14,1.86,.18,1.19,.85,1.8,.9,1.26-.08,1.87-.03,1.29-.21,1.89-.15c.64,.06,1.3-.14,1.89-.08,.66,.07,1.28,.23,1.85,.31,.7,.1,1.2,.87,1.72,.97,.94,.18,1.91-.27,2.09-.07,.28,.31-.07,1.2-.59,1.99-.29,.44-.42,1.26-.99,1.75-.43,.36-1.06,.71-1.67,1.06-.51,.29-1.13,.55-1.77,.82-.55,.23-1.34-.06-1.99,.14-.57,.18-1.11,.62-1.77,.76-.59,.13-1.2,.41-1.86,.51-.6,.09-1.29-.28-1.95-.22-.61,.06-1.25-.21-1.91-.18-.61,.02-1.23,.61-1.89,.61-.62,0-1.23-.57-1.89-.6s-1.3,.65-1.94,.64-1.27,.03-1.91,.03-1.29-.73-1.92-.71-1.27,.68-1.9,.7-1.29-.08-1.92-.04-1.31-.39-1.94-.34-1.29,.06-1.92,.11-1.28,.17-1.91,.23-1.27,.35-1.88,.42c-.65,.07-1.23,.69-1.84,.76-.66,.07-1.29,.16-1.9,.23-.67,.08-1.41-.74-2.01-.67-.69,.08-1.27,.57-1.85,.64-.74,.08-1.36,.41-1.88,.44-1.24,.08-1.63-.05-1.41-.4,.17-.27-.7-.76-1.54-1.33-.46-.31-.76-1.04-1.33-1.41-.52-.34-1.11-.59-1.61-.96-.54-.4-.99-.81-1.37-1.24-.49-.55-.63-.97-.63-1.52,0-.52-.24-1.3,.44-1.79,.41-.29,1.3,.08,2.02-.19,.51-.2,1-.62,1.69-.8,.55-.15,1.16-.23,1.84-.37,.57-.11,1.12-.58,1.79-.69,.59-.09,1.18-.47,1.84-.55,.59-.08,1.25,0,1.9-.07,.6-.07,1.21-.32,1.87-.38Z" style="fill:#473513;"/><path d="M217.14,116.93c.59-.35,.76-1.41,1.35-1.69s1.21-.67,1.83-.89,1.5,.37,2.14,.22,1.22-.67,1.87-.76,1.3-.75,1.96-.78,1.35,1.06,2.01,1.07,1.37-.64,2.03-.58,1.29,.48,1.94,.58,1.43-.35,2.07-.23,1.19,.94,1.82,1.08c.67,.15,1.47-.37,2.1-.22,.68,.16,1.36,.1,1.98,.23,.69,.15,1.24,.66,1.86,.75,.71,.11,1.34,.89,1.94,.89s1.17-.95,1.87-1.04c.6-.07,1.2-.25,1.86-.37,.61-.11,1.36,.42,2.01,.29s1.25-.27,1.88-.41,1.16-.66,1.79-.81,1.23-.41,1.85-.57,1.21-.54,1.82-.69c.65-.15,1.51,.72,2.12,.58,.66-.15,1.09-1.3,1.68-1.41,.7-.13,1.45,.39,2.02,.33,.81-.09,1.55-.54,2-.43,.49,.12,1.08,.48,1.83,.62,.58,.11,1.15,.63,1.82,.76,.62,.11,1.24,.28,1.89,.41,.64,.13,1.42-.37,2.04-.23,.65,.15,1.27,.43,1.86,.6,.68,.21,1.03,1.1,1.54,1.34,.78,.36,1.23,.41,1.35,.86,.14,.51,.13,1.36,.46,2.11,.26,.6,1.69,.82,1.9,1.5s-.02,1.53,0,2.21-.68,1.16-1.03,1.79c-.3,.53-.13,1.63-.8,2.07-.52,.35-1.36,.3-2.02,.56-.59,.23-1.07,1.02-1.75,1.2-.62,.16-1.38-.01-2.06,.11-.64,.12-1.42-.54-2.1-.44s-1.23,.72-1.91,.8-1.29,.42-1.96,.49-1.34-.06-2.01,0-1.33,.12-1.99,.2-1.35,.02-2,.11-1.39-.19-2.05-.08c-.6,.11-1.23,.09-1.93,.15-.62,.06-1.26,0-1.95,.02-.63,.02-1.27,1.22-1.96,1.22-.64,0-1.29-.71-1.97-.73-.64-.02-1.32,.34-1.99,.3s-1.33,.16-2,.1c-.65-.05-1.28-.46-1.94-.53s-1.3-.17-1.96-.25-1.3-.22-1.96-.31-1.21-.76-1.87-.87-1.47,.84-2.13,.73-1.29-.35-1.93-.47-1.08-1.36-1.72-1.49-1.41,.29-2.05,.14-1.28-.31-1.92-.47-1.28-.35-1.91-.51-1.27-.35-1.9-.53c-.69-.19-1.26-.57-1.87-.77-.69-.22-1.24-.59-1.83-.82-.68-.27-1.64,.25-2.19-.02-.67-.33-.78-1.45-1.28-1.79-.65-.43-1.52-.35-1.9-.78-.54-.6-1.33-1.13-1.43-1.7-.13-.69,.92-1.2,1.31-1.77,.35-.51,.83-.66,1.46-1.03Z" style="fill:#473513;"/><path d="M214.35,168.31c3.14,.07,6.06,2.36,9.71,2.92s11.46-1.46,11.46-1.46l1.32-6.49s-11.89,1.14-12.78-1.99c-.89-3.12-12.38-10.04-12.38-10.04,0,0-4.27,14.62-4.34,15.31s7,1.75,7,1.75Z" style="fill:#d28728;"/><path d="M198.11,137.63c1.04,0,2.05,.45,2.85,.64,1,.24,2,.24,2.7,.71,.8,.54,1.22,1.45,1.77,2.16s1.23,1.41,1.69,2.2,.63,1.85,1.18,2.55,1.38,1.33,2.23,1.74c.73,.35,1.67,.15,2.75,.14,1.1-.01,1.95,.7,2.79,.99,.98,.34,2.11,.3,2.84,.92s1.15,1.63,1.74,2.43,1.24,1.53,1.78,2.34,1.21,1.53,1.84,2.25,1.22,1.46,2.08,1.95c.92,.52,1.76,1.11,2.47,1.69,.91,.73,1.75,1.45,2.15,2.14,.59,1.03,.33,2.12-.74,2.7-.61,.33-1.58,.64-2.91,.71-.9,.05-1.89-.28-2.91-.3-.94-.02-1.94,.32-2.92,.26s-1.97,0-2.92-.08c-1.01-.09-1.95-.5-2.87-.61-1.07-.13-2.09,.02-2.93-.1-1.62-.25-2.77-.63-2.9-.74-.15-.12-1.22,.18-2.76,.65-.9,.27-1.89,.67-2.91,.82s-2.04-.2-2.94-.43c-.98-.25-2.1-.45-2.54-1.49-.25-.58,0-1.59-.15-2.66-.11-.77-.5-1.61-.57-2.55-.06-.82-.21-1.69-.25-2.6-.03-.84-.12-1.72-.13-2.61s.4-1.74,.4-2.61-.35-1.76-.33-2.61-.02-1.77,0-2.62c.02-.92,.08-1.8,.1-2.61,.03-.97,.21-1.85,.24-2.6,.07-1.61-.88-1.88,.08-2.76Z" style="fill:#473513;"/><path d="M196.11,188.31c.43-1.12,.25-.93,1.17-1.98,.46-.52,.84-1.3,1.63-1.73,.63-.34,1.42-.52,2.3-.69,.71-.13,1.49-.02,2.38,.03,.94,.05,1.7-.49,2.45-.77,.81-.3,1.72-.43,2.37-.99s1-1.41,1.55-2.08,1.12-1.31,1.65-1.97c.55-.7,1.3-1.17,1.91-1.71,.66-.59,1.27-1.12,2.1-1.33,1.35-.35,2.25-.29,2.68,.32s.39,1.63,.39,2.79c0,.84-.28,1.78-.32,2.77-.03,.9,.25,1.84,.31,2.78s-.19,1.86-.47,2.68-.93,1.49-1.52,2.19-.97,1.62-1.74,2.13-1.69,.73-2.55,1.05c-.86,.32-1.73,.69-2.61,.82-.73,.11-1.7-.05-2.75,.08-.84,.1-1.75,.34-2.7,.44-.89,.1-1.82,.16-2.73,.25s-1.83,.4-2.7,.48c-1,.1-1.96-.14-2.75-.07-1.63,.15-2.98,1.78-2.92,.42,.08-1.62,.82-1.5,1.51-2.97s.8-1.44,1.38-2.96Z" style="fill:#473513;"/><path d="M204.88,134.39c-.15-1.03,0-2.03,.49-2.68s1.39-1.03,2.34-1.37c.74-.26,1.6-.71,2.56-.82,.81-.09,1.73-.23,2.66-.23,.84,0,1.68,1.18,2.59,1.24,.85,.05,1.81-.94,2.71-.85s1.78-.08,2.66,.04,1.54,1.51,2.41,1.65,1.91-.7,2.77-.54,1.53,1.4,2.38,1.56,1.88-.33,2.72-.15c.89,.19,1.88-.18,2.7,0,.91,.2,1.71,.67,2.51,.85,.96,.21,1.88,.12,2.63,.28,1.2,.25,1.94,1.54,2.44,1.57,.58,.04,1.59-.77,2.76-.59,.78,.12,1.52,1.31,2.49,1.46,.83,.13,1.95-1.16,2.88-1.02,.86,.13,1.57,1.5,2.48,1.63s1.77,.31,2.67,.42,1.79,.42,2.68,.5,1.9-.91,2.78-.86c.93,.05,1.82,.03,2.68,.02,.96,0,1.8-.34,2.63-.43,1.01-.12,2.23,.96,2.95,.68,1.01-.39,1.3-1.67,1.55-2.45s.76-1.67,1.48-2.39c.6-.6,1.83-.51,2.65-1.06,.74-.5,1.45-1,2.29-1.44s1.41-1.28,2.25-1.65,1.99-.08,2.81-.4c.95-.37,1.54-1.45,2.31-1.71,1.58-.54,1.59-1.65,2.57-.69s.29,1.12-.05,2.83c-.17,.82-.78,1.7-1,2.74-.19,.9-.43,1.84-.65,2.81s.1,2.01-.12,2.94-1.14,1.74-1.38,2.64c-.26,1.01,.27,2.2,.01,3.02-.38,1.23-1.89,1.65-2.2,2.14-.34,.52-.69,1.11-1.95,1.15-.77,.02-1.75,.73-2.76,.64-.83-.08-1.73-.39-2.67-.51-.86-.11-1.59-1.47-2.5-1.6s-1.82,.04-2.71-.07c-.9-.11-1.78-.64-2.65-.71-.93-.08-1.92,1.22-2.77,1.2-.96-.02-1.93-1.22-2.75-1.13-1.02,.11-1.47,1.67-2.15,2.02-.72,.38-1.89,.25-2.87,.44-.83,.16-1.82-.55-2.78-.49-.87,.06-1.74,1.2-2.68,1.2-.89,0-1.76-1.3-2.68-1.34s-1.83,.37-2.73,.32-1.88,.68-2.77,.63-1.79-1.13-2.66-1.17c-.96-.04-1.89-.1-2.74-.1-1.01,0-1.9,.65-2.69,.76-.7,.09-1.62-.79-2.69-.8-.81,0-1.76,1.23-2.73,1.15-.85-.06-1.65-1.07-2.58-1.18-.86-.11-1.88,.62-2.78,.47s-1.56-1.28-2.45-1.48-1.89,.21-2.75-.03-1.69-.65-2.53-.94-1.62-.81-2.42-1.16c-.85-.37-1.72-.61-2.46-1.05-.81-.48-1.32-1.24-1.97-1.79-.72-.61-1.02-1.33-1.49-2.05-.5-.77-1.58-1.19-1.71-2.08Z" style="fill:#473513;"/><path d="M235.72,93.8c-.25-1.19,.29-1.78,.89-2.27,.56-.47,1.24-1.33,2.35-1.34,.79-.01,1.71,.41,2.7,.56,.83,.12,1.61,.82,2.54,1.02,.85,.18,1.71,.39,2.61,.61s1.83,.05,2.71,.27,1.73,.54,2.59,.75,1.76,.53,2.61,.71c.93,.19,1.86,.16,2.7,.28,.99,.13,1.92,.63,2.72,.6,1.08-.04,2.22-.39,2.81-.84s.97-1.54,1.87-1.99c.73-.37,1.76-.27,2.64-.62,.79-.32,1.47-1.05,2.34-1.35,.82-.28,1.8-.16,2.66-.42s1.58-.91,2.44-1.15c.86-.23,1.76-.37,2.61-.58s1.86,.05,2.71-.13c.9-.2,1.66-.93,2.49-1.1,.93-.18,1.82-.34,2.63-.47,1.01-.17,1.98,.31,2.71,.23,1.3-.15,1.26,.07,.54,1.22-.37,.58-.89,1.32-1.63,2.1-.55,.59-1.44,.94-2.15,1.59-.62,.57-.96,1.54-1.67,2.13-.67,.56-1.52,.93-2.24,1.48s-1.58,.84-2.31,1.35-1.18,1.45-1.92,1.92-1.77,.56-2.52,.98c-.82,.46-1.28,1.55-2.04,1.9-.9,.41-1.85,.58-2.61,.77s-1.66,.54-2.7,.81c-.84,.22-1.94-.24-2.91,0-.87,.21-1.71,.79-2.66,.99-.9,.19-1.9-.12-2.85,.04s-1.73,1.14-2.67,1.25-1.91-.02-2.84,.02c-.95,.04-1.88-.36-2.81-.4-.95-.05-1.91,.18-2.83,.02s-1.73-.81-2.6-1.1-1.69-.65-2.5-1.11-1.71-.74-2.4-1.4-1.08-1.45-1.6-2.27c-.48-.75-1.11-1.45-1.46-2.38-.32-.83-.72-1.69-.93-2.67Z" style="fill:#473513;"/></g></g><g><path d="M203.31,206.02c-.49,0-.99-.19-1.36-.57-.73-.75-.72-1.95,.03-2.69,2.77-2.7,5.39-6.38,9.17-15.52,1.67-4.02,10.19-25.36,14.41-50.54,3.32-19.78,3.63-41.09,3.8-52.54l.04-2.31c.01-.63,.06-1.4,.11-2.29,.16-2.56,.38-6.07-.1-10.21-.12-1.04,.63-1.99,1.67-2.11,1.06-.12,1.99,.63,2.11,1.67,.52,4.48,.28,8.34,.12,10.89-.05,.82-.1,1.54-.11,2.12l-.04,2.3c-.17,11.55-.49,33.05-3.85,53.12-4.29,25.59-12.96,47.28-14.65,51.37-4.04,9.74-6.93,13.75-10.03,16.78-.37,.36-.85,.54-1.33,.54Z"/><path d="M199.25,164.04c-.24,0-.49-.05-.72-.14-.97-.4-1.43-1.51-1.03-2.48,4.23-10.23,7.48-26.08,11.08-46.73,2.33-13.38,2.47-25.24,2.59-34.77,.18-14.8,.3-24.57,8.6-26.65,2.11-.53,4.33-.11,6.42,1.21,2.72,1.72,4.88,4.86,5.51,7.99,.21,1.03-.46,2.03-1.49,2.23-1.02,.21-2.03-.46-2.23-1.49-.42-2.13-1.96-4.35-3.81-5.53-.83-.53-2.1-1.08-3.47-.74-5.21,1.3-5.54,8.78-5.72,23-.12,9.67-.26,21.7-2.64,35.38-3.63,20.9-6.95,36.97-11.31,47.53-.3,.73-1.01,1.17-1.76,1.17Z"/></g><path d="M189.16,139.37c-13.62-29.1-44.43-27.25-55.26-27.71-7.95-.34-12.73-12.21-14.71-18.5-.31-.99-1.04-1.7-1.92-2.05,3.38-4.59,5.03-10.44,6.88-13.51,1.76-2.91,3.3-13.54,.28-21.89,.49-3,5.29-33.05,.73-34.56-2.51-.84-15.35,12.89-19.49,17.41-4.94-2.29-10.61-3.41-18.98-3.41-7.62,0-12.74,.64-16.96,2.36-4.88-5.28-16.19-17.15-18.53-16.37-4.8,1.6,.78,34.83,.78,34.83,0,0,.08-.13,.22-.35-2.53,6.96-3.04,15.83-1.18,21.98,2.71,8.97,5.94,10.84,12.44,16.25,.74,.61,2,1.36,3.68,2.12-.75,2.35-10.72,34.29-9.09,56.39,1.06,14.32,7.66,31.13,15.17,46.59,6.86,14.13,5.42,44.43,5.42,44.43,0,0-9.33,5.72-7.59,10.84,1.75,5.12,10.26,4.44,15.23,3.49,4.48-.86,7.98-1.32,12.94-1.32s4.89,4.87,14.09,3.26c6.56-1.14,14.09-5.68,8.67-11.93-1.44-1.66-3.25-4.33-3.25-4.33,0,0,.39,.05,1.08-5.42,2.79,2.32,6.7,1.99,8.75,5.16,.88,1.36-.99,5.13,1.53,8.05,2.52,2.92,1.46,4.09,8.05,3.78,6.6-.31,26.66,2.25,32.92-1.38,6.26-3.62,26.3-10.59,30.02-31.45,4.28-23.99,3.97-48.81-11.92-82.77Z" style="fill:#d1a67b;"/><g style="clip-path:url(#clippath-1);"><g><g><g><path d="M184.32,143.07c-.37,.41-1.55,.42-2.25,1.17-.48,.52-.18,1.89-.78,2.53-.51,.54-1.21,.98-1.8,1.59-.53,.55-1.19,1.02-1.77,1.6-.54,.56-.79,1.44-1.36,2.01s-1.89,.35-2.46,.91-1.13,1.12-1.7,1.67-.83,1.44-1.41,1.98-.53,1.81-1.11,2.33c-.61,.55-1.31,1-1.89,1.5-.63,.55-2.07,.08-2.65,.55-.68,.55-1.24,1.08-1.83,1.49-.79,.55-1.37,.96-1.94,1.19-.6,.24-1.3,.77-2.18,1.2-.66,.33-1.26,.99-2.04,1.41-.68,.37-1.17,1.18-1.91,1.6-.69,.39-1.56,.51-2.28,.94s-1.72,.32-2.42,.76-.75,1.85-1.44,2.3-1.55,.62-2.22,1.08-2.02,.03-2.67,.51-1.16,1.26-1.78,1.76c-.67,.53-1.23,1.18-1.81,1.7-.66,.59-1.18,1.27-1.69,1.82-.64,.69-1.35,1.26-1.7,1.86-.31,.55-.67,1.2-1.52,1.75-.61,.4-1,1.47-1.82,1.85-.69,.32-1.82-.21-2.63,.1-.73,.28-1.5,.52-2.31,.77-.76,.24-1.65,.04-2.46,.26s-1.39,1.09-2.2,1.28-1.45,1.14-2.26,1.29-1.81-.77-2.62-.65-1.51,1.31-2.31,1.39-1.71-.23-2.51-.19c-.85,.05-1.69-.64-2.48-.65-.87-.01-1.75,.76-2.51,.67-.89-.1-1.8-.22-2.51-.43-.9-.27-2.04-.53-2.57-1.01-.63-.57-.42-1.91-.38-2.8,.03-.73,.9-1.39,1.02-2.21,.11-.74-.71-1.67-.52-2.46,.17-.73,.84-1.36,1.09-2.12,.23-.72,.74-1.34,1.05-2.07s-.22-1.8,.14-2.5,1.13-1.15,1.55-1.83,.68-1.41,1.15-2.05,.88-1.3,1.4-1.89,1.25-.95,1.83-1.49,1.43-.67,2.05-1.17,.72-1.63,1.38-2.07,1.83,.09,2.53-.29,1.1-1.19,1.83-1.51,1.1-1.49,1.86-1.75,1.59-.24,2.36-.45c.74-.2,1.55-.31,2.33-.46s1.6-.03,2.34-.2c.79-.19,1.72,.26,2.44,.04,.78-.23,1.37-.97,2.08-1.22,.77-.28,1.75,.03,2.44-.27,.74-.33,1.4-.86,2.06-1.22,.71-.39,.82-1.69,1.44-2.11,.67-.45,1.93-.06,2.51-.54,.62-.51,.5-1.78,1.03-2.33s1.62-.65,2.1-1.25,.25-1.74,.68-2.38,1.62-.8,2.02-1.47,1.26-1.08,1.65-1.75,.13-1.72,.52-2.4,.71-1.39,1.13-2.05c.38-.61,.63-1.37,1.01-2.16,.33-.67,.57-1.43,.9-2.2,.3-.7,1.39-1.13,1.69-1.89,.28-.72,.55-1.48,.84-2.25s.02-1.68,.3-2.44,.18-1.63,.46-2.38,.81-1.4,1.1-2.15,.14-1.67,.44-2.41,1.46-1.14,1.77-1.86-.35-1.95-.02-2.65c.36-.75,.77-1.49,1.14-2.16,.4-.74,1.04-1.36,1.46-1.98,.48-.71,1.43-1.04,1.94-1.57,.61-.63,1.35-.91,2-1.24,.74-.37,1.37-.39,2.17-.26,.68,.11,1.22,.65,2.05,1.03,.67,.31,2.09-.6,2.82-.14,.64,.4,.51,2.02,1.17,2.53,.61,.47,1.34,.8,1.95,1.35,.58,.52,1.83,.38,2.4,.97s.2,1.99,.73,2.6,2.11,.33,2.61,.97-.16,2.09,.29,2.76,1.33,1.03,1.72,1.73,1.39,1.11,1.73,1.83-.43,1.92-.16,2.67,.86,1.38,1.05,2.15,.82,1.5,.91,2.29-.99,1.6-1.03,2.39,.89,1.68,.71,2.47-.5,1.55-.82,2.3-1.19,1.13-1.64,1.82c-.42,.65-.43,1.62-.99,2.24Z" style="fill:#d28728;"/><path d="M150.14,107.31c-.56,1.08-1.7-.59-3.09-.08-.66,.24-1.1,1.25-1.9,1.7-.65,.37-1.78,.16-2.46,.71-.6,.48-1.25,1.08-1.82,1.71-.51,.57-.77,1.45-1.24,2.17-.42,.65-.34,1.59-.69,2.37-.32,.7-1.24,1.2-1.49,2.02s-.75,1.58-.96,2.34c-.24,.85-.36,1.69-.56,2.45-.23,.85,.05,1.79-.17,2.55-.24,.84-1.16,1.39-1.44,2.15-.3,.8,.42,2.03,.02,2.75s-1.55,.96-2.1,1.64c-.49,.61-1.19,1-1.86,1.6-.57,.52-1.09,1.11-1.82,1.64-.63,.45-1.11,1.19-1.88,1.66-.67,.41-1.7,.26-2.48,.68-.73,.4-.75,2.01-1.44,2.44s-1.45,.77-2.12,1.23-1.49,.74-2.15,1.24-1.6,.64-2.24,1.16-.77,1.68-1.41,2.2-1.8,.43-2.43,.95-1.33,1-1.96,1.51-1.24,1.11-1.89,1.6-1.64,.53-2.31,.98c-.71,.47-1.08,1.38-1.79,1.76-.75,.41-1.65,.3-2.41,.58s-1.41,.8-2.22,.95-1.6,.95-2.44,.91c-.77-.04-1.49-1.14-2.32-1.22-.78-.07-1.61,.19-2.41,.08s-1.74,.66-2.53,.52-1.48-.93-2.25-1.12-1.69-.09-2.43-.32c-.81-.26-1.36-1.1-2.05-1.4-.8-.36-1.79-.31-2.37-.74-.74-.55-1.27-1.34-1.52-2.01-.26-.7,.24-1.41,.68-2.26,.31-.58,.97-.88,1.69-1.53,.62-.57,.21-1.98,.65-2.57,.49-.67,1.91-.73,2.21-1.41,.33-.74-.15-1.77,.04-2.51,.2-.78,.07-1.58,.2-2.33,.14-.8,1-1.44,1.15-2.17,.17-.8,.35-1.49,.67-2.17s.57-1.4,1.21-1.92c.54-.43,1.25-.66,2.1-.93,.65-.21,1.44,.09,2.32-.02,.8-.1,1.61-.49,2.36-.7s1.28-1.17,2-1.48,1.56-.37,2.25-.76,1.24-.99,1.89-1.43,1.01-1.26,1.63-1.74,1.55-.58,2.15-1.09,1.23-1.02,1.82-1.53,1.03-1.28,1.62-1.77c.63-.53,1.47-.78,2.08-1.22,.67-.49,1.56-.55,2.22-.9,.74-.39,1.38-.71,2.11-.86,.85-.17,1.33-1.01,1.95-1.56,.59-.52,.73-1.28,1.17-2.05,.4-.68,1.54-1.02,1.86-1.82,.29-.75,.91-1.45,1.17-2.26s-.48-1.89-.24-2.68,.63-1.59,.88-2.35c.28-.84,.55-1.67,.89-2.36,.4-.83,1.41-1.1,1.95-1.6s.79-1.73,1.62-2.1c.72-.32,1.85,.38,2.71,.17,.79-.2,1.41-1.53,2.26-1.64s1.78,.72,2.61,.69,1.72-.68,2.52-.64c.91,.04,1.85-.16,2.6-.04,1.03,.16,1.71,1.16,2.25,1.45,.49,.27,1.21,.63,1.86,1.3,.49,.5,.92,1.16,1.44,1.78,.48,.57,.49,1.54,.96,2.15s1.08,1.12,1.51,1.71c.49,.67,.96,1.29,1.34,1.83,.79,1.11,2.78,.93,2.25,1.94Z" style="fill:#d28728;"/><path d="M55.15,131.06c1.13,.21,.88,.13,2.03,1.07,.49,.4,.47,1.5,1.08,2.15,.47,.5,1.97,.23,2.48,.9,.43,.56-.16,1.9,.28,2.59,.38,.6,.74,1.23,1.13,1.94,.34,.64,1.07,1.1,1.4,1.83,.35,.77,1.23,1.32,1.49,2.05,.28,.8,.58,1.61,.77,2.37,.21,.82,.4,1.66,.53,2.43,.14,.84-.7,1.79-.61,2.57,.1,.85,1.27,1.53,1.36,2.3,.1,.85-.64,1.77-.49,2.53,.17,.83,.77,1.47,1.1,2.19s.14,1.88,.72,2.5c.53,.56,1.1,1.13,1.67,1.67s1.5,.68,2.07,1.21,1.04,1.17,1.59,1.72,.82,1.35,1.33,1.93,.92,1.19,1.36,1.82,1.26,1,1.61,1.69,.13,1.54,.35,2.3c.2,.68,.64,1.35,.85,2.13,.2,.71,.24,1.5,.46,2.26s.4,1.49,.65,2.22,.39,1.54,.67,2.23,1.9,.83,2.24,1.49c.37,.71,.08,1.74,.51,2.32,.48,.65,1.51,.58,2.08,1.02,.62,.47,1.02,.65,1.77,.8,.58,.11,1.26,.68,2.11,.11,.56-.38,1.5-.59,2.13-1.21,.52-.51,.27-1.82,.81-2.46,.48-.57,1.21-.97,1.7-1.63,.45-.61,.88-1.26,1.33-1.93s1.2-1.08,1.61-1.77,1.09-1.2,1.46-1.9,.74-1.42,1.07-2.13-.44-1.91-.15-2.63,1.58-1.1,1.83-1.83-.31-1.75-.12-2.5,.43-1.51,.55-2.26c.13-.8,.35-1.54,.38-2.3,.03-.81,.07-1.59-.03-2.34-.11-.81-.41-1.51-.69-2.22s-.32-1.66-.83-2.26-.96-1.48-1.66-1.91-1.97,.1-2.61-.32c-.7-.45-.81-1.69-1.43-2.14-.68-.49-1.29-.95-1.88-1.43-.65-.53-1.69-.54-2.23-1.06-.61-.58-1.32-1.04-1.81-1.61-.55-.65-.47-1.69-.86-2.33-.45-.72-.65-1.42-.91-2.12-.29-.79-1.59-1.35-1.65-2.11-.06-.81,1.1-1.55,1.29-2.32s-.02-1.64,.38-2.36c.35-.62,1.27-.82,2.04-1.38,.61-.44,.85-1.63,1.65-2.04,.69-.36,1.9,.24,2.69-.11,.73-.32,1.3-1.09,2.08-1.4s1.58-.47,2.36-.78c.77-.3,1.59-.49,2.36-.79s1.62-.47,2.37-.8,1.46-.89,2.18-1.24c.77-.38,1.35-1.08,2.02-1.49,.76-.46,1.25-1.13,1.83-1.64,.68-.59,2.04-.63,2.41-1.3,.41-.74-.09-1.85-.18-2.7-.09-.8-.08-1.88-.76-2.44-.54-.45-1.35-1.07-2.2-1.39-.69-.25-1.7,.17-2.55,0-.74-.16-1.54-.23-2.38-.34-.76-.1-1.53-.62-2.36-.68-.78-.06-1.61,.16-2.43,.13s-1.6,.58-2.41,.58-1.58,.22-2.4,.23-1.63-.99-2.44-.96-1.59,.64-2.39,.68-1.65-.57-2.45-.52c-.81,.05-1.63,.04-2.42,.1s-1.62,.21-2.4,.28c-.83,.07-1.56,1.01-2.33,1.07-.84,.07-1.65,.05-2.41,.12-.87,.08-1.69,.01-2.42,.08-.94,.08-1.76,.17-2.4,.21-.73,.04-1.5-.61-2.34-.69-.75-.07-1.52-.08-2.33-.22-.76-.14-1.5-.39-2.28-.57s-1.68,.28-2.45,.09-1.45-.77-2.2-.95-1.47-.83-2.21-.99c-.81-.17-1.71,.22-2.44,.12-.86-.12-1.66-.04-2.36,0-.93,.05-1.57,.32-2.1,.75s-1.57,.98-1.56,1.97c0,.81-.04,1.57-.1,2.38s.61,1.68,.54,2.47c-.07,.84-.22,1.64-.25,2.41-.03,.87-.29,1.71-.2,2.45,.11,.88,1.12,1.26,1.53,1.89s.45,1.58,1.33,1.88c.64,.22,1.46,.27,2.42,.26Z" style="fill:#d28728;"/><path d="M55.43,119.97c-.21,.87-.08,1.65,.04,2.31,.15,.81,.45,1.51,.99,2.05,.51,.5,1.46,.26,2.23,.58,.66,.27,1.3,.42,2.1,.59,.72,.15,1.37,.78,2.17,.86,.75,.08,1.51,.17,2.3,.2,.77,.03,1.53,.62,2.3,.63s1.57-1.07,2.32-1.07c.8,0,1.57,1.38,2.31,1.39,.84,.01,1.67-1.26,2.36-1.21,.93,.07,1.75,.49,2.32,.69,.91,.32,1.69,1.38,1.19,2.29-.41,.75-1.67,.85-2.07,1.39-.55,.75-.16,2.04-.53,2.48-.77,.91-1.5,.61-.45,.99,.46,.17,1.08,.67,2.1,.88,.62,.13,1.46-.23,2.32-.06,.71,.14,1.46,.46,2.32,.6,.75,.12,1.52,.34,2.35,.45,.77,.1,1.56,.17,2.38,.24s1.55,.83,2.36,.87,1.63-.85,2.43-.85,1.65,.95,2.45,.9,1.5-1.26,2.28-1.38c.82-.12,1.86,.92,2.61,.73,.8-.21,1.46-1,2.17-1.31,.76-.34,1.31-1.01,1.92-1.48,.64-.5,1.26-1,1.69-1.67s.46-1.44,.63-2.27c.15-.72-.03-1.43-.1-2.3-.06-.83,.37-1.63,.4-2.35,.03-.84-.53-1.74-.39-2.43,.17-.82,1.62-1.16,1.92-1.82,.34-.74,.19-1.65,.67-2.22s.75-1.55,1.37-2.01,1.51-.58,2.2-.95,1.64-.09,2.36-.41,1.4-.58,2.12-.89,1.11-1.26,1.82-1.6,1.81,.13,2.49-.26c.72-.41,1.22-1.22,1.95-1.64s1.01-1.58,1.72-2.01,1.91-.11,2.6-.55c.74-.46,1.58-.74,2.24-1.19,.75-.51,1.62-.82,2.22-1.29,.77-.61,.62-2.04,1.06-2.55,.79-.92,1.02-.93,.25-1.38-.33-.19-.77-.1-1.95,.21-.65,.17-1.69-.52-2.55-.23-.69,.23-1.16,1.27-1.95,1.57-.7,.26-1.27,.95-2.04,1.26-.71,.28-1.52,.36-2.28,.67-.71,.29-1.66,.07-2.41,.38s-1.51,.47-2.24,.78-1.59,.3-2.32,.61-1.02,1.63-1.74,1.94-1.73,0-2.45,.32-1.61,.27-2.33,.58-1.11,1.45-1.83,1.76-1.44,.7-2.15,1c-.75,.32-1.72,.05-2.43,.35-.76,.32-1.62,.3-2.32,.58-.78,.32-1.23,1.33-1.91,1.6-.83,.32-1.8-.04-2.45,.17-1.02,.34-1.64,1.22-2.12,1.25-.84,.06-1.67,.39-2.48,.4-.84,0-1.63-1.19-2.44-1.23s-1.65,.14-2.46,.05-1.68,.1-2.48-.03-1.75,.26-2.54,.1-1.63-.41-2.41-.6-1.37-1.36-2.15-1.57-1.9,.61-2.67,.39c-.82-.23-1.56-.64-2.32-.85-.83-.23-1.42-1.26-2.19-1.44-.84-.2-1.84,.6-2.61,.49-.87-.13-1.6-.08-2.38-.06-.87,.02-1.79-.75-2.54-.49s-1.13,1.23-1.77,1.81c-.56,.5-1.18,.95-1.64,1.74-.37,.64-.47,1.44-.78,2.3-.25,.71-.95,1.35-1.16,2.22Z" style="fill:#473513;"/><path d="M65.34,117.7c.76,.43,1.64,.8,2.51,1.24,.81,.41,1.85,.4,2.7,.81s1.6,.98,2.43,1.39,1.65,.92,2.45,1.34c.87,.46,1.5,1.23,2.24,1.68,.88,.54,2,.6,2.61,1.13,.88,.77,1.52,1.72,1.55,2.47s-.74,1.4-1.85,2.1c-.82,.52-1.66,.93-2.52,1.29s-1.69,.99-2.62,1.19-1.91,.13-2.87,.18-1.89,.09-2.86,0c-.92-.09-1.86-.3-2.82-.51-.9-.2-1.79-.56-2.72-.86-.88-.28-1.7-.78-2.61-1.15-.86-.34-1.69-.77-2.58-1.18-.92-.43-1.76-.91-2.59-1.37-.9-.49-2.02-.53-2.81-1.05-.86-.57-1.7-1.13-2.43-1.73-.8-.66-1.09-1.78-1.71-2.47-.7-.78-1.34-1.45-1.79-2.26-.5-.91-1.31-1.68-1.46-2.61s.23-1.97,.47-2.95c.27-1.1,.76-1.77,1.36-2.34,.64-.61,1.32-.77,2.44-.77,.79,0,1.69-.09,2.76,.21,.81,.23,1.76,.35,2.74,.75,.8,.33,1.67,.71,2.6,1.16,.8,.38,1.61,.88,2.51,1.35,.8,.41,1.66,.8,2.54,1.28,.79,.44,1.46,1.2,2.32,1.69Z" style="fill:#473513;"/><path d="M184.38,110.08c-.1,.76-.27,1.41-.61,2.18-.31,.69-.46,1.55-.95,2.23-.44,.63-1.21,1.05-1.77,1.67-.52,.58-1.46,.74-2.06,1.3s-.57,1.73-1.2,2.25-1.69,.42-2.34,.91-1.27,.95-1.92,1.41-.92,1.52-1.58,1.95-1.72,.32-2.38,.74c-.7,.44-1.33,.94-1.99,1.33-.73,.43-1.58,.57-2.22,.95-.77,.45-.82,1.99-1.43,2.34-.93,.53-1.99,.36-2.4,.64-.58,.39-1.22,.93-2.08,1.27-.67,.27-1.57,.15-2.42,.41-.71,.22-1.59,0-2.43,.23-.73,.19-1.32,1.1-2.16,1.31-.74,.19-1.65-.11-2.47,.09-.75,.18-1.55,.32-2.36,.52-.75,.19-1.33,1.22-2.14,1.42-.76,.19-1.55,.35-2.36,.55-.76,.19-1.54,.4-2.34,.62-.78,.21-1.67-.04-2.42,.15s-1.62,.12-2.38,.31-1.4,1.02-2.16,1.2-1.57,.35-2.33,.52c-.79,.17-1.51,.68-2.26,.83-.8,.16-1.63,.07-2.39,.2-.81,.14-1.65-.09-2.42,.01-.81,.11-1.64-.27-2.4-.2-.81,.08-1.56,.65-2.33,.67-.82,.03-1.59-.5-2.36-.53-.81-.03-1.7,.98-2.46,.88-1.34-.18-1.17-1.11-.8-1.89,.25-.51,.27-1.47,1.1-2.15,.56-.45,1.26-.94,2.03-1.44,.65-.41,1.48-.63,2.25-1.06,.69-.38,1.68-.24,2.45-.63,.71-.36,.91-1.87,1.68-2.22s1.7-.21,2.48-.54,1.72-.12,2.5-.42,1.58-.44,2.36-.71,1.5-.7,2.29-.94,1.38-1.25,2.17-1.45,1.62-.46,2.42-.63,1.78,.62,2.47,.43c.81-.22,1.33-1.15,1.98-1.38,.81-.29,1.7-.15,2.31-.46,.79-.4,.97-1.44,1.49-1.86,.68-.56,1.96-.4,2.34-.96,.47-.68-.09-1.91,.27-2.54s1.38-.79,2.03-1.31c.5-.41,.94-1.03,1.82-1.33,.74-.25,1.31-.85,2.01-1.42,.61-.5,1.57-.73,2.14-1.41,.52-.62,1.19-1.22,1.67-1.94s.71-1.55,1.12-2.3,.39-1.69,.75-2.45,1.35-1.27,1.66-2.03c.33-.81,.88-1.55,1.14-2.3,.3-.88,.58-1.74,.77-2.46,.29-1.08-.36-2.12-.36-2.65,0-.6,1.23-1.13,2.57-.56,.64,.27,1.13,1.26,1.96,1.71,.67,.37,1.22,1.08,1.98,1.53,.68,.41,1.59,.52,2.31,.97s1.23,1.14,1.93,1.59,1.8,.29,2.48,.74,1.2,1.23,1.87,1.68c.72,.49,1.2,1.27,1.84,1.71,.76,.52,1.28,1.25,1.86,1.66,1.25,.87,1.61-.04,2.18,1.06Z" style="fill:#473513;"/><path d="M31.06,136.68c.86,.27,.54,.67,1.5,1.28,.43,.27,.8,.8,1.4,1.13,.48,.26,.77,1.03,1.36,1.31,.51,.24,1.22,.16,1.8,.4,.53,.22,1.08,.48,1.67,.68,.55,.19,1.36-.45,1.95-.28,.56,.16,.97,.92,1.57,1.05s1.18,.11,1.78,.2,1.18-.09,1.79-.03,1.17-.16,1.78-.14,1.17,.75,1.78,.73c.64-.02,1.28,0,1.91-.03s1.25-.49,1.87-.53,1.36,.94,1.98,.88,1.16-1.49,1.78-1.55c.65-.06,1.38,.82,1.99,.76,.66-.06,1.24-.68,1.85-.74,.66-.07,1.34,.37,1.94,.31,.67-.06,1.3-.23,1.89-.26,.69-.04,1.32,.26,1.9,.27,.74,0,1.37-.26,1.88-.15,.8,.18,1.19,.5,1.33,1.06,.13,.53,.63,1.4,1.47,1.61,.53,.14,1.35-.6,2.09-.54,.59,.05,1.18,1.04,1.88,1.08,.62,.03,1.27-.02,1.94,.01,.63,.03,1.31-.53,1.97-.48s1.21,.76,1.86,.83,1.25,.13,1.9,.23,1.25,.15,1.88,.31,1.57-.68,2.17-.47,.77,1.49,1.34,1.78c.7,.36,1.19,.39,1.44,.87,.3,.58,.41,1.05,.17,1.69-.2,.55,.07,1.63-.42,2.13-.42,.43-1.42,.38-2,.73-.54,.32-1.28,.17-1.9,.38s-1.17,.12-1.81,.17-1.12,.02-1.76-.1-1.41,1-2.07,.94-1.22-.45-1.87-.46-1.26-.34-1.92-.33-1.26,.42-1.91,.44-1.27,.15-1.92,.16-1.29-.76-1.93-.75-1.28,.56-1.92,.54-1.27-.22-1.91-.26-1.2-.62-1.85-.71-1.46,1-2.09,.87-1.06-1.43-1.66-1.48c-.63-.06-1.29,1.09-1.89,1.1s-1.27-.77-1.89-.71-1.32-.33-1.93-.23-1.02,1.28-1.63,1.4-1.19,.25-1.81,.38-1.13,.62-1.75,.74-1.27-.09-1.9,0c-.59,.09-1.3-.5-1.93-.43-.6,.07-1.14,.99-1.78,1.03-.6,.04-1.25-.23-1.89-.22-.6,.01-1.24,.26-1.88,.24s-1.21-1.19-1.84-1.2-1.24,.67-1.87,.67-1.24,.59-1.86,.59-1.24,.03-1.87,.03-1.25-1.32-1.87-1.32-1.25,.53-1.87,.53-1.26,.06-1.87,.05-1.28,.4-1.89,.38-1.26-.27-1.86-.31c-.65-.04-1.21-.66-1.81-.73-.65-.07-1.25-.12-1.83-.22-.66-.12-1.33,.05-1.87-.12-.67-.21-1.54-.03-1.99-.33-.58-.39-.51-1.34-.65-1.92-.12-.51-1.03-1.06-1.1-1.8-.05-.59,1.03-1.31,1-1.99-.02-.61-.39-1.24-.39-1.9s-.78-1.28-.77-1.93,.5-1.28,.51-1.92,.33-1.29,.36-1.91c.03-.67,.62-1.29,.65-1.89,.04-.71-.54-1.39-.51-1.94,.07-1.18-.89-2,.05-2.18s1.09,.04,2.04,.21,.98,.06,1.93,.24,.83,.86,1.79,1.04,1.04-.28,2-.11,.83,.87,1.79,1.04,1.1-.59,2.06-.41,.9,1.06,1.88,1.01c1.08-.06,1.15-.83,2.08-.54Z" style="fill:#473513;"/><path d="M111.18,196.41c0-.69,.32-1.71,1.09-2.37,.53-.46,1.51-.57,2.33-1,.66-.35,1.63-.13,2.44-.46,.72-.29,1.08-1.67,1.88-1.94,.75-.25,1.83,.46,2.63,.24s1.51-.55,2.31-.74,1.55-.47,2.35-.64,1.55-.59,2.35-.73,1.5-1.13,2.29-1.25,1.69-.12,2.47-.2c.85-.09,1.76,.75,2.52,.71,.88-.05,1.69-.36,2.43-.34,.69,.01,1.53-.74,2.46-.73,.75,.01,1.56,.81,2.44,.82,.77,0,1.59-.3,2.45-.29,.79,0,1.61,1.12,2.45,1.12,.8,0,1.61-1.23,2.44-1.24s1.65,1.38,2.48,1.36,1.62-.61,2.44-.64,1.59-.97,2.41-1.01,1.68,.79,2.5,.73,1.69,.45,2.5,.38c.82-.07,1.62-.49,2.42-.58s1.71,.2,2.5,.08c.83-.12,1.46-1.4,2.24-1.54,.84-.16,1.51-.78,2.27-.96,.84-.21,1.78,.22,2.51-.03,.84-.29,1.17-1.39,1.83-1.74,.81-.43,2.53,.53,3.03,0,.46-.49,.53-1.5,1.23-2.08,.56-.47,1.37-.71,2.05-1.21,.61-.45,.94-1.35,1.62-1.82,.64-.43,1.63-.35,2.32-.78s.68-1.95,1.38-2.36,1.77-.11,2.48-.48,1.48-.61,2.19-.96,1.77,.09,2.5-.22,.83-2.28,1.57-2.54c.77-.28,1.64-.37,2.38-.58,.8-.23,1.75,.1,2.49-.02,.84-.14,1.66,.37,2.4,.37,.87,0,1.66-.31,2.35-.05,.78,.29,.88,1.12,1.34,1.78,.41,.58,2.06,.84,2.17,1.75,.09,.72-.15,1.55-.07,2.38,.07,.74,.57,1.5,.63,2.31,.06,.75-1.53,1.64-1.48,2.45,.04,.76,1.47,1.47,1.51,2.27s-1.36,1.59-1.34,2.39,.2,1.54,.2,2.33-.36,1.54-.37,2.33,1.08,1.58,1.05,2.36,.2,1.58,.15,2.36,.2,1.6,.13,2.38-1.87,1.39-1.96,2.16,1.57,1.8,1.46,2.56-.3,1.59-.45,2.34c-.16,.79-1.67,1.24-1.87,1.98-.21,.78-.73,1.38-.98,2.09-.27,.77,.95,2.12,.62,2.79-.36,.74-.94,1.43-1.37,2.03-.48,.67-1.58,.77-2.16,1.24s-1.15,.98-1.85,1.43c-.63,.4-1.23,.93-1.95,1.32-.67,.36-1.6,.23-2.33,.58s-.96,1.67-1.69,1.98-1.35,.92-2.09,1.2-1.71-.08-2.46,.17-1.46,.65-2.21,.87-1.46,.73-2.22,.92-1.71-.31-2.47-.16-1.72-.78-2.49-.66-1.38,1.76-2.14,1.83c-.81,.07-1.65-.89-2.41-.89-.83,0-1.63,.56-2.37,.48-.83-.09-1.59-.4-2.29-.61-.81-.24-1.16-1.09-1.75-1.51s-1.32-.97-2.12-1.35c-.67-.32-1.56-.41-2.36-.71-.71-.27-1.88,.7-2.68,.45-.74-.23-1.11-1.79-1.9-2s-1.76,.46-2.54,.27-1.36-1.21-2.14-1.38-1.51-.63-2.3-.79-1.63-.07-2.41-.2-1.7,.4-2.48,.27-1.55-.58-2.32-.69c-.82-.12-1.65,.05-2.41-.05-.83-.11-1.67,.16-2.42,.08-.87-.09-1.64-.44-2.36-.49-.95-.07-1.74-.97-2.37-.98s-1.42,.63-2.35,.61c-.71,0-1.49-.04-2.33-.08-.74-.03-1.52-.07-2.33-.14-.75-.07-1.61,.46-2.41,.35s-1.6-.06-2.38-.22-1.4-.93-2.16-1.15-1.46-.56-2.19-.85-1.43-.62-2.13-.98-1.89-.01-2.53-.46-.29-2.14-.86-2.68-1.57-.61-2.05-1.24-.89-1.27-1.27-1.97c-.36-.67-.48-1.46-.75-2.22-.25-.71-1.2-1.28-1.37-2.08-.15-.73-.45-1.56-.52-2.37-.07-.75,.51-1.6,.52-2.41Z" style="fill:#d28728;"/><path d="M89.64,157.6c.67-1.01,1.31-.11,2.56-.97,.57-.39,.95-1.29,1.71-1.79,.62-.41,1.67-.29,2.4-.74,.65-.41,1.28-.92,2.01-1.36,.67-.4,1.61-.39,2.33-.8s1.53-.51,2.25-.9,.73-2.08,1.46-2.45,1.54-.55,2.28-.89,1.59-.44,2.33-.75,1.33-1.13,2.08-1.4,1.77,.1,2.54-.13,1.63-.22,2.4-.39c.81-.18,1.64,.01,2.41-.09,.83-.1,1.58-.93,2.36-.92,.84,.01,1.44,1.27,2.2,1.43s1.71-.58,2.52-.43c.75,.13,1.63-.35,2.43-.23,.76,.11,1.35,1.78,2.15,1.88s1.59,.14,2.38,.22,1.67-.85,2.46-.79,1.55,.55,2.34,.6,1.61-.34,2.4-.31,1.57,.88,2.35,.9,1.61-.62,2.4-.61c.8,0,1.6-.07,2.38-.09s1.57-.68,2.35-.71c.82-.04,1.68,1.13,2.44,1.07,.82-.06,1.61-.35,2.36-.44,.83-.1,1.6-.45,2.33-.58,.86-.16,1.42-1.1,2.1-1.3,.9-.27,2.16,.54,2.69,.18s.96-.69,1.89-.7c.69,0,1.63-1.06,2.48-.88,.71,.14,1.08,1.83,1.86,2.09,.71,.23,1.71-.3,2.46,.01,.7,.29,1.55,.34,2.27,.69s1.34,.8,2.04,1.2,1.26,.94,1.92,1.36,.95,1.35,1.58,1.81,1.62,.44,2.22,.93,1.41,.79,1.98,1.32,.2,1.99,.72,2.56,1.72,.56,2.19,1.17,.7,1.42,1.09,2.08,.75,1.36,1.04,2.06,.38,1.48,.53,2.22-.18,1.46-.2,2.23,.4,1.5,.01,2.22c-.34,.65-.29,1.75-.89,2.35-.52,.52-1.16,1.15-1.84,1.64-.61,.43-1.73,.19-2.45,.6-.66,.37-1.28,.88-2.02,1.23-.69,.33-1.35,.8-2.1,1.11-.71,.29-1.73-.18-2.48,.1s-1.43,.58-2.19,.83-1.33,.96-2.1,1.19-1.26,1.32-2.03,1.53-1.98-1.35-2.75-1.16-1.38,.91-2.16,1.1-1.64-.16-2.41,.01-1.49,.5-2.27,.66-1.41,1.02-2.18,1.16-1.47,.8-2.24,.93-1.53,.49-2.31,.62-1.55,.43-2.32,.55-1.64-.19-2.42-.08-1.72-.8-2.49-.7-1.4,1.68-2.17,1.77-1.71-.87-2.48-.79c-.81,.09-1.64-.29-2.4-.21-.81,.08-1.48,1.48-2.24,1.55-.83,.07-1.71-1.14-2.46-1.08-.84,.06-1.57,1.1-2.3,1.13-.88,.04-1.7-.98-2.39-.97-.73,0-1.55,.53-2.42,.64-.75,.09-1.4,1.12-2.24,1.26-.76,.13-1.85-1.31-2.67-1.15-.77,.15-1.28,1.68-2.09,1.85s-1.5,.69-2.3,.85-1.89-1.32-2.68-1.17-1.48,.84-2.28,.97-1.69-.58-2.49-.49-1.45,1.72-2.25,1.78c-.81,.06-1.67-.81-2.46-.8s-1.64,.52-2.43,.47-1.73,.37-2.51,.23-1.26-1.69-2.01-1.93-1.47-.41-2.17-.79-2.08,.19-2.7-.33,.02-2.19-.48-2.84c-.47-.61-1.15-.96-1.53-1.72-.34-.68-1.4-1.09-1.66-1.9-.23-.73,.05-1.63-.1-2.46-.14-.75-.28-1.52-.35-2.37-.07-.76-.89-1.54-.9-2.38-.01-.77-.23-1.62-.19-2.46,.03-.77,.06-1.62,.14-2.45,.07-.77,.15-1.61,.26-2.44,.1-.77,1.31-1.42,1.45-2.24,.13-.77-.51-1.96-.34-2.78Z" style="fill:#d28728;"/><path d="M65.05,174.55c-.5-.85-1.36-.97-.59-1.48,.3-.2,.8,.07,1.85,.19,.52,.06,1.2-.2,1.98-.01,.56,.13,1.13,.5,1.84,.71,.58,.17,1.15,.52,1.83,.74,.72,.24,1.62-.33,2.3-.2,.75,.15,1.38,.93,2.07,.97,.75,.04,1.47-.53,2.17-.59,.75-.07,1.57,.4,2.25,.24,.73-.17,1.21-1.14,1.87-1.37,.71-.25,1.54-.08,2.19-.35,.71-.29,1.16-1.12,1.8-1.37,.73-.29,1.53-.43,2.18-.56,.76-.15,1.61,.08,2.28,.31,.6,.21,.96,.9,1.51,1.57,.43,.52,1,.99,1.46,1.59,.43,.55,.95,1.05,1.39,1.65s.9,1.12,1.31,1.72,.84,1.18,1.22,1.79,.35,1.47,.7,2.1,.53,1.34,.83,1.97,1.24,1.05,1.48,1.71c.26,.7,.56,1.41,.71,2.08,.16,.74,.3,1.53,.29,2.21,0,.75-.38,1.49-.64,2.14s-.76,1.25-1.44,1.65c-.55,.33-1.33,.34-2.1,.54-.64,.17-1.3,.63-2.06,.72-.68,.09-1.42,.04-2.17,.08-.7,.04-1.42,.34-2.15,.36s-1.44-.41-2.17-.41-1.44-.21-2.16-.21-1.45,.06-2.16,.06-1.47-.23-2.17-.22c-.75,0-1.47,.31-2.16,.34-.76,.04-1.46,.35-2.12,.44-.79,.11-1.67-.33-2.27-.13s-1.17,.83-1.97,.94c-.67,.1-1.41,.08-2.18,.11-.7,.03-1.42-.4-2.17-.42s-1.48,.75-2.21,.7c-.72-.06-1.46-.15-2.18-.25s-1.46-.26-2.16-.4-1.52-.07-2.21-.25c-.74-.19-1.32-.84-1.97-1.08-.74-.27-1.63-.17-2.21-.5-.73-.4-1.02-1.31-1.43-1.79-.52-.61-1.01-1.29-.84-2.02,.15-.64,.23-1.24,.07-1.94-.14-.62-.22-1.31-.54-1.96-.28-.59-.36-1.34-.73-1.95-.35-.57-1.36-.73-1.75-1.3s-.21-1.5-.59-2.07-1.33-.79-1.67-1.36c-.37-.61-.68-1.27-.94-1.86-.3-.66,.02-1.5-.08-2.12-.11-.7,.02-1.23,.26-1.86,.26-.69,.61-1.06,1.08-1.51s.84-.93,1.52-1.15c.6-.2,1.22-.5,1.94-.53,.64-.03,1.37-.37,2.09-.27,.64,.09,1.15,1.01,1.84,1.19,.63,.16,1.32,.15,1.98,.39,.62,.22,1.5-.12,2.14,.16s1.1,.87,1.72,1.18,1.43,.56,2.03,.91Z" style="fill:#d28728;"/><path d="M53.24,243.53c15.36-.54,25.68-.46,34.49,0,8.81,.46,16.81,2.34,16.81-7.6s-37.31,2.94-41.66,0c-4.34-2.94-21.58-6.15-21.96-1.54s-2.97,9.68,12.32,9.14Z" style="fill:#d28728;"/><path d="M74.03,162.02c.54-.05,1.13,.4,1.7,.37,.54-.03,1.08-.35,1.65-.37s1.1,0,1.67,0,1.11-.35,1.67-.34,1.09,.69,1.66,.71,1.1,0,1.67,.02,1.13-.41,1.69-.38,1.09,.51,1.65,.54c.47,.02,1.05-.52,1.67-.48,.51,.03,1.05,.12,1.63,.15,.52,.03,1.05,.38,1.62,.41,.53,.03,1.06,.26,1.62,.3s1.09-.06,1.65-.02,1.12-.3,1.66-.26,1.07,.46,1.61,.5,1.11-.02,1.65,.03,1.12-.06,1.65,0c.57,.06,1.12,.11,1.64,.17,.58,.07,1.19-.26,1.69-.19,.61,.08,1.16,.33,1.62,.42,.83,.16,1.48,.49,1.64,.67,.25,.28,.07,1.03-.4,1.72-.25,.38-.56,.91-1.07,1.33-.38,.32-.92,.56-1.46,.87-.45,.26-.98,.44-1.54,.67-.48,.2-.96,.55-1.53,.72-.51,.15-1.12,.03-1.7,.15-.52,.11-.98,.78-1.56,.87-.53,.08-1.12,0-1.71,.06-.54,.05-1.11,.1-1.69,.13-.54,.02-1.11-.27-1.7-.27-.54,0-1.11,.01-1.69-.01s-1.12-.13-1.68-.14-1.13-.35-1.69-.35-1.12,.76-1.68,.77-1.14-.54-1.7-.52-1.11,.46-1.67,.49-1.14-.15-1.69-.11-1.15-.13-1.7-.09-1.14,.04-1.69,.09c-.58,.05-1.13,.2-1.68,.25-.58,.06-1.08,.68-1.62,.74-.58,.07-1.15,.04-1.68,.1-.59,.07-1.16,.02-1.69,.09-.61,.07-1.2-.17-1.7-.11-.65,.07-1.2,.25-1.66,.28-1.09,.07-1.3,.21-1.11-.09,.15-.24-.51-1.08-1.26-1.58-.41-.27-1.13-.22-1.63-.55-.46-.3-1.01-.53-1.45-.86-.47-.36-.6-1.07-.93-1.45-.44-.48-.67-.84-.68-1.32,0-.46,.22-.69,.82-1.13,.36-.26,.76-.55,1.39-.79,.45-.17,.9-.53,1.51-.69,.49-.13,1.07-.02,1.67-.14,.5-.1,.95-.75,1.54-.85,.52-.08,1.12,.19,1.71,.11,.52-.07,1.03-.54,1.61-.6,.53-.06,1.1,.05,1.68,0Z" style="fill:#473513;"/><path d="M150.48,156.98c.52-.31,.88-.94,1.41-1.18s1.47,.48,2.01,.29,1.01-.64,1.57-.77,1.07-.73,1.64-.81,1.19-.28,1.77-.31,1.19,.77,1.77,.78,1.14,.23,1.72,.28,1.3-.88,1.87-.79,1.19,.21,1.75,.31,1.02,.95,1.58,1.08c.59,.13,1.26-.18,1.82-.05,.59,.14,1.16,.27,1.71,.38,.61,.13,1.14,.42,1.68,.5,.63,.1,1.21,.24,1.73,.24s1.02-.59,1.63-.67c.53-.06,1.18,.55,1.77,.45,.54-.09,.98-.79,1.55-.91s1.31,.71,1.87,.58,.87-1.22,1.43-1.35,1.32,.61,1.87,.48,1.03-.63,1.57-.76c.57-.14,1.16-.13,1.69-.25,.58-.13,1.11-.39,1.63-.49,.61-.12,1.13-.62,1.63-.67,.71-.08,1.38-.04,1.78,.06,.43,.11,.91,.65,1.57,.77,.51,.1,1.09,.12,1.69,.23,.54,.1,1.04,.53,1.61,.65s1.13,.17,1.67,.29c.58,.14,1.24-.15,1.75,0,.6,.18,.95,.82,1.4,1.03,.68,.32,1.74,.2,1.84,.6,.12,.45,0,1.14,.29,1.8,.23,.53,.62,1.07,.8,1.66s.25,1.25,.26,1.84,.03,1.33-.28,1.89c-.26,.47-.76,.99-1.35,1.38-.46,.31-1.15,.3-1.73,.53-.52,.2-.94,.9-1.53,1.05-.54,.14-1.24-.2-1.84-.09-.56,.1-1.09,.53-1.69,.61s-1.26-.68-1.85-.61-1.11,.54-1.7,.6-1.17,.05-1.76,.12-1.13,.49-1.71,.56-1.19-.03-1.77,.05-1.27-.39-1.84-.29c-.53,.09-.99,.96-1.6,1.02-.55,.05-1.15-.25-1.76-.23-.56,.02-1.14,.24-1.74,.24-.56,0-1.16,.27-1.75,.25s-1.12-.56-1.71-.59-1.14-.16-1.73-.21-1.22,.59-1.8,.53-1.03-1.12-1.62-1.19-1.25,.65-1.83,.57-1.11-.41-1.69-.5-1.07-.63-1.64-.73-1.13-.25-1.7-.35-1.21,.15-1.78,.04-1.18-.04-1.75-.17-.99-.89-1.55-1.03-1.36,.65-1.92,.5-.98-.86-1.54-1.01c-.6-.17-1.24-.13-1.77-.3-.6-.2-1.23-.25-1.74-.45-.6-.24-.8-1.21-1.29-1.45-.59-.29-1.54,.19-1.98-.1-.57-.38-.49-1.35-.83-1.73-.48-.53-1.07-.74-1.16-1.24-.11-.61,.15-1.09,.5-1.6,.3-.45,.57-1.05,1.12-1.37Z" style="fill:#473513;"/><path d="M78.76,216.93c2.77,.06,5.34,2.08,8.56,2.57,3.21,.49,10.1-1.29,10.1-1.29l1.17-5.72s-10.48,1-11.26-1.75c-.79-2.75-10.91-8.85-10.91-8.85,0,0-3.76,12.88-3.82,13.49s6.17,1.54,6.17,1.54Z" style="fill:#d28728;"/><path d="M64.76,190.25c.92,0,1.58-.28,2.28-.11,.88,.21,1.44,.9,2.06,1.32,.7,.47,1.38,.87,1.86,1.5s1.15,1.22,1.56,1.91,.64,1.54,1.12,2.15,1.14,1.04,1.9,1.4c.64,.31,1.33,.81,2.28,.8s1.72,.23,2.46,.49c.86,.3,1.79,.36,2.43,.91s1.15,1.31,1.67,2.01,.89,1.49,1.36,2.21,1.1,1.34,1.66,1.98,1.13,1.28,1.89,1.71c.81,.46,1.57,.94,2.19,1.44,.8,.64,1.36,1.37,1.71,1.97,.52,.91,.56,1.88-.39,2.39-.54,.29-1.46,.41-2.63,.47-.79,.04-1.66,.03-2.57,.02-.83-.02-1.71,.16-2.58,.11s-1.73-.12-2.57-.2c-.89-.08-1.74-.32-2.54-.42-.94-.11-1.82-.17-2.56-.29-1.43-.22-2.47-.47-2.58-.56-.13-.11-1.07,.09-2.43,.5-.79,.24-1.66,.56-2.56,.69s-1.78-.14-2.57-.34c-.87-.22-1.76-.4-2.15-1.31-.22-.51-.07-1.36-.2-2.31-.1-.68-.15-1.44-.21-2.27-.05-.72-.26-1.48-.29-2.28-.03-.74-.1-1.51-.11-2.29s.22-1.53,.22-2.3-.3-1.55-.29-2.3,.17-1.56,.19-2.3c.02-.81,.27-1.58,.29-2.29,.03-.86-.21-1.64-.18-2.3,.06-1.42-.58-1.32,.27-2.09Z" style="fill:#473513;"/><path d="M101.42,218.69c.38-.99,.16-.89,.97-1.82,.4-.46,.96-.84,1.66-1.22,.55-.3,1.17-.49,1.94-.64,.62-.12,1.29-.43,2.07-.39,.83,.05,1.53-.1,2.19-.34,.72-.27,1.52-.43,2.09-.92s.79-1.33,1.27-1.92,1.14-1.04,1.6-1.62c.49-.62,1.02-1.13,1.56-1.6,.58-.52,1.11-1.04,1.84-1.23,1.19-.3,2.03-.2,2.41,.33s.5,1.46,.5,2.48c0,.74-.18,1.57-.22,2.45-.03,.79-.22,1.63-.16,2.45s.14,1.67-.11,2.4-.9,1.31-1.42,1.93-1.01,1.22-1.69,1.67-1.35,.88-2.11,1.17-1.54,.61-2.32,.73c-.65,.1-1.51-.13-2.43-.02-.74,.09-1.53,.39-2.37,.48-.79,.09-1.6,.13-2.4,.22s-1.64,.06-2.41,.14c-.88,.09-1.71,.06-2.41,.13-1.44,.14-2.33,1.61-2.27,.41,.07-1.43,.27-1.41,.87-2.71s.83-1.21,1.35-2.54Z" style="fill:#473513;"/><path d="M143.65,218.75c-.14-.91-.47-2.06-.04-2.63s1.42-1.13,2.26-1.42c.65-.23,1.69,.85,2.54,.75,.71-.08,1.42-.37,2.24-.38,.74,0,1.51-.33,2.31-.28,.75,.05,1.53-.03,2.32,.05s1.55,.05,2.32,.15,1.42,.94,2.19,1.07,1.7-.69,2.45-.55,1.44,.8,2.19,.95,1.66-.29,2.4-.13c.79,.16,1.34,1.3,2.06,1.45,.8,.17,1.76-.54,2.46-.39,.84,.19,1.56,.55,2.22,.69,1.06,.22,1.76,1.13,2.19,1.16,.51,.03,1.26,.24,2.29,.4,.69,.11,1.64-.76,2.49-.63,.74,.12,1.53,.17,2.35,.3,.76,.11,1.43,1,2.23,1.11s1.61-.12,2.4-.03,1.62-.28,2.4-.21,1.56,.43,2.34,.47c.82,.04,1.61,.47,2.37,.46,.85,0,1.68,.1,2.41,.02,.89-.1,1.83-.12,2.47-.37,.89-.34,.86-1.49,1.07-2.17s1.42-.95,2.06-1.59c.53-.53,1.18-.89,1.9-1.37,.65-.44,.89-1.62,1.63-2.01s1.58-.51,2.32-.84,1.67-.31,2.39-.59c.84-.32,1.73-.24,2.4-.47,1.39-.47,1.09-2.03,1.96-1.18s-.14,.81-.45,2.31c-.15,.73-.68,1.5-.88,2.41-.17,.79,.28,1.76,.09,2.61s-.11,1.72-.3,2.55-1.44,1.42-1.64,2.21c-.23,.89-.47,1.7-.69,2.42-.34,1.08-.19,2.02-.47,2.45-.3,.46-.94,.3-2.05,.33-.68,.02-1.4-.28-2.29-.36-.73-.07-1.62,.82-2.45,.71-.76-.1-1.59,.08-2.39-.03s-1.51-.63-2.3-.72-1.56-.41-2.34-.48c-.82-.07-1.61-.69-2.36-.71-.85-.02-1.59,1.35-2.31,1.43-.9,.1-1.73-.37-2.33-.06-.63,.33-1.51,.07-2.38,.24-.73,.14-1.47,.16-2.32,.22-.76,.05-1.53,.78-2.36,.77-.78,0-1.6,.25-2.41,.21s-1.54-1.08-2.34-1.13-1.61-.12-2.39-.17-1.68,.98-2.45,.94c-.84-.04-1.62-.33-2.37-.33-.89,0-1.75-.59-2.44-.5-.62,.08-1.36,.36-2.31,.35-.72,0-1.48-.36-2.33-.42-.75-.06-1.63,.82-2.45,.72-.76-.1-1.42-1.08-2.21-1.21s-1.51-.38-2.29-.55-1.77,.56-2.53,.35-1.41-.89-2.14-1.14-1.33-.95-2.04-1.26c-.75-.33-1.93,.21-2.58-.17-.72-.42-.81-1.68-1.38-2.17-.64-.54-1.66-.67-2.07-1.3-.44-.68-.56-1.54-.68-2.32Z" style="fill:#473513;"/><path d="M97.52,151.3c-.22-1.05,.07-1.89,.6-2.33,.49-.41,1.35-.54,2.33-.55,.7-.01,1.47,.27,2.34,.4,.73,.11,1.58-.09,2.4,.09,.75,.16,1.53,.34,2.32,.54s1.46,.65,2.24,.85,1.66-.07,2.42,.12,1.54,.44,2.29,.59c.82,.17,1.49,.96,2.22,1.06,.87,.12,1.73,.31,2.43,.28,.95-.03,1.42-1.05,1.94-1.45s1.46-.54,2.25-.93c.65-.33,1.26-.94,2.03-1.25,.69-.28,1.64-.01,2.41-.27,.72-.25,1.53-.28,2.29-.51s1.39-.8,2.15-1.01,1.46-.65,2.22-.84,1.52-.48,2.27-.65c.79-.18,1.69,.24,2.42,.1,.82-.16,1.59-.31,2.3-.43,.89-.15,1.65-.4,2.29-.47,1.15-.13,1.53,.59,.89,1.6-.32,.51-1.11,.97-1.76,1.66-.49,.52-1.13,.99-1.76,1.57-.55,.5-1.26,.88-1.88,1.41-.59,.49-.96,1.29-1.59,1.77s-1.52,.57-2.17,1.03-1.08,1.22-1.73,1.64-1.32,.92-1.98,1.29c-.72,.41-1.57,.49-2.24,.79-.79,.36-1.51,.63-2.18,.79s-1.53,.25-2.44,.49c-.74,.2-1.45,.77-2.31,.98-.77,.19-1.6,.31-2.44,.48-.79,.17-1.67-.06-2.5,.08-.81,.14-1.61,.3-2.44,.39s-1.62,.44-2.44,.48c-.83,.04-1.66,.06-2.48,.03-.84-.04-1.6-.5-2.41-.64s-1.81,.39-2.59,.14-1.29-1.2-2-1.61-1.29-.89-1.9-1.46-1.4-.9-1.87-1.62c-.43-.66-.5-1.53-.81-2.34-.28-.73-.93-1.39-1.11-2.26Z" style="fill:#473513;"/></g><path d="M112.55,185.64c-.63-.47-1.57-.9-1.74-1.82-.13-.73,.16-1.65,.3-2.56,.12-.76,.64-1.48,.94-2.31,.27-.75,.26-1.66,.66-2.42,.38-.71,1-1.32,1.5-2.01s1.03-1.27,1.6-1.89,.88-1.49,1.53-2.03,1.63-.58,2.34-1.02,1.13-1.47,1.9-1.79,1.7-.26,2.53-.46,1.71,.23,2.54,.14,1.61-.31,2.45-.32,1.67-.3,2.5-.24c.83,.06,1.61,.55,2.44,.65s1.77-.6,2.59-.47,1.57,.77,2.39,.9,1.66,.24,2.47,.37,1.64,.43,2.45,.52c.85,.1,1.69,.27,2.49,.3,.86,.04,1.74,.24,2.54,.17,.86-.07,1.6-.77,2.37-1,.8-.24,1.82-.09,2.52-.55s1.23-.98,1.95-1.25,1.46-.73,2.23-.83,1.63-.23,2.4-.18c.81,.06,1.59,.39,2.33,.6,.8,.23,1.54,.56,2.18,.95,.74,.44,1.73,.69,2.16,1.27,.5,.67-.03,1.69-.08,2.47-.04,.7-.14,1.28-.72,2.01-.47,.59-.91,1.26-1.65,1.77-.63,.44-1.52,.49-2.3,.87-.71,.35-1.26,1.11-2.06,1.41-.75,.29-1.68,.12-2.48,.37-.78,.25-1.44,.9-2.24,1.12s-1.58,.55-2.37,.74-1.59,.58-2.37,.75c-.84,.18-1.8-.34-2.56-.19-.88,.18-1.69,.39-2.41,.53-.99,.2-1.86,.24-2.45,.39-.74,.19-1.38,.28-2.22,.03-.72-.22-1.37-.69-2.13-1.07-.72-.35-1.48-.66-2.21-1.02s-1.72-.18-2.45-.41c-.83-.26-1.5-.26-2.25-.12s-1.32,.3-1.93,1.01c-.47,.54-1.38,.83-1.94,1.49-.49,.58-.81,1.37-1.37,1.98s-1.31,.91-1.91,1.46-1.02,1.25-1.66,1.72-1.18,1.21-1.88,1.55-1.65,.13-2.43,.28-1.51,.27-2.32,.16c-.74-.1-1.31-.66-2.09-1.02-.67-.3-1.39-.48-2.09-1Z" style="fill:#473513;"/><path d="M147.85,192.63c.53,.02,1.06-.26,1.57-.25s1.06-.47,1.57-.46,1.05-.53,1.56-.52,1.04,.52,1.55,.52,1.05,.92,1.56,.92,1.05-.41,1.56-.42c.53,0,1.05-.19,1.55-.2,.53,0,1.04-.44,1.54-.45,.53-.01,1.07,.75,1.57,.74,.54-.01,1.03-.85,1.53-.87,.54-.02,1.05-.08,1.55-.1,.54-.02,1.08,.65,1.58,.63,.54-.02,1.02-.89,1.52-.9,.54-.02,1.08,.82,1.58,.81,.54-.01,1.05-.19,1.55-.2,.54,0,1.05,.42,1.54,.43,.54,.01,1.06-.4,1.55-.37,.54,.04,1.17-.72,1.65-.64,.38,.06,.79,1.36,1.43,1.37,.46,0,.97-1.18,1.54-1.19,.48-.01,1.02,.82,1.57,.79,.49-.02,1.01-.08,1.54-.11,.5-.03,.97-.88,1.5-.91,.5-.03,1.09,1.12,1.62,1.09s.97-.99,1.49-1.02,1.03,0,1.55-.02,1.08,.86,1.6,.83,1.01-.5,1.52-.52,.99-.9,1.51-.93,1.08,.84,1.59,.82,1.01-1.07,1.52-1.08,1.07,.8,1.58,.79,1.05-.23,1.55-.23c.53,0,1.06-.18,1.56-.17,.54,.02,1.07-.04,1.57,0,.55,.04,1.02,.67,1.5,.73,.56,.07,1.19-.45,1.65-.35,.59,.13,1.09,.54,1.47,.73,.58,.3,.18,.9,.17,1.37,0,.6,.52,1.12,.55,1.57,.04,.62-.46,1.1-.46,1.55,0,.54,.05,.71-.22,1.2-.2,.37,.08,1.1-.37,1.56-.31,.31-.6,.76-1.06,1.15-.35,.29-.88,.47-1.34,.83-.37,.29-.81,.57-1.27,.91-.4,.3-1.18,.03-1.62,.3s-.82,.51-1.28,.76-.36,1.57-.83,1.78-1.06,.17-1.54,.35-1.11-.06-1.6,.09-1.08-.13-1.58,0-.69,1.53-1.19,1.64-1.25-1.1-1.76-1.02-1,.06-1.5,.12-.91,1.17-1.42,1.21-1.05-.44-1.57-.42-1.02-.32-1.53-.32-1.02,.15-1.52,.12-1.1,.81-1.61,.76-.9-1.14-1.4-1.21-1.05,.12-1.55,.02-.92-.5-1.41-.63-1.2,.59-1.68,.46-.84-.76-1.32-.89-.89-.57-1.37-.71-.87-.64-1.35-.77-1.24,.68-1.72,.54-1.05,.02-1.53-.12-.79-.9-1.28-1.03-1.08,.14-1.56,.02-.78-1.01-1.27-1.13-.95-.41-1.43-.51-1.11,.36-1.6,.26-.98-.23-1.47-.31-1.03,.1-1.53,.03-1.03,.28-1.53,.22-.88-1.32-1.38-1.36-1.04,.43-1.54,.41c-.47-.02-.98,.13-1.5,.12-.48,0-.98,.12-1.5,.12-.49,0-.99,.18-1.5,.18s-.99,.13-1.5,.12-.99-.67-1.5-.68-1,.13-1.5,.12-.99-.57-1.49-.58-1.02,.63-1.52,.61-1.03,.57-1.53,.55-.94-1.43-1.43-1.46-1.08,1-1.57,.96c-.51-.04-.97-.58-1.45-.64-.52-.06-.94-.56-1.41-.64-.52-.09-.98-.14-1.44-.25-.53-.13-1.37,.86-1.79,.7-.54-.21-.66-1.14-.98-1.42-.42-.37-.32-.66-.27-1.17s.48-.72,.71-1.17,.06-.99,.45-1.36c.35-.32,.39-1.2,.88-1.46,.42-.22,1.03-.22,1.55-.4,.45-.16,.98-.25,1.51-.37,.47-.11,.95-.41,1.49-.5,.48-.08,1.08,.48,1.61,.42,.49-.06,.98-.13,1.52-.17,.49-.04,.98-.57,1.51-.59,.5-.02,1.02,.34,1.56,.33,.5-.01,1.01-.74,1.54-.74s1.02,.18,1.55,.19,.99,1.06,1.52,1.08Z" style="fill:#473513;"/></g><g><path d="M84.17,31.37c-.24,1.23,.41,1.04,.09,2.58-.14,.7-.32,1.53-.48,2.47-.13,.76-.92,1.5-1.05,2.38-.12,.79,.17,1.69,.07,2.55-.09,.81-.57,1.62-.64,2.48s.82,1.72,.78,2.57-.02,1.65-.02,2.5-.99,1.7-.95,2.54,.35,1.68,.43,2.52,.28,1.68,.42,2.5,.38,1.66,.58,2.46,.61,1.58,.9,2.36,.96,1.39,1.34,2.12,.8,1.41,1.3,2.07,.41,1.9,1.03,2.46,1.42,1.01,2.15,1.45c.69,.41,1.38,.89,2.11,1.28s1.75,.14,2.49,.49,1.45,.71,2.21,1.03,1.58,.39,2.35,.69,1.47,.69,2.24,.96,1.59,.36,2.36,.6,1.3,1.34,2.08,1.57,1.81-.42,2.59-.22,1.56,.46,2.35,.64,1.51,.79,2.3,.94,1.57,.59,2.36,.72,1.74-.49,2.53-.39c.83,.11,1.61,.42,2.39,.49,.84,.08,1.62,.75,2.4,.79,.86,.04,1.7,.16,2.47,.15,.89-.01,1.71-.47,2.44-.55,.93-.1,1.72-.36,2.37-.57,.69-.23,.94-.97,1.33-1.94,.27-.67,.64-1.39,.77-2.35,.1-.76,.79-1.58,.8-2.5,.01-.79-.58-1.64-.63-2.52-.05-.8-.41-1.61-.52-2.48-.1-.81,.12-1.68-.02-2.54s-.41-1.62-.58-2.46-.69-1.55-.89-2.38-.31-1.63-.55-2.45,.04-1.76-.22-2.57-.75-1.52-1.04-2.31-.36-1.67-.68-2.45-.45-1.66-.8-2.42-1.59-1.1-1.98-1.84-.43-1.67-.85-2.4-.67-1.57-1.13-2.27-1.27-1.17-1.77-1.84-.53-1.76-1.08-2.38-1.79-.62-2.4-1.19-.78-1.69-1.44-2.18-1.57-.7-2.3-1.11-1.6-.46-2.3-.83-1.12-1.41-1.84-1.74-1.7-.2-2.43-.51-1.41-.88-2.15-1.15c-.78-.28-1.65-.2-2.41-.43-.8-.24-1.59-.34-2.35-.52-.81-.19-1.47-.98-2.24-1.1-.83-.14-1.7,.46-2.47,.4-.84-.06-1.6-.22-2.37-.18-.85,.04-1.73-.52-2.48-.37-.84,.17-1.51,.8-2.21,1.11-.78,.34-1.32,.89-1.9,1.4-.62,.54-1.01,1.11-1.38,1.82s-1.37,1.21-1.48,2.06Z" style="fill:#d28728;"/><path d="M85.7,29.44c1.74,.59,1.61-.17,3.68,.64,.99,.39,1.65,2.06,2.9,2.6,1.06,.46,2.55,.15,3.7,.71,1.08,.52,1.85,1.72,2.93,2.32s2.26,.98,3.27,1.64c1.07,.69,2.33,1.06,3.23,1.8,1.02,.84,2.12,1.59,2.81,2.48,.83,1.07,.52,2.52,.67,3.63,.14,.99,1.23,2.3,.99,3.79-.18,1.12-1.68,2.09-2.05,3.41-.32,1.14-.62,2.33-1.06,3.58-.4,1.14-.64,2.38-1.13,3.58-.46,1.14-1.18,2.18-1.72,3.35s-.47,2.54-1.04,3.68-.72,2.48-1.33,3.58-2.05,1.74-2.7,2.8-1.04,2.34-1.74,3.37-.97,2.48-1.72,3.45c-.8,1.03-2.64,1.14-3.45,2.03-.89,.98-1.26,2.36-2.16,3.14-1.03,.89-2.15,1.47-3.16,2.03-.94,.52-2.03,.9-3.34,1.16-1.09,.22-2.23,1.13-3.52,1.18-1.14,.05-2.35-.85-3.61-.93-1.15-.07-2.33-.19-3.56-.36-1.16-.16-2.26-.7-3.46-.95s-2.52,.34-3.7,.03-2.26-.85-3.41-1.23-2.03-1.42-3.15-1.86c-1.12-.44-2.43-.4-3.52-.89s-1.94-1.47-2.99-2.04-2.16-1.03-3.16-1.67-2.11-1.18-3.04-1.9c-.98-.76-1.96-1.43-2.8-2.25-.89-.87-1.82-1.65-2.52-2.58-.75-.99-.7-2.35-1.2-3.41s-1.81-1.91-2.02-3.08,.59-2.36,.74-3.58-.86-2.54-.69-3.68c.19-1.2,1.14-2.25,1.36-3.38,.23-1.2-.3-2.55-.03-3.65,.3-1.19,.93-2.28,1.28-3.36,.38-1.17,1.65-1.95,2.1-2.99,.49-1.14,.93-2.17,1.5-3.14,.62-1.06,.47-2.64,1.2-3.5,.79-.93,2.48-.83,3.4-1.52s1.79-1.29,2.89-1.74,1.87-1.98,3.09-2.17c1.11-.17,2.4,.25,3.65,.3,1.24,.04,2.37-.22,3.5-.32,1.23-.11,2.37-.13,3.49-.36,1.2-.25,2.45-.12,3.55-.46,1.17-.36,2.42-.4,3.5-.8,1.15-.42,2.16-1.09,3.24-1.47,1.16-.4,2.1-1.41,3.22-1.66s2.43-.49,3.61-.46,2.28,.69,3.47,1.09Z" style="fill:#d28728;"/><path d="M83.01,88.69c.2-1.08-.02-.86,.56-2.09,.27-.57,.43-1.33,.81-2.05,.32-.6,.77-1.2,1.17-1.87,.36-.6,1-1.07,1.42-1.69,.4-.59,.95-1.09,1.4-1.68s.79-1.22,1.28-1.77,.76-1.31,1.3-1.8,1.14-.96,1.73-1.39,1.19-.93,1.83-1.26,1.52-.16,2.22-.37,1.33-.72,2.07-.78c.78-.07,1.54,.33,2.27,.34,.78,.01,1.55-.28,2.27-.18,.77,.1,1.48,.41,2.19,.59,.75,.2,1.54,.24,2.21,.53,.72,.31,1.49,.56,2.1,.96,.65,.43,.98,1.24,1.49,1.77,.54,.55,1.06,1.08,1.44,1.71s.71,1.32,.91,2.05,.05,1.46,.05,2.23c0,.73,.29,1.49,.11,2.26s-.55,1.42-.75,2.13-.17,1.53-.42,2.23-.48,1.45-.79,2.12-.83,1.28-1.22,1.91-.74,1.34-1.23,1.9-1.26,.84-1.85,1.31-1.19,.8-1.87,1.16c-.64,.33-1.13,1.12-1.88,1.36-.68,.21-1.52,0-2.3,.12-.7,.11-1.41,.32-2.15,.45s-1.49-.03-2.21,.09-1.38,.69-2.1,.79-1.49,.09-2.21,.13-1.51,.2-2.22,.15c-.75-.06-1.39-.66-2.07-.86s-1.6-.04-2.21-.45-.79-1.25-1.26-1.87c-.41-.54-.78-1.1-1.09-1.84-.26-.62-.52-1.27-.69-2.05-.15-.66-.33-1.36-.41-2.14-.07-.68,.06-1.36,.05-2.14Z" style="fill:#d28728;"/><path d="M66.61,65.12c.73-.46,1.2-1.3,1.88-1.59,.79-.34,1.7-.23,2.43-.36,.83-.15,1.63-.2,2.39-.13,.81,.08,1.45,.63,2.19,.91s1.74,.05,2.42,.48,1.02,1.3,1.64,1.82,1.27,.95,1.84,1.51,1.09,1.18,1.63,1.74,1.42,.88,1.96,1.42c.6,.6,.88,1.46,1.46,1.93,.68,.55,1.51,.66,2.18,.93s1.38,.28,2.16,.42c.72,.13,1.38,.87,2.16,.93s1.51,.23,2.28,.25c.76,.01,1.53-.36,2.28-.35s1.54,.02,2.27,.04c.8,.03,1.57-.04,2.27,.05,.83,.11,1.52,.46,2.14,.72,.77,.32,1.05,.83,1.35,1.51,.32,.73,.34,1.34,.26,2.15-.07,.77-.23,1.41-.6,2.14-.35,.69-.72,1.28-1.3,1.85s-1.02,1.18-1.76,1.52c-.7,.32-1.42,.89-2.25,.95-.75,.06-1.58-.22-2.42-.42-.91-.22-1.65-.1-2.27-.14-.94-.06-1.58-.2-2.25-.05s-1.31,.66-2.19,.81c-.62,.11-1.42-.37-2.35-.37-.66,0-1.39-.05-2.27-.14-.68-.07-1.45-.05-2.29-.19-.72-.12-1.44-.47-2.26-.71-.73-.21-1.65,.03-2.43-.26-.72-.27-1.2-1.2-1.94-1.54s-1.78,.04-2.49-.34-1.33-.92-2.01-1.33-1.47-.7-2.12-1.15-.94-1.45-1.55-1.93c-.64-.51-1.23-1.02-1.79-1.55-.6-.57-1.45-.86-1.93-1.45-.53-.65-.73-1.48-1.09-2.14-.4-.75-1.1-1.37-1.22-2.12-.13-.8,.43-1.55,.69-2.32,.23-.7,.58-1.27,1.19-1.92,.48-.52,.97-1.09,1.72-1.57Z" style="fill:#473513;"/><path d="M87.83,26.17c.3,.05,.9,.01,1.15,.64,.14,.36,.13,.88,.26,1.4,.1,.41,.15,.88,.24,1.37,.07,.43,.3,.87,.36,1.36,.06,.44-.44,.96-.4,1.44,.04,.45,.52,.87,.56,1.34s-.09,.93-.06,1.4,.3,.91,.31,1.38-.46,.93-.46,1.4,.31,.92,.31,1.39,.21,.93,.2,1.4-.11,.93-.12,1.39-.15,.93-.17,1.39-.27,.92-.31,1.37-.28,.91-.33,1.35c-.06,.48,.12,.96,.05,1.4-.08,.48,.23,1.02,.13,1.45-.11,.49-.68,.82-.81,1.22-.17,.5-.02,1.09-.23,1.43-.29,.49-.84,.62-1.21,.73-.43,.13-.88,.13-1.34,.21s-.85,.62-1.31,.65-.91-.56-1.38-.57-.9,.06-1.36,.01-.88-.18-1.34-.25-.87-.22-1.32-.32-.93,0-1.38-.11-.84-.36-1.28-.49-.91-.13-1.35-.28-.89-.21-1.33-.36-.76-.58-1.19-.74-.97,.02-1.4,.03-.85,.05-1.32,.1c-.41,.04-.83-.14-1.3-.15-.4,0-.84,.23-1.31,.13-.39-.08-.89,0-1.34-.18-.37-.15-.54-.79-.96-1.02-.35-.2-1.06,.1-1.45-.17-.34-.23-.64-.6-1-.89-.32-.26-.4-.85-.75-1.16s-.79-.49-1.11-.82-.62-.67-.91-1.02-.47-.79-.73-1.17-.9-.53-1.13-.92-.48-.82-.68-1.23-.22-.94-.37-1.36c-.16-.45-.09-.95-.18-1.38-.1-.47-.21-.91-.23-1.34-.03-.48,.03-.93,.1-1.36,.08-.47,.36-.81,.58-1.2s.35-.81,.71-1.11c.3-.25,.77-.39,1.2-.7,.34-.25,.59-.7,1-.98,.36-.24,.78-.46,1.19-.72,.38-.24,.64-.69,1.05-.94,.39-.23,.85-.37,1.26-.6s.86-.34,1.28-.56,.71-.64,1.12-.86,1.02-.01,1.44-.22,.63-.84,1.06-1.03,1.06,.11,1.49-.06,.72-.7,1.15-.86,.82-.52,1.25-.66,1,.06,1.44-.06,.86-.45,1.3-.54c.47-.1,.92-.33,1.36-.39,.48-.06,.98,.44,1.42,.43,.49,0,.97-.34,1.42-.34,.5,0,.97,.15,1.42,.16,.5,.02,.96,.33,1.41,.36,.51,.03,1.01-.33,1.45-.29,.52,.05,1.01-.04,1.43,.02,.55,.07,.97,.46,1.36,.53,.92,.16,.64,.33,1.33,.49Z" style="fill:#473513;"/><path d="M88.44,24.16c1.19,.21,.67,.25,2.41,.35,.64,.04,1.46-.06,2.44-.08,.71-.02,1.53,.17,2.44,.1,.73-.06,1.55-.15,2.42-.26s1.62-.5,2.34-.54c.9-.05,1.69-.22,2.39-.2,.97,.03,1.77,.08,2.4,.17,1.63,.23,2.11,.64,2.15,.17,.03-.44,.26-1.13,.67-1.93,.25-.5,.33-1.2,1.29-1.49,.55-.17,1.28,.02,2.18-.01,.6-.02,1.41-.05,2.18,.62,.51,.45,.94,1.16,1.51,1.85,.46,.56,.76,1.32,1.24,2.02,.43,.62,.66,1.39,1.09,2.09,.4,.65,1.32,1.02,1.72,1.72,.38,.67,.46,1.53,.84,2.24s.76,1.37,1.12,2.08,.85,1.34,1.19,2.06,1,1.28,1.33,2,.17,1.66,.48,2.38,.34,1.58,.63,2.3,.57,1.49,.84,2.21c.29,.77,1.38,1.22,1.62,1.94,.27,.79,.26,1.64,.47,2.35,.24,.83,.2,1.67,.34,2.36,.19,.93,.04,1.7,.03,2.32-.01,1.2,.08,1.99-.45,2.24-.56,.27-1.45,.02-2.38-.42-.63-.3-1.48-.52-2.21-1.01-.63-.43-1.34-.86-2-1.35s-1.04-1.3-1.66-1.78c-.67-.51-1.51-.73-2.12-1.16-.76-.54-1.42-.91-1.99-1.17-.83-.37-1.07-1.38-1.61-1.89s-1.26-.86-1.93-1.41c-.53-.44-1.33-.5-2.18-.89-.62-.29-1.07-1.31-1.96-1.55-.68-.18-1.48-.4-2.36-.54-.71-.12-1.55,.02-2.41-.07-.73-.07-1.54,.09-2.4,.04-.81-.04-1.53-.55-2.2-.55-.83,0-1.51,.91-2.15,.98-.86,.09-1.72-.59-2.31-.42-.86,.25-1.43,.86-1.93,1.21-.65,.45-1.17,.88-1.75,1.3s-1.46,1.08-2.4,.99c-.89-.08-1.61-.85-2.23-1.38s-1.42-1.25-1.14-2.26c.19-.69-.11-1.21-.46-2.06-.28-.68-.5-1.42-.93-2.14-.4-.68-.85-1.37-1.24-2.06-.42-.74-.83-1.53-1.05-2.22-.27-.85-.4-1.94-.07-2.63s.86-1.32,1-2.1,.23-1.63,.53-2.34,.93-1.07,1.74-1.52c.57-.31,1.17-1.02,2.14-1.15,.68-.09,1.46,.44,2.38,.45Z" style="fill:#473513;"/><path d="M59.57,63.61c.2-1.08,.68-.66,1.26-1.88,.27-.57,.52-1.26,.9-1.99,.32-.6,.76-1.19,1.16-1.86,.36-.6,.42-1.44,.84-2.06,.4-.59,.94-1.12,1.39-1.71s.77-1.27,1.27-1.81,1.06-1.04,1.59-1.54,1.3-.74,1.88-1.17,1.26-.71,1.9-1.04,1.24-.74,1.94-.96,1.39-.32,2.13-.39c.78-.07,1.52-.3,2.26-.29,.78,.01,1.51,.3,2.24,.39,.77,.1,1.48,.3,2.19,.49,.75,.2,1.45,.41,2.12,.71,.72,.31,1.4,.6,2.01,1,.65,.43,1.49,.63,2,1.15,.54,.55,.69,1.41,1.07,2.05s.63,1.32,.83,2.05,.42,1.41,.42,2.18c0,.73-.07,1.46-.25,2.22s-.12,1.53-.32,2.24-.83,1.32-1.07,2.02-.3,1.5-.61,2.17-.85,1.24-1.24,1.87-.49,1.5-.98,2.06-1.18,.96-1.77,1.43-1.16,.94-1.84,1.29c-.64,.33-1.36,.59-2.1,.82-.68,.21-1.41,.42-2.19,.53-.7,.11-1.39,.43-2.12,.57s-1.45,.16-2.18,.29-1.51-.16-2.23-.06-1.45,.15-2.17,.19-1.46,.07-2.17,.02c-.75-.06-1.55,.23-2.23,.03s-1.46-.49-2.07-.9-.8-1.23-1.28-1.84c-.41-.54-.7-1.14-1.01-1.87-.26-.62-.91-1.17-1.08-1.95-.15-.66-.31-1.4-.39-2.19-.07-.68-.09-1.47-.1-2.25Z" style="fill:#473513;"/></g></g></g><g><path d="M97.06,244.21s-.08,0-.12,0c-1.05-.06-1.85-.96-1.78-2.01,.01-.18,1.09-18.37,.62-27.79-.12-2.38-.55-4.73-1.28-6.98l-4.67-14.37c-.32-1,.22-2.07,1.22-2.4,1-.33,2.07,.22,2.4,1.22l4.67,14.37c.84,2.58,1.33,5.26,1.46,7.97,.47,9.62-.58,27.45-.63,28.2-.06,1.01-.9,1.79-1.89,1.79Z"/><path d="M116.44,260.81c-2.17,0-4.73-.23-7.68-.7-3.9-.62-6.99-2.22-8.47-4.41-.89-1.31-1.18-2.78-.85-4.24,.23-1.02,1.25-1.67,2.27-1.44,1.02,.23,1.67,1.25,1.44,2.27-.06,.27-.1,.7,.29,1.27,.68,1.01,2.6,2.27,5.92,2.79,9.16,1.45,11.82,.06,12.42-.4,.31-.24,.45-.48,.49-.83,.31-3.07-1.35-5.21-2.95-7.27-.98-1.27-1.91-2.46-2.38-3.84-1.49-4.39,11.74-61.32,11.9-61.84,.3-1,1.36-1.57,2.37-1.27,1,.3,1.58,1.36,1.27,2.37-1.81,6.02-12.32,55.24-11.91,59.62,.29,.76,1,1.67,1.75,2.64,1.77,2.28,4.2,5.41,3.73,9.99-.14,1.39-.82,2.58-1.95,3.46-1.6,1.23-4.13,1.84-7.65,1.84Zm4.13-17.87h0Z"/><path d="M159.8,256.33c-1.86,0-3.49-.04-5.17-.08-1.72-.04-3.53-.05-5.61-.08h-.07c-4.67,0-12.99-.26-16.84-2-4.12-1.86-5.77-5.23-4.9-10.03,1.4-7.73,12.46-8.96,12.93-9.01,1.04-.11,1.98,.65,2.09,1.7,.11,1.04-.65,1.98-1.7,2.09-.08,0-8.71,1.06-9.58,5.91-.56,3.06,.23,4.77,2.72,5.89,2.73,1.23,9.67,1.67,15.29,1.67h.16c2.11,0,3.89,.04,5.61,.09,3.34,.08,6.5,.16,11.74-.09,6.93-.33,23.19-11.93,30.13-25.61,6.55-12.92,2.19-41.09,2.14-41.38-.16-1.04,.54-2.01,1.58-2.17,1.05-.17,2.01,.54,2.17,1.58,.19,1.21,4.6,29.67-2.51,43.69-5.98,11.8-22.88,27.2-33.34,27.69-2.73,.13-4.91,.17-6.84,.17Z"/><path d="M51.07,51.28c-.61,0-1.21-.29-1.58-.84-2.87-4.25-3.88-22.01-2.17-28.03,.29-1.01,.82-2.43,2.11-3.01,5.25-2.36,20.04,14.69,20.18,14.87,.64,.83,.49,2.02-.34,2.67-.83,.64-2.02,.49-2.67-.34-2.83-3.66-12.52-12.76-15.5-13.6-1.52,3.47-.87,21.73,1.54,25.31,.59,.87,.36,2.05-.51,2.64-.33,.22-.7,.33-1.06,.33Zm.22-28.62"/><path d="M125.3,51.28c-.37,0-.74-.11-1.06-.33-.87-.59-1.1-1.77-.51-2.64,2.42-3.58,3.07-21.85,1.54-25.31-2.98,.83-12.67,9.94-15.5,13.6-.64,.83-1.84,.98-2.67,.34-.83-.64-.98-1.84-.34-2.67,.14-.18,14.95-17.23,20.18-14.87,1.29,.58,1.82,1.99,2.11,3.01,1.71,6.01,.7,23.78-2.17,28.03-.37,.54-.97,.84-1.58,.84Zm-.22-28.62h0Z"/><path d="M105.72,40.74c-.23,0-.47-.04-.7-.13-.09-.04-8.92-3.5-18.43-3.5s-14.56,3.3-14.62,3.33c-.88,.56-2.06,.3-2.62-.58-.56-.88-.31-2.05,.57-2.62,.25-.16,6.22-3.94,16.67-3.94s19.45,3.62,19.84,3.77c.97,.39,1.45,1.49,1.06,2.47-.3,.75-1.01,1.2-1.77,1.2Z"/><path d="M82.86,260.47c-6.17,0-12.74-2.36-12.81-9-.04-3.97,2.67-5.6,4.65-6.79,2.05-1.23,3.12-1.98,3.12-4.15,0-6.7-2.98-29.62-5.32-36.55-.67-1.98-1.98-4.78-3.51-8.02-3.93-8.36-9.87-21-12.35-35.89-2.92-17.51,.08-28.84,3.55-41.95,.47-1.78,.95-3.59,1.42-5.45,1.36-5.33,2.14-9.38,2.14-9.42,.2-1.03,1.19-1.71,2.22-1.51,1.03,.2,1.71,1.19,1.51,2.22-.03,.17-.81,4.19-2.19,9.64-.48,1.87-.96,3.69-1.43,5.49-3.36,12.69-6.26,23.64-3.48,40.35,2.39,14.37,7.97,26.23,12.04,34.9,1.64,3.48,2.93,6.23,3.67,8.42,2.63,7.8,5.52,31.38,5.52,37.76,0,4.42-2.87,6.15-4.97,7.41-1.91,1.14-2.82,1.77-2.8,3.49,.05,4.83,6.8,5.24,9.02,5.24h.09c5.62-.03,10.95-2.98,11-3.01,.91-.51,2.07-.19,2.59,.73,.51,.91,.19,2.07-.72,2.59-.25,.14-6.21,3.46-12.84,3.5h-.12Z"/><path d="M200.54,173.1s-.03,0-.05,0c-1.05-.03-1.88-.9-1.85-1.95,0-.05,.08-5.23-2.46-13.08-2.34-7.25-7.46-18.32-18.54-29.92-12.71-13.32-26.16-14.46-36.97-15.39-4.63-.4-8.62-.74-11.81-2.01-7.93-3.18-14.19-13.27-10.94-24.66,.76-2.64,1.71-4.5,2.73-6.46,1.28-2.47,2.61-5.03,3.76-9.73,1.8-7.35-1.72-17.01-1.76-17.11-.36-.98,.14-2.08,1.12-2.44,.98-.37,2.08,.14,2.44,1.12,.16,.44,3.97,10.84,1.88,19.34-1.26,5.13-2.75,8.02-4.07,10.57-.96,1.86-1.8,3.47-2.45,5.75-2.66,9.32,2.33,17.53,8.7,20.09,2.66,1.07,6.4,1.39,10.72,1.75,10.84,.93,25.69,2.19,39.39,16.55,22.35,23.41,22.08,44.82,22.05,45.72-.03,1.03-.87,1.85-1.9,1.85Z"/><path d="M104.16,39.82c-.3,0-.61-.07-.89-.22-.04-.02-4.64-2.33-14.81-2.33s-15.61,2.36-15.66,2.38c-.95,.43-2.08,0-2.51-.94s-.02-2.08,.93-2.51c.24-.11,6.06-2.73,17.24-2.73s16.38,2.66,16.59,2.77c.93,.49,1.28,1.64,.79,2.57-.34,.64-1,1.01-1.68,1.01Z"/><path d="M65.51,99.7c-.71,0-1.4-.4-1.72-1.09-.67-1.43-1.82-3.17-3.44-5.19-.53-.66-1.08-1.33-1.65-2-3.88-4.66-8.71-10.46-10.27-21.82-1.17-8.52,1.72-17.65,1.84-18.03,.32-1,1.39-1.55,2.39-1.23,1,.32,1.55,1.39,1.23,2.39-.03,.09-2.74,8.71-1.69,16.36,1.41,10.29,5.67,15.4,9.42,19.9,.58,.7,1.15,1.38,1.7,2.07,1.8,2.25,3.11,4.25,3.91,5.95,.45,.95,.04,2.08-.91,2.53-.26,.12-.54,.18-.81,.18Z"/><path d="M96.57,189.59s-.06,0-.09,0c-.19,0-4.75-.26-10.82-4.2-6.16-3.99-9.06-11.38-9.18-11.69-.38-.98,.11-2.08,1.09-2.46,.98-.38,2.08,.11,2.46,1.08h0c.03,.07,2.6,6.56,7.7,9.88,5.13,3.33,8.9,3.59,8.94,3.59,1.04,.06,1.85,.95,1.79,2-.05,1.01-.89,1.8-1.89,1.8Z"/></g></svg>