<?xml version="1.0" encoding="UTF-8"?><svg xmlns="http://www.w3.org/2000/svg" viewBox="0 0 280 280"><path d="m146.62,109.85l9.48-4.87c2.43-1.25,3.39-4.23,2.14-6.67-1.25-2.43-4.23-3.39-6.67-2.14l-20.22,10.38c-2.43,1.25-3.39,4.23-2.14,6.66l10.38,20.22c.85,1.65,2.55,2.69,4.4,2.69h0c.78,0,1.56-.18,2.26-.54,2.43-1.25,3.4-4.23,2.15-6.67l-4.85-9.43c14.77,1.04,26.44,13.35,26.44,28.38s-12.74,28.46-28.46,28.46-28.46-12.74-28.46-28.46c0-2.73-2.22-4.95-4.95-4.95s-4.95,2.22-4.95,4.95c0,21.18,17.18,38.36,38.36,38.36h0s.02,0,.03,0c21.19,0,38.36-17.19,38.35-38.38,0-19.46-14.51-35.52-33.29-38.01Z"/></svg>