<?xml version="1.0" encoding="UTF-8"?><svg xmlns="http://www.w3.org/2000/svg" viewBox="0 0 60 60"><defs><style>.b{fill:#666;}.c{fill:none;stroke:#000;stroke-linecap:round;stroke-linejoin:round;stroke-width:2.54px;}</style></defs><g><path class="b" d="M22.74,39.12c1.46-.36,5-2,2.36-4.66-1.46-1.47-5.02-2.11-7.36-2.34-2.33-.23-4.36,2.4-3,4,1.36,1.6,4.21,3.93,8,3Z"/><path class="c" d="M38,38.72h0c-1.34,.17-2.71-.02-3.95-.55l-1.15-.49-2.58-1.2c-.34-.15-.71-.24-1.08-.25h-.47c-.37,.01-.74,.09-1.08,.25l-2.58,1.2-1.15,.49c-1.25,.53-2.61,.72-3.95,.55h0"/><path class="b" d="M30.58,34.18c-1.46-.36-2.87-2.81-1.01-3.72,1.86-.91,3.3,.33,5.63,.11s4-.23,3.39,1.77c-.85,2.78-4.22,2.78-8.01,1.84Z"/><path d="M33.53,29.46c-.43-.55-1.63-1.54-4.77-1.57h0s-.06,0-.09,0c-.03,0-.06,0-.09,0h0c-3.14,.04-4.34,1.03-4.77,1.58-.19,.25-.21,.6-.05,.87,.5,.83,2.62,1.98,3.91,2.57,.63,.29,1.36,.29,1.99,0,1.29-.59,3.41-1.74,3.91-2.57,.16-.27,.14-.62-.05-.87Z"/></g><g id="a"/></svg>