<?xml version="1.0" encoding="utf-8"?>
<!-- Generator: Adobe Illustrator 26.3.1, SVG Export Plug-In . SVG Version: 6.00 Build 0)  -->
<svg version="1.1" id="レイヤー_1" xmlns="http://www.w3.org/2000/svg" xmlns:xlink="http://www.w3.org/1999/xlink" x="0px"
	 y="0px" viewBox="0 0 60 60" style="enable-background:new 0 0 60 60;" xml:space="preserve">
<style type="text/css">
	.st0{fill:none;stroke:#000000;stroke-width:2.54;stroke-linecap:round;stroke-linejoin:round;}
	.st1{fill:#666666;}
</style>
<g>
	<path class="st0" d="M38,38.7L38,38.7c-1.3,0.2-2.7,0-4-0.5l-1.2-0.5l-2.6-1.2c-0.3-0.2-0.7-0.2-1.1-0.2h-0.5
		c-0.4,0-0.7,0.1-1.1,0.2l-2.6,1.2L24,38.2c-1.2,0.5-2.6,0.7-4,0.5l0,0"/>
	<path d="M33.5,29.5c-0.4-0.5-1.6-1.5-4.8-1.6l0,0c0,0-0.1,0-0.1,0s-0.1,0-0.1,0l0,0c-3.1,0-4.3,1-4.8,1.6c-0.2,0.2-0.2,0.6,0,0.9
		c0.5,0.8,2.6,2,3.9,2.6c0.6,0.3,1.4,0.3,2,0c1.3-0.6,3.4-1.7,3.9-2.6C33.7,30.1,33.7,29.7,33.5,29.5L33.5,29.5z"/>
	<path class="st1" d="M25.5,32c-0.1-0.3,0-0.9,0.3-0.9c0.6-0.1,1.7,0,3,0c2,0,2.9-0.2,3.4,0.4c0.5,0.6-2.5,3.6-3.5,3.6
		C27.9,35.1,26.2,33.4,25.5,32z"/>
</g>
<g id="a">
</g>
</svg>
