<?xml version="1.0" encoding="UTF-8"?><svg xmlns="http://www.w3.org/2000/svg" viewBox="0 0 60 60"><defs><style>.b{fill:#666;}.c{fill:none;stroke:#000;stroke-linecap:round;stroke-linejoin:round;stroke-width:2.54px;}</style></defs><g><path class="b" d="M15.74,36.65c-4-8.53,7-16.53,13-16.53s16,10,13,15.71c-3.04,5.78-8.72,.96-13,.96s-10.86,4.41-13-.15Z"/><path class="c" d="M38,38.72h0c-1.34,.17-2.71-.02-3.95-.55l-1.15-.49-2.58-1.2c-.34-.15-.71-.24-1.08-.25h-.47c-.37,.01-.74,.09-1.08,.25l-2.58,1.2-1.15,.49c-1.25,.53-2.61,.72-3.95,.55h0"/><path d="M33.53,29.46c-.43-.55-1.63-1.54-4.77-1.57h0s-.06,0-.09,0c-.03,0-.06,0-.09,0h0c-3.14,.04-4.34,1.03-4.77,1.58-.19,.25-.21,.6-.05,.87,.5,.83,2.62,1.98,3.91,2.57,.63,.29,1.36,.29,1.99,0,1.29-.59,3.41-1.74,3.91-2.57,.16-.27,.14-.62-.05-.87Z"/></g><g id="a"/></svg>