<?xml version="1.0" encoding="UTF-8"?><svg xmlns="http://www.w3.org/2000/svg" viewBox="0 0 60 60"><defs><style>.b{fill:#666;}.c{fill:none;stroke:#000;stroke-linecap:round;stroke-linejoin:round;stroke-width:2.54px;}</style></defs><g><path class="b" d="M43.74,29.12c-1-3-2.87-.7-7-6-2.1-2.69,0-5-2-10-1.17-2.94-5-4-7,0-1.46,2.91-3,8-2,13,.62,3.1,3.58,4.29,7,6,4,2,12.59,1.77,11-3Z"/><path class="c" d="M38,38.72h0c-1.34,.17-2.71-.02-3.95-.55l-1.15-.49-2.58-1.2c-.34-.15-.71-.24-1.08-.25h-.47c-.37,.01-.74,.09-1.08,.25l-2.58,1.2-1.15,.49c-1.25,.53-2.61,.72-3.95,.55h0"/><path d="M33.53,29.46c-.43-.55-1.63-1.54-4.77-1.57h0s-.06,0-.09,0c-.03,0-.06,0-.09,0h0c-3.14,.04-4.34,1.03-4.77,1.58-.19,.25-.21,.6-.05,.87,.5,.83,2.62,1.98,3.91,2.57,.63,.29,1.36,.29,1.99,0,1.29-.59,3.41-1.74,3.91-2.57,.16-.27,.14-.62-.05-.87Z"/></g><g id="a"/></svg>