<?xml version="1.0" encoding="UTF-8"?><svg id="selector" xmlns="http://www.w3.org/2000/svg" viewBox="0 0 64 64"><path id="_パス_3445" d="m50.8,43c-.1-2.1-.6-4.1-1.7-5.9-1.1-1.9-1.6-4.1-1.5-6.3.1-1,.1-1.9.1-2.5,0-2.6-.2-5.5-1.3-5.9-1.3-.5-3.3,1.1-5.3,2.7-1.2,1-3.8,3.6-3.9,3.8-3.7-.9-7.5-.9-11.2,0,0,0-2.7-2.8-4-3.8-2-1.6-4-3.2-5.3-2.7-1.1.5-1.3,3.4-1.3,5.9,0,.6.1,1.6.1,2.6.1,2.2-.4,4.4-1.5,6.3-1,1.8-1.6,3.8-1.6,5.8" fill="#fff"/><path id="_パス_3446" d="m12.6,45.1h0c-.7,0-1.3-.6-1.2-1.3.1-2.2.7-4.4,1.8-6.4h0c1-1.7,1.4-3.6,1.3-5.6-.1-1.2-.1-2.1-.1-2.7,0-1.3.1-2.7.3-4,.2-1.1.6-2.6,1.8-3.1,1.2-.3,2.5-.1,3.5.6,1.1.7,2.1,1.4,3,2.3.9.8,2.6,2.4,3.6,3.4,3.4-.7,7-.7,10.4,0,1-1,2.6-2.6,3.6-3.4s2-1.6,3-2.3c.5-.3,1-.6,1.6-.7.6-.2,1.3-.1,1.9.1,1.2.5,1.6,2,1.8,3.1.2,1.3.3,2.6.3,4,0,.6,0,1.4-.1,2.6-.1,2,.3,3.9,1.3,5.6h0c1.1,2,1.8,4.2,1.8,6.5,0,.7-.5,1.3-1.2,1.3s-1.3-.5-1.3-1.2c-.1-1.9-.6-3.7-1.5-5.3-1.2-2.1-1.8-4.6-1.7-7h0c.1-1.1.1-1.9.1-2.4,0-1.1,0-2.2-.2-3.2,0-.5-.2-1.1-.4-1.6-.4,0-.9.2-1.2.5-1,.6-1.9,1.3-2.7,2.1-1,.8-3.2,3-3.8,3.6h0c-.3.3-.7.4-1.2.3-3.5-.8-7.2-.8-10.7,0-.4.1-.9,0-1.2-.3h0c-.5-.5-2.8-2.8-3.8-3.7-.9-.7-1.8-1.4-2.7-2.1-.4-.3-.8-.4-1.2-.5-.2.5-.4,1-.4,1.6-.1,1.1-.2,2.1-.2,3.2,0,.5,0,1.3.1,2.5h0c.2,2.4-.4,4.9-1.6,7-.9,1.6-1.4,3.4-1.5,5.2-.1.7-.7,1.3-1.3,1.3Z"/></svg>