<?xml version="1.0" encoding="UTF-8"?><svg id="selector" xmlns="http://www.w3.org/2000/svg" viewBox="0 0 64 64"><path d="m37.6,29c-.5-.7-1.9-1.8-5.2-1.9h-1.3c-3.4.1-4.7,1.2-5.3,1.9-.3.4-.4,1-.1,1.4.8,1.2,3.9,2.7,4.6,3,.4.2.9.3,1.4.3h.1c.4,0,.9-.1,1.3-.3.6-.3,3.8-1.8,4.6-3,.2-.5.2-1-.1-1.4Z"/><path d="m43.3,38.7c-1.9.1-3.7-.2-5.4-.9-.8-.4-1.5-.8-2.2-1.3-1.1-.9-2.5-1.3-3.9-1.4h-.6c-1.4.1-2.7.5-3.8,1.4-.7.5-1.4.9-2.2,1.3-1.7.7-3.6,1-5.4.9-.8-.1-1.5.5-1.6,1.3s.5,1.5,1.3,1.6h1c2,0,4.1-.4,5.9-1.2.9-.4,1.7-.9,2.6-1.5.7-.6,1.6-.9,2.5-.9s1.8.3,2.5.9c.8.6,1.7,1,2.6,1.5,1.9.8,3.9,1.2,5.9,1.2h1c.8-.1,1.4-.8,1.3-1.6-.1-.8-.8-1.4-1.5-1.3Z"/></svg>