<?xml version="1.0" encoding="UTF-8"?><svg id="sox" xmlns="http://www.w3.org/2000/svg" viewBox="0 0 64 64"><path id="_パス_5117" d="m24.34,49.13c-3.45,0-6.26-2.7-6.26-6.15,0-2.16,1.19-4.21,3.13-5.29.11,0,.11-.11.22-.22l5.93-4.53c1.19-.65,1.94-1.83,1.94-3.24l.22-11.87h12.3v17.91c0,2.05-1.19,3.88-2.91,4.85h-.11l-11.76,7.98h0c-.86.43-1.73.54-2.7.54" fill="#fff"/><path d="m28.33,16.44l-.22,12.62c0,.97-.54,1.83-1.4,2.27h0l-6.26,4.85c-.97.65-1.83,1.51-2.48,2.48-.65,1.08-.97,2.37-.97,3.67,0,4.1,3.34,7.34,7.44,7.23.97,0,1.83-.22,2.7-.54v.11l12.3-8.09c2.16-1.19,3.56-3.45,3.56-5.93v-18.66h-14.67Zm2.05,12.73l.22-10.46h2.27v3.13h.97v-3.13h2.91v3.13h.97v-3.13h2.91v16.51c0,1.62-.86,3.13-2.37,3.88-.11,0-.11.11-.11.11l-11.65,7.66c-.65.32-1.4.43-2.16.43-2.8,0-5.07-2.16-5.18-4.96,0-1.73.97-3.45,2.48-4.32.11-.11.32-.22.43-.32l5.72-4.42c1.62-.86,2.48-2.37,2.59-4.1Z"/></svg>