<?xml version="1.0" encoding="UTF-8"?><svg id="selector" xmlns="http://www.w3.org/2000/svg" xmlns:xlink="http://www.w3.org/1999/xlink" viewBox="0 0 64 64"><defs><clipPath id="clippath"><rect width="64" height="64" fill="none"/></clipPath><clipPath id="clippath-1"><rect width="64" height="64" fill="none"/></clipPath><clipPath id="clippath-2"><rect width="64" height="64" fill="none"/></clipPath><clipPath id="clippath-3"><path d="m28.8,26c-11.5,14-7.4,42.9-7.4,42.9l12.4-.9c-1.8-3.5-4.7-27,2.5-36.3,5.8-7.4,14.8-6.6,12.5-12.3-.8-1.8-2.5-2.7-4.7-2.7-4.2,0-10.2,3.1-15.3,9.3" fill="none"/></clipPath></defs><g clip-path="url(#clippath)"><path id="_パス_5099" d="m21.4,68.8s-4.1-28.8,7.4-42.9c7.8-9.5,17.7-11.7,19.9-6.5,2.4,5.7-6.7,4.9-12.5,12.3-7.1,9.3-4.2,32.8-2.4,36.3" fill="#fff"/></g><g clip-path="url(#clippath-1)"><path id="_パス_5100" d="m21.4,70.1c-.6,0-1.1-.5-1.2-1.1-.7-5.4-.9-10.9-.6-16.4.2-4.8.9-9.6,2-14.3,1.1-4.8,3.3-9.2,6.3-13.1,2.5-3.1,5.5-5.7,9-7.6,2.5-1.5,5.5-2.2,8.4-2,2,.2,3.8,1.5,4.6,3.4.4.8.5,1.8.4,2.7-.1.8-.5,1.6-1,2.2-1.2,1.1-2.6,2.1-4.1,2.7-3.1,1.4-5.8,3.4-7.9,6-1.8,2.6-3,5.5-3.4,8.6-.7,3.6-1,7.3-.9,10.9.1,7.8,1.3,14.1,2,15.4.3.6.1,1.4-.5,1.7-.6.3-1.4.1-1.7-.5h0c-.8-2-1.3-4.1-1.5-6.2-.5-3.4-.7-6.9-.8-10.3-.1-3.8.3-7.7,1-11.5.6-3.5,1.9-6.7,3.9-9.6,2.4-2.8,5.4-5.1,8.8-6.6,1.2-.5,2.4-1.3,3.4-2.2.4-.4.7-.9.1-2.3-.5-1.1-1.5-1.8-2.7-1.9-2.4-.1-4.8.5-6.8,1.7-3.2,1.8-6,4.2-8.3,7-2.9,3.5-4.9,7.7-5.9,12.1-1.1,4.5-1.8,9.2-2,13.8-.2,5.3,0,10.7.6,15.9.1.7-.4,1.3-1.1,1.4q0,.1-.1.1Z"/></g><g clip-path="url(#clippath-2)"><g clip-path="url(#clippath-3)"><g id="_グループ_1176"><path id="_パス_5101" d="m33,61.3c-.6,0-1.2-.2-1.7-.7-1.4-1.2-3.1-1.8-4.9-1.8-1.7,0-3.3.3-4.8.9-1.2.5-2.6,0-3.1-1.2s0-2.6,1.2-3.1h0c2.1-.9,4.4-1.3,6.7-1.3,3,0,6,1.1,8.2,3.2.9.9.9,2.4,0,3.3-.4.4-1,.7-1.6.7"/><path id="_パス_5102" d="m32.8,51.9c-.7,0-1.3-.3-1.8-.8-1.3-1.3-3-2.1-4.8-2.2-1.7-.1-3.3,0-4.9.5-1.2.4-2.5-.2-3-1.5-.4-1.2.2-2.5,1.5-3,2.2-.7,4.5-.9,6.8-.7,3,.3,5.9,1.6,7.9,3.9.8,1,.7,2.5-.3,3.3-.3.3-.8.5-1.4.5"/><path id="_パス_5103" d="m33.6,42.2c-.7,0-1.4-.3-1.8-.9-1.2-1.3-2.9-2.2-4.7-2.4-1.6-.2-3.3-.1-4.9.3-1.2.4-2.5-.3-2.9-1.5s.3-2.5,1.5-2.9h0c2.2-.6,4.5-.8,6.8-.5,3,.4,5.8,1.8,7.8,4.1.8,1,.6,2.5-.4,3.3-.4.3-.9.5-1.4.5"/><path id="_パス_5104" d="m37.6,35c-1,0-1.9-.6-2.2-1.6-.7-1.7-2-3-3.7-3.7-1.5-.7-3.1-1.1-4.8-1.2-1.3-.1-2.3-1.2-2.2-2.4.1-1.3,1.1-2.2,2.4-2.2,2.3.1,4.5.7,6.6,1.7,2.7,1.3,4.9,3.6,6.1,6.4.4,1.2-.2,2.6-1.4,3-.3-.1-.6,0-.8,0"/><path id="_パス_5105" d="m42.8,28.4s.8-2.5-2.5-5.8c-2.3-2.3-7.5-2.6-7.5-2.6,0,0,13.4-11.5,17.4-4.9,5,8.4-7.4,13.3-7.4,13.3"/></g></g></g></svg>