<?xml version="1.0" encoding="utf-8"?>
<!-- Generator: Adobe Illustrator 26.3.1, SVG Export Plug-In . SVG Version: 6.00 Build 0)  -->
<svg version="1.1" id="a" xmlns="http://www.w3.org/2000/svg" xmlns:xlink="http://www.w3.org/1999/xlink" x="0px" y="0px"
	 viewBox="0 0 60 60" style="enable-background:new 0 0 60 60;" xml:space="preserve">
<style type="text/css">
	.st0{fill:none;stroke:#000000;stroke-width:2.08;stroke-linecap:round;stroke-linejoin:round;}
	.st1{fill:#666666;}
	.st2{fill:none;stroke:#000000;stroke-width:2.54;stroke-linecap:round;stroke-linejoin:round;}
</style>
<g id="b">
	<g>
		<path class="st0" d="M23.7,26.1c0,0,2-2.9,5.6-2.9c4.2,0,6.1,2.9,6.1,2.9"/>
		<path class="st1" d="M33.6,28.4c-0.3-0.5-1.4-1.3-4-1.3l0,0c0,0,0,0-0.1,0c0,0,0,0-0.1,0l0,0c-2.6,0-3.6,0.9-4,1.3
			c-0.2,0.2-0.2,0.5,0,0.7c0.4,0.7,2.2,1.6,3.2,2.1c0.5,0.2,1.1,0.2,1.6,0c1.1-0.5,2.8-1.5,3.3-2.1C33.8,28.9,33.7,28.6,33.6,28.4
			L33.6,28.4z"/>
		<path class="st2" d="M18.5,44.7c0,0,1.7,0.7,3.8-1.1c2.2-1.9,3.5-3.5,4.7-5.6l1.5-2.6c0.5-0.6,1.5-0.6,2,0l1.5,2.5
			c1.3,2.2,3.3,4.8,4.9,5.8s3.6,1,3.6,1"/>
	</g>
</g>
</svg>
