<?xml version="1.0" encoding="utf-8"?>
<!-- Generator: Adobe Illustrator 26.3.1, SVG Export Plug-In . SVG Version: 6.00 Build 0)  -->
<svg version="1.1" id="ear" xmlns="http://www.w3.org/2000/svg" xmlns:xlink="http://www.w3.org/1999/xlink" x="0px" y="0px"
	 viewBox="0 0 140 140" style="enable-background:new 0 0 140 140;" xml:space="preserve">
<style type="text/css">
	.st0{clip-path:url(#SVGID_00000162311220225084022490000002197880699402903460_);}
	.st1{fill:#FFFFFF;}
</style>
<g>
	<defs>
		<rect id="SVGID_1_" x="-10" y="-1" width="160" height="105"/>
	</defs>
	<clipPath id="SVGID_00000105411187369976379730000003499959172912513945_">
		<use xlink:href="#SVGID_1_"  style="overflow:visible;"/>
	</clipPath>
	<g style="clip-path:url(#SVGID_00000105411187369976379730000003499959172912513945_);">
		<g>
			<path class="st1" d="M209.3,77.4c-13,0-8.1,29-12.9,65.1c-2.6,19.5-7.7,35.1-11,43.8c-2.2-5.7-5.2-12.2-9.1-19.9
				c-14.1-27.9-44.3-35.4-44.3-35.4l0,0c-7.8-3.5-20.5-9.1-20.6-9.2c-1.2-1-2.5-2.6-2.8-4.7c-0.8-5.6,0.9-6.4,1-16.2
				c0.1-7.4-0.4-13.2-5.8-20.2c5.9-3,8.1-11.6,4.9-18c-3-6-8-12-15-10c-4.9,1.4-4.3,7.1-3,11c0.6,1.8,0.1,3.5-0.4,4.6
				c-7.7-4.8-14.3-4.6-22.1-4.6h-0.7c-7.7,0-14.2,0-21.9,4.7c-0.5-1.1-1.1-2.8-0.5-4.7c1.3-3.9,1.9-9.6-3-11c-7-2-12,4-15,10
				c-3.2,6.4-1,15,5,18l1.1-0.9c-6.3,8.6-6.3,16.8-6.2,24.7c0.1,9.8,8.5,22.1,10,24.7c1.6,2.6,1.5,12.7,1.5,12.7h0.1
				c-1.2,7.3-4,25.8-1.6,36.5c3,13.5,9.4,31.2,18.2,46.1c8,13.6,2.5,28.5,2.5,28.5s-3.8,5.6-1.8,10.5c2,4.9,5.9,5.6,11.7,4.7
				c5.2-0.8,5.3-3.1,11.1-3.1s6.7,4.1,17.4,2.6c7.7-1.1,10.8-5.1,10.9-10.3c0-1.1-0.8-3.6-1.6-5.8l0,0c0,0,3.5-0.6,7,4.6
				c0.9,1.3-1,4.9,1.6,7.7c2.6,2.8,1.5,3.9,8.3,3.6s27.3,3,33.7-0.5c6.5-3.5,28.5-14.4,32.3-34.4c0.2-1.2,0.4-2.3,0.6-3.4
				c0.2,0.1,0.4,0.2,0.7,0.2c0,0,17.3-14.4,24.5-67.7C219.6,123.3,224.4,77.4,209.3,77.4L209.3,77.4z"/>
			<g>
				<path d="M85.3,69.3c-0.2,0-0.5,0-0.7-0.1c-0.1,0-8.9-3.5-18.4-3.5S51.6,69,51.6,69c-0.9,0.6-2.1,0.3-2.6-0.6
					c-0.6-0.9-0.3-2.1,0.6-2.6c0.2-0.2,6.2-3.9,16.7-3.9s19.5,3.6,19.8,3.8c1,0.4,1.4,1.5,1.1,2.5C86.8,68.9,86.1,69.3,85.3,69.3z"
					/>
				<path d="M39.7,138.4c-0.1,0-0.2,0-0.3,0c-1-0.1-1.8-1.1-1.6-2.1l0,0c0,0,0.2-2.6-2.5-7.2c-0.4-0.7-0.9-1.5-1.4-2.3
					c-3.5-5.6-8.3-13.2-8.3-25.8c0-10.2,3.3-18.5,3.4-18.9c0.4-1,1.5-1.4,2.5-1.1c1,0.4,1.4,1.5,1.1,2.5c0,0.1-3.1,8-3.1,17.5
					c0,11.5,4.5,18.6,7.7,23.8c0.5,0.8,1,1.7,1.5,2.4c3.5,5.8,3.1,9.3,3,9.7C41.4,137.7,40.6,138.4,39.7,138.4L39.7,138.4z"/>
				<path d="M187.8,194.6c-0.9,0-1.8-0.7-1.9-1.6c0-0.1-1-6.8-5.4-16.2c-4.1-8.6-12-21.4-26.6-32.9c-8.3-6.5-17.6-9.8-25.8-12.7
					c-10.2-3.6-19-6.7-21.5-14.9c-0.8-2.5-0.2-5.6,0.5-9.1c0.6-3,1.3-6.3,1.2-9.8c-0.2-7.6-3.8-13.6-3.8-13.7
					c-0.5-0.9-0.2-2.1,0.7-2.6s2.1-0.2,2.6,0.7c0.2,0.3,4.1,6.9,4.4,15.5c0.1,3.9-0.6,7.5-1.2,10.7c-0.6,3-1.1,5.7-0.6,7.3
					c2,6.4,9.5,9,19.1,12.4c8.5,3,18.1,6.4,26.9,13.3c29.2,23,33.3,50.4,33.4,51.5c0.1,1-0.6,2-1.6,2.1
					C188,194.6,187.9,194.6,187.8,194.6L187.8,194.6z"/>
				<path d="M103.8,80.6c-0.7,0-1.4-0.4-1.7-1.1c-0.5-0.9-0.1-2.1,0.8-2.6c5-2.5,6.9-9.8,4.2-15.5c-2.5-5.1-6.8-10.7-12.8-9
					c-1,0.3-1.6,0.8-2,1.5c-0.8,1.5-0.7,4.1,0.3,7c1.3,3.9-1.2,7.3-1.3,7.4c-0.6,0.8-1.8,1-2.7,0.4s-1-1.8-0.4-2.7
					c0-0.1,1.4-2,0.8-4c-0.8-2.3-1.8-6.7-0.1-10c0.9-1.7,2.4-2.9,4.3-3.4c6.6-1.9,12.7,2,17.2,11c3.8,7.5,1,17.1-5.8,20.5
					C104.4,80.5,104.1,80.6,103.8,80.6L103.8,80.6z"/>
				<path d="M32.2,80.6c-0.3,0-0.6-0.1-0.9-0.2c-6.9-3.4-9.6-13-5.9-20.5c4.5-9,10.6-12.9,17.2-11c2,0.6,3.4,1.7,4.3,3.4
					c1.8,3.3,0.7,7.7,0,10c-0.7,2,0.7,3.9,0.8,4c0.6,0.8,0.4,2-0.4,2.7s-2,0.5-2.6-0.4c-0.1-0.1-2.6-3.5-1.3-7.4
					c1-2.9,1.1-5.5,0.3-7c-0.4-0.8-1-1.3-2-1.5c-6-1.7-10.2,4-12.8,9c-2.8,5.6-0.8,13,4.2,15.4c0.9,0.5,1.3,1.6,0.8,2.6
					C33.6,80.2,32.9,80.6,32.2,80.6L32.2,80.6z"/>
			</g>
		</g>
	</g>
</g>
</svg>
