<?xml version="1.0" encoding="utf-8"?>
<!-- Generator: Adobe Illustrator 26.3.1, SVG Export Plug-In . SVG Version: 6.00 Build 0)  -->
<svg version="1.1" id="ear" xmlns="http://www.w3.org/2000/svg" xmlns:xlink="http://www.w3.org/1999/xlink" x="0px" y="0px"
	 viewBox="0 0 140 140" style="enable-background:new 0 0 140 140;" xml:space="preserve">
<style type="text/css">
	.st0{clip-path:url(#SVGID_00000137092517463131198630000016332355212925884052_);}
	.st1{fill:#FFFFFF;}
</style>
<g>
	<defs>
		<rect id="SVGID_1_" x="-10" y="-1" width="160" height="105"/>
	</defs>
	<clipPath id="SVGID_00000116226114863009534110000017268370663916825261_">
		<use xlink:href="#SVGID_1_"  style="overflow:visible;"/>
	</clipPath>
	<g style="clip-path:url(#SVGID_00000116226114863009534110000017268370663916825261_);">
		<g>
			<path class="st1" d="M209.5,78.4c-13,0-8.1,29-12.9,65.1c-2.7,20.5-8.3,36.8-11.5,45c-2.3-6-5.4-12.9-9.6-21.2
				c-14.1-27.9-44.3-35.4-44.3-35.4l0,0c-7.8-3.5-20.5-9.1-20.6-9.2c-1.2-1-2.5-2.6-2.8-4.7c-0.8-5.6,0.9-6.4,1-16.2
				c0.1-7.2-0.4-12.9-5.4-19.7c1.2-1.5,4.8-6,5.9-9.5c1-3,1.3-11.8-3-15c-4-3-6,3-10,7c-1.8,1.8-6.1,3.1-8.4,3.6
				c-7-3.8-13.2-3.6-20.4-3.6h-0.7c-7.1,0-13.2,0-20.1,3.7c-2.3-0.5-6.8-1.8-8.7-3.7c-4-4-6-10-10-7c-4.3,3.2-4,12-3,15
				c1.1,3.3,4.6,8,6.2,10c-5,7.9-5,15.5-4.9,22.7c0.1,9.8,8.5,22,10,24.7s1.5,12.7,1.5,12.7h0.1c-1.2,7.3-4,25.8-1.6,36.5
				c3,13.5,9.4,31.2,18.2,46.1c8,13.6,2.5,28.5,2.5,28.5s-3.8,5.6-1.8,10.5c2,4.9,5.9,5.6,11.7,4.7c5.2-0.8,5.3-3.1,11.1-3.1
				s6.7,4.1,17.4,2.6c7.7-1.1,10.8-5.1,10.9-10.3c0-1.1-0.8-3.6-1.6-5.8l0,0c0,0,3.5-0.6,7,4.5c0.9,1.3-1,4.9,1.6,7.7
				c2.6,2.8,1.5,3.9,8.3,3.6c6.8-0.3,27.3,3,33.7-0.5c6.5-3.5,28.5-14.4,32.3-34.4c0.2-1.3,0.5-2.6,0.7-3.9c0.5,0.3,1,0.5,1.6,0.6
				c0,0,17.3-14.4,24.5-67.7C219.7,124.3,224.5,78.4,209.5,78.4L209.5,78.4z"/>
			<g>
				<path d="M84.4,70.3c-0.2,0-0.5,0-0.7-0.1c-0.1,0-8.9-3.5-18.4-3.5S50.8,70,50.7,70c-0.9,0.6-2.1,0.3-2.6-0.6
					c-0.6-0.9-0.3-2.1,0.6-2.6c0.2-0.2,6.2-3.9,16.7-3.9s19.5,3.6,19.8,3.8c1,0.4,1.4,1.5,1.1,2.5C85.9,69.9,85.2,70.3,84.4,70.3z"
					/>
				<path d="M38.8,139.4c-0.1,0-0.2,0-0.3,0c-1-0.1-1.8-1.1-1.6-2.1l0,0c0,0,0.2-2.6-2.5-7.2c-0.4-0.7-0.9-1.5-1.4-2.3
					c-3.5-5.6-8.3-13.2-8.3-25.8c0-10.2,3.3-18.5,3.4-18.9c0.4-1,1.5-1.4,2.5-1.1c1,0.4,1.5,1.5,1.1,2.5c0,0.1-3.1,8-3.1,17.5
					c0,11.5,4.5,18.6,7.7,23.8c0.5,0.8,1,1.7,1.5,2.4c3.5,5.8,3.1,9.3,3,9.6C40.5,138.7,39.7,139.4,38.8,139.4L38.8,139.4z"/>
				<path d="M186.9,195.6c-0.9,0-1.8-0.7-1.9-1.6c0-0.1-1-6.8-5.4-16.2c-4.1-8.6-12-21.4-26.6-32.9c-8.3-6.5-17.6-9.8-25.8-12.7
					c-10.2-3.6-19-6.7-21.5-14.9c-0.8-2.5-0.2-5.6,0.5-9.1c0.6-3,1.3-6.3,1.2-9.8c-0.2-7.6-3.8-13.6-3.8-13.7
					c-0.5-0.9-0.2-2.1,0.7-2.6s2.1-0.2,2.6,0.7c0.2,0.3,4.1,6.9,4.4,15.5c0.1,3.9-0.6,7.5-1.2,10.7c-0.6,3-1.1,5.7-0.6,7.3
					c2,6.4,9.5,9,19.1,12.4c8.5,3,18.1,6.4,26.9,13.3c29.2,23,33.3,50.3,33.4,51.5c0.1,1-0.6,2-1.6,2.1
					C187.1,195.6,187,195.6,186.9,195.6L186.9,195.6z"/>
				<path d="M28.9,81.6c-0.5,0-1-0.2-1.4-0.6c-0.1-0.1-2.9-3.1-4.4-7.7C22,70,21.5,60.1,26.8,56.2c2.5-1.8,4.6-1.2,5.9-0.3
					c1.4,0.9,2.5,2.4,3.7,4.1c0.9,1.2,1.8,2.4,2.9,3.5c1.5,1.6,6.4,3,9,3.5c1,0.2,1.7,1.2,1.5,2.2s-1.2,1.7-2.2,1.5
					c-0.8-0.2-8.1-1.6-11-4.5c-1.2-1.2-2.3-2.6-3.2-3.9c-2.8-3.8-3.3-3.7-4.3-3c-3.3,2.5-3.2,10.2-2.3,12.9c1.2,3.8,3.6,6.3,3.6,6.3
					c0.7,0.8,0.7,2-0.1,2.7C29.9,81.4,29.4,81.6,28.9,81.6L28.9,81.6z"/>
				<path d="M105.3,81.6c-0.5,0-0.9-0.2-1.3-0.5c-0.8-0.7-0.8-1.9-0.1-2.7c0,0,2.3-2.5,3.6-6.3c0.9-2.7,1-10.4-2.3-12.9
					c-1-0.8-1.5-0.8-4.3,3c-0.9,1.2-2,2.6-3.2,3.9c-2.9,2.9-10.2,4.4-11,4.5c-1,0.2-2-0.5-2.2-1.5c-0.2-1,0.5-2,1.5-2.2
					c2.7-0.5,7.5-1.9,9-3.5c1.1-1,2-2.3,2.9-3.5c2.2-3,5.2-7,9.6-3.7c5.3,4,4.8,13.9,3.7,17.1c-1.5,4.6-4.3,7.6-4.4,7.7
					C106.3,81.4,105.8,81.6,105.3,81.6L105.3,81.6z"/>
			</g>
		</g>
	</g>
</g>
</svg>
