<?xml version="1.0" encoding="utf-8"?>
<!-- Generator: Adobe Illustrator 26.3.1, SVG Export Plug-In . SVG Version: 6.00 Build 0)  -->
<svg version="1.1" id="ear" xmlns="http://www.w3.org/2000/svg" xmlns:xlink="http://www.w3.org/1999/xlink" x="0px" y="0px"
	 viewBox="0 0 140 140" style="enable-background:new 0 0 140 140;" xml:space="preserve">
<style type="text/css">
	.st0{clip-path:url(#SVGID_00000150800899253837360390000010374977772559789961_);}
	.st1{fill:#FFFFFF;}
</style>
<g>
	<defs>
		<rect id="SVGID_1_" x="-9" y="-1" width="160" height="105"/>
	</defs>
	<clipPath id="SVGID_00000027566208019627057450000000111884123507911318_">
		<use xlink:href="#SVGID_1_"  style="overflow:visible;"/>
	</clipPath>
	<g style="clip-path:url(#SVGID_00000027566208019627057450000000111884123507911318_);">
		<g>
			<path class="st1" d="M210.5,76.4c-13,0-8.1,29-12.9,65.1c-2.6,19.5-7.7,35.1-11,43.8c-2.2-5.7-5.2-12.2-9.1-19.9
				c-14.1-27.9-44.3-35.4-44.3-35.4l0,0c-7.8-3.5-20.5-9.1-20.6-9.2c-1.2-1-2.5-2.6-2.8-4.7c-0.8-5.6,0.9-6.4,1-16.2
				c0.1-7.2-0.4-12.8-5.3-19.6c0,0,0.1,0,0.1-0.1c0.8-0.2,1.7-0.7,2.8-1.7c3.2-2.8,1.4-7.7-3.2-11.3c-5.7-4.5-9.8-3.8-14-1.1
				c-0.3,0.2-0.5,0.3-0.8,0.5c-7.3-4.2-13.7-4-21.1-4h-0.7c-7.7,0-14.1,0-21.7,4.6c-0.5-0.3-1.1-0.6-1.8-1.1
				c-4.1-2.7-8.3-3.4-14,1.1c-4.5,3.6-6.4,8.5-3.1,11.3c1.1,0.9,2,1.4,2.8,1.7c0.7,0.2,1.3,0.7,1.7,1.4c-4.4,7.6-4.5,14.8-4.4,21.8
				c0.1,9.8,8.5,22,10,24.7s1.5,12.7,1.5,12.7h0.1c-1.2,7.3-4,25.8-1.6,36.5c3,13.5,9.4,31.2,18.2,46.1c8,13.6,2.5,28.5,2.5,28.5
				s-3.8,5.6-1.8,10.5c2,4.9,5.9,5.6,11.7,4.7c5.2-0.8,5.3-3.1,11.1-3.1s6.7,4.1,17.4,2.6c7.7-1.1,10.8-5.1,10.9-10.3
				c0-1.1-0.8-3.6-1.6-5.8l0,0c0,0,3.5-0.6,7,4.6c0.9,1.3-1,4.9,1.6,7.7c2.6,2.8,1.5,3.9,8.3,3.6s27.3,3,33.7-0.5
				c6.5-3.5,28.5-14.4,32.3-34.4c0.2-1.2,0.4-2.3,0.6-3.4c0.2,0.1,0.4,0.2,0.7,0.2c0,0,17.3-14.4,24.5-67.7
				C220.7,122.3,225.5,76.4,210.5,76.4L210.5,76.4z"/>
			<g>
				<g>
					<path d="M39.8,137.4c-0.1,0-0.2,0-0.3,0c-1-0.1-1.8-1.1-1.6-2.1l0,0c0,0,0.2-2.6-2.5-7.2c-0.4-0.7-0.9-1.5-1.4-2.3
						c-3.5-5.6-8.3-13.2-8.3-25.8c0-10.2,3.3-18.5,3.4-18.9c0.4-1,1.5-1.4,2.5-1.1s1.4,1.5,1.1,2.5c0,0.1-3.1,8-3.1,17.5
						c0,11.5,4.5,18.6,7.7,23.8c0.5,0.8,1,1.7,1.5,2.4c3.5,5.8,3.1,9.3,3,9.6C41.6,136.7,40.7,137.4,39.8,137.4L39.8,137.4z"/>
					<path d="M187.9,193.6c-0.9,0-1.8-0.7-1.9-1.6c0-0.1-1-6.8-5.4-16.2c-4.1-8.6-12-21.4-26.6-32.9c-8.3-6.5-17.6-9.8-25.8-12.7
						c-10.2-3.6-19-6.7-21.5-14.9c-0.8-2.5-0.2-5.6,0.5-9.1c0.6-3,1.3-6.3,1.2-9.8c-0.2-7.6-3.8-13.6-3.8-13.7
						c-0.5-0.9-0.2-2.1,0.7-2.6s2.1-0.2,2.6,0.7c0.2,0.3,4.1,6.9,4.4,15.5c0.1,3.9-0.6,7.5-1.2,10.7c-0.6,3-1.1,5.7-0.6,7.3
						c2,6.4,9.5,9,19.1,12.4c8.5,3,18.1,6.4,26.9,13.3c29.2,23,33.3,50.3,33.4,51.5c0.1,1-0.6,2-1.6,2.1
						C188.1,193.6,188,193.6,187.9,193.6L187.9,193.6z"/>
				</g>
				<g>
					<path d="M85.4,68.3c-0.2,0-0.5,0-0.7-0.1c-0.1,0-8.9-3.5-18.4-3.5S51.8,68,51.7,68c-0.9,0.6-2.1,0.3-2.6-0.6
						c-0.6-0.9-0.3-2.1,0.6-2.6c0.2-0.2,6.2-3.9,16.7-3.9s19.5,3.6,19.8,3.8c1,0.4,1.4,1.5,1.1,2.5C86.9,67.9,86.2,68.3,85.4,68.3z"
						/>
					<path d="M35.7,82.5c-0.1,0-0.2,0-0.2,0c-1.5-0.1-5.4-0.4-7.7-2.3c-2-1.7-2.6-4-1.8-6.8c1-3.5,5.5-9.2,10.8-10.4
						c6.7-1.5,12.7,2,13,2.2c0.9,0.5,1.2,1.7,0.7,2.6s-1.7,1.2-2.6,0.7l0,0c0,0-5-2.9-10.2-1.7c-3.6,0.8-7.1,5.2-7.9,7.8
						c-0.5,1.8,0.1,2.3,0.6,2.8c1.1,0.9,3.5,1.4,5.4,1.5c0.9,0,1.4-0.4,2.7-1.9c0.4-0.5,0.8-1,1.3-1.5l2-2c0.7-0.7,2-0.7,2.7,0
						s0.7,1.9,0,2.7l-2,2c-0.4,0.4-0.8,0.9-1.2,1.3C39.8,80.8,38.3,82.5,35.7,82.5L35.7,82.5z"/>
					<path d="M100.9,82.5c-2.6,0-4.1-1.7-5.4-3.2c-0.4-0.4-0.8-0.8-1.2-1.3l-2-2c-0.7-0.7-0.7-1.9,0-2.7s1.9-0.7,2.7,0l2,2
						c0.5,0.5,0.9,1,1.3,1.5c1.3,1.5,1.8,1.9,2.7,1.9c1.9-0.1,4.3-0.6,5.4-1.5c0.5-0.4,1.1-0.9,0.6-2.8c-0.8-2.6-4.3-7-7.9-7.8
						c-5.2-1.1-10.2,1.7-10.2,1.7c-0.9,0.5-2.1,0.2-2.6-0.7s-0.2-2.1,0.7-2.6c0.2-0.2,6.2-3.6,12.9-2.2c5.3,1.2,9.7,6.9,10.8,10.4
						c0.8,2.8,0.2,5.1-1.8,6.8c-2.3,1.9-6.2,2.3-7.7,2.3C101.1,82.5,101,82.5,100.9,82.5L100.9,82.5z"/>
				</g>
			</g>
		</g>
	</g>
</g>
</svg>
