<?xml version="1.0" encoding="utf-8"?>
<!-- Generator: Adobe Illustrator 26.3.1, SVG Export Plug-In . SVG Version: 6.00 Build 0)  -->
<svg version="1.1" id="ear" xmlns="http://www.w3.org/2000/svg" xmlns:xlink="http://www.w3.org/1999/xlink" x="0px" y="0px"
	 viewBox="0 0 140 140" style="enable-background:new 0 0 140 140;" xml:space="preserve">
<style type="text/css">
	.st0{clip-path:url(#SVGID_00000053503146111985225630000002719861544834415551_);}
	.st1{fill:#FFFFFF;}
</style>
<g>
	<defs>
		<rect id="SVGID_1_" x="-9.8" y="-1" width="160" height="105"/>
	</defs>
	<clipPath id="SVGID_00000032625609114517484360000005604648704708264639_">
		<use xlink:href="#SVGID_1_"  style="overflow:visible;"/>
	</clipPath>
	<g style="clip-path:url(#SVGID_00000032625609114517484360000005604648704708264639_);">
		<g>
			<path class="st1" d="M210.5,76.8c-13,0-8.1,29-12.9,65.1c-2.9,21.8-9,38.8-12.1,46.5c-2.3-6.2-5.5-13.4-9.9-22.1
				c-14.1-27.9-44.3-35.4-44.3-35.4l0,0c-7.8-3.5-20.5-9.1-20.6-9.2c-1.2-1-2.5-2.6-2.8-4.7c-0.8-5.6,0.9-6.4,1-16.2
				c0.1-7-0.3-12.5-5-19.1V70.1l6,4c0,0,3-9-2.7-12.4c-7.2-4.3-12.9-4.1-16.9-1.1c-3.3,2.5-5.4,4.6-5.9,5.1c-5.6-2.1-10.9-2-16.9-2
				h-0.7c-6.2,0-11.7,0-17.6,2.5c0.2-0.2,0.3-0.3,0.3-0.3s-2.2-2.3-6.1-5.3c-3.9-3-9.6-3.3-16.9,1.1c-5.7,3.4-2.7,12.4-2.7,12.4l6-4
				v14c-3.6,7.1-3.7,13.8-3.6,20.4c0.1,9.8,8.5,22.1,10,24.7s1.5,12.7,1.5,12.7h0.1c-1.2,7.3-4,25.8-1.6,36.5
				c3,13.5,9.4,31.2,18.2,46.1c8,13.6,2.5,28.5,2.5,28.5s-3.8,5.6-1.8,10.5c2,4.9,5.9,5.6,11.7,4.7c5.2-0.8,5.3-3.1,11.1-3.1
				s6.7,4.1,17.4,2.6c7.7-1.1,10.8-5.1,10.9-10.3c0-1.1-0.8-3.6-1.6-5.8l0,0c0,0,3.5-0.6,7,4.6c0.9,1.3-1,4.9,1.6,7.7
				c2.6,2.8,1.5,3.9,8.3,3.6s27.3,3,33.7-0.5c6.5-3.5,28.5-14.4,32.3-34.4c0.3-1.7,0.6-3.3,0.9-4.9c0.7,0.5,1.4,0.9,2.3,1.1
				c0,0,17.3-14.4,24.5-67.7C220.7,122.7,225.5,76.8,210.5,76.8L210.5,76.8z"/>
			<g>
				<path d="M38.5,138.3c-0.1,0-0.2,0-0.3,0c-1-0.1-1.8-1.1-1.6-2.1l0,0c0,0,0.2-2.6-2.5-7.2c-0.4-0.7-0.9-1.5-1.4-2.3
					c-3.5-5.6-8.3-13.2-8.3-25.8c0-10.2,3.3-18.5,3.4-18.9c0.4-1,1.5-1.4,2.5-1.1c1,0.4,1.5,1.5,1.1,2.5c0,0.1-3.1,8-3.1,17.5
					c0,11.5,4.5,18.6,7.7,23.8c0.5,0.8,1,1.7,1.5,2.4c3.5,5.8,3.1,9.3,3,9.6C40.2,137.6,39.4,138.3,38.5,138.3L38.5,138.3z"/>
				<path d="M184.6,193.2c-1,0-1.8-0.8-1.9-1.8c0-0.1-0.5-6.5-4.4-15.5c-3.6-8.3-11-20.6-25.6-32.1c-8.3-6.5-17.6-9.8-25.8-12.7
					c-10.2-3.6-19-6.7-21.5-14.9c-0.8-2.5-0.2-5.6,0.5-9.1c0.6-3,1.3-6.3,1.2-9.8c-0.2-7.6-3.8-13.6-3.8-13.7
					c-0.5-0.9-0.2-2.1,0.7-2.6s2.1-0.2,2.6,0.7c0.2,0.3,4.1,6.9,4.4,15.5c0.1,3.9-0.6,7.5-1.2,10.7c-0.6,3-1.1,5.7-0.6,7.3
					c2,6.4,9.5,9,19.1,12.4c8.5,3,18.1,6.4,26.9,13.3c29.3,23.1,31.4,49.2,31.5,50.3c0.1,1.1-0.7,1.9-1.8,2
					C184.8,193.1,184.7,193.1,184.6,193.2L184.6,193.2z"/>
				<g>
					<path d="M24.5,75.6c-0.7,0-1.3-0.3-1.6-0.4c-2.5-1.6-2.5-6.4-2-8.1c1-3.8,4.1-8.6,13.1-9.8c6.9-1,14.9,6.1,15.2,6.4
						c0.8,0.7,0.8,1.9,0.1,2.7s-1.9,0.8-2.7,0.1c-1.9-1.7-7.9-6.1-12.2-5.5c-5.6,0.8-8.9,3.2-10,7.1c-0.2,0.9-0.1,2.6,0.2,3.4
						c5.1-4.5,9.3-4.1,9.8-4.1c1,0.1,1.8,1.1,1.7,2.1c-0.1,1-1.1,1.8-2.1,1.7c-0.1,0-3.1-0.2-7,3.3C26.1,75.4,25.2,75.6,24.5,75.6
						L24.5,75.6z"/>
					<path d="M29.9,81c-1,0-1.9-0.8-1.9-1.9v-8c0-1.1,0.9-1.9,1.9-1.9s1.9,0.8,1.9,1.9v8C31.8,80.1,31,81,29.9,81z"/>
				</g>
				<g>
					<path d="M109.4,75.6c-0.7,0-1.6-0.3-2.6-1.2c-3.9-3.5-6.8-3.3-7-3.3c-1,0.1-2-0.7-2.1-1.7s0.6-1.9,1.7-2.1
						c0.5-0.1,4.7-0.4,9.8,4.1c0.3-0.9,0.4-2.5,0.2-3.4c-1.1-3.9-4.4-6.3-10-7.1c-4.3-0.6-10.2,3.8-12.2,5.5c-0.8,0.7-2,0.6-2.7-0.1
						s-0.6-2,0.1-2.7c0.3-0.3,8.3-7.4,15.2-6.4c9,1.2,12.1,6,13.1,9.8c0.4,1.7,0.5,6.5-2,8.1C110.7,75.4,110.1,75.7,109.4,75.6
						L109.4,75.6z"/>
					<path d="M104.9,82c-1,0-1.8-0.8-1.9-1.8l-0.6-8.8c-0.1-1.1,0.7-2,1.8-2c1.1-0.1,2,0.7,2,1.8l0.6,8.8c0.1,1.1-0.7,2-1.8,2
						C105,82,105,82,104.9,82L104.9,82z"/>
				</g>
				<path d="M84.1,69.2c-0.2,0-0.5,0-0.7-0.1c-0.1,0-8.9-3.5-18.4-3.5s-14.6,3.3-14.6,3.3c-0.9,0.6-2.1,0.3-2.6-0.6
					c-0.6-0.9-0.3-2.1,0.6-2.6c0.2-0.2,6.2-3.9,16.7-3.9s19.4,3.6,19.8,3.8c1,0.4,1.4,1.5,1.1,2.5C85.6,68.7,84.9,69.2,84.1,69.2
					L84.1,69.2z"/>
			</g>
		</g>
	</g>
</g>
</svg>
