<?xml version="1.0" encoding="UTF-8"?><svg id="ear" xmlns="http://www.w3.org/2000/svg" xmlns:xlink="http://www.w3.org/1999/xlink" viewBox="0 0 140 140"><defs><clipPath id="clippath"><rect x="-10" y="-1" width="160" height="105" style="fill:none;"/></clipPath></defs><g style="clip-path:url(#clippath);"><g><path d="M209.47,76.78c-13.02,0-8.12,29.03-12.93,65.06-2.61,19.59-7.78,35.34-11.06,43.92-2.21-5.61-5.14-11.96-8.94-19.49-14.06-27.9-44.34-35.4-44.34-35.4-7.79-3.47-20.48-9.12-20.57-9.16-1.25-1.02-2.48-2.55-2.77-4.67-.77-5.64,.9-6.36,1.03-16.15,.1-7.53-.42-13.41-6.13-20.68,1.23-4.8,5.51-22.74,1.74-24.96-3.67-2.16-15.1,7.84-18.63,11.06-6.17-2.71-11.8-2.6-18.29-2.6h-.73c-6.68,0-12.44,0-18.82,3.05-2.79-2.58-15.26-13.78-19.12-11.51-4.36,2.56,2.05,26.15,2.05,26.15,0,0,.85-.98,2.19-2.33-6.83,8.85-6.91,17.31-6.8,25.4,.13,9.8,8.46,22.05,10.04,24.69,1.58,2.64,1.49,12.74,1.49,12.74h.06c-1.25,7.32-3.95,25.77-1.56,36.46,3.03,13.54,9.44,31.23,18.23,46.06,8.03,13.55,2.49,28.5,2.49,28.5,0,0-3.84,5.58-1.79,10.48,2.05,4.9,5.86,5.62,11.67,4.7,5.24-.82,5.33-3.13,11.14-3.13s6.67,4.1,17.43,2.56c7.68-1.1,10.77-5.13,10.9-10.34,.03-1.08-.79-3.61-1.57-5.78h0s3.48-.55,7.03,4.55c.91,1.31-1.03,4.92,1.58,7.72,2.6,2.8,1.5,3.92,8.32,3.63s27.27,3,33.73-.48c6.46-3.47,28.47-14.43,32.31-34.43,.26-1.37,.51-2.7,.74-3.99,.15,.05,.29,.11,.45,.15,0,0,17.29-14.45,24.5-67.73,5.16-38.13,9.96-84.06-5.07-84.06Z" style="fill:#fff;"/><g><path d="M30.48,79.7c-1.05,0-1.9-.85-1.9-1.9,0-.59-.38-2.8-.74-4.94-2.21-12.98-2.65-18.62,.38-19.99,4.57-2.06,18.59,6.97,20.8,9.82,.64,.83,.49,2.02-.34,2.67-.83,.64-2.02,.49-2.67-.34-2.14-2.76-13.17-8.69-15.98-8.69h0c-.75,2.38,.92,12.13,1.56,15.9,.52,3.06,.8,4.7,.8,5.58,0,1.05-.85,1.9-1.9,1.9Z"/><path d="M105.76,79.7c-1.05,0-1.9-.85-1.9-1.9,0-.87,.27-2.51,.8-5.58,.65-3.78,2.32-13.57,1.55-15.92h-.04c-2.74,0-13.8,5.94-15.95,8.71-.64,.83-1.84,.98-2.67,.34s-.98-1.84-.34-2.67c2.21-2.85,16.24-11.87,20.8-9.82,3.03,1.37,2.6,7.01,.38,19.99-.36,2.14-.74,4.35-.74,4.94,0,1.05-.85,1.9-1.9,1.9Z"/><path d="M85.13,69.15c-.23,0-.47-.04-.7-.13-.09-.04-8.92-3.5-18.43-3.5s-14.56,3.3-14.62,3.33c-.88,.56-2.06,.3-2.62-.58-.56-.88-.31-2.05,.56-2.62,.25-.16,6.22-3.94,16.67-3.94s19.45,3.62,19.84,3.77c.97,.39,1.45,1.49,1.06,2.47-.3,.75-1.01,1.2-1.77,1.2Z"/><path d="M39.48,138.26c-.09,0-.18,0-.27-.02-1.04-.15-1.76-1.11-1.62-2.14h0s.19-2.57-2.54-7.2c-.44-.74-.93-1.52-1.44-2.34-3.51-5.58-8.31-13.23-8.31-25.83,0-10.22,3.27-18.53,3.41-18.88,.39-.97,1.49-1.45,2.47-1.06,.97,.39,1.45,1.49,1.06,2.47-.03,.08-3.14,8.01-3.14,17.47,0,11.51,4.47,18.62,7.73,23.81,.54,.85,1.04,1.66,1.5,2.43,3.45,5.83,3.09,9.28,3.04,9.65-.13,.95-.95,1.64-1.88,1.64Z"/><path d="M185.65,193.16c-.99,0-1.83-.77-1.89-1.77,0-.06-.5-6.46-4.44-15.48-3.63-8.32-11.02-20.65-25.6-32.13-8.29-6.53-17.59-9.81-25.81-12.71-10.18-3.59-18.97-6.69-21.5-14.89-.78-2.53-.17-5.59,.53-9.13,.59-2.98,1.26-6.35,1.16-9.85-.21-7.57-3.79-13.62-3.82-13.68-.54-.9-.25-2.07,.65-2.61,.9-.54,2.06-.25,2.6,.65,.17,.28,4.12,6.93,4.37,15.53,.11,3.92-.6,7.52-1.23,10.69-.6,3.04-1.12,5.66-.62,7.27,1.96,6.37,9.54,9.04,19.13,12.43,8.49,2.99,18.11,6.39,26.89,13.3,29.3,23.08,31.41,49.23,31.49,50.33,.07,1.05-.72,1.95-1.77,2.03-.04,0-.09,0-.13,0Z"/></g></g></g></svg>