<?xml version="1.0" encoding="utf-8"?>
<!-- Generator: Adobe Illustrator 26.3.1, SVG Export Plug-In . SVG Version: 6.00 Build 0)  -->
<svg version="1.1" id="ear" xmlns="http://www.w3.org/2000/svg" xmlns:xlink="http://www.w3.org/1999/xlink" x="0px" y="0px"
	 viewBox="0 0 140 140" style="enable-background:new 0 0 140 140;" xml:space="preserve">
<style type="text/css">
	.st0{clip-path:url(#SVGID_00000054229472875886700300000009891265354118733719_);}
	.st1{fill:#FFFFFF;}
</style>
<g>
	<defs>
		<rect id="SVGID_1_" x="-10" y="-1" width="160" height="105"/>
	</defs>
	<clipPath id="SVGID_00000176019027538726708620000010539923136325371562_">
		<use xlink:href="#SVGID_1_"  style="overflow:visible;"/>
	</clipPath>
	<g style="clip-path:url(#SVGID_00000176019027538726708620000010539923136325371562_);">
		<g>
			<path class="st1" d="M208.5,77.6c-13,0-8.1,29-12.9,65.1c-2.5,18.6-7.3,33.8-10.6,42.6c-2.2-5.6-5.1-11.9-8.9-19.4
				c-14.1-27.9-44.4-35.3-44.4-35.3l0,0c-7.8-3.5-20.5-9.1-20.6-9.1c-1.2-1-2.5-2.6-2.8-4.7c-0.8-5.6,0.9-6.4,1-16.2
				c0.1-7.3-0.4-13-5.6-19.9c1.3-8.9,3.9-29.5,0.1-30.7c-2.3-0.8-13,10.4-18.1,15.9c-6-2.5-11.5-2.4-17.9-2.4h-0.7
				c-6.6,0-12.3,0-18.6,3c-4.8-5.2-16.3-17.3-18.6-16.5c-4.2,1.4-0.4,27.5,0.6,33.6c-3.8,7.2-3.9,14.1-3.8,20.8
				c0.1,9.8,8.5,22,10.1,24.7c1.6,2.6,1.5,12.7,1.5,12.7h0.1c-1.2,7.3-3.9,25.8-1.5,36.5c3,13.5,9.5,31.2,18.3,46
				c8,13.5,2.5,28.5,2.5,28.5s-3.8,5.6-1.8,10.5c2,4.9,5.9,5.6,11.7,4.7c5.2-0.8,5.3-3.1,11.1-3.1s6.7,4.1,17.4,2.5
				c7.7-1.1,10.8-5.1,10.9-10.4c0-1.1-0.8-3.6-1.6-5.8l0,0c0,0,3.5-0.6,7,4.5c0.9,1.3-1,4.9,1.6,7.7c2.6,2.8,1.5,3.9,8.3,3.6
				c6.8-0.3,27.3,3,33.7-0.5s28.4-14.5,32.3-34.5c0.2-0.9,0.3-1.8,0.5-2.6c0,0,0.1,0,0.1,0c0,0,17.3-14.4,24.5-67.7
				C218.7,123.6,223.5,77.6,208.5,77.6L208.5,77.6z"/>
			<g>
				<path d="M29.8,80c-0.6,0-1.2-0.3-1.6-0.8c-2.9-4.2-3.9-22-2.2-28c0.3-1,0.8-2.4,2.1-3c5.2-2.4,20,14.7,20.2,14.9
					c0.6,0.8,0.5,2-0.3,2.7c-0.8,0.6-2,0.5-2.7-0.3c-2.8-3.7-12.5-12.8-15.5-13.6c-1.5,3.5-0.9,21.7,1.5,25.3
					c0.6,0.9,0.4,2.1-0.5,2.6C30.5,79.9,30.1,80,29.8,80z"/>
				<path d="M104,80c-0.4,0-0.7-0.1-1.1-0.3c-0.9-0.6-1.1-1.8-0.5-2.6c2.4-3.6,3.1-21.8,1.5-25.3c-3,0.8-12.7,9.9-15.5,13.6
					c-0.6,0.8-1.8,1-2.7,0.3c-0.8-0.6-1-1.8-0.3-2.7c0.1-0.2,14.9-17.2,20.2-14.9c1.3,0.6,1.8,2,2.1,3c1.7,6,0.7,23.8-2.2,28
					C105.2,79.7,104.6,80,104,80z M103.8,51.4L103.8,51.4z"/>
				<path d="M84.4,69.5c-0.2,0-0.5,0-0.7-0.1c-0.1,0-8.9-3.5-18.4-3.5s-14.6,3.3-14.6,3.3c-0.9,0.6-2.1,0.3-2.6-0.6
					c-0.6-0.9-0.3-2.1,0.6-2.6c0.2-0.2,6.2-3.9,16.7-3.9s19.5,3.6,19.8,3.8c1,0.4,1.4,1.5,1.1,2.5C85.9,69,85.2,69.5,84.4,69.5z"/>
				<path d="M38.8,138.6c-0.1,0-0.2,0-0.3,0c-1-0.1-1.8-1.1-1.6-2.1l0,0c0,0,0.2-2.6-2.5-7.2c-0.4-0.7-0.9-1.5-1.4-2.3
					c-3.5-5.6-8.3-13.2-8.3-25.8c0-10.2,3.3-18.5,3.4-18.9c0.4-1,1.5-1.4,2.5-1.1s1.5,1.5,1.1,2.5c0,0.1-3.1,8-3.1,17.5
					c0,11.5,4.5,18.6,7.7,23.8c0.5,0.8,1,1.7,1.5,2.4c3.5,5.8,3.1,9.3,3,9.6C40.6,137.9,39.7,138.6,38.8,138.6L38.8,138.6z"/>
				<path d="M186.9,194.8c-0.9,0-1.8-0.7-1.9-1.6c0-0.1-1-6.8-5.4-16.2c-4.1-8.6-12-21.4-26.6-32.9c-8.3-6.5-17.6-9.8-25.8-12.7
					c-10.2-3.6-19-6.7-21.5-14.9c-0.8-2.5-0.2-5.6,0.5-9.1c0.6-3,1.3-6.3,1.2-9.8c-0.2-7.6-3.8-13.6-3.8-13.7
					c-0.5-0.9-0.2-2.1,0.7-2.6s2.1-0.2,2.6,0.7c0.2,0.3,4.1,6.9,4.4,15.5c0.1,3.9-0.6,7.5-1.2,10.7c-0.6,3-1.1,5.7-0.6,7.3
					c2,6.4,9.5,9,19.1,12.4c8.5,3,18.1,6.4,26.9,13.3c29.2,23,33.3,50.3,33.4,51.5c0.1,1-0.6,2-1.6,2.1
					C187.1,194.8,187,194.8,186.9,194.8L186.9,194.8z"/>
			</g>
		</g>
	</g>
</g>
</svg>
