<?xml version="1.0" encoding="utf-8"?>
<!-- Generator: Adobe Illustrator 26.3.1, SVG Export Plug-In . SVG Version: 6.00 Build 0)  -->
<svg version="1.1" id="ear" xmlns="http://www.w3.org/2000/svg" xmlns:xlink="http://www.w3.org/1999/xlink" x="0px" y="0px"
	 viewBox="0 0 140 140" style="enable-background:new 0 0 140 140;" xml:space="preserve">
<style type="text/css">
	.st0{clip-path:url(#SVGID_00000057833189482300282930000006160948920689702064_);}
	.st1{fill:#FFFFFF;}
</style>
<g>
	<defs>
		<rect id="SVGID_1_" x="-9" y="-1" width="160" height="105"/>
	</defs>
	<clipPath id="SVGID_00000053511816866654894160000011649839999777243805_">
		<use xlink:href="#SVGID_1_"  style="overflow:visible;"/>
	</clipPath>
	<g style="clip-path:url(#SVGID_00000053511816866654894160000011649839999777243805_);">
		<g>
			<path class="st1" d="M84.7,69.2c0,0,26.5-26,30.2-22.4c1.9,1.8,2.5,20.8-1.1,29.1c-3.5,8-9,14.6-9,14.6s-9.4-9.5-13.5-13.4
				C87.2,73.2,84.7,69.2,84.7,69.2L84.7,69.2z"/>
			<path class="st1" d="M54.7,69.2c0,0-26.5-26-30.2-22.4c-1.9,1.8-2.5,20.8,1.1,29.1c3.5,8,9,14.6,9,14.6s9.4-9.5,13.5-13.4
				C52.2,73.2,54.8,69.2,54.7,69.2L54.7,69.2z"/>
			<path class="st1" d="M36.9,78.1c-6,6.6-7.6,18.2-4.9,27.1s23.5,25.8,39.2,25.8s28.9-13.1,35.9-24.7c3.4-5.6,4.5-20.4-4.7-28.2
				c-10.8-9.1-16.5-12.2-33.4-12.2S46.4,67.6,36.9,78.1z"/>
			<path class="st1" d="M174.3,195.9c-9.1-19.6-25.5-27.9-41.2-40.2c-5-3.9-11.8-6.1-17.9-11.2c-13.4-11.2-13.4-30.3-13.4-30.3
				s-15.9,11.1-29.4,11.1s-18.8-1-26.7-6.6c0,0,3.2,7.9,3.1,15.6c-0.1,10.6-2.7,24.1-3.4,35.9c-1.4,25.7,7.9,70.3,15.7,86.3
				c7.1,14.6,6.7,43.7,6.7,43.7s-9.7,5.9-7.8,11.2c1.8,5.3,7.2,5.5,12.3,4.5c4.6-0.9,1.6-2.1,6.7-2.1s7.3,4.9,16.8,3.2
				c6.8-1.2,9-4.3,3.4-10.8c-1.5-1.7-2.2-6.5-2.2-6.5s-0.7,6,1.4-5.1c2.7,5.6,10.7,1.1,13.3,5.2c0.9,1.4-1,5.3,1.6,8.3
				s1.5,4.2,8.3,3.9c6.8-0.3,27.6,2.3,34.1-1.4s25-12.5,28.8-34.1C188.8,251.8,190.7,231,174.3,195.9L174.3,195.9z"/>
			<path d="M183.8,227.4C183.8,227.4,183.8,227.4,183.8,227.4c-1.1,0-1.9-0.9-1.9-1.9l0,0c0-0.1,0.1-5.4-2.6-13.6
				c-2.4-7.5-7.7-19-19.2-31c-14.2-14.9-23.6-20.5-33.6-26.5c-3.4-2.1-7-4.2-10.8-6.7c-11.3-7.5-17.9-21.4-15.4-32.3
				c0.9-3.8,2.4-6.3,3.9-8.7c1.6-2.5,2.9-4.7,3.4-8.2c0.6-4.3,0.1-8.9-0.6-12c-0.2-1,0.5-2,1.5-2.2c1-0.2,2,0.5,2.2,1.5
				c0.7,3.4,1.3,8.5,0.6,13.3c-0.6,4.2-2.3,7-3.9,9.7c-1.4,2.3-2.7,4.4-3.4,7.6c-2.1,9.3,3.9,21.7,13.8,28.3
				c3.7,2.5,7.2,4.6,10.6,6.6c10.2,6.1,19.8,11.8,34.4,27.1c23.1,24.2,22.8,46.3,22.8,47.2C185.7,226.6,184.9,227.4,183.8,227.4
				L183.8,227.4z"/>
			<path d="M86.4,70.4c-0.3,0-0.6-0.1-0.9-0.2c0,0-4.8-2.4-15.3-2.4S54,70.2,53.9,70.3c-1,0.4-2.1,0-2.5-0.9c-0.4-0.9,0-2.1,0.9-2.5
				c0.2-0.1,6.2-2.8,17.8-2.8s16.9,2.7,17.1,2.9c0.9,0.5,1.3,1.6,0.8,2.6C87.7,70.1,87,70.4,86.4,70.4L86.4,70.4z"/>
			<path d="M111.1,82.9c-0.4,0-0.7-0.1-1.1-0.3c-0.9-0.6-1.1-1.8-0.5-2.6c2.1-3.2,3.7-6,4.8-8.2c3.3-7.2,1.9-21.7,0.1-24.2
				c-2.2,0.6-9.7,5-15.9,10.3c-2.8,2.4-6.2,6.2-7.7,8.1c-0.7,0.8-1.8,0.9-2.7,0.3c-0.8-0.7-0.9-1.8-0.3-2.7c1.6-2,5.2-6,8.2-8.6
				c4.9-4.2,15.9-11.9,19.2-11.2c1.1,0.2,2,1,2.7,2.3c2.5,4.8,3.3,19.7-0.2,27.2c-1.1,2.4-2.8,5.3-5,8.7
				C112.3,82.6,111.7,82.9,111.1,82.9L111.1,82.9z"/>
			<path d="M28,82.9c-0.6,0-1.2-0.3-1.6-0.8c-2.2-3.4-3.9-6.3-5-8.7c-3.5-7.5-2.6-22.5-0.2-27.2c0.7-1.3,1.6-2.1,2.7-2.3
				c3.3-0.6,14.2,7,19.2,11.2c3,2.6,6.5,6.6,8.2,8.6c0.7,0.8,0.5,2-0.3,2.7s-2,0.5-2.7-0.3c-1.5-1.9-4.9-5.7-7.7-8.1
				c-6.2-5.3-13.7-9.7-15.9-10.3c-1.7,2.4-3.2,16.9,0.1,24.2c1,2.2,2.6,4.9,4.8,8.2c0.6,0.9,0.3,2.1-0.5,2.6
				C28.8,82.8,28.4,82.9,28,82.9L28,82.9z"/>
			<path d="M49,131.8c-0.1,0-0.2,0-0.3,0c-1-0.2-1.7-1.1-1.5-2.2c0-0.2,0.4-3-1.6-6c-0.6-0.8-1.9-2.1-3.4-3.5
				c-4.7-4.4-11.9-11.1-13.3-20.9c-0.7-4.8-0.1-9.9,0.6-13.3c0.2-1,1.2-1.7,2.2-1.5c1,0.2,1.7,1.2,1.5,2.2c-0.6,3.1-1.2,7.7-0.5,12
				c1.2,8.5,7.8,14.7,12.1,18.7c1.8,1.7,3.2,3,4,4.2c2.9,4.4,2.3,8.6,2.2,8.8C50.7,131.1,49.9,131.8,49,131.8L49,131.8z"/>
			<path d="M68.8,318.2c-6.8,0-10.8-3.6-10.9-9.8c0-4.1,2.7-5.7,4.8-7c2.1-1.3,3.3-2.1,3.3-4.4c0-6.9-3.1-30.6-5.5-37.8
				c-0.4-1.2-1-2.8-1.7-4.7c-3.8-10.4-11.6-31.9-14.1-51.8c-3.1-23.9-1.7-32.2,0.3-43.5c0.3-1.7,0.6-3.4,0.9-5.2
				c0.8-5.3,1.3-17.5,1.3-17.6c0-1.1,1-1.9,2-1.8c1,0,1.9,0.9,1.8,2c0,0.5-0.5,12.6-1.4,18.1c-0.3,1.9-0.6,3.6-0.9,5.3
				c-1.9,11-3.2,19-0.2,42.4c2.5,19.4,10.2,40.7,13.9,50.9c0.7,2,1.3,3.6,1.7,4.8c2.7,8.1,5.7,32.4,5.7,39c0,4.5-2.9,6.3-5.1,7.6
				c-2,1.2-3,1.9-2.9,3.7c0,4,2.4,6,7.1,6h0.1c5.4,0,7.6-2.1,7.7-2.1c0.8-0.7,1.9-0.7,2.7,0c0.7,0.7,0.7,1.9,0,2.6
				C78.9,315.3,75.9,318.2,68.8,318.2L68.8,318.2L68.8,318.2z"/>
		</g>
	</g>
</g>
</svg>
