<?xml version="1.0" encoding="utf-8"?>
<!-- Generator: Adobe Illustrator 26.3.1, SVG Export Plug-In . SVG Version: 6.00 Build 0)  -->
<svg version="1.1" id="ear" xmlns="http://www.w3.org/2000/svg" xmlns:xlink="http://www.w3.org/1999/xlink" x="0px" y="0px"
	 viewBox="0 0 140 140" style="enable-background:new 0 0 140 140;" xml:space="preserve">
<style type="text/css">
	.st0{clip-path:url(#SVGID_00000036239831362957253620000008084308294008774286_);}
	.st1{fill:#FFFFFF;}
</style>
<g>
	<defs>
		<rect id="SVGID_1_" x="-10" y="-1" width="160" height="105"/>
	</defs>
	<clipPath id="SVGID_00000013893387952312191460000006522136654353782672_">
		<use xlink:href="#SVGID_1_"  style="overflow:visible;"/>
	</clipPath>
	<g style="clip-path:url(#SVGID_00000013893387952312191460000006522136654353782672_);">
		<g>
			<path class="st1" d="M209.5,77.4c-13,0-8.1,29-12.9,65.1c-2.9,21.6-8.9,38.6-12,46.4c-2.3-6.3-5.6-13.6-10.1-22.5
				c-14.1-27.9-44.3-35.4-44.3-35.4l0,0c-7.8-3.5-20.5-9.1-20.6-9.2c-1.2-1-2.5-2.6-2.8-4.7c-0.8-5.6,0.9-6.4,1-16.2
				c0.1-6.8-0.3-12.3-4.6-18.6c1.2-6.5,4.2-24.8,0.7-26.9c-3.3-2-14,6.9-18.8,11c-6.3-2.8-12-2.7-18.6-2.7h-0.7
				c-6.5,0-12.1,0-18.3,2.8c-4-3.4-12.3-10.2-16.9-11.3c-1-0.2-1,3.1-1.6,3.5c-0.5,0.3-3.7-1-4,0c-1.5,5.7,2.9,20.1,4.3,24.5
				c-4.1,7.3-4.1,14.4-4.1,21.2c0.1,9.8,8.5,22.1,10,24.7s1.5,12.7,1.5,12.7h0.1c-1.2,7.3-4,25.8-1.6,36.5
				c3,13.5,9.4,31.2,18.2,46.1c8,13.6,2.5,28.5,2.5,28.5s-3.8,5.6-1.8,10.5c2,4.9,5.9,5.6,11.7,4.7c5.2-0.8,5.3-3.1,11.1-3.1
				s6.7,4.1,17.4,2.6c7.7-1.1,10.8-5.1,10.9-10.3c0-1.1-0.8-3.6-1.6-5.8l0,0c0,0,3.5-0.6,7,4.6c0.9,1.3-1,4.9,1.6,7.7
				c2.6,2.8,1.5,3.9,8.3,3.6s27.3,3,33.7-0.5c6.5-3.5,28.5-14.4,32.3-34.4c0.3-1.5,0.6-3,0.8-4.4c0.7,0.6,1.6,1,2.5,1.2
				c0,0,17.3-14.4,24.5-67.7C219.7,123.3,224.5,77.4,209.5,77.4L209.5,77.4z"/>
			<g>
				<g>
					<path d="M28.8,79.8c-1,0-1.9-0.8-1.9-1.9c0-0.6-0.7-2.9-1.3-4.8c-1.9-6.2-3.4-11.7-2.5-14.9c0.5-2.1,2.8-1.6,3.6-1.4
						c0.4,0.1,1,0.2,1.3,0.2c0-0.3,0-0.9-0.1-1.1c-0.1-0.7-0.3-1.7,0.5-2.5c0.5-0.5,1.1-0.7,1.7-0.6c5.1,0.7,14.8,7,17.2,10
						c0.6,0.8,0.5,2-0.3,2.7c-0.8,0.6-2,0.5-2.7-0.3c-1.6-2-8.1-6.4-12.5-8c-0.1,1.2-0.5,2.5-2.1,3.2c-1,0.5-2.2,0.4-3.1,0.2
						c0.1,3,1.6,8.2,2.6,11.4c0.9,3.1,1.4,4.8,1.4,5.9S29.8,79.8,28.8,79.8L28.8,79.8z"/>
					<path d="M104.1,79.8c-1.1,0-1.9-0.8-1.9-1.9c0-0.9,0.3-2.5,0.8-5.6c0.7-3.8,2.3-13.6,1.6-15.9h0c-2.7,0-13.8,5.9-15.9,8.7
						c-0.6,0.8-1.8,1-2.7,0.3c-0.8-0.6-1-1.8-0.3-2.7c2.2-2.8,16.2-11.9,20.8-9.8c3,1.4,2.6,7,0.4,20c-0.4,2.1-0.7,4.3-0.7,4.9
						C106,79,105.1,79.8,104.1,79.8L104.1,79.8z"/>
					<path d="M83.4,69.3c-0.2,0-0.5,0-0.7-0.1c-0.1,0-8.9-3.5-18.4-3.5S49.8,69,49.7,69c-0.9,0.6-2.1,0.3-2.6-0.6
						c-0.6-0.9-0.3-2.1,0.6-2.6c0.2-0.2,6.2-3.9,16.7-3.9s19.5,3.6,19.8,3.8c1,0.4,1.4,1.5,1.1,2.5C84.9,68.9,84.2,69.3,83.4,69.3z"
						/>
				</g>
				<g>
					<path d="M37.8,138.4c-0.1,0-0.2,0-0.3,0c-1-0.1-1.8-1.1-1.6-2.1l0,0c0,0,0.2-2.6-2.5-7.2c-0.4-0.7-0.9-1.5-1.4-2.3
						c-3.5-5.6-8.3-13.2-8.3-25.8c0-10.2,3.3-18.5,3.4-18.9c0.4-1,1.5-1.4,2.5-1.1s1.5,1.5,1.1,2.5c0,0.1-3.1,8-3.1,17.5
						c0,11.5,4.5,18.6,7.7,23.8c0.5,0.8,1,1.7,1.5,2.4c3.5,5.8,3.1,9.3,3,9.6C39.6,137.7,38.7,138.4,37.8,138.4L37.8,138.4z"/>
					<path d="M185.9,194.6c-0.9,0-1.8-0.7-1.9-1.6c0-0.1-1-6.8-5.4-16.2c-4.1-8.6-12-21.4-26.6-32.9c-8.3-6.5-17.6-9.8-25.8-12.7
						c-10.2-3.6-19-6.7-21.5-14.9c-0.8-2.5-0.2-5.6,0.5-9.1c0.6-3,1.3-6.3,1.2-9.8c-0.2-7.6-3.8-13.6-3.8-13.7
						c-0.5-0.9-0.2-2.1,0.7-2.6s2.1-0.2,2.6,0.7c0.2,0.3,4.1,6.9,4.4,15.5c0.1,3.9-0.6,7.5-1.2,10.7c-0.6,3-1.1,5.7-0.6,7.3
						c2,6.4,9.5,9,19.1,12.4c8.5,3,18.1,6.4,26.9,13.3c29.2,23,33.3,50.3,33.4,51.5c0.1,1-0.6,2-1.6,2.1
						C186.1,194.6,186,194.6,185.9,194.6L185.9,194.6z"/>
				</g>
			</g>
		</g>
	</g>
</g>
</svg>
