<svg width="64" height="64" viewBox="0 0 64 64" xmlns="http://www.w3.org/2000/svg">
  <defs>
    <linearGradient id="comment-bg" x1="0%" y1="0%" x2="100%" y2="100%">
      <stop offset="0%" stop-color="#E6F4FF"/>
      <stop offset="100%" stop-color="#D0E8FF"/>
    </linearGradient>
  </defs>
  <circle cx="32" cy="32" r="30" fill="url(#comment-bg)"/>
  <!-- 对话气泡 -->
  <path
    d="M20 22c0-1.7 1.3-3 3-3h18c1.7 0 3 1.3 3 3v10c0 1.7-1.3 3-3 3h-9.2L24 42v-7H23c-1.7 0-3-1.3-3-3V22z"
    fill="#FFFFFF"
  />
  <!-- @ 符号 -->
  <path
    d="M31 24c-3.3 0-6 2.4-6 5.6 0 3.4 2.5 5.9 6 5.9 1.7 0 3-0.6 3.8-1.5 0.6-0.7 0.9-1.5 1.1-2.4l0.1-0.5c0.1-0.4 0.3-0.6 0.6-0.6 0.4 0 0.6 0.3 0.6 0.9v3.3h2v-3.6c0-2-0.9-3.2-2.5-3.2-0.9 0-1.7 0.4-2.1 1.1-0.1-0.3-0.3-0.6-0.5-0.8-0.7-0.8-1.8-1.3-3.1-1.3zm0 2c1.8 0 3.1 1.1 3.1 2.7 0 1.7-1.3 2.9-3.1 2.9-1.9 0-3.2-1.2-3.2-2.9 0-1.6 1.3-2.7 3.2-2.7z"
    fill="#5C8ED6"
  />
</svg>


