<?xml version="1.0" encoding="utf-8"?>
<!-- Generator: Adobe Illustrator 26.2.1, SVG Export Plug-In . SVG Version: 6.00 Build 0)  -->
<svg version="1.1" id="レイヤー_1" xmlns="http://www.w3.org/2000/svg" xmlns:xlink="http://www.w3.org/1999/xlink" x="0px"
	 y="0px" viewBox="0 0 280 280" style="enable-background:new 0 0 280 280;" xml:space="preserve">
<style type="text/css">
	.st0{fill:#FFFFFF;}
</style>
<g>
	<path class="st0" d="M237.2,84.7c-16.5,0-10.3,29-16.3,65.1c-1.2,7-2.8,13.5-4.5,19.3c-1.8-4.2-4.1-8.7-7.1-13.6
		c-14.3-23.3-43.3-31-63-34c-20.1-3.1-24-11-24-11s-0.4,0.4-1,1c0-0.3,0-0.6,0-1c0-10-0.1-16.3-3.7-22.2c0.9-6.3,3-24-0.4-26
		c-3.3-2-14.9,6.5-19.2,9.9c-7.8-3.6-15.7-4.7-24.2-4.7c-8.8,0-14.2,1.1-20.8,4.9c-4-3.2-15.9-12.2-19.3-10.2
		c-3.2,1.9,0.2,18,1.8,25c-4.6,6.3-5.3,12.1-5.2,18.3c0.1,8.9,0.9,18.2,6.6,26.3c3.8,5.4,10.4,13.7,10.4,13.7s-0.2,0.4,0.6,0.8
		c-0.1,3.4-0.5,8-1.6,14.2c-2.4,13.7,0.6,33,9,53c6.1,14.6,4,29.5,4,29.5s-4,4.6-2,9.5s9.2,5.9,15,5c5.2-0.8,3-2,9-2
		c4.1,0,8.3,6.5,19,5c7.6-1.1,10.9-2.8,11-8c0-0.9-1.8-7.1-2-11c-0.3-5.5,1-9,1-9s2,4,8,7s19.8,2.9,13,6c-2.4,1.1-1.1,5.9,1,9
		c2.8,4,19.4,3.9,25.7,3.9c12.2,0,31.4-4.5,37.4-8c5.7-3.3,16.8-5.6,21.1-22.5c9.1-9.2,21.7-27.1,27.1-59.1
		C250.1,130.7,256.2,84.7,237.2,84.7z"/>
	<g>
		<path d="M250.3,98.6c-0.2-1-1.1-1.8-2.2-1.6c-1,0.2-1.8,1.1-1.6,2.2c0.6,4.1,0.3,7.6,0.1,10.1c-0.1,0.9-0.1,1.7-0.1,2.3v2.3
			c-0.2,11.4-0.6,32.7-4.8,52.5c-5.3,25.1-16.1,46.5-18.2,50.5c-0.8,1.5-1.5,2.8-2.2,4c1.6-12.3,0.6-24.8,0.5-25.6
			c-0.1-1-1-1.8-2.1-1.7c-1,0.1-1.8,1-1.7,2.1c0,0.3,2.2,27.2-4.8,39.9c-6.7,12.2-30.9,19.4-39.7,19.8c-4,0.2-6.9,0.4-9.5,0.7
			c-3,0.3-5.6,0.5-9.1,0.5c-0.7,0-1.6,0-2.7,0c-4.4,0.1-12.7,0.3-15.6-0.9c-2.5-1-4.5-5.7-3.9-8.9c0.7-3.6,9.7-8.4,15.8-10.6
			c1-0.4,1.5-1.4,1.1-2.4s-1.5-1.5-2.4-1.1c-0.2,0.1-4.1,1.5-8.3,3.8c-3.2,1.7-5.6,3.4-7.3,5.1c-0.8,0-3.6-0.1-6.4-0.7
			c-3.1-0.7-6.3-2.9-6.4-2.9c-0.9-0.6-2-0.4-2.6,0.5s-0.4,2,0.5,2.6c0.2,0.1,3.8,2.6,7.7,3.5c1.7,0.4,3.5,0.6,4.8,0.7
			c-0.1,0.3-0.2,0.6-0.2,0.9c-0.9,4.5,1.6,11.2,6.1,13.1c2.4,1,6.9,1.3,11.7,1.3c1.8,0,3.6,0,5.4-0.1c1.1,0,2,0,2.6,0
			c3.7,0,6.4-0.3,9.5-0.6c2.5-0.2,5.4-0.5,9.3-0.7c4.4-0.2,13.1-2,21.8-5.7c7.3-3,16.8-8.3,21.1-16.1c1.1-2.1,2.1-4.5,2.8-7.1
			c0.1-0.1,0.2-0.2,0.3-0.3c2.3-2.9,4.6-6.5,7.2-11.4c2.1-4.1,13.1-25.8,18.5-51.4c4.3-20.1,4.7-41.6,4.9-53.2v-2.3
			c0-0.6,0.1-1.3,0.1-2.1C250.7,107,251,103.1,250.3,98.6z"/>
		<path d="M87,210.4c1,0,1.8-0.8,1.9-1.8c0-1-0.8-1.9-1.8-2c0,0-4.3-0.3-10-3.6c-5.6-3.2-8.4-9.6-8.5-9.7c-0.4-1-1.5-1.4-2.5-1
			s-1.4,1.5-1,2.5c0.1,0.3,3.3,7.6,10.1,11.5C81.8,210.2,86.7,210.4,87,210.4C86.9,210.4,87,210.4,87,210.4z"/>
		<path d="M81.4,247.3c0.2,0,0.3,0.1,0.5,0.1c0.8,0,1.6-0.6,1.8-1.4c0.1-0.2,1.4-5.3,1.1-14.6c-0.4-9.3-2.1-13.5-2.1-13.7
			c-0.4-1-1.5-1.4-2.5-1s-1.4,1.5-1,2.5c0,0,1.5,3.9,1.9,12.3c0.3,8.6-0.9,13.4-0.9,13.4C79.8,246,80.4,247,81.4,247.3z"/>
		<path d="M100.8,70.4c0.8,0.6,2,0.5,2.7-0.3c2-2.6,11.5-7.4,13.4-6.9c1.7,1.4-0.3,10.6-0.9,13.6c-0.5,2.3-0.8,3.6-0.8,4.4
			c0,1,0.9,1.9,1.9,1.9s1.9-0.9,1.9-1.9c0-0.5,0.4-2.1,0.7-3.6c1.8-8.2,3-15.2-0.7-17.6c-4-2.7-16.3,5-18.5,7.8
			C99.8,68.6,100,69.8,100.8,70.4z"/>
		<path d="M31.6,81.2c0,1,0.9,1.9,1.9,1.9s1.9-0.9,1.9-1.9c0-0.8-0.3-2.1-0.8-4.4c-0.7-3-2.7-12.3-0.9-13.6c2-0.5,11.4,4.3,13.4,6.9
			c0.6,0.8,1.8,1,2.7,0.3c0.8-0.6,1-1.8,0.3-2.7C48,64.9,35.7,57.2,31.7,60c-3.7,2.5-2.5,9.4-0.7,17.6
			C31.3,79.1,31.6,80.7,31.6,81.2z"/>
		<path d="M110.7,240.8c-0.7-2.8,4.3-24.5,6.1-29.7c0.3-1-0.2-2.1-1.2-2.4c-1-0.3-2.1,0.2-2.4,1.2c-0.8,2.3-7.6,28-6,32.2
			c0.1,0.3,0.2,0.6,0.4,1c1.2,3,3.2,8.1,0.9,11.2c-2.3,3.1-4.6,3.2-11.5,3.2c-3.1,0-13.3-0.4-14.1-5.4c-0.2-1-1.1-1.7-2.2-1.6
			c-1,0.2-1.7,1.2-1.6,2.2c0,0.1,0.1,0.2,0.1,0.3c-0.3,0.1-0.5,0.2-0.7,0.4c-0.1,0.1-2.8,2.3-8.7,2.3c-2.7,0-5.5-0.5-7.4-1.3
			c-3.5-1.4-3.5-3.4-3.5-4.1c0-3.1,0.2-3.6,0.9-4.8c0.5-1,1.2-2.3,2.1-4.9c1.9-5.8,1-13.5-2.5-22.9c-0.4-1.2-0.9-2.3-1.3-3.4
			c-2.3-6-4.7-12.2-9.6-30.7c-4.8-17.8,1.6-38.4,1.6-38.6c0.3-1-0.2-2.1-1.2-2.4c-1-0.3-2.1,0.2-2.4,1.2c-0.3,0.9-6.7,21.9-1.7,40.8
			c5,18.7,7.4,25,9.7,31.1c0.4,1.1,0.8,2.2,1.3,3.4c3.2,8.6,4,15.5,2.4,20.5c-0.7,2.3-1.3,3.4-1.8,4.3c-0.9,1.7-1.4,2.7-1.3,6.6
			c0.1,6.8,7.9,9.1,14.6,9.1h0.1c6.7,0,10.2-2.5,11-3.1c3.5,4.2,11.2,4.9,16.2,4.9c6.8,0,10.9,0,14.5-4.8c3.6-4.8,1-11.4-0.4-14.9
			C110.9,241.4,110.8,241.1,110.7,240.8z"/>
		<path d="M120,85c-0.3-1-1.4-1.5-2.4-1.2s-1.5,1.4-1.2,2.4c0.9,2.8,3.8,12.3,3.6,18.4c-0.4,7.5,6.2,16.7,15.4,17.9
			c13.7,1.8,39.3,5,56.3,18.4c12.3,9.7,18.9,20.1,22.5,28.7c0,0.4,0.2,0.9,0.5,1.2c3.9,10.1,3.6,17.5,3.6,17.6c-0.1,1,0.7,1.9,1.8,2
			h0.1c1,0,1.8-0.8,1.9-1.8c0-0.6,0.5-8.7-3.9-19.6c1.7-6.3,3.5-13.9,5.7-23.9c3-13.7,3.2-25.8,3.4-35.5c0.2-14.6,0.6-21.6,7.5-23
			c4.3-0.8,9,2.8,9.9,6.3c0.3,1,1.3,1.6,2.3,1.4c1-0.3,1.6-1.3,1.4-2.3c-1.3-5.3-7.9-10.4-14.4-9.1c-10.2,2-10.4,12.4-10.6,26.7
			c-0.1,9.5-0.3,21.4-3.3,34.7c-1.7,7.6-3.1,13.9-4.5,19.2c-4.1-8-10.7-17-21.6-25.6c-17.8-14.1-44.1-17.4-58.2-19.2
			c-7.8-1-12.4-8.9-12.1-13.9C124.1,98.2,121.3,88.8,120,85z"/>
		<path d="M49.4,73.9c0.6,0.8,1.8,1,2.7,0.4c0.1-0.1,7.4-5.3,21.6-5.3c14.1,0,23.5,5.4,23.6,5.4c0.3,0.2,0.6,0.3,1,0.3
			c0.7,0,1.3-0.3,1.6-0.9c0.5-0.9,0.2-2.1-0.7-2.6c-0.4-0.2-10.4-5.9-25.5-5.9c-15.5,0-23.5,5.8-23.8,6C49,71.8,48.8,73,49.4,73.9z"
			/>
		<path d="M45.4,142.7c0.4,0,0.9-0.2,1.2-0.5c0.8-0.7,0.9-1.9,0.2-2.7c0-0.1-4.5-5.2-7.4-10.1l-0.5-0.8c-2.9-4.9-5.9-9.9-5.9-21.9
			c0-9,4.2-20.4,4.2-20.5c0.4-1-0.1-2.1-1.1-2.4c-1-0.4-2.1,0.1-2.4,1.1c-0.2,0.5-4.5,12.1-4.5,21.8c0,13,3.4,18.8,6.4,23.8l0.5,0.8
			c3.1,5.2,7.6,10.5,7.8,10.7C44.3,142.5,44.8,142.7,45.4,142.7z"/>
	</g>
</g>
</svg>
