<?xml version="1.0" encoding="utf-8"?>
<!-- Generator: Adobe Illustrator 26.2.1, SVG Export Plug-In . SVG Version: 6.00 Build 0)  -->
<svg version="1.1" id="レイヤー_1" xmlns="http://www.w3.org/2000/svg" xmlns:xlink="http://www.w3.org/1999/xlink" x="0px"
	 y="0px" viewBox="0 0 280 280" style="enable-background:new 0 0 280 280;" xml:space="preserve">
<style type="text/css">
	.st0{fill:#FFFFFF;}
</style>
<g>
	<path class="st0" d="M223.2,56.1c-13,0-8.1,29-12.9,65.1c-2.6,19.4-7.7,35.1-11,43.7c-2.2-7.6-5.2-15.7-9.3-24.4
		c-13.6-29.1-44.4-27.2-55.3-27.7c-8-0.3-12.7-12.2-14.7-18.5c-0.3-1-1-1.7-1.9-2c3.4-4.6,5-10.4,6.9-13.5
		c2.1-3.5,3.9-17.7-1.9-26.2c1.4-1.8,3.9-5.5,5.1-10.7c1.8-7.9,0.9-20.7-1-22c-3.5-2.4-20.2,16.7-22.4,19.1
		c-4.5-1.8-9.8-2.7-17.2-2.7c-6.8,0-11.6,0.5-15.6,1.8c-3.9-4.4-18.4-20.5-21.7-18.3c-1.9,1.3-2.8,14.1-1,22
		c1.3,5.7,4.1,9.6,5.4,11.2c-4,7.2-5.1,18.4-2.9,25.8c2.7,9,5.9,10.8,12.4,16.3c0.7,0.6,2,1.4,3.7,2.1c-0.7,2.4-10.7,34.3-9.1,56.4
		c1.1,14.3,7.7,31.1,15.2,46.6c6.9,14.1,5.4,44.4,5.4,44.4s-9.3,5.7-7.6,10.8c1.7,5.1,10.3,4.4,15.2,3.5c4.5-0.9,8-1.3,12.9-1.3
		s4.9,4.9,14.1,3.3c6.6-1.1,14.1-5.7,8.7-11.9c-1.4-1.7-3.3-4.3-3.3-4.3s0.4,0.1,1.1-5.4c2.8,2.3,6.7,2,8.7,5.2
		c0.9,1.4-1,5.1,1.5,8.1c2.5,2.9,1.5,4.1,8.1,3.8c6.6-0.3,26.7,2.2,32.9-1.4c6.3-3.6,26.3-10.6,30-31.5c0.9-5.1,1.6-10.3,2-15.5
		c1.7-1.5,17.5-17.2,24.4-67.6C233.4,102.1,238.2,56.1,223.2,56.1z"/>
	<g>
		<path d="M234,70.1c-0.1-1-1.1-1.8-2.1-1.7c-1,0.1-1.8,1.1-1.7,2.1c0.5,4.1,0.3,7.7,0.1,10.2c-0.1,0.9-0.1,1.7-0.1,2.3v2.3
			c-0.2,11.4-0.5,32.8-3.8,52.5c-4.2,25.2-12.7,46.5-14.4,50.5c-2.9,7-5.1,10.8-7.2,13.4c-0.3-8.5-1.4-15.3-1.4-15.8
			c-0.2-1-1.1-1.7-2.2-1.6c-1,0.2-1.7,1.1-1.6,2.2c0,0.3,4.4,28.5-2.1,41.4c-6.9,13.7-23.2,25.3-30.1,25.6
			c-5.2,0.2-8.4,0.2-11.7,0.1c-1.7,0-3.5-0.1-5.7-0.1c-5.7,0-12.6-0.4-15.4-1.7c-2.5-1.1-3.3-2.8-2.7-5.9c0.9-4.8,9.5-5.9,9.6-5.9
			c1-0.1,1.8-1,1.7-2.1c-0.1-1-1-1.8-2.1-1.7c-0.5,0-11.5,1.3-12.9,9c-0.9,4.8,0.8,8.2,4.9,10c3.9,1.7,12.2,2,16.8,2c0,0,0,0,0.1,0
			c2.1,0,3.9,0,5.6,0.1c1.7,0,3.3,0.1,5.2,0.1s4.1,0,6.8-0.2c10.5-0.5,27.4-15.9,33.3-27.7c3-6,4-14.6,4-22.6
			c0.2-0.1,0.4-0.2,0.6-0.4c3.1-3,6-7,10-16.8c1.7-4.1,10.4-25.8,14.7-51.4c3.4-20.1,3.7-41.6,3.9-53.1v-2.3c0-0.6,0.1-1.3,0.1-2.1
			C234.3,78.4,234.6,74.5,234,70.1z"/>
		<path d="M52.3,49.7c0.4,0,0.9-0.2,1.3-0.5c0.8-0.7,0.9-1.9,0.2-2.7c0,0-2.2-2.6-3.6-8.2c-1.8-7.1,0.1-15.9,1.3-17.5
			c2.7,1.4,14.6,12.6,17.7,17.4c0.4,0.6,1.1,0.9,1.7,0.9c0,0.2,0.1,0.5,0.2,0.7c0.4,1,1.6,1.4,2.5,0.9c0.1,0,5.4-2.4,15.7-2.4
			c10.2,0,14.8,2.3,14.8,2.3c0.3,0.2,0.6,0.2,0.9,0.2c0.7,0,1.3-0.4,1.7-1c0.1-0.3,0.2-0.5,0.2-0.8c0.5-0.1,1.1-0.4,1.4-0.8
			c3.1-4.9,15.1-16,17.7-17.4c1.2,1.7,3.1,10.4,1.3,17.5c-1.4,5.6-3.5,8.2-3.6,8.2c-0.7,0.8-0.6,2,0.2,2.7c0.4,0.3,0.8,0.5,1.3,0.5
			s1-0.2,1.4-0.6c0.1-0.1,2.8-3.2,4.4-9.8c1.7-6.8,0.7-17.3-2.1-20.8c-1-1.3-2.1-1.5-2.8-1.5c-4.5,0-19.7,17.2-21.1,19.3
			c-0.1,0.2-0.2,0.5-0.3,0.7c-2.1-0.8-7-2.3-15.5-2.3c-9.3,0-14.8,1.8-16.6,2.5c0-0.3-0.1-0.6-0.3-0.9C71,34.3,55.7,17,51.2,17
			c-0.7,0-1.8,0.3-2.8,1.5c-2.7,3.5-3.8,14-2.1,20.8c1.7,6.6,4.3,9.7,4.4,9.8C51.3,49.5,51.8,49.7,52.3,49.7z"/>
		<path d="M100.4,215.4c-0.1-2.7-0.6-5.4-1.5-8L94.3,193c-0.3-1-1.4-1.5-2.4-1.2s-1.5,1.4-1.2,2.4l4.7,14.4c0.7,2.3,1.2,4.6,1.3,7
			c0.5,9.4-0.6,27.6-0.6,27.8c-0.1,1,0.7,1.9,1.8,2H98c1,0,1.8-0.8,1.9-1.8C99.8,242.8,100.9,225,100.4,215.4z"/>
		<path d="M121.4,244c-0.4-4.4,10.1-53.6,11.9-59.6c0.3-1-0.3-2.1-1.3-2.4c-1-0.3-2.1,0.3-2.4,1.3c-0.2,0.5-13.4,57.4-11.9,61.8
			c0.5,1.4,1.4,2.6,2.4,3.8c1.6,2.1,3.3,4.2,3,7.3c0,0.4-0.2,0.6-0.5,0.8c-0.6,0.5-3.3,1.8-12.4,0.4c-3.3-0.5-5.2-1.8-5.9-2.8
			c-0.4-0.6-0.4-1-0.3-1.3c0.2-1-0.4-2-1.4-2.3c-1-0.2-2,0.4-2.3,1.4c-0.3,1.5,0,2.9,0.9,4.2c1.5,2.2,4.6,3.8,8.5,4.4
			c3,0.5,5.5,0.7,7.7,0.7c3.5,0,6.1-0.6,7.7-1.8c1.1-0.9,1.8-2.1,2-3.5c0.5-4.6-2-7.7-3.7-10C122.4,245.7,121.7,244.8,121.4,244z"/>
		<path d="M94.8,254.8c-0.1,0-5.4,3-11,3c-2.1,0-9.1-0.3-9.1-5.2c0-1.7,0.9-2.3,2.8-3.5c2.1-1.3,5-3,5-7.4c0-6.4-2.9-30-5.5-37.8
			c-0.7-2.2-2-4.9-3.7-8.4c-4.1-8.7-9.6-20.5-12-34.9c-2.8-16.7,0.1-27.7,3.5-40.4c0.5-1.8,1-3.6,1.4-5.5c1.4-5.5,2.2-9.5,2.2-9.6
			c0.2-1-0.5-2-1.5-2.2s-2,0.5-2.2,1.5c0,0-0.8,4.1-2.1,9.4c-0.5,1.9-1,3.7-1.4,5.4c-3.5,13.1-6.5,24.4-3.6,42
			c2.5,14.9,8.4,27.5,12.3,35.9c1.5,3.2,2.8,6,3.5,8c2.3,6.9,5.3,29.8,5.3,36.5c0,2.2-1.1,2.9-3.1,4.1c-2,1.2-4.7,2.8-4.6,6.8
			c0.1,6.6,6.6,9,12.8,9h0.1c6.6,0,12.6-3.4,12.8-3.5c0.9-0.5,1.2-1.7,0.7-2.6C96.9,254.6,95.7,254.3,94.8,254.8z"/>
		<path d="M199,167c0.6,3.3,0.5,5.2,0.5,5.3c0,1,0.8,1.9,1.9,1.9l0,0c1,0,1.9-0.8,1.9-1.9c0-0.3,0.1-3.7-1.2-9.1
			c4.2-10.5,7.4-25.9,11-46.8c2.4-13.7,2.5-25.7,2.6-35.4c0.2-14.2,0.5-21.7,5.7-23c1.4-0.3,2.6,0.2,3.5,0.7
			c1.9,1.2,3.4,3.4,3.8,5.5c0.2,1,1.2,1.7,2.2,1.5s1.7-1.2,1.5-2.2c-0.6-3.1-2.8-6.3-5.5-8c-2.1-1.3-4.3-1.7-6.4-1.2
			c-8.3,2.1-8.4,11.8-8.6,26.6c-0.1,9.5-0.3,21.4-2.6,34.8c-3.1,17.7-5.8,31.3-9.1,41.2c-2.8-8.3-8.3-19.1-19.1-30.4
			c-13.7-14.4-28.6-15.6-39.4-16.5c-4.3-0.4-8.1-0.7-10.7-1.8c-6.4-2.6-11.4-10.8-8.7-20.1c0.7-2.3,1.5-3.9,2.4-5.8
			c1.3-2.5,2.8-5.4,4.1-10.6c2.1-8.5-1.7-18.9-1.9-19.3c-0.4-1-1.5-1.5-2.4-1.1c-1,0.4-1.5,1.5-1.1,2.4c0,0.1,3.6,9.7,1.8,17.1
			c-1.2,4.7-2.5,7.3-3.8,9.7c-1,2-2,3.8-2.7,6.5c-3.3,11.4,3,21.5,10.9,24.7c3.2,1.3,7.2,1.6,11.8,2c10.8,0.9,24.3,2.1,37,15.4
			c11.1,11.6,16.2,22.7,18.5,29.9c0.4,1.4,0.8,2.6,1.1,3.8L199,167z"/>
		<path d="M61.2,94.6c1.6,2,2.8,3.8,3.4,5.2c0.3,0.7,1,1.1,1.7,1.1c0.3,0,0.5-0.1,0.8-0.2c1-0.4,1.4-1.6,0.9-2.5
			c-0.8-1.7-2.1-3.7-3.9-5.9c-0.5-0.7-1.1-1.4-1.7-2.1c-3.9-4.7-8-9.6-9.4-19.9c-1-7.6,1.7-16.3,1.7-16.4c0.3-1-0.2-2.1-1.2-2.4
			c-1-0.3-2.1,0.2-2.4,1.2c-0.1,0.4-3,9.5-1.8,18c1.6,11.4,6.4,17.2,10.3,21.8C60.1,93.3,60.7,93.9,61.2,94.6z"/>
		<path d="M88.6,183.4c-5.1-3.3-7.7-9.8-7.7-9.9c-0.4-1-1.5-1.5-2.5-1.1s-1.5,1.5-1.1,2.5c0.1,0.3,3,7.7,9.2,11.7
			c6.1,3.9,10.6,4.2,10.8,4.2h0.1c1,0,1.8-0.8,1.9-1.8s-0.7-1.9-1.8-2C97.5,187,93.7,186.7,88.6,183.4z"/>
	</g>
</g>
</svg>
