<?xml version="1.0" encoding="utf-8"?>
<!-- Generator: Adobe Illustrator 26.2.1, SVG Export Plug-In . SVG Version: 6.00 Build 0)  -->
<svg version="1.1" id="レイヤー_1" xmlns="http://www.w3.org/2000/svg" xmlns:xlink="http://www.w3.org/1999/xlink" x="0px"
	 y="0px" viewBox="0 0 280 280" style="enable-background:new 0 0 280 280;" xml:space="preserve">
<style type="text/css">
	.st0{fill:#FFFFFF;}
</style>
<g>
	<path class="st0" d="M219.8,56.1c-13,0-8.1,29-12.9,65.1c-3.1,23.1-9.7,40.9-12.6,47.8c-1.7-5-3.8-10.4-6.5-16.2
		c-8.2-17.4-22.8-24.9-36.8-35.9c-4.5-3.5-10.6-5.5-16-10c-12-10-12-27-12-27s-0.2,0.2-0.6,0.4c2.1-2.5,3.9-5,5.4-7.5
		c2.1-3.5,3.2-11.2,0.8-17.8c1.6-2.4,3.6-5.6,5.2-9.2c3.2-7.4,2.7-24.4,1-26C132,17,114,33.9,109.1,38.6c-4-1.3-8.7-1.8-15.3-1.8
		c-6.2,0-10.7,0.3-14.5,1.2c-5.6-5.3-22.4-20.9-25.1-18.2c-1.7,1.6-2.2,18.6,1,26c1.7,3.9,4,7.5,5.6,9.9c-1.6,5.2-1.6,11.2-0.1,16.1
		c1.2,4.1,6.4,9.8,13,14.5c0.8,2.6,2,7.1,2,11.5c-0.1,9.5-2.4,21.5-3,32c-1.3,23,7.1,62.7,14,77c6.3,13,6,39,6,39s-8.6,5.3-7,10
		s6.4,4.9,11,4c4.1-0.8,1.4-1.9,6-1.9s6.5,4.4,15,2.9c6.1-1.1,8-3.8,3-9.6c-1-1.1-1.6-3.7-1.9-5c0.2-0.8,0.5-2.4,1.1-5.3
		c2.4,5,9.5,1,11.9,4.7c0.8,1.3-0.9,4.7,1.4,7.4c2.3,2.7,1.3,3.8,7.4,3.5s24.6,2.1,30.4-1.3c5.8-3.3,22.3-11.2,25.7-30.4
		c1.1-5.9,2-11.6,2.4-17.4c0.4,0.2,0.8,0.3,1.2,0.4c0,0,17.3-14.5,24.5-67.7C230,102.1,234.8,56.1,219.8,56.1z"/>
	<g>
		<path d="M230.6,70.1c-0.1-1-1-1.8-2.1-1.7c-1,0.1-1.8,1.1-1.7,2.1c0.5,4.1,0.3,7.7,0.1,10.2c-0.1,0.9-0.1,1.7-0.1,2.3v2.3
			c-0.2,11.4-0.5,32.8-3.8,52.5c-4.2,25.2-12.7,46.5-14.4,50.5c-2.9,7.1-5.2,10.9-7.3,13.5c-0.4-5.6-1-9.8-1.1-10.2
			c-0.2-1-1.1-1.7-2.2-1.6c-1,0.2-1.7,1.1-1.6,2.2c0,0.3,4.1,26.2-2,38.1c-6.4,12.6-21.3,23.3-27.7,23.6c-4.8,0.2-7.7,0.2-10.8,0.1
			c-1.6,0-3.2-0.1-5.2-0.1h-0.1c-5.2,0-11.6-0.4-14-1.5c-2.2-1-2.9-2.5-2.4-5.3c0.4-2.3,13.6-5.4,27.7-6.4c1-0.1,1.8-1,1.8-2
			c-0.1-1-1-1.8-2-1.8c-9,0.7-30,2.9-31.2,9.6c-1,5.6,1.9,8.2,4.6,9.4c3.6,1.6,11.3,1.9,15.6,1.9h0.1c1.9,0,3.5,0,5.1,0.1
			c1.5,0,3.1,0.1,4.8,0.1c1.8,0,3.8,0,6.3-0.2c9.7-0.5,25.4-14.7,30.9-25.6c3.4-6.6,3.9-16.7,3.7-25.1c0.2-0.1,0.4-0.2,0.6-0.4
			c3.1-3,6-7,10-16.8c1.7-4.1,10.4-25.8,14.7-51.4c3.4-20.1,3.7-41.6,3.9-53.1v-2.3c0-0.6,0.1-1.3,0.1-2.1
			C230.9,78.4,231.1,74.5,230.6,70.1z"/>
		<path d="M125.3,81.9c0.6-2.8,1.8-4.7,3-6.7c1.5-2.4,3-4.9,3.5-8.7c0.6-4.3,0.1-8.9-0.5-11.9c-0.2-1-1.2-1.7-2.2-1.5
			s-1.7,1.2-1.5,2.2c0.5,2.8,1,6.8,0.5,10.7c-0.4,3.1-1.6,5-3,7.3c-1.3,2.1-2.7,4.4-3.5,7.8c-2.3,9.8,3.7,22.3,13.8,29
			c3.4,2.3,6.6,4.2,9.6,6c8.9,5.3,17.3,10.3,29.9,23.6c10.2,10.7,14.9,20.9,17.1,27.5c2.3,7.2,2.3,12,2.3,12c0,1,0.8,1.9,1.9,1.9
			l0,0c1,0,1.9-0.8,1.9-1.9c0-0.4,0.1-5.1-2.1-12.2c0.7-0.1,1.3-0.4,1.6-1.1c4.8-10.5,8.2-26.7,12.1-49.5
			c2.4-13.7,2.5-25.7,2.6-35.4c0.2-14.2,0.5-21.7,5.7-23c1.4-0.3,2.6,0.2,3.5,0.7c1.9,1.2,3.4,3.4,3.8,5.5c0.2,1,1.2,1.7,2.2,1.5
			s1.7-1.2,1.5-2.2c-0.6-3.1-2.8-6.3-5.5-8c-2.1-1.3-4.3-1.7-6.4-1.2c-8.3,2.1-8.4,11.8-8.6,26.6c-0.1,9.5-0.3,21.4-2.6,34.8
			c-3.7,21.5-7,37.1-11.3,47.3c-2.8-7.4-7.8-16.6-17-26.2c-13-13.7-21.6-18.8-30.7-24.2c-3-1.8-6.2-3.7-9.5-5.9
			C128.8,101,123.4,90.1,125.3,81.9z"/>
		<path d="M77.9,40c0.3,0.7,1,1.1,1.7,1.1c0.3,0,0.5-0.1,0.8-0.2c0,0,4.9-2.2,14.4-2.2c9.3,0,13.6,2.1,13.6,2.1
			c0.9,0.5,2.1,0.1,2.6-0.8c0.5-0.9,0.1-2.1-0.8-2.6c-0.2-0.1-5-2.6-15.4-2.6s-15.8,2.4-16,2.5C77.9,37.9,77.4,39.1,77.9,40z"/>
		<path d="M110.7,37.4c0.8,0.7,2,0.5,2.7-0.3c1.4-1.7,4.3-5.1,6.8-7.2c5.3-4.6,11.9-8.4,13.9-9.1c1.5,2.5,2.7,14.9-0.2,21.2
			c-0.9,1.9-2.3,4.4-4.2,7.2c-0.6,0.9-0.3,2.1,0.5,2.6c0.3,0.2,0.7,0.3,1,0.3c0.6,0,1.2-0.3,1.6-0.8c2-3,3.5-5.6,4.5-7.8
			c3.1-6.7,2.4-20.2,0.2-24.5c-0.7-1.3-1.5-2-2.5-2.2c-3-0.6-12.8,6.2-17.3,10.1c-2.7,2.3-5.9,5.9-7.3,7.7
			C109.8,35.6,109.9,36.8,110.7,37.4z"/>
		<path d="M58.8,49.3c-1.9-2.9-3.3-5.3-4.2-7.2c-2.9-6.3-1.7-18.8-0.2-21.2c2.1,0.7,8.6,4.5,13.9,9.1c2.5,2.1,5.5,5.5,6.8,7.2
			c0.7,0.8,1.9,0.9,2.7,0.3c0.8-0.7,1-1.9,0.3-2.7c-1.5-1.8-4.6-5.4-7.3-7.7c-2.8-2.4-6.3-4.9-9.7-7c-5.6-3.4-7-3.2-7.6-3.1
			c-1,0.2-1.9,0.9-2.5,2.2c-2.2,4.3-2.9,17.7,0.2,24.5c1,2.1,2.5,4.7,4.5,7.8c0.4,0.6,1,0.8,1.6,0.8c0.4,0,0.7-0.1,1.1-0.3
			C59.2,51.3,59.4,50.2,58.8,49.3z"/>
		<path d="M72.6,88.4c1.8,2.7,1.4,5.1,1.4,5.2c-0.2,1,0.5,2,1.5,2.2c0.1,0,0.2,0,0.3,0c0.9,0,1.7-0.7,1.9-1.6c0-0.2,0.7-4-2-8
			c-0.7-1.1-2-2.3-3.6-3.8c-3.8-3.6-9.7-9.1-10.8-16.6c-0.6-3.8,0-7.9,0.5-10.7c0.2-1-0.5-2-1.5-2.2s-2,0.5-2.2,1.5
			c-0.6,3-1.2,7.6-0.5,11.9c1.3,8.8,7.7,14.8,11.9,18.8C71,86.6,72.1,87.7,72.6,88.4z"/>
		<path d="M98.8,185.5c0-0.1-0.1-0.3-0.2-0.4l-4.3-7.3c-0.5-0.9-1.7-1.2-2.6-0.7s-1.2,1.7-0.7,2.6l4.2,7.1l0.2,0.5
			c0.9,2.6,3,8.8,4.4,19.7c1.1,8.6,2.5,41.2,2.5,41.5c0,1,0.9,1.8,1.9,1.8h0.1c1,0,1.9-0.9,1.8-2c-0.1-1.3-1.4-33-2.5-41.8
			c-1.5-11.2-3.6-17.7-4.5-20.4L98.8,185.5z"/>
		<path d="M120.5,245.3c-0.3-4.2,9.3-49.4,11-54.9c0.3-1-0.3-2.1-1.3-2.4c-1-0.3-2.1,0.3-2.4,1.3c-0.1,0.5-12.4,53.1-11,57.2
			c0.4,1.3,1.3,2.4,2.2,3.6c1.5,2,3,3.8,2.7,6.6c-0.1,0.5-0.3,0.9-0.7,1.2c-1.5,1.1-5,1.4-9,0.8c-3-0.5-4.8-1.6-5.4-2.5
			c-0.3-0.5-0.3-0.8-0.2-1.1c0.2-1-0.4-2-1.4-2.3c-1-0.2-2,0.4-2.3,1.4c-0.2,0.7-0.2,1.4,0,2.1c-0.7-0.5-1.7-0.4-2.3,0.2
			c-0.1,0.1-2,1.8-6.8,1.9c0,0,0,0-0.1,0c-4,0-6.1-1.7-6.1-5.1c0-1.4,0.6-2,2.5-3.1c2-1.2,4.7-2.8,4.7-7c0-5.9-2.7-27.7-5.1-34.9
			c-0.4-1.1-0.9-2.5-1.5-4.3c-3.3-9.1-10.2-28.1-12.4-45.4c-2.7-20.8-1.5-27.9,0.2-37.8c0.3-1.5,0.5-3,0.8-4.7
			c0.8-4.9,1.2-15.7,1.2-16.1c0-1-0.8-1.9-1.8-2s-1.9,0.8-2,1.8c0,0.1-0.5,11-1.2,15.7c-0.3,1.7-0.5,3.2-0.8,4.7
			c-1.7,10.1-3,17.5-0.2,38.9c2.3,17.7,9.2,37,12.6,46.2c0.6,1.7,1.1,3.2,1.5,4.2c2.2,6.4,4.9,27.5,4.9,33.7c0,1.9-0.9,2.6-2.8,3.7
			c-1.9,1.1-4.4,2.6-4.4,6.4c0.1,5.5,3.9,8.9,9.9,8.9h0.1c6.3,0,9.1-2.7,9.4-3s0.4-0.6,0.5-0.9c1.4,2.1,4.3,3.6,7.9,4.1
			c1,0.2,2.7,0.4,4.5,0.4c2.6,0,5.5-0.4,7.4-1.9c1.3-1,2-2.3,2.2-3.8c0.4-4.3-1.8-7.2-3.5-9.3C121.5,246.8,120.8,246,120.5,245.3z"
			/>
	</g>
</g>
</svg>
