<?xml version="1.0" encoding="utf-8"?>
<!-- Generator: Adobe Illustrator 26.2.1, SVG Export Plug-In . SVG Version: 6.00 Build 0)  -->
<svg version="1.1" id="レイヤー_1" xmlns="http://www.w3.org/2000/svg" xmlns:xlink="http://www.w3.org/1999/xlink" x="0px"
	 y="0px" viewBox="0 0 280 280" style="enable-background:new 0 0 280 280;" xml:space="preserve">
<style type="text/css">
	.st0{fill:#FFFFFF;}
</style>
<g>
	<path class="st0" d="M234.7,76.1c-13,0-8.1,29-12.9,65.1c-3,22.6-9.4,40.1-12.4,47.4c-2.4-4.3-5.6-8.9-9.8-13.7
		c-13.5-15.7-28.9-24.4-42-26c-11.3-1.7-28-8-33-11c-2.9-1.7-7.6-6-11-9.1c-0.1-0.4-0.1-0.9-0.1-1.4c0-7,4-7.2,4.1-16.6
		c0.1-7.4-0.4-13.9-6.4-21.5c1-3.6,6.9-25.1,2.9-27.5c-3.8-2.2-19,9.9-23,13.2c-4.7-1.2-9.2-1.2-14.2-1.2h-0.7
		c-5.3,0-10.2-0.1-15.2,1.4c-3.6-3-19.4-15.6-23.2-13.4c-4.4,2.6,3,28,3,28s0.7-0.5,1.7-1.2c-6.8,9.3-7.2,19.8-4.3,27
		c3.4,8.7,11.8,18.4,14.5,22c-1,5.1-6.6,35.9-3.9,48.3c3,13.5,4.9,19.2,13.6,34c7.9,13.5,3.6,23.5,3.6,23.5s-3.8,5.6-1.8,10.5
		c2,4.9,5.8,5.6,11.5,4.7c5.2-0.8,12.3-3.7,12.3-3.7s3.2,6.5,13.8,5c7.6-1.1,9.9-5.8,10-11c0-1.3-1.7-7.5-2-10
		c0.3,0.5,20.3,5.8,30.3,6c1.5,0-1.8,9.2,0.9,11.5c2.7,2.3,1.6,3.2,8.7,2.9c7.2-0.2,21.8,3.7,28.6,0.9s30.3-10.1,34.3-26.3
		c0.5-2.2,1.1-4.3,1.5-6.4c0.4,0.2,0.8,0.4,1.3,0.5c0,0,17.3-14.5,24.5-67.7C245,122.1,249.8,76.1,234.7,76.1z"/>
	<g>
		<path d="M245.6,90.1c-0.1-1-1-1.8-2.1-1.7c-1,0.1-1.8,1.1-1.7,2.1c0.5,4.1,0.3,7.7,0.1,10.2c-0.1,0.9-0.1,1.7-0.1,2.3v2.3
			c-0.2,11.4-0.5,32.8-3.8,52.5c-4.2,25.2-12.7,46.5-14.4,50.5c-2.4,5.8-4.4,9.5-6.2,12c-0.6-6.6-2.5-11.9-2.6-12.3
			c-0.4-1-1.4-1.5-2.4-1.1s-1.5,1.4-1.1,2.4c0.1,0.2,6.2,17.6-0.6,27.5c-6.9,10.1-24.1,20-32.3,20.3c-5.6,0.2-9,0.1-12.6,0.1
			c-1.8,0-3.7-0.1-6-0.1c-0.1,0-0.1,0-0.2,0c-3,0-12.8-0.1-16.5-1.4c-2-0.7-2.5-1.6-2.5-5c0-3.8,14.7-8.3,28.4-10.1
			c1-0.1,1.8-1.1,1.6-2.1c-0.1-1-1.1-1.8-2.1-1.6c-7.4,1-31.6,4.9-31.6,13.9c0,2.6,0,6.9,5.1,8.6c4.2,1.4,13.7,1.6,17.7,1.6
			c0.1,0,0.1,0,0.2,0c2.2,0,4.1,0,5.9,0.1c1.8,0,3.5,0.1,5.5,0.1s4.4,0,7.3-0.1c9.2-0.3,27.7-10.7,35.3-22c2.6-3.8,3.6-8.4,3.8-12.9
			c2.9-3,5.7-7.1,9.5-16.3c1.7-4.1,10.4-25.8,14.7-51.4c3.4-20.1,3.7-41.6,3.9-53.1v-2.3c0-0.6,0.1-1.3,0.1-2.1
			C245.8,98.4,246.1,94.5,245.6,90.1z"/>
		<path d="M90.7,211.8c1,0,1.8-0.8,1.9-1.8c0-1-0.8-1.9-1.8-2c0,0-4.3-0.3-10-3.6c-5.6-3.3-8.5-9.6-8.5-9.7c-0.4-1-1.5-1.4-2.5-1
			s-1.4,1.5-1,2.5c0.1,0.3,3.3,7.6,10.1,11.5C85.5,211.5,90.4,211.8,90.7,211.8C90.6,211.8,90.6,211.8,90.7,211.8z"/>
		<path d="M139.4,243.4c0-1-0.9-1.9-1.9-1.9c-0.1,0-5.9,0-10.6-1c-5.7-1.1-10.7-2.9-10.7-2.9c-1-0.3-2.1,0.2-2.4,1.1
			s0.2,2.1,1.1,2.4c0.2,0.1,5.2,1.9,11.3,3.1c5.1,1,11.1,1,11.4,1C138.6,245.3,139.4,244.4,139.4,243.4z"/>
		<path d="M60.6,77.3c0.1,0,5.4-3.3,14.6-3.3c9.5,0,18.3,3.5,18.4,3.5c0.2,0.1,0.5,0.1,0.7,0.1c0.8,0,1.5-0.5,1.8-1.2
			c0.4-1-0.1-2.1-1.1-2.5c-0.4-0.2-9.6-3.8-19.8-3.8c-10.5,0-16.4,3.8-16.7,3.9c-0.9,0.6-1.1,1.7-0.6,2.6
			C58.5,77.6,59.7,77.9,60.6,77.3z"/>
		<path d="M39.6,86.7c0.4,0,0.7-0.1,1.1-0.3c0.9-0.6,1.1-1.8,0.5-2.6c-1.7-2.6-4.1-17.2-3-20c0,0,0,0,0.1,0c2.8,0,13.8,5.9,16,8.7
			c0.6,0.8,1.8,1,2.7,0.3c0.8-0.6,1-1.8,0.3-2.7C55,67.3,41,58.3,36.4,60.3c-0.9,0.4-1.5,1.2-1.9,2.5C33,67.9,35.9,82.7,38,85.9
			C38.4,86.4,39,86.7,39.6,86.7z"/>
		<path d="M94.7,72.8c0.8,0.6,2,0.5,2.7-0.3c2.2-2.8,13.5-8.8,16-8.7c1.2,2.8-1.3,17.5-3,20c-0.6,0.9-0.3,2.1,0.5,2.6
			c0.3,0.2,0.7,0.3,1.1,0.3c0.6,0,1.2-0.3,1.6-0.8c2.1-3.2,5-18,3.5-23.1c-0.4-1.3-1-2.1-1.9-2.5c-4.6-2.1-18.6,7-20.8,9.8
			C93.8,71,93.9,72.2,94.7,72.8z"/>
		<path d="M86.7,248.5C86.8,248.5,86.8,248.5,86.7,248.5c1.1,0,1.9-0.8,1.9-1.9c0-0.1,0.2-9.2-0.1-19.6c-0.3-8.5-1.5-10.5-2.6-11.3
			c-0.6-0.4-1.3-0.5-2-0.3c-1,0.3-1.5,1.4-1.2,2.4c0.2,0.5,0.5,0.9,0.9,1.1c0.2,0.6,0.8,2.6,1,8.2c0.3,10.2,0.1,19.3,0.1,19.3
			C84.9,247.6,85.7,248.4,86.7,248.5z"/>
		<path d="M82.1,253.9c-0.1,0.1-2.8,2.3-8.7,2.3c-3.5,0-7.7-1-7.7-5.7c0-2.2,0.5-2.9,1.4-3.9c1.1-1.3,2.4-3,2.4-7V238
			c0-5.3-0.1-5.9-2.6-12.8c-0.9-2.4-2.2-4.8-3.7-7.5c-3.4-6.2-8.1-14.7-12.9-31.9c-5-17.7,3-43.2,3.1-43.4c0.3-1-0.2-2.1-1.2-2.4
			c-1-0.3-2.1,0.2-2.4,1.2c-0.3,1.1-8.4,26.8-3.1,45.6c4.9,17.5,9.7,26.3,13.2,32.7c1.5,2.7,2.7,4.9,3.5,7c2.4,6.4,2.4,6.6,2.4,11.5
			v1.6c0,2.7-0.7,3.5-1.6,4.6c-1,1.2-2.3,2.8-2.3,6.4c0.1,6,4.3,9.5,11.4,9.5h0.1c7.5,0,11-3.2,11.2-3.3c0.8-0.7,0.8-1.9,0.2-2.7
			C84.1,253.3,82.9,253.2,82.1,253.9z"/>
		<path d="M112.3,217.1c-1-0.3-2.1,0.2-2.4,1.2c-1.4,4.3-4.1,21.4-2.6,25.3c0.1,0.4,0.3,0.8,0.5,1.2c1.4,3.4,2.2,6.1,0.1,8.9
			c-2.3,3.1-6.7,4.6-11.8,3.9c-3.9-0.5-6.1-1.9-6.7-2.9c-0.3-0.4-0.3-0.8-0.2-1c0.3-1-0.4-2.1-1.4-2.3c-1-0.3-2.1,0.4-2.3,1.4
			c-0.3,1.4-0.1,2.8,0.8,4c1.5,2.3,4.9,3.9,9.4,4.6c1,0.1,2,0.2,3,0.2c5.2,0,9.7-2,12.3-5.6c3.5-4.7,1.6-9.4,0.3-12.6
			c-0.2-0.4-0.3-0.7-0.4-1.1c-0.8-2.2,1-17.7,2.7-22.7C113.8,218.5,113.3,217.4,112.3,217.1z"/>
		<path d="M49.3,137.4c0.4,0.6,1,0.9,1.6,0.9c0.3,0,0.7-0.1,1-0.3c0.9-0.5,1.2-1.7,0.7-2.6c-1-1.6-2.4-3.3-4-5.2
			c-4.5-5.2-10-11.8-10-21.4c0-9.4,3.8-18.1,3.8-18.2c0.4-1,0-2.1-1-2.5s-2.1,0-2.5,1c-0.2,0.4-4.2,9.5-4.2,19.8
			c0,11,6.3,18.4,10.9,23.8C47.2,134.5,48.5,136,49.3,137.4z"/>
		<path d="M118.8,108.8c0-10.3-4-19.4-4.2-19.8c-0.4-1-1.5-1.4-2.5-1s-1.4,1.5-1,2.5c0,0.1,3.8,8.8,3.8,18.2c0,3.9-0.9,7.7-2.9,11.4
			c-1.5,2.9-1.6,6.3-0.3,9.3c0,0.1,0.1,0.2,0.1,0.3c7.1,11.3,21.2,14.9,36.1,18.8c11.5,3,23.5,6,33.4,12.8
			c27.1,18.4,27.4,36.1,27.4,36.3c0,1,0.8,1.9,1.9,1.9l0,0c1,0,1.9-0.8,1.9-1.9c0-0.4,0-4.6-2.9-10.9c0,0,0.1,0,0.1,0.1
			c0.3,0.1,0.5,0.2,0.8,0.2c0.7,0,1.4-0.4,1.7-1.1c4.8-10.5,8.2-26.7,12.1-49.5c2.4-13.7,2.5-25.7,2.6-35.4
			c0.2-14.2,0.5-21.7,5.7-23c1.4-0.3,2.6,0.2,3.5,0.7c1.9,1.2,3.4,3.4,3.8,5.5c0.2,1,1.2,1.7,2.2,1.5s1.7-1.2,1.5-2.2
			c-0.6-3.1-2.8-6.3-5.5-8c-2.1-1.3-4.3-1.7-6.4-1.2c-8.3,2.1-8.4,11.8-8.6,26.6c-0.1,9.5-0.3,21.4-2.6,34.8
			c-3.9,22.4-7.2,38.4-11.9,48.5c-0.1,0.1-0.1,0.3-0.1,0.4c-3.7-7.3-11-16.8-25.3-26.6c-10.5-7.1-22.8-10.3-34.6-13.3
			c-14.1-3.6-27.4-7.1-33.8-17c-0.8-2-0.7-4.1,0.2-6C117.7,117.7,118.8,113.4,118.8,108.8z"/>
	</g>
</g>
</svg>
