<?xml version="1.0" encoding="utf-8"?>
<!-- Generator: Adobe Illustrator 26.2.1, SVG Export Plug-In . SVG Version: 6.00 Build 0)  -->
<svg version="1.1" id="レイヤー_1" xmlns="http://www.w3.org/2000/svg" xmlns:xlink="http://www.w3.org/1999/xlink" x="0px"
	 y="0px" viewBox="0 0 280 280" style="enable-background:new 0 0 280 280;" xml:space="preserve">
<style type="text/css">
	.st0{fill:#FFFFFF;}
</style>
<g>
	<path class="st0" d="M226.5,66.1c-13,0-8.1,29-12.9,65.1c-2.6,19.6-7.8,35.3-11.1,43.9c-2.2-5.6-5.1-12-8.9-19.5
		c-14.1-27.9-44.3-35.4-44.3-35.4l0,0c-7.8-3.5-20.5-9.1-20.6-9.2c-1.2-1-2.5-2.5-2.8-4.7c-0.8-5.6,0.9-6.4,1-16.2
		c0.1-7.5-0.4-13.4-6.1-20.7c1.2-4.8,5.5-22.7,1.7-25c-3.7-2.2-15.1,7.8-18.6,11.1C97.7,52.9,92.1,53,85.6,53h-0.7
		c-6.7,0-12.4,0-18.8,3C63.3,53.4,50.8,42.2,47,44.5c-4.4,2.6,2,26.2,2,26.2s0.8-1,2.2-2.3c-6.8,8.8-6.9,17.3-6.8,25.4
		c0.1,9.8,8.5,22,10,24.7s1.5,12.7,1.5,12.7s0,0,0.1,0c-1.2,7.3-3.9,25.8-1.6,36.5c3,13.5,9.4,31.2,18.2,46.1
		c8,13.5,2.5,28.5,2.5,28.5s-3.8,5.6-1.8,10.5s5.9,5.6,11.7,4.7c5.2-0.8,5.3-3.1,11.1-3.1s6.7,4.1,17.4,2.6
		c7.7-1.1,10.8-5.1,10.9-10.3c0-1.1-0.8-3.6-1.6-5.8l0,0c0,0,3.5-0.6,7,4.5c0.9,1.3-1,4.9,1.6,7.7s1.5,3.9,8.3,3.6
		c6.8-0.3,27.3,3,33.7-0.5c6.5-3.5,28.5-14.4,32.3-34.4c0.3-1.4,0.5-2.7,0.7-4c0.2,0,0.3,0.1,0.4,0.1c0,0,17.3-14.5,24.5-67.7
		C236.7,112.1,241.6,66.1,226.5,66.1z"/>
	<g>
		<path d="M237.3,80.1c-0.1-1-1-1.8-2.1-1.7c-1,0.1-1.8,1.1-1.7,2.1c0.5,4.1,0.3,7.7,0.1,10.2c-0.1,0.9-0.1,1.7-0.1,2.3v2.3
			c-0.2,11.4-0.5,32.8-3.8,52.5c-4.2,25.2-12.7,46.5-14.4,50.5c-2.4,5.7-4.3,9.3-6,11.8c-0.5-8.7-2.5-16-2.7-16.5
			c-0.3-1-1.3-1.6-2.4-1.3c-1,0.3-1.6,1.3-1.3,2.4c0.1,0.2,6.3,22.2-0.6,34.7c-7.4,13.4-24.8,24.8-32.3,25.2
			c-5.6,0.2-9,0.2-12.5,0.1c-1.8,0-3.7-0.1-6-0.1c-0.1,0-0.1,0-0.2,0c-7.8,0-13.9-0.6-16.4-1.7c-2.7-1.1-3.5-2.7-2.9-5.7
			c0.8-4,7.7-5.5,10.3-5.8c1-0.1,1.8-1,1.7-2.1c-0.1-1-1-1.8-2.1-1.7c-0.5,0-12.2,1.2-13.7,8.8c-0.9,4.7,0.9,8.1,5.2,9.9
			c4.1,1.7,12.9,1.9,17.9,1.9h0.1c2.2,0,4.2,0,6,0.1c1.8,0,3.5,0.1,5.5,0.1c2.1,0,4.4,0,7.3-0.2c11.1-0.5,29.1-15.6,35.4-27.1
			c2.5-4.5,3.5-9.9,3.7-15.2c2.9-3,5.7-7.1,9.5-16.2c1.7-4.1,10.4-25.8,14.7-51.4c3.4-20.1,3.7-41.6,3.9-53.1v-2.3
			c0-0.6,0.1-1.3,0.1-2.1C237.6,88.4,237.9,84.5,237.3,80.1z"/>
		<path d="M88.6,195.3c-5.6-3.2-8.4-9.6-8.5-9.7c-0.4-1-1.5-1.4-2.5-1s-1.4,1.5-1,2.5c0.1,0.3,3.3,7.6,10.1,11.5
			c6.6,3.8,11.5,4.1,11.7,4.1h0.1c1,0,1.9-0.8,1.9-1.8s-0.8-1.9-1.8-2C98.5,198.9,94.4,198.7,88.6,195.3z"/>
		<path d="M45.6,67.1c0,1,0.9,1.9,1.9,1.9s1.9-0.9,1.9-1.9c0-0.9-0.3-2.5-0.8-5.6C48,57.8,46.3,48,47.1,45.7l0,0
			c2.8,0,13.8,5.9,16,8.7c0.6,0.8,1.8,1,2.7,0.3s1-1.8,0.3-2.7c-2.2-2.8-16.2-11.9-20.8-9.8c-3,1.4-2.6,7-0.4,20
			C45.2,64.3,45.6,66.5,45.6,67.1z"/>
		<path d="M104.6,54.7c0.8,0.6,2,0.5,2.7-0.3c2.1-2.8,13.2-8.7,15.9-8.7l0,0c0.8,2.3-0.9,12.1-1.6,15.9c-0.5,3.1-0.8,4.7-0.8,5.6
			c0,1,0.9,1.9,1.9,1.9s1.9-0.9,1.9-1.9c0-0.6,0.4-2.8,0.7-4.9c2.2-13,2.7-18.6-0.4-20c-4.6-2.1-18.6,7-20.8,9.8
			C103.6,52.9,103.8,54.1,104.6,54.7z"/>
		<path d="M65.8,57.6c0.6,0.9,1.7,1.1,2.6,0.6c0.1,0,5.4-3.3,14.6-3.3c9.5,0,18.3,3.5,18.4,3.5c0.2,0.1,0.5,0.1,0.7,0.1
			c0.8,0,1.5-0.5,1.8-1.2c0.4-1-0.1-2.1-1.1-2.5C102.4,54.6,93.2,51,83,51c-10.5,0-16.4,3.8-16.7,3.9C65.5,55.6,65.2,56.7,65.8,57.6
			z"/>
		<path d="M54.6,125.4L54.6,125.4c-0.1,1,0.6,2,1.6,2.1c0.1,0,0.2,0,0.3,0c0.9,0,1.7-0.7,1.9-1.6c0.1-0.4,0.4-3.8-3-9.7
			c-0.5-0.8-1-1.6-1.5-2.4c-3.3-5.2-7.7-12.3-7.7-23.8c0-9.5,3.1-17.4,3.1-17.5c0.4-1-0.1-2.1-1.1-2.5s-2.1,0.1-2.5,1.1
			c-0.1,0.3-3.4,8.7-3.4,18.9c0,12.6,4.8,20.2,8.3,25.8c0.5,0.8,1,1.6,1.4,2.3C54.8,122.9,54.6,125.4,54.6,125.4z"/>
		<path d="M90.9,252.8c-0.1,0.1-2.8,2.3-8.7,2.3h-0.1c-3.5,0-7.6-1-7.6-5.7c0-2.2,0.5-2.9,1.4-3.9c1.1-1.3,2.4-3,2.4-7v-1.6
			c0-6.4,0-13.7-2.6-20.8c-0.9-2.5-2.5-5.2-4.4-8.7c-4-7-9.5-16.7-13.5-31.4c-4.8-17.9,0-43.3,0-43.5c0.2-1-0.5-2-1.5-2.2
			s-2,0.5-2.2,1.5c-0.2,1.1-5,26.4,0,45.2c4.1,15.2,9.7,25.1,13.8,32.3c1.9,3.3,3.4,5.9,4.2,8.1c2.4,6.5,2.4,13.4,2.4,19.4v1.6
			c0,2.7-0.7,3.5-1.6,4.6c-1,1.2-2.3,2.8-2.3,6.4c0.1,6,4.3,9.5,11.4,9.5h0.1c7.5,0,11-3.2,11.2-3.3c0.8-0.7,0.8-1.9,0.2-2.7
			C92.9,252.2,91.7,252.1,90.9,252.8z"/>
		<path d="M125.1,207c-1-0.3-2.1,0.2-2.4,1.2c-1.6,4.6-4.1,29.5-2.6,33.3c0.1,0.4,0.3,0.8,0.5,1.2c1.4,3.4,2.2,6.1,0.1,8.9
			c-2.3,3.1-6.7,4.6-11.8,3.9c-3.9-0.6-6.1-1.9-6.7-2.9c-0.3-0.4-0.3-0.8-0.2-1c0.3-1-0.4-2.1-1.4-2.3c-1-0.3-2.1,0.4-2.3,1.4
			c-0.3,1.4-0.1,2.8,0.8,4c1.5,2.3,4.9,3.9,9.4,4.6c1,0.1,2,0.2,3,0.2c5.2,0,9.7-2,12.3-5.6c3.5-4.7,1.6-9.4,0.3-12.6
			c-0.2-0.4-0.3-0.7-0.4-1.1c-0.9-2.7,1.2-26.2,2.7-30.8C126.6,208.4,126.1,207.3,125.1,207z"/>
		<path d="M170.8,133.1c14.6,11.5,22,23.8,25.6,32.1c3.9,9,4.4,15.4,4.4,15.5c0.1,1,0.9,1.8,1.9,1.8h0.1c1-0.1,1.8-1,1.8-2
			c0-0.2-0.1-1.7-0.6-4c0.1-0.1,0.2-0.3,0.3-0.5c4.8-10.5,8.2-26.7,12.1-49.5c2.4-13.7,2.5-25.7,2.6-35.4c0.2-14.2,0.5-21.7,5.7-23
			c1.4-0.3,2.6,0.2,3.5,0.7c1.9,1.2,3.4,3.4,3.8,5.5c0.2,1,1.2,1.7,2.2,1.5s1.7-1.2,1.5-2.2c-0.6-3.1-2.8-6.3-5.5-8
			c-2.1-1.3-4.3-1.7-6.4-1.2c-8.3,2.1-8.4,11.8-8.6,26.6c-0.1,9.5-0.3,21.4-2.6,34.8c-3.4,19.8-6.4,34.5-10.3,44.7
			c-3.1-9.9-10.8-25.8-29.3-40.4c-8.8-6.9-18.4-10.3-26.9-13.3c-9.6-3.4-17.2-6.1-19.1-12.4c-0.5-1.6,0-4.2,0.6-7.3
			c0.6-3.2,1.3-6.8,1.2-10.7c-0.2-8.6-4.2-15.3-4.4-15.5c-0.5-0.9-1.7-1.2-2.6-0.6c-0.9,0.5-1.2,1.7-0.6,2.6c0,0.1,3.6,6.1,3.8,13.7
			c0.1,3.5-0.6,6.9-1.2,9.8c-0.7,3.5-1.3,6.6-0.5,9.1c2.5,8.2,11.3,11.3,21.5,14.9C153.2,123.3,162.5,126.6,170.8,133.1z"/>
		<path d="M99.6,246.3L99.6,246.3c1.1,0,1.9-0.8,1.9-1.9c0-0.1,0.2-9.2-0.1-19.6c-0.3-10.5-2-17.9-2.1-18.2c-0.2-1-1.2-1.7-2.3-1.4
			c-1,0.2-1.7,1.2-1.4,2.3c0,0.1,1.7,7.4,2,17.5c0.3,10.2,0.1,19.3,0.1,19.3C97.7,245.4,98.5,246.3,99.6,246.3z"/>
	</g>
</g>
</svg>
