<?xml version="1.0" encoding="utf-8"?>
<!-- Generator: Adobe Illustrator 26.2.1, SVG Export Plug-In . SVG Version: 6.00 Build 0)  -->
<svg version="1.1" id="レイヤー_1" xmlns="http://www.w3.org/2000/svg" xmlns:xlink="http://www.w3.org/1999/xlink" x="0px"
	 y="0px" viewBox="0 0 280 280" style="enable-background:new 0 0 280 280;" xml:space="preserve">
<style type="text/css">
	.st0{fill:#FFFFFF;}
</style>
<g>
	<g>
		<path class="st0" d="M139.7,120l0.1-0.3C139.4,120.1,139.4,120.1,139.7,120z"/>
		<path class="st0" d="M240.8,66.8l-3.2-8.9c-1.3-5.7-5.7-7.7-5.7-3.2s-6.5,0.6-12.5,4.2c-6,3.6-8.5,9.7-9.4,11.3
			c-0.5,0.9-1.1,1.8-1.9,2.6c-2.2,2.4-6.7,4.3-8.9,10.7c-2.2,6.7-1.6,8.9-1.1,11.3c0.4,1.8-0.2,3.6-1.6,4.9
			c-0.9,0.8-1.8,1.9-2.6,3.3c-1.5,2.5-2.4,7.7-2.7,10.5c-0.2,1.2-0.6,2.4-1.3,3.4c-1.2,1.9-3.1,5.6-3.8,10.7c-1,7.7-1.5,8.9-1.5,8.9
			s-0.2,1.9-0.6,5c-1.6-2.9-5.1-9.1-8.8-12.8c-9.6-9.6-21.4-11.8-21.4-11.8h-4.1c-3.3-0.2-8.8,2.7-10,3.2l-0.6,3l0.2-3.1
			c0,0-2.8,1-7.1,2.5c4.7-2.1,7.8-3.7,8.1-3.9c0.7-0.3,0.5,1.8,2.6-1.3c0.5-0.8-4.4-4.7-4.4-4.7c-0.6-0.6-6-6.8-6-6.8
			s3.2-2.6,0.6-4.5c-2.6-1.9-3.4-5.8-3.4-5.8s4.6-1.2,5.3-3.1c0.6-1.9-3.2-2.6-6.4-6.4s-4-4.8-4-4.8s-0.4-2.2-2.4-5.3
			c1-3,2.2-8.4,0.9-14.9c-1.7-8.8-2.6-12-5.1-12.6c-2.6-0.6-10.2,7.7-11.5,9.6c-0.9,1.3-2.4,3.6-3.2,4.9c-3.7-1-8-1.6-13-1.6
			c-5.6,0-10.5,0.8-14.7,2c-0.8-1.1-1.6-2.4-2.2-3.3c-1.3-1.9-8.9-10.2-11.5-9.6s-3.4,3.8-5.1,12.6c-1.2,6-0.3,10.5,0.5,12.9
			c-2,3.1-2.5,5.1-2.5,5.1s-1,1.1-4.2,5c-3.2,3.8-7,4.5-6.4,6.4s5.3,3.1,5.3,3.1s-0.8,3.9-3.4,5.8c-2.6,1.9,0.6,4.5,0.6,4.5
			s-8.9,10.2-9.6,10.9c-0.6,0.6,1.3,5.1,4.5,4.5s4.3,0.1,4.3,0.1v1.4c0,1.7,1.4,4.9,1.4,4.9s1.3,0.4,3.7,0.9v0.2
			c0,0-1.9,1.3-2.6,3.2l-1.9,2.6c0,0-2,2.9-2.6,12.5s3,23.2,3,23.2l0.9,3.3l0.6,5.1l-0.1-0.1c0,0,0,13.2,7.5,26.1
			c5.7,9.9,15.5,27.2,15.9,33c0.3,5.8-1,15.2,1.9,18.2c2.9,2.9,9.3,3.6,13.1,2.9c3.8-0.6,5.7-3.2,5.1-6.4c-0.9-4.6,0-7,0-7
			c-0.1-0.3,0.6,0,0.6,0s0.9,2.5,0,7c-0.6,3.2,1.3,5.7,5.1,6.4s10.2,0,13.1-2.9c0.9-0.9,1.4-2.5,1.7-4.5l3.3,0.2c0,0,2,3,7.1,2.8
			s7.5,0,7.5,0l2.1-5.4c-0.6,4.5,0.6,8,1.3,9.1c0.6,1.1,6.4,4.8,10.6,2.6c4.1-2.1,9.2-1.5,9.2-1.5c2.5-0.3,7.7,1.5,7.7,1.5
			c7.1,0.9,8.3-2.8,11.5-3.6c3.2-0.8,11.5-4.4,11.5-4.4c1.8-0.4,4.5-1.2,4.5-1.2s3.8-0.9,8.3-1.3c4.6-0.4,12.5-7,15.8-16.7
			c0.4,0.5,0.6,0.8,0.6,0.8c0-3.2,6.4-7,10.9-11.5s4.9-7.5,4.9-7.5c0.4-5.3-1.1-8.9-1.1-8.9s2.5-6.6,3.8-10.7c1.3-4.1,0-6.3,0-6.3
			C231.1,185,228,178,228,178s1.3-3.8,1.9-8.1c0.6-4.3,0-7.6,0-7.6l-1.9-4.5c0,0,3.8-6.7,3.8-10.4c0-3.8-0.6-14.1-1.9-19.9
			s1.9-7.5,1.9-12.8v-7c0,0-1.9-3.2-1.9-7s7.7-10.2,10.9-18C242.8,77.6,241.4,70.6,240.8,66.8z M112.7,247.5c0.1-3.4-0.2-7.2,0-10.1
			c0.1-2.6,2.2-7.4,4.9-12.9L112.7,247.5z"/>
	</g>
	<g>
		<path d="M47.2,173.5c1-0.3,1.6-1.3,1.3-2.3c0-0.1-3.6-13.4-3-22.6c0.6-8.9,4.1-14.4,4.2-14.4c0.6-0.9,0.3-2-0.5-2.6
			c-0.9-0.6-2.1-0.3-2.6,0.5c-0.2,0.3-4.1,6.3-4.8,16.3c-0.7,9.8,2.9,23.2,3.1,23.8c0.2,0.8,1,1.4,1.8,1.4
			C46.9,173.6,47.1,173.5,47.2,173.5z"/>
		<path d="M91.6,241.7c0.1,0,0.2,0,0.3,0c0.1,0,0.2,0,0.3,0c1,0,1.9-0.9,1.9-1.9v-16c0-6,1.8-12.2,1.8-12.2c0.3-1-0.3-2.1-1.3-2.4
			c-1-0.3-2.1,0.3-2.4,1.3c0,0.1-0.2,0.6-0.4,1.5c-0.2-0.9-0.4-1.5-0.4-1.5c-0.3-1-1.4-1.6-2.4-1.3s-1.6,1.4-1.3,2.4
			c0,0.1,1.8,6.2,1.8,12.2v16C89.7,240.9,90.6,241.7,91.6,241.7z"/>
		<path d="M114.3,239.3c0.3-5.5,11-24.2,15.6-32.1c7.6-13.3,7.7-26.5,7.7-27.1c0-0.7-0.4-1.3-1-1.6c2.6-5.8,0.8-10.1,0.8-10.3
			c-0.4-1-1.5-1.4-2.5-1s-1.4,1.5-1,2.5c0.1,0.1,1.4,3.7-1.4,8.6c-1.7,3-2.9,4.6-3,4.6c-0.7,0.8-0.5,2,0.3,2.7
			c0.4,0.3,0.8,0.4,1.2,0.4c0.6,0,1.1-0.2,1.5-0.7c0,0,0.4-0.5,1-1.4c-0.5,4.7-2.2,13.2-6.9,21.5c-8.2,14.3-15.8,28.2-16.1,33.8
			c-0.1,1.7-0.1,3.6,0,5.6c0.1,4.1,0.2,9.8-1.4,11.4c-2.2,2.2-7.7,3-11.4,2.4c-1.5-0.2-2.6-0.8-3.2-1.7c-0.5-0.7-0.6-1.5-0.4-2.5
			c1-4.9,0-7.8-0.1-8.1c-0.3-0.9-1.2-1.3-2.1-1.2c-0.9-0.2-1.8,0.3-2.1,1.2c-0.1,0.3-1.1,3.1-0.1,8.1c0.2,1,0.1,1.8-0.4,2.5
			c-0.6,0.8-1.7,1.4-3.2,1.7c-3.8,0.6-9.3-0.2-11.4-2.4c-1.6-1.6-1.4-7.3-1.4-11.4c0-2,0.1-3.9,0-5.6c-0.3-5.6-7.9-19.6-16.1-33.8
			C50.1,193,50,180.3,50,180.2c0-1-0.9-1.9-1.9-1.9l0,0c-1,0-1.9,0.9-1.9,1.9c0,0.6,0.1,13.8,7.7,27.1c4.6,8,15.3,26.7,15.6,32.1
			c0.1,1.5,0,3.3,0,5.3c-0.1,5.6-0.2,11.4,2.5,14.1c2.8,2.8,7.6,3.7,11.5,3.7c1.2,0,2.4-0.1,3.3-0.2c2.2-0.4,3.9-1.3,5.1-2.6
			c1.2,1.3,2.9,2.2,5.1,2.6c0.9,0.2,2,0.2,3.3,0.2c3.8,0,8.7-0.9,11.5-3.7c2.7-2.7,2.6-8.5,2.5-14.1
			C114.2,242.6,114.2,240.8,114.3,239.3z"/>
		<path d="M51.9,168c-1-0.4-2.1,0.1-2.5,1c-0.1,0.2-2.1,5.2,1.5,11.7c1.8,3.2,3.1,4.9,3.1,5c0.4,0.5,0.9,0.7,1.5,0.7
			c0.4,0,0.8-0.1,1.2-0.4c0.8-0.6,1-1.8,0.3-2.7c0,0-1.2-1.5-2.8-4.5c-2.7-4.8-1.4-8.2-1.3-8.4C53.4,169.5,52.9,168.4,51.9,168z"/>
		<path d="M61.4,178.2c-1-0.2-2,0.5-2.2,1.5c-0.1,0.3-1.5,7.9,3.8,12.4c4.3,3.7,5.3,4.7,5.3,4.7c0.4,0.4,0.9,0.6,1.4,0.6
			s0.9-0.2,1.3-0.5c0.8-0.7,0.8-1.9,0.1-2.7c-0.1-0.1-1.1-1.2-5.6-5c-3.5-3-2.5-8.7-2.5-8.8C63.1,179.4,62.4,178.4,61.4,178.2z"/>
		<path d="M76.9,188.9c-1-0.2-2,0.4-2.3,1.4c0,0.2-1,4.4,1.2,9.4c2,4.6,8.3,7.8,9,8.2c0.3,0.1,0.6,0.2,0.8,0.2
			c0.7,0,1.4-0.4,1.7-1.1c0.5-0.9,0.1-2.1-0.9-2.5c-1.6-0.8-6-3.4-7.2-6.3c-1.6-3.8-1-6.9-1-7C78.6,190.2,77.9,189.2,76.9,188.9z"/>
		<path d="M120.8,188.8c-4.6,3.9-5.7,5-5.8,5.1c-0.7,0.7-0.7,1.9,0,2.7c0.4,0.4,0.9,0.6,1.3,0.6c0.5,0,1-0.2,1.3-0.6
			c0,0,1.1-1.1,5.6-4.8c5.5-4.6,4-12.4,3.9-12.7c-0.2-1-1.2-1.7-2.2-1.5s-1.7,1.2-1.5,2.2C123.5,179.8,124.6,185.7,120.8,188.8z"/>
		<path d="M98.6,204.5c-0.9,0.5-1.3,1.6-0.9,2.5c0.3,0.7,1,1.1,1.7,1.1c0.3,0,0.6-0.1,0.8-0.2c0.7-0.4,7.4-3.6,9.5-8.4
			c2.2-5.1,1.3-9.4,1.2-9.6c-0.2-1-1.3-1.6-2.3-1.4c-1,0.2-1.7,1.3-1.4,2.3c0,0,0.7,3.3-1,7.2C105,200.9,100.3,203.7,98.6,204.5z"/>
		<path d="M189.1,145.7c-0.1-0.3-1.8-3.6-4.1-7.5c0.7,0,1.4-0.5,1.7-1.2c0.1-0.3,0.6-2,1.6-9.4c0.7-4.8,2.5-8.3,3.6-9.9
			c0.8-1.3,1.3-2.7,1.5-4.2c0.6-4.6,1.5-8.2,2.5-9.8c0.6-1,1.4-2,2.3-2.9c1.8-1.7,2.6-4.2,2.1-6.7l-0.1-0.4c-0.5-2.2-0.8-4.1,1.1-10
			c1.4-4.2,3.9-6.2,6.1-7.9c0.9-0.7,1.7-1.4,2.4-2.1c0.8-0.9,1.5-1.9,2.1-2.9c0.1-0.2,0.3-0.6,0.5-0.9c1.1-2.2,3.5-6.9,8.2-9.7
			c2.4-1.4,4.9-1.4,7.1-1.5c2.5,0,6.3-0.1,6.3-4.3c0-0.1,0-0.2,0-0.3c0.6,0.5,1.5,1.8,2,3.9c0.2,1,1.2,1.7,2.3,1.4
			c1-0.2,1.7-1.2,1.4-2.3c-1-4.4-3.7-7.4-6.5-7.1c-1.5,0.2-3,1.4-3,4.4c0,0.2,0,0.3,0,0.3c-0.4,0.2-1.6,0.2-2.5,0.2
			c-2.4,0-5.7,0.1-9,2c-5.7,3.4-8.5,8.9-9.7,11.3c-0.2,0.3-0.3,0.6-0.4,0.8c-0.4,0.8-1,1.5-1.6,2.2c-0.5,0.5-1.2,1.1-2,1.7
			c-2.3,1.9-5.6,4.4-7.3,9.7c-2.3,6.9-1.8,9.5-1.2,12l0.1,0.3c0.2,1.2-0.2,2.3-1,3.2c-1.2,1.1-2.2,2.3-3,3.7
			c-1.6,2.7-2.5,7.6-3,11.2c-0.1,0.9-0.4,1.8-1,2.6c-1.2,1.9-3.4,5.9-4.1,11.5c-0.7,5.1-1.1,7.3-1.3,8.1c-1.9-3-4-6-5.9-7.9
			c-9.9-9.9-21.9-12.2-22.4-12.3c-1-0.2-2,0.5-2.2,1.5s0.5,2,1.5,2.2c0.1,0,11.3,2.2,20.4,11.3c4.6,4.6,11.1,17.3,11.1,17.4
			c0.3,0.7,1,1,1.7,1c0.3,0,0.6-0.1,0.9-0.2C189.2,147.8,189.6,146.6,189.1,145.7z"/>
		<path d="M144.5,150.7c0,0,0.5,4.8,0,8.1c-0.4,2.8-2.5,4.7-2.5,4.8c-0.8,0.7-0.8,1.9-0.1,2.7c0.4,0.4,0.9,0.6,1.4,0.6
			s0.9-0.2,1.3-0.5c0.1-0.1,3.1-2.9,3.7-7c0.5-3.7,0-8.8,0-9c-0.1-1-1-1.8-2.1-1.7C145.2,148.7,144.4,149.6,144.5,150.7z"/>
		<path d="M243.1,67.3l-0.2-0.9c-0.2-1-1.2-1.7-2.2-1.6c-1,0.2-1.7,1.2-1.6,2.2l0.2,0.9c0.6,3.7,1.7,9.8,0,13.9
			c-1.5,3.6-4,6.9-6.2,9.8c-2.7,3.5-4.8,6.3-4.8,8.9c0,4.3,2.1,7.9,2.2,8c0.4,0.6,1,0.9,1.6,0.9c0.3,0,0.7-0.1,1-0.3
			c0.9-0.5,1.2-1.7,0.7-2.6c0,0-1.6-2.8-1.6-6.1c0-1.3,2-4,4-6.5c2.4-3.1,5.1-6.7,6.7-10.7C245,78.2,243.8,71.4,243.1,67.3z"/>
		<path d="M234,114.6c0-1-0.9-1.9-1.9-1.9s-1.9,0.9-1.9,1.9c0,1.9-0.5,3.3-1,4.8c-0.8,2.1-1.7,4.6-0.8,8.4
			c1.2,5.5,1.9,15.6,1.9,19.5c0,2.7-2.6,7.7-3.6,9.5c-0.5,0.9-0.2,2.1,0.7,2.6c0.3,0.2,0.6,0.3,0.9,0.3c0.7,0,1.3-0.3,1.6-1
			c0.4-0.7,4.1-7.2,4.1-11.4c0-4-0.7-14.5-2-20.3c-0.6-2.7,0-4.3,0.7-6.3C233.4,119.1,234,117.2,234,114.6z"/>
		<path d="M226.5,177.3c-0.3,1,0.2,2.1,1.2,2.4c0.2,0.1,0.4,0.1,0.6,0.1c0.8,0,1.5-0.5,1.8-1.3c0.1-0.2,1.3-4,2-8.4
			c0.7-4.6,0-8.1,0-8.2c-0.2-1-1.2-1.7-2.2-1.5s-1.7,1.2-1.5,2.2c0,0,0.6,3.1,0,6.9C227.7,173.5,226.5,177.2,226.5,177.3z"/>
		<path d="M231.2,187.5c-0.9,0.5-1.2,1.7-0.7,2.6c0,0.1,0.8,1.7-0.2,4.8c-1.2,4-3.8,10.5-3.8,10.6c-0.4,1,0.1,2.1,1.1,2.5
			c0.2,0.1,0.5,0.1,0.7,0.1c0.8,0,1.5-0.5,1.8-1.2c0.1-0.3,2.6-6.7,3.9-10.8c1.5-4.8,0-7.5-0.2-7.8
			C233.2,187.3,232.1,187,231.2,187.5z"/>
		<path d="M229.7,213.2c-1-0.2-2,0.5-2.2,1.5c0,0-0.5,2.6-4.4,6.5c-1.4,1.4-3,2.7-4.5,4c-0.6,0.5-1.2,1-1.8,1.5
			c1.3-13.4-3.4-28.9-3.6-29.6c-0.3-1-1.4-1.6-2.4-1.3s-1.6,1.4-1.3,2.4c0,0.2,4.9,15.9,3.4,28.6c-1.4,12.3-11,20.9-15.5,21.3
			c-4.6,0.4-8.4,1.3-8.6,1.3c-1,0.2-1.7,1.3-1.4,2.3c0.2,0.9,1,1.5,1.8,1.5c0.1,0,0.3,0,0.4,0c0,0,3.7-0.9,8-1.2
			c5.1-0.4,12.9-6.8,16.8-16.2c0.6-0.3,0.9-0.9,0.9-1.6c0-1.3,3.2-3.9,5.5-5.9c1.6-1.3,3.3-2.7,4.8-4.2c4.8-4.8,5.4-8.2,5.5-8.6
			C231.5,214.3,230.8,213.4,229.7,213.2z"/>
		<path d="M197.8,161.3c-0.7-0.7-1.4-1.3-1.8-1.8c-0.6-0.8-1.8-1-2.7-0.4c-0.8,0.6-1,1.8-0.4,2.7c0.6,0.8,1.4,1.5,2.2,2.3
			c2.1,2,5.1,4.7,7.7,11.3c2.1,5.2,2.4,17.7,2.4,17.9c0,1,0.9,1.9,1.9,1.9l0,0c1,0,1.9-0.9,1.9-1.9c0-0.5-0.4-13.3-2.7-19.2
			C203.5,166.5,200,163.4,197.8,161.3z"/>
		<path d="M184.1,250.8c-0.1,0-8.2,3.5-11.2,4.3c-1.4,0.3-2.4,1-3.4,1.7c-1.7,1.2-3.3,2.3-7.3,1.8c-1.1-0.1-2,0.6-2.1,1.7
			c-0.1,1,0.6,2,1.7,2.1c0.8,0.1,1.6,0.1,2.2,0.1c4,0,6.1-1.5,7.7-2.6c0.8-0.6,1.5-1,2.2-1.2c3.3-0.8,11.5-4.3,11.8-4.5
			c1-0.4,1.4-1.5,1-2.5C186.2,250.8,185.1,250.4,184.1,250.8z"/>
		<path d="M154.5,257.1c-0.2,0-5.8-0.7-10.4,1.7c-2.8,1.4-7.2-1-8.1-1.9c-0.5-0.9-1.6-4-1-7.8c0.3-1.9,6.6-4.8,12.1-6.2
			c1-0.3,1.6-1.3,1.4-2.3c-0.3-1-1.3-1.6-2.3-1.4c-13.1,3.3-14.8,8-14.9,9.3c-0.2,1.3-0.2,2.6-0.2,3.7c-0.6-0.1-3.1-0.2-7.6,0
			c-3.8,0.2-5.3-1.8-5.4-2c-0.6-0.9-1.7-1.1-2.6-0.5s-1.1,1.7-0.6,2.6c0.1,0.2,2.7,4,8.8,3.7c4.9-0.2,7.2,0,7.2,0c0.1,0,0.1,0,0.2,0
			c0.2,0,0.4,0,0.6-0.1c0.3,1.3,0.7,2.3,1.1,2.9c0.9,1.5,5.1,4.3,9.3,4.3c1.3,0,2.6-0.3,3.8-0.9c3.5-1.8,8.1-1.3,8.1-1.3
			c1,0.1,2-0.6,2.1-1.7S155.5,257.2,154.5,257.1z"/>
		<path d="M56.6,77c0.2,0,0.5,0,0.7-0.2c1-0.4,1.4-1.5,1-2.5c0,0-1.6-4.2,0.1-13.1c1.4-7.1,2.2-10.6,3.6-11.1
			c1.9,0.3,8.1,6.6,9.6,8.8l2.6,3.8c-0.5,0.2-0.7,0.3-0.8,0.3c-1,0.4-1.4,1.6-0.9,2.5c0.4,1,1.6,1.4,2.5,0.9c0.1,0,5.4-2.4,15.7-2.4
			c10.2,0,14.8,2.3,14.8,2.3c0.3,0.2,0.6,0.2,0.9,0.2c0.7,0,1.3-0.4,1.7-1c0.5-0.9,0.1-2.1-0.8-2.6c-0.1,0-0.5-0.2-1.3-0.5l2.4-3.6
			c1.5-2.2,7.7-8.4,9.6-8.8c1.4,0.5,2.2,4,3.6,11.1c1.7,8.8,0.2,13,0.1,13.1c-0.4,1,0,2.1,1,2.5c0.2,0.1,0.5,0.2,0.7,0.2
			c0.7,0,1.4-0.4,1.7-1.2c0.1-0.2,2.1-5.1,0.1-15.3c-1.7-8.5-2.6-13.1-6.5-14.1c-1.2-0.3-3.3-0.1-8,4.3c-2.4,2.3-4.8,4.9-5.6,6.1
			l-3.1,4.6c-2.7-0.6-6.5-1.1-11.5-1.1c-5.5,0-9.8,0.6-12.6,1.3l-3.2-4.8c-0.8-1.1-3.1-3.8-5.6-6.1c-4.7-4.4-6.7-4.6-8-4.3
			c-3.9,1-4.9,5.6-6.5,14.1c-2,10.2,0,15.1,0.1,15.3C55.2,76.6,55.9,77,56.6,77z"/>
		<path d="M42.8,122.9c0.9-0.2,1.5-0.2,2-0.2c0,2.1,0.6,4.1,1.8,5.8c0.4,0.6,1,0.9,1.6,0.9c0.4,0,0.7-0.1,1-0.3
			c0.9-0.6,1.1-1.7,0.6-2.6c-0.7-1.1-1.1-2.5-1.1-3.8v-1.4c0-0.7-0.3-1.3-0.9-1.6c-0.5-0.3-2.1-1-5.7-0.3c-0.2,0-0.6,0.1-1.1-0.3
			c-0.6-0.4-1-1.1-1.1-1.6c1.9-2.1,7.8-8.9,9.1-10.4c0.3-0.4,0.5-0.9,0.5-1.4s-0.3-1-0.7-1.3c-0.5-0.4-0.9-1-0.9-1.2
			c0,0,0.1-0.1,0.2-0.2c3-2.3,4-6.5,4.1-6.9c0.2-1-0.4-2-1.4-2.2c-1.5-0.4-3.1-1.1-3.7-1.6c0.3-0.2,0.8-0.6,1.1-0.8
			c1.3-0.9,3-2.1,4.7-4c3.2-3.8,3.9-4.9,4-5c0.6-0.9,0.3-2-0.6-2.6c-0.9-0.6-2-0.3-2.6,0.5c0,0-0.7,1-3.7,4.6
			c-1.3,1.5-2.7,2.5-3.9,3.3c-1.6,1.1-3.6,2.5-2.8,4.9c0.6,1.9,2.9,3.1,4.7,3.8c-0.4,1.1-1.1,2.3-2.1,3.1c-1.4,1.1-1.7,2.3-1.8,3.2
			c0,1.1,0.5,2.1,1,2.8c-3.4,3.9-7.9,9-8.4,9.5c-0.9,0.9-0.9,2.5,0.1,4.3C37.7,121.5,39.9,123.5,42.8,122.9z"/>
		<path d="M124.2,79.6c-0.8,0.7-0.9,1.9-0.2,2.7c0,0,0.8,1,4,4.8c1.6,2,3.4,3.2,4.7,4c0.4,0.2,0.8,0.6,1.1,0.8
			c-0.7,0.5-2.2,1.3-3.7,1.6c-1,0.3-1.6,1.2-1.4,2.2c0.1,0.5,1.1,4.7,4.1,6.9c0.2,0.1,0.2,0.2,0.2,0.2c0,0.2-0.4,0.9-0.9,1.3
			c-0.4,0.3-0.7,0.8-0.7,1.3s0.1,1,0.5,1.4c1.3,1.5,7.2,8.3,9.1,10.4c-0.2,0.5-0.6,1.1-1.1,1.6c-0.5,0.4-0.9,0.3-1.1,0.3
			c-3.6-0.7-5.2,0-5.7,0.3c-0.6,0.3-0.9,1-0.9,1.6v1.4c0,1.4-0.4,2.7-1.1,3.8c-0.6,0.9-0.3,2.1,0.6,2.6c0.3,0.2,0.7,0.3,1,0.3
			c0.6,0,1.2-0.3,1.6-0.9c1.1-1.7,1.7-3.7,1.8-5.8c0.5,0,1.1,0.1,2,0.2c2.9,0.6,5.1-1.4,6.1-3.4c1-1.8,1-3.4,0.1-4.3
			c-0.4-0.4-5-5.6-8.4-9.5c0.5-0.7,1-1.7,1-2.8c0-0.9-0.3-2.1-1.8-3.2c-1-0.7-1.7-2-2.1-3.1c1.8-0.7,4.1-1.9,4.7-3.8
			c0.8-2.4-1.2-3.8-2.8-4.9c-1.2-0.8-2.6-1.8-3.9-3.3c-3.2-3.8-4-4.8-4-4.8C126.2,79.1,125,79,124.2,79.6z"/>
	</g>
</g>
</svg>
