<?xml version="1.0" encoding="UTF-8"?><svg id="a" xmlns="http://www.w3.org/2000/svg" viewBox="0 0 60 60"><g id="b"><g id="c"><g><path d="M16.43,45.06c-8.43-4.21,1-23,13-23,11,0,20.45,19.78,14,23-8,4-9.72-10-14-10s-5,14-13,10Z" fill="#666"/><path d="M18.55,44.71s1.66,.74,3.83-1.13c2.17-1.87,3.47-3.45,4.68-5.57l1.5-2.62c.53-.63,1.5-.63,2.03,0l1.46,2.5c1.29,2.2,3.32,4.81,4.9,5.82,1.59,1.01,3.59,1.01,3.59,1.01" fill="none" stroke="#000" stroke-linecap="round" stroke-linejoin="round" stroke-width="2.54"/><path d="M33.7,28.35c-.35-.46-1.36-1.28-3.97-1.31h0s-.05,0-.07,0c-.03,0-.05,0-.07,0h0c-2.61,.03-3.61,.86-3.97,1.31-.16,.21-.18,.49-.04,.72,.42,.69,2.18,1.64,3.25,2.14,.53,.24,1.13,.24,1.65,0,1.07-.49,2.83-1.45,3.25-2.14,.14-.22,.12-.51-.04-.72Z"/><path d="M23.8,26.09s1.95-2.93,5.59-2.93c4.17,0,6.12,2.93,6.12,2.93" fill="none" stroke="#000" stroke-linecap="round" stroke-linejoin="round" stroke-width="2.08"/></g></g></g></svg>