<?xml version="1.0" encoding="UTF-8"?><svg id="substantial" xmlns="http://www.w3.org/2000/svg" xmlns:xlink="http://www.w3.org/1999/xlink" viewBox="0 0 280 280"><defs><clipPath id="clippath"><path d="m213.62,234.36c0-3.19,6.39-7.03,10.86-11.5,4.47-4.47,4.94-7.52,4.94-7.52.4-5.28-1.1-8.89-1.1-8.89,0,0,2.55-6.59,3.83-10.7,1.28-4.11,0-6.27,0-6.27-.71-4.31-3.83-11.34-3.83-11.34,0,0,1.27-3.83,1.91-8.12.64-4.29,0-7.58,0-7.58l-1.91-4.47s3.83-6.66,3.83-10.42-.64-14.12-1.92-19.87,1.92-7.51,1.92-12.78v-7.03s-1.92-3.19-1.92-7.03,7.67-10.22,10.86-17.95c2.09-5.05.64-12.07,0-15.91l-3.19-8.94c-1.28-5.75-5.75-7.67-5.75-3.19s-6.47.6-12.46,4.15c-6.03,3.58-8.46,9.7-9.39,11.34-.52.92-1.14,1.78-1.86,2.55-2.2,2.39-6.73,4.27-8.87,10.7-2.24,6.71-1.61,8.85-1.11,11.33.37,1.81-.24,3.65-1.58,4.91-.86.81-1.81,1.89-2.65,3.26-1.52,2.5-2.37,7.68-2.74,10.5-.16,1.21-.6,2.35-1.26,3.38-1.21,1.89-3.15,5.58-3.84,10.69-1.04,7.67-1.52,8.94-1.52,8.94,0,0-4.4,38.65-4.4,45.04s33.15,52.7,33.15,52.7Z" fill="none"/></clipPath><clipPath id="clippath-1"><path d="m210.96,197.92c-1.03-5.41-4.15-4.49-4.15-4.49,0,0-.32-12.93-2.56-18.53-3.83-9.58-7.26-12.84-10.22-14.05-3.9-1.6-7.03-13.07-7.03-13.07l-1.85-4.5s-4.75-9.47-9.65-14.37c-9.58-9.58-21.4-11.82-21.4-11.82h-4.08c-3.27-.23-8.82,2.75-9.98,3.16l-.63,2.98.18-3.12s-33,12.03-47.99,12.57c-22.47.8-40.19-5.2-40.19-5.2v1.28s-1.92,1.28-2.56,3.19l-1.92,2.56s-1.99,2.87-2.63,12.46c-.64,9.58,3.03,23.18,3.03,23.18l.88,3.33.64,5.11-.07-.06s0,13.16,7.45,26.14c5.71,9.95,15.54,27.21,15.86,32.99.32,5.78-1.02,15.21,1.92,18.19,2.88,2.92,9.26,3.56,13.1,2.92s5.75-3.19,5.11-6.39c-.91-4.56,0-7.03,0-7.03-.07-.32.64,0,.64,0,0,0,.91,2.47,0,7.03-.64,3.19,1.28,5.75,5.11,6.39s10.22,0,13.1-2.92c.93-.95,1.43-2.55,1.69-4.47l3.27.2s1.98,3.04,7.09,2.8,7.5.01,7.5.01l2.08-5.37c-.64,4.47.64,7.97,1.28,9.09.64,1.13,6.45,4.77,10.57,2.63,4.12-2.14,9.23-1.5,9.23-1.5,2.48-.32,7.71,1.5,7.71,1.5,7.07.86,8.26-2.78,11.45-3.57,3.19-.78,11.5-4.37,11.5-4.37,1.84-.36,4.47-1.24,4.47-1.24,0,0,3.8-.89,8.3-1.28,5.54-.48,15.79-9.86,17.25-23,1.48-13.26-3.51-29.37-3.51-29.37Zm-97.95,49.78c.07-3.43-.18-7.19-.03-10.06.14-2.58,2.18-7.45,4.9-12.93l-4.88,22.98Z" fill="none"/></clipPath><clipPath id="clippath-2"><path d="m120.65,73.37c3.72,4.46,4.38,7.95,4.38,7.95,0,0,.81.96,4,4.79,3.19,3.83,7.03,4.47,6.39,6.39-.64,1.92-5.29,3.13-5.29,3.13,0,0,.82,3.9,3.37,5.81,2.56,1.92-.64,4.47-.64,4.47,0,0,5.31,6.2,5.95,6.84,0,0,4.94,3.83,4.4,4.65-2.05,3.1-1.89.94-2.59,1.29-1.03.52-27.93,14.74-49.65,14.74s-43.23-5.8-43.23-5.8c0,0-1.45-3.15-1.45-4.88v-1.44s-1.11-.7-4.3-.06c-3.19.64-5.11-3.83-4.47-4.47s9.58-10.86,9.58-10.86c0,0-3.19-2.56-.64-4.47s3.37-5.81,3.37-5.81c0,0-4.65-1.21-5.29-3.13s3.19-2.56,6.39-6.39c3.19-3.83,4.24-4.96,4.24-4.96,0,0,.71-3.28,4.47-7.78,5-6,15-12,31-12s25,6,30,12Z" fill="none"/></clipPath></defs><g id="pattern_1"><path d="m213.2,234.31c0-3.19,6.39-7.03,10.86-11.5,4.47-4.47,4.94-7.52,4.94-7.52.4-5.28-1.1-8.89-1.1-8.89,0,0,2.55-6.59,3.83-10.7,1.28-4.11,0-6.27,0-6.27-.71-4.31-3.83-11.34-3.83-11.34,0,0,1.27-3.83,1.91-8.12.64-4.29,0-7.58,0-7.58l-1.91-4.47s3.83-6.66,3.83-10.42-.64-14.12-1.92-19.87c-1.28-5.75,1.92-7.51,1.92-12.78v-7.03s-1.92-3.19-1.92-7.03,7.67-10.22,10.86-17.95c2.09-5.05.64-12.07,0-15.91l-3.19-8.94c-1.28-5.75-5.75-7.67-5.75-3.19s-6.47.6-12.46,4.15c-6.03,3.58-8.46,9.7-9.39,11.34-.52.92-1.14,1.78-1.86,2.55-2.2,2.39-6.73,4.27-8.87,10.7s-1.61,8.85-1.11,11.33c.37,1.81-.24,3.65-1.58,4.91-.86.81-1.81,1.89-2.65,3.26-1.52,2.5-2.37,7.68-2.74,10.5-.16,1.21-.6,2.35-1.26,3.38-1.21,1.89-3.15,5.58-3.84,10.69-1.04,7.67-1.52,8.94-1.52,8.94,0,0-4.4,38.65-4.4,45.04s33.15,52.7,33.15,52.7Z" fill="#fff"/><path d="m213.62,234.36c0-3.19,6.39-7.03,10.86-11.5,4.47-4.47,4.94-7.52,4.94-7.52.4-5.28-1.1-8.89-1.1-8.89,0,0,2.55-6.59,3.83-10.7,1.28-4.11,0-6.27,0-6.27-.71-4.31-3.83-11.34-3.83-11.34,0,0,1.27-3.83,1.91-8.12.64-4.29,0-7.58,0-7.58l-1.91-4.47s3.83-6.66,3.83-10.42-.64-14.12-1.92-19.87,1.92-7.51,1.92-12.78v-7.03s-1.92-3.19-1.92-7.03,7.67-10.22,10.86-17.95c2.09-5.05.64-12.07,0-15.91l-3.19-8.94c-1.28-5.75-5.75-7.67-5.75-3.19s-6.47.6-12.46,4.15c-6.03,3.58-8.46,9.7-9.39,11.34-.52.92-1.14,1.78-1.86,2.55-2.2,2.39-6.73,4.27-8.87,10.7-2.24,6.71-1.61,8.85-1.11,11.33.37,1.81-.24,3.65-1.58,4.91-.86.81-1.81,1.89-2.65,3.26-1.52,2.5-2.37,7.68-2.74,10.5-.16,1.21-.6,2.35-1.26,3.38-1.21,1.89-3.15,5.58-3.84,10.69-1.04,7.67-1.52,8.94-1.52,8.94,0,0-4.4,38.65-4.4,45.04s33.15,52.7,33.15,52.7Z" fill="#cd833b"/><g clip-path="url(#clippath)"><path d="m239.12,84.74s-3.41.48-7-3c-1.78-1.73-1.8-6.12-5.04-8.7-1.97-1.56-6.71-.19-8.96-1.3-5.59-2.76-8.54-6.83-8.54-6.83,0,0,5.45-8.25,9.4-16.34,5.08-10.44,11.9-20.7,27.49-9.26,8.72,6.4,8.94,18.17,4.16,28.61-4.78,10.44-11.51,16.83-11.51,16.83Z" fill="#473513"/><path d="m222.12,213.74s-11.81-4.69-12.92-8.12c-1.11-3.43-7.02-5.12-2.08-7.88,4.94-2.76,9.84,6.15,13,6s12.62-.47,14,2,2.91.26,1,7c-1.91,6.74-6,2-13,1Z" fill="#473513"/><path d="m195.31,91.87c-2.76-4.94,3.13-7.61,8.21-7.21,1.41.11,3.99,4.25,5.65,5.75s10.58,2.99,8.81,5.61c-1.78,2.61-7.01-.94-10.71,1.13s-9.19-.35-11.95-5.28Z" fill="#473513"/><path d="m189.53,101.07c1.4,1.75,3.53,13.1,6.59,15.68s10.04,5.5,7.66,10.82c-1.47,3.29-7.99-.28-10.17-.8-2.17-.52-9.36-9.72-9.72-13.94-.26-2.99,2.46-15.74,5.64-11.75Z" fill="#473513"/><path d="m235.31,116.97c4.27,3.29-.14,10.06-2.04,10.68-3.43,1.11-12.09-1.34-14.98-2.16-2.89-.82-6.88-5.06-3.87-8.37s7.29.16,10.45.02c3.16-.15,6.17-3.45,10.44-.16Z" fill="#473513"/><path d="m234.31,172.97c4.27,3.29-.14,10.06-2.04,10.68-3.43,1.11-12.09-1.34-14.98-2.16-2.89-.82-6.88-5.06-3.87-8.37s7.29.16,10.45.02c3.16-.15,6.17-3.45,10.44-.16Z" fill="#473513"/><path d="m221.12,148.74c4.27,3.29-1.96,5.29-3.86,5.91-3.43,1.11-12.25-4.09-15.14-4.91s-7.01-6.7-4-10,7.84,6.15,11,6,7.73-.29,12,3Z" fill="#473513"/></g><path d="m140.05,120.25l.06-.26c-.37.32-.35.37-.06.26Z" fill="#fff"/><path d="m210.96,197.92c-1.03-5.41-4.15-4.49-4.15-4.49,0,0-.32-12.93-2.56-18.53-3.83-9.58-7.26-12.84-10.22-14.05-3.9-1.6-7.03-13.07-7.03-13.07l-1.85-4.5s-4.75-9.47-9.65-14.37c-9.58-9.58-21.4-11.82-21.4-11.82h-4.08c-3.27-.23-8.82,2.75-9.98,3.16l-.63,2.98.18-3.12s-33,12.03-47.99,12.57c-22.47.8-40.19-5.2-40.19-5.2v1.28s-1.92,1.28-2.56,3.19l-1.92,2.56s-1.99,2.87-2.63,12.46c-.64,9.58,3.03,23.18,3.03,23.18l.88,3.33.64,5.11-.07-.06s0,13.16,7.45,26.14c5.71,9.95,15.54,27.21,15.86,32.99.32,5.78-1.02,15.21,1.92,18.19,2.88,2.92,9.26,3.56,13.1,2.92s5.75-3.19,5.11-6.39c-.91-4.56,0-7.03,0-7.03-.07-.32.64,0,.64,0,0,0,.91,2.47,0,7.03-.64,3.19,1.28,5.75,5.11,6.39s10.22,0,13.1-2.92c.93-.95,1.43-2.55,1.69-4.47l3.27.2s1.98,3.04,7.09,2.8,7.5.01,7.5.01l2.08-5.37c-.64,4.47.64,7.97,1.28,9.09.64,1.13,6.45,4.77,10.57,2.63,4.12-2.14,9.23-1.5,9.23-1.5,2.48-.32,7.71,1.5,7.71,1.5,7.07.86,8.26-2.78,11.45-3.57,3.19-.78,11.5-4.37,11.5-4.37,1.84-.36,4.47-1.24,4.47-1.24,0,0,3.8-.89,8.3-1.28,5.54-.48,15.79-9.86,17.25-23,1.48-13.26-3.51-29.37-3.51-29.37Zm-97.95,49.78c.07-3.43-.18-7.19-.03-10.06.14-2.58,2.18-7.45,4.9-12.93l-4.88,22.98Z" fill="#cd833b"/><g clip-path="url(#clippath-1)"><path d="m150.61,168.15c-2.76-1.81-1.83-6.59,1.54-9.77,5.34-5.03,10.86-5.25,15.6-3.27,3.82,1.6,3.3,8.33-2.58,11.79-5.88,3.46-10.65,3.81-14.56,1.25Z" fill="#a35519"/><path d="m157.73,195.03c-4.53-2.04-3.69-11.58,4.03-13.16,7.72-1.58,15.28-4.98,18.21-1.57s6.21,10.45,1.09,11.81c-5.12,1.36-16.49,6-23.33,2.92Z" fill="#a35519"/><path d="m191.32,171.26c-3.97,1.98-11.69-.82-11.94-3.55s2.95-5.75,7.65-5.24,4.94,3.24,5.11,5.05,1.4,2.63-.82,3.73Z" fill="#a35519"/><path d="m179.5,131.79c2.43,4.95-5.04,13.25-10.11,13-5.07-.25-9.65-4.52-7.29-9.8s7.43-5.03,10.81-4.87c3.38.17,5.24-1.09,6.6,1.67Z" fill="#a35519"/><path d="m199.4,208.64c-6.33-.06-12.26-7.95-9.94-11.29s8.79-4.96,13.54-1.56,2.43,6.74.88,8.97c-1.55,2.23-.94,3.91-4.48,3.88Z" fill="#a35519"/><path d="m219.73,159.39c-4.77,2.42-14.11-.91-14.44-4.19-.34-3.28,3.49-6.95,9.16-6.37,5.67.58,6,3.87,6.22,6.05s1.72,3.15-.94,4.51Z" fill="#473513"/><path d="m157.26,186.97c-1.39.12-1.69-3.17,4.85-8.15,4.57-3.48,19.05-6.06,23.62-2.03,4.57,4.02,2.7,14.12-5.43,17.03-6.56,2.34-14.98,4.6-18.06,1.55-.85-.84,8.72-2.13,12.2-4.36,3.97-2.55,8.47-6.56,4.65-10.34-3.08-3.05-8.54-1.47-13.89,1.2-3.39,1.69-6.54,4.98-7.93,5.1Z" fill="#473513"/><path d="m154.69,189.4c4.17-.36.38,2.3,1.69,3.17,2.22,1.46,5.31.64,4.37,1.83-2.52,3.18-7.05,2.39-8.34.72-1.59-2.07-.96-5.44,2.27-5.72Z" fill="#473513"/><path d="m140.61,175.96c-4.48-1.66-4.67-5.12-.51-5.48,4.17-.36,6.64-3.88,8.23-1.81s-.48,9.98-7.73,7.29Z" fill="#473513"/><path d="m157.64,132.6c2.85-4.92,7.91-5.55,14.62-3.09,11.29,4.13,8.64,11.65,6.87,14.88s-6.68,4.13-6.97-.53c-.21-3.29,5.08-8.65-1.63-11.11-10.05-3.68-4.85,6.45-7.86,8.55-4.51,3.15-7.98-3.61-5.03-8.71Z" fill="#473513"/><path d="m175.31,207.64c4.15.29,8.84,4.76,3.28,5.24-5.56.48-8.64-2.57-19.65-.52-4.32.8-20.43,6.17-17.96,2.65,2.48-3.52,7.83-6.19,14.78-6.79,6.95-.6,12.5-1.08,19.55-.58Z" fill="#473513"/><path d="m176.63,223.14c4.03-1,7.83-6.19,2.27-5.72-5.56.48-8.44-.38-19.65-.52-4.4-.05-20.84,1.79-17.76,4.84,3.08,3.05,8.44.38,15.38-.22,6.95-.6,12.91,3.3,19.75,1.61Z" fill="#473513"/><path d="m186.51,204.33c-2.3-2.14-.81-8.76,3.33-6.91,4.14,1.85,1.29,3.2,1.49,5.39s-1.57,4.55-4.82,1.52Z" fill="#473513"/><path d="m186.54,226.24c1.39-.12,13.69-3.39,12.81,2.21s-14.78,6.79-19.15,4.96c-4.37-1.83-4.77-6.21,6.34-7.17Z" fill="#473513"/><path d="m159,242.92c2.68-1.33,9.93,1.35,15.48.87,5.56-.48,14.3,3.19,10.33,5.73-3.97,2.55-25.31-1.13-25.31-1.13,0,0-5.86-2.81-.51-5.48Z" fill="#473513"/><path d="m194.11,195.59c.14,3.96,6.63.59,8.14,3.82,1.97,4.21.34,6.44-2.02,7.12-2.98.86-3.99-2.44-5.95-2.2-3.97.5-1.55,2.93-1.51,4.03.04,1.1,4.05,4.87,8.47,2.87,8.24-3.72,8.6-10.01,6.49-13.55-4.45-7.48-13.78-6.49-13.62-2.09Z" fill="#473513"/><path d="m216.36,181.68c-2.01-2.62-3.49-7.43-2.3-9.74s8.13-2.91,8.34-.72c.1,1.04-3.07,1.45-3.86,3.64-.88,2.41.61,6.57.61,6.57,0,0-1.19,2.31-2.78.24Z" fill="#473513"/><path d="m226.96,174.23c1.36,2.88,2.41,6.57.71,8.68s-6.72,4.26-6.41,2.06c.15-1.05,2.67-2.74,3.33-5.1.73-2.58-.4-5.8-.4-5.8,0,0,1.69-2.11,2.77.17Z" fill="#473513"/><path d="m145.38,116.89c6.78-2.21,16.87-2.17,14.49,2.45-2.37,4.62-9.02,8.5-13.19,8.86-4.17.36,2.37-4.62,2.17-6.81-.2-2.19-6.46-3.54-3.48-4.51Z" fill="#473513"/><path d="m135.12,131.74c-5.5.3-13.23,7.63-16.75,8.82-3.52,1.19-8.25,3.93-11.78,5.12-2.49.84-12.9,3.2-17.29,2.94-4.39-.26-2.55,3.56,1.84,3.82,4.39.26,11.69.54,16.97-1.24,5.29-1.78,14.85-4.69,18.82-6.9,3.97-2.21,10.36-5.73,12.18-7.56,2-2,2.4-3.9,2-5-.54-1.47-4.24-.1-6,0Z" fill="#473513"/><path d="m35.12,130.74c5.5.57,8.52,6.64,12,8,3.48,1.36,9.52,5.64,13,7,2.46.96,13.81,2.32,18.21,2.27,4.4-.05,1.19,3.68-3.21,3.73-4.4.05-11.78,1.03-17-1-5.22-2.03-13.11-5.6-17-8s-13.54-7.36-12.97-9.87c.56-2.51,3.9-2.44,6.97-2.13Z" fill="#473513"/><path d="m47.97,160.5c-1.47,2.25,9.8,9.56,17.63,9.28s10.86-2.59,18.69-2.86,26.84,4.55,36.09.92c9.25-3.63,25.4-19.95,23.74-22.09-1.66-2.14-22.41,16.54-30.23,16.82s-22-1.42-32.96-1.03c-9.39.33-10.86,2.59-17.13,2.81s-14.36-6.09-15.83-3.84Z" fill="#473513"/><path d="m102.56,206.86c.6-2.95,4.87-2.21,11.91-1.72,7.05.5,18.26.64,20.74-2.89,2.48-3.52,9.52-3.03,13.79-2.29s4.57,4.02-.88,5.6c-5.46,1.57-16.27,5.82-21.82,6.29-5.56.48-12.71-1.11-16.87-.76-4.17.36-7.46-1.29-6.86-4.24Z" fill="#473513"/><path d="m97.37,218.93c2.78-.24,0,0,6.95-.6s11.21.14,14.3,3.19c3.08,3.05-1.19,2.31-6.74,2.79s-10.82,3.7-14.39,3.17c-3.57-.52-2.89-8.31-.11-8.55Z" fill="#473513"/><path d="m113.39,240.4s-5.44-5.07-8.9-4.66-6.29,5.02-8.6,5.29-2.83,4.61,1.78,4.07,9.96-4.02,12.89-.08c2.93,3.94,2.83-4.61,2.83-4.61Z" fill="#473513"/><path d="m35.6,182.6c4.2-.45,13.28,8.59,20.12,6.9,6.85-1.69,13.01,4.4,8.84,4.76-4.17.36-12.4,2.17-18.06,1.55-5.66-.62-14.7-7.57-14.7-7.57,0,0-5.8-4.62,3.8-5.65Z" fill="#473513"/><path d="m49.84,219.23c2.58-2.43,6.74-2.79,13.89-1.2,7.15,1.59,10.23,4.64,14.4,4.28,4.17-.36,13.34-.39,12.48,2.06s-6.42,2.93-11.98,3.41-22.33.82-25.41-2.23c-3.08-3.05-5.96-3.9-3.38-6.33Z" fill="#473513"/><path d="m82.56,236.76c-3.89-1.76-14.7,2.48-18.77,3.93-4.07,1.45-5.15,4.86,5.96,3.9,11.11-.96,12.99,3.38,15.38-.22,2.39-3.6,1.32-5.86-2.57-7.62Z" fill="#473513"/><path d="m131.24,232.58c4.4-2.83,9.32-5.22,14.88-5.7,5.56-.48,15.79,4.16,10.43,6.83-5.35,2.67-12.3,3.27-17.96,2.65-5.66-.62-11.32-1.23-7.35-3.78Z" fill="#473513"/><path d="m180.52,161.52c4.32-2.15,7-2.79,10.64-1.71,4.59,1.36,8.8,10.68,5.64,12.72-3.3,2.12-9.98,1.79-11.16.08-2.06-3.02,6.86-2.63,6.66-4.82-.2-2.19-1.93-4.39-5.33-4.98-3.02-.52-5.95,4.19-7.54,2.12,0,0-1.59-2.07,1.09-3.41Z" fill="#473513"/><path d="m215.4,262.35c-3.11.27-10.13-3.54-14.5-5.38-4.37-1.83-20.94.7-22.53-1.37-1.59-2.07,16.57-2.53,22.13-3.01,5.56-.48,11.21.14,15.79,4.16,4.57,4.02,7.45,4.88-.88,5.6Z" fill="#473513"/><path d="m77.13,211.53c.86,1.38-22.33.82-27.99.2-7-.76-10.78-4.74-7.23-6.2,3.55-1.46,7.95-1.54,11.44.48,3.49,2.02,9.24,1.57,12.26,2.09,4.27.74,9.8.67,11.52,3.42Z" fill="#473513"/><path d="m209.74,239.69s-7.31.52-9.9,1.54-10.72-.5-5.53-2.55c5.19-2.05,6.9-1.54,10.79-3.07,3.89-1.53,10.01-6.22,10.61-4.14.59,2.09.52,5.66-5.96,8.22Z" fill="#473513"/><path d="m148.86,163.84c2,1.06.01-1.27,5.31-5.49,3.74-2.98,7.69-4.98,10.95-2.72,3.44,2.38,1.62,5.62-1.32,8.74-3.8,4.04-11.97,5.27-10.57,6.74,1.24,1.3,10.24.94,15.58-3.61,5.33-4.54,9.53-8.63,5.77-13.56-3.17-4.15-12.98-6.51-21.04-.44-6.67,5.03-7.13,9.03-4.68,10.33Z" fill="#473513"/></g><path d="m90.98,133.43c21.71,0,48.61-14.22,49.65-14.74" fill="#fff"/><path d="m120.65,73.37c3.72,4.46,4.38,7.95,4.38,7.95,0,0,.81.96,4,4.79,3.19,3.83,7.03,4.47,6.39,6.39-.64,1.92-5.29,3.13-5.29,3.13,0,0,.82,3.9,3.37,5.81,2.56,1.92-.64,4.47-.64,4.47,0,0,5.31,6.2,5.95,6.84,0,0,4.94,3.83,4.4,4.65-2.05,3.1-1.89.94-2.59,1.29-1.03.52-27.93,14.74-49.65,14.74s-43.23-5.8-43.23-5.8c0,0-1.45-3.15-1.45-4.88v-1.44s-1.11-.7-4.3-.06c-3.19.64-5.11-3.83-4.47-4.47s9.58-10.86,9.58-10.86c0,0-3.19-2.56-.64-4.47s3.37-5.81,3.37-5.81c0,0-4.65-1.21-5.29-3.13s3.19-2.56,6.39-6.39c3.19-3.83,4.24-4.96,4.24-4.96,0,0,.71-3.28,4.47-7.78,5-6,15-12,31-12s25,6,30,12Z" fill="#cd833b"/><path d="m58.65,78.37s-3.38-5.53-1.47-15.27c1.74-8.82,2.56-11.98,5.11-12.62s10.22,7.67,11.5,9.58,3.83,5.75,3.83,5.75l-18.97,12.55Z" fill="#cd833b"/><path d="m121.65,78.37s3.8-7.53,1.88-17.27c-1.74-8.82-2.56-11.98-5.11-12.62-2.56-.64-10.22,7.67-11.5,9.58-1.28,1.92-3.83,5.75-3.83,5.75l18.56,14.55Z" fill="#cd833b"/><g clip-path="url(#clippath-2)"><path d="m87.59,86.18c-.99.1-3-4-5.01-8.47-1.96-4.36-3.41-10.84-3-12.19.93-3.13,3.96-.55,4.08.59s.93,6.07,1.93,10.07c.84,3.35,2.99,9.9,2,10Z" fill="#473513"/><path d="m94.76,86.18c.99.1,3-4,5.01-8.47,1.96-4.36,3.41-10.84,3-12.19-.93-3.13-3.96-.55-4.08.59s-.93,6.07-1.93,10.07c-.84,3.35-2.99,9.9-2,10Z" fill="#473513"/><path d="m91.09,84.51c.62,0,1.69-6.82,2.17-13.13.29-3.82.38-7.22,0-7.88-1-1.75-4.17-1.75-5,0-.31.65-.4,4.1,0,7.88.66,6.34,2.2,13.13,2.83,13.13Z" fill="#473513"/><path d="m67.34,94.81c0-1-5.36-1.76-8,0-3,2-9.8,7.2-8,9,3,3,5-3,9-6,3.05-2.28,7-2,7-3Z" fill="#473513"/><path d="m65.34,106.81c-1-1-3.69,1.34-6,2-4.43,1.27-6.82-.6-7.41,1.7s4.41,2.3,7.41,1.3,7-4,6-5Z" fill="#473513"/><path d="m114.04,94.81c0-1,5.36-1.76,8,0,3,2,9.8,7.2,8,9-3,3-5-3-9-6-3.05-2.28-7-2-7-3Z" fill="#473513"/><path d="m116.04,106.81c1-1,3.69,1.34,6,2,4.43,1.27,6.82-.6,7.41,1.7.59,2.3-4.41,2.3-7.41,1.3-3-1-7-4-6-5Z" fill="#473513"/><path d="m105.92,105.02c-.77-.32-.64-1.33.2-1.55s2.06-.73,3.62-1.68c2-1.23,3.19-2.73,3.9-4.06.44-.82,1.77-.6,1.75.29-.04,1.91-.77,4.2-3.4,5.93-2.66,1.75-4.69,1.64-6.08,1.07Z" fill="#473513"/><path d="m74.69,105.48c.8-.23.78-1.25-.03-1.56-.85-.32-1.97-.94-3.42-2.06-1.86-1.44-2.88-3.06-3.45-4.46-.35-.86-1.7-.78-1.77.1-.16,1.91.32,4.26,2.74,6.26s4.49,2.14,5.93,1.71Z" fill="#473513"/><path d="m75.89,85.34c.45.34.2.98-.39.98s-1.48.13-2.66.5c-1.52.48-2.55,1.26-3.24,2.02-.42.46-1.26.1-1.1-.48.35-1.25,1.2-2.63,3.22-3.33,2.04-.71,3.35-.3,4.17.31Z" fill="#473513"/><path d="m105.37,85.66c-.42.37-.12.99.47.95s1.48,0,2.69.27c1.55.34,2.65,1.03,3.4,1.73.46.43,1.27-.01,1.06-.58-.46-1.21-1.43-2.52-3.5-3.04-2.09-.53-3.37,0-4.13.67Z" fill="#473513"/><path d="m80.8,78.28c.74-.32,1.43.31,1.05.97s-.77,1.72-1.05,3.24c-.35,1.95.03,3.53.59,4.71.34.72-.69,1.46-1.35.97-1.43-1.07-2.72-2.77-2.35-5.4.37-2.66,1.77-3.91,3.1-4.49Z" fill="#473513"/><path d="m100.86,78.28c-.72-.34-1.44.26-1.1.94.36.71.7,1.74.91,3.27.27,1.96-.18,3.53-.79,4.69-.37.71.62,1.48,1.31,1.01,1.48-1.02,2.83-2.69,2.57-5.33s-1.6-3.96-2.91-4.58Z" fill="#473513"/></g><path d="m48.51,133.39s-3.83,5.75-4.47,15.33c-.64,9.58,3.03,23.18,3.03,23.18" fill="none" stroke="#000" stroke-linecap="round" stroke-linejoin="round" stroke-width="3.8"/><path d="m48.51,180.28s0,13.16,7.45,26.14c5.71,9.95,15.54,27.21,15.86,32.99.32,5.78-1.02,15.21,1.92,18.19s9.26,3.56,13.1,2.92c3.83-.64,5.75-3.19,5.11-6.39-.91-4.56,0-7.03,0-7.03" fill="none" stroke="#000" stroke-linecap="round" stroke-linejoin="round" stroke-width="3.8"/><path d="m90.03,211.32s1.92,6.39,1.92,12.78v15.97" fill="none" stroke="#000" stroke-linecap="round" stroke-linejoin="round" stroke-width="3.8"/><path d="m136.02,180.28s0,13.16-7.45,26.14c-5.71,9.95-15.54,27.21-15.86,32.99s1.02,15.21-1.92,18.19c-2.87,2.92-9.26,3.56-13.1,2.92s-5.75-3.19-5.11-6.39c.91-4.56,0-7.03,0-7.03" fill="none" stroke="#000" stroke-linecap="round" stroke-linejoin="round" stroke-width="3.8"/><path d="m94.5,211.32s-1.92,6.39-1.92,12.78c0,6.39,0,15.97,0,15.97" fill="none" stroke="#000" stroke-linecap="round" stroke-linejoin="round" stroke-width="3.8"/><path d="m51.54,169.99s-1.76,4.29,1.44,10.04c1.75,3.15,2.98,4.72,2.98,4.72" fill="none" stroke="#000" stroke-linecap="round" stroke-linejoin="round" stroke-width="3.8"/><path d="m61.34,180.28s-1.33,6.77,3.14,10.6,5.43,4.83,5.43,4.83" fill="none" stroke="#000" stroke-linecap="round" stroke-linejoin="round" stroke-width="3.8"/><path d="m76.83,191.01s-.85,3.71,1.06,8.18c1.77,4.12,8.13,7.23,8.13,7.23" fill="none" stroke="#000" stroke-linecap="round" stroke-linejoin="round" stroke-width="3.8"/><path d="m135.98,169.11s1.84,4.39-1.51,10.28c-1.84,3.22-3.13,4.83-3.13,4.83" fill="none" stroke="#000" stroke-linecap="round" stroke-linejoin="round" stroke-width="3.8"/><path d="m125.7,179.65s1.4,6.93-3.3,10.86c-4.7,3.92-5.7,4.95-5.7,4.95" fill="none" stroke="#000" stroke-linecap="round" stroke-linejoin="round" stroke-width="3.8"/><path d="m109.43,190.64s.89,3.79-1.12,8.37c-1.86,4.22-8.54,7.4-8.54,7.4" fill="none" stroke="#000" stroke-linecap="round" stroke-linejoin="round" stroke-width="3.8"/><path d="m154.87,117.1s11.82,2.24,21.4,11.82c4.9,4.9,11.5,17.89,11.5,17.89" fill="none" stroke="#000" stroke-linecap="round" stroke-linejoin="round" stroke-width="3.8"/><path d="m146.76,150.73s.52,5.02,0,8.53c-.52,3.51-3.12,5.89-3.12,5.89" fill="none" stroke="#000" stroke-linecap="round" stroke-linejoin="round" stroke-width="3.8"/><path d="m185.21,136.58s.48-1.28,1.52-8.94c.69-5.11,2.63-8.8,3.84-10.69.66-1.02,1.1-2.17,1.26-3.38.37-2.82,1.23-8,2.74-10.5.83-1.37,1.79-2.46,2.65-3.26,1.34-1.26,1.95-3.11,1.58-4.91-.5-2.47-1.13-4.62,1.11-11.33s6.67-8.31,8.87-10.7c.72-.78,1.34-1.63,1.86-2.55.92-1.64,3.35-7.76,9.39-11.34,5.99-3.55,12.46.32,12.46-4.15s4.47-2.56,5.75,3.19" fill="none" stroke="#000" stroke-linecap="round" stroke-linejoin="round" stroke-width="3.8"/><path d="m241.43,66.96c.64,3.83,2.09,10.85,0,15.91-3.19,7.73-10.86,14.12-10.86,17.95s1.92,7.03,1.92,7.03" fill="none" stroke="#000" stroke-linecap="round" stroke-linejoin="round" stroke-width="3.8"/><path d="m232.48,114.87c0,5.27-3.19,7.03-1.92,12.78,1.28,5.75,1.92,16.11,1.92,19.87s-3.83,10.42-3.83,10.42" fill="none" stroke="#000" stroke-linecap="round" stroke-linejoin="round" stroke-width="3.8"/><path d="m230.57,162.41s.64,3.29,0,7.58c-.64,4.29-1.91,8.12-1.91,8.12" fill="none" stroke="#000" stroke-linecap="round" stroke-linejoin="round" stroke-width="3.8"/><path d="m232.48,189.44s1.28,2.16,0,6.27c-1.28,4.11-3.83,10.7-3.83,10.7" fill="none" stroke="#000" stroke-linecap="round" stroke-linejoin="round" stroke-width="3.8"/><path d="m229.76,215.3s-.47,3.05-4.94,7.52-10.86,8.3-10.86,11.5" fill="none" stroke="#000" stroke-linecap="round" stroke-linejoin="round" stroke-width="3.83"/><path d="m194.79,160.86c1.92,2.56,6.39,4.47,10.22,14.05,2.24,5.6,2.56,18.53,2.56,18.53" fill="none" stroke="#000" stroke-linecap="round" stroke-linejoin="round" stroke-width="3.8"/><path d="m211.72,197.93s4.99,16.11,3.51,29.37c-1.46,13.14-11.7,22.52-17.25,23-4.5.39-8.3,1.28-8.3,1.28" fill="none" stroke="#000" stroke-linecap="round" stroke-linejoin="round" stroke-width="3.8"/><path d="m185.21,252.81s-8.3,3.58-11.5,4.37c-3.19.78-4.38,4.43-11.45,3.57" fill="none" stroke="#000" stroke-linecap="round" stroke-linejoin="round" stroke-width="3.8"/><path d="m146.99,241.27s-12.88,3.27-13.52,7.75.64,7.97,1.28,9.09,6.45,4.77,10.57,2.63c4.12-2.14,9.23-1.5,9.23-1.5" fill="none" stroke="#000" stroke-linecap="round" stroke-linejoin="round" stroke-width="3.83"/><path d="m116.8,251.57s1.98,3.04,7.09,2.8c5.11-.24,7.5.01,7.5.01" fill="none" stroke="#000" stroke-linecap="round" stroke-linejoin="round" stroke-width="3.8"/><path d="m56.94,75.33s-1.92-4.47,0-14.21c1.74-8.82,2.56-11.98,5.11-12.62,2.56-.64,10.22,7.67,11.5,9.58s3.83,5.75,3.83,5.75" fill="none" stroke="#000" stroke-linecap="round" stroke-linejoin="round" stroke-width="3.8"/><path d="m123.77,75.33s1.92-4.47,0-14.21c-1.74-8.82-2.56-11.98-5.11-12.62-2.56-.64-10.22,7.67-11.5,9.58-1.28,1.92-3.83,5.75-3.83,5.75" fill="none" stroke="#000" stroke-linecap="round" stroke-linejoin="round" stroke-width="3.8"/><path d="m74.54,65s5.55-2.55,16.45-2.55,15.7,2.55,15.7,2.55" fill="none" stroke="#000" stroke-linecap="round" stroke-linejoin="round" stroke-width="3.8"/><path d="m55.52,81.33s-.62.96-3.82,4.79c-3.19,3.83-7.03,4.47-6.39,6.39s5.29,3.13,5.29,3.13c0,0-.82,3.9-3.37,5.81-2.56,1.92.64,4.47.64,4.47,0,0-8.94,10.22-9.58,10.86-.64.64,1.28,5.11,4.47,4.47,3.19-.64,4.3.06,4.3.06v1.44c0,1.73.5,3.43,1.45,4.88h0" fill="none" stroke="#000" stroke-linecap="round" stroke-linejoin="round" stroke-width="3.8"/><path d="m132.98,127.64h0c.94-1.45,1.45-3.15,1.45-4.88v-1.44s1.11-.7,4.3-.06c3.19.64,5.11-3.83,4.47-4.47s-9.58-10.86-9.58-10.86c0,0,3.19-2.56.64-4.47-2.56-1.92-3.37-5.81-3.37-5.81,0,0,4.65-1.21,5.29-3.13.64-1.92-3.19-2.56-6.39-6.39-3.19-3.83-4-4.79-4-4.79" fill="none" stroke="#000" stroke-linecap="round" stroke-linejoin="round" stroke-width="3.8"/></g></svg>