<?xml version="1.0" encoding="UTF-8"?><svg id="substantial" xmlns="http://www.w3.org/2000/svg" xmlns:xlink="http://www.w3.org/1999/xlink" viewBox="0 0 280 280"><defs><clipPath id="clippath"><path d="m215.14,232.6c0-3.19,6.39-7.03,10.86-11.5,4.47-4.47,4.94-7.52,4.94-7.52.4-5.28-1.1-8.89-1.1-8.89,0,0,2.55-6.59,3.83-10.7s0-6.27,0-6.27c-.71-4.31-3.83-11.34-3.83-11.34,0,0,1.27-3.83,1.91-8.12.64-4.29,0-7.58,0-7.58l-1.91-4.47s3.83-6.66,3.83-10.42-.64-14.12-1.92-19.87,1.92-7.51,1.92-12.78v-7.03s-1.92-3.19-1.92-7.03,7.67-10.22,10.86-17.95c2.09-5.05.64-12.07,0-15.91l-3.19-8.94c-1.28-5.75-5.75-7.67-5.75-3.19s-6.47.6-12.46,4.15c-6.03,3.58-8.46,9.7-9.39,11.34-.52.92-1.14,1.78-1.86,2.55-2.2,2.39-6.73,4.27-8.87,10.7-2.24,6.71-1.61,8.85-1.11,11.33.37,1.81-.24,3.65-1.58,4.91-.86.81-1.81,1.89-2.65,3.26-1.52,2.5-2.37,7.68-2.74,10.5-.16,1.21-.6,2.35-1.26,3.38-1.21,1.89-3.15,5.58-3.84,10.69-1.04,7.67-1.52,8.94-1.52,8.94,0,0-4.4,38.65-4.4,45.04s33.15,52.7,33.15,52.7Z" style="fill:none;"/></clipPath><clipPath id="clippath-1"><path d="m211.98,195.52c-1.03-5.41-4.15-4.49-4.15-4.49,0,0-.32-12.93-2.56-18.53-3.83-9.58-7.26-12.84-10.22-14.05-3.9-1.6-7.03-13.07-7.03-13.07l-1.84-4.5s-4.75-9.47-9.65-14.37c-9.58-9.58-21.4-11.82-21.4-11.82h-4.08c-3.27-.23-8.82,2.75-9.98,3.16l-.63,2.98.18-3.12s-33,12.03-47.99,12.57c-22.47.8-40.19-5.2-40.19-5.2v1.28s-1.92,1.28-2.56,3.19l-1.92,2.56s-1.99,2.87-2.63,12.46c-.64,9.58,3.03,23.18,3.03,23.18l.88,3.33.64,5.11-.07-.06s0,13.16,7.45,26.14c5.71,9.95,15.54,27.21,15.86,32.99.32,5.78-1.02,15.21,1.92,18.19,2.87,2.92,9.26,3.56,13.1,2.92,3.83-.64,5.75-3.19,5.11-6.39-.91-4.56,0-7.03,0-7.03-.07-.32.64,0,.64,0,0,0,.91,2.47,0,7.03-.64,3.19,1.28,5.75,5.11,6.39,3.83.64,10.22,0,13.1-2.92.93-.95,1.43-2.55,1.69-4.47l3.27.2s1.98,3.04,7.09,2.8c5.11-.24,7.5.01,7.5.01l2.08-5.37c-.64,4.47.64,7.97,1.28,9.09s6.45,4.77,10.57,2.63c4.12-2.14,9.23-1.5,9.23-1.5,2.48-.32,7.71,1.5,7.71,1.5,7.07.86,8.26-2.78,11.45-3.57,3.19-.78,11.5-4.37,11.5-4.37,1.84-.36,4.47-1.24,4.47-1.24,0,0,3.8-.89,8.3-1.28,5.54-.48,15.79-9.86,17.25-23,1.48-13.26-3.51-29.37-3.51-29.37Zm-97.95,49.78c.07-3.43-.18-7.19-.02-10.06.14-2.58,2.18-7.45,4.9-12.93l-4.88,22.99Z" style="fill:none;"/></clipPath></defs><path d="m214.76,232.44c0-3.19,6.39-7.03,10.86-11.5s4.94-7.52,4.94-7.52c.4-5.28-1.1-8.89-1.1-8.89,0,0,2.55-6.59,3.83-10.7,1.28-4.11,0-6.27,0-6.27-.71-4.31-3.83-11.34-3.83-11.34,0,0,1.27-3.83,1.91-8.12.64-4.29,0-7.58,0-7.58l-1.91-4.47s3.83-6.66,3.83-10.42-.64-14.12-1.92-19.87,1.92-7.51,1.92-12.78v-7.03s-1.92-3.19-1.92-7.03,7.67-10.22,10.86-17.95c2.09-5.05.64-12.07,0-15.91l-3.19-8.94c-1.28-5.75-5.75-7.67-5.75-3.19s-6.47.6-12.46,4.15c-6.03,3.58-8.46,9.7-9.39,11.34-.52.92-1.14,1.78-1.86,2.55-2.2,2.39-6.73,4.27-8.87,10.7-2.24,6.71-1.61,8.85-1.11,11.33.37,1.81-.24,3.65-1.58,4.91-.86.81-1.81,1.89-2.65,3.26-1.52,2.5-2.37,7.68-2.74,10.5-.16,1.21-.6,2.35-1.26,3.38-1.21,1.89-3.15,5.58-3.84,10.69-1.04,7.67-1.52,8.94-1.52,8.94,0,0-4.4,38.65-4.4,45.04s33.15,52.7,33.15,52.7Z" style="fill:#bbb39b;"/><g style="opacity:.8;"><g style="clip-path:url(#clippath);"><path d="m238.97,86.4s-3.41.48-7-3c-1.78-1.73-1.8-6.12-5.04-8.7-1.97-1.56-6.71-.19-8.96-1.3-5.59-2.76-8.54-6.83-8.54-6.83,0,0,5.45-8.25,9.4-16.34,5.08-10.44,11.9-20.7,27.49-9.26,8.72,6.4,8.94,18.17,4.16,28.61-4.78,10.44-11.51,16.83-11.51,16.83Z"/><path d="m219.97,205.4s-11.81-4.69-12.92-8.12-7.02-5.12-2.08-7.88c4.94-2.76,9.84,6.15,13,6,3.16-.15,12.62-.47,14,2,1.38,2.47,2.91.26,1,7s-6,2-13,1Z"/><path d="m207.48,82.51c2.87,1.27,5.46,6.74,10.91,8.28,5.46,1.54,7.91,3.28,9.82,6.94s-10.91-3.09-13.91-2.9c-3,.19-11.46-1.16-14.73-5.21-2.32-2.86,1.36-10.01,7.91-7.12Z"/><path d="m194.03,114.22c1.4,1.75,6.57,12.35,14,14,9,2,24.39,3.68,22,9-1.47,3.29-13,1-23-1-7.47-1.49-17.93-7.52-18.3-11.75-.26-2.99,2.12-14.23,5.3-10.25Z"/><path d="m231.97,114.4c4.27,3.29-.4,8.12-2.3,8.74-3.43,1.11-12.15-1.14-14.98-2.16-7.66-2.75-17.67-13.45-14.66-16.75,3.01-3.3,6.13,5.28,17,8,8,2,10.67-1.11,14.93,2.17Z"/><path d="m229.03,176.22c4.27,3.29,4.9,9.39,3,10-3.43,1.11-19.02-2.26-21.9-3.08-2.89-.82-12.11-9.62-9.1-12.92,3.01-3.3,12.52,4.71,15.68,4.57s8.05-1.85,12.32,1.43Z"/><path d="m229.97,154.4c4.27,3.29,2.97,7.21,1.07,7.83-3.43,1.11-18.11-4.18-21-5-2.89-.82-18.01-8.7-15-12s13,2,19,4c3,1,11.67,1.89,15.93,5.17Z"/></g></g><path d="m140.74,118.18s-33,12.03-47.99,12.57c-22.47.8-40.19-5.2-40.19-5.2v1.28s-1.92,1.28-2.56,3.19l-1.92,2.56s-1.99,2.87-2.63,12.46c-.64,9.58,3.03,23.18,3.03,23.18l.88,3.33.64,5.11-.07-.06s0,13.16,7.45,26.14c5.71,9.95,15.54,27.21,15.86,32.99.32,5.78-1.02,15.21,1.92,18.19,2.87,2.92,9.26,3.56,13.1,2.92,3.83-.64,5.75-3.19,5.11-6.39-.91-4.56,0-7.03,0-7.03-.07-.32.64,0,.64,0,0,0,.91,2.47,0,7.03-.64,3.19,1.28,5.75,5.11,6.39,3.83.64,10.22,0,13.1-2.92.93-.95,1.43-2.55,1.69-4.47l3.27.2s1.98,3.04,7.09,2.8c5.11-.24,7.5.01,7.5.01l2.08-5.37c-.64,4.47.64,7.97,1.28,9.09.64,1.13,6.45,4.77,10.57,2.63,4.12-2.14,9.23-1.5,9.23-1.5,2.48-.32,7.71,1.5,7.71,1.5,7.07.86,8.26-2.78,11.45-3.57,3.19-.78,11.5-4.37,11.5-4.37,1.84-.36,4.47-1.24,4.47-1.24,0,0,3.8-.89,8.3-1.28,5.54-.48,15.79-9.86,17.25-23,1.48-13.26-3.51-29.37-3.51-29.37-1.03-5.41-4.15-4.49-4.15-4.49,0,0-.32-12.93-2.56-18.53-3.83-9.58-7.26-12.84-10.22-14.05-3.9-1.6-7.03-13.07-7.03-13.07l-1.84-4.5s-4.75-9.47-9.65-14.37c-9.58-9.58-21.4-11.82-21.4-11.82h-4.08c-3.27-.23-8.82,2.75-9.98,3.16m-27.04,127.44c.07-3.43-.18-7.19-.03-10.06.14-2.58,2.18-7.45,4.9-12.93l-4.88,22.98Z" style="fill:#bbb39b;"/><g style="opacity:.8;"><g style="clip-path:url(#clippath-1);"><path d="m167.05,203.98c-2.02-.28-5.39.2-7.5-2.02-2.5-2.62-4.56-7.66-4.41-11.15.26-6.31,5.85-10.89,9.65-10.64,2.77.18,6.75,2.85,8.06,5.11,1.67,2.87,1.39,6.99,1.49,9.57.18,4.59-1,10.02-7.29,9.14Z"/><path d="m170.14,177.52c7.4,2.78,7.96,9.2,8.55,14.2.59,5-.99,10.51-2.48,12.92-1.66,2.67-3.19,6.91-8.9,8.92-4.98,1.75-6.54,2.3-12.71,4.32-7.03,2.31-17.9,7.37-17.82,10.2s9.29-2.74,15.12-4.09c7.58-1.76,19.4-1.87,25.81-6.22s11.72-12.99,12.21-18.24-.72-17.18-5.55-22.41c-4.89-5.29-13.37-8.57-19.5-8.29-9.05.41-15.72,5.16-18.68,9.8-2.11,3.31-2.95,11.03-2.13,16.92.78,5.57,3.31,9.05,8.19,12.78,5.03,3.85,14.74,3.91,14.14,1.31-.4-1.71-6.77-1.93-10.78-6.35-4.73-5.21-5.29-10.39-2.88-17.22,1.83-5.19,6.14-12.8,17.4-8.56Z"/><path d="m188.14,150.32c-6.96-3.07-15.28,1.71-21.22,2.62-9.11,1.41-18.73,9.34-29.98,14.08-10.3,4.34-7.22,29.59.04,30.07,4.99.33-3.41-19.09,10.74-26.36,11.14-5.72,17.81-11.87,30.38-7.98,6.25,1.93,12.01,9.4,16.13,17.03,3.63,6.74,2.56,11.3,2.28,18.52-.27,7.22-3.81,12.47-8.1,17.77-4.55,5.61-8.01,9.9-18.42,12.6-9.83,2.55-27.7,1.99-26.37,4.94,1.33,2.94,20.96,4.92,33.3,2.05,10.54-2.45,15.66-6.64,20.88-15.01,5.21-8.36,10.87-15.41,10.57-25.1-.3-9.68.84-16.67-3.64-23.09s-10.61-19.49-16.59-22.13Z"/><path d="m197.85,147.19c4.27,1.61,8.34,9,6.29,10.25-2.05,1.26-9.03-3.95-17.12-5.2-3.83-.59-7.21-2.16-13.04.15-4.71,1.86-6.76-.96-11.5,7.27-3.79,6.59-15.11,4.92-23.74,8.27-5.01,1.95-12.58,3-13.46-.78-.69-2.96,9.8-1.5,15.04-5.84,7.13-5.9,16.24-4.85,18.74-10.89,2.5-6.05,10.14-7.12,15.97-7.3,7.75-.24,17.68,2.14,22.81,4.07Z"/><path d="m185.69,126.89c4.41,1.18,11.46,15.25,9.54,16.7s-5.97-4.1-14.15-4.55c-3.87-.21-10.41-2.35-15.99.51-4.5,2.31-2.36,1.38-9.77,7.32-7.8,6.25-17.51,6.48-25.77,10.65-4.8,2.42-30.56,5.92-32.19,1.91-1.93-4.73,26.22-5.78,31.01-10.61,6.52-6.57,14.89-3.57,19.95-7.5,5.17-4.01,9.08-12.3,14.87-13.04,7.69-.99,17.21-2.81,22.51-1.39Z"/><path d="m55.35,152.69c6.85,2.75,15.74,2.38,16.21,4.92.81,4.4-9.07,2.58-16.39,1.81-8.35-.89-16.85-6.38-11.64-15.94,1.99-3.65,4.97,6.46,11.82,9.22Z"/><path d="m62.86,208.94c9.2,2.79,21.31,3.14,21.02,1.16-.3-1.98-7.82-4.89-12.91-5.13-5.09-.24-14.8-10.91-16.63-9.62-1.83,1.29-4.35,4.7-2.76,8.51,1.59,3.81,10.64,4.89,11.28,5.08Z"/><path d="m56.43,175.79c9.33,2.32,19.93.55,19.53-1.41-.4-1.96-3.66-2.3-8.76-2.28-5.1.02-18.2-10.83-19.96-9.45s-4.1,4.92-2.32,8.64c1.78,3.72,10.87,4.34,11.52,4.5Z"/><path d="m53.09,190.8c9.48,1.58,21.96,3.24,22.09,1.25.33-4.99-5.44-8.12-10.52-7.7s-20.12-7.43-21.77-5.92-3.7,5.22-1.64,8.79c2.06,3.57,11.18,3.47,11.84,3.59Z"/><path d="m67.8,215.32s3.88,1.68,7.87,1.94c3.99.26,7.98.52,7.92,1.52s-2.13,1.87-5.12,1.67c-2.99-.2-6.18,2.6-10.04.35s-8.85-2.58-8.66-5.58c.2-2.99,6.08-.45,8.03.1Z"/><path d="m93.44,221.43c-3.86-2.26-12.04.22-13.17,2.15-1.13,1.93,3.86,2.26,6.85,2.45,2.99.2,7.79,3.51,7.92,1.52.13-2,2.26-3.86-1.61-6.12Z"/><path d="m68.58,231.7c-.2-1.99,6.18-2.6,10.17-2.34,3.99.26,6.12-1.61,5.99.39s-7.18,2.54-10.3,4.34c-3.12,1.8-5.25,3.67-5.86-2.39Z"/><path d="m91.59,237.46c-2.99-.2-8.18,2.47-11.24,3.28-3.06.8-4.06.74-4.19,2.73-.13,2,2.99.2,6.99.46,3.99.26,10.78,3.71,10.98.72.2-2.99,1.45-6.92-2.54-7.18Z"/><path d="m96.76,214.5c-.2,2.99.74,4.06,5.66,5.38,4.92,1.32,14.1-1.08,13.91,1.91s-13.3,4.14-11.5,7.27c1.12,1.94,14.9,1.97,16.23-2.95,1.32-4.92,2.45-6.85.52-7.98-1.93-1.13-7.79-3.51-12.78-3.84-4.99-.33-11.58-6.77-12.04.22Z"/><path d="m117.54,233.9c-.93-.38-5.25,3.67-9.24,3.41-3.99-.26-6.92-1.45-7.05.54s5.86,2.39,8.85,2.58,7.79,3.51,7.98.52c.2-2.99,2.39-5.86-.54-7.05Z"/><path d="m96.87,243.57c.61-1.9,7.92,1.52,9.91,1.65s4.92,1.32,4.86,2.32-9.98-.65-10.98-.72c-1-.07-5.05.67-3.8-3.25Z"/><path d="m97.5,172.46c1.08-1.85,7.34.04,14.1-1.08,4.16-.69,6.63-4.43,9.37-5.4,6.44-2.28,14.63-1.92,16.03.04,1.4,1.96,2.11,10.44-2.71,10.85-2.29.19-15.95-.45-22.08.56-6.79,1.12-15.84-3.04-14.71-4.97Z"/><path d="m99.4,190.62c-1.26,2.83,10.2,2.67,14.36,6.95,3.33,3.42-.72,10.98,5.19,11.36,2.09.14,6.23-4.6,6.49-8.6.26-3.99,3.8-12.78-.5-15.06-4.3-2.28-7.7,4.51-10.65,4.32-2.95-.19-13.15-2.86-14.89,1.03Z"/><path d="m217.66,216.73c4.92,1.32,2.08,14.17-.24,19.02-2.32,4.86-9.7,10.39-16.75,10.93s-19.42-2.27-23.88-2.56c-4.99-.33-13.17,2.15-10.91-1.71,2.26-3.86,16.29-3.95,24.4-5.42,8.11-1.47,16.75-10.93,18.87-12.8,2.13-1.87,3.58-8.79,8.5-7.46Z"/><path d="m182.3,250.22s-5.86-2.39-11.84-2.78c-5.99-.39-13.84-2.91-18.89-2.24s-8.11,1.47-4.32,4.73c3.8,3.25,10.04-.35,16.9,2.1,6.85,2.45,7.43,5.33,9.07,5.02s10.89-3.72,9.09-6.84Z"/><path d="m141.59,207.2c2.5,4.33,12.52,7.83,11.39,9.76-1.13,1.93-5.99-.39-10.11,1.34-4.12,1.74-11.43,6.27-10.04.35,1.39-5.92-.09-14.04,2.91-13.84,2.99.2,4.06-.74,5.86,2.39Z"/><path d="m51.85,125.35s8.76,8.63,12.94,9.44c4.18.81,11.56,1.01,17.45-.27,6.37-1.39,19.31-.02,23.37-1.28,4.06-1.26,15.05-8.12,17.69-10.35,2.63-2.23,7.78-8.76,10.64-6.83s3.09,6.08-3.61,9.57c-6.69,3.49-16.31,11.11-24.43,12.8-6.81,1.42-17.07-1.15-22.2-.86-4.85.27-12.84,2.79-19.99,2.5-5.87-.24-16.56-2.52-16.85-7.71-.29-5.19,3.57-7.96,5-7Z"/><path d="m157.03,114.44c-3.88,1.51-5.01,8.94-7.28,10.81-2.26,1.88-5.85,6.77-8.12,8.65-1.6,1.33-7.73,4.5-10.94,5.25s-1.33,3.01,1.88,2.26,8.67-3.37,12.07-6.19,9.71-5.55,12.07-8.47c2.36-2.91,8.36-8.39,7.47-10.61-.89-2.22-4.99-2.55-7.15-1.71Z"/><path d="m59.16,146.37c-.88,2.22,8.19,8.35,13.98,7.57,5.79-.78,7.83-3.15,13.62-3.93,5.79-.78,20.38,2.51,26.91-1.51,6.53-4.03,22.12-17.76,20.69-19.67s-20.22,14.36-26.01,15.13c-5.79.78-16.49.11-24.59,1.2-6.95.93-7.83,3.15-12.46,3.77-4.63.62-11.25-4.79-12.13-2.57Z"/></g></g><path d="m121.79,71.45c3.72,4.46,4.38,7.95,4.38,7.95,0,0,.81.96,4,4.79,3.19,3.83,7.03,4.47,6.39,6.39-.64,1.92-5.29,3.13-5.29,3.13,0,0,.82,3.9,3.37,5.81,2.56,1.92-.64,4.47-.64,4.47,0,0,5.31,6.2,5.95,6.84,0,0,4.94,3.83,4.4,4.65-2.05,3.1-1.89.94-2.59,1.29-1.03.52-27.93,14.74-49.65,14.74s-43.23-5.8-43.23-5.8c0,0-1.45-3.15-1.45-4.88v-1.44s-1.11-.7-4.3-.06c-3.19.64-5.11-3.83-4.47-4.47s9.58-10.86,9.58-10.86c0,0-3.19-2.56-.64-4.47,2.56-1.92,3.37-5.81,3.37-5.81,0,0-4.65-1.21-5.29-3.13s3.19-2.56,6.39-6.39c3.19-3.83,4.24-4.96,4.24-4.96,0,0,.71-3.28,4.47-7.78,5-6,15-12,31-12s25,6,30,12Z" style="fill:#bbb39b;"/><path d="m59.79,76.45s-3.38-5.53-1.47-15.27c1.74-8.82,2.56-11.98,5.11-12.62,2.56-.64,10.22,7.67,11.5,9.58l3.83,5.75-18.97,12.55Z" style="fill:#bbb39b;"/><path d="m122.79,76.45s3.8-7.53,1.88-17.27c-1.74-8.82-2.56-11.98-5.11-12.62-2.56-.64-10.22,7.67-11.5,9.58-1.28,1.92-3.83,5.75-3.83,5.75l18.56,14.55Z" style="fill:#bbb39b;"/><g style="opacity:.8;"><path d="m67.33,94.25c0-1-5.36-1.76-8,0-3,2-9.8,7.2-8,9,3,3,5-3,9-6,3.05-2.28,7-2,7-3Z"/><path d="m65.33,106.25c-1-1-3.69,1.34-6,2-4.43,1.27-6.82-.6-7.41,1.7s4.41,2.3,7.41,1.3,7-4,6-5Z"/><path d="m116.03,94.25c0-1,5.36-1.76,8,0,3,2,9.8,7.2,8,9-3,3-5-3-9-6-3.05-2.28-7-2-7-3Z"/><path d="m118.03,106.25c1-1,3.69,1.34,6,2,4.43,1.27,6.82-.6,7.41,1.7.59,2.3-4.41,2.3-7.41,1.3-3-1-7-4-6-5Z"/><path d="m79.82,87.72c-2,0-.17-7.41.83-10.41,1.1-3.29,1.17-10.59,3.17-10.59,2.24,0,6.04,17.6,5,19-1.04,1.4-2-9-3-9s-2.31,1.94-3,4c-1,3-2,7-3,7Z"/><path d="m103.85,87.3c1.97-.59,1-7,0-10-1.1-3.29-2.03-10.59-4.03-10.59-2.24,0-5.04,17.6-4,19,1.04,1.4,3-9,4-9,1,0,1.31,1.94,2,4,1,3,.97,6.9,2.03,6.59Z"/><path d="m85.1,74.72c-1.08,0-2.97-3.46-3.25-7.18-.28-3.73-.25-6.08,1.08-6.28,1.61-.25,5.42-.9,5.42,0,0,.9-2.17,4.49-2.17,7.18,0,2.69,0,6.28-1.08,6.28Z"/><path d="m99.05,74.72c1.08,0,2.49-3.28,2.76-7s.74-6.26-.6-6.47c-1.61-.25-5.42-.9-5.42,0s2.17,4.49,2.17,7.18,0,6.28,1.08,6.28Z"/><path d="m91.82,87.72c3,0,2.34-12.42,2.83-18.73.29-3.82.38-7.21,0-7.87-1-1.75-4.17-1.75-5,0-.31.65-.4,4.1,0,7.87.66,6.33.17,18.73,2.17,18.73Z"/><path d="m113.8,78.95c.17-.34-.36-1.3-.85-1.19-.14.04-.29.07-.42.12-.62.2-1.18.51-1.68.85-.5.34-.95.72-1.36,1.11-.2.2-.4.4-.58.6-.14.14-.5.59-.64.86-.7,1.21-.96,2.32-1.08,3.49-.05.58-.06,1.17,0,1.77.02.13.04.27.05.41.07.45,1.13.72,1.41.4.09-.11.18-.21.26-.31.37-.45.69-.9,1-1.35.59-.89,1.09-1.85,1.49-2.53.12-.21.1-.19.31-.47.16-.22.31-.44.45-.67.29-.45.55-.9.79-1.37.2-.41.43-.86.7-1.4.05-.11.1-.21.16-.33Z"/><path d="m72.75,79.12c-.08-.31.53-1.23.97-1.1.13.04.25.09.38.14.55.24,1.03.61,1.43,1.01.8.83,1.29,1.83,1.55,2.87.13.51.2,1.1.19,1.63-.01.53-.09,1.05-.22,1.56-.14.5-.33.99-.59,1.46-.06.1-.13.21-.19.32-.22.35-1.3.2-1.46-.13-.05-.11-.1-.21-.14-.32-.2-.46-.35-.9-.49-1.32-.14-.42-.26-.83-.36-1.22-.1-.4-.19-.75-.28-1.11-.18-.75-.34-1.51-.47-2.29-.07-.39-.14-.79-.23-1.21-.02-.09-.04-.2-.07-.29Z"/></g><path d="m85.01,260.71c-3.84,0-8.72-.9-11.48-3.7-2.69-2.73-2.57-8.53-2.45-14.15.04-1.93.08-3.75,0-5.28-.3-5.49-11.03-24.17-15.61-32.15-7.62-13.26-7.71-26.53-7.71-27.08,0-1.05.85-1.9,1.9-1.9h0c1.05,0,1.9.85,1.9,1.9,0,.13.11,12.84,7.2,25.19,8.19,14.25,15.8,28.22,16.11,33.83.09,1.67.05,3.56.01,5.56-.09,4.14-.2,9.81,1.36,11.4,2.17,2.2,7.66,3.01,11.43,2.38,1.48-.25,2.57-.83,3.15-1.67.46-.67.6-1.5.41-2.47-.99-4.95-.03-7.75.08-8.06.36-.98,1.46-1.48,2.44-1.12.98.36,1.49,1.46,1.12,2.44h0s-.69,2.12.08,5.99c.4,1.99.05,3.84-1,5.37-1.19,1.72-3.14,2.85-5.66,3.26-.92.15-2.05.25-3.28.25Z"/><path d="m93.09,240.05c-1.05,0-1.9-.85-1.9-1.9v-15.97c0-6.02-1.82-12.17-1.84-12.23-.3-1,.27-2.06,1.28-2.37,1.01-.3,2.06.27,2.37,1.27.08.27,2,6.73,2,13.32v15.97c0,1.05-.85,1.9-1.9,1.9Z"/><path d="m48.2,171.88c-.84,0-1.6-.56-1.83-1.41-.15-.57-3.74-14.01-3.09-23.8.66-9.97,4.62-16.01,4.79-16.26.58-.87,1.76-1.11,2.64-.53.87.58,1.11,1.76.53,2.63h0c-.04.05-3.57,5.51-4.16,14.41-.61,9.15,2.93,22.43,2.97,22.56.27,1.01-.33,2.06-1.34,2.33-.17.04-.33.07-.5.07Z"/><path d="m101.81,260.71c-1.24,0-2.36-.09-3.28-.25-2.51-.42-4.47-1.55-5.66-3.26-1.05-1.53-1.4-3.38-1-5.37.77-3.88.08-6,.07-6.02-.33-.98.18-2.07,1.16-2.41.98-.35,2.05.14,2.41,1.12.11.3,1.07,3.11.08,8.06-.19.97-.06,1.79.41,2.46.59.85,1.68,1.43,3.15,1.68,3.77.63,9.26-.18,11.43-2.38,1.56-1.59,1.45-7.26,1.36-11.4-.04-2-.08-3.89.01-5.56.31-5.61,7.93-19.58,16.11-33.83,7.09-12.35,7.2-25.07,7.2-25.19,0-1.05.85-1.9,1.9-1.9h0c1.05,0,1.9.85,1.9,1.9,0,.56-.09,13.82-7.71,27.08-4.58,7.98-15.31,26.66-15.61,32.15-.08,1.53-.05,3.35,0,5.28.12,5.61.24,11.42-2.45,14.15-2.76,2.8-7.64,3.7-11.48,3.7Z"/><path d="m93.73,240.05c-1.05,0-1.9-.85-1.9-1.9v-15.97c0-6.59,1.92-13.05,2-13.32.3-1,1.36-1.58,2.37-1.27,1.01.3,1.58,1.36,1.28,2.37-.02.06-1.84,6.21-1.84,12.23v15.97c0,1.05-.85,1.9-1.9,1.9Z"/><path d="m57.1,184.72c-.56,0-1.12-.25-1.49-.73-.05-.07-1.35-1.73-3.15-4.97-3.6-6.47-1.62-11.47-1.54-11.68.4-.97,1.51-1.43,2.48-1.04.97.4,1.43,1.5,1.04,2.46-.07.18-1.32,3.64,1.33,8.41,1.64,2.95,2.81,4.45,2.82,4.47.64.83.5,2.02-.33,2.67-.35.27-.76.4-1.17.4Z"/><path d="m71.05,195.69c-.5,0-1-.2-1.37-.58-.04-.04-1.03-1.05-5.3-4.7-5.25-4.5-3.83-12.09-3.77-12.41.2-1.03,1.2-1.7,2.23-1.5,1.03.2,1.7,1.2,1.5,2.23-.02.1-1.03,5.77,2.51,8.8,4.41,3.78,5.46,4.84,5.56,4.95.73.76.7,1.96-.05,2.69-.37.35-.84.53-1.32.53Z"/><path d="m87.17,206.4c-.28,0-.56-.06-.83-.19-.72-.35-7.06-3.55-9.04-8.19-2.14-4.98-1.21-9.18-1.17-9.35.23-1.02,1.25-1.66,2.28-1.43,1.02.23,1.66,1.25,1.43,2.27-.01.07-.66,3.24.96,7.01,1.21,2.83,5.62,5.49,7.22,6.27.94.46,1.33,1.6.87,2.54-.33.67-1,1.07-1.71,1.07Z"/><path d="m132.49,184.2c-.42,0-.84-.14-1.19-.42-.82-.66-.95-1.85-.29-2.67.01-.01,1.24-1.56,2.96-4.58,2.8-4.92,1.46-8.47,1.4-8.62-.38-.97.08-2.07,1.05-2.47.97-.39,2.06.06,2.46,1.01.09.21,2.16,5.33-1.61,11.96-1.89,3.32-3.24,5.01-3.3,5.08-.38.47-.93.71-1.48.71Z"/><path d="m117.84,195.43c-.48,0-.97-.18-1.34-.55-.74-.74-.75-1.93-.02-2.68.11-.11,1.2-1.2,5.84-5.07,3.75-3.13,2.66-8.97,2.65-9.03-.2-1.03.47-2.03,1.5-2.23,1.03-.19,2.02.46,2.23,1.49.07.33,1.56,8.1-3.94,12.69-4.48,3.75-5.53,4.79-5.57,4.83-.37.37-.86.56-1.35.56Z"/><path d="m100.92,206.4c-.71,0-1.39-.4-1.72-1.08-.45-.95-.05-2.08.9-2.53,1.68-.81,6.34-3.53,7.62-6.45,1.71-3.89,1.02-7.14,1.01-7.17-.24-1.02.39-2.04,1.41-2.29,1.02-.24,2.04.39,2.29,1.41.04.18,1.01,4.47-1.23,9.57-2.08,4.73-8.71,8-9.46,8.35-.26.13-.54.18-.81.18Z"/><path d="m188.91,146.79c-.69,0-1.36-.38-1.7-1.04-.06-.13-6.52-12.78-11.15-17.4-9.02-9.02-20.3-11.27-20.41-11.29-1.03-.2-1.71-1.19-1.51-2.22.2-1.03,1.19-1.71,2.22-1.51.51.1,12.51,2.46,22.39,12.34,5.05,5.05,11.57,17.83,11.85,18.37.48.94.1,2.08-.83,2.56-.28.14-.57.21-.86.21Z"/><path d="m144.79,165.13c-.52,0-1.03-.21-1.4-.62-.71-.78-.65-1.98.12-2.68.01-.01,2.11-1.99,2.52-4.76.47-3.23,0-8.01-.01-8.06-.11-1.04.65-1.98,1.7-2.08,1.04-.09,1.98.65,2.08,1.7.02.21.53,5.3-.01,9-.61,4.14-3.59,6.9-3.72,7.01-.36.33-.82.5-1.28.5Z"/><path d="m186.35,136.57c-.22,0-.45-.04-.67-.12-.97-.36-1.46-1.43-1.13-2.4.04-.13.5-1.71,1.43-8.58.75-5.55,2.91-9.57,4.12-11.46.53-.82.85-1.7.97-2.6.48-3.67,1.39-8.59,3-11.24.81-1.33,1.81-2.57,2.97-3.66.88-.83,1.26-2,1.03-3.16l-.07-.35c-.52-2.5-1.05-5.08,1.24-11.95,1.75-5.24,4.96-7.81,7.31-9.68.79-.63,1.47-1.17,1.96-1.71.62-.67,1.16-1.41,1.6-2.2.11-.2.25-.47.41-.79,1.18-2.35,3.95-7.86,9.66-11.25,3.25-1.93,6.56-1.96,8.97-1.99.91-.01,2.13-.02,2.53-.2.01-.06.03-.16.03-.32,0-2.96,1.58-4.19,3.05-4.35,2.7-.3,5.48,2.77,6.45,7.13.23,1.02-.42,2.04-1.44,2.27-1.02.22-2.04-.42-2.27-1.44-.46-2.08-1.37-3.36-1.98-3.9,0,.08,0,.18,0,.29,0,4.25-3.8,4.3-6.31,4.33-2.21.03-4.71.05-7.08,1.46-4.76,2.83-7.09,7.46-8.21,9.69-.2.39-.36.71-.49.95-.58,1.04-1.3,2.02-2.12,2.91-.69.75-1.51,1.4-2.39,2.1-2.2,1.75-4.69,3.73-6.08,7.91-1.97,5.9-1.58,7.79-1.12,9.98l.07.36c.5,2.45-.31,4.94-2.14,6.67-.91.86-1.69,1.82-2.33,2.87-.97,1.6-1.88,5.16-2.48,9.77-.19,1.46-.71,2.86-1.54,4.15-1.05,1.63-2.9,5.1-3.56,9.92-.99,7.31-1.49,9.01-1.62,9.36-.29.76-1.01,1.23-1.78,1.23Z"/><path d="m233.63,107.82c-.65,0-1.28-.33-1.63-.92-.09-.15-2.19-3.7-2.19-8,0-2.6,2.1-5.36,4.76-8.85,2.24-2.94,4.77-6.27,6.24-9.83,1.72-4.16.67-10.28.04-13.93l-.16-.93c-.17-1.04.53-2.01,1.56-2.19,1.04-.18,2.01.53,2.19,1.56l.16.92c.7,4.06,1.86,10.85-.27,16.03-1.66,4.02-4.35,7.55-6.73,10.68-1.96,2.57-3.98,5.23-3.98,6.55,0,3.22,1.63,6.02,1.65,6.05.54.9.25,2.07-.65,2.61-.31.18-.64.27-.98.27Z"/><path d="m229.8,157.92c-.32,0-.65-.08-.94-.25-.91-.52-1.22-1.68-.7-2.59.99-1.73,3.57-6.81,3.57-9.48,0-3.85-.64-13.93-1.87-19.46-.85-3.82.04-6.25.82-8.39.54-1.47,1.05-2.87,1.05-4.79,0-1.05.85-1.9,1.9-1.9s1.9.85,1.9,1.9c0,2.6-.68,4.46-1.28,6.1-.72,1.97-1.29,3.53-.68,6.26,1.29,5.8,1.96,16.29,1.96,20.29s-3.66,10.64-4.08,11.37c-.35.61-.99.95-1.65.95Z"/><path d="m229.8,178.08c-.2,0-.4-.03-.6-.1-1-.33-1.54-1.41-1.21-2.4.01-.04,1.23-3.74,1.84-7.8.58-3.88.02-6.91.01-6.94-.2-1.03.48-2.03,1.51-2.22,1.03-.19,2.02.47,2.22,1.5.03.15.7,3.67.01,8.23-.66,4.4-1.93,8.27-1.99,8.44-.26.8-1.01,1.3-1.8,1.3Z"/><path d="m229.8,206.4c-.23,0-.46-.04-.69-.13-.98-.38-1.47-1.48-1.09-2.46.03-.07,2.54-6.58,3.78-10.58.97-3.13.19-4.72.15-4.78-.53-.9-.22-2.04.68-2.58.9-.54,2.08-.21,2.62.69.17.29,1.67,3.02.18,7.8-1.28,4.13-3.76,10.55-3.87,10.83-.29.75-1.01,1.21-1.77,1.21Z"/><path d="m215.1,234.32c-1.06,0-1.92-.86-1.92-1.92,0-3.06,3.2-5.74,6.9-8.84,1.54-1.29,3.14-2.63,4.52-4.01,3.86-3.86,4.4-6.46,4.41-6.49.2-1.02,1.19-1.72,2.21-1.54,1.03.18,1.73,1.13,1.57,2.16-.06.38-.7,3.81-5.48,8.58-1.5,1.5-3.16,2.89-4.77,4.24-2.33,1.96-5.53,4.63-5.53,5.9,0,1.06-.86,1.92-1.92,1.92Z"/><path d="m208.71,193.42c-1.03,0-1.87-.82-1.9-1.85,0-.13-.33-12.65-2.42-17.87-2.65-6.64-5.59-9.33-7.73-11.3-.87-.8-1.63-1.5-2.24-2.32-.63-.84-.46-2.03.38-2.66.84-.63,2.03-.46,2.66.38.4.54,1.04,1.12,1.77,1.8,2.28,2.09,5.72,5.25,8.69,12.69,2.34,5.84,2.68,18.64,2.69,19.18.03,1.05-.8,1.92-1.85,1.95-.02,0-.03,0-.05,0Z"/><path d="m190.83,251.55c-.86,0-1.64-.59-1.85-1.47-.24-1.02.39-2.04,1.42-2.28.16-.04,3.99-.93,8.58-1.32,4.56-.39,14.15-8.99,15.52-21.31,1.41-12.7-3.39-28.44-3.44-28.59-.31-1,.25-2.07,1.25-2.38,1-.31,2.07.25,2.38,1.25.21.67,5.09,16.64,3.59,30.14-1.56,13.99-12.45,24.12-18.97,24.68-4.3.37-8,1.23-8.03,1.24-.15.03-.29.05-.43.05Z"/><path d="m165.42,260.85c-.69,0-1.44-.04-2.25-.14-1.04-.13-1.78-1.08-1.66-2.12.13-1.04,1.07-1.78,2.12-1.66,4.02.49,5.63-.62,7.34-1.79,1-.68,2.03-1.39,3.42-1.73,3-.74,11.12-4.23,11.2-4.27.96-.41,2.08.03,2.5.99.42.96-.03,2.08-.99,2.5-.35.15-8.49,3.65-11.8,4.47-.72.18-1.37.62-2.18,1.18-1.62,1.11-3.75,2.57-7.71,2.57Z"/><path d="m143.55,261.4c-4.25,0-8.47-2.76-9.33-4.27-.88-1.56-2.2-5.49-1.51-10.31.19-1.35,1.84-6,14.95-9.33,1.02-.26,2.07.36,2.33,1.38s-.36,2.07-1.38,2.33c-5.51,1.4-11.83,4.28-12.1,6.16-.55,3.85.51,6.88,1.01,7.81.82.92,5.27,3.39,8.06,1.94,4.6-2.39,10.12-1.73,10.35-1.71,1.05.13,1.79,1.09,1.66,2.14-.13,1.05-1.08,1.8-2.14,1.66-.04,0-4.59-.53-8.11,1.3-1.2.63-2.5.88-3.79.88Zm-5.99-6.16h0,0Z"/><path d="m132.53,254.36c-.07,0-.14,0-.2-.01-.02,0-2.35-.24-7.21,0-6.14.28-8.67-3.5-8.77-3.66-.57-.88-.32-2.06.56-2.63.87-.57,2.03-.33,2.61.53.09.13,1.61,2.16,5.42,1.96,5.19-.25,7.69.01,7.79.02,1.04.11,1.8,1.05,1.69,2.09-.1.97-.93,1.7-1.89,1.7Z"/><path d="m58.07,75.3c-.73,0-1.43-.43-1.74-1.14-.09-.21-2.12-5.13-.12-15.33,1.66-8.45,2.58-13.11,6.51-14.09,1.25-.31,3.28-.11,7.99,4.29,2.45,2.29,4.79,4.94,5.55,6.08l3.83,5.75-3.16,2.11-3.83-5.75c-1.47-2.21-7.7-8.42-9.56-8.76-1.37.5-2.2,3.99-3.6,11.11-1.75,8.89-.13,13.07-.11,13.12.39.97-.07,2.08-1.03,2.47-.24.1-.49.15-.73.15Zm5.4-26.86h0Z"/><path d="m124.91,75.31c-.25,0-.5-.05-.75-.15-.96-.41-1.41-1.52-1.01-2.48.04-.12,1.62-4.3-.11-13.11-1.4-7.12-2.23-10.61-3.6-11.11-1.86.34-8.09,6.55-9.56,8.76l-3.83,5.75c-.58.87-1.76,1.11-2.64.53-.87-.58-1.11-1.76-.53-2.63l3.83-5.75c.76-1.15,3.1-3.8,5.55-6.08,4.71-4.39,6.74-4.6,7.99-4.29,3.93.99,4.85,5.64,6.51,14.09,2.01,10.2-.03,15.12-.12,15.33-.31.72-1.01,1.15-1.75,1.15Zm-5.39-26.87h0Z"/><path d="m107.83,64.98c-.3,0-.61-.07-.89-.22-.03-.02-4.64-2.33-14.81-2.33s-15.61,2.36-15.66,2.38c-.96.43-2.08,0-2.51-.94-.43-.95-.02-2.08.93-2.51.24-.11,6.06-2.73,17.24-2.73s16.38,2.66,16.59,2.77c.93.49,1.28,1.64.79,2.57-.34.64-1,1.01-1.68,1.01Z"/><path d="m49.65,127.62c-.62,0-1.23-.3-1.6-.87-1.12-1.73-1.73-3.73-1.75-5.79-.48,0-1.15.05-2.03.23-2.88.58-5.05-1.36-6.12-3.37-.97-1.81-.99-3.38-.06-4.3.43-.44,4.98-5.61,8.38-9.49-.53-.74-1-1.72-.98-2.83.01-.86.33-2.12,1.75-3.19,1.03-.77,1.71-2.04,2.13-3.07-1.79-.69-4.09-1.9-4.71-3.76-.8-2.4,1.21-3.78,2.83-4.88,1.16-.79,2.61-1.78,3.9-3.32,3-3.6,3.66-4.58,3.69-4.62.58-.87,1.76-1.11,2.63-.53.87.58,1.12,1.74.55,2.62-.07.11-.78,1.16-3.95,4.97-1.63,1.95-3.39,3.15-4.68,4.03-.36.25-.82.56-1.12.8.64.51,2.27,1.25,3.72,1.63.98.26,1.59,1.24,1.38,2.23-.1.47-1.05,4.66-4.09,6.94-.16.12-.23.21-.24.23,0,.19.44.83.93,1.24.4.33.65.8.69,1.32.04.51-.12,1.02-.46,1.41-1.31,1.5-7.24,8.27-9.13,10.37.18.45.57,1.13,1.13,1.55.48.36.85.34,1.09.3,3.55-.71,5.16-.01,5.69.32.55.35.89.95.89,1.61v1.44c0,1.37.39,2.7,1.14,3.85.57.88.32,2.06-.56,2.63-.32.21-.68.31-1.03.31Zm-2.31-6.54h0Z"/><path d="m134.12,127.62c-.35,0-.71-.1-1.03-.31-.88-.57-1.13-1.75-.56-2.63.75-1.15,1.14-2.48,1.14-3.85v-1.44c0-.65.33-1.26.89-1.61.53-.33,2.14-1.03,5.69-.32.23.05.6.07,1.09-.3.56-.42.95-1.1,1.13-1.55-1.89-2.1-7.82-8.87-9.13-10.37-.34-.39-.51-.9-.46-1.42s.3-.99.71-1.32c.48-.4.92-1.04.92-1.26,0,0-.06-.08-.23-.2-3.04-2.28-3.99-6.47-4.09-6.94-.21-.99.4-1.97,1.38-2.23,1.47-.39,3.06-1.1,3.71-1.64-.3-.24-.75-.55-1.12-.79-1.29-.88-3.05-2.08-4.68-4.03-3.18-3.82-3.99-4.78-3.99-4.78-.68-.8-.57-2,.23-2.68.8-.68,2-.57,2.68.23,0,0,.81.96,4.01,4.8,1.29,1.54,2.73,2.53,3.9,3.32,1.62,1.1,3.64,2.48,2.83,4.88-.62,1.86-2.91,3.07-4.71,3.76.44,1.07,1.14,2.33,2.13,3.07,1.42,1.07,1.74,2.32,1.75,3.19.02,1.11-.45,2.09-.98,2.83,3.4,3.88,7.94,9.05,8.38,9.49.93.93.9,2.5-.07,4.31-1.08,2.01-3.25,3.95-6.12,3.37-.88-.18-1.55-.23-2.03-.23-.02,2.06-.63,4.06-1.75,5.79-.36.56-.97.87-1.6.87Zm2.31-6.54h0Z"/></svg>