<?xml version="1.0" encoding="UTF-8"?><svg xmlns="http://www.w3.org/2000/svg" xmlns:xlink="http://www.w3.org/1999/xlink" viewBox="0 0 280 280"><defs><clipPath id="clippath"><path d="M213.62,234.36c0-3.19,6.39-7.03,10.86-11.5,4.47-4.47,4.94-7.52,4.94-7.52,.4-5.28-1.1-8.89-1.1-8.89,0,0,2.55-6.59,3.83-10.7,1.28-4.11,0-6.27,0-6.27-.71-4.31-3.83-11.34-3.83-11.34,0,0,1.27-3.83,1.91-8.12,.64-4.29,0-7.58,0-7.58l-1.91-4.47s3.83-6.66,3.83-10.42-.64-14.12-1.92-19.87c-1.28-5.75,1.92-7.51,1.92-12.78v-7.03s-1.92-3.19-1.92-7.03,7.67-10.22,10.86-17.95c2.09-5.05,.64-12.07,0-15.91l-3.19-8.94c-1.28-5.75-5.75-7.67-5.75-3.19s-6.47,.6-12.46,4.15c-6.03,3.58-8.46,9.7-9.39,11.34-.52,.92-1.14,1.78-1.86,2.55-2.2,2.39-6.73,4.27-8.87,10.7-2.24,6.71-1.61,8.85-1.11,11.33,.37,1.81-.24,3.65-1.58,4.91-.86,.81-1.81,1.89-2.65,3.26-1.52,2.5-2.37,7.68-2.74,10.5-.16,1.21-.6,2.35-1.26,3.38-1.21,1.89-3.15,5.58-3.84,10.69-1.04,7.67-1.52,8.94-1.52,8.94,0,0-4.4,38.65-4.4,45.04s33.15,52.7,33.15,52.7Z" style="fill:none;"/></clipPath><clipPath id="clippath-1"><path d="M210.96,197.92c-1.03-5.41-4.15-4.49-4.15-4.49,0,0-.32-12.93-2.56-18.53-3.83-9.58-7.26-12.84-10.22-14.05-3.9-1.6-7.03-13.07-7.03-13.07l-1.85-4.5s-4.75-9.47-9.65-14.37c-9.58-9.58-21.4-11.82-21.4-11.82h-4.08c-3.27-.23-8.82,2.75-9.98,3.16l-.63,2.98,.18-3.12s-33,12.03-47.99,12.57c-22.47,.8-40.19-5.2-40.19-5.2v1.28s-1.92,1.28-2.56,3.19l-1.92,2.56s-1.99,2.87-2.63,12.46c-.64,9.58,3.03,23.18,3.03,23.18l.88,3.33,.64,5.11-.07-.06s0,13.16,7.45,26.14c5.71,9.95,15.54,27.21,15.86,32.99,.32,5.78-1.02,15.21,1.92,18.19,2.88,2.92,9.26,3.56,13.1,2.92s5.75-3.19,5.11-6.39c-.91-4.56,0-7.03,0-7.03-.07-.32,.64,0,.64,0,0,0,.91,2.47,0,7.03-.64,3.19,1.28,5.75,5.11,6.39s10.22,0,13.1-2.92c.93-.95,1.43-2.55,1.69-4.47l3.27,.2s1.98,3.04,7.09,2.8,7.5,.01,7.5,.01l2.08-5.37c-.64,4.47,.64,7.97,1.28,9.09,.64,1.13,6.45,4.77,10.57,2.63,4.12-2.14,9.23-1.5,9.23-1.5,2.48-.32,7.71,1.5,7.71,1.5,7.07,.86,8.26-2.78,11.45-3.57,3.19-.78,11.5-4.37,11.5-4.37,1.84-.36,4.47-1.24,4.47-1.24,0,0,3.8-.89,8.3-1.28,5.54-.48,15.79-9.86,17.25-23,1.48-13.26-3.51-29.37-3.51-29.37Zm-97.95,49.78c.07-3.43-.18-7.19-.03-10.06,.14-2.58,2.18-7.45,4.9-12.93l-4.88,22.98Z" style="fill:none;"/></clipPath><clipPath id="clippath-2"><path d="M178.23,162.82c-7.09,9.79,.15,16.65,7.23,18.18,10.46,2.26,16.56-.2,19.3-10.18,2.74-9.98-4.42-23.11-12.65-24s-6.81,6.22-13.88,16Zm55.58,54.26c-.24-3.38-2.46-6.2-6.06-8.33,3.01-7.79,.53-19.34-1.54-26.39-.75-2.54-5.38-3.41-7.91-1.48-6.25,4.77-16.02,11.39-21.51,10.95-8.52-.68-21.68-2.54-27.38,4.85-3.9,5.05-2.09,13.53,4.96,18.9-2.74,3.53-3.48,7.89-.51,13.03,7.7,13.33,20.59,22.55,38.43,20.91,17.85-1.64,22.2-22.59,21.51-32.44Zm-54.69-62.21c11-14,13-29,2-37s-27-12-34,0c-7,12-2,33.78-4,40.39-2,6.61-5.15,12.69,1.93,18.65s24.41-9.74,34.07-22.04Z" style="fill:none;"/></clipPath><clipPath id="clippath-3"><path d="M120.65,73.37c3.72,4.46,4.38,7.95,4.38,7.95,0,0,.81,.96,4,4.79,3.19,3.83,7.03,4.47,6.39,6.39-.64,1.92-5.29,3.13-5.29,3.13,0,0,.82,3.9,3.37,5.81,2.56,1.92-.64,4.47-.64,4.47,0,0,5.31,6.2,5.95,6.84,0,0,4.94,3.83,4.4,4.65-2.05,3.1-1.89,.94-2.59,1.29-1.03,.52-27.93,14.74-49.65,14.74s-43.23-5.8-43.23-5.8c0,0-1.45-3.15-1.45-4.88v-1.44s-1.11-.7-4.3-.06c-3.19,.64-5.11-3.83-4.47-4.47s9.58-10.86,9.58-10.86c0,0-3.19-2.56-.64-4.47,2.56-1.92,3.37-5.81,3.37-5.81,0,0-4.65-1.21-5.29-3.13s3.19-2.56,6.39-6.39c3.19-3.83,4.24-4.96,4.24-4.96,0,0,.71-3.28,4.47-7.78,5-6,15-12,31-12s25,6,30,12Z" style="fill:none;"/></clipPath></defs><g style="isolation:isolate;"><g id="substantial"><g id="pattern_4"><path d="M213.2,234.31c0-3.19,6.39-7.03,10.86-11.5,4.47-4.47,4.94-7.52,4.94-7.52,.4-5.28-1.1-8.89-1.1-8.89,0,0,2.55-6.59,3.83-10.7,1.28-4.11,0-6.27,0-6.27-.71-4.31-3.83-11.34-3.83-11.34,0,0,1.27-3.83,1.91-8.12s0-7.58,0-7.58l-1.91-4.47s3.83-6.66,3.83-10.42-.64-14.12-1.92-19.87c-1.28-5.75,1.92-7.51,1.92-12.78v-7.03s-1.92-3.19-1.92-7.03,7.67-10.22,10.86-17.95c2.09-5.05,.64-12.07,0-15.91l-3.19-8.94c-1.28-5.75-5.75-7.67-5.75-3.19s-6.47,.6-12.46,4.15c-6.03,3.58-8.46,9.7-9.39,11.34-.52,.92-1.14,1.78-1.86,2.55-2.2,2.39-6.73,4.27-8.87,10.7-2.24,6.71-1.61,8.85-1.11,11.33,.37,1.81-.24,3.65-1.58,4.91-.86,.81-1.81,1.89-2.65,3.26-1.52,2.5-2.37,7.68-2.74,10.5-.16,1.21-.6,2.35-1.26,3.38-1.21,1.89-3.15,5.58-3.84,10.69-1.04,7.67-1.52,8.94-1.52,8.94,0,0-4.4,38.65-4.4,45.04s33.15,52.7,33.15,52.7Z" style="fill:#fff;"/><path d="M213.62,234.36c0-3.19,6.39-7.03,10.86-11.5,4.47-4.47,4.94-7.52,4.94-7.52,.4-5.28-1.1-8.89-1.1-8.89,0,0,2.55-6.59,3.83-10.7,1.28-4.11,0-6.27,0-6.27-.71-4.31-3.83-11.34-3.83-11.34,0,0,1.27-3.83,1.91-8.12,.64-4.29,0-7.58,0-7.58l-1.91-4.47s3.83-6.66,3.83-10.42-.64-14.12-1.92-19.87c-1.28-5.75,1.92-7.51,1.92-12.78v-7.03s-1.92-3.19-1.92-7.03,7.67-10.22,10.86-17.95c2.09-5.05,.64-12.07,0-15.91l-3.19-8.94c-1.28-5.75-5.75-7.67-5.75-3.19s-6.47,.6-12.46,4.15c-6.03,3.58-8.46,9.7-9.39,11.34-.52,.92-1.14,1.78-1.86,2.55-2.2,2.39-6.73,4.27-8.87,10.7-2.24,6.71-1.61,8.85-1.11,11.33,.37,1.81-.24,3.65-1.58,4.91-.86,.81-1.81,1.89-2.65,3.26-1.52,2.5-2.37,7.68-2.74,10.5-.16,1.21-.6,2.35-1.26,3.38-1.21,1.89-3.15,5.58-3.84,10.69-1.04,7.67-1.52,8.94-1.52,8.94,0,0-4.4,38.65-4.4,45.04s33.15,52.7,33.15,52.7Z" style="fill:#ffdb53;"/><g style="clip-path:url(#clippath);"><g><path d="M200.2,89.06s17.2,6.21,17.2,19.21,9,4,10,19-12,13-21,8-31-15-31-24,7.6-24.42,24.8-22.21Z" style="fill:#696969;"/><path d="M246.39,85.28s-17,2-21-4-28-6-22-16,32-31,41-21,13,35,2,41Z" style="fill:#696969;"/><path d="M237.39,160.28s-5,12-22,11-21,2-21,4,4,29,22,31,32,11,32-4,10-42-11-42Z" style="fill:#696969;"/></g></g><g><path d="M140.05,120.25l.06-.26c-.37,.32-.35,.37-.06,.26Z" style="fill:#fff;"/><path d="M210.96,197.92c-1.03-5.41-4.15-4.49-4.15-4.49,0,0-.32-12.93-2.56-18.53-3.83-9.58-7.26-12.84-10.22-14.05-3.9-1.6-7.03-13.07-7.03-13.07l-1.85-4.5s-4.75-9.47-9.65-14.37c-9.58-9.58-21.4-11.82-21.4-11.82h-4.08c-3.27-.23-8.82,2.75-9.98,3.16l-.63,2.98,.18-3.12s-33,12.03-47.99,12.57c-22.47,.8-40.19-5.2-40.19-5.2v1.28s-1.92,1.28-2.56,3.19l-1.92,2.56s-1.99,2.87-2.63,12.46c-.64,9.58,3.03,23.18,3.03,23.18l.88,3.33,.64,5.11-.07-.06s0,13.16,7.45,26.14c5.71,9.95,15.54,27.21,15.86,32.99,.32,5.78-1.02,15.21,1.92,18.19,2.88,2.92,9.26,3.56,13.1,2.92s5.75-3.19,5.11-6.39c-.91-4.56,0-7.03,0-7.03-.07-.32,.64,0,.64,0,0,0,.91,2.47,0,7.03-.64,3.19,1.28,5.75,5.11,6.39s10.22,0,13.1-2.92c.93-.95,1.43-2.55,1.69-4.47l3.27,.2s1.98,3.04,7.09,2.8,7.5,.01,7.5,.01l2.08-5.37c-.64,4.47,.64,7.97,1.28,9.09,.64,1.13,6.45,4.77,10.57,2.63,4.12-2.14,9.23-1.5,9.23-1.5,2.48-.32,7.71,1.5,7.71,1.5,7.07,.86,8.26-2.78,11.45-3.57,3.19-.78,11.5-4.37,11.5-4.37,1.84-.36,4.47-1.24,4.47-1.24,0,0,3.8-.89,8.3-1.28,5.54-.48,15.79-9.86,17.25-23,1.48-13.26-3.51-29.37-3.51-29.37Zm-97.95,49.78c.07-3.43-.18-7.19-.03-10.06,.14-2.58,2.18-7.45,4.9-12.93l-4.88,22.98Z" style="fill:#fff;"/></g><g style="clip-path:url(#clippath-1);"><g><path d="M147.11,117.87c-7,12-2,33.78-4,40.39-2,6.61-5.15,12.69,1.93,18.65,7.07,5.96,24.41-9.74,34.07-22.04,11-14,13-29,2-37s-27-12-34,0Z" style="fill:#696969;"/><path d="M185.45,181c-7.08-1.53-14.31-8.39-7.23-18.18,7.07-9.78,5.65-16.89,13.88-16,8.23,.89,15.39,14.02,12.65,24-2.74,9.98-8.84,12.44-19.3,10.18Z" style="fill:#ffdb53;"/><path d="M196.1,205.17c-12.78,2-29.94,10.11-22.24,23.44,7.7,13.33,20.59,22.55,38.43,20.91,17.85-1.64,22.2-22.59,21.51-32.44-.69-9.85-18.19-14.95-37.7-11.9Z" style="fill:#ffdb53;"/><path d="M187.48,220.4c17.27,1.6,33.68,1.36,39.62-10.21,3.97-7.73,1.3-20.33-.9-27.84-.75-2.54-5.38-3.41-7.91-1.48-6.25,4.77-16.02,11.39-21.51,10.95-8.52-.68-21.68-2.54-27.38,4.85-5.7,7.39,.8,22.12,18.07,23.72Z" style="fill:#696969;"/></g><g style="clip-path:url(#clippath-2);"><g><path d="M112.89,150.51c-1.07-.03-1.64-.53-1.66-1.04-.02-.51,.43-1.04,1.41-1.3,.59-.16,1.18-.32,1.77-.49,2.63-.76,5.21-1.62,7.71-2.6,2.5-.98,4.94-2.07,7.28-3.28,1.17-.61,2.31-1.26,3.43-1.93,.28-.17,.56-.34,.83-.52l.41-.26c.13-.09,.29-.18,.39-.26l.35-.25c.12-.08,.23-.16,.35-.25l.34-.27c.11-.09,.23-.17,.34-.28,.91-.77,1.8-1.66,2.65-2.61,.85-.95,1.68-1.97,2.48-3.01,.81-1.05,1.58-2.14,2.35-3.24,.77-1.11,1.53-2.23,2.27-3.37,1.49-2.28,2.94-4.63,4.39-6.99l.99-1.63c.53-.88,1.18-1.16,1.66-.97,.48,.18,.77,.86,.5,1.88-.16,.63-.34,1.26-.52,1.89-.81,2.73-1.81,5.41-2.97,8.03-.58,1.31-1.22,2.6-1.9,3.88-.69,1.27-1.42,2.53-2.23,3.76-.81,1.23-1.68,2.43-2.65,3.59-.97,1.16-2.03,2.28-3.25,3.3-.14,.13-.31,.25-.47,.38l-.48,.37c-.15,.13-.33,.24-.5,.36l-.51,.35c-.18,.12-.33,.21-.49,.31l-.48,.29c-.32,.2-.64,.38-.96,.56-1.29,.72-2.62,1.38-3.97,1.96-2.7,1.16-5.5,2.05-8.34,2.66-2.84,.61-5.72,.97-8.6,1.03-.65,0-1.29,0-1.94-.02Z" style="fill:#3d3d3d;"/><path d="M131.97,161.03c-1.14,.04-1.78-.42-1.83-.93-.05-.51,.41-1.07,1.44-1.39,.62-.2,1.24-.41,1.85-.63,2.75-.97,5.41-2.09,7.95-3.38,2.54-1.29,4.96-2.74,7.22-4.36,1.12-.82,2.2-1.68,3.24-2.58,1.02-.92,2.01-1.87,2.93-2.87l.68-.77,.34-.39,.35-.42c.47-.56,.94-1.12,1.41-1.68l2.84-3.39c1.9-2.27,3.83-4.53,5.79-6.77,1.96-2.24,3.96-4.46,6.01-6.64l1.42-1.49c1.53-1.59,2.95-.57,1.9,1.38-.33,.61-.66,1.21-.99,1.81-1.47,2.62-3.03,5.19-4.65,7.71-1.62,2.52-3.31,5-5.09,7.43-.89,1.21-1.79,2.42-2.72,3.61-.46,.6-.94,1.19-1.42,1.77l-.36,.44c-.12,.15-.26,.3-.39,.46-.27,.3-.53,.61-.8,.91-1.1,1.18-2.28,2.29-3.51,3.32-1.24,1.01-2.55,1.94-3.9,2.79-2.71,1.68-5.59,3.01-8.56,3.99-2.97,.98-6.02,1.63-9.1,1.93-.69,.06-1.38,.11-2.07,.13Z" style="fill:#3d3d3d;"/><path d="M146.71,175.82c-1.21,.34-1.98,.08-2.16-.4-.18-.48,.2-1.17,1.27-1.77l1.95-1.1c2.9-1.65,5.77-3.31,8.6-5.01,2.83-1.7,5.61-3.43,8.32-5.24l.51-.34,.5-.34,1.01-.69c.66-.47,1.33-.92,1.98-1.41,1.31-.94,2.58-1.92,3.81-2.93l.92-.76c.3-.26,.59-.52,.89-.78l.44-.39,.43-.4,.43-.4c.14-.13,.29-.26,.42-.4l.82-.82c.14-.13,.27-.28,.4-.42l.39-.42c.13-.14,.26-.28,.39-.42l.37-.43,.37-.43c.06-.07,.12-.14,.18-.22l.17-.23,.7-.91c.12-.15,.23-.31,.34-.47l.34-.48c.46-.63,.88-1.31,1.32-1.98,.22-.33,.43-.68,.64-1.02l.64-1.03,.62-1.05,.31-.53,.3-.53c1.63-2.84,3.19-5.77,4.74-8.72l1.06-2.03c.57-1.09,1.25-1.49,1.73-1.33,.48,.17,.76,.93,.47,2.15-.18,.76-.38,1.51-.58,2.26-.89,3.28-1.98,6.51-3.27,9.69l-.24,.6-.26,.59-.52,1.18c-.18,.39-.37,.78-.56,1.18-.19,.39-.37,.78-.58,1.17-.41,.77-.8,1.55-1.27,2.32l-.34,.57c-.11,.19-.22,.38-.35,.57l-.75,1.13-.19,.28c-.07,.09-.14,.18-.2,.27l-.41,.55-.42,.55c-.14,.18-.29,.35-.44,.52l-.44,.52c-.15,.17-.29,.35-.45,.51l-.92,.98c-.15,.17-.31,.32-.47,.48l-.48,.47-.48,.47-.49,.45c-.33,.29-.66,.59-.99,.88l-1.01,.84c-1.36,1.1-2.76,2.15-4.2,3.12-.71,.5-1.44,.95-2.17,1.42l-1.1,.68-.55,.34-.56,.32c-2.97,1.73-6.04,3.26-9.16,4.61-3.13,1.35-6.31,2.55-9.56,3.55-.73,.22-1.46,.44-2.19,.64Z" style="fill:#3d3d3d;"/><path d="M205.99,141.27c.35-.97,1.08-1.4,1.76-1.36,.68,.05,1.31,.65,1.34,1.73,.01,.33,.02,.65,.02,.98,0,.33,0,.65,0,.98-.06,2.91-.47,5.82-1.14,8.69-.68,2.88-1.66,5.72-3,8.48l-.25,.52c-.08,.17-.18,.34-.27,.51l-.56,1.02c-.36,.67-.8,1.36-1.23,2.03-.88,1.33-1.86,2.57-2.88,3.77-2.05,2.38-4.31,4.54-6.7,6.54-2.39,2-4.91,3.85-7.53,5.55-2.62,1.7-5.34,3.28-8.17,4.69-.65,.32-1.3,.64-1.97,.94-1.07,.49-1.95,.31-2.35-.17-.4-.49-.34-1.27,.46-2.03l1.49-1.41c2.16-2.03,4.31-4.06,6.47-6.09,2.13-2.02,4.24-4.03,6.28-6.05,2.03-2.03,4.01-4.07,5.8-6.15,.89-1.04,1.76-2.09,2.53-3.16,.38-.54,.76-1.05,1.11-1.63l.55-.85c.09-.14,.19-.28,.27-.42l.26-.44c1.4-2.31,2.66-4.73,3.82-7.23,1.16-2.5,2.24-5.06,3.23-7.69,.12-.29,.22-.59,.33-.88,.11-.29,.22-.59,.32-.88Z" style="fill:#f8b600;"/><path d="M215.72,162.05c0-.98,.37-1.54,.87-1.68,.49-.13,1.14,.28,1.45,1.31,.19,.62,.36,1.25,.5,1.88,.63,2.83,.81,5.78,.53,8.74-.28,2.95-1.06,5.91-2.34,8.67-.17,.34-.32,.69-.5,1.02l-.55,1-.6,.98c-.05,.08-.1,.16-.15,.24l-.16,.24-.32,.47c-.11,.16-.22,.31-.33,.47l-.35,.45-.35,.45-.18,.23-.2,.23-.41,.47c-.14,.15-.28,.29-.41,.43l-.42,.42-.42,.39c-1.13,1.04-2.29,1.94-3.48,2.78-1.18,.84-2.39,1.61-3.61,2.33-2.44,1.45-4.94,2.72-7.49,3.87-2.55,1.15-5.14,2.18-7.78,3.08-.61,.2-1.21,.4-1.83,.59-.98,.31-1.67,.06-1.88-.41-.21-.47,.02-1.14,.86-1.71l1.57-1.06c2.28-1.54,4.57-3.03,6.83-4.54,2.26-1.5,4.51-2.99,6.7-4.52,1.09-.76,2.16-1.53,3.2-2.32,1.03-.79,2.03-1.59,2.92-2.41l.33-.31,.31-.31c.1-.1,.21-.2,.3-.31l.28-.31,.14-.15,.14-.18,.29-.36,.29-.35,.27-.37,.27-.37,.14-.18c.04-.06,.09-.13,.13-.19l.52-.76,.49-.78c.16-.26,.31-.53,.46-.8,1.2-2.14,2.12-4.47,2.77-6.93,.65-2.46,1.02-5.05,1.15-7.69,.03-.59,.04-1.18,.04-1.78Z" style="fill:#525252;"/><path d="M231.12,184.75c.82-1.07,1.58-1.39,2.03-1.14,.45,.25,.56,1.11-.02,2.36-.35,.76-.71,1.51-1.08,2.25-1.67,3.33-3.56,6.55-5.63,9.67-2.07,3.12-4.34,6.12-6.84,8.96-1.25,1.42-2.56,2.8-3.94,4.12-1.38,1.32-2.82,2.6-4.35,3.79-.39,.29-.78,.58-1.17,.86l-.59,.43c-.2,.14-.39,.29-.59,.41l-1.19,.79c-.4,.26-.79,.53-1.19,.77-.8,.49-1.6,.99-2.41,1.47-.81,.47-1.62,.93-2.43,1.39-3.26,1.81-6.57,3.46-9.93,5.01-3.36,1.55-6.76,2.99-10.22,4.31-.79,.3-1.59,.6-2.38,.88-1.28,.47-2.12,.3-2.34-.16-.22-.46,.16-1.21,1.3-1.94l2.13-1.36c3.1-1.97,6.22-3.89,9.33-5.8,3.11-1.92,6.21-3.81,9.27-5.74l2.28-1.45c.76-.49,1.49-.99,2.24-1.47,.38-.24,.73-.5,1.1-.75l1.09-.75c.19-.12,.36-.25,.53-.38l.52-.39c.35-.26,.7-.51,1.04-.77,1.37-1.06,2.7-2.2,4-3.38,1.3-1.18,2.58-2.41,3.82-3.68,2.49-2.54,4.9-5.2,7.24-7.94,2.35-2.74,4.63-5.57,6.87-8.44,.5-.64,1-1.29,1.5-1.93Z" style="fill:#f8b600;"/><path d="M231.53,215.32c.69-.92,1.4-1.19,1.86-.96,.46,.23,.64,1.01,.19,2.12-.14,.34-.28,.67-.43,1.01l-.45,1c-1.37,2.95-2.99,5.78-4.8,8.49-1.82,2.71-3.84,5.3-6.06,7.73-2.24,2.42-4.67,4.66-7.28,6.72-1.37,1.05-2.78,1.97-4.21,2.82-1.43,.85-2.88,1.62-4.35,2.34-2.93,1.44-5.92,2.68-8.96,3.77-3.03,1.09-6.11,2.04-9.22,2.83-.71,.18-1.43,.35-2.15,.52-1.16,.26-1.89-.03-2.05-.51-.17-.48,.21-1.16,1.24-1.7l1.93-1.01c2.81-1.46,5.62-2.9,8.39-4.36,2.78-1.46,5.52-2.93,8.2-4.46,1.34-.77,2.65-1.55,3.93-2.36,1.27-.81,2.51-1.65,3.65-2.53,2.37-1.86,4.67-3.86,6.89-5.96,2.21-2.12,4.33-4.34,6.4-6.65,2.06-2.31,4.06-4.7,5.99-7.17l.65-.83,.64-.84Z" style="fill:#525252;"/></g></g></g><path d="M48.51,133.39s-3.83,5.75-4.47,15.33,3.03,23.18,3.03,23.18" style="fill:none; stroke:#000; stroke-linecap:round; stroke-linejoin:round; stroke-width:3.8px;"/><g><path d="M48.51,180.28s0,13.16,7.45,26.14c5.71,9.95,15.54,27.21,15.86,32.99,.32,5.78-1.02,15.21,1.92,18.19,2.87,2.92,9.26,3.56,13.1,2.92s5.75-3.19,5.11-6.39c-.91-4.56,0-7.03,0-7.03" style="fill:none; stroke:#000; stroke-linecap:round; stroke-linejoin:round; stroke-width:3.8px;"/><path d="M90.03,211.32s1.92,6.39,1.92,12.78v15.97" style="fill:none; stroke:#000; stroke-linecap:round; stroke-linejoin:round; stroke-width:3.8px;"/></g><g><path d="M136.02,180.28s0,13.16-7.45,26.14c-5.71,9.95-15.54,27.21-15.86,32.99s1.02,15.21-1.92,18.19c-2.87,2.92-9.26,3.56-13.1,2.92-3.83-.64-5.75-3.19-5.11-6.39,.91-4.56,0-7.03,0-7.03" style="fill:none; stroke:#000; stroke-linecap:round; stroke-linejoin:round; stroke-width:3.8px;"/><path d="M94.5,211.32s-1.92,6.39-1.92,12.78v15.97" style="fill:none; stroke:#000; stroke-linecap:round; stroke-linejoin:round; stroke-width:3.8px;"/></g><g><path d="M51.54,169.99s-1.76,4.29,1.44,10.04c1.75,3.15,2.98,4.72,2.98,4.72" style="fill:none; stroke:#000; stroke-linecap:round; stroke-linejoin:round; stroke-width:3.8px;"/><path d="M61.34,180.28s-1.33,6.77,3.14,10.6c4.47,3.83,5.43,4.83,5.43,4.83" style="fill:none; stroke:#000; stroke-linecap:round; stroke-linejoin:round; stroke-width:3.8px;"/><path d="M76.83,191.01s-.85,3.71,1.06,8.18c1.77,4.12,8.13,7.23,8.13,7.23" style="fill:none; stroke:#000; stroke-linecap:round; stroke-linejoin:round; stroke-width:3.8px;"/></g><g><path d="M135.98,169.11s1.84,4.39-1.51,10.28c-1.84,3.22-3.13,4.83-3.13,4.83" style="fill:none; stroke:#000; stroke-linecap:round; stroke-linejoin:round; stroke-width:3.8px;"/><path d="M125.7,179.65s1.4,6.93-3.3,10.86c-4.7,3.92-5.7,4.95-5.7,4.95" style="fill:none; stroke:#000; stroke-linecap:round; stroke-linejoin:round; stroke-width:3.8px;"/><path d="M109.43,190.64s.89,3.79-1.12,8.37c-1.86,4.22-8.54,7.4-8.54,7.4" style="fill:none; stroke:#000; stroke-linecap:round; stroke-linejoin:round; stroke-width:3.8px;"/></g><path d="M154.87,117.1s11.82,2.24,21.4,11.82c4.9,4.9,11.5,17.89,11.5,17.89" style="fill:none; stroke:#000; stroke-linecap:round; stroke-linejoin:round; stroke-width:3.8px;"/><path d="M146.76,150.73s.52,5.02,0,8.53c-.52,3.51-3.12,5.89-3.12,5.89" style="fill:none; stroke:#000; stroke-linecap:round; stroke-linejoin:round; stroke-width:3.8px;"/><path d="M185.21,136.58s.48-1.28,1.52-8.94c.69-5.11,2.63-8.8,3.84-10.69,.66-1.02,1.1-2.17,1.26-3.38,.37-2.82,1.23-8,2.74-10.5,.83-1.37,1.79-2.46,2.65-3.26,1.34-1.26,1.95-3.11,1.58-4.91-.5-2.47-1.13-4.62,1.11-11.33,2.14-6.43,6.67-8.31,8.87-10.7,.72-.78,1.34-1.63,1.86-2.55,.92-1.64,3.35-7.76,9.39-11.34,5.99-3.55,12.46,.32,12.46-4.15s4.47-2.56,5.75,3.19" style="fill:none; stroke:#000; stroke-linecap:round; stroke-linejoin:round; stroke-width:3.8px;"/><path d="M241.43,66.96c.64,3.83,2.09,10.85,0,15.91-3.19,7.73-10.86,14.12-10.86,17.95s1.92,7.03,1.92,7.03" style="fill:none; stroke:#000; stroke-linecap:round; stroke-linejoin:round; stroke-width:3.8px;"/><path d="M232.48,114.87c0,5.27-3.19,7.03-1.92,12.78,1.28,5.75,1.92,16.11,1.92,19.87s-3.83,10.42-3.83,10.42" style="fill:none; stroke:#000; stroke-linecap:round; stroke-linejoin:round; stroke-width:3.8px;"/><path d="M230.57,162.41s.64,3.29,0,7.58-1.91,8.12-1.91,8.12" style="fill:none; stroke:#000; stroke-linecap:round; stroke-linejoin:round; stroke-width:3.8px;"/><path d="M232.48,189.44s1.28,2.16,0,6.27c-1.28,4.11-3.83,10.7-3.83,10.7" style="fill:none; stroke:#000; stroke-linecap:round; stroke-linejoin:round; stroke-width:3.8px;"/><path d="M229.76,215.3s-.47,3.05-4.94,7.52c-4.47,4.47-10.86,8.3-10.86,11.5" style="fill:none; stroke:#000; stroke-linecap:round; stroke-linejoin:round; stroke-width:3.83px;"/><path d="M194.79,160.86c1.92,2.56,6.39,4.47,10.22,14.05,2.24,5.6,2.56,18.53,2.56,18.53" style="fill:none; stroke:#000; stroke-linecap:round; stroke-linejoin:round; stroke-width:3.8px;"/><path d="M211.72,197.93s4.99,16.11,3.51,29.37c-1.46,13.14-11.7,22.52-17.25,23-4.5,.39-8.3,1.28-8.3,1.28" style="fill:none; stroke:#000; stroke-linecap:round; stroke-linejoin:round; stroke-width:3.8px;"/><path d="M185.21,252.81s-8.3,3.58-11.5,4.37c-3.19,.78-4.38,4.43-11.45,3.57" style="fill:none; stroke:#000; stroke-linecap:round; stroke-linejoin:round; stroke-width:3.8px;"/><path d="M146.99,241.27s-12.88,3.27-13.52,7.75c-.64,4.47,.64,7.97,1.28,9.09s6.45,4.77,10.57,2.63c4.12-2.14,9.23-1.5,9.23-1.5" style="fill:none; stroke:#000; stroke-linecap:round; stroke-linejoin:round; stroke-width:3.83px;"/><path d="M116.8,251.57s1.98,3.04,7.09,2.8c5.11-.24,7.5,.01,7.5,.01" style="fill:none; stroke:#000; stroke-linecap:round; stroke-linejoin:round; stroke-width:3.8px;"/><path d="M90.98,133.43c21.71,0,48.61-14.22,49.65-14.74" style="fill:#fff;"/><path d="M120.65,73.37c3.72,4.46,4.38,7.95,4.38,7.95,0,0,.81,.96,4,4.79,3.19,3.83,7.03,4.47,6.39,6.39-.64,1.92-5.29,3.13-5.29,3.13,0,0,.82,3.9,3.37,5.81,2.56,1.92-.64,4.47-.64,4.47,0,0,5.31,6.2,5.95,6.84,0,0,4.94,3.83,4.4,4.65-2.05,3.1-1.89,.94-2.59,1.29-1.03,.52-27.93,14.74-49.65,14.74s-43.23-5.8-43.23-5.8c0,0-1.45-3.15-1.45-4.88v-1.44s-1.11-.7-4.3-.06c-3.19,.64-5.11-3.83-4.47-4.47s9.58-10.86,9.58-10.86c0,0-3.19-2.56-.64-4.47,2.56-1.92,3.37-5.81,3.37-5.81,0,0-4.65-1.21-5.29-3.13s3.19-2.56,6.39-6.39c3.19-3.83,4.24-4.96,4.24-4.96,0,0,.71-3.28,4.47-7.78,5-6,15-12,31-12s25,6,30,12Z" style="fill:#fff;"/><g><path d="M58.65,78.37s-3.38-5.53-1.47-15.27c1.74-8.82,2.56-11.98,5.11-12.62,2.56-.64,10.22,7.67,11.5,9.58l3.83,5.75-18.97,12.55Z" style="fill:#696969;"/><path d="M121.65,78.37s3.8-7.53,1.88-17.27c-1.74-8.82-2.56-11.98-5.11-12.62-2.56-.64-10.22,7.67-11.5,9.58l-3.83,5.75,18.56,14.55Z" style="fill:#ffdb53;"/></g><path d="M56.94,75.33s-1.92-4.47,0-14.21c1.74-8.82,2.56-11.98,5.11-12.62,2.56-.64,10.22,7.67,11.5,9.58l3.83,5.75" style="fill:none; stroke:#000; stroke-linecap:round; stroke-linejoin:round; stroke-width:3.8px;"/><path d="M123.77,75.33s1.92-4.47,0-14.21c-1.74-8.82-2.56-11.98-5.11-12.62-2.56-.64-10.22,7.67-11.5,9.58l-3.83,5.75" style="fill:none; stroke:#000; stroke-linecap:round; stroke-linejoin:round; stroke-width:3.8px;"/><g style="clip-path:url(#clippath-3);"><path d="M142.87,116.26c-.64-.64-9.58-10.86-9.58-10.86,0,0,3.19-2.56,.64-4.47-2.56-1.92-3.37-5.81-3.37-5.81,0,0,4.65-1.21,5.29-3.13,.64-1.92-3.19-2.56-6.39-6.39-2.41-2.89-3.63-4.87-4.09-5.67,0,0-.02-4.76-11.02-11.76-7.99-5.09-11.42-7-24-7s-16,3-23,7-11.82,11.36-11.82,11.36c0,0-.96,2.24-4.15,6.07-3.19,3.83-7.03,4.47-6.39,6.39,.64,1.92,5.29,3.13,5.29,3.13,0,0-.82,3.9-3.37,5.81s.64,4.47,.64,4.47c0,0-8.94,10.22-9.58,10.86-.64,.64,1.28,5.11,4.47,4.47,3.19-.64,4.3,.06,4.3,.06v1.44c0,1.73,.5,3.43,1.45,4.88l4.15-4.79s9.46-3.76,14.36-7.03c7.67-5.11,1.92-9.58,10.22-15.97,3.32-2.56,8.3-8.94,9.58-11.5,.45-.9,2.08-2.79,3.06-3.01,.46-.1,.89-.18,1.11-.18,.28,0,.96,.12,1.66,.25,1,.19,2.66,2.03,3.12,2.94,1.28,2.56,6.17,9.78,9.58,12.14,8.3,5.75,5.75,11.5,12.14,16.61,4.59,3.67,15.03,9.58,15.03,9.58l.47,.96c.94-1.45,1.45-3.15,1.45-4.88v-1.44s1.11-.7,4.3-.06c3.19,.64,5.11-3.83,4.47-4.47Z" style="fill:#ffdb53;"/><path d="M82.58,59.96c3.43-.63,6.8,1.24,7.69,4.29,1.89,6.52-5.29,11.93-18.47,21.66-10.51,7.76-19.16,12.98-23.95,8.65-1.56-1.41-1.55-15.53,14.37-27.04,8.93-6.45,15.76-6.72,20.36-7.57Z" style="fill:#696969;"/><g style="mix-blend-mode:darken;"><g><path d="M79.32,76.88c-.21-.32,.22-1.33,.72-1.28,.14,.02,.29,.04,.43,.07,.64,.14,1.22,.38,1.76,.67,.54,.28,1.02,.61,1.47,.96,.22,.17,.44,.35,.64,.54,.15,.12,.56,.54,.73,.79,.82,1.13,1.2,2.2,1.44,3.36,.11,.57,.18,1.16,.18,1.76,0,.14,0,.27-.01,.42-.02,.46-1.04,.84-1.36,.55-.1-.1-.2-.19-.29-.28-.42-.41-.79-.82-1.13-1.24-.68-.82-1.28-1.72-1.75-2.36-.15-.2-.12-.17-.36-.44-.18-.2-.35-.41-.52-.62-.33-.42-.64-.84-.93-1.28-.24-.38-.51-.81-.84-1.32-.06-.1-.13-.2-.19-.31Z" style="fill:#f8b600;"/><path d="M80.37,89.25c.26,.78-.66,1.37-1.26,.76-.18-.19-.35-.38-.52-.57-.76-.86-1.46-1.77-2.09-2.76-.31-.49-.61-1.01-.87-1.57-.14-.27-.26-.58-.38-.88-.09-.3-.19-.59-.28-.88-.36-1.18-.55-2.39-.61-3.59-.13-2.41,.23-4.76,.89-6.96,.33-1.1,.74-2.17,1.17-3.19,.1-.22,.19-.45,.29-.68,.26-.63,1.37-.78,1.45,.21,.02,.28,.02,.55,.03,.81,0,1.16-.06,2.25-.1,3.34-.09,2.16-.19,4.25-.07,6.27,.04,1.01,.15,2,.32,2.97,.04,.24,.09,.49,.13,.73,.05,.23,.1,.45,.17,.69,.13,.48,.28,.97,.45,1.48,.33,.97,.67,1.98,1.04,3.1,.08,.23,.15,.47,.23,.71Z" style="fill:#f8b600;"/></g><g><path d="M99.12,77.58c.2-.25,1.3-.34,1.46,.1,.05,.13,.09,.25,.12,.38,.15,.58,.15,1.18,.08,1.75-.16,1.14-.65,2.14-1.31,2.99-.33,.42-.74,.83-1.17,1.15-.43,.32-.88,.58-1.37,.78-.48,.2-.98,.35-1.51,.43l-.37,.04c-.41,.04-.96-.91-.79-1.23,.06-.11,.11-.21,.16-.31,.24-.43,.49-.83,.74-1.2,.25-.37,.5-.71,.75-1.03,.25-.33,.48-.61,.7-.9,.48-.61,.99-1.2,1.52-1.78,.27-.29,.54-.59,.81-.93,.06-.07,.13-.15,.19-.23Z" style="fill:#f8b600;"/><path d="M101.43,89.92c-.53,.67-1.5,.17-1.33-.62,.05-.25,.1-.49,.15-.72,.23-1.08,.49-2.13,.74-3.18,.27-1.08,.52-2.11,.76-3.11,.13-.52,.26-1.04,.32-1.45,.08-.45,.14-.91,.17-1.4,.16-1.94,.06-4.05,.04-6.2-.01-1.08-.03-2.18,.03-3.32,.02-.26,.03-.52,.06-.8,.11-.94,1.22-.83,1.46-.16,.09,.24,.18,.47,.26,.69,.39,1.03,.75,2.09,1.04,3.18,.58,2.18,.95,4.46,.76,6.9-.04,.61-.14,1.23-.29,1.86-.16,.66-.35,1.19-.54,1.72-.4,1.07-.87,2.1-1.4,3.1-.53,1-1.12,1.97-1.79,2.89-.15,.2-.3,.4-.46,.61Z" style="fill:#f8b600;"/></g><g><path d="M53.2,97.4c-.39-.43,.27-1.32,.68-1.3,.14,0,.27,0,.4,.01,.59,.02,1.16,.02,1.72,0,1.1-.03,2.17-.08,3.18-.17,1-.09,1.92-.27,3.17-.5,.62-.11,1.31-.2,2.01-.19,.16,0,.32,.01,.48,.03,.52,.05,.75,1.12,.4,1.41l-.33,.27c-.48,.39-.93,.77-1.45,1.13-1.01,.74-2.46,1.37-3.93,1.49-1.45,.12-2.87-.1-4.18-.68-.65-.3-1.26-.68-1.79-1.16-.12-.11-.23-.23-.34-.35Z" style="fill:#f8b600;"/><path d="M54.29,106.85c-.56-.18-.54-1.27-.04-1.47,.16-.06,.31-.12,.47-.18,.69-.26,1.38-.48,2.06-.69,1.36-.41,2.7-.74,4.02-1.04,.63-.14,1.26-.27,1.93-.42,.6-.14,1.24-.32,1.9-.5,.67-.18,1.35-.37,2.07-.54,.16-.04,.33-.07,.5-.11,.53-.12,1.16,.77,.79,1.23-.12,.14-.23,.28-.34,.41-.52,.59-1.09,1.11-1.71,1.58-.63,.47-1.3,.89-2.07,1.22-.82,.34-1.49,.52-2.26,.7-1.49,.33-3.02,.45-4.54,.32-.76-.06-1.52-.18-2.27-.37-.16-.05-.33-.1-.5-.14Z" style="fill:#f8b600;"/></g><g><path d="M126.05,96.1c.41-.01,1.06,.87,.68,1.3-.11,.12-.23,.24-.34,.35-.53,.49-1.14,.87-1.79,1.16-1.31,.59-2.73,.81-4.18,.68-1.47-.12-2.92-.75-3.93-1.49-.52-.37-.98-.74-1.45-1.13l-.33-.27c-.35-.29-.13-1.36,.4-1.41,.16-.02,.32-.02,.48-.03,.7-.02,1.39,.08,2.01,.19,1.25,.23,2.17,.42,3.17,.5,1.01,.09,2.08,.14,3.18,.17,.55,.01,1.12,.01,1.72,0,.13,0,.26,0,.4-.01Z" style="fill:#f8b600;"/><path d="M125.69,105.38c.5,.2,.52,1.29-.04,1.47-.17,.05-.34,.1-.5,.14-.75,.19-1.51,.31-2.27,.37-1.52,.13-3.04,0-4.54-.32-.77-.18-1.43-.36-2.26-.7-.77-.33-1.45-.75-2.07-1.22-.62-.47-1.2-.99-1.71-1.58-.11-.14-.23-.27-.34-.41-.37-.46,.26-1.35,.79-1.23l.5,.11c.72,.17,1.4,.36,2.07,.54,.66,.18,1.31,.36,1.9,.5,.67,.14,1.3,.28,1.93,.42,1.33,.3,2.67,.63,4.02,1.04,.68,.21,1.36,.43,2.06,.69,.15,.06,.31,.12,.47,.18Z" style="fill:#f8b600;"/></g></g></g><path d="M74.54,65s5.55-2.55,16.45-2.55,15.7,2.55,15.7,2.55" style="fill:none; stroke:#000; stroke-linecap:round; stroke-linejoin:round; stroke-width:3.8px;"/><path d="M55.52,81.33s-.62,.96-3.82,4.79c-3.19,3.83-7.03,4.47-6.39,6.39s5.29,3.13,5.29,3.13c0,0-.82,3.9-3.37,5.81-2.56,1.92,.64,4.47,.64,4.47,0,0-8.94,10.22-9.58,10.86s1.28,5.11,4.47,4.47c3.19-.64,4.3,.06,4.3,.06v1.44c0,1.73,.5,3.43,1.45,4.88h0" style="fill:none; stroke:#000; stroke-linecap:round; stroke-linejoin:round; stroke-width:3.8px;"/><path d="M132.98,127.64h0c.94-1.45,1.45-3.15,1.45-4.88v-1.44s1.11-.7,4.3-.06c3.19,.64,5.11-3.83,4.47-4.47s-9.58-10.86-9.58-10.86c0,0,3.19-2.56,.64-4.47-2.56-1.92-3.37-5.81-3.37-5.81,0,0,4.65-1.21,5.29-3.13,.64-1.92-3.19-2.56-6.39-6.39-3.19-3.83-4-4.79-4-4.79" style="fill:none; stroke:#000; stroke-linecap:round; stroke-linejoin:round; stroke-width:3.8px;"/></g></g></g></svg>