<?xml version="1.0" encoding="UTF-8"?><svg id="substantial" xmlns="http://www.w3.org/2000/svg" xmlns:xlink="http://www.w3.org/1999/xlink" viewBox="0 0 280 280"><defs><clipPath id="clippath"><path d="M213.62,234.36c0-3.19,6.39-7.03,10.86-11.5s4.94-7.52,4.94-7.52c.4-5.28-1.1-8.89-1.1-8.89,0,0,2.55-6.59,3.83-10.7,1.28-4.11,0-6.27,0-6.27-.71-4.31-3.83-11.34-3.83-11.34,0,0,1.27-3.83,1.91-8.12s0-7.58,0-7.58l-1.91-4.47s3.83-6.66,3.83-10.42-.64-14.12-1.92-19.87,1.92-7.51,1.92-12.78v-7.03s-1.92-3.19-1.92-7.03,7.67-10.22,10.86-17.95c2.09-5.05,.64-12.07,0-15.91l-3.19-8.94c-1.28-5.75-5.75-7.67-5.75-3.19s-6.47,.6-12.46,4.15c-6.03,3.58-8.46,9.7-9.39,11.34-.52,.92-1.14,1.78-1.86,2.55-2.2,2.39-6.73,4.27-8.87,10.7-2.24,6.71-1.61,8.85-1.11,11.33,.37,1.81-.24,3.65-1.58,4.91-.86,.81-1.81,1.89-2.65,3.26-1.52,2.5-2.37,7.68-2.74,10.5-.16,1.21-.6,2.35-1.26,3.38-1.21,1.89-3.15,5.58-3.84,10.69-1.04,7.67-1.52,8.94-1.52,8.94,0,0-4.4,38.65-4.4,45.04s33.15,52.7,33.15,52.7Z" style="fill:none;"/></clipPath><clipPath id="clippath-1"><path d="M210.96,197.92c-1.03-5.41-4.15-4.49-4.15-4.49,0,0-.32-12.93-2.56-18.53-3.83-9.58-7.26-12.84-10.22-14.05-3.9-1.6-7.03-13.07-7.03-13.07l-1.85-4.5s-4.75-9.47-9.65-14.37c-9.58-9.58-21.4-11.82-21.4-11.82h-4.08c-3.27-.23-8.82,2.75-9.98,3.16l-.63,2.98,.18-3.12s-33,12.03-47.99,12.57c-22.47,.8-40.19-5.2-40.19-5.2v1.28s-1.92,1.28-2.56,3.19l-1.92,2.56s-1.99,2.87-2.63,12.46c-.64,9.58,3.03,23.18,3.03,23.18l.88,3.33,.64,5.11-.07-.06s0,13.16,7.45,26.14c5.71,9.95,15.54,27.21,15.86,32.99,.32,5.78-1.02,15.21,1.92,18.19,2.88,2.92,9.26,3.56,13.1,2.92s5.75-3.19,5.11-6.39c-.91-4.56,0-7.03,0-7.03-.07-.32,.64,0,.64,0,0,0,.91,2.47,0,7.03-.64,3.19,1.28,5.75,5.11,6.39s10.22,0,13.1-2.92c.93-.95,1.43-2.55,1.69-4.47l3.27,.2s1.98,3.04,7.09,2.8,7.5,.01,7.5,.01l2.08-5.37c-.64,4.47,.64,7.97,1.28,9.09,.64,1.13,6.45,4.77,10.57,2.63,4.12-2.14,9.23-1.5,9.23-1.5,2.48-.32,7.71,1.5,7.71,1.5,7.07,.86,8.26-2.78,11.45-3.57,3.19-.78,11.5-4.37,11.5-4.37,1.84-.36,4.47-1.24,4.47-1.24,0,0,3.8-.89,8.3-1.28,5.54-.48,15.79-9.86,17.25-23,1.48-13.26-3.51-29.37-3.51-29.37Zm-97.95,49.78c.07-3.43-.18-7.19-.03-10.06,.14-2.58,2.18-7.45,4.9-12.93l-4.88,22.98Z" style="fill:none;"/></clipPath><clipPath id="clippath-2"><path d="M120.65,73.37c3.72,4.46,4.38,7.95,4.38,7.95,0,0,.81,.96,4,4.79,3.19,3.83,7.03,4.47,6.39,6.39-.64,1.92-5.29,3.13-5.29,3.13,0,0,.82,3.9,3.37,5.81,2.56,1.92-.64,4.47-.64,4.47,0,0,5.31,6.2,5.95,6.84,0,0,4.94,3.83,4.4,4.65-2.05,3.1-1.89,.94-2.59,1.29-1.03,.52-27.93,14.74-49.65,14.74s-43.23-5.8-43.23-5.8c0,0-1.45-3.15-1.45-4.88v-1.44s-1.11-.7-4.3-.06-5.11-3.83-4.47-4.47c.64-.64,9.58-10.86,9.58-10.86,0,0-3.19-2.56-.64-4.47,2.56-1.92,3.37-5.81,3.37-5.81,0,0-4.65-1.21-5.29-3.13s3.19-2.56,6.39-6.39c3.19-3.83,4.24-4.96,4.24-4.96,0,0,.71-3.28,4.47-7.78,5-6,15-12,31-12s25,6,30,12Z" style="fill:none;"/></clipPath></defs><g id="pattern_3"><path d="M213.2,234.31c0-3.19,6.39-7.03,10.86-11.5,4.47-4.47,4.94-7.52,4.94-7.52,.4-5.28-1.1-8.89-1.1-8.89,0,0,2.55-6.59,3.83-10.7,1.28-4.11,0-6.27,0-6.27-.71-4.31-3.83-11.34-3.83-11.34,0,0,1.27-3.83,1.91-8.12,.64-4.29,0-7.58,0-7.58l-1.91-4.47s3.83-6.66,3.83-10.42-.64-14.12-1.92-19.87c-1.28-5.75,1.92-7.51,1.92-12.78v-7.03s-1.92-3.19-1.92-7.03,7.67-10.22,10.86-17.95c2.09-5.05,.64-12.07,0-15.91l-3.19-8.94c-1.28-5.75-5.75-7.67-5.75-3.19s-6.47,.6-12.46,4.15c-6.03,3.58-8.46,9.7-9.39,11.34-.52,.92-1.14,1.78-1.86,2.55-2.2,2.39-6.73,4.27-8.87,10.7-2.24,6.71-1.61,8.85-1.11,11.33,.37,1.81-.24,3.65-1.58,4.91-.86,.81-1.81,1.89-2.65,3.26-1.52,2.5-2.37,7.68-2.74,10.5-.16,1.21-.6,2.35-1.26,3.38-1.21,1.89-3.15,5.58-3.84,10.69-1.04,7.67-1.52,8.94-1.52,8.94,0,0-4.4,38.65-4.4,45.04s33.15,52.7,33.15,52.7Z" style="fill:#fff;"/><path d="M213.62,234.36c0-3.19,6.39-7.03,10.86-11.5s4.94-7.52,4.94-7.52c.4-5.28-1.1-8.89-1.1-8.89,0,0,2.55-6.59,3.83-10.7,1.28-4.11,0-6.27,0-6.27-.71-4.31-3.83-11.34-3.83-11.34,0,0,1.27-3.83,1.91-8.12s0-7.58,0-7.58l-1.91-4.47s3.83-6.66,3.83-10.42-.64-14.12-1.92-19.87,1.92-7.51,1.92-12.78v-7.03s-1.92-3.19-1.92-7.03,7.67-10.22,10.86-17.95c2.09-5.05,.64-12.07,0-15.91l-3.19-8.94c-1.28-5.75-5.75-7.67-5.75-3.19s-6.47,.6-12.46,4.15c-6.03,3.58-8.46,9.7-9.39,11.34-.52,.92-1.14,1.78-1.86,2.55-2.2,2.39-6.73,4.27-8.87,10.7-2.24,6.71-1.61,8.85-1.11,11.33,.37,1.81-.24,3.65-1.58,4.91-.86,.81-1.81,1.89-2.65,3.26-1.52,2.5-2.37,7.68-2.74,10.5-.16,1.21-.6,2.35-1.26,3.38-1.21,1.89-3.15,5.58-3.84,10.69-1.04,7.67-1.52,8.94-1.52,8.94,0,0-4.4,38.65-4.4,45.04s33.15,52.7,33.15,52.7Z" style="fill:#ffce80;"/><g style="clip-path:url(#clippath);"><g><path d="M200.2,89.06s17.2,6.21,17.2,19.21,9,4,10,19-12,13-21,8-31-15-31-24,7.6-24.42,24.8-22.21Z" style="fill:#696969;"/><path d="M246.39,85.28s-17,2-21-4-28-6-22-16,32-31,41-21,13,35,2,41Z" style="fill:#696969;"/><path d="M237.39,160.28s-5,12-22,11-21,2-21,4,4,29,22,31,32,11,32-4,10-42-11-42Z" style="fill:#696969;"/></g></g><g><path d="M140.05,120.25l.06-.26c-.37,.32-.35,.37-.06,.26Z" style="fill:#fff;"/><path d="M210.96,197.92c-1.03-5.41-4.15-4.49-4.15-4.49,0,0-.32-12.93-2.56-18.53-3.83-9.58-7.26-12.84-10.22-14.05-3.9-1.6-7.03-13.07-7.03-13.07l-1.85-4.5s-4.75-9.47-9.65-14.37c-9.58-9.58-21.4-11.82-21.4-11.82h-4.08c-3.27-.23-8.82,2.75-9.98,3.16l-.63,2.98,.18-3.12s-33,12.03-47.99,12.57c-22.47,.8-40.19-5.2-40.19-5.2v1.28s-1.92,1.28-2.56,3.19l-1.92,2.56s-1.99,2.87-2.63,12.46c-.64,9.58,3.03,23.18,3.03,23.18l.88,3.33,.64,5.11-.07-.06s0,13.16,7.45,26.14c5.71,9.95,15.54,27.21,15.86,32.99,.32,5.78-1.02,15.21,1.92,18.19,2.88,2.92,9.26,3.56,13.1,2.92s5.75-3.19,5.11-6.39c-.91-4.56,0-7.03,0-7.03-.07-.32,.64,0,.64,0,0,0,.91,2.47,0,7.03-.64,3.19,1.28,5.75,5.11,6.39s10.22,0,13.1-2.92c.93-.95,1.43-2.55,1.69-4.47l3.27,.2s1.98,3.04,7.09,2.8,7.5,.01,7.5,.01l2.08-5.37c-.64,4.47,.64,7.97,1.28,9.09,.64,1.13,6.45,4.77,10.57,2.63,4.12-2.14,9.23-1.5,9.23-1.5,2.48-.32,7.71,1.5,7.71,1.5,7.07,.86,8.26-2.78,11.45-3.57,3.19-.78,11.5-4.37,11.5-4.37,1.84-.36,4.47-1.24,4.47-1.24,0,0,3.8-.89,8.3-1.28,5.54-.48,15.79-9.86,17.25-23,1.48-13.26-3.51-29.37-3.51-29.37Zm-97.95,49.78c.07-3.43-.18-7.19-.03-10.06,.14-2.58,2.18-7.45,4.9-12.93l-4.88,22.98Z" style="fill:#fff;"/></g><g style="clip-path:url(#clippath-1);"><g><path d="M147.11,117.87c-7,12-2,33.78-4,40.39s-5.15,12.69,1.93,18.65c7.07,5.96,24.41-9.74,34.07-22.04,11-14,13-29,2-37s-27-12-34,0Z" style="fill:#696969;"/><path d="M185.45,181c-7.08-1.53-14.31-8.39-7.23-18.18,7.07-9.78,5.65-16.89,13.88-16s15.39,14.02,12.65,24c-2.74,9.98-8.84,12.44-19.3,10.18Z" style="fill:#ffce80;"/><path d="M196.1,205.17c-12.78,2-29.94,10.11-22.24,23.44,7.7,13.33,20.59,22.55,38.43,20.91,17.85-1.64,22.2-22.59,21.51-32.44-.69-9.85-18.19-14.95-37.7-11.9Z" style="fill:#ffce80;"/><path d="M187.48,220.4c17.27,1.6,33.68,1.36,39.62-10.21,3.97-7.73,1.3-20.33-.9-27.84-.75-2.54-5.38-3.41-7.91-1.48-6.25,4.77-16.02,11.39-21.51,10.95-8.52-.68-21.68-2.54-27.38,4.85-5.7,7.39,.8,22.12,18.07,23.72Z" style="fill:#696969;"/></g></g><path d="M48.51,133.39s-3.83,5.75-4.47,15.33c-.64,9.58,3.03,23.18,3.03,23.18" style="fill:none; stroke:#000; stroke-linecap:round; stroke-linejoin:round; stroke-width:3.8px;"/><g><path d="M48.51,180.28s0,13.16,7.45,26.14c5.71,9.95,15.54,27.21,15.86,32.99,.32,5.78-1.02,15.21,1.92,18.19,2.87,2.92,9.26,3.56,13.1,2.92,3.83-.64,5.75-3.19,5.11-6.39-.91-4.56,0-7.03,0-7.03" style="fill:none; stroke:#000; stroke-linecap:round; stroke-linejoin:round; stroke-width:3.8px;"/><path d="M90.03,211.32s1.92,6.39,1.92,12.78v15.97" style="fill:none; stroke:#000; stroke-linecap:round; stroke-linejoin:round; stroke-width:3.8px;"/></g><g><path d="M136.02,180.28s0,13.16-7.45,26.14c-5.71,9.95-15.54,27.21-15.86,32.99-.32,5.78,1.02,15.21-1.92,18.19-2.87,2.92-9.26,3.56-13.1,2.92s-5.75-3.19-5.11-6.39c.91-4.56,0-7.03,0-7.03" style="fill:none; stroke:#000; stroke-linecap:round; stroke-linejoin:round; stroke-width:3.8px;"/><path d="M94.5,211.32s-1.92,6.39-1.92,12.78v15.97" style="fill:none; stroke:#000; stroke-linecap:round; stroke-linejoin:round; stroke-width:3.8px;"/></g><g><path d="M51.54,169.99s-1.76,4.29,1.44,10.04c1.75,3.15,2.98,4.72,2.98,4.72" style="fill:none; stroke:#000; stroke-linecap:round; stroke-linejoin:round; stroke-width:3.8px;"/><path d="M61.34,180.28s-1.33,6.77,3.14,10.6c4.47,3.83,5.43,4.83,5.43,4.83" style="fill:none; stroke:#000; stroke-linecap:round; stroke-linejoin:round; stroke-width:3.8px;"/><path d="M76.83,191.01s-.85,3.71,1.06,8.18c1.77,4.12,8.13,7.23,8.13,7.23" style="fill:none; stroke:#000; stroke-linecap:round; stroke-linejoin:round; stroke-width:3.8px;"/></g><g><path d="M135.98,169.11s1.84,4.39-1.51,10.28c-1.84,3.22-3.13,4.83-3.13,4.83" style="fill:none; stroke:#000; stroke-linecap:round; stroke-linejoin:round; stroke-width:3.8px;"/><path d="M125.7,179.65s1.4,6.93-3.3,10.86c-4.7,3.92-5.7,4.95-5.7,4.95" style="fill:none; stroke:#000; stroke-linecap:round; stroke-linejoin:round; stroke-width:3.8px;"/><path d="M109.43,190.64s.89,3.79-1.12,8.37c-1.86,4.22-8.54,7.4-8.54,7.4" style="fill:none; stroke:#000; stroke-linecap:round; stroke-linejoin:round; stroke-width:3.8px;"/></g><path d="M154.87,117.1s11.82,2.24,21.4,11.82c4.9,4.9,11.5,17.89,11.5,17.89" style="fill:none; stroke:#000; stroke-linecap:round; stroke-linejoin:round; stroke-width:3.8px;"/><path d="M146.76,150.73s.52,5.02,0,8.53c-.52,3.51-3.12,5.89-3.12,5.89" style="fill:none; stroke:#000; stroke-linecap:round; stroke-linejoin:round; stroke-width:3.8px;"/><path d="M185.21,136.58s.48-1.28,1.52-8.94c.69-5.11,2.63-8.8,3.84-10.69,.66-1.02,1.1-2.17,1.26-3.38,.37-2.82,1.23-8,2.74-10.5,.83-1.37,1.79-2.46,2.65-3.26,1.34-1.26,1.95-3.11,1.58-4.91-.5-2.47-1.13-4.62,1.11-11.33,2.14-6.43,6.67-8.31,8.87-10.7,.72-.78,1.34-1.63,1.86-2.55,.92-1.64,3.35-7.76,9.39-11.34,5.99-3.55,12.46,.32,12.46-4.15s4.47-2.56,5.75,3.19" style="fill:none; stroke:#000; stroke-linecap:round; stroke-linejoin:round; stroke-width:3.8px;"/><path d="M241.43,66.96c.64,3.83,2.09,10.85,0,15.91-3.19,7.73-10.86,14.12-10.86,17.95s1.92,7.03,1.92,7.03" style="fill:none; stroke:#000; stroke-linecap:round; stroke-linejoin:round; stroke-width:3.8px;"/><path d="M232.48,114.87c0,5.27-3.19,7.03-1.92,12.78,1.28,5.75,1.92,16.11,1.92,19.87s-3.83,10.42-3.83,10.42" style="fill:none; stroke:#000; stroke-linecap:round; stroke-linejoin:round; stroke-width:3.8px;"/><path d="M230.57,162.41s.64,3.29,0,7.58-1.91,8.12-1.91,8.12" style="fill:none; stroke:#000; stroke-linecap:round; stroke-linejoin:round; stroke-width:3.8px;"/><path d="M232.48,189.44s1.28,2.16,0,6.27c-1.28,4.11-3.83,10.7-3.83,10.7" style="fill:none; stroke:#000; stroke-linecap:round; stroke-linejoin:round; stroke-width:3.8px;"/><path d="M229.76,215.3s-.47,3.05-4.94,7.52c-4.47,4.47-10.86,8.3-10.86,11.5" style="fill:none; stroke:#000; stroke-linecap:round; stroke-linejoin:round; stroke-width:3.83px;"/><path d="M194.79,160.86c1.92,2.56,6.39,4.47,10.22,14.05,2.24,5.6,2.56,18.53,2.56,18.53" style="fill:none; stroke:#000; stroke-linecap:round; stroke-linejoin:round; stroke-width:3.8px;"/><path d="M211.72,197.93s4.99,16.11,3.51,29.37c-1.46,13.14-11.7,22.52-17.25,23-4.5,.39-8.3,1.28-8.3,1.28" style="fill:none; stroke:#000; stroke-linecap:round; stroke-linejoin:round; stroke-width:3.8px;"/><path d="M185.21,252.81s-8.3,3.58-11.5,4.37c-3.19,.78-4.38,4.43-11.45,3.57" style="fill:none; stroke:#000; stroke-linecap:round; stroke-linejoin:round; stroke-width:3.8px;"/><path d="M146.99,241.27s-12.88,3.27-13.52,7.75,.64,7.97,1.28,9.09,6.45,4.77,10.57,2.63c4.12-2.14,9.23-1.5,9.23-1.5" style="fill:none; stroke:#000; stroke-linecap:round; stroke-linejoin:round; stroke-width:3.83px;"/><path d="M116.8,251.57s1.98,3.04,7.09,2.8,7.5,.01,7.5,.01" style="fill:none; stroke:#000; stroke-linecap:round; stroke-linejoin:round; stroke-width:3.8px;"/><path d="M90.98,133.43c21.71,0,48.61-14.22,49.65-14.74" style="fill:#fff;"/><path d="M120.65,73.37c3.72,4.46,4.38,7.95,4.38,7.95,0,0,.81,.96,4,4.79,3.19,3.83,7.03,4.47,6.39,6.39-.64,1.92-5.29,3.13-5.29,3.13,0,0,.82,3.9,3.37,5.81,2.56,1.92-.64,4.47-.64,4.47,0,0,5.31,6.2,5.95,6.84,0,0,4.94,3.83,4.4,4.65-2.05,3.1-1.89,.94-2.59,1.29-1.03,.52-27.93,14.74-49.65,14.74s-43.23-5.8-43.23-5.8c0,0-1.45-3.15-1.45-4.88v-1.44s-1.11-.7-4.3-.06-5.11-3.83-4.47-4.47c.64-.64,9.58-10.86,9.58-10.86,0,0-3.19-2.56-.64-4.47,2.56-1.92,3.37-5.81,3.37-5.81,0,0-4.65-1.21-5.29-3.13s3.19-2.56,6.39-6.39c3.19-3.83,4.24-4.96,4.24-4.96,0,0,.71-3.28,4.47-7.78,5-6,15-12,31-12s25,6,30,12Z" style="fill:#fff;"/><g><path d="M58.65,78.37s-3.38-5.53-1.47-15.27c1.74-8.82,2.56-11.98,5.11-12.62s10.22,7.67,11.5,9.58l3.83,5.75-18.97,12.55Z" style="fill:#696969;"/><path d="M121.65,78.37s3.8-7.53,1.88-17.27c-1.74-8.82-2.56-11.98-5.11-12.62s-10.22,7.67-11.5,9.58l-3.83,5.75,18.56,14.55Z" style="fill:#ffce80;"/></g><path d="M56.94,75.33s-1.92-4.47,0-14.21c1.74-8.82,2.56-11.98,5.11-12.62,2.56-.64,10.22,7.67,11.5,9.58l3.83,5.75" style="fill:none; stroke:#000; stroke-linecap:round; stroke-linejoin:round; stroke-width:3.8px;"/><path d="M123.77,75.33s1.92-4.47,0-14.21c-1.74-8.82-2.56-11.98-5.11-12.62-2.56-.64-10.22,7.67-11.5,9.58l-3.83,5.75" style="fill:none; stroke:#000; stroke-linecap:round; stroke-linejoin:round; stroke-width:3.8px;"/><g style="clip-path:url(#clippath-2);"><path d="M142.87,116.26c-.64-.64-9.58-10.86-9.58-10.86,0,0,3.19-2.56,.64-4.47-2.56-1.92-3.37-5.81-3.37-5.81,0,0,4.65-1.21,5.29-3.13,.64-1.92-3.19-2.56-6.39-6.39-2.41-2.89-3.63-4.87-4.09-5.67,0,0-.18-4.61-11.18-11.61-10.32-6.57-13.27-7-23-7s-15,1-25,7c-8.75,5.25-10.67,11.21-10.67,11.21,0,0-.96,2.24-4.15,6.07-3.19,3.83-7.03,4.47-6.39,6.39,.64,1.92,5.29,3.13,5.29,3.13,0,0-.82,3.9-3.37,5.81s.64,4.47,.64,4.47c0,0-8.94,10.22-9.58,10.86-.64,.64,1.28,5.11,4.47,4.47,3.19-.64,4.3,.06,4.3,.06v1.44c0,1.73,.5,3.43,1.45,4.88l4.15-4.79s9.46-3.76,14.36-7.03c7.67-5.11,1.92-9.58,10.22-15.97,3.32-2.56,8.3-8.94,9.58-11.5,.45-.9,2.08-2.79,3.06-3.01,.46-.1,.89-.18,1.11-.18,.28,0,.96,.12,1.66,.25,1,.19,2.66,2.03,3.12,2.94,1.28,2.56,6.17,9.78,9.58,12.14,8.3,5.75,5.75,11.5,12.14,16.61,4.59,3.67,15.03,9.58,15.03,9.58l.47,.96c.94-1.45,1.45-3.15,1.45-4.88v-1.44s1.11-.7,4.3-.06c3.19,.64,5.11-3.83,4.47-4.47Z" style="fill:#ffce80;"/><path d="M82.58,59.96c3.43-.63,6.8,1.24,7.69,4.29,1.89,6.52-5.29,11.93-18.47,21.66-10.51,7.76-19.16,12.98-23.95,8.65-1.56-1.41-1.55-15.53,14.37-27.04,8.93-6.45,15.76-6.72,20.36-7.57Z" style="fill:#696969;"/></g><path d="M74.54,65s5.55-2.55,16.45-2.55,15.7,2.55,15.7,2.55" style="fill:none; stroke:#000; stroke-linecap:round; stroke-linejoin:round; stroke-width:3.8px;"/><path d="M55.52,81.33s-.62,.96-3.82,4.79c-3.19,3.83-7.03,4.47-6.39,6.39s5.29,3.13,5.29,3.13c0,0-.82,3.9-3.37,5.81-2.56,1.92,.64,4.47,.64,4.47,0,0-8.94,10.22-9.58,10.86s1.28,5.11,4.47,4.47c3.19-.64,4.3,.06,4.3,.06v1.44c0,1.73,.5,3.43,1.45,4.88h0" style="fill:none; stroke:#000; stroke-linecap:round; stroke-linejoin:round; stroke-width:3.8px;"/><path d="M132.98,127.64h0c.94-1.45,1.45-3.15,1.45-4.88v-1.44s1.11-.7,4.3-.06c3.19,.64,5.11-3.83,4.47-4.47-.64-.64-9.58-10.86-9.58-10.86,0,0,3.19-2.56,.64-4.47-2.56-1.92-3.37-5.81-3.37-5.81,0,0,4.65-1.21,5.29-3.13,.64-1.92-3.19-2.56-6.39-6.39-3.19-3.83-4-4.79-4-4.79" style="fill:none; stroke:#000; stroke-linecap:round; stroke-linejoin:round; stroke-width:3.8px;"/></g></svg>