<?xml version="1.0" encoding="UTF-8"?><svg id="substantial" xmlns="http://www.w3.org/2000/svg" xmlns:xlink="http://www.w3.org/1999/xlink" viewBox="0 0 280 280"><defs><clipPath id="clippath"><path d="M213.98,234.52c0-3.19,6.39-7.03,10.86-11.5,4.47-4.47,4.94-7.52,4.94-7.52,.4-5.28-1.1-8.89-1.1-8.89,0,0,2.55-6.59,3.83-10.7,1.28-4.11,0-6.27,0-6.27-.71-4.31-3.83-11.34-3.83-11.34,0,0,1.27-3.83,1.91-8.12,.64-4.29,0-7.58,0-7.58l-1.91-4.47s3.83-6.66,3.83-10.42-.64-14.12-1.92-19.87,1.92-7.51,1.92-12.78v-7.03s-1.92-3.19-1.92-7.03,7.67-10.22,10.86-17.95c2.09-5.05,.64-12.07,0-15.91l-3.19-8.94c-1.28-5.75-5.75-7.67-5.75-3.19s-6.47,.6-12.46,4.15c-6.03,3.58-8.46,9.7-9.39,11.34-.52,.92-1.14,1.78-1.86,2.55-2.2,2.39-6.73,4.27-8.87,10.7-2.24,6.71-1.61,8.85-1.11,11.33,.37,1.81-.24,3.65-1.58,4.91-.86,.81-1.81,1.89-2.65,3.26-1.52,2.5-2.37,7.68-2.74,10.5-.16,1.21-.6,2.35-1.26,3.38-1.21,1.89-3.15,5.58-3.84,10.69-1.04,7.67-1.52,8.94-1.52,8.94,0,0-4.4,38.65-4.4,45.04s33.15,52.7,33.15,52.7Z" style="fill:none;"/></clipPath><clipPath id="clippath-1"><path d="M210.81,197.44c-1.03-5.41-4.15-4.49-4.15-4.49,0,0-.32-12.93-2.56-18.53-3.83-9.58-7.26-12.84-10.22-14.05-3.9-1.6-7.03-13.07-7.03-13.07l-1.84-4.5s-4.75-9.47-9.65-14.37c-9.58-9.58-21.4-11.82-21.4-11.82h-4.08c-3.27-.23-8.82,2.75-9.98,3.16l-.63,2.98,.18-3.12s-33,12.03-47.99,12.57c-22.47,.8-40.19-5.2-40.19-5.2v1.28s-1.92,1.28-2.56,3.19l-1.92,2.56s-1.99,2.87-2.63,12.46c-.64,9.58,3.03,23.18,3.03,23.18l.88,3.33,.64,5.11-.07-.06s0,13.16,7.45,26.14c5.71,9.95,15.54,27.21,15.86,32.99,.32,5.78-1.02,15.21,1.92,18.19,2.87,2.92,9.26,3.56,13.1,2.92,3.83-.64,5.75-3.19,5.11-6.39-.91-4.56,0-7.03,0-7.03-.07-.32,.64,0,.64,0,0,0,.91,2.47,0,7.03-.64,3.19,1.28,5.75,5.11,6.39,3.83,.64,10.22,0,13.1-2.92,.93-.95,1.43-2.55,1.69-4.47l3.27,.2s1.98,3.04,7.09,2.8c5.11-.24,7.5,.01,7.5,.01l2.08-5.37c-.64,4.47,.64,7.97,1.28,9.09s6.45,4.77,10.57,2.63c4.12-2.14,9.23-1.5,9.23-1.5,2.48-.32,7.71,1.5,7.71,1.5,7.07,.86,8.26-2.78,11.45-3.57,3.19-.78,11.5-4.37,11.5-4.37,1.84-.36,4.47-1.24,4.47-1.24,0,0,3.8-.89,8.3-1.28,5.54-.48,15.79-9.86,17.25-23,1.48-13.26-3.51-29.37-3.51-29.37Zm-97.95,49.78c.07-3.43-.18-7.19-.02-10.06,.14-2.58,2.18-7.45,4.9-12.93l-4.88,22.99Z" style="fill:none;"/></clipPath><clipPath id="clippath-2"><path d="M139.58,120.1s-33,12.03-47.99,12.57c-22.47,.8-40.19-5.2-40.19-5.2v1.28s-1.92,1.28-2.56,3.19l-1.92,2.56s-1.99,2.87-2.63,12.46c-.64,9.58,3.03,23.18,3.03,23.18l.88,3.33,.64,5.11-.07-.06s0,13.16,7.45,26.14c5.71,9.95,15.54,27.21,15.86,32.99,.32,5.78-1.02,15.21,1.92,18.19,2.87,2.92,9.26,3.56,13.1,2.92,3.83-.64,5.75-3.19,5.11-6.39-.91-4.56,0-7.03,0-7.03-.07-.32,.64,0,.64,0,0,0,.91,2.47,0,7.03-.64,3.19,1.28,5.75,5.11,6.39,3.83,.64,10.22,0,13.1-2.92,.93-.95,1.43-2.55,1.69-4.47l3.27,.2s1.98,3.04,7.09,2.8c5.11-.24,7.5,.01,7.5,.01l2.08-5.37c-.64,4.47,.64,7.97,1.28,9.09,.64,1.13,6.45,4.77,10.57,2.63,4.12-2.14,9.23-1.5,9.23-1.5,2.48-.32,7.71,1.5,7.71,1.5,7.07,.86,8.26-2.78,11.45-3.57,3.19-.78,11.5-4.37,11.5-4.37,1.84-.36,4.47-1.24,4.47-1.24,0,0,3.8-.89,8.3-1.28,5.54-.48,15.79-9.86,17.25-23,1.48-13.26-3.51-29.37-3.51-29.37-1.03-5.41-4.15-4.49-4.15-4.49,0,0-.32-12.93-2.56-18.53-3.83-9.58-7.26-12.84-10.22-14.05-3.9-1.6-7.03-13.07-7.03-13.07l-1.84-4.5s-4.75-9.47-9.65-14.37c-9.58-9.58-21.4-11.82-21.4-11.82h-4.08c-3.27-.23-8.82,2.75-9.98,3.16m-27.04,127.44c.07-3.43-.18-7.19-.03-10.06,.14-2.58,2.18-7.45,4.9-12.93l-4.88,22.98Z" style="fill:none;"/></clipPath><clipPath id="clippath-3"><path d="M120.63,74.37c3.72,4.46,4.38,7.95,4.38,7.95,0,0,.81,.96,4,4.79,3.19,3.83,7.03,4.47,6.39,6.39-.64,1.92-5.29,3.13-5.29,3.13,0,0,.82,3.9,3.37,5.81,2.56,1.92-.64,4.47-.64,4.47,0,0,5.31,6.2,5.95,6.84,0,0,4.94,3.83,4.4,4.65-2.05,3.1-1.89,.94-2.59,1.29-1.03,.52-27.93,14.74-49.65,14.74s-43.23-5.8-43.23-5.8c0,0-1.45-3.15-1.45-4.88v-1.44s-1.11-.7-4.3-.06c-3.19,.64-5.11-3.83-4.47-4.47s9.58-10.86,9.58-10.86c0,0-3.19-2.56-.64-4.47,2.56-1.92,3.37-5.81,3.37-5.81,0,0-4.65-1.21-5.29-3.13s3.19-2.56,6.39-6.39c3.19-3.83,4.24-4.96,4.24-4.96,0,0,.71-3.28,4.47-7.78,5-6,15-12,31-12s25,6,30,12Z" style="fill:none;"/></clipPath></defs><g id="bicolor_4"><g><path d="M213.6,234.36c0-3.19,6.39-7.03,10.86-11.5s4.94-7.52,4.94-7.52c.4-5.28-1.1-8.89-1.1-8.89,0,0,2.55-6.59,3.83-10.7,1.28-4.11,0-6.27,0-6.27-.71-4.31-3.83-11.34-3.83-11.34,0,0,1.27-3.83,1.91-8.12s0-7.58,0-7.58l-1.91-4.47s3.83-6.66,3.83-10.42-.64-14.12-1.92-19.87,1.92-7.51,1.92-12.78v-7.03s-1.92-3.19-1.92-7.03,7.67-10.22,10.86-17.95c2.09-5.05,.64-12.07,0-15.91l-3.19-8.94c-1.28-5.75-5.75-7.67-5.75-3.19s-6.47,.6-12.46,4.15c-6.03,3.58-8.46,9.7-9.39,11.34-.52,.92-1.14,1.78-1.86,2.55-2.2,2.39-6.73,4.27-8.87,10.7-2.24,6.71-1.61,8.85-1.11,11.33,.37,1.81-.24,3.65-1.58,4.91-.86,.81-1.81,1.89-2.65,3.26-1.52,2.5-2.37,7.68-2.74,10.5-.16,1.21-.6,2.35-1.26,3.38-1.21,1.89-3.15,5.58-3.84,10.69-1.04,7.67-1.52,8.94-1.52,8.94,0,0-4.4,38.65-4.4,45.04s33.15,52.7,33.15,52.7Z" style="fill:#ffe2bc;"/><g style="clip-path:url(#clippath);"><g><path d="M182.53,136.73c-2-4.04,16-12.04,27-7.04s26.12,19.07,22.71,25.17c-2.71,4.83-14.31-14.08-26.51-18.13-12.2-4.04-21.2,4.04-23.2,0Z" style="fill:#fdd29b;"/><path d="M181.14,154.72c1.39-7.04,22.26-6.16,38.39,9.96,16,16,18.98,32.96,14,39s-14.3-22.16-22-29c-9-8-31.77-12.93-30.39-19.96Z" style="fill:#fdd29b;"/><path d="M186.53,113.69c-2-9,19-10,29-8,11.93,2.39,21.53,20.94,19,26-3,6-11-13-20-17-12.19-5.42-27.31,2.09-28-1Z" style="fill:#fdd29b;"/><path d="M195.53,87.69c0-4,4.87-4.11,8.02-5.6,2.98-1.4,8.98-4.4,16.98-1.4,8.83,3.31,11.75,15.33,13.5,17.07s3.48,3.48,2.61,5.22-3.48,0-5.22-2.61c-1.08-1.62-8.42-10.64-13.88-12.69-8-3-22,4-22,0Z" style="fill:#fdd29b;"/></g></g><path d="M139.58,120.1s-33,12.03-47.99,12.57c-22.47,.8-40.19-5.2-40.19-5.2v1.28s-1.92,1.28-2.56,3.19l-1.92,2.56s-1.99,2.87-2.63,12.46c-.64,9.58,3.03,23.18,3.03,23.18l.88,3.33,.64,5.11-.07-.06s0,13.16,7.45,26.14c5.71,9.95,15.54,27.21,15.86,32.99,.32,5.78-1.02,15.21,1.92,18.19,2.87,2.92,9.26,3.56,13.1,2.92,3.83-.64,5.75-3.19,5.11-6.39-.91-4.56,0-7.03,0-7.03-.07-.32,.64,0,.64,0,0,0,.91,2.47,0,7.03-.64,3.19,1.28,5.75,5.11,6.39,3.83,.64,10.22,0,13.1-2.92,.93-.95,1.43-2.55,1.69-4.47l3.27,.2s1.98,3.04,7.09,2.8c5.11-.24,7.5,.01,7.5,.01l2.08-5.37c-.64,4.47,.64,7.97,1.28,9.09,.64,1.13,6.45,4.77,10.57,2.63,4.12-2.14,9.23-1.5,9.23-1.5,2.48-.32,7.71,1.5,7.71,1.5,7.07,.86,8.26-2.78,11.45-3.57,3.19-.78,11.5-4.37,11.5-4.37,1.84-.36,4.47-1.24,4.47-1.24,0,0,3.8-.89,8.3-1.28,5.54-.48,15.79-9.86,17.25-23,1.48-13.26-3.51-29.37-3.51-29.37-1.03-5.41-4.15-4.49-4.15-4.49,0,0-.32-12.93-2.56-18.53-3.83-9.58-7.26-12.84-10.22-14.05-3.9-1.6-7.03-13.07-7.03-13.07l-1.84-4.5s-4.75-9.47-9.65-14.37c-9.58-9.58-21.4-11.82-21.4-11.82h-4.08c-3.27-.23-8.82,2.75-9.98,3.16m-27.04,127.44c.07-3.43-.18-7.19-.03-10.06,.14-2.58,2.18-7.45,4.9-12.93l-4.88,22.98Z" style="fill:#ffe2bc;"/><g style="clip-path:url(#clippath-1);"><g><g><path d="M102.85,140.1c-1.07-.03-1.64-.53-1.66-1.04-.02-.51,.43-1.04,1.41-1.3,.59-.16,1.18-.32,1.77-.49,2.63-.76,5.21-1.62,7.71-2.6,2.5-.98,4.94-2.07,7.28-3.28,1.17-.61,2.31-1.26,3.43-1.93,.28-.17,.56-.34,.83-.52l.41-.26c.13-.09,.29-.18,.39-.26l.35-.25c.12-.08,.23-.16,.35-.25l.34-.27c.11-.09,.23-.17,.34-.28,.91-.77,1.8-1.66,2.65-2.61,.85-.95,1.68-1.97,2.48-3.01,.81-1.05,1.58-2.14,2.35-3.24,.77-1.11,1.53-2.23,2.27-3.37,1.49-2.28,2.94-4.63,4.39-6.99l.99-1.63c.53-.88,1.18-1.16,1.66-.97,.48,.18,.77,.86,.5,1.88-.16,.63-.34,1.26-.52,1.89-.81,2.73-1.81,5.41-2.97,8.03-.58,1.31-1.22,2.6-1.9,3.88-.69,1.27-1.42,2.53-2.23,3.76-.81,1.23-1.68,2.43-2.65,3.59-.97,1.16-2.03,2.28-3.25,3.3-.14,.13-.31,.25-.47,.38l-.48,.37c-.15,.13-.33,.24-.5,.36l-.51,.35c-.18,.12-.33,.21-.49,.31l-.48,.29c-.32,.2-.64,.38-.96,.56-1.29,.72-2.62,1.38-3.97,1.96-2.7,1.16-5.5,2.05-8.34,2.66-2.84,.61-5.72,.97-8.6,1.03-.65,0-1.29,0-1.94-.02Z" style="fill:#fdd29b;"/><path d="M121.92,150.61c-1.14,.04-1.78-.42-1.83-.93-.05-.51,.41-1.07,1.44-1.39,.62-.2,1.24-.41,1.85-.63,2.75-.97,5.41-2.09,7.95-3.38,2.54-1.29,4.96-2.74,7.22-4.36,1.12-.82,2.2-1.68,3.24-2.58,1.02-.92,2.01-1.87,2.93-2.87l.68-.77,.34-.39,.35-.42c.47-.56,.94-1.12,1.41-1.68l2.84-3.39c1.9-2.27,3.83-4.53,5.79-6.77,1.96-2.24,3.96-4.46,6.01-6.64l1.42-1.49c1.53-1.59,2.95-.57,1.9,1.38-.33,.61-.66,1.21-.99,1.81-1.47,2.62-3.03,5.19-4.65,7.71-1.62,2.52-3.31,5-5.09,7.43-.89,1.21-1.79,2.42-2.72,3.61-.46,.6-.94,1.19-1.42,1.77l-.36,.44c-.12,.15-.26,.3-.39,.46-.27,.3-.53,.61-.8,.91-1.1,1.18-2.28,2.29-3.51,3.32-1.24,1.01-2.55,1.94-3.9,2.79-2.71,1.68-5.59,3.01-8.56,3.99-2.97,.98-6.02,1.63-9.1,1.93-.69,.06-1.38,.11-2.07,.13Z" style="fill:#fdd29b;"/><path d="M124.85,170.46c-1.55,.34-2.57,.01-2.82-.54-.25-.56,.21-1.34,1.58-1.99l2.48-1.19c3.69-1.78,7.34-3.58,10.94-5.42,3.59-1.85,7.14-3.73,10.57-5.71l.65-.37,.64-.38,1.28-.75c.83-.51,1.69-1.01,2.5-1.54,1.66-1.03,3.26-2.11,4.82-3.22l1.16-.84c.38-.28,.75-.57,1.12-.86l.56-.43,.54-.44,.54-.44c.18-.15,.37-.29,.53-.45l1.03-.91c.18-.15,.33-.31,.5-.47l.49-.47c.16-.16,.33-.31,.49-.47l.46-.48,.46-.48c.08-.08,.16-.16,.23-.24l.22-.26,.87-1.02c.15-.17,.28-.35,.42-.53l.42-.54c.57-.71,1.09-1.48,1.63-2.23,.28-.37,.52-.77,.79-1.15l.78-1.16,.76-1.19,.38-.59,.37-.6c2-3.2,3.9-6.51,5.79-9.84l1.3-2.29c.69-1.23,1.56-1.67,2.19-1.46,.63,.21,1.02,1.1,.69,2.49-.21,.86-.43,1.72-.66,2.58-1.03,3.74-2.31,7.41-3.86,11.01l-.29,.68-.31,.67-.63,1.34c-.22,.45-.45,.89-.67,1.33-.23,.44-.45,.89-.7,1.32-.5,.88-.98,1.75-1.55,2.61l-.42,.65c-.14,.22-.27,.43-.43,.64l-.93,1.27-.24,.32c-.08,.1-.17,.21-.25,.31l-.52,.61-.52,.61c-.18,.2-.36,.39-.55,.58l-.55,.58c-.19,.19-.36,.39-.56,.57l-1.16,1.09c-.19,.19-.39,.35-.59,.53l-.6,.52-.6,.52-.62,.49c-.42,.33-.83,.66-1.25,.98l-1.28,.93c-1.72,1.22-3.49,2.37-5.31,3.43-.9,.54-1.83,1.04-2.75,1.55l-1.4,.73-.7,.36-.71,.35c-3.78,1.88-7.69,3.51-11.68,4.95-4,1.43-8.08,2.68-12.24,3.71-.93,.23-1.87,.44-2.81,.65Z" style="fill:#fdd29b;"/><path d="M194.23,131.03c.54-1.1,1.67-1.58,2.72-1.53,1.05,.05,2.03,.73,2.08,1.95,.02,.37,.03,.74,.03,1.1,0,.37,0,.74,0,1.1-.1,3.29-.72,6.56-1.76,9.81-1.05,3.24-2.58,6.46-4.66,9.57l-.38,.58c-.13,.19-.28,.38-.42,.58l-.86,1.15c-.55,.76-1.24,1.54-1.91,2.29-1.37,1.5-2.89,2.9-4.47,4.25-3.18,2.69-6.69,5.12-10.39,7.38-3.71,2.26-7.61,4.34-11.68,6.26-4.07,1.92-8.28,3.7-12.68,5.3-1.01,.36-2.02,.72-3.05,1.06-1.65,.56-3.03,.36-3.65-.2-.62-.55-.52-1.43,.72-2.29,0,0,20.91-12.01,24.07-14.29,3.15-2.29,6.21-4.59,9-6.94,1.38-1.18,2.72-2.36,3.93-3.56,.59-.61,1.18-1.18,1.73-1.84l.85-.96c.14-.16,.29-.32,.42-.48l.4-.49c2.17-2.61,4.12-5.34,5.93-8.16,1.81-2.82,1.47-6.71,3.01-9.67,.18-.33,.35-.66,.52-.99,.17-.33,.34-.66,.5-1Z" style="fill:#fdd29b;"/><path d="M204.51,151.86c0-1.1,.5-1.75,1.16-1.9,.66-.15,1.52,.32,1.94,1.48,.25,.7,.48,1.41,.67,2.13,.84,3.2,1.08,6.54,.71,9.89-.37,3.34-1.42,6.69-3.13,9.81-.22,.39-.43,.78-.67,1.16l-.73,1.14-.8,1.1c-.07,.09-.13,.18-.2,.27l-.22,.27-.43,.53c-.15,.18-.29,.36-.44,.53l-.46,.51-.47,.51-.24,.26-.27,.26-.54,.53c-.18,.18-.37,.33-.55,.49l-.56,.48-.56,.45c-1.51,1.18-3.07,2.2-4.65,3.15-1.58,.95-3.19,1.82-4.82,2.64-3.26,1.64-6.6,3.08-10.01,4.38-3.41,1.3-6.87,2.47-10.4,3.48-.81,.23-1.62,.45-2.44,.67-1.32,.35-2.23,.06-2.51-.46-.29-.53,.03-1.29,1.15-1.93l2.09-1.2c3.05-1.74,6.11-3.43,9.13-5.13,3.03-1.7,6.03-3.39,8.95-5.11,1.46-.86,2.89-1.73,4.27-2.63,1.38-.89,2.71-1.8,3.9-2.73l.45-.35,.41-.35c.13-.12,.28-.23,.41-.35l.37-.35,.19-.17,.19-.2,.39-.4,.39-.4,.37-.42,.37-.42,.18-.21c.06-.07,.11-.14,.17-.21l.69-.86,.65-.88c.22-.29,.41-.6,.62-.9,1.6-2.43,2.84-5.06,3.7-7.85,.87-2.78,1.37-5.71,1.53-8.7,.04-.67,.06-1.34,.05-2.01Z" style="fill:#fdd29b;"/><path d="M221.07,174.33c.82-1.07,1.58-1.39,2.03-1.14,.45,.25,.56,1.11-.02,2.36-.35,.76-.71,1.51-1.08,2.25-1.67,3.33-3.56,6.55-5.63,9.67-2.07,3.12-4.34,6.12-6.84,8.96-1.25,1.42-2.56,2.8-3.94,4.12-1.38,1.32-2.82,2.6-4.35,3.79-.39,.29-.78,.58-1.17,.86l-.59,.43c-.2,.14-.39,.29-.59,.41l-1.19,.79c-.4,.26-.79,.53-1.19,.77-.8,.49-1.6,.99-2.41,1.47-.81,.47-1.62,.93-2.43,1.39-3.26,1.81-6.57,3.46-9.93,5.01-3.36,1.55-6.76,2.99-10.22,4.31-.79,.3-1.59,.6-2.38,.88-1.28,.47-2.12,.3-2.34-.16-.22-.46,.16-1.21,1.3-1.94l2.13-1.36c3.1-1.97,6.22-3.89,9.33-5.8,3.11-1.92,6.21-3.81,9.27-5.74l2.28-1.45c.76-.49,1.49-.99,2.24-1.47,.38-.24,.73-.5,1.1-.75l1.09-.75c.19-.12,.36-.25,.53-.38l.52-.39c.35-.26,.7-.51,1.04-.77,1.37-1.06,2.7-2.2,4-3.38,1.3-1.18,2.58-2.41,3.82-3.68,2.49-2.54,4.9-5.2,7.24-7.94,2.35-2.74,4.63-5.57,6.87-8.44,.5-.64,1-1.29,1.5-1.93Z" style="fill:#fdd29b;"/><path d="M221.49,204.9c.69-.92,1.4-1.19,1.86-.96,.46,.23,.64,1.01,.19,2.12-.14,.34-.28,.67-.43,1.01l-.45,1c-1.37,2.95-2.99,5.78-4.8,8.49-1.82,2.71-3.84,5.3-6.06,7.73-2.24,2.42-4.67,4.66-7.28,6.72-1.37,1.05-2.78,1.97-4.21,2.82-1.43,.85-2.88,1.62-4.35,2.34-2.93,1.44-5.92,2.68-8.96,3.77-3.03,1.09-6.11,2.04-9.22,2.83-.71,.18-1.43,.35-2.15,.52-1.16,.26-1.89-.03-2.05-.51-.17-.48,.21-1.16,1.24-1.7l1.93-1.01c2.81-1.46,5.62-2.9,8.39-4.36,2.78-1.46,5.52-2.93,8.2-4.46,1.34-.77,2.65-1.55,3.93-2.36,1.27-.81,2.51-1.65,3.65-2.53,2.37-1.86,4.67-3.86,6.89-5.96,2.21-2.12,4.33-4.34,6.4-6.65,2.06-2.31,4.06-4.7,5.99-7.17l.65-.83,.64-.84Z" style="fill:#fdd29b;"/></g><path d="M69.18,140.1c1.06-.12,1.59-.66,1.57-1.17-.02-.51-.52-1-1.51-1.18-.6-.11-1.21-.22-1.81-.34-2.68-.54-5.32-1.19-7.9-1.95-2.58-.77-5.09-1.65-7.52-2.67-1.22-.51-2.41-1.06-3.58-1.65-.29-.15-.59-.29-.87-.45l-.43-.23c-.14-.08-.3-.15-.41-.22l-.37-.22c-.12-.07-.25-.14-.37-.22l-.37-.24c-.12-.08-.25-.16-.37-.25-.97-.69-1.93-1.51-2.86-2.39-.93-.88-1.84-1.82-2.72-2.8-.89-.98-1.75-2-2.61-3.03-.86-1.04-1.7-2.1-2.54-3.17-1.67-2.15-3.31-4.37-4.95-6.61l-1.12-1.54c-.6-.83-1.28-1.05-1.74-.83-.46,.22-.69,.92-.35,1.92,.21,.62,.44,1.23,.67,1.84,1.03,2.66,2.24,5.24,3.62,7.75,.69,1.26,1.43,2.49,2.21,3.71,.79,1.21,1.62,2.4,2.53,3.56,.91,1.16,1.88,2.28,2.94,3.35,1.06,1.07,2.21,2.1,3.51,3.03,.15,.12,.33,.23,.5,.34l.51,.33c.16,.11,.35,.21,.53,.32l.54,.3c.19,.11,.34,.18,.51,.27l.5,.25c.33,.17,.67,.32,1.01,.48,1.35,.61,2.72,1.16,4.12,1.63,2.79,.94,5.65,1.59,8.53,1.97,2.88,.37,5.78,.5,8.66,.32,.64-.04,1.29-.1,1.93-.17Z" style="fill:#fdd29b;"/><path d="M65.16,158.93c1.14-.1,1.71-.64,1.7-1.15-.02-.51-.54-1.01-1.6-1.2-.64-.12-1.28-.25-1.92-.39-2.85-.62-5.63-1.39-8.32-2.35-2.68-.96-5.27-2.09-7.71-3.41-1.22-.67-2.4-1.39-3.54-2.15-1.13-.78-2.23-1.6-3.27-2.48l-.77-.68-.39-.34-.4-.37c-.54-.5-1.08-.99-1.61-1.49l-3.25-3.01c-2.17-2.01-4.37-4.01-6.6-5.98-2.23-1.97-4.49-3.92-6.8-5.83l-1.6-1.3c-1.72-1.39-3-.19-1.71,1.61,.4,.56,.81,1.12,1.21,1.67,1.79,2.42,3.66,4.76,5.59,7.06,1.93,2.3,3.92,4.54,5.98,6.72,1.03,1.09,2.08,2.17,3.16,3.23,.53,.53,1.08,1.06,1.63,1.58l.41,.39c.14,.13,.3,.27,.45,.4,.3,.27,.6,.54,.91,.8,1.24,1.03,2.55,1.98,3.9,2.85,1.36,.85,2.77,1.61,4.22,2.28,2.9,1.33,5.93,2.28,8.99,2.88,3.07,.59,6.18,.86,9.27,.76,.69-.03,1.38-.07,2.07-.13Z" style="fill:#fdd29b;"/><path d="M64.38,180.05c1.19,.19,1.89-.15,1.99-.65,.1-.49-.36-1.13-1.46-1.6l-2-.86c-2.98-1.29-5.93-2.59-8.85-3.94-2.92-1.35-5.8-2.74-8.63-4.21l-.53-.27-.52-.28-1.05-.56c-.69-.39-1.39-.76-2.07-1.16-1.38-.78-2.71-1.6-4.03-2.45l-.98-.64c-.32-.22-.64-.44-.96-.66l-.48-.33-.46-.35-.46-.34c-.15-.11-.31-.23-.46-.35l-.9-.71c-.15-.12-.29-.24-.44-.37l-.43-.37c-.14-.12-.29-.24-.43-.37l-.41-.39-.41-.38c-.07-.06-.14-.13-.21-.19l-.2-.21-.79-.82c-.13-.13-.26-.28-.39-.43l-.39-.44c-.53-.57-1.03-1.19-1.54-1.8-.26-.3-.5-.62-.75-.94l-.75-.95-.74-.97-.37-.48-.36-.49c-1.95-2.61-3.85-5.32-5.75-8.05l-1.3-1.88c-.69-1.01-1.4-1.33-1.83-1.11-.43,.22-.58,1-.13,2.17,.28,.73,.58,1.45,.88,2.16,1.32,3.13,2.82,6.19,4.51,9.17l.32,.56,.33,.55,.66,1.11c.23,.37,.46,.73,.7,1.09,.24,.36,.46,.73,.72,1.09,.5,.72,.99,1.44,1.54,2.14l.4,.53c.14,.18,.27,.35,.42,.52l.88,1.03,.22,.26c.08,.08,.16,.16,.23,.25l.47,.49,.47,.49c.16,.16,.33,.31,.49,.46l.49,.46c.16,.15,.33,.31,.5,.45l1.01,.86c.17,.15,.34,.28,.52,.41l.52,.4,.52,.4,.53,.38c.35,.25,.71,.51,1.06,.76l1.08,.72c1.45,.93,2.92,1.8,4.42,2.59,.75,.41,1.5,.77,2.26,1.15l1.14,.54,.57,.27,.57,.25c3.06,1.36,6.18,2.51,9.33,3.49,3.15,.97,6.33,1.78,9.55,2.39,.72,.14,1.44,.26,2.16,.38Z" style="fill:#fdd29b;"/><g><path d="M44.19,177.41c-.53-.56-1.05-.58-1.38-.28-.33,.3-.43,.99-.06,1.78,.11,.24,.23,.48,.34,.71,.12,.24,.23,.47,.36,.7,1.08,2.08,2.33,4.01,3.71,5.82,1.38,1.8,2.91,3.47,4.59,4.92l.31,.28c.11,.09,.21,.17,.32,.26l.65,.51c.42,.34,.9,.67,1.36,.98,.93,.61,1.88,1.12,2.83,1.57,1.9,.9,3.84,1.56,5.77,2.06,1.94,.49,3.89,.82,5.84,1.01,1.95,.19,3.9,.24,5.86,.13,.45-.03,.89-.06,1.34-.1,.72-.07,1.11-.55,1.14-1.06,.03-.51-.29-1.05-.97-1.28l-1.27-.43c-1.83-.61-3.66-1.21-5.49-1.82-1.81-.61-3.61-1.22-5.38-1.87-1.77-.65-3.51-1.34-5.18-2.13-.83-.4-1.65-.81-2.43-1.27-.39-.24-.76-.46-1.16-.73l-.58-.39c-.1-.07-.2-.13-.29-.2l-.29-.21c-1.55-1.11-3.06-2.36-4.55-3.69-1.49-1.34-2.97-2.76-4.42-4.26-.16-.16-.33-.33-.49-.5-.16-.17-.32-.34-.48-.51Z" style="fill:#fdd29b;"/><path d="M53.88,197.33c-.43-.69-.89-.89-1.22-.72-.34,.17-.51,.8-.24,1.69,.17,.54,.35,1.07,.55,1.59,.89,2.32,2.09,4.5,3.55,6.43,1.46,1.93,3.19,3.6,5.13,4.86,.24,.15,.48,.32,.73,.46l.75,.42,.76,.37c.06,.03,.13,.06,.19,.09l.19,.08,.39,.16c.13,.05,.26,.11,.39,.16l.39,.14,.4,.13,.2,.07,.22,.06,.43,.11c.14,.04,.28,.06,.42,.09l.42,.08,.41,.05c1.09,.14,2.14,.15,3.17,.12,1.03-.04,2.05-.13,3.05-.27,2.01-.27,3.97-.7,5.9-1.23,1.94-.54,3.84-1.18,5.72-1.95,.43-.18,.86-.36,1.28-.55,.69-.31,.96-.84,.87-1.28-.08-.44-.51-.79-1.24-.75l-1.34,.08c-1.96,.12-3.9,.28-5.83,.42-1.93,.14-3.85,.28-5.74,.36-.95,.04-1.89,.07-2.81,.06-.92,0-1.84-.05-2.7-.16l-.32-.04-.31-.05c-.1-.02-.21-.03-.31-.06l-.29-.07-.14-.03-.16-.05-.32-.1-.32-.1-.32-.11-.32-.11-.16-.06c-.05-.02-.1-.04-.16-.06l-.62-.26-.62-.29c-.21-.1-.41-.21-.61-.32-1.62-.88-3.16-2.03-4.6-3.42-1.45-1.39-2.79-3.01-4.02-4.81-.28-.4-.54-.81-.8-1.23Z" style="fill:#fdd29b;"/><path d="M60.54,216.35c-.54-.31-.9-.2-1.01,.11-.11,.31,.05,.85,.55,1.35,.3,.3,.61,.6,.92,.89,1.38,1.29,2.81,2.44,4.29,3.45,1.48,1.02,3,1.89,4.57,2.58,.78,.35,1.58,.64,2.39,.89,.81,.24,1.63,.43,2.46,.54,.21,.02,.42,.04,.63,.06l.31,.02c.1,0,.21,.02,.31,.02h.62c.2,0,.41,.01,.61,0,.41-.02,.81-.03,1.22-.07,.4-.04,.81-.07,1.21-.12,1.61-.19,3.2-.49,4.78-.87,1.58-.38,3.16-.84,4.73-1.38,.36-.13,.72-.26,1.07-.39,.58-.22,.84-.63,.82-.98-.03-.35-.34-.64-.92-.63l-1.09,.02c-1.59,.04-3.17,.11-4.75,.19-1.58,.07-3.15,.15-4.71,.2l-1.17,.02c-.39,0-.77,0-1.16,0-.19,0-.38-.01-.57-.02l-.57-.02c-.1,0-.19-.01-.28-.02l-.28-.03c-.19-.02-.37-.03-.56-.05-.74-.1-1.49-.25-2.24-.44-.75-.19-1.5-.41-2.24-.68-1.5-.52-2.99-1.15-4.48-1.84-1.49-.69-2.97-1.46-4.46-2.27-.33-.18-.66-.36-.99-.55Z" style="fill:#fdd29b;"/><path d="M65.04,230.09c-.47-.32-.83-.22-.99,.11-.16,.32-.1,.89,.3,1.43,.12,.16,.24,.32,.37,.48l.37,.46c1.13,1.36,2.35,2.53,3.63,3.56,1.29,1.03,2.64,1.9,4.05,2.58,1.42,.67,2.89,1.16,4.41,1.46,.79,.14,1.58,.18,2.36,.16,.78-.01,1.56-.09,2.34-.2,1.55-.22,3.09-.6,4.62-1.08,1.53-.49,3.06-1.08,4.58-1.79,.35-.16,.69-.33,1.04-.51,.56-.28,.83-.75,.81-1.13-.01-.38-.3-.66-.85-.6l-1.03,.11c-1.5,.16-3,.33-4.48,.48-1.49,.15-2.96,.28-4.41,.34-.73,.03-1.45,.05-2.15,.02-.71-.02-1.4-.08-2.06-.19-1.38-.27-2.75-.64-4.1-1.13-1.35-.49-2.69-1.09-4.01-1.76-1.32-.67-2.63-1.43-3.92-2.25l-.43-.28-.43-.29Z" style="fill:#fdd29b;"/></g><g><path d="M132.17,183.84c.5-.44,.93-.35,1.17,.02,.24,.37,.24,1.07-.15,1.77-.12,.21-.24,.42-.36,.63-.12,.21-.25,.42-.37,.62-1.12,1.82-2.37,3.46-3.7,4.95-1.34,1.49-2.78,2.8-4.32,3.88l-.29,.21c-.1,.07-.2,.13-.29,.19l-.59,.37c-.39,.25-.81,.47-1.23,.68-.83,.4-1.67,.7-2.5,.96-1.67,.49-3.33,.73-4.97,.81-1.65,.08-3.29-.01-4.91-.24-1.62-.23-3.23-.59-4.83-1.1-.36-.12-.73-.25-1.09-.38-.58-.22-.85-.78-.81-1.29,.04-.51,.35-.97,.94-1.06l1.09-.15c1.57-.21,3.14-.42,4.72-.63,1.56-.21,3.11-.44,4.63-.71,1.53-.27,3.03-.58,4.49-1.01,.73-.22,1.45-.45,2.14-.74,.34-.15,.68-.29,1.03-.48l.52-.26c.09-.04,.18-.08,.26-.13l.26-.15c1.39-.77,2.78-1.68,4.16-2.68,1.38-1,2.75-2.1,4.11-3.27,.15-.13,.31-.26,.46-.39,.15-.13,.3-.26,.45-.4Z" style="fill:#fdd29b;"/><path d="M128.59,201.19c.38-.64,.76-.79,1.04-.58,.27,.21,.4,.86,.15,1.72-.15,.52-.32,1.03-.5,1.53-.81,2.23-1.87,4.26-3.14,6.03-1.27,1.77-2.76,3.24-4.4,4.28-.21,.12-.41,.26-.62,.37l-.63,.33-.64,.28c-.05,.02-.11,.05-.16,.07l-.16,.06-.33,.12c-.11,.04-.22,.08-.33,.11l-.33,.09-.33,.09-.17,.04-.18,.03-.36,.06c-.12,.02-.23,.02-.35,.04l-.35,.03h-.34c-.91,.02-1.78-.09-2.63-.24-.85-.16-1.69-.37-2.52-.62-1.65-.5-3.27-1.16-4.85-1.92-1.59-.76-3.15-1.63-4.68-2.62-.35-.23-.7-.46-1.05-.7-.56-.39-.77-.95-.68-1.39,.08-.43,.45-.73,1.05-.6l1.11,.24c1.62,.35,3.22,.73,4.81,1.1,1.59,.37,3.18,.73,4.75,1.03,.78,.15,1.56,.28,2.33,.38,.77,.1,1.52,.16,2.24,.16h.27l.26-.02c.08,0,.17,0,.25-.02l.24-.04,.12-.02,.13-.03,.27-.06,.27-.06,.26-.08,.26-.08,.13-.04s.09-.03,.13-.05l.52-.19,.52-.22c.17-.07,.34-.17,.51-.25,1.37-.69,2.68-1.66,3.92-2.89,1.24-1.22,2.41-2.69,3.48-4.35,.24-.37,.48-.75,.7-1.14Z" style="fill:#fdd29b;"/><path d="M121.3,220.66c.56-.22,.88-.09,.94,.2,.06,.29-.16,.75-.7,1.15-.33,.24-.65,.47-.98,.7-1.47,1.01-2.98,1.89-4.51,2.65-1.53,.76-3.08,1.38-4.66,1.84-.79,.23-1.58,.41-2.38,.55-.8,.13-1.6,.22-2.4,.23-.2,0-.4,0-.6-.01h-.3c-.1-.01-.2-.02-.3-.03l-.58-.06c-.19-.02-.39-.03-.58-.07-.38-.06-.76-.11-1.14-.18-.38-.07-.75-.15-1.13-.23-1.49-.33-2.96-.76-4.41-1.26-1.45-.5-2.88-1.06-4.28-1.71-.32-.15-.64-.3-.96-.46-.51-.25-.71-.65-.64-.96,.07-.31,.4-.54,.96-.47l1.03,.13c1.49,.2,2.98,.42,4.46,.64,1.48,.22,2.96,.45,4.42,.65l1.1,.14c.37,.04,.73,.08,1.1,.12,.18,.02,.36,.03,.54,.04l.54,.04c.09,0,.18,.01,.27,.01h.27c.18,0,.36,.01,.53,.02,.72,0,1.44-.07,2.18-.17,.73-.1,1.47-.22,2.21-.38,1.48-.31,2.98-.72,4.47-1.19,1.5-.47,3-1,4.51-1.57,.34-.13,.67-.26,1.01-.39Z" style="fill:#fdd29b;"/><path d="M115.86,231.74c.49-.29,.78-.19,.85,.11,.06,.3-.12,.82-.6,1.31-.15,.15-.29,.29-.44,.44l-.44,.42c-1.32,1.24-2.68,2.31-4.05,3.25-1.38,.93-2.78,1.72-4.18,2.34-1.41,.61-2.82,1.04-4.23,1.3-.73,.12-1.43,.15-2.11,.13-.68-.02-1.35-.1-2-.2-1.31-.22-2.57-.58-3.8-1.04-1.23-.46-2.43-1.02-3.59-1.68-.27-.15-.53-.31-.79-.48-.42-.26-.55-.7-.44-1.05,.1-.35,.42-.6,.89-.54l.88,.11c1.28,.16,2.55,.33,3.82,.48,1.27,.15,2.54,.28,3.8,.35,.63,.03,1.26,.06,1.89,.04,.63-.01,1.25-.06,1.86-.16,1.28-.23,2.57-.57,3.88-1,1.31-.44,2.62-.98,3.95-1.59,1.32-.61,2.66-1.29,3.99-2.04l.45-.25,.45-.26Z" style="fill:#fdd29b;"/></g></g></g><g style="clip-path:url(#clippath-2);"><path d="M91.5,208.27c-5,0-15-7-25-16s-22-16-23-44,10-27,10-27c0,0,23,8,37,7s46-8,46-8c0,0,13,14,11,30s-16,34-25,41-26,17-31,17Z" style="fill:#fff;"/></g><path d="M120.63,73.37c3.72,4.46,4.38,7.95,4.38,7.95,0,0,.81,.96,4,4.79,3.19,3.83,7.03,4.47,6.39,6.39-.64,1.92-5.29,3.13-5.29,3.13,0,0,.82,3.9,3.37,5.81,2.56,1.92-.64,4.47-.64,4.47,0,0,5.31,6.2,5.95,6.84,0,0,4.94,3.83,4.4,4.65-2.05,3.1-1.89,.94-2.59,1.29-1.03,.52-27.93,14.74-49.65,14.74s-43.23-5.8-43.23-5.8c0,0-1.45-3.15-1.45-4.88v-1.44s-1.11-.7-4.3-.06c-3.19,.64-5.11-3.83-4.47-4.47s9.58-10.86,9.58-10.86c0,0-3.19-2.56-.64-4.47,2.56-1.92,3.37-5.81,3.37-5.81,0,0-4.65-1.21-5.29-3.13s3.19-2.56,6.39-6.39c3.19-3.83,4.24-4.96,4.24-4.96,0,0,.71-3.28,4.47-7.78,5-6,15-12,31-12s25,6,30,12Z" style="fill:#fff;"/><g style="clip-path:url(#clippath-3);"><path d="M124.65,72.12c-3.15-3.85-10.44-9.5-15.15-10.85s-12.53-3-18-3-12.19,.82-18,3c-8,3-18.13,16.31-18.13,16.31,0,0-1,2.33-4.33,6.32-3.33,3.99-7.32,4.66-6.66,6.66,.67,2,5.51,3.26,5.51,3.26,0,0-.85,4.06-3.51,6.06-2.66,2,.67,4.66,.67,4.66,0,0-9.32,10.65-9.98,11.31s1.33,5.32,4.66,4.66c3.33-.67,4.48,.06,4.48,.06v1.51c0,1.81,.52,3.57,1.51,5.09h0s14.18-8.91,19.28-12.31c7.99-5.32,2-9.98,10.65-16.64,3.46-2.66,8.65-9.32,9.98-11.98,.47-.93,2.16-2.91,3.18-3.14,.48-.11,.92-.19,1.16-.19,.29,0,1,.12,1.73,.26,1.04,.2,2.77,2.12,3.25,3.06,1.33,2.66,6.43,10.18,9.98,12.65,8.65,5.99,5.99,11.98,12.65,17.3,4.79,3.83,15.66,9.98,15.66,9.98l.49,1h0c.98-1.51,1.51-3.28,1.51-5.09v-1.51s1.16-.73,4.48-.06c3.33,.67,5.32-3.99,4.66-4.66s-9.98-11.31-9.98-11.31c0,0,3.33-2.66,.67-4.66-2.66-2-3.51-6.06-3.51-6.06,0,0,4.84-1.26,5.51-3.26s-3.33-2.66-6.66-6.66c-3.33-3.99-4.48-6.32-4.48-6.32,0,0-.12-1.61-3.26-5.46Z" style="fill:#ffe2bc;"/></g><g><g><path d="M78.86,74.29c-.21-.32,.22-1.33,.72-1.28,.14,.02,.29,.04,.43,.07,.64,.14,1.22,.38,1.76,.67,.54,.28,1.02,.61,1.47,.96,.22,.17,.44,.35,.64,.54,.15,.12,.56,.54,.73,.79,.82,1.13,1.2,2.2,1.44,3.36,.11,.57,.18,1.16,.18,1.76,0,.14,0,.27-.01,.42-.02,.46-1.04,.84-1.36,.55-.1-.1-.2-.19-.29-.28-.42-.41-.79-.82-1.13-1.24-.68-.82-1.28-1.72-1.75-2.36-.15-.2-.12-.17-.36-.44-.18-.2-.35-.41-.52-.62-.33-.42-.64-.84-.93-1.27-.24-.38-.51-.81-.84-1.32-.06-.1-.13-.2-.19-.31Z" style="fill:#fdd29b;"/><path d="M79.91,86.66c.26,.78-.66,1.37-1.26,.76-.18-.19-.35-.38-.52-.57-.76-.86-1.46-1.77-2.09-2.76-.31-.49-.61-1.01-.87-1.57-.14-.27-.26-.58-.37-.88-.09-.3-.19-.59-.28-.88-.36-1.18-.55-2.39-.61-3.59-.13-2.41,.23-4.76,.89-6.96,.33-1.1,.74-2.17,1.17-3.19,.1-.22,.19-.45,.29-.68,.26-.63,1.37-.78,1.45,.21,.02,.28,.02,.55,.03,.81,0,1.16-.06,2.25-.1,3.34-.09,2.16-.19,4.25-.07,6.27,.04,1.01,.15,2,.32,2.97,.04,.24,.09,.49,.13,.73,.05,.23,.1,.45,.17,.69,.13,.48,.28,.97,.45,1.48,.33,.97,.67,1.98,1.04,3.1,.08,.23,.15,.47,.23,.71Z" style="fill:#fdd29b;"/></g><g><path d="M98.66,74.99c.2-.25,1.3-.34,1.46,.1,.05,.13,.09,.25,.12,.38,.15,.58,.15,1.18,.08,1.75-.16,1.14-.65,2.14-1.31,2.99-.33,.42-.74,.83-1.17,1.15-.43,.32-.88,.58-1.37,.78-.48,.2-.98,.35-1.51,.43-.12,.01-.24,.03-.37,.04-.41,.04-.96-.91-.79-1.23,.06-.11,.11-.21,.16-.31,.24-.44,.49-.83,.74-1.2,.25-.37,.5-.71,.74-1.03,.25-.33,.48-.61,.7-.9,.48-.61,.99-1.2,1.52-1.78,.27-.29,.54-.59,.81-.93,.06-.07,.13-.15,.19-.23Z" style="fill:#fdd29b;"/><path d="M100.97,87.33c-.53,.67-1.5,.17-1.33-.62,.05-.25,.1-.49,.15-.72,.23-1.08,.49-2.13,.74-3.18,.27-1.08,.52-2.11,.76-3.11,.13-.52,.26-1.04,.32-1.45,.07-.45,.14-.91,.17-1.4,.16-1.94,.06-4.05,.04-6.2-.01-1.08-.03-2.18,.03-3.32,.02-.26,.03-.52,.06-.8,.11-.94,1.22-.83,1.46-.16,.09,.23,.18,.47,.26,.69,.39,1.03,.75,2.09,1.04,3.18,.58,2.18,.95,4.46,.76,6.9-.04,.61-.14,1.23-.29,1.86-.16,.66-.35,1.19-.54,1.72-.4,1.07-.87,2.1-1.4,3.1-.53,1-1.12,1.97-1.79,2.89-.15,.2-.3,.4-.46,.61Z" style="fill:#fdd29b;"/></g><g><path d="M52.74,94.81c-.39-.43,.27-1.32,.68-1.3,.14,0,.27,0,.4,.01,.59,.02,1.16,.02,1.72,0,1.1-.03,2.17-.08,3.18-.17,1-.09,1.92-.27,3.17-.5,.62-.11,1.31-.2,2.01-.19,.16,0,.32,.01,.48,.03,.52,.05,.75,1.12,.4,1.41-.11,.09-.22,.19-.33,.27-.48,.39-.93,.77-1.45,1.13-1.01,.74-2.46,1.37-3.93,1.49-1.45,.12-2.87-.1-4.18-.68-.65-.3-1.26-.68-1.79-1.16-.12-.11-.23-.23-.34-.35Z" style="fill:#fdd29b;"/><path d="M53.83,104.26c-.56-.18-.54-1.27-.04-1.47,.16-.06,.31-.12,.47-.18,.69-.26,1.38-.48,2.06-.69,1.36-.41,2.7-.74,4.02-1.04,.63-.14,1.26-.27,1.93-.42,.59-.14,1.24-.32,1.9-.5,.67-.18,1.35-.37,2.07-.54,.16-.04,.33-.07,.5-.11,.53-.12,1.16,.77,.79,1.23-.12,.14-.23,.28-.34,.41-.52,.59-1.09,1.11-1.71,1.58-.63,.47-1.3,.89-2.07,1.22-.82,.34-1.49,.52-2.26,.7-1.49,.33-3.02,.45-4.54,.32-.76-.06-1.52-.18-2.27-.37-.16-.05-.33-.09-.5-.14Z" style="fill:#fdd29b;"/></g><g><path d="M125.6,93.51c.41-.01,1.06,.87,.68,1.3-.11,.12-.23,.24-.34,.35-.53,.49-1.14,.87-1.79,1.16-1.31,.59-2.73,.81-4.18,.68-1.47-.12-2.92-.75-3.93-1.49-.52-.37-.98-.74-1.45-1.13-.11-.09-.22-.18-.33-.27-.35-.29-.13-1.36,.4-1.41,.16-.02,.32-.02,.48-.03,.7-.02,1.39,.08,2.01,.19,1.25,.23,2.17,.42,3.17,.5,1.01,.09,2.08,.14,3.18,.17,.55,.01,1.12,.01,1.72,0,.13,0,.26,0,.4-.01Z" style="fill:#fdd29b;"/><path d="M125.23,102.79c.5,.2,.52,1.29-.04,1.47-.17,.05-.34,.1-.5,.14-.75,.19-1.51,.31-2.27,.37-1.52,.13-3.04,0-4.54-.32-.77-.19-1.43-.36-2.26-.7-.77-.33-1.45-.75-2.07-1.22-.62-.47-1.2-.99-1.71-1.58-.11-.13-.23-.27-.34-.41-.37-.46,.26-1.35,.79-1.23,.17,.04,.33,.08,.5,.11,.72,.17,1.4,.36,2.07,.54,.66,.18,1.31,.36,1.9,.5,.67,.15,1.3,.28,1.93,.42,1.33,.3,2.67,.63,4.02,1.04,.68,.21,1.36,.43,2.06,.69,.15,.06,.31,.12,.47,.18Z" style="fill:#fdd29b;"/></g></g><path d="M58.63,78.37s-3.38-5.53-1.47-15.27c1.74-8.82,2.56-11.98,5.11-12.62s10.22,7.67,11.5,9.58l3.83,5.75-18.97,12.55Z" style="fill:#ffe2bc;"/><path d="M121.63,78.37s3.8-7.53,1.88-17.27c-1.74-8.82-2.56-11.98-5.11-12.62-2.56-.64-10.22,7.67-11.5,9.58l-3.83,5.75,18.56,14.55Z" style="fill:#ffe2bc;"/></g><g><g><path d="M48.49,180.28s0,13.16,7.45,26.14c5.71,9.95,15.54,27.21,15.86,32.99,.32,5.78-1.02,15.21,1.92,18.19,2.87,2.92,9.26,3.56,13.1,2.92s5.75-3.19,5.11-6.39c-.91-4.56,0-7.03,0-7.03" style="fill:none; stroke:#000; stroke-linecap:round; stroke-linejoin:round; stroke-width:3.8px;"/><path d="M90.01,211.32s1.92,6.39,1.92,12.78v15.97" style="fill:none; stroke:#000; stroke-linecap:round; stroke-linejoin:round; stroke-width:3.8px;"/></g><path d="M48.49,133.39s-3.83,5.75-4.47,15.33,3.03,23.18,3.03,23.18" style="fill:none; stroke:#000; stroke-linecap:round; stroke-linejoin:round; stroke-width:3.8px;"/><g><path d="M136,180.28s0,13.16-7.45,26.14c-5.71,9.95-15.54,27.21-15.86,32.99-.32,5.78,1.02,15.21-1.92,18.19-2.87,2.92-9.26,3.56-13.1,2.92s-5.75-3.19-5.11-6.39c.91-4.56,0-7.03,0-7.03" style="fill:none; stroke:#000; stroke-linecap:round; stroke-linejoin:round; stroke-width:3.8px;"/><path d="M94.48,211.32s-1.92,6.39-1.92,12.78v15.97" style="fill:none; stroke:#000; stroke-linecap:round; stroke-linejoin:round; stroke-width:3.8px;"/></g><g><path d="M51.52,169.99s-1.76,4.29,1.44,10.04c1.75,3.15,2.98,4.72,2.98,4.72" style="fill:none; stroke:#000; stroke-linecap:round; stroke-linejoin:round; stroke-width:3.8px;"/><path d="M61.32,180.28s-1.33,6.77,3.14,10.6,5.43,4.83,5.43,4.83" style="fill:none; stroke:#000; stroke-linecap:round; stroke-linejoin:round; stroke-width:3.8px;"/><path d="M76.81,191.01s-.85,3.71,1.06,8.18c1.77,4.12,8.13,7.23,8.13,7.23" style="fill:none; stroke:#000; stroke-linecap:round; stroke-linejoin:round; stroke-width:3.8px;"/></g><g><path d="M135.96,169.11s1.84,4.39-1.51,10.28c-1.84,3.22-3.13,4.83-3.13,4.83" style="fill:none; stroke:#000; stroke-linecap:round; stroke-linejoin:round; stroke-width:3.8px;"/><path d="M125.68,179.65s1.4,6.93-3.3,10.86-5.7,4.95-5.7,4.95" style="fill:none; stroke:#000; stroke-linecap:round; stroke-linejoin:round; stroke-width:3.8px;"/><path d="M109.41,190.64s.89,3.79-1.12,8.37c-1.86,4.22-8.54,7.4-8.54,7.4" style="fill:none; stroke:#000; stroke-linecap:round; stroke-linejoin:round; stroke-width:3.8px;"/></g><path d="M154.85,117.1s11.82,2.24,21.4,11.82c4.9,4.9,11.5,17.89,11.5,17.89" style="fill:none; stroke:#000; stroke-linecap:round; stroke-linejoin:round; stroke-width:3.8px;"/><path d="M146.74,150.73s.52,5.02,0,8.53c-.52,3.51-3.12,5.89-3.12,5.89" style="fill:none; stroke:#000; stroke-linecap:round; stroke-linejoin:round; stroke-width:3.8px;"/><path d="M185.19,136.58s.48-1.28,1.52-8.94c.69-5.11,2.63-8.8,3.84-10.69,.66-1.02,1.1-2.17,1.26-3.38,.37-2.82,1.23-8,2.74-10.5,.83-1.37,1.79-2.46,2.65-3.26,1.34-1.26,1.95-3.11,1.58-4.91-.5-2.47-1.13-4.62,1.11-11.33,2.14-6.43,6.67-8.31,8.87-10.7,.72-.78,1.34-1.63,1.86-2.55,.92-1.64,3.35-7.76,9.39-11.34,5.99-3.55,12.46,.32,12.46-4.15s4.47-2.56,5.75,3.19" style="fill:none; stroke:#000; stroke-linecap:round; stroke-linejoin:round; stroke-width:3.8px;"/><path d="M241.41,66.96c.64,3.83,2.09,10.85,0,15.91-3.19,7.73-10.86,14.12-10.86,17.95s1.92,7.03,1.92,7.03" style="fill:none; stroke:#000; stroke-linecap:round; stroke-linejoin:round; stroke-width:3.8px;"/><path d="M232.46,114.87c0,5.27-3.19,7.03-1.92,12.78,1.28,5.75,1.92,16.11,1.92,19.87s-3.83,10.42-3.83,10.42" style="fill:none; stroke:#000; stroke-linecap:round; stroke-linejoin:round; stroke-width:3.8px;"/><path d="M230.55,162.41s.64,3.29,0,7.58-1.91,8.12-1.91,8.12" style="fill:none; stroke:#000; stroke-linecap:round; stroke-linejoin:round; stroke-width:3.8px;"/><path d="M232.46,189.44s1.28,2.16,0,6.27c-1.28,4.11-3.83,10.7-3.83,10.7" style="fill:none; stroke:#000; stroke-linecap:round; stroke-linejoin:round; stroke-width:3.8px;"/><path d="M229.73,215.3s-.47,3.05-4.94,7.52c-4.47,4.47-10.86,8.3-10.86,11.5" style="fill:none; stroke:#000; stroke-linecap:round; stroke-linejoin:round; stroke-width:3.83px;"/><path d="M194.77,160.86c1.92,2.56,6.39,4.47,10.22,14.05,2.24,5.6,2.56,18.53,2.56,18.53" style="fill:none; stroke:#000; stroke-linecap:round; stroke-linejoin:round; stroke-width:3.8px;"/><path d="M211.7,197.93s4.99,16.11,3.51,29.37c-1.46,13.14-11.7,22.52-17.25,23-4.5,.39-8.3,1.28-8.3,1.28" style="fill:none; stroke:#000; stroke-linecap:round; stroke-linejoin:round; stroke-width:3.8px;"/><path d="M185.19,252.81s-8.3,3.58-11.5,4.37c-3.19,.78-4.38,4.43-11.45,3.57" style="fill:none; stroke:#000; stroke-linecap:round; stroke-linejoin:round; stroke-width:3.8px;"/><path d="M146.97,241.27s-12.88,3.27-13.52,7.75,.64,7.97,1.28,9.09,6.45,4.77,10.57,2.63c4.12-2.14,9.23-1.5,9.23-1.5" style="fill:none; stroke:#000; stroke-linecap:round; stroke-linejoin:round; stroke-width:3.83px;"/><path d="M116.78,251.57s1.98,3.04,7.09,2.8c5.11-.24,7.5,.01,7.5,.01" style="fill:none; stroke:#000; stroke-linecap:round; stroke-linejoin:round; stroke-width:3.8px;"/><path d="M56.92,75.33s-1.92-4.47,0-14.21c1.74-8.82,2.56-11.98,5.11-12.62,2.56-.64,10.22,7.67,11.5,9.58l3.83,5.75" style="fill:none; stroke:#000; stroke-linecap:round; stroke-linejoin:round; stroke-width:3.8px;"/><path d="M123.75,75.33s1.92-4.47,0-14.21c-1.74-8.82-2.56-11.98-5.11-12.62-2.56-.64-10.22,7.67-11.5,9.58l-3.83,5.75" style="fill:none; stroke:#000; stroke-linecap:round; stroke-linejoin:round; stroke-width:3.8px;"/><path d="M74.52,65s5.55-2.55,16.45-2.55,15.7,2.55,15.7,2.55" style="fill:none; stroke:#000; stroke-linecap:round; stroke-linejoin:round; stroke-width:3.8px;"/><path d="M55.5,81.33s-.62,.96-3.82,4.79-7.03,4.47-6.39,6.39,5.29,3.13,5.29,3.13c0,0-.82,3.9-3.37,5.81-2.56,1.92,.64,4.47,.64,4.47,0,0-8.94,10.22-9.58,10.86s1.28,5.11,4.47,4.47c3.19-.64,4.3,.06,4.3,.06v1.44c0,1.73,.5,3.43,1.45,4.88h0" style="fill:none; stroke:#000; stroke-linecap:round; stroke-linejoin:round; stroke-width:3.8px;"/><path d="M132.96,127.64h0c.94-1.45,1.45-3.15,1.45-4.88v-1.44s1.11-.7,4.3-.06c3.19,.64,5.11-3.83,4.47-4.47s-9.58-10.86-9.58-10.86c0,0,3.19-2.56,.64-4.47-2.56-1.92-3.37-5.81-3.37-5.81,0,0,4.65-1.21,5.29-3.13,.64-1.92-3.19-2.56-6.39-6.39-3.19-3.83-4-4.79-4-4.79" style="fill:none; stroke:#000; stroke-linecap:round; stroke-linejoin:round; stroke-width:3.8px;"/></g></g></svg>