<?xml version="1.0" encoding="UTF-8"?><svg id="substantial" xmlns="http://www.w3.org/2000/svg" xmlns:xlink="http://www.w3.org/1999/xlink" viewBox="0 0 280 280"><defs><clipPath id="clippath"><path d="M139.6,120.1s-33,12.03-47.99,12.57c-22.47,.8-40.19-5.2-40.19-5.2v1.28s-1.92,1.28-2.56,3.19l-1.92,2.56s-1.99,2.87-2.63,12.46c-.64,9.58,3.03,23.18,3.03,23.18l.88,3.33,.64,5.11-.07-.06s0,13.16,7.45,26.14c5.71,9.95,15.54,27.21,15.86,32.99,.32,5.78-1.02,15.21,1.92,18.19,2.87,2.92,9.26,3.56,13.1,2.92,3.83-.64,5.75-3.19,5.11-6.39-.91-4.56,0-7.03,0-7.03-.07-.32,.64,0,.64,0,0,0,.91,2.47,0,7.03-.64,3.19,1.28,5.75,5.11,6.39,3.83,.64,10.22,0,13.1-2.92,.93-.95,1.43-2.55,1.69-4.47l3.27,.2s1.98,3.04,7.09,2.8c5.11-.24,7.5,.01,7.5,.01l2.08-5.37c-.64,4.47,.64,7.97,1.28,9.09,.64,1.13,6.45,4.77,10.57,2.63,4.12-2.14,9.23-1.5,9.23-1.5,2.48-.32,7.71,1.5,7.71,1.5,7.07,.86,8.26-2.78,11.45-3.57,3.19-.78,11.5-4.37,11.5-4.37,1.84-.36,4.47-1.24,4.47-1.24,0,0,3.8-.89,8.3-1.28,5.54-.48,15.79-9.86,17.25-23,1.48-13.26-3.51-29.37-3.51-29.37-1.03-5.41-4.15-4.49-4.15-4.49,0,0-.32-12.93-2.56-18.53-3.83-9.58-7.26-12.84-10.22-14.05-3.9-1.6-7.03-13.07-7.03-13.07l-1.84-4.5s-4.75-9.47-9.65-14.37c-9.58-9.58-21.4-11.82-21.4-11.82h-4.08c-3.27-.23-10.43,3.01-10.43,3.01Zm-26.58,127.59c.07-3.43-.18-7.19-.03-10.06,.14-2.58,2.18-7.45,4.9-12.93l-4.88,22.98Z" style="fill:none;"/></clipPath><clipPath id="clippath-1"><path d="M120.65,73.37c3.72,4.46,4.38,7.95,4.38,7.95,0,0,.81,.96,4,4.79,3.19,3.83,7.03,4.47,6.39,6.39-.64,1.92-5.29,3.13-5.29,3.13,0,0,.82,3.9,3.37,5.81,2.56,1.92-.64,4.47-.64,4.47,0,0,5.31,6.2,5.95,6.84,0,0,4.94,3.83,4.4,4.65-2.05,3.1-1.89,.94-2.59,1.29-1.03,.52-27.93,14.74-49.65,14.74s-43.23-5.8-43.23-5.8c0,0-1.45-3.15-1.45-4.88v-1.44s-1.11-.7-4.3-.06c-3.19,.64-5.11-3.83-4.47-4.47s9.58-10.86,9.58-10.86c0,0-3.19-2.56-.64-4.47,2.56-1.92,3.37-5.81,3.37-5.81,0,0-4.65-1.21-5.29-3.13s3.19-2.56,6.39-6.39c3.19-3.83,4.24-4.96,4.24-4.96,0,0,.71-3.28,4.47-7.78,5-6,15-12,31-12s25,6,30,12Z" style="fill:none;"/></clipPath></defs><g id="bicolor_3"><g><path d="M213.62,234.36c0-3.19,6.39-7.03,10.86-11.5s4.94-7.52,4.94-7.52c.4-5.28-1.1-8.89-1.1-8.89,0,0,2.55-6.59,3.83-10.7,1.28-4.11,0-6.27,0-6.27-.71-4.31-3.83-11.34-3.83-11.34,0,0,1.27-3.83,1.91-8.12s0-7.58,0-7.58l-1.91-4.47s3.83-6.66,3.83-10.42-.64-14.12-1.92-19.87,1.92-7.51,1.92-12.78v-7.03s-1.92-3.19-1.92-7.03,7.67-10.22,10.86-17.95c2.09-5.05,.64-12.07,0-15.91l-3.19-8.94c-1.28-5.75-5.75-7.67-5.75-3.19s-6.47,.6-12.46,4.15c-6.03,3.58-8.46,9.7-9.39,11.34-.52,.92-1.14,1.78-1.86,2.55-2.2,2.39-6.73,4.27-8.87,10.7-2.24,6.71-1.61,8.85-1.11,11.33,.37,1.81-.24,3.65-1.58,4.91-.86,.81-1.81,1.89-2.65,3.26-1.52,2.5-2.37,7.68-2.74,10.5-.16,1.21-.6,2.35-1.26,3.38-1.21,1.89-3.15,5.58-3.84,10.69-1.04,7.67-1.52,8.94-1.52,8.94,0,0-4.4,38.65-4.4,45.04s33.15,52.7,33.15,52.7Z" style="fill:#666;"/><path d="M139.6,120.1s-33,12.03-47.99,12.57c-22.47,.8-40.19-5.2-40.19-5.2v1.28s-1.92,1.28-2.56,3.19l-1.92,2.56s-1.99,2.87-2.63,12.46c-.64,9.58,3.03,23.18,3.03,23.18l.88,3.33,.64,5.11-.07-.06s0,13.16,7.45,26.14c5.71,9.95,15.54,27.21,15.86,32.99,.32,5.78-1.02,15.21,1.92,18.19,2.87,2.92,9.26,3.56,13.1,2.92,3.83-.64,5.75-3.19,5.11-6.39-.91-4.56,0-7.03,0-7.03-.07-.32,.64,0,.64,0,0,0,.91,2.47,0,7.03-.64,3.19,1.28,5.75,5.11,6.39,3.83,.64,10.22,0,13.1-2.92,.93-.95,1.43-2.55,1.69-4.47l3.27,.2s1.98,3.04,7.09,2.8c5.11-.24,7.5,.01,7.5,.01l2.08-5.37c-.64,4.47,.64,7.97,1.28,9.09,.64,1.13,6.45,4.77,10.57,2.63,4.12-2.14,9.23-1.5,9.23-1.5,2.48-.32,7.71,1.5,7.71,1.5,7.07,.86,8.26-2.78,11.45-3.57,3.19-.78,11.5-4.37,11.5-4.37,1.84-.36,4.47-1.24,4.47-1.24,0,0,3.8-.89,8.3-1.28,5.54-.48,15.79-9.86,17.25-23,1.48-13.26-3.51-29.37-3.51-29.37-1.03-5.41-4.15-4.49-4.15-4.49,0,0-.32-12.93-2.56-18.53-3.83-9.58-7.26-12.84-10.22-14.05-3.9-1.6-7.03-13.07-7.03-13.07l-1.84-4.5s-4.75-9.47-9.65-14.37c-9.58-9.58-21.4-11.82-21.4-11.82h-4.08c-3.27-.23-8.82,2.75-9.98,3.16m-27.04,127.44c.07-3.43-.18-7.19-.03-10.06,.14-2.58,2.18-7.45,4.9-12.93l-4.88,22.98Z" style="fill:#fff;"/><g style="clip-path:url(#clippath);"><path d="M118.53,222.27c.72,2.55-5.97,18.72-6,20-.13,6.13-.88,17.71-8,19-9.99,1.81-6.61-3-12-3s-3.14,2.03-8,3c-5.4,1.08-13,.07-13-6,0-19-6-31-6-31,0,0,9.51-.92,15,0,6,1,9.22,2,12,2s8.36-2.29,12-3c5.13-1,14-1,14-1Z" style="fill:#fff;"/><path d="M91.53,208.27c-5,0-15-7-25-16s-22-16-23-44,10-27,10-27c0,0,23,8,37,7s46-8,46-8c0,0,13,14,11,30s-16,34-25,41-26,17-31,17Z" style="fill:#fff;"/><path d="M161.53,243.27s-17.38-1.11-22.19,.94c-4.81,2.06-7.35,4.36-6.58,10.21,.77,5.85,8.06,4.84,8.06,4.84,0,0,28.26,1.8,33.99,.4,5.73-1.39,14.27-7.29,18-10.34,3.73-3.05-4.27-14.05-14.27-14.05s-13,6-17,8Z" style="fill:#fff;"/><path d="M156.77,117.48s11.82,2.24,21.4,11.82c4.9,4.9,12.88,17.88,12.88,17.88,0,0,23.95,34.79,26.48,43.09,7,23-7.6,61.39-21,59-28-5-23-23-35-31-11.19-7.46-14,5-24-5s-1.2-15.62-.88-23.45c.32-7.82,1.6-20.6,1.6-20.6,0,0,7.67-3.83,10.22-15.97,4.35-20.67-2.01-28.11-3.88-30.34s.52-5.75,.52-5.75c0,0,5.28-1.6,11.67,.32Z" style="fill:#666;"/></g><path d="M120.65,73.37c3.72,4.46,4.38,7.95,4.38,7.95,0,0,.81,.96,4,4.79,3.19,3.83,7.03,4.47,6.39,6.39-.64,1.92-5.29,3.13-5.29,3.13,0,0,.82,3.9,3.37,5.81,2.56,1.92-.64,4.47-.64,4.47,0,0,5.31,6.2,5.95,6.84,0,0,4.94,3.83,4.4,4.65-2.05,3.1-1.89,.94-2.59,1.29-1.03,.52-27.93,14.74-49.65,14.74s-43.23-5.8-43.23-5.8c0,0-1.45-3.15-1.45-4.88v-1.44s-1.11-.7-4.3-.06c-3.19,.64-5.11-3.83-4.47-4.47s9.58-10.86,9.58-10.86c0,0-3.19-2.56-.64-4.47,2.56-1.92,3.37-5.81,3.37-5.81,0,0-4.65-1.21-5.29-3.13s3.19-2.56,6.39-6.39c3.19-3.83,4.24-4.96,4.24-4.96,0,0,.71-3.28,4.47-7.78,5-6,15-12,31-12s25,6,30,12Z" style="fill:#fff;"/><g style="clip-path:url(#clippath-1);"><path d="M123.67,73.12c-3.15-3.85-10.44-9.5-15.15-10.85s-12.53-3-18-3-12.19,.82-18,3c-8,3-18.13,16.31-18.13,16.31,0,0-1,2.33-4.33,6.32s-7.32,4.66-6.66,6.66c.67,2,5.51,3.26,5.51,3.26,0,0-.85,4.06-3.51,6.06-2.66,2,.67,4.66,.67,4.66,0,0-9.32,10.65-9.98,11.31-.67,.67,1.33,5.32,4.66,4.66,3.33-.67,4.48,.06,4.48,.06v1.51c0,1.81,.52,3.57,1.51,5.09h0s14.18-8.91,19.28-12.31c7.99-5.32,2-9.98,10.65-16.64,3.46-2.66,8.65-9.32,9.98-11.98,.47-.93,2.16-2.91,3.18-3.14,.48-.11,.92-.19,1.16-.19,.29,0,1,.12,1.73,.26,1.04,.2,2.77,2.12,3.25,3.06,1.33,2.66,6.43,10.18,9.98,12.65,8.65,5.99,5.99,11.98,12.65,17.3,4.79,3.83,15.66,9.98,15.66,9.98l.49,1h0c.98-1.51,1.51-3.28,1.51-5.09v-1.51s1.16-.73,4.48-.06,5.32-3.99,4.66-4.66-9.98-11.31-9.98-11.31c0,0,3.33-2.66,.67-4.66s-3.51-6.06-3.51-6.06c0,0,4.84-1.26,5.51-3.26,.67-2-3.33-2.66-6.66-6.66-3.33-3.99-4.48-6.32-4.48-6.32,0,0-.12-1.61-3.26-5.46Z" style="fill:#666;"/></g><path d="M58.65,78.37s-3.38-5.53-1.47-15.27c1.74-8.82,2.56-11.98,5.11-12.62s10.22,7.67,11.5,9.58l3.83,5.75-18.97,12.55Z" style="fill:#666;"/><path d="M121.65,78.37s3.8-7.53,1.88-17.27c-1.74-8.82-2.56-11.98-5.11-12.62-2.56-.64-10.22,7.67-11.5,9.58l-3.83,5.75,18.56,14.55Z" style="fill:#666;"/></g><g><g><path d="M48.51,180.28s0,13.16,7.45,26.14c5.71,9.95,15.54,27.21,15.86,32.99,.32,5.78-1.02,15.21,1.92,18.19,2.87,2.92,9.26,3.56,13.1,2.92s5.75-3.19,5.11-6.39c-.91-4.56,0-7.03,0-7.03" style="fill:none; stroke:#333; stroke-linecap:round; stroke-linejoin:round; stroke-width:3.8px;"/><path d="M90.03,211.32s1.92,6.39,1.92,12.78v15.97" style="fill:none; stroke:#333; stroke-linecap:round; stroke-linejoin:round; stroke-width:3.8px;"/></g><path d="M48.51,133.39s-3.83,5.75-4.47,15.33,3.03,23.18,3.03,23.18" style="fill:none; stroke:#333; stroke-linecap:round; stroke-linejoin:round; stroke-width:3.8px;"/><g><path d="M136.02,180.28s0,13.16-7.45,26.14c-5.71,9.95-15.54,27.21-15.86,32.99s1.02,15.21-1.92,18.19c-2.87,2.92-9.26,3.56-13.1,2.92s-5.75-3.19-5.11-6.39c.91-4.56,0-7.03,0-7.03" style="fill:none; stroke:#333; stroke-linecap:round; stroke-linejoin:round; stroke-width:3.8px;"/><path d="M94.5,211.32s-1.92,6.39-1.92,12.78v15.97" style="fill:none; stroke:#333; stroke-linecap:round; stroke-linejoin:round; stroke-width:3.8px;"/></g><g><path d="M51.54,169.99s-1.76,4.29,1.44,10.04c1.75,3.15,2.98,4.72,2.98,4.72" style="fill:none; stroke:#333; stroke-linecap:round; stroke-linejoin:round; stroke-width:3.8px;"/><path d="M61.34,180.28s-1.33,6.77,3.14,10.6,5.43,4.83,5.43,4.83" style="fill:none; stroke:#333; stroke-linecap:round; stroke-linejoin:round; stroke-width:3.8px;"/><path d="M76.83,191.01s-.85,3.71,1.06,8.18c1.77,4.12,8.13,7.23,8.13,7.23" style="fill:none; stroke:#333; stroke-linecap:round; stroke-linejoin:round; stroke-width:3.8px;"/></g><g><path d="M135.98,169.11s1.84,4.39-1.51,10.28c-1.84,3.22-3.13,4.83-3.13,4.83" style="fill:none; stroke:#333; stroke-linecap:round; stroke-linejoin:round; stroke-width:3.8px;"/><path d="M125.7,179.65s1.4,6.93-3.3,10.86c-4.7,3.92-5.7,4.95-5.7,4.95" style="fill:none; stroke:#333; stroke-linecap:round; stroke-linejoin:round; stroke-width:3.8px;"/><path d="M109.43,190.64s.89,3.79-1.12,8.37c-1.86,4.22-8.54,7.4-8.54,7.4" style="fill:none; stroke:#333; stroke-linecap:round; stroke-linejoin:round; stroke-width:3.8px;"/></g><path d="M154.87,117.1s11.82,2.24,21.4,11.82c4.9,4.9,11.5,17.89,11.5,17.89" style="fill:none; stroke:#333; stroke-linecap:round; stroke-linejoin:round; stroke-width:3.8px;"/><path d="M146.76,150.73s.52,5.02,0,8.53c-.52,3.51-3.12,5.89-3.12,5.89" style="fill:none; stroke:#333; stroke-linecap:round; stroke-linejoin:round; stroke-width:3.8px;"/><path d="M185.21,136.58s.48-1.28,1.52-8.94c.69-5.11,2.63-8.8,3.84-10.69,.66-1.02,1.1-2.17,1.26-3.38,.37-2.82,1.23-8,2.74-10.5,.83-1.37,1.79-2.46,2.65-3.26,1.34-1.26,1.95-3.11,1.58-4.91-.5-2.47-1.13-4.62,1.11-11.33,2.14-6.43,6.67-8.31,8.87-10.7,.72-.78,1.34-1.63,1.86-2.55,.92-1.64,3.35-7.76,9.39-11.34,5.99-3.55,12.46,.32,12.46-4.15s4.47-2.56,5.75,3.19" style="fill:none; stroke:#333; stroke-linecap:round; stroke-linejoin:round; stroke-width:3.8px;"/><path d="M241.43,66.96c.64,3.83,2.09,10.85,0,15.91-3.19,7.73-10.86,14.12-10.86,17.95s1.92,7.03,1.92,7.03" style="fill:none; stroke:#333; stroke-linecap:round; stroke-linejoin:round; stroke-width:3.8px;"/><path d="M232.48,114.87c0,5.27-3.19,7.03-1.92,12.78,1.28,5.75,1.92,16.11,1.92,19.87s-3.83,10.42-3.83,10.42" style="fill:none; stroke:#333; stroke-linecap:round; stroke-linejoin:round; stroke-width:3.8px;"/><path d="M230.57,162.41s.64,3.29,0,7.58-1.91,8.12-1.91,8.12" style="fill:none; stroke:#333; stroke-linecap:round; stroke-linejoin:round; stroke-width:3.8px;"/><path d="M232.48,189.44s1.28,2.16,0,6.27-3.83,10.7-3.83,10.7" style="fill:none; stroke:#333; stroke-linecap:round; stroke-linejoin:round; stroke-width:3.8px;"/><path d="M229.76,215.3s-.47,3.05-4.94,7.52c-4.47,4.47-10.86,8.3-10.86,11.5" style="fill:none; stroke:#333; stroke-linecap:round; stroke-linejoin:round; stroke-width:3.83px;"/><path d="M194.79,160.86c1.92,2.56,6.39,4.47,10.22,14.05,2.24,5.6,2.56,18.53,2.56,18.53" style="fill:none; stroke:#333; stroke-linecap:round; stroke-linejoin:round; stroke-width:3.8px;"/><path d="M211.72,197.93s4.99,16.11,3.51,29.37c-1.46,13.14-11.7,22.52-17.25,23-4.5,.39-8.3,1.28-8.3,1.28" style="fill:none; stroke:#333; stroke-linecap:round; stroke-linejoin:round; stroke-width:3.8px;"/><path d="M185.21,252.81s-8.3,3.58-11.5,4.37c-3.19,.78-4.38,4.43-11.45,3.57" style="fill:none; stroke:#333; stroke-linecap:round; stroke-linejoin:round; stroke-width:3.8px;"/><path d="M146.99,241.27s-12.88,3.27-13.52,7.75,.64,7.97,1.28,9.09,6.45,4.77,10.57,2.63c4.12-2.14,9.23-1.5,9.23-1.5" style="fill:none; stroke:#333; stroke-linecap:round; stroke-linejoin:round; stroke-width:3.83px;"/><path d="M116.8,251.57s1.98,3.04,7.09,2.8c5.11-.24,7.5,.01,7.5,.01" style="fill:none; stroke:#333; stroke-linecap:round; stroke-linejoin:round; stroke-width:3.8px;"/><path d="M56.94,75.33s-1.92-4.47,0-14.21c1.74-8.82,2.56-11.98,5.11-12.62,2.56-.64,10.22,7.67,11.5,9.58l3.83,5.75" style="fill:none; stroke:#333; stroke-linecap:round; stroke-linejoin:round; stroke-width:3.8px;"/><path d="M123.77,75.33s1.92-4.47,0-14.21c-1.74-8.82-2.56-11.98-5.11-12.62-2.56-.64-10.22,7.67-11.5,9.58l-3.83,5.75" style="fill:none; stroke:#333; stroke-linecap:round; stroke-linejoin:round; stroke-width:3.8px;"/><path d="M74.54,65s5.55-2.55,16.45-2.55,15.7,2.55,15.7,2.55" style="fill:none; stroke:#333; stroke-linecap:round; stroke-linejoin:round; stroke-width:3.8px;"/><path d="M55.52,81.33s-.62,.96-3.82,4.79-7.03,4.47-6.39,6.39,5.29,3.13,5.29,3.13c0,0-.82,3.9-3.37,5.81-2.56,1.92,.64,4.47,.64,4.47,0,0-8.94,10.22-9.58,10.86s1.28,5.11,4.47,4.47c3.19-.64,4.3,.06,4.3,.06v1.44c0,1.73,.5,3.43,1.45,4.88h0" style="fill:none; stroke:#333; stroke-linecap:round; stroke-linejoin:round; stroke-width:3.8px;"/><path d="M132.98,127.64h0c.94-1.45,1.45-3.15,1.45-4.88v-1.44s1.11-.7,4.3-.06c3.19,.64,5.11-3.83,4.47-4.47s-9.58-10.86-9.58-10.86c0,0,3.19-2.56,.64-4.47-2.56-1.92-3.37-5.81-3.37-5.81,0,0,4.65-1.21,5.29-3.13,.64-1.92-3.19-2.56-6.39-6.39-3.19-3.83-4-4.79-4-4.79" style="fill:none; stroke:#333; stroke-linecap:round; stroke-linejoin:round; stroke-width:3.8px;"/></g></g></svg>