<?xml version="1.0" encoding="utf-8"?>
<!-- Generator: Adobe Illustrator 26.3.1, SVG Export Plug-In . SVG Version: 6.00 Build 0)  -->
<svg version="1.1" id="substantial" xmlns="http://www.w3.org/2000/svg" xmlns:xlink="http://www.w3.org/1999/xlink" x="0px"
	 y="0px" viewBox="0 0 280 280" style="enable-background:new 0 0 280 280;" xml:space="preserve">
<style type="text/css">
	.st0{fill:#483700;}
	.st1{fill:#F8EDDB;}
	.st2{clip-path:url(#SVGID_00000159430299871582359190000004468182494036289157_);}
	.st3{fill:url(#SVGID_00000172414712395207075660000016486625227182148481_);}
	.st4{fill:url(#SVGID_00000183209242367170630170000014360417115560101275_);}
	.st5{fill:url(#SVGID_00000060712704498932396630000004920720533037321407_);}
</style>
<g id="pattern_1">
	<g>
		<path class="st0" d="M213.6,234.6c0-3.2,6.4-7,10.9-11.5s4.9-7.5,4.9-7.5c0.4-5.3-1.1-8.9-1.1-8.9s2.6-6.6,3.8-10.7s0-6.3,0-6.3
			c-0.7-4.3-3.8-11.3-3.8-11.3s1.3-3.8,1.9-8.1s0-7.6,0-7.6l-1.9-4.5c0,0,3.8-6.7,3.8-10.4s-0.6-14.1-1.9-19.9s1.9-7.5,1.9-12.8v-7
			c0,0-1.9-3.2-1.9-7s7.7-10.2,10.9-18c2.1-5.1,0.6-12.1,0-15.9l-3.2-8.9c-1.3-5.8-5.8-7.7-5.8-3.2s-6.5,0.6-12.5,4.2
			s-8.5,9.7-9.4,11.3c-0.5,0.9-1.1,1.8-1.9,2.6c-2.2,2.4-6.7,4.3-8.9,10.7c-2.2,6.7-1.6,8.8-1.1,11.3c0.4,1.8-0.2,3.7-1.6,4.9
			c-0.9,0.8-1.8,1.9-2.6,3.3c-1.5,2.5-2.4,7.7-2.7,10.5c-0.2,1.2-0.6,2.3-1.3,3.4c-1.2,1.9-3.1,5.6-3.8,10.7c-1,7.7-1.5,8.9-1.5,8.9
			s-4.4,38.7-4.4,45S213.6,234.6,213.6,234.6L213.6,234.6z"/>
		<path class="st1" d="M139.6,120.4c0,0-33,12-48,12.6c-22.5,0.8-40.2-5.2-40.2-5.2v1.3c0,0-1.9,1.3-2.6,3.2l-1.9,2.6
			c0,0-2,2.9-2.6,12.5c-0.6,9.6,3,23.2,3,23.2l0.9,3.3l0.6,5.1l-0.1-0.1c0,0,0,13.2,7.5,26.1c5.7,9.9,15.5,27.2,15.9,33
			s-1,15.2,1.9,18.2c2.9,2.9,9.3,3.6,13.1,2.9c3.8-0.6,5.8-3.2,5.1-6.4c-0.9-4.6,0-7,0-7c-0.1-0.3,0.6,0,0.6,0s0.9,2.5,0,7
			c-0.6,3.2,1.3,5.7,5.1,6.4s10.2,0,13.1-2.9c0.9-0.9,1.4-2.6,1.7-4.5l3.3,0.2c0,0,2,3,7.1,2.8c5.1-0.2,7.5,0,7.5,0l2.1-5.4
			c-0.6,4.5,0.6,8,1.3,9.1c0.6,1.1,6.4,4.8,10.6,2.6c4.1-2.1,9.2-1.5,9.2-1.5c2.5-0.3,7.7,1.5,7.7,1.5c7.1,0.9,8.3-2.8,11.4-3.6
			c3.2-0.8,11.5-4.4,11.5-4.4c1.8-0.4,4.5-1.2,4.5-1.2s3.8-0.9,8.3-1.3c5.5-0.5,15.8-9.9,17.2-23c1.5-13.3-3.5-29.4-3.5-29.4
			c-1-5.4-4.1-4.5-4.1-4.5s-0.3-12.9-2.6-18.5c-3.8-9.6-7.3-12.8-10.2-14.1c-3.9-1.6-7-13.1-7-13.1l-1.8-4.5c0,0-4.8-9.5-9.6-14.4
			c-9.6-9.6-21.4-11.8-21.4-11.8H150c-3.3-0.2-8.8,2.8-10,3.2 M113,247.9c0.1-3.4-0.2-7.2,0-10.1c0.1-2.6,2.2-7.4,4.9-12.9
			L113,247.9L113,247.9z"/>
		<g>
			<defs>
				<path id="SVGID_1_" d="M139.6,120.4c0,0-33,12-48,12.6c-22.5,0.8-40.2-5.2-40.2-5.2v1.3c0,0-1.9,1.3-2.6,3.2l-1.9,2.6
					c0,0-2,2.9-2.6,12.5c-0.6,9.6,3,23.2,3,23.2l0.9,3.3l0.6,5.1l-0.1-0.1c0,0,0,13.2,7.5,26.1c5.7,9.9,15.5,27.2,15.9,33
					s-1,15.2,1.9,18.2c2.9,2.9,9.3,3.6,13.1,2.9c3.8-0.6,5.8-3.2,5.1-6.4c-0.9-4.6,0-7,0-7c-0.1-0.3,0.6,0,0.6,0s0.9,2.5,0,7
					c-0.6,3.2,1.3,5.7,5.1,6.4s10.2,0,13.1-2.9c0.9-0.9,1.4-2.6,1.7-4.5l3.3,0.2c0,0,2,3,7.1,2.8c5.1-0.2,7.5,0,7.5,0l2.1-5.4
					c-0.6,4.5,0.6,8,1.3,9.1c0.6,1.1,6.4,4.8,10.6,2.6c4.1-2.1,9.2-1.5,9.2-1.5c2.5-0.3,7.7,1.5,7.7,1.5c7.1,0.9,8.3-2.8,11.4-3.6
					c3.2-0.8,11.5-4.4,11.5-4.4c1.8-0.4,4.5-1.2,4.5-1.2s3.8-0.9,8.3-1.3c5.5-0.5,15.8-9.9,17.2-23c1.5-13.3-3.5-29.4-3.5-29.4
					c-1-5.4-4.1-4.5-4.1-4.5s-0.3-12.9-2.6-18.5c-3.8-9.6-7.3-12.8-10.2-14.1c-3.9-1.6-7-13.1-7-13.1l-1.8-4.5c0,0-4.8-9.5-9.6-14.4
					c-9.6-9.6-21.4-11.8-21.4-11.8H150c-3.3-0.2-8.8,2.8-10,3.2 M113,247.9c0.1-3.4-0.2-7.2,0-10.1c0.1-2.6,2.2-7.4,4.9-12.9
					L113,247.9L113,247.9z"/>
			</defs>
			<clipPath id="SVGID_00000106131383717378761900000006444568442247093379_">
				<use xlink:href="#SVGID_1_"  style="overflow:visible;"/>
			</clipPath>
			<g style="clip-path:url(#SVGID_00000106131383717378761900000006444568442247093379_);">
				
					<linearGradient id="SVGID_00000163756597307135965250000010409324710627114895_" gradientUnits="userSpaceOnUse" x1="92.051" y1="28.95" x2="92.051" y2="62.29" gradientTransform="matrix(1 0 0 -1 0 282)">
					<stop  offset="0.58" style="stop-color:#483700"/>
					<stop  offset="0.61" style="stop-color:#52410C"/>
					<stop  offset="0.66" style="stop-color:#6D5D2E"/>
					<stop  offset="0.74" style="stop-color:#998B65"/>
					<stop  offset="0.83" style="stop-color:#D5C9B0"/>
					<stop  offset="0.88" style="stop-color:#F8EDDB"/>
				</linearGradient>
				<path style="fill:url(#SVGID_00000163756597307135965250000010409324710627114895_);" d="M124.5,211.5c0.7,3.3-8,16.4-12,26
					c-3,7.2,3,18-6,22c-9.4,4.2-8.6-2-14-2s-1.1,2.7-6,4c-5.4,1.4-15-2.2-15-10c0-6.3,2.2-7.9,1-13c-3.4-14.7-13-26-13-26
					s12.5-0.2,18,1c6,1.3,12.2,3.1,15,3.1s12.4-3.2,16-4.1C113.7,211.2,124.5,211.5,124.5,211.5L124.5,211.5z"/>
				<path class="st1" d="M91.5,208.5c-5,0-15-7-25-16s-22-16-23-44s10-27,10-27s23,8,37,7s46-8,46-8s13,14,11,30s-16,34-25,41
					S96.5,208.5,91.5,208.5z"/>
				
					<linearGradient id="SVGID_00000175280663246006616510000010584482283989214123_" gradientUnits="userSpaceOnUse" x1="132.624" y1="34.0184" x2="193.7431" y2="34.0184" gradientTransform="matrix(1 0 0 -1 0 282)">
					<stop  offset="0.58" style="stop-color:#483700"/>
					<stop  offset="0.63" style="stop-color:#4B3A04"/>
					<stop  offset="0.69" style="stop-color:#564511"/>
					<stop  offset="0.74" style="stop-color:#685827"/>
					<stop  offset="0.81" style="stop-color:#807146"/>
					<stop  offset="0.87" style="stop-color:#A0926E"/>
					<stop  offset="0.93" style="stop-color:#C7BB9F"/>
					<stop  offset="1" style="stop-color:#F5EAD7"/>
					<stop  offset="1" style="stop-color:#F8EDDB"/>
				</linearGradient>
				<path style="fill:url(#SVGID_00000175280663246006616510000010584482283989214123_);" d="M161.5,243.5c0,0-17.4-1.1-22.2,0.9
					c-4.8,2.1-7.4,4.4-6.6,10.2s8.1,4.8,8.1,4.8s28.3,1.8,34,0.4c5.7-1.4,14.3-7.3,18-10.3s-4.3-14.1-14.3-14.1
					S165.5,241.5,161.5,243.5L161.5,243.5z"/>
			</g>
		</g>
		<path class="st1" d="M120.7,73.6c3.7,4.5,4.4,7.9,4.4,7.9s0.8,1,4,4.8s7,4.5,6.4,6.4s-5.3,3.1-5.3,3.1s0.8,3.9,3.4,5.8
			c2.6,1.9-0.6,4.5-0.6,4.5s5.3,6.2,5.9,6.8c0,0,4.9,3.8,4.4,4.7c-2.1,3.1-1.9,0.9-2.6,1.3c-1,0.5-27.9,14.7-49.7,14.7
			s-43.2-5.8-43.2-5.8s-1.5-3.2-1.5-4.9v-1.4c0,0-1.1-0.7-4.3-0.1s-5.1-3.8-4.5-4.5s9.6-10.9,9.6-10.9s-3.2-2.6-0.6-4.5
			c2.6-1.9,3.4-5.8,3.4-5.8s-4.7-1.2-5.3-3.1s3.2-2.6,6.4-6.4c3.2-3.8,4.2-5,4.2-5s0.7-3.3,4.5-7.8c5-6,15-12,31-12
			S115.6,67.6,120.7,73.6L120.7,73.6z"/>
		<path class="st0" d="M58.7,78.6c0,0-3.4-5.5-1.5-15.3c1.7-8.8,2.6-12,5.1-12.6c2.5-0.6,10.2,7.7,11.5,9.6l3.8,5.8L58.7,78.6
			L58.7,78.6z"/>
		<path class="st0" d="M121.7,78.6c0,0,3.8-7.5,1.9-17.3c-1.7-8.8-2.6-12-5.1-12.6c-2.6-0.6-10.2,7.7-11.5,9.6l-3.8,5.8L121.7,78.6
			L121.7,78.6z"/>
	</g>
	
		<radialGradient id="SVGID_00000011712268614526100570000013023596903970305197_" cx="-103.4184" cy="-60.6867" r="31.485" gradientTransform="matrix(1.09 -3.424331e-03 -3.462725e-03 -0.86 202.545 48.5105)" gradientUnits="userSpaceOnUse">
		<stop  offset="0.58" style="stop-color:#483700"/>
		<stop  offset="0.67" style="stop-color:#52420D;stop-opacity:0.94"/>
		<stop  offset="0.77" style="stop-color:#736335;stop-opacity:0.75"/>
		<stop  offset="0.88" style="stop-color:#A99B78;stop-opacity:0.45"/>
		<stop  offset="0.99" style="stop-color:#F3E8D5;stop-opacity:2.000000e-02"/>
		<stop  offset="1" style="stop-color:#F8EDDB;stop-opacity:0"/>
	</radialGradient>
	<path style="fill:url(#SVGID_00000011712268614526100570000013023596903970305197_);" d="M129.1,98.1
		c-4.1-15.9-19.4-26.6-38.8-26.6S55.1,83.1,51,98.1c-4.1,15,18.9,30.4,39.3,30.4S133,113.4,129.1,98.1z"/>
	<g>
		<g>
			<path d="M83.9,262.9c-3.8,0-8.7-0.9-11.5-3.7c-2.7-2.7-2.6-8.5-2.4-14.1c0-1.9,0.1-3.8,0-5.3c-0.3-5.5-11-24.2-15.6-32.1
				c-7.6-13.3-7.7-26.5-7.7-27.1c0-1.1,0.8-1.9,1.9-1.9c1,0,1.9,0.9,1.9,1.9c0,0.1,0.1,12.8,7.2,25.2c8.2,14.2,15.8,28.2,16.1,33.8
				c0.1,1.7,0.1,3.6,0,5.6c-0.1,4.1-0.2,9.8,1.4,11.4c2.2,2.2,7.7,3,11.4,2.4c1.5-0.2,2.6-0.8,3.2-1.7c0.5-0.7,0.6-1.5,0.4-2.5
				c-1-4.9,0-7.8,0.1-8.1c0.4-1,1.5-1.5,2.4-1.1s1.5,1.5,1.1,2.4l0,0c0,0-0.7,2.1,0.1,6c0.4,2,0.1,3.8-1,5.4
				c-1.2,1.7-3.1,2.9-5.7,3.3C86.2,262.8,85.1,262.9,83.9,262.9L83.9,262.9z"/>
			<path d="M91.9,242.2c-1.1,0-1.9-0.9-1.9-1.9v-16c0-6-1.8-12.2-1.8-12.2c-0.3-1,0.3-2.1,1.3-2.4c1-0.3,2.1,0.3,2.4,1.3
				c0.1,0.3,2,6.7,2,13.3v16C93.9,241.4,93,242.2,91.9,242.2L91.9,242.2z"/>
		</g>
		<path d="M47.1,174.1c-0.8,0-1.6-0.6-1.8-1.4c-0.2-0.6-3.7-14-3.1-23.8c0.7-10,4.6-16,4.8-16.3c0.6-0.9,1.8-1.1,2.6-0.5
			c0.9,0.6,1.1,1.8,0.5,2.6c0,0.1-3.6,5.5-4.2,14.4c-0.6,9.1,2.9,22.4,3,22.6c0.3,1-0.3,2.1-1.3,2.3C47.4,174,47.2,174.1,47.1,174.1
			L47.1,174.1z"/>
		<g>
			<path d="M100.7,262.9c-1.2,0-2.4-0.1-3.3-0.2c-2.5-0.4-4.5-1.5-5.7-3.3c-1.1-1.5-1.4-3.4-1-5.4c0.8-3.9,0.1-6,0.1-6
				c-0.3-1,0.2-2.1,1.2-2.4c1-0.4,2.1,0.1,2.4,1.1c0.1,0.3,1.1,3.1,0.1,8.1c-0.2,1-0.1,1.8,0.4,2.5c0.6,0.9,1.7,1.4,3.2,1.7
				c3.8,0.6,9.3-0.2,11.4-2.4c1.6-1.6,1.4-7.3,1.4-11.4c0-2-0.1-3.9,0-5.6c0.3-5.6,7.9-19.6,16.1-33.8c7.1-12.4,7.2-25.1,7.2-25.2
				c0-1.1,0.9-1.9,1.9-1.9l0,0c1.1,0,1.9,0.9,1.9,1.9c0,0.6-0.1,13.8-7.7,27.1c-4.6,8-15.3,26.7-15.6,32.1c-0.1,1.5-0.1,3.4,0,5.3
				c0.1,5.6,0.2,11.4-2.4,14.1C109.4,262,104.5,262.9,100.7,262.9L100.7,262.9z"/>
			<path d="M92.6,242.2c-1.1,0-1.9-0.9-1.9-1.9v-16c0-6.6,1.9-13.1,2-13.3c0.3-1,1.4-1.6,2.4-1.3c1,0.3,1.6,1.4,1.3,2.4
				c0,0.1-1.8,6.2-1.8,12.2v16C94.5,241.4,93.7,242.2,92.6,242.2L92.6,242.2z"/>
		</g>
		<g>
			<path d="M56,186.9c-0.6,0-1.1-0.2-1.5-0.7c0-0.1-1.3-1.7-3.2-5c-3.6-6.5-1.6-11.5-1.5-11.7c0.4-1,1.5-1.4,2.5-1
				c1,0.4,1.4,1.5,1,2.5c-0.1,0.2-1.3,3.6,1.3,8.4c1.6,2.9,2.8,4.5,2.8,4.5c0.6,0.8,0.5,2-0.3,2.7C56.8,186.8,56.4,186.9,56,186.9
				L56,186.9z"/>
			<path d="M69.9,197.9c-0.5,0-1-0.2-1.4-0.6c0,0-1-1.1-5.3-4.7c-5.2-4.5-3.8-12.1-3.8-12.4c0.2-1,1.2-1.7,2.2-1.5s1.7,1.2,1.5,2.2
				c0,0.1-1,5.8,2.5,8.8c4.4,3.8,5.5,4.8,5.6,4.9c0.7,0.8,0.7,2-0.1,2.7C70.8,197.7,70.4,197.9,69.9,197.9L69.9,197.9z"/>
			<path d="M86,208.6c-0.3,0-0.6-0.1-0.8-0.2c-0.7-0.4-7.1-3.6-9-8.2c-2.1-5-1.2-9.2-1.2-9.4c0.2-1,1.2-1.7,2.3-1.4
				c1,0.2,1.7,1.2,1.4,2.3c0,0.1-0.7,3.2,1,7c1.2,2.8,5.6,5.5,7.2,6.3c0.9,0.5,1.3,1.6,0.9,2.5C87.4,208.2,86.7,208.6,86,208.6
				L86,208.6z"/>
		</g>
		<g>
			<path d="M131.3,186.4c-0.4,0-0.8-0.1-1.2-0.4c-0.8-0.7-0.9-1.9-0.3-2.7c0,0,1.2-1.6,3-4.6c2.8-4.9,1.5-8.5,1.4-8.6
				c-0.4-1,0.1-2.1,1.1-2.5c1-0.4,2.1,0.1,2.5,1c0.1,0.2,2.2,5.3-1.6,12c-1.9,3.3-3.2,5-3.3,5.1
				C132.4,186.1,131.9,186.4,131.3,186.4L131.3,186.4z"/>
			<path d="M116.7,197.6c-0.5,0-1-0.2-1.3-0.6c-0.7-0.7-0.8-1.9,0-2.7c0.1-0.1,1.2-1.2,5.8-5.1c3.8-3.2,2.7-9,2.7-9
				c-0.2-1,0.5-2,1.5-2.2c1-0.2,2,0.5,2.2,1.5c0.1,0.3,1.6,8.1-3.9,12.7c-4.5,3.8-5.5,4.8-5.6,4.8
				C117.7,197.4,117.2,197.6,116.7,197.6L116.7,197.6z"/>
			<path d="M99.8,208.6c-0.7,0-1.4-0.4-1.7-1.1c-0.4-0.9-0.1-2.1,0.9-2.5c1.7-0.8,6.3-3.5,7.6-6.4c1.7-3.9,1-7.1,1-7.2
				c-0.2-1,0.4-2,1.4-2.3c1-0.2,2,0.4,2.3,1.4c0,0.2,1,4.5-1.2,9.6c-2.1,4.7-8.7,8-9.5,8.4C100.3,208.5,100.1,208.6,99.8,208.6
				L99.8,208.6z"/>
		</g>
		<path d="M187.8,149c-0.7,0-1.4-0.4-1.7-1c-0.1-0.1-6.5-12.8-11.1-17.4c-9-9-20.3-11.3-20.4-11.3c-1-0.2-1.7-1.2-1.5-2.2
			c0.2-1,1.2-1.7,2.2-1.5c0.5,0.1,12.5,2.5,22.4,12.3c5.1,5.1,11.6,17.8,11.9,18.4c0.5,0.9,0.1,2.1-0.8,2.6
			C188.4,148.9,188.1,149,187.8,149L187.8,149z"/>
		<path d="M143.6,167.3c-0.5,0-1-0.2-1.4-0.6c-0.7-0.8-0.6-2,0.1-2.7c0,0,2.1-2,2.5-4.8c0.5-3.2,0-8,0-8.1c-0.1-1,0.6-2,1.7-2.1
			c1.1-0.1,2,0.6,2.1,1.7c0,0.2,0.5,5.3,0,9c-0.6,4.1-3.6,6.9-3.7,7C144.6,167.1,144.1,167.3,143.6,167.3L143.6,167.3z"/>
		<path d="M185.2,138.7c-0.2,0-0.4,0-0.7-0.1c-1-0.4-1.5-1.4-1.1-2.4c0-0.1,0.5-1.7,1.4-8.6c0.8-5.6,2.9-9.6,4.1-11.5
			c0.5-0.8,0.9-1.7,1-2.6c0.5-3.7,1.4-8.6,3-11.2c0.8-1.3,1.8-2.6,3-3.7c0.9-0.8,1.3-2,1-3.2l-0.1-0.3c-0.5-2.5-1.1-5.1,1.2-11.9
			c1.8-5.2,5-7.8,7.3-9.7c0.8-0.6,1.5-1.2,2-1.7c0.6-0.7,1.2-1.4,1.6-2.2c0.1-0.2,0.2-0.5,0.4-0.8c1.2-2.3,3.9-7.9,9.7-11.3
			c3.2-1.9,6.6-2,9-2c0.9,0,2.1,0,2.5-0.2c0-0.1,0-0.2,0-0.3c0-3,1.6-4.2,3.1-4.3c2.7-0.3,5.5,2.8,6.5,7.1c0.2,1-0.4,2-1.4,2.3
			c-1,0.2-2-0.4-2.3-1.4c-0.5-2.1-1.4-3.4-2-3.9c0,0.1,0,0.2,0,0.3c0,4.2-3.8,4.3-6.3,4.3c-2.2,0-4.7,0-7.1,1.5
			c-4.8,2.8-7.1,7.5-8.2,9.7c-0.2,0.4-0.4,0.7-0.5,0.9c-0.6,1-1.3,2-2.1,2.9c-0.7,0.8-1.5,1.4-2.4,2.1c-2.2,1.8-4.7,3.7-6.1,7.9
			c-2,5.9-1.6,7.8-1.1,10l0.1,0.4c0.5,2.4-0.3,4.9-2.1,6.7c-0.9,0.9-1.7,1.8-2.3,2.9c-1,1.6-1.9,5.2-2.5,9.8
			c-0.2,1.5-0.7,2.9-1.5,4.2c-1.1,1.6-2.9,5.1-3.6,9.9c-1,7.3-1.5,9-1.6,9.4C186.7,138.3,186,138.7,185.2,138.7L185.2,138.7z"/>
		<path d="M232.5,110c-0.6,0-1.3-0.3-1.6-0.9c-0.1-0.2-2.2-3.7-2.2-8c0-2.6,2.1-5.4,4.8-8.8c2.2-2.9,4.8-6.3,6.2-9.8
			c1.7-4.2,0.7-10.3,0-13.9l-0.2-0.9c-0.2-1,0.5-2,1.6-2.2c1-0.2,2,0.5,2.2,1.6l0.2,0.9c0.7,4.1,1.9,10.8-0.3,16
			c-1.7,4-4.4,7.6-6.7,10.7c-2,2.6-4,5.2-4,6.6c0,3.2,1.6,6,1.6,6.1c0.5,0.9,0.2,2.1-0.6,2.6C233.2,109.9,232.8,110,232.5,110
			L232.5,110z"/>
		<path d="M228.7,160.1c-0.3,0-0.6-0.1-0.9-0.2c-0.9-0.5-1.2-1.7-0.7-2.6c1-1.7,3.6-6.8,3.6-9.5c0-3.9-0.6-13.9-1.9-19.5
			c-0.9-3.8,0-6.2,0.8-8.4c0.5-1.5,1.1-2.9,1.1-4.8c0-1.1,0.9-1.9,1.9-1.9s1.9,0.8,1.9,1.9c0,2.6-0.7,4.5-1.3,6.1
			c-0.7,2-1.3,3.5-0.7,6.3c1.3,5.8,2,16.3,2,20.3s-3.7,10.6-4.1,11.4C230,159.8,229.3,160.1,228.7,160.1L228.7,160.1z"/>
		<path d="M228.7,180.3c-0.2,0-0.4,0-0.6-0.1c-1-0.3-1.5-1.4-1.2-2.4c0,0,1.2-3.7,1.8-7.8c0.6-3.9,0-6.9,0-6.9c-0.2-1,0.5-2,1.5-2.2
			c1-0.2,2,0.5,2.2,1.5c0,0.1,0.7,3.7,0,8.2c-0.7,4.4-1.9,8.3-2,8.4C230.2,179.7,229.4,180.2,228.7,180.3L228.7,180.3z"/>
		<path d="M228.7,208.6c-0.2,0-0.5,0-0.7-0.1c-1-0.4-1.5-1.5-1.1-2.5c0-0.1,2.5-6.6,3.8-10.6c1-3.1,0.2-4.7,0.1-4.8
			c-0.5-0.9-0.2-2,0.7-2.6c0.9-0.5,2.1-0.2,2.6,0.7c0.2,0.3,1.7,3,0.2,7.8c-1.3,4.1-3.8,10.6-3.9,10.8
			C230.1,208.1,229.4,208.6,228.7,208.6L228.7,208.6z"/>
		<path d="M214,236.5c-1.1,0-1.9-0.9-1.9-1.9c0-3.1,3.2-5.7,6.9-8.8c1.5-1.3,3.1-2.6,4.5-4c3.9-3.9,4.4-6.5,4.4-6.5
			c0.2-1,1.2-1.7,2.2-1.5c1,0.2,1.7,1.1,1.6,2.2c-0.1,0.4-0.7,3.8-5.5,8.6c-1.5,1.5-3.2,2.9-4.8,4.2c-2.3,2-5.5,4.6-5.5,5.9
			C215.9,235.6,215,236.5,214,236.5L214,236.5z"/>
		<path d="M207.6,195.6c-1,0-1.9-0.8-1.9-1.9c0-0.1-0.3-12.6-2.4-17.9c-2.6-6.6-5.6-9.3-7.7-11.3c-0.9-0.8-1.6-1.5-2.2-2.3
			c-0.6-0.8-0.5-2,0.4-2.7c0.8-0.6,2-0.5,2.7,0.4c0.4,0.5,1,1.1,1.8,1.8c2.3,2.1,5.7,5.2,8.7,12.7c2.3,5.9,2.7,18.6,2.7,19.2
			C209.5,194.7,208.7,195.6,207.6,195.6C207.6,195.6,207.6,195.6,207.6,195.6L207.6,195.6z"/>
		<path d="M189.7,253.7c-0.9,0-1.6-0.6-1.9-1.5c-0.2-1,0.4-2,1.4-2.3c0.2,0,4-0.9,8.6-1.3c4.6-0.4,14.1-9,15.5-21.3
			c1.4-12.7-3.4-28.4-3.4-28.6c-0.3-1,0.2-2.1,1.2-2.4s2.1,0.2,2.4,1.2c0.2,0.7,5.1,16.6,3.6,30.1c-1.6,14-12.4,24.1-19,24.7
			c-4.3,0.4-8,1.2-8,1.2C190,253.7,189.8,253.7,189.7,253.7L189.7,253.7z"/>
		<path d="M164.3,263c-0.7,0-1.4,0-2.2-0.1c-1-0.1-1.8-1.1-1.7-2.1c0.1-1,1.1-1.8,2.1-1.7c4,0.5,5.6-0.6,7.4-1.8
			c1-0.7,2-1.4,3.4-1.7c3-0.7,11.1-4.2,11.2-4.3c1-0.4,2.1,0,2.5,1s0,2.1-1,2.5c-0.4,0.1-8.5,3.7-11.8,4.5c-0.7,0.2-1.4,0.6-2.2,1.2
			C170.4,261.6,168.2,263,164.3,263L164.3,263z"/>
		<path d="M142.4,263.6c-4.2,0-8.5-2.8-9.3-4.3c-0.9-1.6-2.2-5.5-1.5-10.3c0.2-1.4,1.8-6,14.9-9.3c1-0.3,2.1,0.4,2.3,1.4
			c0.3,1-0.4,2.1-1.4,2.3c-5.5,1.4-11.8,4.3-12.1,6.2c-0.6,3.9,0.5,6.9,1,7.8c0.8,0.9,5.3,3.4,8.1,1.9c4.6-2.4,10.1-1.7,10.4-1.7
			c1.1,0.1,1.8,1.1,1.7,2.1c-0.1,1-1.1,1.8-2.1,1.7c0,0-4.6-0.5-8.1,1.3C145,263.3,143.7,263.6,142.4,263.6L142.4,263.6z
			 M136.4,257.4L136.4,257.4z"/>
		<path d="M131.4,256.5c-0.1,0-0.1,0-0.2,0c0,0-2.4-0.2-7.2,0c-6.1,0.3-8.7-3.5-8.8-3.7c-0.6-0.9-0.3-2.1,0.6-2.6
			c0.9-0.6,2-0.3,2.6,0.5c0.1,0.1,1.6,2.1,5.4,2c5.2-0.2,7.7,0,7.8,0c1,0.1,1.8,1.1,1.7,2.1C133.2,255.8,132.4,256.5,131.4,256.5z"
			/>
		<path d="M56.9,77.5c-0.7,0-1.4-0.4-1.7-1.1c-0.1-0.2-2.1-5.1-0.1-15.3c1.7-8.5,2.6-13.1,6.5-14.1c1.2-0.3,3.3-0.1,8,4.3
			c2.4,2.3,4.8,4.9,5.6,6.1L79,63l-3.2,2.1L72,59.4c-1.5-2.2-7.7-8.4-9.6-8.8c-1.4,0.5-2.2,4-3.6,11.1c-1.8,8.9-0.1,13.1-0.1,13.1
			c0.4,1-0.1,2.1-1,2.5C57.4,77.4,57.2,77.5,56.9,77.5L56.9,77.5z M62.3,50.6L62.3,50.6z"/>
		<path d="M123.8,77.5c-0.2,0-0.5-0.1-0.8-0.2c-1-0.4-1.4-1.5-1-2.5c0-0.1,1.6-4.3-0.1-13.1c-1.4-7.1-2.2-10.6-3.6-11.1
			c-1.9,0.3-8.1,6.5-9.6,8.8l-3.8,5.8l-3.2-2.1l3.8-5.8c0.8-1.2,3.1-3.8,5.6-6.1c4.7-4.4,6.7-4.6,8-4.3c3.9,1,4.8,5.4,6.5,14.1
			c2,10.2,0,15.1-0.1,15.3C125.2,77,124.5,77.5,123.8,77.5L123.8,77.5z M118.4,50.6L118.4,50.6z"/>
		<path d="M106.7,67.2c-0.3,0-0.6-0.1-0.9-0.2c0,0-4.6-2.3-14.8-2.3S75.4,67,75.3,67c-0.9,0.4-2.1,0-2.5-0.9c-0.4-0.9,0-2.1,0.9-2.5
			c0.2-0.1,6.1-2.7,17.2-2.7s16.4,2.7,16.6,2.8c0.9,0.5,1.3,1.6,0.8,2.6C108,66.8,107.4,67.2,106.7,67.2z"/>
		<path d="M48.5,129.8c-0.6,0-1.2-0.3-1.6-0.9c-1.1-1.7-1.7-3.7-1.8-5.8c-0.5,0-1.2,0.1-2,0.2c-2.9,0.6-5-1.4-6.1-3.4
			c-1-1.8-1-3.4-0.1-4.3c0.4-0.4,5-5.6,8.4-9.5c-0.5-0.7-1-1.7-1-2.8c0-0.9,0.3-2.1,1.8-3.2c1-0.8,1.7-2,2.1-3.1
			c-1.8-0.7-4.1-1.9-4.7-3.8c-0.8-2.4,1.2-3.8,2.8-4.9c1.2-0.8,2.6-1.8,3.9-3.3c3-3.6,3.7-4.6,3.7-4.6c0.6-0.9,1.8-1.1,2.6-0.5
			c0.9,0.6,1.1,1.7,0.5,2.6c-0.1,0.1-0.8,1.2-4,5c-1.6,1.9-3.4,3.2-4.7,4c-0.4,0.2-0.8,0.6-1.1,0.8c0.6,0.5,2.3,1.2,3.7,1.6
			c1,0.3,1.6,1.2,1.4,2.2c-0.1,0.5-1,4.7-4.1,6.9c-0.2,0.1-0.2,0.2-0.2,0.2c0,0.2,0.4,0.8,0.9,1.2c0.4,0.3,0.7,0.8,0.7,1.3
			c0,0.5-0.1,1-0.5,1.4c-1.3,1.5-7.2,8.3-9.1,10.4c0.2,0.4,0.6,1.1,1.1,1.6c0.5,0.4,0.8,0.3,1.1,0.3c3.5-0.7,5.2,0,5.7,0.3
			c0.5,0.3,0.9,0.9,0.9,1.6v1.4c0,1.4,0.4,2.7,1.1,3.8c0.6,0.9,0.3,2.1-0.6,2.6C49.2,129.7,48.8,129.8,48.5,129.8L48.5,129.8z
			 M46.2,123.3L46.2,123.3z M39.6,118.4L39.6,118.4z"/>
		<path d="M133,129.8c-0.4,0-0.7-0.1-1-0.3c-0.9-0.6-1.1-1.8-0.6-2.6c0.8-1.2,1.1-2.5,1.1-3.8v-1.4c0-0.7,0.3-1.3,0.9-1.6
			c0.5-0.3,2.1-1,5.7-0.3c0.2,0.1,0.6,0.1,1.1-0.3c0.6-0.4,0.9-1.1,1.1-1.6c-1.9-2.1-7.8-8.9-9.1-10.4c-0.3-0.4-0.5-0.9-0.5-1.4
			s0.3-1,0.7-1.3c0.5-0.4,0.9-1,0.9-1.3c0,0-0.1-0.1-0.2-0.2c-3-2.3-4-6.5-4.1-6.9c-0.2-1,0.4-2,1.4-2.2c1.5-0.4,3.1-1.1,3.7-1.6
			c-0.3-0.2-0.8-0.6-1.1-0.8c-1.3-0.9-3.1-2.1-4.7-4c-3.2-3.8-4-4.8-4-4.8c-0.7-0.8-0.6-2,0.2-2.7s2-0.6,2.7,0.2c0,0,0.8,1,4,4.8
			c1.3,1.5,2.7,2.5,3.9,3.3c1.6,1.1,3.6,2.5,2.8,4.9c-0.6,1.9-2.9,3.1-4.7,3.8c0.4,1.1,1.1,2.3,2.1,3.1c1.4,1.1,1.7,2.3,1.8,3.2
			c0,1.1-0.4,2.1-1,2.8c3.4,3.9,7.9,9,8.4,9.5c0.9,0.9,0.9,2.5-0.1,4.3c-1.1,2-3.2,4-6.1,3.4c-0.9-0.2-1.6-0.2-2-0.2
			c0,2.1-0.6,4.1-1.8,5.8C134.2,129.5,133.6,129.8,133,129.8L133,129.8z M135.3,123.3L135.3,123.3z"/>
	</g>
</g>
</svg>
