<?xml version="1.0" encoding="UTF-8"?><svg id="substantial" xmlns="http://www.w3.org/2000/svg" xmlns:xlink="http://www.w3.org/1999/xlink" viewBox="0 0 280 280"><defs><clipPath id="clippath"><path d="M213.62,234.36c0-3.19,6.39-7.03,10.86-11.5,4.47-4.47,4.94-7.52,4.94-7.52,.4-5.28-1.1-8.89-1.1-8.89,0,0,2.55-6.59,3.83-10.7,1.28-4.11,0-6.27,0-6.27-.71-4.31-3.83-11.34-3.83-11.34,0,0,1.27-3.83,1.91-8.12,.64-4.29,0-7.58,0-7.58l-1.91-4.47s3.83-6.66,3.83-10.42-.64-14.12-1.92-19.87c-1.28-5.75,1.92-7.51,1.92-12.78v-7.03s-1.92-3.19-1.92-7.03,7.67-10.22,10.86-17.95c2.09-5.05,.64-12.07,0-15.91l-3.19-8.94c-1.28-5.75-5.75-7.67-5.75-3.19s-6.47,.6-12.46,4.15c-6.03,3.58-8.46,9.7-9.39,11.34-.52,.92-1.14,1.78-1.86,2.55-2.2,2.39-6.73,4.27-8.87,10.7-2.24,6.71-1.61,8.85-1.11,11.33,.37,1.81-.24,3.65-1.58,4.91-.86,.81-1.81,1.89-2.65,3.26-1.52,2.5-2.37,7.68-2.74,10.5-.16,1.21-.6,2.35-1.26,3.38-1.21,1.89-3.15,5.58-3.84,10.69-1.04,7.67-1.52,8.94-1.52,8.94,0,0-4.4,38.65-4.4,45.04s33.15,52.7,33.15,52.7Z" style="fill:none;"/></clipPath><clipPath id="clippath-1"><path d="M210.96,197.92c-1.03-5.41-4.15-4.49-4.15-4.49,0,0-.32-12.93-2.56-18.53-3.83-9.58-7.26-12.84-10.22-14.05-3.9-1.6-7.03-13.07-7.03-13.07l-1.85-4.5s-4.75-9.47-9.65-14.37c-9.58-9.58-21.4-11.82-21.4-11.82h-4.08c-3.27-.23-8.82,2.75-9.98,3.16l-.63,2.98,.18-3.12s-33,12.03-47.99,12.57c-22.47,.8-40.19-5.2-40.19-5.2v1.28s-1.92,1.28-2.56,3.19l-1.92,2.56s-1.99,2.87-2.63,12.46c-.64,9.58,3.03,23.18,3.03,23.18l.88,3.33,.64,5.11-.07-.06s0,13.16,7.45,26.14c5.71,9.95,15.54,27.21,15.86,32.99,.32,5.78-1.02,15.21,1.92,18.19,2.88,2.92,9.26,3.56,13.1,2.92s5.75-3.19,5.11-6.39c-.91-4.56,0-7.03,0-7.03-.07-.32,.64,0,.64,0,0,0,.91,2.47,0,7.03-.64,3.19,1.28,5.75,5.11,6.39s10.22,0,13.1-2.92c.93-.95,1.43-2.55,1.69-4.47l3.27,.2s1.98,3.04,7.09,2.8,7.5,.01,7.5,.01l2.08-5.37c-.64,4.47,.64,7.97,1.28,9.09,.64,1.13,6.45,4.77,10.57,2.63,4.12-2.14,9.23-1.5,9.23-1.5,2.48-.32,7.71,1.5,7.71,1.5,7.07,.86,8.26-2.78,11.45-3.57,3.19-.78,11.5-4.37,11.5-4.37,1.84-.36,4.47-1.24,4.47-1.24,0,0,3.8-.89,8.3-1.28,5.54-.48,15.79-9.86,17.25-23,1.48-13.26-3.51-29.37-3.51-29.37Zm-97.95,49.78c.07-3.43-.18-7.19-.03-10.06,.14-2.58,2.18-7.45,4.9-12.93l-4.88,22.98Z" style="fill:none;"/></clipPath><clipPath id="clippath-2"><path d="M120.65,73.37c3.72,4.46,4.38,7.95,4.38,7.95,0,0,.81,.96,4,4.79,3.19,3.83,7.03,4.47,6.39,6.39-.64,1.92-5.29,3.13-5.29,3.13,0,0,.82,3.9,3.37,5.81,2.56,1.92-.64,4.47-.64,4.47,0,0,5.31,6.2,5.95,6.84,0,0,4.94,3.83,4.4,4.65-2.05,3.1-1.89,.94-2.59,1.29-1.03,.52-27.93,14.74-49.65,14.74s-43.23-5.8-43.23-5.8c0,0-1.45-3.15-1.45-4.88v-1.44s-1.11-.7-4.3-.06c-3.19,.64-5.11-3.83-4.47-4.47s9.58-10.86,9.58-10.86c0,0-3.19-2.56-.64-4.47,2.56-1.92,3.37-5.81,3.37-5.81,0,0-4.65-1.21-5.29-3.13-.64-1.92,3.19-2.56,6.39-6.39,3.19-3.83,4.24-4.96,4.24-4.96,0,0,.71-3.28,4.47-7.78,5-6,15-12,31-12s25,6,30,12Z" style="fill:none;"/></clipPath></defs><g id="pattern_1"><path d="M213.2,234.31c0-3.19,6.39-7.03,10.86-11.5,4.47-4.47,4.94-7.52,4.94-7.52,.4-5.28-1.1-8.89-1.1-8.89,0,0,2.55-6.59,3.83-10.7,1.28-4.11,0-6.27,0-6.27-.71-4.31-3.83-11.34-3.83-11.34,0,0,1.27-3.83,1.91-8.12,.64-4.29,0-7.58,0-7.58l-1.91-4.47s3.83-6.66,3.83-10.42-.64-14.12-1.92-19.87c-1.28-5.75,1.92-7.51,1.92-12.78v-7.03s-1.92-3.19-1.92-7.03,7.67-10.22,10.86-17.95c2.09-5.05,.64-12.07,0-15.91l-3.19-8.94c-1.28-5.75-5.75-7.67-5.75-3.19s-6.47,.6-12.46,4.15c-6.03,3.58-8.46,9.7-9.39,11.34-.52,.92-1.14,1.78-1.86,2.55-2.2,2.39-6.73,4.27-8.87,10.7-2.24,6.71-1.61,8.85-1.11,11.33,.37,1.81-.24,3.65-1.58,4.91-.86,.81-1.81,1.89-2.65,3.26-1.52,2.5-2.37,7.68-2.74,10.5-.16,1.21-.6,2.35-1.26,3.38-1.21,1.89-3.15,5.58-3.84,10.69-1.04,7.67-1.52,8.94-1.52,8.94,0,0-4.4,38.65-4.4,45.04s33.15,52.7,33.15,52.7Z" style="fill:#fff;"/><path d="M213.62,234.36c0-3.19,6.39-7.03,10.86-11.5,4.47-4.47,4.94-7.52,4.94-7.52,.4-5.28-1.1-8.89-1.1-8.89,0,0,2.55-6.59,3.83-10.7,1.28-4.11,0-6.27,0-6.27-.71-4.31-3.83-11.34-3.83-11.34,0,0,1.27-3.83,1.91-8.12,.64-4.29,0-7.58,0-7.58l-1.91-4.47s3.83-6.66,3.83-10.42-.64-14.12-1.92-19.87c-1.28-5.75,1.92-7.51,1.92-12.78v-7.03s-1.92-3.19-1.92-7.03,7.67-10.22,10.86-17.95c2.09-5.05,.64-12.07,0-15.91l-3.19-8.94c-1.28-5.75-5.75-7.67-5.75-3.19s-6.47,.6-12.46,4.15c-6.03,3.58-8.46,9.7-9.39,11.34-.52,.92-1.14,1.78-1.86,2.55-2.2,2.39-6.73,4.27-8.87,10.7-2.24,6.71-1.61,8.85-1.11,11.33,.37,1.81-.24,3.65-1.58,4.91-.86,.81-1.81,1.89-2.65,3.26-1.52,2.5-2.37,7.68-2.74,10.5-.16,1.21-.6,2.35-1.26,3.38-1.21,1.89-3.15,5.58-3.84,10.69-1.04,7.67-1.52,8.94-1.52,8.94,0,0-4.4,38.65-4.4,45.04s33.15,52.7,33.15,52.7Z" style="fill:#d1a67b;"/><g style="clip-path:url(#clippath);"><g><path d="M193.53,84.08c1.28,.24,.97,.55,2.28,1.62,.56,.45,.76,1.5,1.45,2.24,.53,.57,.7,1.48,1.28,2.24,.48,.64,2.15,.52,2.65,1.31,.43,.69-.4,2.17,.03,2.98,.39,.72,.86,1.4,1.24,2.23,.4,.88,1.44,1.43,1.73,2.26,.32,.91-.27,2.02-.05,2.88,.24,.94,1.46,1.6,1.61,2.47,.16,.95,.58,1.85,.68,2.73,.12,.96-.22,1.93-.11,2.81,.11,.97,.03,1.91,.21,2.77,.19,.94-.17,2.12,.2,2.94s1.66,1.19,2.32,1.88c.6,.63,1.15,1.33,1.8,1.95,.64,.61,1.34,1.15,1.99,1.76s1.29,1.22,1.92,1.84,1.59,.96,2.18,1.62,.35,1.99,.86,2.71,.99,1.39,1.39,2.18,1.16,1.4,1.41,2.26c.22,.77,.4,1.63,.64,2.52,.22,.81,.32,1.69,.57,2.54s.47,1.67,.75,2.49,.82,1.56,1.14,2.35,.46,1.73,.85,2.47c.42,.8,1.11,1.4,1.6,2.06,.55,.73,1.42,.95,2.07,1.44,.71,.53,1.07,1.63,1.92,1.8,.66,.13,1.15-1,2.12-1.65,.64-.43,1.27-.88,1.98-1.58,.59-.58,1.96-.5,2.58-1.23,.54-.65,.44-1.86,.99-2.61,.51-.69,1.05-1.38,1.55-2.14s1.96-.87,2.42-1.65,.68-1.69,1.1-2.48-.13-2.06,.25-2.86,.6-1.65,.93-2.47,.67-1.62,.95-2.46,.4-1.7,.62-2.55,1.38-1.53,1.52-2.39c.15-.91,.31-1.82,.34-2.68,.03-.92,.3-1.91,.18-2.76-.13-.91-1.25-1.58-1.57-2.38s-.51-1.71-1.09-2.39-.82-1.9-1.63-2.39-1.61-.85-2.34-1.33c-.79-.51-2.01-.31-2.72-.82-.77-.55-.9-1.84-1.57-2.39-.74-.6-2.4-.09-3.02-.68-.69-.66-.38-2.21-.93-2.86-.62-.73-1.63-1.07-2.07-1.79-.51-.82-.57-1.76-.86-2.56-.33-.89-1.38-1.62-1.44-2.48-.07-.91,.23-1.93,.44-2.81s1-1.54,1.46-2.36c.39-.7,.91-1.46,1.79-2.1,.69-.5,1.79-.43,2.69-.9,.79-.41,1.24-1.62,2.15-2.01,.83-.36,1.58-1.06,2.47-1.42s2.13,.3,3.01-.05,1.69-.85,2.56-1.2,1.45-1.41,2.3-1.78,1.7-.79,2.52-1.19c.88-.43,1.56-1.02,2.33-1.49,.86-.52,2.15-.27,2.81-.84,.78-.67,1.49-1.39,1.91-2.15,.47-.84,.73-1.88,.62-2.85-.1-.91-1.22-1.15-1.99-1.79-.62-.51-1.23-.87-2.2-1.23-.78-.29-1.46-1.07-2.43-1.27-.84-.18-1.8,.2-2.76,.08-.87-.11-1.75-.1-2.7-.17-.88-.06-1.77-.23-2.7-.26s-1.79-.16-2.72-.16-1.81-.48-2.73-.46-1.83-.24-2.75-.21-1.8,.65-2.71,.7-1.83,0-2.74,.07-1.88-.46-2.77-.4-1.76,1.24-2.65,1.31c-.94,.08-1.89-.33-2.77-.26-.96,.08-1.9-.19-2.76-.12-.99,.09-1.91,.15-2.73,.22-1.07,.09-1.95,.8-2.67,.84-.83,.05-1.83,.37-2.77,.27-.85-.08-1.73-.58-2.65-.74-.86-.16-1.53-1.33-2.42-1.53-.87-.19-1.95,.5-2.82,.29-.88-.21-1.5-1.46-2.36-1.66s-2.07,.92-2.92,.75c-.92-.19-1.74-.51-2.57-.62-.98-.13-1.85-1.25-2.65-1.21-1.05,.06-2.12,.6-2.72,1.1s-.29,1.57-.28,2.69c0,.92-.09,1.87-.15,2.78s-1,1.79-1.08,2.68c-.08,.95-.1,1.9-.13,2.77-.04,.98-.1,1.99,0,2.83,.12,1,1.11,1.67,1.59,2.38s1.03,1.18,2.03,1.52c.73,.25,1.62,.18,2.71,.18Z" style="fill:#d28728;"/><path d="M206.32,81.85c.86,.49,1.68,1.18,2.67,1.68,.91,.46,1.83,1,2.8,1.47s2.05,.63,2.99,1.09,1.8,1.19,2.71,1.67c.98,.52,1.7,1.39,2.54,1.91,1,.61,2.3,.66,2.99,1.27,1,.88,1.03,2.05,1.07,2.9s-.23,1.52-1.49,2.31c-.93,.59-1.69,1.49-2.67,1.9s-2.1,.66-3.15,.89c-1.04,.23-2.15,.25-3.24,.3s-2.11-.3-3.21-.41c-1.04-.1-2.09-.21-3.18-.44-1.02-.22-2.14-.22-3.2-.56-1-.32-2.1-.49-3.13-.91-.97-.39-1.66-1.51-2.67-1.98s-2.22-.61-3.17-1.14c-1.02-.56-1.98-1.14-2.87-1.73-.98-.64-1.93-1.24-2.76-1.92-.91-.75-1.84-1.44-2.55-2.23-.79-.88-1.05-2.08-1.55-3-.57-1.03-1.54-1.9-1.71-2.96s.13-2.29,.41-3.41c.3-1.24,.97-2.06,1.64-2.71,.73-.7,1.59-1.26,2.86-1.26,.9,0,1.96,.22,3.18,.56,.91,.26,1.98,.51,3.09,.96,.91,.37,1.82,.98,2.88,1.48,.91,.43,1.7,1.24,2.72,1.77,.9,.47,2.19,.34,3.19,.88,.9,.49,1.84,1.02,2.82,1.58Z" style="fill:#473513;"/><path d="M284.08,80.75c-.11,.87-.49,1.5-.88,2.37-.36,.79,.14,2.17-.41,2.95-.5,.71-2.31,.44-2.95,1.14-.59,.66-1.16,1.29-1.84,1.93s-.96,1.59-1.67,2.19-1.24,1.35-1.97,1.91-1.5,1.03-2.25,1.56-1.9,.45-2.65,.94-1.11,1.66-1.87,2.13c-.8,.5-2.02,.25-2.77,.69-.83,.49-1.6,.97-2.33,1.39-.88,.51-1.58,1.12-2.27,1.51-1.06,.61-1.34,1.95-1.81,2.26-.66,.44-1.53,.96-2.51,1.35-.77,.3-1.92-.2-2.89,.1-.81,.25-1.44,1.41-2.39,1.66-.83,.22-1.84,0-2.78,.23-.84,.21-1.75,.35-2.69,.58-.85,.21-1.94-.41-2.87-.18-.86,.21-1.48,1.49-2.41,1.72-.86,.21-1.96-.4-2.88-.17-.86,.22-1.51,1.37-2.42,1.61s-1.88-.01-2.74,.21c-.89,.23-1.71,.64-2.57,.85s-1.75,.53-2.61,.74c-.9,.21-1.87,.01-2.73,.2s-1.87-.11-2.73,.06c-.91,.18-1.66,.98-2.53,1.12-.91,.16-1.69,1.05-2.56,1.17-.92,.13-1.89-.27-2.76-.19-.92,.09-1.85-.26-2.72-.23-.93,.03-1.79-.38-2.66-.41-.92-.04-1.78,.06-2.65-.06-1.52-.2-2.02-.41-1.59-1.3,.28-.58,.87-1.37,1.83-2.14,.64-.52,1.14-1.51,2.02-2.08,.73-.47,1.59-.95,2.46-1.44,.78-.44,1.69-.78,2.56-1.22,.81-.41,2.1,.12,2.98-.28s1.39-1.45,2.27-1.82c.85-.36,1.75-.67,2.64-1s1.58-1.19,2.47-1.49,2.07,.26,2.97,0,1.86-.3,2.76-.54,1.74-.83,2.64-1.02,1.81-.22,2.58-.43c.92-.25,1.76-.51,2.5-.78,.92-.33,1.39-1.35,2.07-1.7,.89-.46,2.03-.22,2.61-.7,.77-.63,.95-1.62,1.38-2.25,.53-.78,.78-1.58,1.19-2.3s.73-1.84,1.47-2.43c.57-.46,1.93,.16,2.93-.18,.84-.28,1.74-.92,2.54-1.57,.69-.56,.73-1.87,1.38-2.64,.59-.7,2.07-.79,2.62-1.61s.12-2.15,.59-2.99,1.43-1.41,1.84-2.26,.75-1.79,1.1-2.65c.38-.92-.1-2.11,.19-2.96,.34-.99,2.14-1.46,2.35-2.27,.33-1.23,.27-2.41,.27-3.01,0-.68,.52-.82,2.04-.17,.72,.31,1.32,1.26,2.27,1.77,.76,.41,1.33,1.29,2.19,1.8,.78,.46,1.55,.98,2.37,1.49s1.7,.78,2.5,1.29,1.69,.85,2.47,1.37,1.98,.47,2.73,.98c.82,.55,1.61,1.09,2.33,1.59,.87,.59,1.32,1.62,1.98,2.08,1.42,.99,1.59,.29,2.23,1.53Z" style="fill:#473513;"/><path d="M166.78,104.95c.97,.3,.66,.17,1.74,.86,.49,.31,1.12,.58,1.81,.96,.55,.3,1.31,.28,1.97,.6,.58,.27,.74,1.62,1.41,1.89,.6,.25,1.34,.33,2.01,.56,.62,.21,1.31,.44,1.98,.62,.64,.18,1.3,.5,1.98,.65s1.58-1.1,2.27-.99,1.18,1.52,1.87,1.58,1.39,.22,2.08,.24,1.36-1.33,2.06-1.35c.73-.02,1.5,1.03,2.21,.99s1.44-.44,2.14-.49,1.38-1.02,2.08-1.08c.74-.06,1.49,.31,2.19,.25,.74-.07,1.42-.5,2.11-.57,.74-.07,1.53,.52,2.22,.45,.75-.07,1.47-.17,2.15-.23,.76-.07,1.53,.64,2.2,.6,.79-.05,1.46-.55,2.11-.55,.84,0,1.39,.56,1.97,.7,.91,.21,2.17-.3,2.33,.34,.15,.6,.4,.47,1.35,.72,.6,.16,1.25,.12,2.09,.2,.67,.06,1.33,1.06,2.12,1.1,.7,.04,1.46-.4,2.23-.36,.71,.04,1.46-.06,2.21,0s1.44,.41,2.18,.49,1.32,1.05,2.05,1.17,1.71-1.03,2.43-.85c.72,.18,1.15,1.33,1.84,1.58s1.29,.6,1.94,.93c.79,.41,.88,.81,1.16,1.35,.35,.66,.37,.81,.1,1.54-.23,.62,.11,1.58-.45,2.15-.48,.49-.77,1.52-1.43,1.91-.61,.36-1.69-.02-2.4,.22s-1.45-.12-2.18-.05-1.56,1.34-2.29,1.2-1.33-.27-2.07-.33-1.37-1.13-2.11-1.14-1.44,.58-2.18,.6-1.46-.69-2.19-.67-1.41,1.15-2.15,1.17-1.46-.16-2.19-.15-1.46-.09-2.2-.11-1.39-1.04-2.13-1.09-1.46,.32-2.19,.22-1.34-.61-2.07-.75-1.59,1.13-2.26,1.07c-.72-.06-1.34-.96-2.03-.94s-1.42-.04-2.12,.03-1.33,.59-2.03,.71-1.47-.31-2.17-.17-1.22,.97-1.92,1.12-1.37,.23-2.07,.37-1.34,.48-2.05,.59c-.67,.1-1.4,.13-2.12,.21-.68,.08-1.41,0-2.13,.05-.68,.04-1.4-.12-2.13-.11-.68,.01-1.39,0-2.12-.02s-1.4-.04-2.12-.05-1.4-.85-2.12-.85-1.41,1.31-2.12,1.31-1.41,0-2.12,0-1.42,.21-2.12,.21-1.42-.4-2.13-.4-1.42-.63-2.12-.64-1.41-.5-2.1-.52-1.48,.86-2.16,.82c-.73-.05-1.36-.91-2.04-.98-.74-.08-1.64,1.09-2.29,.97-.75-.14-1.2-1.4-1.81-1.59-.76-.24-1.1-.8-1.61-1.15-.66-.45-1.29-.43-1.44-1.09-.14-.58,.33-1.34,.26-2.17-.06-.67-.68-1.33-.71-2.1-.03-.7-1.07-1.41-1.07-2.16s1.1-1.45,1.11-2.18-.02-1.46,0-2.17-.92-1.51-.89-2.21c.03-.77,1.09-1.45,1.13-2.13,.04-.81,.37-1.53,.41-2.15,.08-1.33-1.37-1.29-.3-1.5s.99-.72,2.08-.52,.99,.71,2.08,.91,1.17-.28,2.26-.09,.98,.82,2.06,1.02c1.09,.2,1.31-1.03,2.4-.83s1.04,.47,2.13,.67,1.11,.27,2.18,.55,.92,.78,1.98,1.11Z" style="fill:#473513;"/><path d="M170.6,185.71c0-.79,1.02-1.68,1.88-2.43,.6-.52,1.02-1.8,1.94-2.29,.75-.4,1.66-.9,2.58-1.27,.81-.33,2.27,.87,3.18,.56,.85-.28,1.29-2.05,2.2-2.31s2.12,.79,3.03,.57,1.7-.82,2.61-1.01,2.01,.7,2.92,.54,1.56-2.05,2.45-2.18c.94-.14,1.89-.3,2.78-.39,.96-.1,1.94,.06,2.81,.01,1-.06,1.98-.54,2.81-.52,.79,.01,1.69,1.92,2.74,1.94,.85,.01,1.81-1.84,2.81-1.83,.88,.01,1.8,.08,2.77,.08,.89,0,1.82,1.59,2.78,1.58,.9,0,1.84,.12,2.79,.11s1.85,.21,2.79,.19,1.78-2.15,2.72-2.18,1.94,1.91,2.87,1.86,1.79-1.35,2.71-1.41,1.93,.7,2.84,.62,1.78-.98,2.69-1.08c.94-.11,1.78-.75,2.68-.88,.94-.14,2.03,.79,2.91,.62,.95-.18,1.59-1.51,2.46-1.72,.95-.23,1.76-.49,2.59-.77,.95-.32,2.19,.35,2.95-.04,.92-.48,.89-1.84,1.45-2.44,.53-.56,1.58-.9,2.37-1.56,.64-.53,2.09-.14,2.87-.72,.69-.51,.84-1.86,1.62-2.38,.73-.49,1.7-.66,2.49-1.15s1.04-1.79,1.83-2.24,2.43,.68,3.24,.26,.99-2.04,1.8-2.43c.82-.39,1.83-.39,2.65-.74s1.6-.95,2.43-1.25c.88-.32,1.78-.55,2.61-.79,.91-.26,1.83-.42,2.68-.57,.95-.16,1.91-1.07,2.74-1.06,.99,0,1.55,2.06,2.32,2.35,.88,.33,1.82,.05,2.34,.8,.46,.66,1.09,1.39,1.21,2.42,.1,.81,.85,1.64,.94,2.58,.08,.84-.14,1.76-.07,2.69,.06,.85-1.26,1.83-1.21,2.74,.05,.86,.85,1.7,.88,2.61s.95,1.73,.98,2.63-1.38,1.78-1.38,2.68,.11,1.76,.1,2.65-.66,1.74-.69,2.63,.35,1.77,.3,2.65-.36,1.74-.43,2.61,1.41,1.93,1.31,2.8-1.15,1.65-1.29,2.52-.11,1.79-.28,2.64c-.18,.89,.25,1.92,.03,2.75-.23,.89-.38,1.82-.67,2.62-.31,.87-1.74,1.25-2.11,2.01-.41,.84-.84,1.51-1.33,2.19-.55,.76-.52,1.95-1.17,2.47-.65,.52-1.71,.57-2.51,1.08-.71,.46-1.64,.58-2.45,1.02-.76,.41-1.44,.96-2.27,1.36s-1,2.1-1.84,2.46-2.17-.64-3.01-.32-1.3,1.67-2.15,1.95-1.86,.09-2.71,.34-1.76,.36-2.62,.57-1.84-.04-2.7,.13-1.63,1.12-2.5,1.25-1.88-.52-2.75-.45c-.92,.08-1.79-.08-2.64-.07-.94,0-1.92,1.42-2.76,1.33-.95-.1-1.74-1.14-2.53-1.37-.92-.28-1.98-.33-2.65-.8s-.8-2.1-1.71-2.53c-.76-.36-2.37,1.11-3.27,.78-.81-.3-.98-2.6-1.88-2.88-.84-.26-1.92,.12-2.82-.13s-1.99,.56-2.89,.34-1.38-2.08-2.27-2.28-2.05,.94-2.94,.76-1.61-1.28-2.5-1.44-1.74-.72-2.63-.86-2,.88-2.88,.75c-.93-.13-1.71-1.21-2.57-1.32-.95-.12-2.06,1.6-2.91,1.51-.98-.1-1.82-.73-2.64-.79-1.08-.08-1.95-.99-2.67-1s-1.6,.16-2.66,.14c-.8-.01-1.7,.17-2.66,.13-.84-.04-1.79,.57-2.71,.48-.85-.08-1.75-.34-2.65-.47s-1.67-.71-2.55-.9-1.7-.46-2.56-.71-1.33-1.42-2.16-1.75-1.96,.17-2.74-.24-1.19-1.35-1.92-1.86-1.17-1.17-1.82-1.79-1.26-1.04-1.81-1.76-2.42-.53-2.85-1.33c-.41-.76-.74-1.72-1.04-2.59-.28-.8,.45-1.97,.27-2.87-.17-.83-.32-1.68-.4-2.6-.07-.85-.92-1.72-.91-2.65Z" style="fill:#d28728;"/><path d="M205.37,147.09c-.57-.96-.93-.84-.06-1.42,.34-.22,.73-1.39,1.92-1.25,.59,.07,1.14,1.25,2.02,1.46,.64,.15,1.49-.23,2.3,.01,.65,.19,1.21,.91,1.98,1.16,.82,.27,1.69,.37,2.46,.52,.85,.17,1.73-.12,2.52-.08,.86,.04,1.62-.45,2.41-.53,.85-.08,1.69,.23,2.46,.05,.83-.19,1.63-.36,2.38-.62,.81-.28,1.76-.14,2.49-.44,.8-.33,1.43-.98,2.15-1.26,.83-.33,1.49-1.09,2.23-1.24,.87-.18,1.58,.72,2.34,.98,.69,.24,1.61,.11,2.23,.87,.49,.59,.98,1.26,1.51,1.93,.48,.62,.52,1.62,1.02,2.29s1.42,.97,1.89,1.66,1.25,1.15,1.69,1.84,.69,1.52,1.09,2.23,.87,1.43,1.22,2.16,.45,1.64,.73,2.38c.29,.8,.67,1.57,.84,2.33,.18,.84-.43,1.71-.44,2.48,0,.85,.2,1.62-.08,2.36s-.56,1.65-1.32,2.11c-.63,.38-1.48,.68-2.36,.91-.73,.19-1.62,.04-2.48,.15-.77,.1-1.61-.2-2.46-.15-.79,.05-1.59,.27-2.43,.29-.8,.01-1.62,.18-2.45,.18s-1.63-.46-2.45-.47-1.65-.11-2.46-.12-1.65,1.11-2.45,1.12c-.85,.01-1.68-.64-2.46-.6-.87,.05-1.64,.49-2.4,.6-.9,.12-1.7,.12-2.38,.35s-1.51,.55-2.41,.68c-.76,.11-1.61,.23-2.49,.28-.79,.04-1.64,.03-2.5,0-.81-.02-1.67,.17-2.5,.1s-1.68-.12-2.49-.23-1.65-.35-2.46-.51c-.83-.16-1.48-1.09-2.25-1.3-.83-.22-1.61-.43-2.34-.7-.84-.31-1.86-.08-2.52-.44-.82-.46-1.02-1.49-1.48-2.04-.59-.7-.61-1.07-.41-1.89,.17-.73-.7-1.56-.88-2.35-.16-.7-.03-1.55-.38-2.29-.32-.66-1.17-1.07-1.59-1.75-.4-.64-.51-1.48-.95-2.13s-.33-1.65-.76-2.29-1.58-.84-1.96-1.49c-.41-.69-.09-1.72-.39-2.39-.34-.75-.56-1.36-.67-2.07-.13-.8-1.04-1.65-.77-2.36,.29-.78,.9-1.53,1.43-2.03s1.29-1.18,2.05-1.44c.68-.23,1.66,.79,2.48,.76,.72-.03,1.52-.97,2.33-.86,.73,.1,1.3,1.14,2.08,1.34,.72,.19,1.56-.02,2.32,.24,.71,.25,1.4,.59,2.12,.9s1.21,.96,1.92,1.32,1.59,.27,2.27,.67Z" style="fill:#d28728;"/><path d="M192.27,225.2c17.44-.61,29.14-.53,39.14,0,10,.53,19.08,2.65,19.08-8.63,0-11.28-42.35,3.33-47.28,0-4.93-3.33-24.49-6.98-24.92-1.75s-3.38,10.99,13.98,10.38Z" style="fill:#d28728;"/><path d="M215.85,132.44c.61-.06,1.29,.43,1.94,.39,.61-.04,1.23-.42,1.88-.44s1.25-.01,1.9-.02,1.25,.2,1.9,.21,1.25,.27,1.89,.28,1.27-.61,1.92-.59,1.24,.51,1.88,.54,1.27-.21,1.91-.18c.53,.03,1.16,.05,1.86,.09,.57,.03,1.15,.82,1.81,.86,.59,.03,1.27-.91,1.92-.87,.6,.04,1.22,.1,1.86,.14s1.19,.69,1.82,.74,1.22,.27,1.85,.32,1.26-.07,1.87-.02,1.26,.03,1.86,.08,1.22,.49,1.82,.55c.64,.06,1.31-.36,1.9-.3,.66,.07,1.29,.08,1.86,.16,.7,.1,1.24,.63,1.76,.73,.94,.18,1.72-.02,1.9,.18,.28,.31-.29,.79-.81,1.58-.29,.44-.51,.94-1.09,1.42-.43,.36-.66,1.13-1.28,1.49-.51,.29-1.13,.52-1.76,.78-.55,.23-1.11,.6-1.76,.8-.57,.18-1.2,.38-1.86,.53-.59,.13-1.32-.29-1.98-.2-.6,.09-1.15,.9-1.81,.96-.61,.06-1.27,.04-1.93,.07-.61,.02-1.27,.06-1.93,.06-.62,0-1.25-.57-1.91-.59s-1.28-.15-1.91-.16c-.64-.01-1.28,.62-1.92,.62s-1.27-.11-1.91-.1-1.29-.43-1.93-.4-1.28,.08-1.91,.11c-.65,.03-1.28,.15-1.91,.19s-1.32-.31-1.94-.26-1.26,.42-1.88,.47-1.33-.28-1.95-.22c-.65,.07-1.19,1.04-1.8,1.11-.66,.07-1.3,.11-1.9,.19-.67,.08-1.38-.44-1.97-.37-.69,.08-1.3,.37-1.87,.43-.74,.08-1.36,.41-1.88,.45-1.24,.08-1.94-.3-1.73-.64,.17-.27-.17-.88-1.02-1.45-.46-.31-1.05-.6-1.62-.97-.52-.34-1.06-.68-1.56-1.05-.54-.4-1.21-.62-1.6-1.05-.49-.55-.38-1.19-.38-1.75,0-.52,.25-.62,.93-1.11,.41-.29,.57-1.22,1.29-1.49,.51-.2,1.2-.14,1.89-.32,.55-.15,1.16-.28,1.84-.42,.57-.11,1.23,.04,1.9-.06,.59-.09,1.19-.25,1.85-.34,.59-.08,1.18-.42,1.84-.49,.6-.07,1.19-.59,1.84-.65Z" style="fill:#473513;"/><path d="M223.84,143.31c.59-.35,1.08-.82,1.67-1.09s1.17-.71,1.78-.93,1.36-.11,2-.26,1.31-.19,1.96-.28,1.29-.54,1.95-.57,1.34,.31,2,.33c.67,.02,1.37-.42,2.03-.35s1.36,.07,2.01,.17,1.17,1.1,1.81,1.22,1.4-.16,2.04-.02c.67,.15,1.32,.3,1.95,.44,.68,.16,1.48-.42,2.1-.28,.69,.15,1.15,1.26,1.77,1.35,.71,.11,1.43-.46,2.03-.46s1.18-.18,1.87-.26c.6-.07,1.34,.52,2,.4,.61-.11,1.14-.75,1.79-.88s1.24-.26,1.88-.4,1.29-.1,1.92-.25,1.25-.32,1.87-.47,1.4,.26,2.01,.11c.65-.15,1.11-1.01,1.71-1.15,.66-.15,1.27-.44,1.86-.55,.7-.13,1.45,.53,2.02,.47,.81-.09,1.52-.94,1.97-.83,.49,.12,1.12,.24,1.87,.38,.58,.11,1.04,1.2,1.72,1.32,.62,.11,1.39-.48,2.03-.35,.64,.13,1.26,.38,1.87,.52,.65,.15,1.25,.44,1.84,.61,.68,.21,1.3,.43,1.8,.67,.78,.36,.95,.82,1.07,1.28,.14,.51,.44,1.24,.77,1.99,.26,.6,1.21,1,1.42,1.68s-.55,1.46-.54,2.13-.03,1.06-.38,1.69c-.3,.53-.44,1.01-1.11,1.45-.52,.35-.93,.9-1.59,1.16-.59,.23-1.3,.12-1.97,.29-.62,.16-1.19,.59-1.87,.72-.64,.12-1.32,.01-2,.11s-1.24,.71-1.91,.79-1.36-.25-2.03-.17-1.35-.13-2.02-.06-1.31,.3-1.98,.38-1.31,.3-1.97,.39-1.34,.12-2,.23c-.6,.11-1.19,.75-1.89,.81-.62,.06-1.3-.05-1.99-.02-.63,.02-1.3-.24-1.98-.24-.64,0-1.32,.69-2,.66-.64-.02-1.29-.46-1.96-.5s-1.28-.44-1.94-.49-1.35,.39-2.02,.32-1.2-1.06-1.86-1.14-1.32,0-1.97-.09-1.27-.36-1.92-.46-1.41,.46-2.06,.35-1.23-.6-1.88-.72-1.28-.29-1.93-.43-1.25-.42-1.9-.56-1.41,.23-2.05,.08-1.21-.61-1.85-.77-1.36-.04-1.99-.21c-.69-.19-1.37-.26-1.98-.46-.69-.22-1.33-.47-1.91-.7-.68-.27-1.14-.9-1.69-1.17-.67-.33-1.29-.57-1.78-.91-.65-.43-.75-1.21-1.13-1.64-.54-.6-1.2-.79-1.31-1.36-.13-.69-.23-1.44,.16-2.02,.35-.51,1.17-.62,1.8-.99Z" style="fill:#473513;"/><path d="M221.24,195.01c3.14,.07,6.06,2.36,9.71,2.92,3.65,.56,11.46-1.46,11.46-1.46l1.32-6.49s-11.89,1.14-12.78-1.99c-.89-3.12-12.38-10.04-12.38-10.04,0,0-4.27,14.62-4.34,15.31s7,1.75,7,1.75Z" style="fill:#d28728;"/><path d="M205.23,164.58c1.04,0,1.8,.28,2.6,.47,1,.24,2.07,.09,2.77,.56,.8,.54,1.12,1.56,1.67,2.28s1.28,1.37,1.74,2.16,.72,1.78,1.27,2.48,1.31,1.34,2.17,1.75c.73,.35,1.64,.24,2.72,.22s2.12,.19,2.96,.48c.98,.34,1.81,.95,2.53,1.57s1.24,1.51,1.82,2.31,1.4,1.42,1.94,2.23,1,1.68,1.63,2.41,1.28,1.45,2.14,1.94c.92,.52,1.83,1.01,2.54,1.58,.91,.73,1.62,1.55,2.01,2.24,.59,1.03,.39,1.99-.68,2.56-.61,.33-1.56,.27-2.89,.34-.9,.05-1.86,.13-2.88,.11-.94-.02-1.92,0-2.9-.06s-1.96,.07-2.92-.02c-1.01-.09-2.01,.02-2.92-.09-1.07-.13-2.02-.53-2.85-.66-1.62-.25-2.66-.51-2.79-.62-.15-.12-1.45,.15-3,.61-.9,.27-1.8,1.05-2.82,1.19s-2.06-.36-2.96-.59c-.98-.25-1.78-.57-2.22-1.61-.25-.58-.73-1.39-.88-2.47-.11-.77-.06-1.67-.13-2.61-.06-.82-.02-1.7-.05-2.61-.03-.84-.09-1.72-.11-2.6s.29-1.74,.29-2.61-.41-1.75-.39-2.61-.03-1.77-.01-2.61c.02-.92,.37-1.79,.39-2.6,.03-.97-.04-1.86-.01-2.61,.07-1.61-.75-1.63,.21-2.51Z" style="fill:#473513;"/><path d="M202.95,214.99c.43-1.12,.22-.98,1.14-2.03,.46-.52,.88-1.31,1.67-1.75,.63-.34,1.47-.42,2.35-.59,.71-.13,1.5-.3,2.39-.25,.94,.05,1.73-.1,2.48-.37,.81-.3,1.6-.63,2.25-1.19s1.34-1.11,1.89-1.78,1.02-1.4,1.55-2.06c.55-.7,.93-1.53,1.53-2.07,.66-.59,1.5-.79,2.32-1,1.35-.35,2.23-.4,2.66,.22s.35,1.64,.34,2.79c0,.84-.24,1.78-.28,2.77-.03,.9,.24,1.84,.3,2.78s-.23,1.84-.51,2.66-.58,1.77-1.18,2.46c-.58,.68-1.48,1.04-2.25,1.55s-1.55,.86-2.41,1.18-1.64,.99-2.52,1.13c-.73,.11-1.72-.14-2.76-.02-.84,.1-1.77,.1-2.72,.2-.89,.1-1.77,.66-2.67,.75s-1.86,.15-2.73,.24c-1,.1-1.94,0-2.74,.07-1.63,.15-2.85,1.62-2.78,.26,.08-1.62,.44-1.61,1.12-3.09s.99-1.35,1.57-2.87Z" style="fill:#473513;"/><path d="M211.52,161.13c-.15-1.03,.63-1.78,1.12-2.43s.9-1.63,1.86-1.96c.74-.26,1.78,.24,2.74,.13,.81-.09,1.66,.11,2.6,.1,.84,0,1.67,.2,2.58,.26,.85,.05,1.7,.14,2.59,.24s1.78-.35,2.66-.22,1.87-.64,2.75-.49,1.48,1.75,2.35,1.91,1.92-.63,2.77-.46,1.8,.09,2.64,.27c.89,.19,1.74,.44,2.57,.62,.91,.2,1.56,1.35,2.36,1.52,.96,.21,2.06-.72,2.81-.56,1.2,.25,1.97,1,2.47,1.04,.58,.04,1.5,.14,2.67,.32,.78,.12,1.78-.37,2.76-.22,.83,.13,1.67,.61,2.6,.75,.86,.13,1.67,.83,2.58,.95s1.75,.5,2.65,.61,1.91-.97,2.8-.89c.91,.08,1.77,.56,2.64,.6,.93,.05,1.83,.62,2.68,.61,.96,0,1.95,.4,2.77,.31,1.01-.12,1.72-1.31,2.44-1.59,1.01-.39,1.82-.7,2.06-1.48s.76-1.56,1.48-2.29c.6-.6,1.21-1.37,2.02-1.92,.74-.5,1.37-1.34,2.21-1.78,.81-.43,2.02-.11,2.86-.48s1.67-.9,2.49-1.22c.95-.37,1.8-.79,2.56-1.05,1.58-.54,1.16-1.18,2.15-.21s.54,.64,.19,2.35c-.17,.82-1.19,1.61-1.41,2.65-.19,.9-.39,1.84-.61,2.81s.27,2.04,.05,2.97-.37,1.94-.6,2.83c-.26,1.01-1.27,1.74-1.53,2.56-.38,1.23-.61,2.09-.93,2.57-.34,.52-.82,.69-2.08,.72-.77,.02-1.6-.44-2.61-.53-.83-.08-1.85,.99-2.79,.87-.86-.11-1.66-.95-2.57-1.07s-1.87,.47-2.76,.36-1.74-.79-2.61-.87c-.93-.08-1.86,.48-2.71,.46-.96-.02-1.9-.85-2.72-.76-1.02,.11-1.71,.97-2.39,1.33-.72,.38-1.73,.39-2.72,.58-.83,.16-1.78-.37-2.74-.31-.87,.06-1.73,.1-2.67,.1-.89,0-1.79,.29-2.71,.25s-1.86,.79-2.76,.73-1.78-.91-2.67-.97c-.93-.06-1.83-.4-2.71-.44-.96-.04-1.89-.02-2.74-.02-1.01,0-1.99-.06-2.78,.04-.7,.09-1.54,.82-2.61,.81-.81,0-1.75,.24-2.71,.17-.85-.06-1.78-.07-2.71-.19-.86-.11-1.64-1.04-2.54-1.2s-1.77-.18-2.66-.38-1.95,.37-2.82,.13-1.54-1.18-2.38-1.47-1.68-.67-2.48-1.03c-.85-.37-1.33-1.32-2.07-1.75-.81-.48-1.99-.28-2.64-.83-.72-.61-1.2-1.4-1.67-2.11-.5-.77-1.32-1.49-1.45-2.38Z" style="fill:#473513;"/><path d="M242.33,120.56c-.25-1.19,.64-1.75,1.24-2.25,.56-.47,1.17-1.31,2.28-1.33,.79-.01,1.73,.18,2.72,.32,.83,.12,1.74,.25,2.67,.45,.85,.18,1.72,.45,2.62,.67s1.64,.81,2.52,1.04,1.74,.52,2.6,.73,1.81,.3,2.66,.47c.93,.19,1.89-.09,2.72,.03,.99,.13,1.85,.41,2.64,.39,1.08-.04,2-.1,2.59-.55s1.11-1.43,2-1.88c.73-.37,1.87-.06,2.75-.41,.79-.32,1.54-.84,2.41-1.14,.82-.28,1.52-1.04,2.39-1.3s1.76-.32,2.62-.56,1.84-.01,2.7-.22,1.76-.34,2.61-.53c.9-.2,1.73-.57,2.57-.74,.93-.18,1.89,.14,2.7,0,1.01-.17,1.83-.66,2.56-.74,1.3-.15,1.09,.21,.36,1.36-.37,.58-.69,1.45-1.42,2.23-.55,.59-1.5,.88-2.21,1.53-.62,.57-1.26,1.17-1.97,1.77-.67,.56-.84,1.77-1.56,2.32-.7,.54-1.51,.98-2.24,1.49s-1.48,1.04-2.22,1.52-1.86,.42-2.61,.85c-.82,.46-1.6,.84-2.36,1.18-.9,.41-1.57,1.15-2.33,1.34s-1.62,.72-2.65,.99c-.84,.22-1.8,.3-2.78,.54-.87,.21-1.8,.45-2.75,.65-.9,.19-1.91-.08-2.85,.08s-1.8,.68-2.74,.79-1.88,.32-2.82,.36c-.95,.04-1.92,.13-2.85,.08s-1.81-.93-2.72-1.08-1.92,0-2.8-.3-1.91-.43-2.72-.9-1.46-1.23-2.15-1.89-1.29-1.35-1.82-2.17c-.48-.75-.44-1.78-.79-2.71-.32-.83-1.37-1.49-1.57-2.47Z" style="fill:#473513;"/></g></g><g><path d="M140.05,120.25l.06-.26c-.37,.32-.35,.37-.06,.26Z" style="fill:#fff;"/><path d="M210.96,197.92c-1.03-5.41-4.15-4.49-4.15-4.49,0,0-.32-12.93-2.56-18.53-3.83-9.58-7.26-12.84-10.22-14.05-3.9-1.6-7.03-13.07-7.03-13.07l-1.85-4.5s-4.75-9.47-9.65-14.37c-9.58-9.58-21.4-11.82-21.4-11.82h-4.08c-3.27-.23-8.82,2.75-9.98,3.16l-.63,2.98,.18-3.12s-33,12.03-47.99,12.57c-22.47,.8-40.19-5.2-40.19-5.2v1.28s-1.92,1.28-2.56,3.19l-1.92,2.56s-1.99,2.87-2.63,12.46c-.64,9.58,3.03,23.18,3.03,23.18l.88,3.33,.64,5.11-.07-.06s0,13.16,7.45,26.14c5.71,9.95,15.54,27.21,15.86,32.99,.32,5.78-1.02,15.21,1.92,18.19,2.88,2.92,9.26,3.56,13.1,2.92s5.75-3.19,5.11-6.39c-.91-4.56,0-7.03,0-7.03-.07-.32,.64,0,.64,0,0,0,.91,2.47,0,7.03-.64,3.19,1.28,5.75,5.11,6.39s10.22,0,13.1-2.92c.93-.95,1.43-2.55,1.69-4.47l3.27,.2s1.98,3.04,7.09,2.8,7.5,.01,7.5,.01l2.08-5.37c-.64,4.47,.64,7.97,1.28,9.09,.64,1.13,6.45,4.77,10.57,2.63,4.12-2.14,9.23-1.5,9.23-1.5,2.48-.32,7.71,1.5,7.71,1.5,7.07,.86,8.26-2.78,11.45-3.57,3.19-.78,11.5-4.37,11.5-4.37,1.84-.36,4.47-1.24,4.47-1.24,0,0,3.8-.89,8.3-1.28,5.54-.48,15.79-9.86,17.25-23,1.48-13.26-3.51-29.37-3.51-29.37Zm-97.95,49.78c.07-3.43-.18-7.19-.03-10.06,.14-2.58,2.18-7.45,4.9-12.93l-4.88,22.98Z" style="fill:#d1a67b;"/></g><g style="clip-path:url(#clippath-1);"><g><path d="M190.34,155.68c-.39,.43-1.66,.45-2.4,1.25-.51,.55-1.28,1-1.92,1.68-.55,.58-.43,1.86-1.05,2.51-.56,.59-1.33,1.03-1.94,1.66-.58,.59-1.02,1.35-1.63,1.96s-1.82,.56-2.43,1.16-.48,1.94-1.08,2.53-1.05,1.38-1.66,1.96-2.12,.24-2.74,.8c-.65,.59-.91,1.57-1.53,2.1-.68,.59-1.33,1.13-1.95,1.63-.73,.58-1.09,1.57-1.71,2-.84,.58-1.93,.48-2.54,.72-.64,.26-1.35,.83-2.28,1.29-.71,.35-1.65,.45-2.48,.9-.73,.39-1.5,.81-2.3,1.27-.73,.42-1.13,1.46-1.9,1.93s-1.8,.38-2.55,.85-1.39,1.07-2.12,1.55-1.85,.4-2.57,.9-1.44,1.06-2.13,1.57-1.23,1.34-1.9,1.86c-.72,.57-1.04,1.55-1.66,2.1-.71,.63-1.97,.62-2.52,1.2-.68,.73-.55,1.98-.92,2.61-.33,.58-1.17,1.11-2.08,1.7-.65,.42-1.15,1.44-2.03,1.85-.74,.34-1.55,.83-2.41,1.16-.78,.29-1.77,.23-2.63,.5-.81,.26-2.02-.79-2.88-.56s-1.58,.71-2.44,.91-1.53,1.17-2.39,1.34-1.8-.1-2.66,.02-1.79-.25-2.65-.16-1.67,1.25-2.52,1.3c-.91,.05-1.81,0-2.65,0-.92-.01-1.85,.05-2.66-.05-.95-.11-1.57-1.37-2.32-1.6-.96-.29-1.43-.6-1.99-1.11-.67-.6-2.14-.83-2.1-1.79,.04-.78,.09-1.67,.22-2.54,.12-.79,1.23-1.43,1.43-2.28,.19-.78-.04-1.7,.22-2.52,.25-.77,.19-1.71,.51-2.5s1.52-1.11,1.91-1.87-.33-2.1,.11-2.82,.96-1.43,1.46-2.11,1.05-1.37,1.61-2,2.07-.32,2.68-.9,.7-1.7,1.36-2.22,1.89-.17,2.6-.63,.67-2.09,1.42-2.5,1.91,.12,2.69-.22,1.61-.32,2.41-.6,1.5-.59,2.32-.81,1.41-1.2,2.25-1.36,1.7-.09,2.48-.27c.84-.2,1.63-.43,2.4-.65,.83-.24,1.37-1.17,2.12-1.44,.82-.29,1.92,.29,2.65-.04,.79-.35,1.42-.97,2.12-1.35,.76-.41,1.3-1.07,1.96-1.51,.71-.48,1.74-.48,2.35-1,.66-.55,1.67-.75,2.23-1.33s1.08-1.36,1.59-2,1.26-1.22,1.72-1.9,.08-1.95,.5-2.66,.7-1.51,1.11-2.23,1.17-1.24,1.59-1.96,.29-1.77,.73-2.48c.41-.65,1.24-1.13,1.64-1.96,.35-.72,1.41-1.19,1.76-2.01,.32-.75,.26-1.71,.58-2.53,.3-.77,.63-1.56,.94-2.37s.67-1.55,.97-2.36-.12-1.85,.18-2.65,1.56-1.23,1.86-2.02,.72-1.54,1.04-2.32-.76-2.18-.43-2.94,1.03-1.45,1.38-2.19c.38-.8,1.83-1,2.22-1.72,.43-.78,.62-1.59,1.07-2.26,.51-.76,.74-1.59,1.28-2.15,.65-.68,.92-1.82,1.61-2.16,.79-.39,1.78,.31,2.63,.44,.72,.11,1.68-.19,2.57,.22,.71,.33,1.57,.62,2.35,1.11,.68,.43,1.44,.91,2.15,1.45,.65,.5,1.46,.92,2.12,1.51,.62,.55,.9,1.53,1.52,2.15s1.17,1.23,1.74,1.89,1.1,1.3,1.63,1.98,.26,1.89,.73,2.6,2,.75,2.43,1.49,.97,1.47,1.33,2.24-.44,2.03-.15,2.83,1.72,1.27,1.92,2.09,.62,1.73,.71,2.57-1.38,1.76-1.42,2.61,.57,1.74,.38,2.58,.23,1.93-.11,2.73-2.17,.74-2.65,1.48c-.45,.69,.17,2.2-.42,2.87Z" style="fill:#d28728;"/><path d="M152.43,116.7c-.6,1.15-.69-.22-2.17,.32-.7,.25-1.06,1.61-1.91,2.09-.7,.39-1.8,.28-2.52,.86-.64,.51-1.61,.85-2.22,1.53-.55,.61-1.15,1.37-1.65,2.13-.45,.69,0,1.95-.38,2.78-.34,.75-1.29,1.31-1.56,2.18s.46,2.04,.24,2.85c-.26,.91-1.77,1.41-1.99,2.22-.24,.91,.71,2.09,.48,2.9-.26,.9-.67,1.73-.97,2.54-.32,.85-1.13,1.48-1.55,2.26s-1.33,1.14-1.91,1.86c-.52,.65-1.07,1.22-1.77,1.86-.61,.56-.77,1.73-1.55,2.29-.67,.48-1.4,1.01-2.22,1.51-.71,.44-1.88,.18-2.71,.64-.78,.42-1.4,1.16-2.14,1.62s-1.34,1.18-2.06,1.68-1.04,1.56-1.74,2.09-2.25,0-2.93,.54-1.08,1.5-1.75,2.05-1.6,.85-2.27,1.4-.89,1.72-1.56,2.26-1.78,.6-2.47,1.12-.9,1.82-1.61,2.29c-.75,.5-1.48,1.11-2.23,1.52-.79,.43-2.05-.16-2.85,.14s-1.49,1.14-2.35,1.3-1.8,.66-2.69,.61c-.82-.04-1.7-.1-2.58-.18-.83-.08-1.73-.04-2.59-.16-.84-.12-1.48-1.61-2.32-1.76s-1.89,.64-2.71,.45-1.42-1.35-2.21-1.6c-.86-.27-1.75-.24-2.48-.56-.86-.38-1.66-.65-2.28-1.11-.79-.59-1.37-1.17-1.63-1.89-.28-.75-.71-1.8-.24-2.69,.33-.62,1.61-.72,2.37-1.41,.66-.6,.35-1.96,.81-2.59,.52-.71,.89-1.29,1.21-2.02,.36-.79,1.17-1.32,1.37-2.1,.22-.83,.78-1.58,.91-2.38,.14-.85,.43-1.63,.59-2.41,.18-.85,.27-1.58,.62-2.3s.85-1.09,1.54-1.64c.57-.46,.73-1.87,1.64-2.16,.7-.23,1.77,.87,2.71,.75,.85-.11,1.46-1.46,2.26-1.68s1.72-.11,2.49-.43,1.9-.04,2.64-.45,1.48-.93,2.17-1.41,.8-1.79,1.46-2.31,1.73-.55,2.37-1.09,.8-1.69,1.43-2.24,1.88-.44,2.51-.96c.68-.56,1.18-1.26,1.83-1.74,.72-.53,1.45-.89,2.15-1.26,.79-.42,1.48-.81,2.26-.97,.9-.18,1.62-.77,2.28-1.36,.63-.55,1.54-1.03,2.01-1.84,.42-.73,.32-1.79,.66-2.64,.31-.8,1.31-1.41,1.58-2.27s.35-1.76,.6-2.6,.02-1.88,.29-2.69c.3-.89,.52-1.78,.88-2.52,.43-.88,1.12-1.5,1.7-2.05s1.1-1.58,1.99-1.98c.77-.34,1.72-.65,2.63-.87,.84-.21,1.78-.44,2.69-.56s1.89,.84,2.77,.8,1.8-.26,2.65-.23c.97,.04,1.89-.13,2.69,0,1.1,.18,1.69,1,2.26,1.31,.53,.29,1.41,.35,2.11,1.06,.52,.53,1.67,.63,2.22,1.29,.51,.61,.09,2.01,.6,2.66s1.02,1.29,1.49,1.92c.53,.72,1.42,1.09,1.83,1.67,.84,1.19,1.34,.66,.78,1.74Z" style="fill:#d28728;"/><path d="M52.35,142.9c1.2,.22,.82,.08,2.05,1.08,.52,.43,.6,1.45,1.25,2.14,.5,.53,1.71,.53,2.25,1.24,.45,.6,1.19,1.11,1.66,1.85,.41,.64,.08,1.78,.49,2.54,.36,.68,1,1.26,1.35,2.04,.38,.83,.43,1.72,.71,2.5,.3,.86,1.5,1.41,1.7,2.22,.22,.88-.43,1.92-.29,2.74,.15,.89,.7,1.69,.8,2.52,.11,.9-.77,1.88-.68,2.7,.11,.91,1.41,1.59,1.57,2.4,.18,.89-.47,2.01-.13,2.77s1.47,1.1,2.09,1.75c.57,.6,.66,1.68,1.27,2.26s1.28,1.07,1.89,1.64,1.92,.41,2.51,1,.48,1.86,1.03,2.47,1.22,1.13,1.7,1.81,.74,1.46,1.11,2.21,.62,1.47,.85,2.28c.21,.73,.81,1.41,1.04,2.24,.21,.76,.33,1.57,.56,2.37s-.1,1.75,.16,2.52,.77,1.49,1.07,2.24,1.45,1.14,1.81,1.84c.39,.75,.96,1.25,1.42,1.87,.51,.69,.04,2.32,.65,2.79,.67,.5,1.82,.4,2.62,.56,.62,.12,1.85,.27,2.75-.34,.6-.4,.38-2.01,1.06-2.67,.55-.54,1.5-.76,2.08-1.44,.51-.61,1.2-1.13,1.71-1.84,.48-.65,.25-1.81,.72-2.53s1.81-.81,2.24-1.55-.09-1.95,.3-2.69,.97-1.35,1.33-2.11,.73-1.49,1.04-2.26,.87-1.45,1.13-2.24,.3-1.65,.51-2.45,.98-1.52,1.11-2.33c.14-.85,.04-1.72,.07-2.53,.03-.87-.62-1.63-.73-2.43-.12-.86,.71-1.94,.4-2.69s-1.73-.87-2.27-1.51-.48-1.86-1.24-2.31c-.76-.45-1.31-1.14-1.99-1.59-.74-.48-2.11,0-2.77-.47-.72-.52-1.48-.99-2.1-1.51-.69-.57-.93-1.62-1.52-2.17-.65-.62-1.06-1.39-1.58-2-.59-.69-.59-1.65-1.01-2.32-.48-.77-1.37-1.17-1.64-1.92-.31-.84-.6-1.61-.66-2.43-.06-.86-.03-1.7,.17-2.52s-.13-1.94,.3-2.71c.37-.66,2.03-.38,2.86-.97,.64-.47,.75-1.98,1.6-2.42,.74-.38,1.52-.9,2.37-1.27,.78-.34,1.77-.29,2.61-.63s1.6-.72,2.43-1.04,1.57-.82,2.39-1.15,1.75-.4,2.54-.74,1.84-.28,2.61-.66c.82-.41,1.74-.65,2.45-1.08,.8-.49,1.04-1.68,1.66-2.22,.73-.63,2.18-.65,2.58-1.36,.44-.79,.79-2.05,.69-2.96-.09-.85-1.53-1.2-2.25-1.8-.58-.48-1.01-1.41-1.92-1.75-.73-.27-1.69-.08-2.6-.27-.79-.17-1.59-.54-2.49-.65-.81-.1-1.67-.14-2.56-.21-.83-.06-1.67-.69-2.54-.72s-1.72,1.12-2.59,1.12-1.71-1.03-2.57-1.01-1.7,.52-2.56,.55-1.69,.67-2.54,.71-1.78-1.02-2.63-.97-1.67,.93-2.51,.99-1.75-.14-2.58-.07c-.88,.07-1.7,.63-2.52,.7-.9,.08-1.82-.56-2.62-.49-.93,.08-1.73,.8-2.51,.87-1.01,.09-1.86,.49-2.54,.53-.78,.05-1.65-.97-2.54-1.06-.8-.08-1.63-.14-2.48-.29-.81-.15-1.63-.27-2.47-.46s-1.79,.29-2.61,.09c-.82-.2-1.39-1.46-2.19-1.66s-1.67-.43-2.47-.6c-.87-.18-1.86,.54-2.63,.43-.92-.12-1.74-.8-2.48-.76-.99,.05-1.76,.59-2.33,1.05s-.72,1.18-.71,2.23c0,.86-.73,1.7-.78,2.55s-.3,1.71-.37,2.56c-.08,.89,.25,1.8,.22,2.63-.04,.92,.43,1.78,.53,2.57,.12,.94,.22,1.75,.66,2.42s1.07,1.15,2.01,1.47c.69,.23,1.44,.74,2.46,.74Z" style="fill:#d28728;"/><path d="M52.33,130.73c-.22,.93,.36,1.83,.49,2.53,.16,.86,.77,1.24,1.35,1.82,.54,.54,1.07,.93,1.89,1.27,.71,.29,1.21,1.59,2.06,1.77,.77,.16,1.68,.08,2.53,.16,.8,.08,1.71-1.06,2.54-1.02s1.62,.52,2.44,.53,1.66,.28,2.46,.28c.86,0,1.69-.22,2.47-.21,.89,.01,1.77-.46,2.51-.41,.99,.07,1.96,.34,2.56,.55,.97,.34,1.42,1.61,.89,2.58-.44,.8-1.04,1.41-1.45,1.98-.59,.8-.66,1.82-1.06,2.29-.82,.97-1.73,1.04-.61,1.45,.49,.18,1.25,.48,2.34,.71,.66,.14,1.66-.75,2.58-.57,.76,.15,1.52,.66,2.43,.81,.8,.13,1.54,1.01,2.42,1.13,.82,.11,1.7,.1,2.57,.18s1.69,.33,2.55,.37,1.73-.9,2.58-.91,1.75,1.03,2.6,.98c.87-.05,1.58-1.42,2.41-1.54,.87-.13,1.66-.17,2.46-.38,.86-.22,1.76-.03,2.51-.36,.81-.36,2.09-.04,2.74-.54,.69-.53,1.17-1.52,1.63-2.24s1.05-1.58,1.23-2.47c.16-.77,.01-1.79-.06-2.72-.07-.88-.19-1.65-.16-2.41,.03-.89,.37-1.59,.52-2.34,.18-.87,.36-1.53,.67-2.22,.36-.78,.02-1.92,.53-2.53s1.1-1.36,1.76-1.85,2.01,.19,2.76-.2,.9-1.84,1.66-2.18,1.8,.05,2.56-.28,1.64-.36,2.4-.72,.82-1.94,1.55-2.35c.76-.44,1.93-.2,2.71-.65s1.75-.56,2.51-1.02c.78-.47,1.42-1.15,2.15-1.62,.79-.49,1.75-.68,2.46-1.16,.8-.54,1.68-.94,2.32-1.44,.83-.65,1.03-1.86,1.5-2.4,.84-.98,1.16-2.04,.34-2.52-.36-.21-1.26,.61-2.51,.94-.69,.18-1.65-.09-2.56,.22-.73,.25-1.59,.37-2.44,.69-.75,.28-1.3,1.18-2.12,1.5-.75,.3-1.71,.17-2.52,.5-.76,.31-1.68,.3-2.48,.63s-1.19,1.47-1.98,1.8-1.53,.68-2.31,1.02-1.74,.21-2.51,.55-1.64,.48-2.41,.81-1.4,1.03-2.17,1.36-1.5,.82-2.26,1.15-1.55,.72-2.3,1.04c-.8,.34-1.91-.13-2.66,.19-.81,.34-1.13,1.78-1.88,2.08-.83,.34-1.58,.79-2.31,1.07-.88,.34-1.99-.2-2.69,.03-1.09,.36-1.94,.16-2.45,.2-.89,.07-1.74-.07-2.6-.06s-1.73,.08-2.6,.04-1.81,.53-2.67,.44-1.85,.3-2.7,.16-1.5-1.61-2.35-1.79-1.8,0-2.63-.21-1.66-.61-2.49-.84-2.01,.59-2.83,.36c-.87-.25-1.46-1.39-2.28-1.61-.88-.24-1.72-.59-2.53-.78-.9-.21-1.82-.24-2.64-.36-.92-.14-1.84,.19-2.67,.21-.93,.02-1.95-.42-2.75-.15-.82,.28-1.42,1.17-2.11,1.79-.59,.54-1.07,1.26-1.56,2.1-.4,.68-.99,1.38-1.32,2.3-.27,.76-.8,1.56-1.01,2.49Z" style="fill:#473513;"/><path d="M63.35,128.22c.81,.46,1.67,.97,2.6,1.44,.86,.43,1.82,.73,2.73,1.17s1.8,.83,2.69,1.26,1.63,1.22,2.48,1.67c.92,.49,1.96,.66,2.76,1.15,.94,.58,1.96,.95,2.61,1.52,.94,.83,1.25,1.9,1.29,2.7s-.22,1.87-1.4,2.62c-.88,.55-1.93,.81-2.85,1.19s-1.97,.5-2.96,.71c-.98,.21-1.95,.68-2.98,.72s-2-.33-3.03-.44c-.98-.1-1.98-.17-3-.4-.96-.21-1.89-.6-2.89-.91-.93-.3-1.97-.42-2.94-.81-.91-.37-1.68-1.14-2.62-1.58s-2.17-.44-3.06-.93c-.95-.52-1.87-1.08-2.71-1.63-.92-.6-1.55-1.53-2.32-2.17-.86-.71-1.77-1.27-2.43-2-.74-.83-1.44-1.66-1.91-2.53-.53-.97-.68-2.04-.84-3.04s.15-1.97,.41-3.02c.29-1.17,.44-2.07,1.07-2.68,.68-.65,1.53-.75,2.72-.75,.84,0,1.91-.42,3.05-.1,.86,.24,1.68,.97,2.73,1.4,.86,.35,1.8,.7,2.79,1.18,.85,.41,1.66,1.03,2.62,1.53,.85,.44,1.71,.95,2.65,1.46,.85,.46,1.84,.75,2.76,1.27Z" style="fill:#473513;"/><path d="M190.44,120.11c-.1,.81-.97,1.51-1.34,2.32-.33,.74-.47,1.58-.98,2.31-.47,.67-1.14,1.19-1.73,1.85-.55,.62-1.36,.96-2,1.56s-.31,2.21-.97,2.77-1.55,.83-2.23,1.35-1.59,.74-2.29,1.23c-.71,.49-1.82,.36-2.53,.82s-1.32,1.12-2.03,1.56c-.75,.47-1.47,.92-2.17,1.34-.78,.46-1.39,1.1-2.08,1.5-.82,.47-1.17,1.59-1.83,1.97-.99,.57-1.96,.63-2.41,.93-.62,.41-1.22,1.26-2.14,1.63-.72,.28-1.74,.04-2.65,.32-.76,.23-1.7,.03-2.6,.27-.78,.21-1.42,1.17-2.3,1.39-.79,.2-1.56,.68-2.44,.89-.8,.2-1.96-.94-2.83-.73-.8,.2-1.46,1.11-2.33,1.33-.81,.2-1.52,.89-2.38,1.11-.81,.21-1.9-.55-2.75-.33-.83,.22-1.34,1.62-2.15,1.82s-1.93-.66-2.73-.46-1.45,1.28-2.26,1.47-1.92-.75-2.73-.57-1.46,1.38-2.26,1.54c-.85,.17-1.83-.47-2.64-.33-.86,.15-1.7,.13-2.51,.24-.86,.12-1.67,.27-2.49,.35-.87,.08-1.65,1-2.47,1.03-.87,.03-1.71-.73-2.53-.76-.87-.03-1.73,.36-2.54,.25-1.43-.19-2.46-1.14-2.06-1.97,.26-.55,1.62-.77,2.52-1.49,.6-.48,1.26-1.06,2.09-1.59,.69-.44,1.31-1.12,2.13-1.58,.73-.41,1.69-.49,2.51-.9,.76-.38,1.29-1.34,2.11-1.71s1.5-.98,2.33-1.32,1.84-.16,2.67-.47,1.76-.3,2.6-.58,1.83-.02,2.67-.28,1.53-1.04,2.38-1.26,1.62-.88,2.47-1.06,1.82,.33,2.55,.13c.87-.23,1.51-.93,2.21-1.18,.86-.31,1.5-.81,2.15-1.14,.84-.43,1.18-1.17,1.73-1.62,.73-.6,1.83-.55,2.24-1.14,.5-.73,.1-1.88,.49-2.55s1.56-.84,2.25-1.4c.53-.43,1.03-1.17,1.96-1.48,.79-.26,1.22-1.03,1.97-1.64,.65-.53,1.9-.49,2.51-1.21,.55-.66,.85-1.58,1.37-2.35s1.34-1.28,1.78-2.08,.15-1.95,.53-2.75,.98-1.53,1.31-2.34c.35-.87,.99-1.6,1.27-2.4,.32-.93,1.04-1.7,1.24-2.47,.31-1.15-.42-2.25-.42-2.81,0-.64,1.35-1.05,2.77-.44,.68,.29,1.42,.92,2.3,1.4,.72,.39,1.33,1.11,2.14,1.59,.73,.43,1.29,1.21,2.06,1.69s1.8,.43,2.55,.91,1.53,.91,2.25,1.39,1.7,.68,2.41,1.16c.77,.52,1.27,1.37,1.95,1.84,.81,.56,1.17,1.62,1.79,2.05,1.33,.93,1.94-.06,2.54,1.11Z" style="fill:#473513;"/><path d="M26.31,149.93c.91,.29,.87-.41,1.89,.24,.46,.29,.89,.81,1.53,1.16,.51,.28,.83,1.11,1.45,1.4,.54,.26,1.31,.16,1.93,.42,.57,.23,1.5-.47,2.13-.26,.59,.2,.89,1.32,1.53,1.5,.6,.17,1.38-.39,2.03-.25s1.11,.87,1.76,.97,1.25,.33,1.9,.39,1.27,.52,1.92,.54,1.29-.56,1.95-.58c.69-.02,1.39,.48,2.06,.45s1.34-.6,2-.65,1.37-.02,2.03-.08,1.38,0,2.04-.06c.69-.06,1.31-.74,1.96-.8,.7-.07,1.41,.21,2.06,.14,.7-.07,1.37-.25,2.01-.3,.72-.06,1.43,.51,2.07,.48,.74-.04,1.39-.78,2-.77,.79,0,1.32,.82,1.87,.95,.85,.2,1.63-.08,1.78,.51,.14,.56,.71,.55,1.6,.78,.57,.15,1.16,.58,1.95,.65,.63,.06,1.35-.47,2.09-.44,.66,.03,1.33,.46,2.05,.5,.67,.03,1.39-.33,2.1-.28s1.39,.18,2.08,.26,1.32,.66,2.01,.77,1.2,.92,1.87,1.09,1.63-.61,2.27-.38,1.28,.65,1.89,.96c.75,.39,1.41,.94,1.68,1.45,.32,.62-.17,1.4-.42,2.08-.21,.58,.13,1.77-.39,2.3-.45,.46-1.58,.3-2.2,.67-.57,.34-1.12,.84-1.79,1.06s-1.42-.34-2.11-.28-1.45,1.28-2.13,1.15-1.25-.39-1.94-.45-1.3-1.07-1.99-1.09-1.36,.55-2.05,.57-1.37-.6-2.06-.57-1.32,1.26-2.01,1.28-1.38-.75-2.07-.75-1.35-.33-2.04-.34-1.36,.28-2.05,.23-1.36-.04-2.04-.12-1.47,.46-2.15,.33-1.15-1.43-1.78-1.49c-.67-.06-1.37,.85-2.02,.86s-1.29,.07-1.94,.14-1.3,.07-1.95,.17-1.39-.34-2.04-.21-1.27,.29-1.93,.43-1.3,.09-1.96,.21-1.13,1.08-1.8,1.18c-.63,.1-1.26,.54-1.94,.61-.64,.07-1.38-.71-2.06-.67-.64,.04-1.28,.91-1.96,.92-.64,.01-1.32-.52-2-.54s-1.31-.25-1.98-.25-1.32-.14-1.99-.14-1.32,.42-1.99,.42-1.33-.24-1.99-.24-1.33-.12-1.99-.12-1.33-.72-1.99-.72-1.35,1.03-2,1.02-1.36,.17-2,.14-1.31-.73-1.96-.77c-.69-.05-1.45,.84-2.08,.77-.69-.08-1.17-1.48-1.78-1.6-.71-.13-1.29-.25-1.87-.43-.71-.23-1.45-.02-1.93-.34-.62-.42-.52-1-.66-1.61-.13-.55-.86-1.1-.93-1.88-.06-.62,.61-1.34,.58-2.07-.02-.65-1.09-1.31-1.1-2.01s.39-1.36,.4-2.05-.17-1.38-.15-2.05,.63-1.36,.66-2.02c.03-.72,.26-1.39,.29-2.03,.04-.76-.04-1.45,0-2.04,.08-1.25-1.36-2.18-.36-2.38,1.02-.2,1.18-.02,2.2,.16s.92,.74,1.94,.92c1.02,.18,.91,.78,1.93,.97s1.27-1.2,2.29-1.01,.77,1.61,1.79,1.79,1.12-.35,2.14-.17,1.3-.65,2.27-.27,.64,1.27,1.63,1.58Z" style="fill:#473513;"/><path d="M112.49,212.28c0-.74-.04-1.83,.77-2.53,.57-.49,1.71-.42,2.58-.88,.71-.38,1.14-1.55,2-1.9,.76-.31,1.79-.11,2.65-.4,.8-.27,1.51-.97,2.36-1.22s2.02,.91,2.87,.7,1.67-.34,2.52-.52,1.34-2.23,2.19-2.39,2,1.35,2.84,1.23,1.71-.39,2.54-.48c.9-.1,1.77,.23,2.59,.18,.94-.06,1.77-1.57,2.55-1.56,.74,.01,1.6,1.04,2.59,1.06,.8,.01,1.67,.65,2.61,.66,.82,0,1.71-.53,2.62-.53,.84,0,1.71-.53,2.61-.53,.85,0,1.72-.08,2.61-.09s1.74,.73,2.63,.71,1.74-.09,2.62-.12,1.72-.5,2.6-.55,1.71-.6,2.58-.66,1.81,.64,2.67,.56,1.66-1.02,2.52-1.11,1.82,.35,2.66,.23c.89-.13,1.89,.47,2.72,.32,.89-.17,1.34-2.18,2.15-2.38,.89-.22,2.01,.61,2.78,.35,.89-.3,1.2-1.62,1.91-1.99,.87-.45,1.48-.6,2-1.16,.49-.53,1.83-.4,2.57-1.02,.6-.5,.88-1.53,1.61-2.07,.65-.48,1.51-.76,2.24-1.25,.68-.46,1.27-1.13,2.01-1.59s1.28-1.17,2.03-1.6,1.57-.7,2.32-1.1,1.93,.04,2.69-.32,1.75-.21,2.52-.53,1.09-1.87,1.87-2.15c.82-.3,1.58-.86,2.36-1.08,.86-.24,1.92,.5,2.72,.37,.9-.15,1.7-.66,2.49-.65,.93,0,1.5,1.03,2.22,1.3,.83,.31,2.45-.4,2.94,.3,.43,.62-.85,1.98-.73,2.95,.09,.77,.16,1.58,.24,2.46,.08,.79,1.8,1.48,1.86,2.34,.06,.8-1.03,1.71-.98,2.57,.05,.81,.2,1.63,.24,2.48s.58,1.63,.6,2.48-1.07,1.66-1.07,2.5,1.66,1.66,1.65,2.5,.09,1.68,.06,2.52-1.18,1.62-1.22,2.45-.73,1.61-.8,2.43,1.21,1.8,1.12,2.62-.65,1.62-.77,2.43-1.12,1.49-1.28,2.29c-.17,.84,.84,1.92,.63,2.7-.22,.83-1.37,1.35-1.63,2.11-.29,.82-.49,1.58-.84,2.3-.38,.79-1.13,1.19-1.59,1.83-.51,.71-.1,2.18-.71,2.67s-1.22,1.17-1.97,1.65c-.67,.43-2.14-.41-2.9,0-.71,.39-.95,1.72-1.73,2.09s-1.28,1.24-2.07,1.58-1.5,.84-2.29,1.13-2.23-1.31-3.03-1.05-1.56,.48-2.37,.71-1.28,1.65-2.09,1.85c-.82,.2-1.81-.41-2.62-.25s-1.66,.14-2.47,.26-1.52,1.57-2.33,1.64c-.86,.08-1.76-.51-2.56-.5-.88,0-1.79,.62-2.58,.53-.89-.1-1.44-1.57-2.19-1.79-.87-.26-2.36,.81-2.99,.36s-.51-2.28-1.36-2.69c-.71-.34-1.98,.44-2.83,.12-.76-.28-1.45-.83-2.3-1.1-.79-.25-1.54-.71-2.38-.94s-1.73-.04-2.57-.24-1.5-1.05-2.33-1.24-1.88,.72-2.72,.56-1.7-.11-2.54-.26c-.85-.15-1.61-.67-2.44-.81s-1.52-1.48-2.34-1.6c-.87-.13-1.69-.55-2.5-.66-.89-.11-1.95,1.57-2.74,1.48-.92-.1-1.64-1.64-2.41-1.7-1.01-.08-1.93,1.13-2.6,1.12s-1.5-.61-2.49-.63c-.76-.01-1.64,.91-2.54,.87-.79-.04-1.52-1.6-2.39-1.68-.8-.07-1.81,1.3-2.66,1.17s-1.35-1.87-2.18-2.05-2.01,1.17-2.81,.93-1.09-1.97-1.87-2.28-1.64-.28-2.38-.66-2.1,.19-2.78-.29-.55-2-1.16-2.57-1.44-.88-1.95-1.55-.33-1.68-.73-2.43c-.38-.71-1.7-1.01-1.99-1.82-.27-.75-.21-1.66-.39-2.51-.16-.78-.2-1.62-.28-2.49-.07-.79,.1-1.62,.11-2.49Z" style="fill:#d28728;"/><path d="M89.79,171.33c.71-1.08,.61-.76,1.95-1.67,.61-.41,1.11-1.24,1.93-1.77,.67-.43,1.23-1.19,2.01-1.68,.69-.43,2.45,.79,3.22,.32,.72-.43,.68-2.19,1.45-2.63s1.53-.79,2.3-1.2,1.34-1.17,2.12-1.56,1.81-.26,2.59-.62,1.94,.15,2.73-.18,1.49-.89,2.29-1.18,1.6-.62,2.41-.87,1.7-.26,2.52-.45c.87-.2,1.64-.55,2.47-.66,.89-.11,1.72-1.06,2.54-1.05,.9,.01,1.59,1.38,2.4,1.56,.79,.17,1.76-.31,2.62-.16,.8,.14,1.78-.7,2.64-.58,.81,.12,1.6,.5,2.45,.6s1.56,1.05,2.42,1.13,1.77-1.01,2.62-.94,1.57,1.67,2.41,1.73,1.7,.04,2.54,.07,1.69,.49,2.53,.51,1.72-.87,2.56-.86,1.72,1,2.55,.98,1.65-2,2.47-2.04c.87-.04,1.73,.58,2.55,.52,.88-.07,1.82,.77,2.62,.68,.89-.1,1.75-.32,2.53-.46,.91-.17,1.57-1.16,2.29-1.38,.96-.29,1.66-.6,2.23-.99s1.53-1.02,2.52-1.03c.73,0,1.46,1.27,2.37,1.45,.75,.15,1.91-.91,2.76-.64,.75,.24,1.04,1.87,1.84,2.2,.74,.31,1.32,.92,2.09,1.3s1.87-.08,2.61,.34,1.55,.64,2.25,1.1,1.83,.31,2.51,.8,1.39,1.02,2.03,1.55,.76,1.72,1.37,2.28,1.75,.68,2.3,1.28-.08,2.27,.42,2.91,1.63,.89,2.05,1.58,.93,1.44,1.24,2.19,.09,1.73,.25,2.52,.8,1.6,.78,2.43-.43,1.69-.84,2.47c-.37,.69-.4,1.88-1.04,2.53-.55,.56-2.25-.14-2.98,.39-.64,.46-1.26,.91-2.03,1.34-.7,.4-1.16,1.25-1.95,1.63-.73,.35-1.46,.76-2.27,1.09-.76,.31-1.26,1.38-2.07,1.68s-1.58,.59-2.39,.85-1.9-.48-2.72-.24-1.35,1.35-2.17,1.58-1.91-.69-2.73-.48-1.4,1.34-2.22,1.53-1.94-.98-2.76-.8-1.44,1.29-2.27,1.46-1.46,1.33-2.29,1.49-2.02-1.7-2.85-1.56-1.59,.66-2.42,.8-1.51,1.26-2.34,1.39-1.69,.15-2.52,.27-1.74-.19-2.56-.08c-.85,.11-1.6,.93-2.42,1.03s-1.87-1.35-2.68-1.26c-.86,.09-1.59,1.18-2.4,1.26-.87,.09-1.75-.41-2.56-.34-.88,.07-1.7,.34-2.5,.39-.9,.06-1.69,.96-2.47,1-.94,.04-1.8-.69-2.54-.68-.78,0-1.62,.48-2.55,.59-.8,.1-1.49,1.14-2.38,1.29-.81,.14-1.76-.35-2.64-.17-.82,.16-1.78-.28-2.64-.1s-1.77-.17-2.62,0-1.48,1.34-2.33,1.49-1.79-.28-2.64-.15-1.65,.58-2.5,.68-1.75-.35-2.6-.29c-.87,.06-1.68,.92-2.53,.93s-1.78,.39-2.62,.34-1.77-.35-2.6-.49-1.64-.74-2.45-1-1.18-1.46-1.93-1.86-1.57-.49-2.23-1.04-1.33-.95-1.87-1.65c-.5-.65-1.09-1.25-1.49-2.05-.37-.73-.96-1.42-1.23-2.28-.25-.77-.16-1.68-.33-2.57-.15-.8-.76-1.59-.84-2.49-.07-.81-.07-1.7-.08-2.6-.01-.82,.54-1.67,.58-2.57,.04-.82,.23-1.66,.31-2.54,.08-.82,.69-1.59,.81-2.48,.11-.82-.59-1.78-.44-2.66,.14-.82,.31-1.64,.48-2.51Z" style="fill:#d28728;"/><path d="M62.4,189.3c-.54-.9-.84-1.28-.02-1.82,.32-.21,.87-.62,1.98-.49,.56,.07,1.19,.49,2.02,.68,.6,.14,1.23,.45,1.99,.67,.61,.18,1.41,0,2.14,.23,.77,.25,1.39,.99,2.12,1.13,.8,.16,1.62,.18,2.36,.22,.8,.04,1.58-.44,2.32-.51,.8-.07,1.56-.12,2.29-.29,.78-.18,1.5-.45,2.2-.69,.76-.26,1.32-.93,2-1.21,.76-.31,1.49-.58,2.17-.85,.78-.31,1.62-.46,2.31-.6,.81-.17,1.61,.25,2.32,.49,.64,.22,1.42,.46,2,1.17,.46,.56,.69,1.36,1.19,2,.45,.58,1.38,.85,1.85,1.49s.41,1.58,.85,2.22,1.48,.87,1.89,1.53-.11,1.86,.26,2.53,1.22,1.1,1.54,1.78,.12,1.62,.38,2.31c.28,.75,1.04,1.3,1.19,2.02,.17,.79,.35,1.57,.35,2.3,0,.8-.33,1.54-.59,2.23s-.9,1.01-1.61,1.45c-.59,.35-1.18,.79-2,1-.69,.18-1.49-.16-2.3-.05-.72,.09-1.44,.37-2.24,.41-.74,.04-1.49,.37-2.28,.38s-1.53,.51-2.3,.51-1.53-.52-2.3-.52-1.55-.02-2.31-.03c-.78,0-1.56-.34-2.31-.33-.8,0-1.57,.26-2.3,.3-.81,.04-1.61-.01-2.32,.08-.84,.11-1.7,.13-2.34,.35s-1.25,.94-2.1,1.06c-.72,.1-1.54-.51-2.36-.47-.75,.04-1.5,.44-2.3,.43s-1.57,.52-2.36,.46-1.48-.81-2.25-.91-1.6,.14-2.35,0-1.41-.85-2.14-1.04c-.78-.21-1.77,.33-2.46,.08-.79-.29-1.56-.62-2.18-.96-.77-.43-1.49-1-1.92-1.52-.55-.65-.6-1.64-.41-2.41,.16-.68,.65-1.48,.48-2.23-.15-.66-1.28-1.03-1.62-1.72-.3-.62-.26-1.44-.66-2.08-.37-.6-.69-1.27-1.1-1.88s-1.13-1-1.53-1.6-.65-1.34-1.01-1.95c-.39-.65-.68-1.33-.97-1.96-.32-.71-.2-1.48-.31-2.14-.12-.75,.17-1.22,.42-1.9,.27-.73,.14-1.53,.64-2.01s1.02-1.22,1.73-1.47c.64-.21,1.49,.05,2.26,.02,.68-.03,1.45-.32,2.21-.22,.68,.09,1.4,.37,2.13,.56,.67,.17,1.22,.84,1.93,1.09,.66,.24,1.58-.11,2.27,.19s1.13,.99,1.79,1.32,1.05,.78,1.69,1.15Z" style="fill:#d28728;"/><path d="M50.36,262.49c16.37-.57,27.36-.49,36.75,0,9.39,.49,17.91,2.49,17.91-8.1,0-10.59-39.77,3.13-44.39,0-4.63-3.13-22.99-6.55-23.4-1.64s-3.17,10.32,13.13,9.74Z" style="fill:#d28728;"/><path d="M72.5,175.37c.57-.05,1.22,.51,1.83,.47,.58-.03,1.16-.17,1.77-.18s1.17,.17,1.78,.17,1.18-.53,1.78-.53,1.17,.49,1.78,.51,1.2-.57,1.8-.55,1.18,.05,1.79,.08,1.19,.02,1.79,.05c.5,.03,1.09,.07,1.75,.11,.54,.03,1.08,.76,1.71,.79,.56,.03,1.13,.19,1.74,.23,.56,.03,1.18-.52,1.78-.49s1.15,.12,1.74,.16,1.15,.28,1.73,.32,1.14,.42,1.72,.46,1.16,.23,1.73,.28,1.26-.77,1.83-.71c.61,.06,1.11,.92,1.66,.98,.62,.07,1.19,.19,1.72,.27,.65,.09,1.27-.13,1.76-.04,.89,.17,1.4,.3,1.57,.49,.26,.29-.08,.57-.57,1.31-.27,.41-.08,1.36-.63,1.81-.41,.34-1.22,.23-1.8,.56-.48,.27-.86,.82-1.46,1.07-.51,.21-1.25-.11-1.86,.07-.54,.16-1.01,.62-1.63,.76-.55,.12-1.1,.47-1.72,.56-.56,.08-1.14,.46-1.76,.51-.57,.05-1.2-.29-1.82-.26-.58,.02-1.18,.18-1.8,.18-.58,0-1.19,.15-1.81,.13s-1.19-.07-1.79-.08-1.19-.68-1.79-.68-1.2,.74-1.79,.75-1.23-.81-1.82-.79-1.19,.52-1.78,.55-1.24-.4-1.83-.36-1.17,.6-1.75,.65-1.23-.15-1.81-.1-1.16,.64-1.73,.7c-.62,.06-1.27-.36-1.84-.3-.62,.07-1.24-.09-1.81-.02-.63,.07-1.21,.25-1.77,.31-.65,.08-1.19,.6-1.73,.66-.69,.08-1.29,.34-1.78,.38-1.17,.08-1.91-.47-1.71-.79,.16-.26-.25-.54-1.05-1.07-.43-.29-.77-.9-1.3-1.25-.49-.32-.92-.72-1.39-1.07-.5-.38-1.49-.21-1.85-.61-.46-.51-.67-1.32-.67-1.84,0-.49,.74-.62,1.38-1.08,.38-.28,.71-.71,1.39-.97,.48-.18,.86-.98,1.51-1.15,.52-.14,1.2,.11,1.83-.02,.54-.11,1.17,.14,1.8,.04,.55-.09,1.06-.71,1.68-.8,.56-.07,1.22,.53,1.84,.47,.56-.06,1.06-1.04,1.68-1.1Z" style="fill:#473513;"/><path d="M154.18,170.58c.55-.32,1.19-.37,1.75-.63s1.1-.51,1.68-.71,.95-1.24,1.55-1.38,1.27-.26,1.89-.34,1.28-.3,1.9-.33,1.29,.42,1.91,.43,1.21,.62,1.83,.68,1.25-.03,1.86,.06,1.28-.05,1.89,.06,1.32-.11,1.92,.03c.63,.14,1.1,.9,1.69,1.04,.63,.15,1.28,.16,1.86,.29,.65,.14,1.38-.44,1.95-.35,.67,.1,1.2,.18,1.77,.18s1.14,.44,1.79,.36c.56-.07,1.11-.44,1.74-.55,.57-.1,1.26,.31,1.87,.18s1-1.01,1.6-1.14,1.22-.04,1.81-.19,1.16-.37,1.74-.51,1.3,.19,1.88,.05c.61-.15,1.17-.41,1.73-.54,.62-.14,1.23-.2,1.79-.31,.66-.12,1.21-.71,1.74-.76,.76-.08,1.33,.78,1.76,.89,.46,.11,1.22-.43,1.92-.3,.55,.1,1.07,.65,1.7,.76,.58,.11,1.18,.21,1.78,.33s1.32-.28,1.9-.14c.61,.14,.95,1.24,1.5,1.4,.64,.19,1.16,.35,1.64,.57,.73,.34,1.96,.1,2.08,.53,.13,.48,.17,1.13,.48,1.83,.25,.56-.31,1.47-.11,2.11s.31,1.11,.32,1.74,.97,1.55,.64,2.14c-.28,.5-1.39,.43-2.01,.85-.49,.33-.88,.85-1.5,1.1-.55,.22-1.09,.62-1.73,.79-.58,.15-1.19,.4-1.83,.52-.6,.11-1.29-.2-1.93-.11s-1.25-.07-1.89,0-1.23,.14-1.86,.21-1.2,.48-1.83,.55-1.27-.05-1.89,.02-1.26,.06-1.88,.15-1.18,.63-1.79,.73c-.56,.1-1.21,.05-1.86,.11-.58,.05-1.21,.05-1.85,.07-.59,.02-1.21-.52-1.85-.52-.6,0-1.21,.23-1.84,.21s-1.2-.33-1.83-.37-1.3,1.01-1.93,.95-1.22-.2-1.85-.27-1.12-1.02-1.74-1.1-1.27,.2-1.88,.12-1.32,.42-1.93,.33-1.11-.87-1.73-.97-1.35,.48-1.96,.37-1.22-.26-1.83-.38-1.2-.38-1.8-.52-1.17-.5-1.77-.64-1.21-.31-1.8-.47-1.11-.66-1.7-.83c-.64-.18-1.33-.09-1.9-.28-.64-.21-1.03-.96-1.59-1.17-.64-.25-1.15-.56-1.67-.81-.63-.31-1.33-.26-1.8-.57-.61-.41-1.34-.53-1.71-.93-.51-.56-.13-1.36-.23-1.89-.12-.65-.27-1.05,.1-1.59,.32-.48,.75-.82,1.34-1.17Z" style="fill:#473513;"/><path d="M77.56,234.15c2.95,.07,5.69,2.22,9.12,2.74,3.42,.52,10.76-1.37,10.76-1.37l1.24-6.09s-11.16,1.07-12-1.87c-.84-2.93-11.62-9.43-11.62-9.43,0,0-4.01,13.73-4.07,14.37s6.58,1.64,6.58,1.64Z" style="fill:#d28728;"/><path d="M62.31,205.34c.98,0,1.94,.4,2.68,.58,.94,.23,1.74,.44,2.4,.88,.75,.51,1.53,.97,2.05,1.64s.75,1.61,1.18,2.35,1.04,1.42,1.55,2.07,.94,1.59,1.74,1.98c.69,.33,1.62,.55,2.64,.54,1.03-.01,1.99-.32,2.77-.05,.92,.31,1.43,1.21,2.1,1.79s1.36,1.16,1.91,1.9,.99,1.54,1.5,2.31,1.17,1.47,1.76,2.15,1.4,1.17,2.2,1.63c.86,.49,1.61,1.09,2.28,1.63,.85,.69,1.7,1.29,2.08,1.94,.56,.97,.31,2.01-.7,2.55-.58,.31-1.51,.22-2.76,.29-.85,.05-1.75,.21-2.71,.19-.89-.02-1.81,.05-2.73,0s-1.83-.11-2.73-.19c-.95-.09-1.85-.28-2.71-.38-1-.12-1.94-.1-2.73-.22-1.52-.23-2.52-.54-2.65-.64-.14-.11-1.23,.38-2.68,.81-.84,.25-1.82,.37-2.78,.51s-1.89-.01-2.73-.23c-.92-.24-1.95-.42-2.36-1.4-.23-.55-.09-1.47-.23-2.48-.1-.72-.34-1.52-.41-2.41-.05-.77-.29-1.59-.33-2.44-.03-.79,.35-1.62,.33-2.46s-.27-1.63-.27-2.45,.33-1.64,.34-2.45-.28-1.67-.26-2.46c.02-.86-.13-1.69-.1-2.46,.03-.92,.04-1.75,.07-2.45,.06-1.51-.63-1.76,.27-2.58Z" style="fill:#473513;"/><path d="M101.58,235.96c.4-1.05,.27-.93,1.13-1.91,.43-.49,.94-1.08,1.68-1.49,.59-.32,1.31-.61,2.13-.76,.66-.12,1.44-.27,2.27-.23,.89,.05,1.69,.21,2.4-.05,.76-.28,1.37-.85,1.98-1.38s1.3-.99,1.81-1.62,1.01-1.27,1.5-1.89c.52-.66,.77-1.54,1.34-2.04,.62-.55,1.43-.8,2.21-1,1.27-.32,1.83-.03,2.24,.55s.87,1.33,.87,2.41c0,.79-.2,1.68-.23,2.61-.03,.85-.16,1.73-.11,2.61s.1,1.79-.17,2.57-.95,1.42-1.51,2.07-1.22,1.11-1.94,1.59-1.38,.97-2.19,1.27-1.65,.44-2.47,.56c-.69,.11-1.55,.28-2.53,.4-.79,.1-1.64,.32-2.53,.42-.84,.09-1.69,.29-2.55,.37s-1.75,.13-2.56,.21c-.94,.09-1.82,.09-2.56,.16-1.53,.15-2.71,1.49-2.64,.21,.08-1.53,.76-1.37,1.36-2.77s.52-1.44,1.07-2.87Z" style="fill:#473513;"/><path d="M147.12,236.03c-.14-.97-.34-1.7,.12-2.31s1.39-.36,2.29-.67c.69-.24,1.31-.78,2.22-.88,.76-.09,1.56-.42,2.43-.42,.79,0,1.61,.13,2.46,.18,.8,.05,1.57,.58,2.41,.67s1.76-.89,2.58-.77,1.48,1.23,2.3,1.36c.82,.13,1.64,.2,2.44,.35s1.76-.37,2.56-.21,1.46,1.22,2.24,1.38c.84,.18,1.88-.74,2.65-.58,.86,.19,1.4,1.57,2.15,1.74,.9,.2,1.96-.79,2.67-.64,1.12,.23,1.92,.14,2.39,.17,.54,.04,1.3,1.27,2.39,1.44,.74,.11,1.53,.53,2.45,.68,.78,.12,1.77-.72,2.65-.59,.81,.12,1.54,.98,2.4,1.1s1.76-.5,2.6-.41,1.6,1.07,2.43,1.14,1.77-.64,2.59-.6c.87,.04,1.71,.02,2.52,.01,.9,0,1.72-.12,2.5-.21,.95-.11,1.87,.13,2.55-.13,.95-.36,1.97-.91,2.2-1.64s.79-1.11,1.47-1.8c.56-.57,.34-2.22,1.11-2.74,.69-.47,1.56-.86,2.34-1.28s2.06,.25,2.84-.1,1.65-.59,2.42-.89c.89-.34,1.66-.76,2.37-1.01,1.48-.5,.97-1.68,1.9-.78s.78,.73,.46,2.33c-.16,.77-1.12,1.52-1.32,2.5-.18,.84,.13,1.84-.07,2.76s-.34,1.79-.54,2.66-.36,1.82-.58,2.66c-.25,.95-.9,1.74-1.14,2.51-.36,1.15-1.04,1.84-1.33,2.3-.31,.49-.85,.32-2.03,.36-.72,.02-1.58,.72-2.52,.63-.78-.07-1.55-.78-2.43-.9-.81-.1-1.63-.35-2.48-.46s-1.71,.06-2.55-.04c-.85-.1-1.76,.43-2.58,.36-.87-.08-1.68-.75-2.49-.77-.91-.02-1.73,.6-2.49,.68-.96,.11-2.06-.47-2.69-.13-.67,.35-1.19,1.39-2.11,1.58-.78,.15-1.65,.65-2.55,.71-.81,.05-1.72-.15-2.6-.16-.83,0-1.68-.53-2.55-.57s-1.66-.83-2.51-.88c-.86-.05-1.77,.76-2.6,.71s-1.74,.03-2.56,0c-.9-.04-1.74,.23-2.54,.23-.95,0-1.9-1.23-2.64-1.13-.66,.09-1.42,1.23-2.42,1.22-.76,0-1.59-.67-2.5-.74-.8-.06-1.58-.49-2.46-.6-.81-.1-1.6-.35-2.45-.49s-1.81,.58-2.64,.4-1.5-.92-2.31-1.14-1.75-.05-2.54-.32c-.81-.28-1.35-1.16-2.11-1.49-.8-.35-1.69-.37-2.39-.78-.76-.45-1.15-1.24-1.76-1.76-.68-.58-1.73-.68-2.16-1.35-.47-.72-.35-1.6-.48-2.44Z" style="fill:#473513;"/><path d="M97.57,164.2c-.23-1.12,.22-1.83,.78-2.29,.53-.44,1.29-.57,2.33-.58,.74-.01,1.62-.29,2.55-.15,.78,.12,1.5,.89,2.37,1.07,.8,.17,1.73-.13,2.57,.08s1.7,.14,2.52,.35,1.66,.32,2.48,.51,1.48,1.21,2.28,1.38c.87,.18,1.75,.22,2.53,.33,.93,.13,1.8-.29,2.55-.31,1.02-.03,1.81-.04,2.36-.47s1.23-1.02,2.07-1.45c.69-.35,1.42-.83,2.24-1.17,.74-.3,1.69-.17,2.51-.45,.77-.26,1.46-.86,2.28-1.1s1.79,.22,2.6,0,1.59-.53,2.39-.73,1.6-.54,2.4-.71c.85-.19,1.56-.9,2.34-1.05,.88-.17,1.78,.04,2.53-.08,.95-.16,1.81-.03,2.49-.11,1.22-.14,1.61,.46,.93,1.54-.35,.55-1.43,.81-2.12,1.54-.52,.55-.66,1.62-1.33,2.23-.59,.54-1.49,.79-2.16,1.35-.63,.52-1.29,1.04-1.97,1.55s-1.29,1.07-1.98,1.55-1.49,.8-2.19,1.24-1.24,1.25-1.94,1.65c-.77,.43-1.66,.57-2.37,.89-.85,.38-1.58,.87-2.3,1.04s-1.72-.08-2.69,.18c-.79,.21-1.52,.94-2.43,1.16-.82,.2-1.8-.14-2.7,.05-.84,.18-1.57,1.07-2.46,1.22s-1.85-.53-2.73-.43-1.73,.14-2.61,.18-1.75,.36-2.62,.32-1.74-.23-2.6-.38-1.65-.53-2.47-.8c-.85-.28-1.67-.44-2.43-.88s-1.86-.46-2.51-1.08-.73-1.66-1.23-2.43c-.45-.7-.63-1.52-.97-2.39-.3-.78-1.12-1.43-1.31-2.35Z" style="fill:#473513;"/></g></g><path d="M90.98,133.43c21.71,0,48.61-14.22,49.65-14.74" style="fill:#fff;"/><path d="M120.65,73.37c3.72,4.46,4.38,7.95,4.38,7.95,0,0,.81,.96,4,4.79,3.19,3.83,7.03,4.47,6.39,6.39-.64,1.92-5.29,3.13-5.29,3.13,0,0,.82,3.9,3.37,5.81,2.56,1.92-.64,4.47-.64,4.47,0,0,5.31,6.2,5.95,6.84,0,0,4.94,3.83,4.4,4.65-2.05,3.1-1.89,.94-2.59,1.29-1.03,.52-27.93,14.74-49.65,14.74s-43.23-5.8-43.23-5.8c0,0-1.45-3.15-1.45-4.88v-1.44s-1.11-.7-4.3-.06c-3.19,.64-5.11-3.83-4.47-4.47s9.58-10.86,9.58-10.86c0,0-3.19-2.56-.64-4.47,2.56-1.92,3.37-5.81,3.37-5.81,0,0-4.65-1.21-5.29-3.13-.64-1.92,3.19-2.56,6.39-6.39,3.19-3.83,4.24-4.96,4.24-4.96,0,0,.71-3.28,4.47-7.78,5-6,15-12,31-12s25,6,30,12Z" style="fill:#d1a67b;"/><g><path d="M58.65,78.37s-3.38-5.53-1.47-15.27c1.74-8.82,2.56-11.98,5.11-12.62s10.22,7.67,11.5,9.58l3.83,5.75-18.97,12.55Z" style="fill:#473513;"/><path d="M121.65,78.37s3.8-7.53,1.88-17.27c-1.74-8.82-2.56-11.98-5.11-12.62s-10.22,7.67-11.5,9.58l-3.83,5.75,18.56,14.55Z" style="fill:#473513;"/></g><g style="clip-path:url(#clippath-2);"><g><path d="M90.61,66.65c-.24,1.23-.27,.91-.59,2.45-.14,.7-.96,1.41-1.12,2.35-.13,.76-.18,1.62-.31,2.5-.12,.79,.34,1.7,.24,2.56-.09,.81-.09,1.64-.16,2.5s-1.04,1.6-1.08,2.45,.86,1.69,.85,2.54-.94,1.7-.91,2.54,.53,1.66,.61,2.5,.49,1.63,.63,2.45,.32,1.64,.52,2.44,.52,1.58,.8,2.35,.18,1.76,.56,2.49,.79,1.53,1.29,2.2,1.57,.81,2.19,1.37,.81,1.67,1.55,2.1c.69,.41,1.75,.18,2.48,.57s1.25,1.11,1.99,1.46,1.65,.27,2.41,.59,1.39,.86,2.16,1.16,1.44,.8,2.21,1.07,1.72-.03,2.5,.22,1.3,1.35,2.08,1.57,1.8-.38,2.58-.18,1.39,1.22,2.18,1.39,1.69-.02,2.48,.14,1.66,.07,2.45,.2,1.59,.47,2.38,.57c.83,.11,1.67-.1,2.46-.02,.84,.08,1.62,.64,2.4,.67,.86,.04,1.69,.15,2.45,.14,.89-.01,1.67-.58,2.41-.66,.93-.1,1.74-.07,2.39-.29,.69-.23,1.13-.85,1.51-1.81,.27-.67,.24-1.49,.37-2.44,.1-.76,.64-1.56,.65-2.47,.01-.79,.26-1.66,.2-2.55-.05-.8-.7-1.6-.81-2.47-.1-.81,.4-1.74,.25-2.59s-.63-1.59-.81-2.43-.55-1.59-.76-2.42-.67-1.54-.91-2.36-.46-1.6-.73-2.4-.34-1.65-.64-2.44,.02-1.82-.3-2.6-1.11-1.37-1.46-2.13-.57-1.61-.95-2.35-1.17-1.29-1.59-2.01-.86-1.45-1.31-2.14-.4-1.8-.9-2.47-1.53-.95-2.08-1.57-.87-1.52-1.48-2.09-1.14-1.34-1.8-1.84-1.49-.92-2.21-1.33-1.54-.6-2.25-.97-1.7-.24-2.42-.57-1.29-1.11-2.01-1.42-1.56-.49-2.3-.76c-.78-.28-1.62-.28-2.37-.51-.8-.24-1.45-.88-2.22-1.06-.81-.19-1.65-.09-2.42-.22-.83-.14-1.57-.9-2.34-.95-.84-.06-1.7,.14-2.47,.17-.85,.04-1.65,.38-2.4,.53-.84,.17-1.65,.34-2.34,.64-.78,.34-1.1,1.22-1.68,1.73-.62,.54-1.84,.59-2.21,1.31s.21,1.74,.1,2.59Z" style="fill:#d28728;"/><path d="M91.05,65.15c1.74,.59,1.57-.14,3.64,.67,.99,.39,2.4,.28,3.64,.82,1.06,.46,1.92,1.58,3.07,2.13,1.08,.52,1.87,1.64,2.96,2.23s2.44,.68,3.45,1.33c1.07,.69,2.12,1.34,3.02,2.08,1.02,.84,1.58,1.95,2.27,2.84,.83,1.07,1.18,2,1.33,3.11,.14,.99,1.16,2.29,.92,3.77-.18,1.12-1.05,2.25-1.42,3.58-.32,1.14-.55,2.39-.99,3.65-.4,1.14-.55,2.45-1.04,3.66-.46,1.14-.99,2.3-1.52,3.47s-1.84,1.89-2.41,3.03-1.29,2.14-1.9,3.24-.9,2.38-1.56,3.45-1.42,2.09-2.12,3.11-1.1,2.35-1.85,3.32c-.8,1.03-1.3,2.3-2.11,3.2-.89,.98-2.14,1.58-3.03,2.36-1.03,.89-1.82,2.09-2.83,2.65-.94,.52-2.47-.04-3.77,.22-1.09,.22-2.18,1.41-3.47,1.46-1.14,.05-2.37-.59-3.63-.67-1.15-.07-2.28-.75-3.5-.93-1.16-.16-2.34-.22-3.54-.47s-2.31-.49-3.49-.8c-1.15-.31-2.42-.22-3.58-.59s-2.29-.74-3.42-1.17-2.31-.76-3.4-1.26-2.27-.92-3.31-1.49c-1.07-.58-1.72-1.86-2.72-2.5-1.03-.66-2.17-1.1-3.1-1.82-.98-.76-2.33-1.09-3.16-1.9-.89-.87-1.5-2.02-2.2-2.95-.75-.99-.71-2.38-1.21-3.44s-1.69-1.97-1.89-3.15-.25-2.47-.11-3.69,.81-2.31,.98-3.45c.19-1.2-.13-2.46,.09-3.59,.23-1.2,.64-2.34,.91-3.45,.3-1.19,.67-2.33,1.02-3.41,.38-1.17,1.29-2.08,1.73-3.12,.49-1.14,1.02-2.14,1.59-3.11,.62-1.06,.75-2.41,1.48-3.28,.79-.93,2.09-1.25,3.01-1.94s1.55-2.08,2.65-2.53,2.37-.45,3.58-.63c1.11-.17,2.33-.53,3.58-.49,1.24,.04,2.35-.08,3.48-.18,1.23-.11,2.46,.36,3.58,.12,1.2-.25,2.3-.72,3.39-1.07,1.17-.36,2.15-1.12,3.22-1.51,1.15-.42,2.65,.28,3.73-.1,1.16-.4,2.2-.75,3.32-.99s2.2-1.63,3.38-1.6c1.14,.03,2.07,1.37,3.26,1.78Z" style="fill:#d28728;"/><path d="M88.46,123.77c.2-1.08,0-.89,.57-2.11,.27-.57,.79-1.14,1.17-1.87,.32-.6,.6-1.29,1-1.96,.36-.6,.92-1.11,1.34-1.74,.4-.59,.75-1.24,1.21-1.82s.77-1.26,1.26-1.81,1.21-.87,1.74-1.36,1.02-1.05,1.61-1.48,1.13-.98,1.77-1.32,1.4-.46,2.1-.67,1.4-.38,2.14-.45c.78-.07,1.53-.35,2.27-.34,.78,.01,1.54,.26,2.26,.35,.77,.1,1.58,.05,2.28,.24,.75,.2,1.5,.47,2.17,.76,.72,.31,1.38,.76,1.99,1.17,.65,.43,1.09,1.1,1.61,1.62,.54,.55,1.06,1.09,1.44,1.73s.55,1.39,.75,2.12,.35,1.43,.35,2.2c0,.73,0,1.47-.18,2.24s-.36,1.47-.56,2.18-.51,1.42-.75,2.12-.22,1.55-.52,2.22-1.11,1.12-1.5,1.75-.44,1.53-.93,2.1-1.25,.87-1.84,1.34-1.17,.89-1.85,1.24c-.64,.33-1.21,.96-1.96,1.19-.68,.21-1.5,.11-2.28,.23-.7,.11-1.45,.1-2.19,.23s-1.45,.15-2.18,.27-1.44,.25-2.16,.35-1.44,.43-2.16,.47-1.46-.29-2.18-.35c-.75-.06-1.56,.34-2.25,.13s-1.39-.62-2-1.02-1.3-.8-1.77-1.42c-.41-.54-.79-1.25-1.1-1.99-.26-.62,.05-1.49-.12-2.26-.15-.66-.33-1.34-.41-2.13-.07-.68-.17-1.37-.18-2.15Z" style="fill:#d28728;"/><path d="M72.04,100.03c.73-.46,1.36-1.02,2.04-1.31,.79-.34,1.63-.44,2.36-.58,.83-.15,1.65-.09,2.41-.02,.81,.08,1.57,.33,2.31,.6s1.39,.73,2.07,1.16,1.54,.59,2.16,1.1,.97,1.31,1.54,1.87,1.19,1.08,1.74,1.64,.96,1.33,1.51,1.87c.6,.6,1.49,.79,2.07,1.26,.68,.55,1.29,.9,1.96,1.16s1.26,.86,2.05,1c.72,.13,1.52-.22,2.3-.17s1.48,.67,2.24,.68,1.53-.38,2.28-.38,1.53,.37,2.26,.39c.8,.03,1.54,.09,2.24,.18,.83,.11,1.68-.14,2.3,.12,.77,.32,1.04,1.07,1.34,1.76,.32,.73,.78,1.44,.71,2.25-.07,.77-.81,1.34-1.18,2.08-.35,.69-.71,1.28-1.3,1.84s-1,1.2-1.74,1.53c-.7,.32-1.47,.18-2.3,.25-.75,.06-1.47,.25-2.3,.05-.91-.22-1.66-.5-2.29-.54-.94-.06-1.57,.66-2.23,.82s-1.36,.46-2.24,.61c-.62,.11-1.42-.26-2.36-.26-.66,0-1.42,.17-2.31,.08-.68-.07-1.4-.43-2.25-.57-.72-.12-1.51-.21-2.33-.45-.73-.21-1.44-.59-2.21-.89-.72-.27-1.48-.51-2.22-.85s-1.44-.65-2.15-1.03-1.43-.7-2.12-1.11-1.39-.8-2.04-1.24-1.23-1.04-1.84-1.52c-.64-.51-1.4-.86-1.96-1.39-.6-.57-1.02-1.28-1.5-1.87-.53-.65-1.18-1.2-1.53-1.86-.4-.75-.49-1.59-.62-2.33-.13-.8-.27-1.64-.01-2.4,.23-.7,.87-1.24,1.48-1.89,.48-.52,.97-1.17,1.72-1.65Z" style="fill:#473513;"/><path d="M93.41,61.17c.3,.05,.69,.19,.93,.81,.14,.36-.01,.89,.11,1.41,.1,.41,.41,.81,.49,1.31,.07,.43,.04,.9,.1,1.39,.06,.44,.26,.88,.31,1.36,.04,.45,.12,.91,.16,1.38s-.21,.93-.18,1.4,.44,.9,.46,1.37-.09,.93-.08,1.39-.35,.93-.35,1.39,.27,.93,.26,1.39-.12,.93-.14,1.39-.1,.93-.12,1.38-.23,.92-.27,1.37,.31,.97,.25,1.42c-.06,.48-.07,.95-.14,1.39-.08,.48-.4,.89-.5,1.32-.11,.49-.38,.88-.51,1.28-.17,.5-.15,.98-.35,1.33-.29,.49-.65,.61-1.01,.72-.43,.13-.82,.34-1.28,.41s-.89-.03-1.36,0-.89,.41-1.36,.39-.9-.18-1.36-.23-.86-.33-1.32-.41-.93,.06-1.38-.04-.86-.31-1.31-.42-.85-.32-1.29-.46-.96,.02-1.4-.12-.78-.54-1.22-.69-.96-.04-1.39-.2-.83-.11-1.26-.1-.83,.12-1.29,.17c-.41,.04-.87-.03-1.34-.04-.4,0-.81-.27-1.28-.37-.39-.08-.77-.25-1.22-.43-.37-.15-.93,0-1.34-.23-.35-.2-.7-.5-1.09-.77-.34-.23-.53-.7-.9-.99-.32-.26-.62-.57-.97-.89s-.74-.54-1.06-.86-.51-.76-.8-1.11-.78-.55-1.04-.92-.27-.91-.5-1.3-.49-.77-.68-1.17-.45-.8-.6-1.22c-.16-.45-.17-.9-.27-1.33-.1-.47-.21-.88-.23-1.32-.03-.48-.35-.96-.27-1.39,.08-.47,.2-.98,.41-1.37s.89-.42,1.25-.72c.3-.25,.64-.54,1.08-.85,.34-.25,.59-.69,1.01-.97,.36-.24,.71-.57,1.12-.83,.38-.24,.95-.18,1.36-.43,.39-.23,.51-.93,.93-1.16s.86-.36,1.27-.58,.79-.48,1.21-.7,.83-.41,1.25-.62,.86-.37,1.28-.56,.88-.31,1.31-.49,.95-.14,1.38-.3,.76-.65,1.2-.8,1.03,.18,1.47,.06,.88-.28,1.33-.37c.47-.1,.9-.23,1.35-.28,.48-.06,.92,.03,1.37,.02,.49,0,.97-.54,1.43-.53,.5,0,.97,.3,1.42,.31,.5,.02,.97,.13,1.42,.16,.51,.03,.97,.21,1.41,.25,.52,.05,1.05-.44,1.47-.38,.55,.07,.94,.65,1.33,.72,.92,.16,.69,.1,1.38,.26Z" style="fill:#473513;"/><path d="M94.05,58.95c1.19,.21,.65-.16,2.4-.06,.64,.04,1.43,.9,2.4,.87,.71-.02,1.5-.46,2.4-.53,.73-.06,1.53-.18,2.4-.29s1.65-.42,2.37-.46c.9-.05,1.7,.37,2.4,.39,.97,.03,1.77-.07,2.39,.02,1.63,.23,1.8,.52,1.84,.06,.03-.44,.31-1.24,.72-2.05,.25-.5,.72-.68,1.68-.97,.55-.17,1.14-.95,2.04-.98,.6-.02,1.07,.96,1.84,1.63,.51,.45,1.17,.86,1.73,1.55,.46,.56,.88,1.22,1.36,1.91,.43,.62,1.15,1.09,1.58,1.79,.4,.65,1.1,1.17,1.5,1.87,.38,.67,.73,1.4,1.11,2.11s.14,1.7,.5,2.41,1.05,1.24,1.39,1.96,.36,1.58,.68,2.3,1.25,1.19,1.55,1.91,.49,1.53,.78,2.25,.12,1.67,.39,2.4c.29,.77,.47,1.54,.71,2.26,.27,.79,.56,1.52,.76,2.23,.24,.83,.32,1.61,.46,2.31,.19,.93,.78,1.65,.77,2.27-.01,1.2-.4,1.98-.93,2.24-.56,.27-1.62,.38-2.55-.06-.63-.3-.99-1.35-1.71-1.85-.63-.43-1.63-.43-2.29-.92s-1.31-.95-1.93-1.43c-.67-.51-1.13-1.24-1.74-1.67-.76-.54-1.56-.72-2.13-.98-.83-.37-.98-1.47-1.52-1.97s-1.34-.78-2.01-1.33c-.53-.44-1.27-.65-2.12-1.04-.62-.29-1.36-.36-2.25-.6-.68-.18-1.35-.7-2.23-.84-.71-.12-1.46-.56-2.32-.64-.73-.07-1.55,.11-2.41,.06-.81-.04-1.54-.28-2.2-.28-.83,0-1.56,.27-2.2,.34-.86,.09-1.46,.62-2.05,.79-.86,.25-1.61,.16-2.12,.51-.65,.45-.88,1.27-1.46,1.7s-1.73,.12-2.68,.04c-.89-.08-1.99,.06-2.61-.46s-1.13-1.66-.86-2.67c.19-.69,.61-1.48,.26-2.33-.28-.68-1.09-1.19-1.52-1.91-.4-.68-.6-1.51-.99-2.19-.42-.74-1.13-1.35-1.35-2.04-.27-.85,.12-1.65,.46-2.34s.53-1.56,.66-2.34,.34-1.52,.64-2.23,.62-1.17,1.43-1.61c.57-.31,1.13-1.19,2.1-1.32,.68-.09,1.53,.26,2.45,.27Z" style="fill:#473513;"/><path d="M65.54,98.78c.2-1.08,.35-.69,.93-1.92,.27-.57,.23-1.41,.62-2.14,.32-.6,1.01-1.05,1.4-1.72,.36-.6,.6-1.31,1.02-1.94,.4-.59,.65-1.32,1.11-1.91s.92-1.15,1.41-1.69,1.28-.78,1.82-1.28,.8-1.33,1.39-1.75,1.32-.69,1.96-1.02,1.3-.73,1.99-.94,1.47,.05,2.21-.01c.78-.07,1.51-.3,2.24-.29,.78,.01,1.56-.19,2.28-.1,.77,.1,1.48,.47,2.19,.66,.75,.2,1.46,.44,2.13,.74,.72,.31,1.44,.58,2.05,.98,.65,.43,1.36,.8,1.88,1.32,.54,.55,1.03,1.19,1.41,1.83s.44,1.48,.64,2.2,.28,1.44,.29,2.22c0,.73-.06,1.46-.23,2.23s-.13,1.53-.33,2.24-.49,1.44-.74,2.13-.5,1.44-.81,2.11-.58,1.43-.97,2.05-1.17,1.01-1.66,1.58-1.07,.97-1.66,1.44-.92,1.28-1.6,1.63c-.64,.33-1.46,.32-2.21,.55-.68,.21-1.4,.34-2.18,.45-.7,.11-1.42,.26-2.16,.39s-1.37,.66-2.09,.78-1.48,.13-2.2,.22-1.48,.19-2.2,.23-1.52,.18-2.23,.12c-.75-.06-1.42-.6-2.1-.8s-1.45-.33-2.06-.74-.96-1.04-1.43-1.65c-.41-.54-1.14-.97-1.45-1.71-.26-.62-.29-1.4-.46-2.18-.15-.66-.05-1.41-.13-2.2-.07-.68-.04-1.35-.06-2.14Z" style="fill:#473513;"/></g></g><g><path d="M48.51,133.39s-3.83,5.75-4.47,15.33c-.64,9.58,3.03,23.18,3.03,23.18" style="fill:none; stroke:#000; stroke-linecap:round; stroke-linejoin:round; stroke-width:3.8px;"/><g><path d="M48.51,180.28s0,13.16,7.45,26.14c5.71,9.95,15.54,27.21,15.86,32.99,.32,5.78-1.02,15.21,1.92,18.19,2.87,2.92,9.26,3.56,13.1,2.92,3.83-.64,5.75-3.19,5.11-6.39-.91-4.56,0-7.03,0-7.03" style="fill:none; stroke:#000; stroke-linecap:round; stroke-linejoin:round; stroke-width:3.8px;"/><path d="M90.03,211.32s1.92,6.39,1.92,12.78v15.97" style="fill:none; stroke:#000; stroke-linecap:round; stroke-linejoin:round; stroke-width:3.8px;"/></g><g><path d="M136.02,180.28s0,13.16-7.45,26.14c-5.71,9.95-15.54,27.21-15.86,32.99s1.02,15.21-1.92,18.19c-2.87,2.92-9.26,3.56-13.1,2.92-3.83-.64-5.75-3.19-5.11-6.39,.91-4.56,0-7.03,0-7.03" style="fill:none; stroke:#000; stroke-linecap:round; stroke-linejoin:round; stroke-width:3.8px;"/><path d="M94.5,211.32s-1.92,6.39-1.92,12.78v15.97" style="fill:none; stroke:#000; stroke-linecap:round; stroke-linejoin:round; stroke-width:3.8px;"/></g><g><path d="M51.54,169.99s-1.76,4.29,1.44,10.04c1.75,3.15,2.98,4.72,2.98,4.72" style="fill:none; stroke:#000; stroke-linecap:round; stroke-linejoin:round; stroke-width:3.8px;"/><path d="M61.34,180.28s-1.33,6.77,3.14,10.6c4.47,3.83,5.43,4.83,5.43,4.83" style="fill:none; stroke:#000; stroke-linecap:round; stroke-linejoin:round; stroke-width:3.8px;"/><path d="M76.83,191.01s-.85,3.71,1.06,8.18c1.77,4.12,8.13,7.23,8.13,7.23" style="fill:none; stroke:#000; stroke-linecap:round; stroke-linejoin:round; stroke-width:3.8px;"/></g><g><path d="M135.98,169.11s1.84,4.39-1.51,10.28c-1.84,3.22-3.13,4.83-3.13,4.83" style="fill:none; stroke:#000; stroke-linecap:round; stroke-linejoin:round; stroke-width:3.8px;"/><path d="M125.7,179.65s1.4,6.93-3.3,10.86c-4.7,3.92-5.7,4.95-5.7,4.95" style="fill:none; stroke:#000; stroke-linecap:round; stroke-linejoin:round; stroke-width:3.8px;"/><path d="M109.43,190.64s.89,3.79-1.12,8.37c-1.86,4.22-8.54,7.4-8.54,7.4" style="fill:none; stroke:#000; stroke-linecap:round; stroke-linejoin:round; stroke-width:3.8px;"/></g><path d="M154.87,117.1s11.82,2.24,21.4,11.82c4.9,4.9,11.5,17.89,11.5,17.89" style="fill:none; stroke:#000; stroke-linecap:round; stroke-linejoin:round; stroke-width:3.8px;"/><path d="M146.76,150.73s.52,5.02,0,8.53c-.52,3.51-3.12,5.89-3.12,5.89" style="fill:none; stroke:#000; stroke-linecap:round; stroke-linejoin:round; stroke-width:3.8px;"/><path d="M185.21,136.58s.48-1.28,1.52-8.94c.69-5.11,2.63-8.8,3.84-10.69,.66-1.02,1.1-2.17,1.26-3.38,.37-2.82,1.23-8,2.74-10.5,.83-1.37,1.79-2.46,2.65-3.26,1.34-1.26,1.95-3.11,1.58-4.91-.5-2.47-1.13-4.62,1.11-11.33,2.14-6.43,6.67-8.31,8.87-10.7,.72-.78,1.34-1.63,1.86-2.55,.92-1.64,3.35-7.76,9.39-11.34,5.99-3.55,12.46,.32,12.46-4.15s4.47-2.56,5.75,3.19" style="fill:none; stroke:#000; stroke-linecap:round; stroke-linejoin:round; stroke-width:3.8px;"/><path d="M241.43,66.96c.64,3.83,2.09,10.85,0,15.91-3.19,7.73-10.86,14.12-10.86,17.95s1.92,7.03,1.92,7.03" style="fill:none; stroke:#000; stroke-linecap:round; stroke-linejoin:round; stroke-width:3.8px;"/><path d="M232.48,114.87c0,5.27-3.19,7.03-1.92,12.78,1.28,5.75,1.92,16.11,1.92,19.87s-3.83,10.42-3.83,10.42" style="fill:none; stroke:#000; stroke-linecap:round; stroke-linejoin:round; stroke-width:3.8px;"/><path d="M230.57,162.41s.64,3.29,0,7.58c-.64,4.29-1.91,8.12-1.91,8.12" style="fill:none; stroke:#000; stroke-linecap:round; stroke-linejoin:round; stroke-width:3.8px;"/><path d="M232.48,189.44s1.28,2.16,0,6.27-3.83,10.7-3.83,10.7" style="fill:none; stroke:#000; stroke-linecap:round; stroke-linejoin:round; stroke-width:3.8px;"/><path d="M229.76,215.3s-.47,3.05-4.94,7.52c-4.47,4.47-10.86,8.3-10.86,11.5" style="fill:none; stroke:#000; stroke-linecap:round; stroke-linejoin:round; stroke-width:3.83px;"/><path d="M194.79,160.86c1.92,2.56,6.39,4.47,10.22,14.05,2.24,5.6,2.56,18.53,2.56,18.53" style="fill:none; stroke:#000; stroke-linecap:round; stroke-linejoin:round; stroke-width:3.8px;"/><path d="M211.72,197.93s4.99,16.11,3.51,29.37c-1.46,13.14-11.7,22.52-17.25,23-4.5,.39-8.3,1.28-8.3,1.28" style="fill:none; stroke:#000; stroke-linecap:round; stroke-linejoin:round; stroke-width:3.8px;"/><path d="M185.21,252.81s-8.3,3.58-11.5,4.37c-3.19,.78-4.38,4.43-11.45,3.57" style="fill:none; stroke:#000; stroke-linecap:round; stroke-linejoin:round; stroke-width:3.8px;"/><path d="M146.99,241.27s-12.88,3.27-13.52,7.75c-.64,4.47,.64,7.97,1.28,9.09s6.45,4.77,10.57,2.63c4.12-2.14,9.23-1.5,9.23-1.5" style="fill:none; stroke:#000; stroke-linecap:round; stroke-linejoin:round; stroke-width:3.83px;"/><path d="M116.8,251.57s1.98,3.04,7.09,2.8c5.11-.24,7.5,.01,7.5,.01" style="fill:none; stroke:#000; stroke-linecap:round; stroke-linejoin:round; stroke-width:3.8px;"/><path d="M56.94,75.33s-1.92-4.47,0-14.21c1.74-8.82,2.56-11.98,5.11-12.62,2.56-.64,10.22,7.67,11.5,9.58l3.83,5.75" style="fill:none; stroke:#000; stroke-linecap:round; stroke-linejoin:round; stroke-width:3.8px;"/><path d="M123.77,75.33s1.92-4.47,0-14.21c-1.74-8.82-2.56-11.98-5.11-12.62-2.56-.64-10.22,7.67-11.5,9.58l-3.83,5.75" style="fill:none; stroke:#000; stroke-linecap:round; stroke-linejoin:round; stroke-width:3.8px;"/><path d="M74.54,65s5.55-2.55,16.45-2.55,15.7,2.55,15.7,2.55" style="fill:none; stroke:#000; stroke-linecap:round; stroke-linejoin:round; stroke-width:3.8px;"/><path d="M55.52,81.33s-.62,.96-3.82,4.79c-3.19,3.83-7.03,4.47-6.39,6.39s5.29,3.13,5.29,3.13c0,0-.82,3.9-3.37,5.81-2.56,1.92,.64,4.47,.64,4.47,0,0-8.94,10.22-9.58,10.86-.64,.64,1.28,5.11,4.47,4.47,3.19-.64,4.3,.06,4.3,.06v1.44c0,1.73,.5,3.43,1.45,4.88h0" style="fill:none; stroke:#000; stroke-linecap:round; stroke-linejoin:round; stroke-width:3.8px;"/><path d="M132.98,127.64h0c.94-1.45,1.45-3.15,1.45-4.88v-1.44s1.11-.7,4.3-.06c3.19,.64,5.11-3.83,4.47-4.47-.64-.64-9.58-10.86-9.58-10.86,0,0,3.19-2.56,.64-4.47-2.56-1.92-3.37-5.81-3.37-5.81,0,0,4.65-1.21,5.29-3.13,.64-1.92-3.19-2.56-6.39-6.39-3.19-3.83-4-4.79-4-4.79" style="fill:none; stroke:#000; stroke-linecap:round; stroke-linejoin:round; stroke-width:3.8px;"/></g></g></svg>