<?xml version="1.0" encoding="UTF-8"?><svg id="pattern_1" xmlns="http://www.w3.org/2000/svg" xmlns:xlink="http://www.w3.org/1999/xlink" viewBox="0 0 280 280"><defs><clipPath id="clippath"><path d="m204,237.73s28.59-14.4,37.46-67.72c6.35-38.16,12.21-84.12-6.79-84.03-16.46.07-10.14,29.08-16.04,65.13-4.92,30.02-17.47,51.08-17.47,51.08,0,0-12.04,32.77,2.84,35.53Z" fill="none"/></clipPath><clipPath id="clippath-1"><path d="m72.69,67.51c-12.3,0-18.13,2.17-29.47,11-12.68,9.88-14.13,18.12-14,27s.9,18.17,6.57,26.33c3.78,5.44,10.43,13.67,10.43,13.67,0,0-1.7,3,25,3,20.81,0,49-15.28,49-38,0-15.4-.32-22.12-13-32-11.34-8.83-22.24-11-34.53-11Z" fill="none"/></clipPath><clipPath id="clippath-2"><path d="m208.22,155.49c-14.28-23.31-43.13-32.33-63.01-33.98-24-1.99-25-12.99-25-12.99,0,0-8.27,26-26.99,29.01-15,2.41-40,2.01-51,.02,0,0,6.75,2,3.01,23-2.43,13.67.58,33,9.02,53,6.15,14.58,4.01,29.46,4.01,29.46,0,0-4.03,4.63-2,9.54,2.03,4.9,9.24,5.91,15,5,5.2-.83,3-2,9-2,4.12,0,8.33,6.54,19,4.99,7.61-1.1,10.86-2.79,11-8,.02-.86-1.8-7.08-2-11-.29-5.5,1-9,1-9,0,0,2,4,8,7s19.85,2.93,13,6c-2.4,1.07-1.14,5.94,1,9,2.81,4,19.36,3.92,25.74,3.92,12.17,0,31.4-4.54,37.45-8.01,6.05-3.48,18.21-5.93,21.8-25.93,4.13-23,10.67-38.49-8.02-69Z" fill="none"/></clipPath></defs><path d="m204,237.73s28.59-14.4,37.46-67.72c6.35-38.16,12.21-84.12-6.79-84.03-16.46.07-10.14,29.08-16.04,65.13-4.92,30.02-17.46,51.08-17.46,51.08,0,0-12.04,32.77,2.84,35.53Z" fill="#cd833b"/><g clip-path="url(#clippath)"><path d="m246.21,111.1s-3.43-6.66-11.7-7.7c-5.8-.73-13.06,2.92-13.06,2.92,0,0,.82-9.82.78-18.68-.06-11.43.99-23.66,13.88-22.8,7.21.48,10.89,10.09,11.13,21.35.24,11.26-1.04,24.91-1.04,24.91Z" fill="#473513"/><path d="m225.1,198.36s-4.92-3.38-6.8-6.46c-1.87-3.08-7.7-7.33-3.54-11.16,4.16-3.83,6.88,4.46,9.92,3.59,3.04-.87,7.23-6.87,9.15-4.79,1.91,2.08.67,8.03.37,15.03-.29,6.99-3.2,6.04-9.11,3.79Z" fill="#473513"/><path d="m209.24,170.68c-3.83-4.16,1.28-8.12,6.32-8.91,1.4-.22,4.87,3.21,6.83,4.29s10.99.46,9.87,3.41c-1.12,2.96-7.04.71-10.16,3.58-3.12,2.87-9.02,1.8-12.85-2.37Z" fill="#473513"/><path d="m225.84,131.16c2.17.53,4.79,5.2,8.78,5.37,4,.17,5.95,1.25,7.83,4.33,1.87,3.08-7.99-.33-10.03.58s-8.08,1.66-10.95-1.46c-2.03-2.21-.58-10.03,4.37-8.83Z" fill="#473513"/><path d="m209.53,187.7c1.1,1.95,2.93,8.21,5.54,11.24s7.49,12.32,4.29,17.19c-1.98,3.01-7.84-1.55-9.91-2.42s-7.68-11.09-7.37-15.32c.22-2.99,4.95-15.14,7.45-10.7Z" fill="#473513"/><path d="m243.26,147.07c4.91,2.21,2.2,9.82.49,10.86-3.08,1.87-12.07,1.5-15.07,1.37-3-.13-7.87-3.33-5.7-7.24,2.16-3.91,7.13-1.53,10.17-2.41s5.2-4.79,10.12-2.58Z" fill="#473513"/><path d="m244.55,116.1c4.91,2.21,2.2,9.82.49,10.86-3.08,1.87-12.07,1.5-15.07,1.37s-7.87-3.33-5.7-7.24,7.13-1.53,10.17-2.41c3.04-.87,5.2-4.79,10.12-2.58Z" fill="#473513"/></g><path d="m246.02,100.1c.87,5.74.1,10.32.06,12.76-.17,10.43-.2,33.75-4.63,55.16-4.6,22.18-13.68,42.43-18.14,51.04-2.6,5.03-4.82,8.51-6.94,11.13" fill="none" stroke="#000" stroke-linecap="round" stroke-linejoin="round" stroke-width="3.8"/><path d="m214,170.87c1.93-7.12,3.83-15.34,5.86-24.76,7.17-33.36-2.53-56.99,12.08-59.95,5.44-1.1,11.06,3.34,12.18,7.68" fill="none" stroke="#000" stroke-linecap="round" stroke-linejoin="round" stroke-width="3.8"/><path d="m72.66,67.53c-12.3,0-18.13,2.18-29.46,11.01-12.68,9.88-14.13,18.13-13.99,27,.14,8.88.9,18.17,6.58,26.33,3.79,5.44,10.43,13.67,10.43,13.67,0,0-1.7,3,25,2.99,20.81,0,49-15.29,48.99-38.02,0-15.4-.32-22.12-13.01-32-11.34-8.82-22.24-10.99-34.54-10.99Z" fill="#cd833b"/><g clip-path="url(#clippath-1)"><path d="m69.71,90.84c-.99.1-3-4-5.01-8.47-1.96-4.36-3.41-10.84-3-12.19.93-3.13,3.96-.55,4.08.59.12,1.14.93,6.07,1.93,10.07.84,3.35,2.99,9.9,2,10Z" fill="#473513"/><path d="m76.88,90.84c.99.1,3-4,5.01-8.47s3.41-10.84,3-12.19c-.93-3.13-3.96-.55-4.08.59s-.93,6.07-1.93,10.07c-.84,3.35-2.99,9.9-2,10Z" fill="#473513"/><path d="m73.21,89.17c.62,0,1.69-6.82,2.17-13.13.29-3.82.38-7.22,0-7.88-1-1.75-4.17-1.75-5,0-.31.65-.4,4.1,0,7.88.66,6.34,2.2,13.13,2.83,13.13Z" fill="#473513"/><path d="m45.46,103.47c0-1-5.36-1.76-8,0-3,2-9.8,7.2-8,9,3,3,5-3,9-6,3.05-2.28,7-2,7-3Z" fill="#473513"/><path d="m43.46,115.47c-1-1-3.69,1.34-6,2-4.43,1.27-6.82-.6-7.41,1.7s4.41,2.3,7.41,1.3,7-4,6-5Z" fill="#473513"/><path d="m100.24,97.96c-.27-.96,4.7-3.13,7.71-2.14,3.43,1.12,11.37,4.31,10.12,6.53-2.09,3.69-5.62-1.55-10.28-3.37-3.55-1.39-7.28-.05-7.55-1.02Z" fill="#473513"/><path d="m105.38,108.98c.7-1.23,3.91.3,6.32.32,4.61.03,6.41-2.4,7.59-.34s-3.63,3.4-6.79,3.24c-3.16-.16-7.82-1.98-7.12-3.21Z" fill="#473513"/><path d="m92.04,113.68c-.77-.32-.64-1.33.2-1.55s2.06-.73,3.62-1.68c2-1.23,3.19-2.73,3.9-4.06.44-.82,1.77-.6,1.75.29-.04,1.91-.77,4.2-3.4,5.93-2.66,1.75-4.69,1.64-6.08,1.07Z" fill="#473513"/><path d="m53.81,114.15c.8-.23.78-1.25-.03-1.56s-1.97-.94-3.42-2.06c-1.86-1.44-2.88-3.06-3.45-4.46-.35-.86-1.7-.78-1.77.1-.16,1.91.32,4.26,2.74,6.26,2.46,2.03,4.49,2.14,5.93,1.71Z" fill="#473513"/><path d="m58.01,90c.45.34.2.98-.39.98s-1.48.13-2.66.5c-1.52.48-2.55,1.26-3.24,2.02-.42.46-1.26.1-1.1-.48.35-1.25,1.2-2.63,3.22-3.33,2.04-.71,3.35-.3,4.17.31Z" fill="#473513"/><path d="m87.49,90.32c-.42.37-.12.99.47.95s1.48,0,2.69.27c1.55.34,2.65,1.03,3.4,1.73.46.43,1.27-.01,1.06-.58-.46-1.21-1.43-2.52-3.5-3.04-2.09-.53-3.37,0-4.13.67Z" fill="#473513"/><path d="m62.92,82.95c.74-.32,1.43.31,1.05.97s-.77,1.72-1.05,3.24c-.35,1.95.03,3.53.59,4.71.34.72-.69,1.46-1.35.97-1.43-1.07-2.72-2.77-2.35-5.4.37-2.66,1.77-3.91,3.1-4.49Z" fill="#473513"/><path d="m82.98,82.94c-.72-.34-1.44.26-1.1.94.36.71.7,1.74.91,3.27.27,1.96-.18,3.53-.79,4.69-.37.71.62,1.48,1.31,1.01,1.48-1.02,2.83-2.69,2.57-5.33s-1.6-3.96-2.91-4.58Z" fill="#473513"/></g><path d="m208.22,155.49c-14.28-23.31-43.13-32.33-63.01-33.98-24-1.99-25-12.99-25-12.99,0,0-8.27,26-26.99,29.01-15,2.41-40,2.01-51,.02,0,0,6.75,2,3.01,23-2.43,13.67.58,33,9.02,53,6.15,14.58,4.01,29.46,4.01,29.46,0,0-4.03,4.63-2,9.54,2.03,4.9,9.24,5.91,15,5,5.2-.83,3-2,9-2,4.12,0,8.33,6.54,19,4.99,7.61-1.1,10.86-2.79,11-8,.02-.86-1.8-7.08-2-11-.29-5.5,1-9,1-9,0,0,2,4,8,7s19.85,2.93,13,6c-2.4,1.07-1.14,5.94,1,9,2.81,4,19.36,3.92,25.74,3.92,12.17,0,31.4-4.54,37.45-8.01,6.05-3.48,18.21-5.93,21.8-25.93,4.13-23,10.67-38.49-8.02-69Z" fill="#cd833b"/><g clip-path="url(#clippath-2)"><path d="m158.68,165.7c-3.19-1.22-4.29-6.82-2.56-11.33,2.73-7.14,7.57-8.97,12.6-8.12,4.05.69,6.31,8.34,2.45,13.88-3.85,5.54-7.97,7.3-12.49,5.58Z" fill="#a35519"/><path d="m156.45,135.57c-7.28,3.25-4.07-11.91,3.21-15.16,7.28-3.25,9.32,2.14,7.45,7.31-1.87,5.18-7.54,6.46-10.66,7.85Z" fill="#a35519"/><path d="m203.23,156.05c-3.59,2.81-12.73-.56-14.59-4.72-1.86-4.16,1.37-8.1,8.55-8.81,7.17-.71,14.12,3.68,14.01,6.22-.11,2.55-4.27,4.4-7.97,7.3Z" fill="#a35519"/><path d="m136.93,184.72s-3.18-1.44-.81-5.42c2.38-3.98,2.6-9.07,7.23-9.89,4.63-.82,9.5,4.5,6.37,5.89-3.12,1.39-10.33,8.28-12.79,9.42Z" fill="#a35519"/><path d="m170.29,191.71c-4.68-1.22-8.12-12.6-2.34-16.43,5.78-3.83,10.63-9.74,14.57-6.5,3.94,3.23,9.74,10.63,6.04,13.53-3.7,2.9-11.2,11.24-18.27,9.4Z" fill="#a35519"/><path d="m213.27,180.7c-3.72,2.64-8.68.13-8.57-2.42.11-2.55.8-6.6,4.96-8.45s4.16-1.86,5.56,1.26c1.39,3.12,2.79,6.24-1.95,9.61Z" fill="#a35519"/><path d="m202.69,208.05c-3.29,1.47-11.22.02-10.54-4.03s5.31-4.87,7.4-5.8,6.24-2.79,7.64.33,1.75,6.71-4.5,9.5Z" fill="#a35519"/><path d="m214.3,221.07c-3.05-1.92-1.64-9.25,3.92-7.99s8.45,4.96,5.33,6.35c-3.12,1.39-5.78,3.83-9.25,1.64Z" fill="#a35519"/><path d="m217.79,199.5c-1.47-3.29,3.81-5.44,7.86-4.76,4.05.69,8.21-1.17,5.44,3.81s-6.85,7.94-8.86,5.77c-2.01-2.17-3.98-3.79-4.45-4.83Z" fill="#a35519"/><path d="m167.04,184.43c-1.04.46-2.43-2.66.91-9.14,2.34-4.53,12.71-10.67,17.69-7.9,4.98,2.77,7.08,13.06,1.77,17.93-4.28,3.93-10.05,8.23-13.53,6.04-.96-.61,6.05-4.26,7.97-7.3,2.19-3.47,4.29-8.5-.02-11.22-3.47-2.19-7.17.71-10.41,4.65-2.04,2.49-3.34,6.49-4.38,6.95Z" fill="#473513"/><path d="m136.13,179.3c4.35-2.36,5.03-9.31,9.2-8.27,4.17,1.04,1.33,4.65-.8,6.6-2.66,2.43-10.76,3.85-9.01,7.77.46,1.04,4.36.42,7.75-2.21,3.39-2.63,7.55-6.7,8.08-9.85.69-4.05-5.22-8.9-9.96-5.54-3.5,2.49-9.6,13.86-5.26,11.5Z" fill="#473513"/><path d="m165.89,187.44c3.12-1.39,1.11,2.15,2.43,2.66,2.24.86,4.37-.71,4.05.69-.84,3.73-4.65,4.09-6.24,2.79-1.97-1.62-2.67-5.05-.24-6.13Z" fill="#473513"/><path d="m149.52,191.62c-4.08-.49-5.44-3.81-2.32-5.2,3.12-1.39,3.81-5.44,5.78-3.83,1.97,1.62,3.14,9.83-3.46,9.03Z" fill="#473513"/><path d="m161.97,116.75c5.51-.37,7.94,3.02,8.18,9.15.41,10.31-7.38,12.12-10.97,12.44-3.41.3-6.21-2.82-2.09-5.36,2.91-1.79,9.72-.6,9.48-6.73-.36-9.18-7.64-.33-10.65-1.49-4.52-1.73.33-7.64,6.05-8.02Z" fill="#473513"/><path d="m205.87,153.38c-.43-1.96-.89.96-6.94,1.13-4.27.12-7.96-.63-8.28-4.23-.34-3.79,2.99-5.22,6.89-5.91,5.04-.89,10.67,2.86,10.88.94.18-1.7-5.31-6.6-11.6-6.21-6.29.4-11.59,1.1-12.85,7.02-1.06,4.99,3.01,12.43,11.95,12.43,7.4,0,10.48-2.79,9.95-5.18Z" fill="#473513"/><path d="m229.54,201.44c-.28-1.28-.58.62-4.52.74-2.78.08-5.18-.41-5.39-2.75-.22-2.47,1.95-3.4,4.48-3.85,3.28-.58,6.95,1.86,7.08.61.12-1.11-3.46-4.3-7.55-4.04-4.09.26-7.55.72-8.36,4.57-.69,3.25,1.96,8.09,7.78,8.09,4.82,0,6.82-1.81,6.48-3.38Z" fill="#473513"/><path d="m176.63,202.06c3.33-.75,8.57,2.42,4.4,4.27-4.16,1.86-7.64-.33-15.5,4.42-3.08,1.87-13.75,11.13-13.06,7.08s3.92-7.99,9.12-10.31c5.2-2.32,9.36-4.18,15.03-5.46Z" fill="#473513"/><path d="m155.67,199.7c2.79-1.98,3.92-7.99-.24-6.13-4.16,1.86-6.71,1.75-15.5,4.42-3.45,1.05-15.61,6.97-12.13,9.16,3.47,2.19,6.71-1.75,11.91-4.07,5.2-2.32,11.22-.02,15.96-3.38Z" fill="#473513"/><path d="m195.05,188.72c-3.19-1.22-3.72-8.32,1.37-8.1s2.43,2.66,3.36,4.74-.22,5.09-4.74,3.36Z" fill="#473513"/><path d="m169.55,213.83c.97-.44,8.88-6.3,10.08-.99,1.2,5.31-8.55,9.66-12.34,9.02-3.8-.64-5.54-4.54,2.26-8.03Z" fill="#473513"/><path d="m140.77,240.07c1.51-1.85,7.69-1.1,11.59-2.84,3.9-1.74,11.49-.45,9.44,2.8-2.05,3.26-18.85,4.91-18.85,4.91,0,0-5.21-1.18-2.18-4.87Z" fill="#473513"/><path d="m214.67,180.38c1.85-3.67-9.18.47-8.65-3.09.68-4.65,4.11-8.14,7.16-6.6s1.52,2.04,2.02,3.58c.5,1.53,2.55.01,3.06-1.01s-.45-6.12-4.56-6.13c-7.64-.03-10.99,5.54-11.25,9.64-.54,8.66,10.16,7.69,12.22,3.62Z" fill="#473513"/><path d="m204.29,194.85c-3.59,2,2.65,5.98.22,8.64-3.17,3.47-7.96,4.45-9.63,1.46-1.67-2.98-.12-2.55.32-4.1.44-1.55-2.11-1.43-3.1-.88-.99.56-3.05,5.32.35,7.64,6.32,4.3,12.21,1.56,14.72-1.69,5.3-6.87,1.1-13.29-2.88-11.07Z" fill="#473513"/><path d="m139.76,141.2c-2.32-.58-7.48,7.47-7.48,12.81s1.06,5.34-1.08,11.74c-2.14,6.4-6.41,5.33-4.28,7.47,2.13,2.14,9.62-7.47,9.62-9.6,0-2.14-1.06-9.61,2.15-12.81,3.21-3.2,5.35-8.54,1.08-9.61Z" fill="#473513"/><path d="m137.79,118.39c-3.47,2.49-2.7,10.16-4.47,12.61-1.77,2.45-4.09,8.22-5.86,10.67-1.25,1.73-6.54,6.45-9.53,8.01-2.99,1.56-.55,3.33,2.45,1.77s7.76-5.57,10.42-9.23,8.23-8,9.84-11.5c1.6-3.5,6.17-10.48,4.72-12.45-1.46-1.98-5.61-1.27-7.55.13Z" fill="#473513"/><path d="m30.75,157.04c4.17-.93,9.38,4.75,12.39,5.05,3,.3,8.86,2.42,11.87,2.72,2.12.22,9.17-.59,12.32-1.78,3.16-1.2,2.85,1.81-.3,3-3.16,1.2-11.32,6.09-15.82,5.63-4.51-.46-9.69-1.74-13.37-2.87s-11.69-3.8-12.19-6.2,2.79-5.03,5.12-5.55Z" fill="#473513"/><path d="m24.65,183.93c4.2-.75,9.16,2.16,12.15,2.6s8.74,2.81,11.73,3.25c2.11.31,9.18,2.82,12.39,1.77,3.21-1.05,2.77,1.93-.44,2.99s-9.4,1.67-13.88,1.01c-4.48-.66-9.6-2.17-13.23-3.47-3.62-1.3-13.68-.41-14.08-2.83-.4-2.42,3.01-4.9,5.36-5.32Z" fill="#473513"/><path d="m105.41,179.31c2.66,2.08,18.11-1.27,18.98-3.22s-9.21-2.94-12.03-1.86c-2.82,1.08-10.41,2.37-6.95,5.08Z" fill="#473513"/><path d="m39.51,137.3s7.43,8.86,11.63,9.36c4.2.51,16.01-2.9,21.57-5.03,6-2.3,19.63.42,23.69-.78,8.57-2.53,21.99-14.25,24.22-17.13s6.28-11.04,9.36-9.1c3.08,1.94,3.93,6.77-2.08,11.55-6.01,4.78-22.77,17.88-30.44,20.71-6.43,2.37-17.9-2.72-22.87-1.85-4.7.82-17.98,9.37-23.72,7.89-5.74-1.48-14.35-1.43-15.4-7.46-1.06-6.03,2.51-9.14,4.05-8.16Z" fill="#473513"/><path d="m46.64,175.87c-.71,2.34,9.11,7.82,14.96,6.51,5.85-1.3,7.73-3.91,13.58-5.21,5.85-1.3,21.06.78,27.39-3.91,6.33-4.69,18.53-21.62,16.9-23.45-1.63-1.82-16.88,17.98-22.74,19.28-5.85,1.3-16.85,1.56-25.05,3.39-7.02,1.56-7.73,3.91-12.41,4.95s-11.93-3.91-12.63-1.56Z" fill="#473513"/><path d="m87.61,197.56c3.99-1.52,10.21-6.18,14.2-7.7,3.99-1.52,10.64,3.94,14.63,2.42,4.11-1.57,6.46-7.03,7.6-4.04,1.14,2.99-2.94,10.26-6.32,10.41-3.37.14-7.34-4.15-13.33-1.87-5.99,2.28-11.45,4.32-15.27,4.78-4.37.52-6.51-2.09-1.52-3.99Z" fill="#473513"/><path d="m116.59,225.4c-.54-2.83,2.82-3.16,8.13-4.36,5.31-1.2,13.54-3.71,14.19-7.5.64-3.8,5.95-5,9.31-5.33s4.67,2.59,1.2,5.31-9.96,9.12-13.86,10.86c-3.9,1.74-9.64,1.97-12.57,3.27-2.92,1.31-5.87.58-6.41-2.25Z" fill="#473513"/><path d="m57.99,234.95l5.33.23c5.33.23,8.49,1.43,10.49,4.72,2,3.29-1.16,2.09-5.42,1.91-4.27-.18-8.62,2.31-11.27,1.39-2.65-.92-1.26-8.34.87-8.25Z" fill="#473513"/><path d="m109.67,230.91s-5.64-2.16-8.57-.85c-2.92,1.31-4.54,5.54-6.49,6.41-1.95.87-1.62,4.23,2.28,2.49s7.9-5.87,11.16-3.81,1.62-4.23,1.62-4.23Z" fill="#473513"/><path d="m42.5,201.5c2.92-1.4,12.53,4.72,16.97,1.56,4.44-3.15,10.95.96,8.03,2.26-2.92,1.31-8.34,4.89-12.67,5.66s-13.23-3.45-13.23-3.45c0,0-5.76-2.85.91-6.04Z" fill="#473513"/><path d="m45.45,222.51c1.08-2.82,4-4.13,9.75-4.35,5.75-.23,9,1.83,11.93.52,2.92-1.31,9.61-3.49,9.79-1.05s-3.72,4.18-7.62,5.92c-3.9,1.74-16.03,5.99-19.29,3.94-3.26-2.05-5.64-2.16-4.56-4.98Z" fill="#473513"/><path d="m162.2,245.33c2.28-3.61,5.08-6.95,8.98-8.69,3.9-1.74,12.9.09,9.87,3.78-3.03,3.69-7.9,5.87-12.24,6.63-4.33.77-8.67,1.53-6.62-1.72Z" fill="#473513"/><path d="m209.44,215.76c2.61-3.18,5.73-4.66,8.9-5.22,4.63-.82,8.92,6,6.26,8.44-2.52,2.31-4.74,3.36-8.32,3.72-3.59.35,4.74-3.36,3.81-5.44s-2.9-3.7-4.52-1.73-3.81,5.44-5.78,3.83c0,0-1.97-1.62-.35-3.59Z" fill="#473513"/><path d="m208.95,239.47c-1.72,1.66-8.34,2.13-12.13,2.82s-12.25,10.37-14.5,9.58,8.46-9.68,11.53-12.65c3.07-2.97,6.88-5.17,12.15-4.33s7.55.12,2.95,4.58Z" fill="#473513"/><path d="m107.05,219.56c1.08,1.05-16.03,5.99-20.37,6.76-5.36.95-9.43-1.79-7.33-3.95s5.3-3.27,8.51-2.25c3.22,1.03,7.27-.74,9.64-.97,3.36-.33,7.38-1.69,9.54.42Z" fill="#473513"/><path d="m191.68,215.62c-2.08.93-1.37,8.1-4.5,9.5s-9.36,4.18-5.89,6.37c3.47,2.19,5.2-2.32,9.36-4.18,4.16-1.86,5.44-2.07,5.02-7.05s.16-6.49-4-4.63Z" fill="#473513"/><path d="m221.15,225.65s-5.75.23-7.69,1.1c-1.95.87-8.57-.85-4.67-2.59,3.9-1.74,5.31-1.2,8.23-2.51,2.92-1.31,7.28-5.5,7.98-3.52.69,1.98,1.03,5.34-3.85,7.52Z" fill="#473513"/><path d="m155.87,162.03c1.94.53-.44-1.24,2.2-6.67,1.87-3.84,4.24-6.77,7.58-5.39,3.52,1.45,3.25,5.07,2.05,8.84-1.54,4.88-7.47,8.13-5.87,9.21,1.42.95,8.31-1.66,10.87-7.41,2.56-5.76,4.39-10.79-.28-14.64-3.93-3.24-12.41-3.08-16.55,4.85-3.43,6.56-2.37,10.58,0,11.22Z" fill="#473513"/></g><path d="m95.19,73.53s16.8-13.68,20.92-11.26c4.12,2.42.09,28.25.09,28.25,0,0-7.65-5.55-11.84-9.51-3.87-3.66-9.16-7.48-9.16-7.48Z" fill="#cd833b"/><path d="m53.19,73.54s-16.51-13.67-20.64-11.25c-4.12,2.43,2.64,28.25,2.64,28.25,0,0,4.93-5.55,9.13-9.52,3.87-3.66,8.87-7.48,8.87-7.48Z" fill="#cd833b"/><path d="m65.93,194.11s3,6.94,9.28,10.58c6.27,3.63,10.85,3.82,10.85,3.82" fill="none" stroke="#000" stroke-linecap="round" stroke-linejoin="round" stroke-width="3.8"/><path d="m80,218.46s1.66,3.95,2,13-1,14-1,14" fill="none" stroke="#000" stroke-linecap="round" stroke-linejoin="round" stroke-width="3.4"/><path d="m116.12,81.19c0-2.58,4.72-17.03.8-19.66-2.59-1.74-13.72,4.51-15.93,7.37" fill="none" stroke="#000" stroke-linecap="round" stroke-linejoin="round" stroke-width="3.4"/><path d="m32.57,81.21c0-2.58-4.74-17.02-.81-19.66,2.59-1.74,13.72,4.5,15.94,7.36" fill="none" stroke="#000" stroke-linecap="round" stroke-linejoin="round" stroke-width="3.4"/><path d="m47.22,144.54s-6.6,21.12-1.62,39.7c5.9,22.05,8.23,26.88,10.96,34.25,2.73,7.37,4.47,15.46,2.47,21.7-2.01,6.27-3.08,4.35-3.01,10.27.07,5.86,8.11,7.28,12.83,7.26,6.83-.03,9.92-2.81,9.92-2.81" fill="none" stroke="#000" stroke-linecap="round" stroke-linejoin="round" stroke-width="3.4"/><path d="m114.07,210.51c-1.55,4.6-7.23,27.84-6.06,30.94,1.17,3.09,4.28,9.63,1,14-2.89,3.85-6,4-13,4-5.59,0-15-1-16-6.99" fill="none" stroke="#000" stroke-linecap="round" stroke-linejoin="round" stroke-width="3.4"/><path d="m219.23,188.49s1.72-26.25-27.26-49.06c-16.74-13.18-40.99-16.74-57.27-18.82-8.49-1.09-14.08-9.67-13.79-15.88.29-6.21-2.43-15.38-3.66-19.12" fill="none" stroke="#000" stroke-linecap="round" stroke-linejoin="round" stroke-width="3.4"/><path d="m218.99,195.41s2.38,27.63-4.99,41c-7.37,13.38-32.69,20.41-41.3,20.78s-12.06,1.23-18.7,1.24c-3.74,0-15.06.64-19-.99-3.43-1.42-5.78-7.07-5-11,1.24-6.29,17-12.01,17-12.01" fill="none" stroke="#000" stroke-linecap="round" stroke-linejoin="round" stroke-width="3.4"/><path d="m49.96,72.75s7.66-5.68,22.7-5.68c14.82,0,24.6,5.67,24.6,5.67" fill="none" stroke="#000" stroke-linecap="round" stroke-linejoin="round" stroke-width="3.4"/><path d="m34.54,85.63s-4.33,11.7-4.33,21.13c0,13.17,3.47,18.31,6.63,23.65s7.57,10.4,7.57,10.4" fill="none" stroke="#000" stroke-linecap="round" stroke-linejoin="round" stroke-width="3.4"/><path d="m117.01,239.45s3.5,2.4,7,3.2,7,.8,7,.8" fill="none" stroke="#000" stroke-linecap="round" stroke-linejoin="round" stroke-width="3.4"/></svg>