<?xml version="1.0" encoding="UTF-8"?><svg id="bicolor_3" xmlns="http://www.w3.org/2000/svg" xmlns:xlink="http://www.w3.org/1999/xlink" viewBox="0 0 280 280"><defs><clipPath id="clippath-1"><path d="M72.67,66.79c-12.3,0-18.13,2.17-29.47,11-12.68,9.88-14.13,18.12-14,27s.9,18.17,6.57,26.33c3.78,5.44,10.43,13.67,10.43,13.67,0,0-1.7,3,25,3,20.81,0,56.37-11.78,51.91-34.07-3-15-3.23-26.06-15.91-35.93-11.34-8.83-22.24-11-34.53-11Z" style="fill:none;"/></clipPath></defs><path d="M205.18,236.33s28.65-14.27,37.77-67.54c6.52-38.13,12.59-84.06-6.41-84.06-16.46,0-10.27,29.03-16.34,65.06-5.06,30-17.7,51-17.7,51,0,0-12.19,32.71,2.68,35.54Z" style="fill:#d79a59;"/><path d="M73.02,67.53c-12.3,0-18.13,2.17-29.47,11-12.68,9.88-14.13,18.12-14,27s.9,18.17,6.57,26.33c3.78,5.44,10.43,13.67,10.43,13.67,0,0-1.7,3,25,3,20.81,0,49-15.28,49-38,0-15.4-.32-22.12-13-32-11.34-8.83-22.24-11-34.53-11Z" style="fill:#fff;"/><path d="M208.55,155.53c-14.27-23.32-43.28-31-63-34-20.05-3.05-24-11-24-11,0,0-20.44,19.93-39.16,22.93-15,2.4-25.84,5.07-36.84,3.07,0,0,3.74,3,0,24-2.44,13.67,.57,33,9,53,6.14,14.58,4,29.46,4,29.46,0,0-4.03,4.63-2,9.54,2.03,4.9,9.24,5.92,15,5,5.2-.83,3-2,9-2,4.12,0,8.33,6.54,19,5,7.61-1.1,10.86-2.79,11-8,.02-.86-1.79-7.08-2-11-.29-5.5,1-9,1-9,0,0,2,4,8,7s19.85,2.93,13,6c-2.4,1.07-1.15,5.94,1,9,2.81,4,19.35,3.93,25.74,3.93,12.17,0,31.4-4.53,37.45-8s18.21-5.93,21.81-25.93c4.14-22.99,10.68-38.48-8-69Z" style="fill:#d79a59;"/><path d="M44.79,138.84c0-8,14.72-7.19,31-9,18-2,38.19-12.88,41-11,6,4-14,18-19,41-3.48,16.03,6,48-13,49-20,1.05-21.38-40.19-24-47-5-13-16-11.95-16-23Z" style="fill:#fff;"/><path d="M95.55,73.53s16.8-13.68,20.92-11.25,.08,28.25,.08,28.25c0,0-7.64-5.55-11.84-9.52-3.87-3.66-9.16-7.48-9.16-7.48Z" style="fill:#d79a59;"/><path d="M53.55,73.53s-16.51-13.68-20.63-11.25c-4.12,2.43,2.63,28.25,2.63,28.25,0,0,4.94-5.55,9.13-9.52,3.87-3.66,8.87-7.48,8.87-7.48Z" style="fill:#d79a59;"/><g style="clip-path:url(#clippath-1);"><path d="M24.21,122.79s19.78,.26,26-7.1c6.22-7.36,18.37-29.71,24.46-29.71,5.41,0,17.7,23.24,21.54,28.52,7.46,10.3,27,2.37,27,2.37,0,0,16.52-52.3-49.59-52.3S24.21,122.79,24.21,122.79Z" style="fill:#d79a59;"/></g><g><g><path d="M247.84,98.89c.84,5.74,.05,10.32,0,12.76-.22,10.43-.35,33.75-4.88,55.13-4.7,22.16-13.87,42.37-18.37,50.96-2.63,5.01-4.86,8.49-6.99,11.1" style="fill:none; stroke:#333; stroke-linecap:round; stroke-linejoin:round; stroke-width:3.8px;"/><path d="M215.49,169.52c1.97-7.11,3.9-15.32,5.97-24.73,7.33-33.33-2.28-57,12.35-59.9,5.44-1.08,11.05,3.39,12.14,7.74" style="fill:none; stroke:#333; stroke-linecap:round; stroke-linejoin:round; stroke-width:3.8px;"/></g><path d="M66.25,194.1s3,6.94,9.28,10.58c6.27,3.64,10.84,3.82,10.84,3.82" style="fill:none; stroke:#333; stroke-linecap:round; stroke-linejoin:round; stroke-width:3.8px;"/><path d="M80.31,218.45s1.66,3.95,2,13c.34,9.05-1,14-1,14" style="fill:none; stroke:#333; stroke-linecap:round; stroke-linejoin:round; stroke-width:3.8px;"/><path d="M116.48,81.19c0-2.58,4.73-17.03,.8-19.66-2.59-1.74-13.72,4.5-15.94,7.36" style="fill:none; stroke:#333; stroke-linecap:round; stroke-linejoin:round; stroke-width:3.8px;"/><path d="M32.92,81.19c0-2.58-4.73-17.03-.8-19.66,2.59-1.74,13.72,4.5,15.94,7.36" style="fill:none; stroke:#333; stroke-linecap:round; stroke-linejoin:round; stroke-width:3.8px;"/><path d="M47.55,144.53s-6.61,21.12-1.64,39.7c5.9,22.05,8.22,26.88,10.95,34.25,2.73,7.37,4.47,15.46,2.47,21.7-2.02,6.27-3.08,4.35-3.02,10.27,.07,5.86,8.11,7.29,12.83,7.26,6.83-.03,9.92-2.81,9.92-2.81" style="fill:none; stroke:#333; stroke-linecap:round; stroke-linejoin:round; stroke-width:3.8px;"/><path d="M114.38,210.52c-1.55,4.6-7.24,27.84-6.07,30.93,1.17,3.09,4.28,9.63,1,14-2.89,3.85-6,4-13,4-5.59,0-15-1-16-7" style="fill:none; stroke:#333; stroke-linecap:round; stroke-linejoin:round; stroke-width:3.8px;"/><path d="M219.55,188.53s1.73-26.25-27.24-49.07c-16.74-13.18-40.98-16.75-57.26-18.84-8.49-1.09-14.08-9.68-13.79-15.88s-2.43-15.38-3.65-19.13" style="fill:none; stroke:#333; stroke-linecap:round; stroke-linejoin:round; stroke-width:3.8px;"/><path d="M219.31,195.45s2.37,27.63-5,41c-7.37,13.37-32.7,20.4-41.3,20.77-8.6,.37-12.06,1.23-18.7,1.23-3.74,0-15.07,.63-19-1-3.43-1.42-5.77-7.07-5-11,1.24-6.29,18.81-7.73,18.81-7.73" style="fill:none; stroke:#333; stroke-linecap:round; stroke-linejoin:round; stroke-width:3.8px;"/><path d="M50.32,72.73s7.67-5.68,22.7-5.68,24.59,5.68,24.59,5.68" style="fill:none; stroke:#333; stroke-linecap:round; stroke-linejoin:round; stroke-width:3.8px;"/><path d="M34.9,85.61s-4.34,11.69-4.34,21.13c0,13.17,3.47,18.31,6.62,23.65,3.03,5.14,7.57,10.41,7.57,10.41" style="fill:none; stroke:#333; stroke-linecap:round; stroke-linejoin:round; stroke-width:3.8px;"/><path d="M117.31,239.45s3.5,2.4,7,3.2,7,.8,7,.8" style="fill:none; stroke:#333; stroke-linecap:round; stroke-linejoin:round; stroke-width:3.8px;"/></g></svg>