<?xml version="1.0" encoding="UTF-8"?><svg id="pattern_2" xmlns="http://www.w3.org/2000/svg" xmlns:xlink="http://www.w3.org/1999/xlink" viewBox="0 0 280 280"><defs><clipPath id="clippath"><path d="M199.96,241.76s28.59-14.39,37.48-67.7c6.36-38.15,12.24-84.11-6.77-84.03-16.46,.07-10.14,29.08-16.06,65.13-4.93,30.02-17.48,51.07-17.48,51.07,0,0-12.05,32.76,2.83,35.53Z" style="fill:none;"/></clipPath><clipPath id="clippath-1"><path d="M208.21,155.53c-14.27-23.32-43.12-32.34-63-34-24-2-25-13-25-13,0,0-8.28,26-27,29-15,2.4-40,2-51,0,0,0,6.74,2,3,23-2.44,13.67,.57,33,9,53,6.14,14.58,4,29.46,4,29.46,0,0-4.03,4.63-2,9.54,2.03,4.9,9.24,5.92,15,5,5.2-.83,3-2,9-2,4.12,0,8.33,6.54,19,5,7.61-1.1,10.86-2.79,11-8,.02-.86-1.79-7.08-2-11-.29-5.5,1-9,1-9,0,0,2,4,8,7s19.85,2.93,13,6c-2.4,1.07-1.15,5.94,1,9,2.81,4,19.35,3.93,25.74,3.93,12.17,0,31.4-4.53,37.45-8,6.05-3.47,18.21-5.93,21.81-25.93,4.14-22.99,10.68-38.48-8-69Z" style="fill:none;"/></clipPath><clipPath id="clippath-2"><path d="M72.67,67.53c-12.3,0-18.13,2.17-29.47,11-12.68,9.88-14.13,18.12-14,27s.9,18.17,6.57,26.33c3.78,5.44,10.43,13.67,10.43,13.67,0,0-1.7,3,25,3,20.81,0,49-15.28,49-38,0-15.4-.32-22.12-13-32-11.34-8.83-22.24-11-34.53-11Z" style="fill:none;"/></clipPath></defs><g><path d="M199.96,241.76s28.59-14.39,37.48-67.7c6.36-38.15,12.24-84.11-6.77-84.03-16.46,.07-10.14,29.08-16.06,65.13-4.93,30.02-17.48,51.07-17.48,51.07,0,0-12.05,32.76,2.83,35.53Z" style="fill:#fff;"/><g style="clip-path:url(#clippath);"><g><path d="M222.61,152.09s8,4,8,13,0,15-6,18-13,15-14,4-2-36,12-35Z" style="fill:#1a1a1a;"/><path d="M227.8,128.54s-14.2-13.45-17.2-15.45c-9-6-5.1-19.85-2-21s13,2,17,6,10,15,10,21-.61,12.9-7.8,9.45Z" style="fill:#1a1a1a;"/><path d="M232.61,108.09s-10-2-10-9,2-8,5-8,14,3,14,8,2,13-9,9Z" style="fill:#f8b600;"/><path d="M228.37,205.05s-3.76-3.96-5.76-9.96-5-14-2-19,10.63-5.13,13.82,2.43c3.18,7.57,7.71,31.48-6.05,26.52Z" style="fill:#f8b600;"/></g></g><g><path d="M242.03,104.14c.87,5.74,.09,10.32,.05,12.76-.17,10.43-.21,33.75-4.65,55.15-4.6,22.18-13.69,42.42-18.15,51.03-2.6,5.03-4.83,8.51-6.94,11.13" style="fill:none; stroke:#000; stroke-linecap:round; stroke-linejoin:round; stroke-width:3.8px;"/><path d="M209.98,174.91c1.94-7.12,3.84-15.34,5.87-24.76,7.19-33.36-2.52-56.99,12.1-59.95,5.44-1.1,11.06,3.34,12.17,7.69" style="fill:none; stroke:#000; stroke-linecap:round; stroke-linejoin:round; stroke-width:3.8px;"/></g></g><path d="M72.67,67.53c-12.3,0-18.13,2.17-29.47,11-12.68,9.88-14.13,18.12-14,27s.9,18.17,6.57,26.33c3.78,5.44,10.43,13.67,10.43,13.67,0,0-1.7,3,25,3,20.81,0,49-15.28,49-38,0-15.4-.32-22.12-13-32-11.34-8.83-22.24-11-34.53-11Z" style="fill:#fff;"/><path d="M208.21,155.53c-14.27-23.32-43.12-32.34-63-34-24-2-25-13-25-13,0,0-8.28,26-27,29-15,2.4-40,2-51,0,0,0,6.74,2,3,23-2.44,13.67,.57,33,9,53,6.14,14.58,4,29.46,4,29.46,0,0-4.03,4.63-2,9.54,2.03,4.9,9.24,5.92,15,5,5.2-.83,3-2,9-2,4.12,0,8.33,6.54,19,5,7.61-1.1,10.86-2.79,11-8,.02-.86-1.79-7.08-2-11-.29-5.5,1-9,1-9,0,0,2,4,8,7s19.85,2.93,13,6c-2.4,1.07-1.15,5.94,1,9,2.81,4,19.35,3.93,25.74,3.93,12.17,0,31.4-4.53,37.45-8,6.05-3.47,18.21-5.93,21.81-25.93,4.14-22.99,10.68-38.48-8-69Z" style="fill:#fff;"/><path d="M95.21,73.53s16.8-13.68,20.92-11.25,.08,28.25,.08,28.25c0,0-7.64-5.55-11.84-9.52-3.87-3.66-9.16-7.48-9.16-7.48Z" style="fill:#f8b600;"/><path d="M53.21,73.53s-16.51-13.68-20.63-11.25c-4.12,2.43,2.63,28.25,2.63,28.25,0,0,4.94-5.55,9.13-9.52,3.87-3.66,8.87-7.48,8.87-7.48Z" style="fill:#1a1a1a;"/><g style="clip-path:url(#clippath-1);"><g><path d="M128.89,100.78c-7,12-2,33.78-4,40.39s-5.15,12.69,1.93,18.65c7.07,5.96,24.41-9.74,34.07-22.04,11-14,13-29,2-37s-27-12-34,0Z" style="fill:#1a1a1a;"/><path d="M166.82,163.33c-7.14-1.54-14.44-8.46-7.29-18.33,7.13-9.86,5.7-17.03,14-16.13,8.3,.9,15.52,14.14,12.76,24.2-2.76,10.07-8.92,12.55-19.47,10.27Z" style="fill:#f8b600;"/><path d="M187.56,185.71c-12.88,2.01-30.2,10.2-22.43,23.63,7.76,13.44,20.76,22.74,38.76,21.09,18-1.65,22.39-22.79,21.69-32.72-.69-9.93-18.35-15.08-38.02-12.01Z" style="fill:#f8b600;"/><path d="M178.87,203.07c17.42,1.62,33.97,1.37,39.96-10.29,4.01-7.8,1.32-20.51-.91-28.07-.75-2.56-5.42-3.44-7.97-1.5-6.31,4.81-16.15,11.48-21.69,11.04-8.59-.69-21.87-2.56-27.62,4.89-5.75,7.46,.8,22.31,18.23,23.92Z" style="fill:#1a1a1a;"/></g></g><g style="clip-path:url(#clippath-2);"><path d="M77.66,83.87c5.46,8.74,11.72,15.91,15.92,19.14,9.2,7.08,27.78,7.08,27.78,7.08,0,0,14.25-49.73-45.25-47.19-5,.21-1.36,16.31,1.55,20.97Z" style="fill:#f8b600;"/><path d="M67.83,63.11s2,9.85-6.1,17.49c-8.1,7.64-20.15,12.12-27.78,10.43-7.63-1.7,2.25-16.11,10.94-22.45,8.7-6.34,13.89-5.41,22.94-5.46Z"/></g><g><path d="M65.9,194.1s3,6.94,9.28,10.58c6.27,3.64,10.84,3.82,10.84,3.82" style="fill:none; stroke:#000; stroke-linecap:round; stroke-linejoin:round; stroke-width:3.8px;"/><path d="M79.97,218.45s1.66,3.95,2,13c.34,9.05-1,14-1,14" style="fill:none; stroke:#000; stroke-linecap:round; stroke-linejoin:round; stroke-width:3.4px;"/><path d="M116.13,81.19c0-2.58,4.73-17.03,.8-19.66-2.59-1.74-13.72,4.5-15.94,7.36" style="fill:none; stroke:#000; stroke-linecap:round; stroke-linejoin:round; stroke-width:3.4px;"/><path d="M32.58,81.19c0-2.58-4.73-17.03-.8-19.66,2.59-1.74,13.72,4.5,15.94,7.36" style="fill:none; stroke:#000; stroke-linecap:round; stroke-linejoin:round; stroke-width:3.4px;"/><path d="M47.21,144.53s-6.61,21.12-1.64,39.7c5.9,22.05,8.22,26.88,10.95,34.25s4.47,15.46,2.47,21.7c-2.02,6.27-3.08,4.35-3.02,10.27,.07,5.86,8.11,7.29,12.83,7.26,6.83-.03,9.92-2.81,9.92-2.81" style="fill:none; stroke:#000; stroke-linecap:round; stroke-linejoin:round; stroke-width:3.4px;"/><path d="M114.04,210.52c-1.55,4.6-7.24,27.84-6.07,30.93s4.28,9.63,1,14c-2.89,3.85-6,4-13,4-5.59,0-15-1-16-7" style="fill:none; stroke:#000; stroke-linecap:round; stroke-linejoin:round; stroke-width:3.4px;"/><path d="M219.21,188.53s1.73-26.25-27.24-49.07c-16.74-13.18-40.98-16.75-57.26-18.84-8.49-1.09-14.08-9.68-13.79-15.88s-2.43-15.38-3.65-19.13" style="fill:none; stroke:#000; stroke-linecap:round; stroke-linejoin:round; stroke-width:3.4px;"/><path d="M218.97,195.45s2.37,27.63-5,41c-7.37,13.37-32.7,20.4-41.3,20.77-8.6,.37-12.06,1.23-18.7,1.23-3.74,0-15.07,.63-19-1-3.43-1.42-5.77-7.07-5-11,1.24-6.29,17-12,17-12" style="fill:none; stroke:#000; stroke-linecap:round; stroke-linejoin:round; stroke-width:3.4px;"/><path d="M49.97,72.73s7.67-5.68,22.7-5.68,24.59,5.68,24.59,5.68" style="fill:none; stroke:#000; stroke-linecap:round; stroke-linejoin:round; stroke-width:3.4px;"/><path d="M34.55,85.61s-4.34,11.69-4.34,21.13c0,13.17,3.47,18.31,6.62,23.65,3.03,5.14,7.57,10.41,7.57,10.41" style="fill:none; stroke:#000; stroke-linecap:round; stroke-linejoin:round; stroke-width:3.4px;"/><path d="M116.97,239.45s3.5,2.4,7,3.2,7,.8,7,.8" style="fill:none; stroke:#000; stroke-linecap:round; stroke-linejoin:round; stroke-width:3.4px;"/></g></svg>