<?xml version="1.0" encoding="UTF-8"?><svg xmlns="http://www.w3.org/2000/svg" xmlns:xlink="http://www.w3.org/1999/xlink" viewBox="0 0 280 280"><defs><clipPath id="clippath"><path d="m205.74,235.69s28.65-14.27,37.76-67.55c6.52-38.13,12.59-84.06-6.42-84.06-16.46,0-10.27,29.03-16.33,65.06-5.05,30-17.69,51-17.69,51,0,0-12.19,32.71,2.68,35.54Z" style="fill:none;"/></clipPath><clipPath id="clippath-1"><path d="m209.28,155.52c-14.28-23.32-43.28-31-63-34-20.05-3.05-24-11-24-11,0,0-20.44,19.93-39.16,22.93-15,2.4-32.84,1.08-43.84-.92,0,0,9.75,7,6,28-2.44,13.67,1.58,33,10,53,6.15,14.58,4,29.46,4,29.46,0,0-4.03,4.63-2,9.54,2.03,4.9,9.24,5.91,15,5,5.2-.83,3-2,9-2,4.12,0,8.33,6.54,19,5,7.61-1.1,10.86-2.79,11-8,.02-.86-1.8-7.08-2-11-.29-5.5,1-9,1-9,0,0,2,4,8,7,6,3,19.85,2.93,13,6-2.4,1.07-1.15,5.94,1,9,2.81,4,19.35,3.93,25.74,3.93,12.17,0,31.4-4.53,37.45-8,6.05-3.48,18.21-5.93,21.81-25.93,4.14-23,10.68-38.48-8-69Z" style="fill:none;"/></clipPath><clipPath id="clippath-2"><path d="m73.57,66.89c-12.3,0-18.13,2.17-29.46,11-12.68,9.88-14.13,18.12-14,27s.9,18.17,6.58,26.33c3.78,5.44,10.43,13.67,10.43,13.67,0,0-1.7,3,25,3,20.81,0,49-15.28,49-38,0-15.4-.32-22.12-13-32-11.34-8.83-22.24-11-34.54-11Z" style="fill:none;"/></clipPath></defs><g style="isolation:isolate;"><g id="pattern_3"><path d="m205.74,235.69s28.65-14.27,37.76-67.55c6.52-38.13,12.59-84.06-6.42-84.06-16.46,0-10.27,29.03-16.33,65.06-5.05,30-17.69,51-17.69,51,0,0-12.19,32.71,2.68,35.54Z" style="fill:#ffe2bc;"/><g style="mix-blend-mode:soft-light;"><g style="clip-path:url(#clippath);"><path d="m246.7,120.85s-2.97-5.22-9.63-5.78c-4.67-.39-10.37,2.78-10.37,2.78,0,0,.33-7.9,0-15-.43-9.16,0-19,10.36-18.74,5.8.14,9.06,7.72,9.64,16.74.57,9.02,0,20,0,20Z"/><path d="m230.1,203.42s-1-12-3-15-8-7-4-11,6,1,9,0c3-1,8-4,10-2s1,8,1,15-7,15-13,13Z"/><path d="m213.1,169.42c-4-4-1-12,4-13,1.39-.28,5,3,7,4s11,0,10,3-7,1-10,4-7,6-11,2Z"/><path d="m227.1,124.42c2.19.44,5,5,9,5s6,1,8,4-8,0-10,1c-2,1-8,2-11-1-2.12-2.12-1-10,4-9Z"/><path d="m248.1,141.42c5,2,2.66,9.89,1,11-3,2-12,2-15,2s-8-3-6-7c2-4,5-1,8-2s7-6,12-4Z"/></g></g><path d="m209.11,154.88c-14.28-23.32-43.28-31-63-34-20.05-3.05-24-11-24-11,0,0-20.44,19.93-39.16,22.93-15,2.4-25.84,5.07-36.84,3.08,0,0,3.75,3,0,24-2.44,13.67.58,33,9,53,6.15,14.58,4,29.46,4,29.46,0,0-4.03,4.63-2,9.54,2.03,4.9,9.24,5.91,15,5,5.2-.83,3-2,9-2,4.12,0,8.33,6.54,19,5,7.61-1.1,10.86-2.79,11-8,.02-.86-1.8-7.08-2-11-.29-5.5,1-9,1-9,0,0,2,4,8,7,6,3,19.85,2.93,13,6-2.4,1.07-1.15,5.94,1,9,2.81,4,19.35,3.93,25.74,3.93,12.17,0,31.4-4.53,37.45-8,6.05-3.48,18.21-5.93,21.81-25.93,4.14-23,10.68-38.48-8-69Z" style="fill:#ffe2bc;"/><path d="m96.1,72.89s16.8-13.68,20.92-11.25c4.12,2.43.08,28.25.08,28.25,0,0-7.64-5.55-11.84-9.52-3.87-3.66-9.16-7.48-9.16-7.48Z" style="fill:#ffe2bc;"/><path d="m54.1,72.89s-16.51-13.68-20.63-11.25,2.63,28.25,2.63,28.25c0,0,4.94-5.55,9.13-9.52,3.87-3.66,8.87-7.48,8.87-7.48Z" style="fill:#ffe2bc;"/><path d="m73.57,66.89c-12.3,0-18.13,2.17-29.46,11-12.68,9.88-14.13,18.12-14,27s.9,18.17,6.58,26.33c3.78,5.44,10.43,13.67,10.43,13.67,0,0-1.7,3,25,3,20.81,0,49-15.28,49-38,0-15.4-.32-22.12-13-32-11.34-8.83-22.24-11-34.54-11Z" style="fill:#ffe2bc;"/><g style="mix-blend-mode:soft-light;"><g style="clip-path:url(#clippath-1);"><path d="m168.05,202.64c-2.04.03-5.29,1.02-7.72-.84-2.88-2.21-5.68-6.87-6.07-10.34-.71-6.27,4.11-11.66,7.9-12,2.77-.25,7.11,1.78,8.75,3.81,2.09,2.58,2.45,6.7,2.94,9.22.88,4.51.55,10.06-5.8,10.15Z"/><path d="m167.04,176.03c7.74,1.61,9.28,7.87,10.63,12.72,1.35,4.85.64,10.54-.47,13.14-1.23,2.89-2.09,7.32-7.42,10.18-4.65,2.5-6.11,3.28-11.89,6.22-6.59,3.36-16.56,10.03-16.04,12.82s8.76-4.13,14.32-6.37c7.22-2.91,18.88-4.83,24.55-10.11,5.67-5.28,9.59-14.64,9.27-19.9-.32-5.27-3.35-16.86-8.93-21.29-5.64-4.48-14.52-6.41-20.54-5.19-8.88,1.8-14.74,7.51-16.95,12.56-1.57,3.6-1.22,11.36.49,17.05,1.62,5.38,4.66,8.43,10.05,11.37s15.17,1.6,14.17-.88c-.66-1.63-6.99-.87-11.63-4.62-5.47-4.42-6.82-9.45-5.5-16.58,1.01-5.41,4.11-13.59,15.88-11.13Z"/><path d="m180.65,146.38c-7.35-1.96-14.83,4.03-20.56,5.85-8.79,2.79-17.07,12.11-27.46,18.52-9.52,5.87-2.59,30.35,4.66,29.7,4.98-.44-6.31-18.34,6.56-27.69,10.13-7.37,15.78-14.46,28.8-12.56,6.47.95,13.31,7.44,18.55,14.35,4.62,6.1,4.26,10.77,5.1,17.95.84,7.17-1.84,12.91-5.28,18.8-3.63,6.24-6.4,11.01-16.27,15.28-9.33,4.03-27.07,6.23-25.3,8.93,1.77,2.7,21.47,1.64,33.22-3.09,10.04-4.04,14.46-8.97,18.32-18.04,3.86-9.06,8.37-16.9,6.59-26.42-1.78-9.52-1.73-16.6-7.14-22.26-5.66-5.92-13.47-17.63-19.8-19.32Z"/><path d="m189.76,141.8c4.47.93,9.62,7.61,7.79,9.17-1.83,1.56-9.53-2.52-17.72-2.5-3.88,0-7.45-1.03-12.86,2.15-4.36,2.57-6.83.09-10.24,8.95-2.74,7.1-14.17,7.18-22.18,11.81-4.66,2.69-11.97,4.9-13.42,1.3-1.14-2.82,9.46-2.98,13.97-8.08,6.13-6.93,15.31-7.28,16.85-13.64,1.54-6.36,8.93-8.6,14.66-9.67,7.62-1.43,17.79-.6,23.16.52Z"/><path d="m174.63,123.6c4.54.49,13.66,13.31,11.99,15.04-1.67,1.73-6.53-3.13-14.68-2.32-3.86.38-10.65-.73-15.72,2.96-4.1,2.98-2.12,1.73-8.53,8.73-6.75,7.38-16.3,9.09-23.83,14.48-4.37,3.13-29.29,10.54-31.52,6.83-2.63-4.37,25.02-9.74,29.02-15.25,5.43-7.49,14.16-5.81,18.56-10.47,4.49-4.76,7.09-13.55,12.69-15.17,7.45-2.16,16.58-5.43,22.03-4.83Z"/><path d="m54.62,173.47c7.38.09,15.53-3.48,16.89-1.29,2.35,3.81-7.52,5.69-14.62,7.62-8.1,2.2-18.01.15-16.62-10.64.53-4.12,6.97,4.23,14.36,4.31Z"/><path d="m64.01,218.75c9.01,3.35,21.08,4.43,20.91,2.44s-7.51-5.35-12.57-5.91-14.1-11.79-16.01-10.62c-1.9,1.17-4.62,4.43-3.27,8.32s10.32,5.53,10.95,5.76Z"/><path d="m56.33,194.09c9.52-1.37,18.66-7.02,17.55-8.68-1.11-1.66-4.26-.74-8.98,1.2s-20.94-3.15-22.05-1.21c-1.11,1.94-1.94,6.1,1.11,8.88,3.05,2.77,11.71-.09,12.37-.18Z"/><path d="m53.42,207.13c9.61.11,22.2-.17,22.02-2.16-.44-4.98-6.62-7.19-11.58-5.99-4.96,1.19-21.03-4.26-22.42-2.51s-2.86,5.73-.27,8.94c2.59,3.21,11.58,1.72,12.25,1.72Z"/><path d="m61.4,225.81s4.09,1.07,8.08.71c3.98-.36,7.97-.71,8.06.28s-1.81,2.17-4.8,2.44c-2.99.27-5.71,3.52-9.87,1.89-4.16-1.64-9.14-1.19-9.41-4.18s5.94-1.38,7.95-1.14Z"/><path d="m106.67,229.9c-4.16-1.64-11.86,2.06-12.68,4.14s4.16,1.64,7.15,1.37,8.24,2.28,8.06.28,1.64-4.16-2.53-5.8Z"/><path d="m58.01,240.16c-.5-1.94,5.71-3.52,9.69-3.88,3.98-.36,5.8-2.53,5.98-.53s-6.71,3.61-9.52,5.87c-2.81,2.26-4.62,4.43-6.15-1.46Z"/><path d="m102.82,239.76c-2.99.27-7.7,3.7-10.6,4.96-2.9,1.26-3.9,1.35-3.72,3.34s2.99-.27,6.97-.62,11.22,2.01,10.96-.98.37-7.06-3.61-6.71Z"/><path d="m86.22,211.83c.27,2.99,1.35,3.9,6.42,4.45,5.07.55,13.77-3.24,14.03-.25.27,2.99-12.5,6.14-10.24,8.95,1.4,1.74,15.03-.34,15.58-5.41.55-5.07,1.37-7.15-.71-7.97-2.08-.82-8.24-2.28-13.22-1.83-4.98.44-12.49-4.91-11.86,2.06Z"/><path d="m82.73,238.81c-.97-.23-4.62,4.43-8.61,4.78s-7.06-.37-6.88,1.62c.18,1.99,6.15,1.46,9.14,1.19s8.24,2.28,7.97-.71,1.46-6.15-1.62-6.88Z"/><path d="m82.79,237.54c.31-1.98,8.06.28,10.05.11,1.99-.18,5.07.55,5.16,1.55s-9.96.89-10.96.98-4.89,1.44-4.25-2.63Z"/><path d="m94.49,182.18c.78-2,7.26-1.09,13.77-3.24,4.01-1.32,5.88-5.4,8.43-6.78,6.01-3.24,14.16-4.14,15.85-2.42s3.69,9.99-1.01,11.13c-2.23.54-15.83,2.01-21.73,3.95-6.53,2.15-16.11-.57-15.3-2.65Z"/><path d="m99.15,199.83c-.81,2.99,10.49,1.07,15.26,4.66,3.82,2.87.98,10.96,6.87,10.43,2.08-.19,5.45-5.51,5.09-9.49s1.79-13.21-2.81-14.81c-4.6-1.6-6.92,5.64-9.87,5.9s-13.43-.81-14.55,3.31Z"/><path d="m210.6,211.97c5.07.55,4.23,13.68,2.69,18.84-1.55,5.16-7.99,11.76-14.87,13.38-6.88,1.62-19.54.74-23.99,1.14-4.98.44-12.68,4.14-11.05-.02,1.64-4.16,15.49-6.4,23.28-9.11,7.79-2.7,14.87-13.38,16.68-15.55s2.19-9.23,7.26-8.68Z"/><path d="m191.98,250.78s-6.15-1.46-12.13-.92c-5.98.53-14.12-.75-19.01.69-4.89,1.44-7.79,2.7-3.54,5.34,4.25,2.63,9.87-1.89,17.02-.52,7.15,1.37,8.16,4.12,9.74,3.56,1.58-.56,10.19-5.34,7.93-8.15Z"/><path d="m139.81,206.24c3.13,3.9,13.57,5.82,12.75,7.9s-5.98.53-9.78,2.88c-3.81,2.35-10.33,7.95-9.87,1.89.46-6.07-2.24-13.86.75-14.12,2.99-.27,3.9-1.35,6.15,1.46Z"/><path d="m49.41,143.31s2.57,10.08,6.82,10.07c4.25-.01,16.05-4.17,21.58-6.57,5.98-2.6,18.95-3.75,22.69-5.78,3.74-2.03,13.2-10.88,15.35-13.57s5.94-10.1,9.12-8.76c3.18,1.34,4.21,5.37-1.69,10.09-5.89,4.72-13.86,14.06-21.5,17.29-6.4,2.71-16.97,2.18-21.95,3.45-4.71,1.2-17.81,9.9-23.65,9.25-5.84-.66-9.28-3-10.56-8.04-1.28-5.04,2.2-8.07,3.79-7.41Z"/><path d="m144.4,115.7c-3.6,2.09-3.58,9.6-5.53,11.8-1.95,2.2-4.74,7.59-6.69,9.79-1.38,1.56-6.95,5.64-10,6.87-3.05,1.23-.85,3.18,2.2,1.95,3.05-1.23,8.05-4.66,10.97-7.97s8.74-6.98,10.62-10.22c1.89-3.24,6.97-9.57,5.75-11.63-1.22-2.05-5.32-1.76-7.33-.59Z"/><path d="m53.74,163.12c-.53,2.33,9.38,6.99,14.98,5.33,5.6-1.66,7.25-4.31,12.85-5.97,5.6-1.66,20.52-.65,26.36-5.63,5.84-4.98,19.13-20.95,17.42-22.61-1.71-1.66-17.78,17.29-23.38,18.95-5.6,1.66-16.27,2.65-24.12,4.97-6.72,1.99-7.25,4.31-11.73,5.64s-11.85-3-12.38-.68Z"/></g></g><path d="m218.16,230.1c-.42,0-.85-.14-1.2-.43-.81-.66-.94-1.86-.28-2.67,2.16-2.66,4.32-6.09,6.78-10.78,2.1-4.02,12.86-25.32,18.19-50.47,4.18-19.74,4.58-41.03,4.79-52.46l.04-2.32c.01-.66.07-1.43.14-2.31.2-2.54.48-6.03-.12-10.13-.15-1.04.57-2,1.6-2.16,1.04-.15,2,.57,2.16,1.6.66,4.52.36,8.41.15,10.98-.06.81-.12,1.52-.13,2.09l-.04,2.31c-.22,11.56-.62,33.08-4.88,53.18-5.43,25.63-16.4,47.35-18.54,51.44-2.58,4.93-4.86,8.55-7.19,11.42-.38.46-.92.7-1.48.7Z"/><path d="m216.05,170.77c-.17,0-.34-.02-.51-.07-1.01-.28-1.6-1.33-1.33-2.34,1.77-6.4,3.66-14.23,5.95-24.64,2.93-13.34,3.11-25.18,3.26-34.69.22-14.31.38-24.64,10.58-26.66,6.47-1.28,13.03,3.86,14.35,9.14.26,1.02-.36,2.05-1.38,2.31-1.01.25-2.05-.36-2.31-1.38-.9-3.56-5.65-7.19-9.93-6.33-6.88,1.36-7.29,8.42-7.51,22.99-.15,9.68-.33,21.74-3.35,35.45-2.3,10.47-4.21,18.36-6,24.83-.23.84-1,1.39-1.83,1.39Z"/><path d="m86.93,209.77s-.05,0-.08,0c-.21,0-5.12-.25-11.72-4.08-6.74-3.91-9.94-11.16-10.07-11.47-.42-.96.03-2.08.99-2.5.97-.42,2.08.03,2.5.99.05.11,2.88,6.44,8.49,9.69,5.73,3.32,9.94,3.57,9.98,3.57,1.04.05,1.85.94,1.81,1.99-.05,1.02-.88,1.81-1.89,1.81Z"/><path d="m81.87,246.72c-.16,0-.33-.02-.5-.07-1.01-.27-1.61-1.32-1.34-2.33.01-.04,1.26-4.84.94-13.43-.32-8.49-1.84-12.31-1.86-12.34-.4-.97.06-2.08,1.03-2.48.97-.4,2.07.05,2.48,1.02.07.17,1.8,4.38,2.15,13.66.35,9.23-1.01,14.36-1.06,14.57-.23.85-1,1.4-1.83,1.4Z"/><path d="m117.03,82.45c-1.05,0-1.9-.85-1.9-1.9,0-.84.26-2.1.77-4.43.66-3.04,2.66-12.25.92-13.62-1.98-.51-11.42,4.32-13.43,6.91-.64.83-1.84.98-2.67.34-.83-.64-.98-1.84-.34-2.67,2.17-2.81,14.46-10.48,18.5-7.78,3.68,2.46,2.5,9.44.73,17.62-.32,1.48-.69,3.15-.69,3.62,0,1.05-.85,1.9-1.9,1.9Zm-.17-19.93h0Z"/><path d="m33.47,82.46c-1.05,0-1.9-.85-1.9-1.9,0-.47-.36-2.14-.69-3.62-1.78-8.18-2.95-15.15.72-17.62,4.04-2.71,16.32,4.97,18.5,7.78.64.83.49,2.02-.34,2.67-.83.64-2.02.49-2.67-.34-2-2.59-11.46-7.45-13.43-6.91-1.74,1.36.26,10.57.92,13.62.51,2.33.77,3.59.77,4.43,0,1.05-.85,1.9-1.9,1.9Zm.17-19.93h0Z"/><path d="m69.59,258.98c-6.72,0-14.53-2.39-14.61-9.14-.04-3.91.4-4.91,1.32-6.62.47-.87,1.05-1.95,1.79-4.25,1.58-4.93.76-11.81-2.44-20.46-.43-1.15-.84-2.24-1.27-3.34-2.33-6.09-4.74-12.4-9.74-31.08-5.05-18.89,1.38-39.87,1.66-40.76.31-1,1.38-1.56,2.38-1.25,1,.31,1.56,1.38,1.25,2.38-.06.21-6.38,20.83-1.61,38.64,4.95,18.49,7.32,24.7,9.62,30.7.43,1.12.85,2.22,1.28,3.38,3.51,9.46,4.34,17.18,2.49,22.94-.84,2.63-1.55,3.93-2.06,4.89-.66,1.22-.9,1.68-.87,4.78,0,.66.03,2.66,3.5,4.11,1.95.81,4.75,1.28,7.42,1.28,5.91-.03,8.57-2.24,8.68-2.34.79-.68,1.99-.6,2.67.19.68.78.62,1.96-.15,2.66-.15.13-3.72,3.26-11.18,3.29h-.13Z"/><path d="m96.88,260.72c-6.14,0-16.63-1.12-17.88-8.59-.17-1.04.53-2.01,1.56-2.19,1.03-.18,2.01.53,2.19,1.56.84,5.02,11.02,5.41,14.13,5.41,6.88,0,9.16-.15,11.48-3.24,2.33-3.11.32-8.18-.88-11.22-.14-.35-.27-.67-.38-.97-1.6-4.22,5.26-29.89,6.04-32.21.33-.99,1.41-1.53,2.41-1.2.99.33,1.53,1.41,1.2,2.41-1.75,5.21-6.82,26.88-6.08,29.69.09.24.21.55.35.88,1.4,3.52,4,10.08.39,14.9-3.57,4.76-7.69,4.76-14.52,4.76Z"/><path d="m220.11,189.78s-.08,0-.13,0c-1.05-.07-1.84-.97-1.77-2.02.02-.38,1.17-25.64-26.52-47.46-17.02-13.4-42.59-16.68-56.33-18.44-9.27-1.19-15.8-10.41-15.45-17.86.29-6.12-2.65-15.67-3.56-18.45-.33-1,.22-2.07,1.22-2.4,1-.32,2.07.22,2.4,1.22,1.23,3.76,4.05,13.22,3.74,19.81-.24,5.01,4.37,12.91,12.13,13.91,14.1,1.81,40.35,5.17,58.2,19.23,29.42,23.17,28.04,49.58,27.96,50.69-.07,1-.9,1.78-1.89,1.78Z"/><path d="m146.87,259.83c-4.88,0-9.28-.25-11.73-1.26-4.54-1.88-7.03-8.6-6.14-13.12,1.44-7.33,17.35-9,20.52-9.26,1.05-.11,1.96.69,2.05,1.74s-.69,1.96-1.74,2.05c-6.51.54-16.44,2.88-17.1,6.2-.63,3.21,1.39,7.85,3.86,8.88,2.86,1.19,11.13,1,15.57.9,1.09-.02,2.02-.05,2.7-.05,3.51,0,6.12-.25,9.14-.54,2.57-.25,5.49-.52,9.47-.69,8.83-.38,32.99-7.58,39.72-19.79,7-12.71,4.79-39.65,4.77-39.92-.09-1.05.69-1.97,1.73-2.06,1.05-.08,1.97.68,2.06,1.73.1,1.15,2.33,28.36-5.23,42.08-4.31,7.82-13.86,13.07-21.12,16.1-8.66,3.61-17.35,5.46-21.76,5.65-3.89.17-6.75.44-9.28.68-3.12.3-5.81.55-9.5.56-.66,0-1.56.02-2.62.04-1.81.04-3.63.07-5.39.07Z"/><path d="m98.16,74c-.32,0-.65-.08-.95-.26-.09-.05-9.56-5.42-23.64-5.42h0c-14.13,0-21.5,5.25-21.58,5.31-.85.62-2.03.43-2.65-.41-.62-.84-.44-2.03.4-2.65.33-.25,8.35-6.05,23.83-6.05h0c15.15,0,25.13,5.69,25.54,5.93.91.53,1.22,1.69.69,2.6-.35.61-.99.95-1.65.95Z"/><path d="m45.3,142.05c-.53,0-1.07-.22-1.44-.66-.19-.22-4.68-5.46-7.76-10.68l-.47-.79c-3.01-5.06-6.42-10.79-6.42-23.83,0-9.66,4.27-21.3,4.45-21.79.37-.98,1.46-1.48,2.44-1.12.98.37,1.49,1.46,1.12,2.44-.04.11-4.22,11.49-4.22,20.47,0,11.99,2.99,17.02,5.89,21.88l.47.8c2.91,4.92,7.33,10.08,7.37,10.13.68.8.59,2-.2,2.68-.36.31-.8.46-1.24.46Z"/><path d="m131.87,244.71c-.15,0-3.76,0-7.42-.85-3.81-.87-7.5-3.38-7.65-3.48-.86-.59-1.08-1.77-.49-2.64.59-.87,1.78-1.08,2.64-.5.03.02,3.26,2.21,6.35,2.92,3.25.74,6.54.75,6.58.75,1.05,0,1.9.85,1.9,1.9s-.85,1.9-1.9,1.9Z"/><g style="mix-blend-mode:soft-light;"><g style="clip-path:url(#clippath-2);"><path d="m47.73,101.75c0-1-5.36-1.76-8,0-3,2-9.8,7.2-8,9,3,3,5-3,9-6,3.05-2.28,7-2,7-3Z"/><path d="m45.73,113.75c-1-1-3.69,1.34-6,2-4.43,1.27-6.82-.6-7.41,1.7s4.41,2.3,7.41,1.3,7-4,6-5Z"/><path d="m102.43,99.75c0-1,5.36-1.76,8,0,3,2,9.8,7.2,8,9-3,3-5-3-9-6-3.05-2.28-7-2-7-3Z"/><path d="m104.43,111.75c1-1,3.69,1.34,6,2,4.43,1.27,6.82-.6,7.41,1.7s-4.41,2.3-7.41,1.3c-3-1-7-4-6-5Z"/><path d="m62.24,92.49c-2,0-.17-7.41.83-10.41,1.1-3.29,1.17-10.59,3.17-10.59,2.24,0,6.04,17.6,5,19s-2-9-3-9-2.31,1.94-3,4c-1,3-2,7-3,7Z"/><path d="m86.27,92.07c1.97-.59,1-7,0-10-1.1-3.29-2.03-10.59-4.03-10.59-2.24,0-5.04,17.6-4,19,1.04,1.4,3-9,4-9s1.31,1.94,2,4c1,3,.97,6.9,2.03,6.59Z"/><path d="m67.53,79.49c-1.08,0-2.97-3.46-3.25-7.18s-.25-6.08,1.08-6.28c1.61-.25,5.42-.9,5.42,0,0,.9-2.17,4.49-2.17,7.18,0,2.69,0,6.28-1.08,6.28Z"/><path d="m81.48,79.49c1.08,0,2.49-3.28,2.76-7s.74-6.26-.6-6.47c-1.61-.25-5.42-.9-5.42,0s2.17,4.49,2.17,7.18,0,6.28,1.08,6.28Z"/><path d="m74.24,92.48c3,0,2.34-12.42,2.83-18.73.29-3.82.38-7.21,0-7.87-1-1.75-4.17-1.75-5,0-.31.65-.4,4.1,0,7.87.66,6.33.17,18.73,2.17,18.73Z"/><path d="m96.22,83.72c.17-.34-.36-1.3-.85-1.19-.14.04-.29.07-.42.12-.62.2-1.18.51-1.68.85-.5.34-.95.72-1.36,1.11-.2.2-.4.4-.58.6-.14.14-.5.59-.64.86-.7,1.21-.96,2.32-1.08,3.49-.05.58-.06,1.17,0,1.77.02.13.04.27.05.41.07.45,1.13.72,1.41.4.09-.11.18-.21.26-.31.37-.45.69-.9,1-1.35.59-.89,1.09-1.85,1.49-2.53.12-.21.1-.19.31-.47.16-.22.31-.44.45-.67.29-.45.55-.9.79-1.37.2-.41.43-.86.7-1.4.05-.11.1-.21.16-.33Z"/><path d="m55.18,83.88c-.08-.31.53-1.23.97-1.1.13.04.25.09.38.14.55.24,1.03.61,1.43,1.01.8.83,1.29,1.83,1.55,2.87.13.51.2,1.1.19,1.63-.01.53-.09,1.05-.22,1.56-.14.5-.33.99-.59,1.46-.06.1-.13.21-.19.32-.22.35-1.3.2-1.46-.13-.05-.11-.1-.21-.14-.32-.2-.46-.35-.9-.49-1.32-.14-.42-.26-.83-.36-1.22-.1-.4-.19-.75-.28-1.11-.18-.75-.34-1.51-.47-2.29-.07-.39-.14-.79-.23-1.21-.02-.09-.04-.2-.07-.29Z"/></g></g></g></g></svg>