<?xml version="1.0" encoding="UTF-8"?><svg id="bicolor_10" xmlns="http://www.w3.org/2000/svg" xmlns:xlink="http://www.w3.org/1999/xlink" viewBox="0 0 280 280"><defs><clipPath id="clippath"><path d="M205.28,237.34s28.65-14.27,37.76-67.55c6.52-38.13,12.59-84.06-6.42-84.06-16.46,0-10.27,29.03-16.33,65.06-5.05,30-17.69,51-17.69,51,0,0-12.19,32.71,2.68,35.54Z" style="fill:none;"/></clipPath><clipPath id="clippath-1"><path d="M208.72,156.17c-14.27-23.32-43.28-31-63-34-20.05-3.05-25-12-25-12,0,0-19.44,20.93-38.16,23.93-15,2.4-25.84,5.07-36.84,3.07,0,0,3.74,3,0,24-2.44,13.67,.57,33,9,53,6.14,14.58,4,29.46,4,29.46,0,0-4.03,4.63-2,9.54,2.03,4.9,9.24,5.92,15,5,5.2-.83,3-2,9-2,4.12,0,8.33,6.54,19,5,7.61-1.1,10.86-2.79,11-8,.02-.86-1.79-7.08-2-11-.29-5.5,1-9,1-9,0,0,2,4,8,7s19.85,2.93,13,6c-2.4,1.07-1.15,5.94,1,9,2.81,4,19.35,3.93,25.74,3.93,12.17,0,31.4-4.53,37.45-8,6.05-3.47,18.21-5.93,21.81-25.93,4.14-22.99,10.68-38.48-8-69Z" style="fill:none;"/></clipPath><clipPath id="clippath-2"><path d="M149.12,200.73c-6.26,10.01-3,25,7,33,11.74,9.39,21,14,33.21,3.5s4.83-29.95-7.21-42.5c-12.04-12.55-28-2-33,6Zm20.74-19.33c5.31,11.94,39.13-1.99,31.17-27.19-7.96-25.2-49.33-39.88-63.14-25.91-5.62,5.69-11.9,28.77,1.74,43.92,13.64,15.15,24.92-2.76,30.22,9.18Z" style="fill:none;"/></clipPath><clipPath id="clippath-3"><path d="M72.67,66.79c-12.3,0-18.13,2.17-29.47,11-12.68,9.88-14.13,18.12-14,27s.9,18.17,6.57,26.33c3.78,5.44,10.43,13.67,10.43,13.67,0,0-1.7,3,25,3,20.81,0,56.37-11.78,51.91-34.07-3-15-3.23-26.06-15.91-35.93-11.34-8.83-22.24-11-34.53-11Z" style="fill:none;"/></clipPath></defs><g><path d="M205.28,237.34s28.65-14.27,37.76-67.55c6.52-38.13,12.59-84.06-6.42-84.06-16.46,0-10.27,29.03-16.33,65.06-5.05,30-17.69,51-17.69,51,0,0-12.19,32.71,2.68,35.54Z" style="fill:#ffe2bc;"/><g style="clip-path:url(#clippath);"><g><path d="M225.26,219.91c.11,.47-.21,.81-.62,.91-.42,.1-.91,.02-1.23-.34l-.3-.32-.3-.32c-.9-.95-1.84-1.85-2.8-2.71l-.73-.64c-.25-.21-.5-.41-.74-.62-.51-.4-1-.81-1.53-1.18-.5-.4-1.05-.75-1.57-1.12l-.82-.53c-.14-.09-.27-.18-.41-.26l-.42-.25-.42-.25-.21-.13c-.07-.04-.14-.09-.2-.12-.13-.07-.25-.14-.38-.21l-.4-.2c-.55-.27-1.13-.51-1.75-.74-1.23-.46-2.56-.87-3.95-1.23-1.39-.37-2.83-.7-4.3-1.02-.34-.07-.68-.15-1.02-.22-.55-.11-.82-.45-.83-.79-.01-.34,.28-.68,.87-.77,.37-.05,.74-.1,1.1-.13,1.61-.16,3.25-.18,4.9-.07,1.65,.11,3.32,.37,4.96,.82,.82,.23,1.64,.5,2.44,.84,.2,.09,.4,.18,.59,.27,.2,.09,.39,.2,.58,.3,.1,.05,.18,.1,.27,.15l.26,.15,.51,.3,.5,.3c.17,.1,.32,.22,.48,.32,.32,.22,.63,.44,.95,.66,.59,.47,1.19,.94,1.72,1.45,.55,.5,1.04,1.03,1.51,1.57,.23,.28,.45,.55,.67,.83,.21,.28,.41,.57,.6,.85,.76,1.15,1.38,2.35,1.77,3.6l.13,.42,.11,.42Z" style="fill:#fdc987;"/><path d="M232.57,202.68c.32,.41,.19,.82-.15,1.03-.34,.21-.83,.28-1.3,.04l-.43-.22-.43-.21c-1.28-.63-2.58-1.2-3.87-1.73l-.97-.39c-.33-.12-.66-.24-.98-.37-.66-.23-1.31-.47-1.97-.67-.65-.23-1.33-.4-1.98-.6l-1-.26c-.17-.04-.33-.09-.5-.13l-.51-.11-.51-.11-.25-.06c-.08-.02-.17-.04-.24-.05-.15-.03-.3-.06-.46-.09l-.47-.07c-.63-.09-1.29-.15-1.97-.2-1.36-.08-2.78-.08-4.23-.02-1.46,.05-2.94,.15-4.46,.28-.35,.03-.69,.05-1.04,.09-.56,.05-.97-.19-1.14-.5-.17-.31-.06-.72,.44-.97,.31-.15,.63-.3,.96-.44,1.42-.61,2.92-1.1,4.5-1.47,1.58-.37,3.24-.61,4.98-.66,.87-.02,1.75,0,2.65,.09,.23,.03,.45,.05,.68,.08,.23,.03,.45,.07,.68,.11,.12,.02,.21,.04,.32,.06l.31,.07,.61,.13,.61,.14c.2,.05,.4,.11,.6,.17,.4,.11,.79,.23,1.19,.35,.77,.27,1.55,.53,2.28,.87,.75,.31,1.45,.67,2.14,1.03,.34,.19,.67,.39,1.01,.58,.33,.2,.64,.42,.96,.62,1.25,.86,2.39,1.81,3.34,2.86l.31,.36,.3,.37Z" style="fill:#fdc987;"/><path d="M237.94,191.11c.32,.41,.19,.82-.15,1.03-.34,.21-.83,.28-1.3,.04l-.43-.22-.43-.21c-1.28-.63-2.58-1.2-3.87-1.73l-.97-.39c-.33-.12-.66-.24-.98-.37-.66-.23-1.31-.47-1.97-.67-.65-.23-1.33-.4-1.98-.6l-1-.26c-.17-.04-.33-.09-.5-.13l-.51-.11-.51-.11-.25-.06c-.08-.02-.17-.04-.24-.05-.15-.03-.3-.06-.46-.09l-.47-.07c-.63-.09-1.29-.15-1.97-.2-1.36-.08-2.78-.08-4.23-.02-1.46,.05-2.94,.15-4.46,.28-.35,.03-.69,.05-1.04,.09-.56,.05-.97-.19-1.14-.5-.17-.31-.06-.72,.44-.97,.31-.15,.63-.3,.96-.44,1.42-.61,2.92-1.1,4.5-1.47,1.58-.37,3.24-.61,4.98-.66,.87-.02,1.75,0,2.65,.09,.23,.03,.45,.05,.68,.08,.23,.03,.45,.07,.68,.11,.12,.02,.21,.04,.32,.06l.31,.07,.61,.13,.61,.14c.2,.05,.4,.11,.6,.17,.4,.11,.79,.23,1.19,.35,.77,.27,1.55,.53,2.28,.87,.75,.31,1.45,.67,2.14,1.03,.34,.19,.67,.39,1.01,.58,.33,.2,.64,.42,.96,.62,1.25,.86,2.39,1.81,3.34,2.86l.31,.36,.3,.37Z" style="fill:#fdc987;"/><path d="M239.8,179.48c.23,.38,.03,.75-.33,.94-.36,.19-.84,.24-1.22,.03-.24-.13-.47-.26-.71-.39-1.06-.57-2.12-1.1-3.19-1.57-1.06-.48-2.14-.89-3.21-1.26-.53-.2-1.08-.34-1.62-.52-.55-.13-1.09-.31-1.64-.41l-.41-.09-.21-.05h-.05l-.04-.02-.09-.02c-.23-.05-.47-.08-.72-.11-.5-.06-1.03-.1-1.58-.11-1.11-.03-2.29,.03-3.51,.13-1.22,.1-2.48,.25-3.76,.4l-.89,.11c-.48,.06-.88-.16-1.09-.46-.21-.3-.18-.7,.22-.95,.25-.16,.5-.31,.76-.46,1.14-.64,2.37-1.17,3.69-1.6,1.33-.42,2.75-.74,4.28-.87,.77-.06,1.56-.08,2.38-.02,.41,.03,.82,.07,1.24,.14l.16,.03h.08l.07,.03,.27,.06,.54,.12c.73,.15,1.42,.38,2.12,.59,.67,.26,1.35,.5,1.98,.82,1.27,.6,2.44,1.32,3.45,2.14,1.01,.82,1.9,1.71,2.6,2.7,.16,.22,.3,.45,.44,.67Z" style="fill:#fdc987;"/><path d="M241.27,166.67c.2,.37-.02,.73-.39,.91-.37,.18-.84,.23-1.2,.02-.23-.13-.45-.26-.67-.38-1-.56-2-1.07-3.01-1.53-1-.46-2.01-.86-3.02-1.22-.5-.19-1.02-.33-1.52-.49-.52-.12-1.02-.29-1.54-.39l-.39-.09-.19-.05c-.06-.01-.11-.02-.16-.03-.1-.02-.21-.04-.32-.05-.11-.02-.22-.03-.34-.04-.46-.05-.96-.08-1.48-.09-1.04-.01-2.17,.06-3.32,.17-1.16,.11-2.36,.27-3.58,.44l-.85,.12c-.45,.06-.85-.15-1.07-.45-.22-.3-.22-.69,.16-.95,.23-.16,.47-.31,.71-.46,1.06-.65,2.22-1.19,3.47-1.64,1.25-.44,2.61-.78,4.09-.93,.74-.07,1.51-.1,2.31-.05,.2,0,.4,.03,.6,.05,.2,.02,.41,.05,.61,.08,.1,.02,.21,.03,.3,.05l.26,.06,.53,.12c.71,.14,1.38,.37,2.05,.58,.65,.25,1.31,.49,1.91,.8,1.22,.6,2.33,1.3,3.27,2.11,.95,.81,1.77,1.69,2.39,2.66,.14,.21,.27,.44,.39,.66Z" style="fill:#fdc987;"/><path d="M243.25,153.45c.16,.36-.08,.7-.46,.87-.38,.17-.85,.21-1.18,.01-.2-.12-.41-.25-.62-.36-.92-.54-1.84-1.03-2.76-1.47-1.84-.88-3.65-1.56-5.52-1.97l-.35-.07c-.06-.01-.12-.03-.17-.04l-.14-.02c-.09-.02-.18-.03-.28-.04-.09-.02-.2-.03-.3-.04-.41-.04-.86-.06-1.33-.05-.95,.01-1.98,.1-3.06,.23-1.07,.13-2.18,.3-3.33,.48l-.79,.12c-.42,.07-.82-.14-1.06-.43-.24-.29-.27-.68,.07-.93,.21-.16,.42-.31,.63-.47,.95-.65,2-1.21,3.15-1.68,1.15-.46,2.41-.83,3.81-1.01,.7-.09,1.44-.14,2.21-.11,.19,0,.39,.02,.58,.04,.2,.02,.39,.04,.59,.07l.3,.05c.1,.02,.17,.03,.26,.05l.51,.1c.67,.16,1.33,.34,1.96,.57,.63,.23,1.23,.49,1.81,.79,1.14,.59,2.16,1.3,3.02,2.09,.86,.79,1.57,1.66,2.1,2.59,.12,.21,.23,.42,.33,.64Z" style="fill:#fdc987;"/><path d="M244.58,140.37c.22,.33,.04,.69-.3,.9-.34,.21-.79,.31-1.15,.16-.22-.09-.44-.19-.67-.28-.99-.41-1.96-.8-2.93-1.15l-.36-.13-.36-.12c-.24-.08-.47-.17-.72-.24-.24-.07-.48-.15-.71-.23-.24-.07-.48-.14-.71-.21-.95-.27-1.89-.52-2.85-.69l-.36-.07-.18-.04-.18-.03c-.24-.04-.48-.07-.72-.12l-.18-.03h-.08l-.07-.02c-.09,0-.18-.03-.27-.03-.18-.02-.36-.03-.55-.04-.72-.02-1.49,.08-2.32,.33-.83,.24-1.7,.65-2.56,1.13-.2,.11-.39,.23-.59,.35-.31,.19-.77,.15-1.17,0-.39-.15-.67-.49-.53-.85,.09-.22,.19-.44,.3-.65,.25-.47,.57-.92,.96-1.35,.39-.43,.85-.83,1.38-1.2,.54-.36,1.15-.69,1.84-.94,.69-.25,1.44-.43,2.22-.51,.39-.04,.78-.06,1.17-.06,.2,0,.39,.01,.58,.02h.22l.06,.02,.24,.03c.33,.04,.65,.07,.98,.12l.24,.03c.08,.01,.16,.03,.24,.04l.48,.09c2.56,.51,4.91,1.54,6.76,2.91,.93,.68,1.74,1.45,2.41,2.29,.15,.19,.29,.38,.42,.58Z" style="fill:#fdc987;"/><path d="M245.22,126.71c.08,.37-.27,.67-.7,.75-.43,.08-.87,.07-1.12-.12-.15-.12-.31-.22-.47-.33-.72-.46-1.49-.79-2.26-1.03-.78-.24-1.59-.39-2.43-.5-.84-.11-1.72-.16-2.64-.19-.06,0-.11,0-.16,0h-.15c-.1,0-.2,0-.3,0-.2,0-.4,.01-.61,.02-.41,.02-.83,.06-1.26,.12-.86,.1-1.75,.27-2.67,.48-.92,.21-1.86,.47-2.84,.75-.22,.06-.45,.13-.67,.2-.36,.11-.78-.04-1.09-.29-.31-.24-.46-.61-.23-.9,.14-.18,.3-.35,.45-.52,.7-.74,1.54-1.39,2.5-1.95,.96-.56,2.05-1.03,3.26-1.35,.6-.16,1.23-.28,1.88-.36,.33-.03,.65-.07,.99-.08,.17,0,.33-.01,.5-.01h.25c.09,0,.17,0,.24,0,1.22,.04,2.48,.19,3.71,.52,1.23,.33,2.43,.84,3.43,1.55,1,.71,1.78,1.6,2.17,2.57,.09,.22,.15,.44,.2,.66Z" style="fill:#fdc987;"/><path d="M246.44,120.66s-2.95-5.53-9.87-6.3c-4.86-.54-10.88,2.6-10.88,2.6,0,0,.57-8.22,.43-15.63-.18-9.55,.55-19.8,11.34-19.23,6.04,.32,9.22,8.31,9.56,17.72,.34,9.42-.58,20.84-.58,20.84Z" style="fill:#fdc987;"/></g></g><g><path d="M247.92,99.9c.84,5.74,.05,10.32,0,12.76-.22,10.43-.35,33.75-4.88,55.14-4.7,22.16-13.87,42.37-18.37,50.96-2.63,5.01-4.86,8.49-6.98,11.1" style="fill:none; stroke:#000; stroke-linecap:round; stroke-linejoin:round; stroke-width:3.8px;"/><path d="M215.58,170.53c1.97-7.11,3.9-15.32,5.97-24.74,7.32-33.33-2.28-57,12.35-59.9,5.44-1.08,11.05,3.39,12.14,7.74" style="fill:none; stroke:#000; stroke-linecap:round; stroke-linejoin:round; stroke-width:3.8px;"/></g></g><g><path d="M73.02,67.53c-12.3,0-18.13,2.17-29.47,11-12.68,9.88-14.13,18.12-14,27s.9,18.17,6.57,26.33c3.78,5.44,10.43,13.67,10.43,13.67,0,0-1.7,3,25,3,20.81,0,49-15.28,49-38,0-15.4-.32-22.12-13-32-11.34-8.83-22.24-11-34.53-11Z" style="fill:#fff;"/><path d="M208.55,155.53c-14.27-23.32-43.28-31-63-34-20.05-3.05-24-11-24-11,0,0-20.44,19.93-39.16,22.93-15,2.4-25.84,5.07-36.84,3.07,0,0,3.74,3,0,24-2.44,13.67,.57,33,9,53,6.14,14.58,4,29.46,4,29.46,0,0-4.03,4.63-2,9.54,2.03,4.9,9.24,5.92,15,5,5.2-.83,3-2,9-2,4.12,0,8.33,6.54,19,5,7.61-1.1,10.86-2.79,11-8,.02-.86-1.79-7.08-2-11-.29-5.5,1-9,1-9,0,0,2,4,8,7s19.85,2.93,13,6c-2.4,1.07-1.15,5.94,1,9,2.81,4,19.35,3.93,25.74,3.93,12.17,0,31.4-4.53,37.45-8,6.05-3.47,18.21-5.93,21.81-25.93,4.14-22.99,10.68-38.48-8-69Z" style="fill:#fff;"/><path d="M164.28,239.66s-19.42-1.24-24.79,1.06c-5.37,2.3-8.22,4.87-7.35,11.41,.86,6.53,9,5.4,9,5.4,0,0,31.57,2.01,37.97,.45,6.4-1.56,15.95-8.15,20.11-11.56,4.16-3.41-4.77-15.7-15.95-15.7s-14.52,6.7-18.99,8.94Z" style="fill:#fff;"/><g style="clip-path:url(#clippath-1);"><g><path d="M137.9,128.29c-5.62,5.69-11.9,28.77,1.74,43.92,13.64,15.15,24.92-2.76,30.22,9.18s39.13-1.99,31.17-27.19c-7.96-25.2-49.33-39.88-63.14-25.91Z" style="fill:#ffe2bc;"/><path d="M156.12,233.73c-10-8-13.26-22.99-7-33,5-8,20.96-18.55,33-6,12.04,12.55,19.41,32,7.21,42.5s-21.47,5.89-33.21-3.5Z" style="fill:#ffe2bc;"/></g><g style="clip-path:url(#clippath-2);"><g><path d="M116.19,146.59c-1.07-.03-1.64-.53-1.66-1.04-.02-.51,.43-1.04,1.41-1.3,.59-.16,1.18-.32,1.77-.49,2.63-.76,5.21-1.62,7.71-2.6,2.5-.98,4.94-2.07,7.28-3.28,1.17-.61,2.31-1.26,3.43-1.93,.28-.17,.56-.34,.83-.52l.41-.26c.13-.09,.29-.18,.39-.26l.35-.25c.12-.08,.23-.16,.35-.25l.34-.27c.11-.09,.23-.17,.34-.28,.91-.77,1.8-1.66,2.65-2.61,.85-.95,1.68-1.97,2.48-3.01,.81-1.05,1.58-2.14,2.35-3.24,.77-1.11,1.53-2.23,2.27-3.37,1.49-2.28,2.94-4.63,4.39-6.99l.99-1.63c.53-.88,1.18-1.16,1.66-.97,.48,.18,.77,.86,.5,1.88-.16,.63-.34,1.26-.52,1.89-.81,2.73-1.81,5.41-2.97,8.03-.58,1.31-1.22,2.6-1.9,3.88-.69,1.27-1.42,2.53-2.23,3.76-.81,1.23-1.68,2.43-2.65,3.59-.97,1.16-2.03,2.28-3.25,3.3-.14,.13-.31,.25-.47,.38l-.48,.37c-.15,.13-.33,.24-.5,.36l-.51,.35c-.18,.12-.33,.21-.49,.31l-.48,.29c-.32,.2-.64,.38-.96,.56-1.29,.72-2.62,1.38-3.97,1.96-2.7,1.16-5.5,2.05-8.34,2.66-2.84,.61-5.72,.97-8.6,1.03-.65,0-1.29,0-1.94-.02Z" style="fill:#fdd29b;"/><path d="M135.27,157.11c-1.14,.04-1.78-.42-1.83-.93-.05-.51,.41-1.07,1.44-1.39,.62-.2,1.24-.41,1.85-.63,2.75-.97,5.41-2.09,7.95-3.38,2.54-1.29,4.96-2.74,7.22-4.36,1.12-.82,2.2-1.68,3.24-2.58,1.02-.92,2.01-1.87,2.93-2.87l.68-.77,.34-.39,.35-.42c.47-.56,.94-1.12,1.41-1.68l2.84-3.39c1.9-2.27,3.83-4.53,5.79-6.77,1.96-2.24,3.96-4.46,6.01-6.64l1.42-1.49c1.53-1.59,2.95-.57,1.9,1.38-.33,.61-.66,1.21-.99,1.81-1.47,2.62-3.03,5.19-4.65,7.71-1.62,2.52-3.31,5-5.09,7.43-.89,1.21-1.79,2.42-2.72,3.61-.46,.6-.94,1.19-1.42,1.77l-.36,.44c-.12,.15-.26,.3-.39,.46-.27,.3-.53,.61-.8,.91-1.1,1.18-2.28,2.29-3.51,3.32-1.24,1.01-2.55,1.94-3.9,2.79-2.71,1.68-5.59,3.01-8.56,3.99-2.97,.98-6.02,1.63-9.1,1.93-.69,.06-1.38,.11-2.07,.13Z" style="fill:#fdd29b;"/><path d="M150.01,171.91c-1.21,.34-1.98,.08-2.16-.4-.18-.48,.2-1.17,1.27-1.77l1.95-1.1c2.9-1.65,5.77-3.31,8.6-5.01,2.83-1.7,5.61-3.43,8.32-5.24l.51-.34,.5-.34,1.01-.69c.66-.47,1.33-.92,1.98-1.41,1.31-.94,2.58-1.92,3.81-2.93l.92-.76c.3-.26,.59-.52,.89-.78l.44-.39,.43-.4,.43-.4c.14-.13,.29-.26,.42-.4l.82-.82c.14-.13,.27-.28,.4-.42l.39-.42c.13-.14,.26-.28,.39-.42l.37-.43,.37-.43c.06-.07,.12-.14,.18-.22l.17-.23,.7-.91c.12-.15,.23-.31,.34-.47l.34-.48c.46-.63,.88-1.31,1.32-1.98,.22-.33,.43-.68,.64-1.02l.64-1.03,.62-1.05,.31-.53,.3-.53c1.63-2.84,3.19-5.77,4.74-8.72l1.06-2.03c.57-1.09,1.25-1.49,1.73-1.33,.48,.17,.76,.93,.47,2.15-.18,.76-.38,1.51-.58,2.26-.89,3.28-1.98,6.51-3.27,9.69l-.24,.6-.26,.59-.52,1.18c-.18,.39-.37,.78-.56,1.18-.19,.39-.37,.78-.58,1.17-.41,.77-.8,1.55-1.27,2.32l-.34,.57c-.11,.19-.22,.38-.35,.57l-.75,1.13-.19,.28c-.07,.09-.14,.18-.2,.27l-.41,.55-.42,.55c-.14,.18-.29,.35-.44,.52l-.44,.52c-.15,.17-.29,.35-.45,.51l-.92,.98c-.15,.17-.31,.32-.47,.48l-.48,.47-.48,.47-.49,.45c-.33,.29-.66,.59-.99,.88l-1.01,.84c-1.36,1.1-2.76,2.15-4.2,3.12-.71,.5-1.44,.95-2.17,1.42l-1.1,.68-.55,.34-.56,.32c-2.97,1.73-6.04,3.26-9.16,4.61-3.13,1.35-6.31,2.55-9.56,3.55-.73,.22-1.46,.44-2.19,.64Z" style="fill:#fdd29b;"/><path d="M209.29,137.35c.35-.97,1.08-1.4,1.76-1.36,.68,.05,1.31,.65,1.34,1.73,.01,.33,.02,.65,.02,.98,0,.33,0,.65,0,.98-.06,2.91-.47,5.82-1.14,8.69-.68,2.88-1.66,5.72-3,8.48l-.25,.52c-.08,.17-.18,.34-.27,.51l-.56,1.02c-.36,.67-.8,1.36-1.23,2.03-.88,1.33-1.86,2.57-2.88,3.77-2.05,2.38-4.31,4.54-6.7,6.54-2.39,2-4.91,3.85-7.53,5.55-2.62,1.7-5.34,3.28-8.17,4.69-.65,.32-1.3,.64-1.97,.94-1.07,.49-1.95,.31-2.35-.17-.4-.49-.34-1.27,.46-2.03l1.49-1.41c2.16-2.03,4.31-4.06,6.47-6.09,2.13-2.02,4.24-4.03,6.28-6.05,2.03-2.03,4.01-4.07,5.8-6.15,.89-1.04,1.76-2.09,2.53-3.16,.38-.54,.76-1.05,1.11-1.63l.55-.85c.09-.14,.19-.28,.27-.42l.26-.44c1.4-2.31,2.66-4.73,3.82-7.23,1.16-2.5,2.24-5.06,3.23-7.69,.12-.29,.22-.59,.33-.88,.11-.29,.22-.59,.32-.88Z" style="fill:#fdd29b;"/><path d="M205.02,169.13c0-.98,.37-1.54,.87-1.68,.49-.13,1.14,.28,1.45,1.31,.19,.62,.36,1.25,.5,1.88,.63,2.83,.81,5.78,.53,8.74-.28,2.95-1.06,5.91-2.34,8.67-.17,.34-.32,.69-.5,1.02l-.55,1-.6,.98c-.05,.08-.1,.16-.15,.24l-.16,.24-.32,.47c-.11,.16-.22,.31-.33,.47l-.35,.45-.35,.45-.18,.23-.2,.23-.41,.47c-.14,.15-.28,.29-.41,.43l-.42,.42-.42,.39c-1.13,1.04-2.29,1.94-3.48,2.78-1.18,.84-2.39,1.61-3.61,2.33-2.44,1.45-4.94,2.72-7.49,3.87-2.55,1.15-5.14,2.18-7.78,3.08-.61,.2-1.21,.4-1.83,.59-.98,.31-1.67,.06-1.88-.41-.21-.47,.02-1.14,.86-1.71l1.57-1.06c2.28-1.54,4.57-3.03,6.83-4.54,2.26-1.5,4.51-2.99,6.7-4.52,1.09-.76,2.16-1.53,3.2-2.32,1.03-.79,2.03-1.59,2.92-2.41l.33-.31,.31-.31c.1-.1,.21-.2,.3-.31l.28-.31,.14-.15,.14-.18,.29-.36,.29-.35,.27-.37,.27-.37,.14-.18c.04-.06,.09-.13,.13-.19l.52-.76,.49-.78c.16-.26,.31-.53,.46-.8,1.2-2.14,2.12-4.47,2.77-6.93,.65-2.46,1.02-5.05,1.15-7.69,.03-.59,.04-1.18,.04-1.78Z" style="fill:#fdd29b;"/><path d="M209.42,191.83c.82-1.07,1.58-1.39,2.03-1.14,.45,.25,.56,1.11-.02,2.36-.35,.76-.71,1.51-1.08,2.25-1.67,3.33-3.56,6.55-5.63,9.67-2.07,3.12-4.34,6.12-6.84,8.96-1.25,1.42-2.56,2.8-3.94,4.12-1.38,1.32-2.82,2.6-4.35,3.79-.39,.29-.78,.58-1.17,.86l-.59,.43c-.2,.14-.39,.29-.59,.41l-1.19,.79c-.4,.26-.79,.53-1.19,.77-.8,.49-1.6,.99-2.41,1.47-.81,.47-1.62,.93-2.43,1.39-3.26,1.81-6.57,3.46-9.93,5.01-3.36,1.55-6.76,2.99-10.22,4.31-.79,.3-1.59,.6-2.38,.88-1.28,.47-2.12,.3-2.34-.16-.22-.46,.16-1.21,1.3-1.94l2.13-1.36c3.1-1.97,6.22-3.89,9.33-5.8,3.11-1.92,6.21-3.81,9.27-5.74l2.28-1.45c.76-.49,1.49-.99,2.24-1.47,.38-.24,.73-.5,1.1-.75l1.09-.75c.19-.12,.36-.25,.53-.38l.52-.39c.35-.26,.7-.51,1.04-.77,1.37-1.06,2.7-2.2,4-3.38,1.3-1.18,2.58-2.41,3.82-3.68,2.49-2.54,4.9-5.2,7.24-7.94,2.35-2.74,4.63-5.57,6.87-8.44,.5-.64,1-1.29,1.5-1.93Z" style="fill:#fdd29b;"/><path d="M209.83,222.4c.69-.92,1.4-1.19,1.86-.96,.46,.23,.64,1.01,.19,2.12-.14,.34-.28,.67-.43,1.01l-.45,1c-1.37,2.95-2.99,5.78-4.8,8.49-1.82,2.71-3.84,5.3-6.06,7.73-2.24,2.42-4.67,4.66-7.28,6.72-1.37,1.05-2.78,1.97-4.21,2.82-1.43,.85-2.88,1.62-4.35,2.34-2.93,1.44-5.92,2.68-8.96,3.77-3.03,1.09-6.11,2.04-9.22,2.83-.71,.18-1.43,.35-2.15,.52-1.16,.26-1.89-.03-2.05-.51-.17-.48,.21-1.16,1.24-1.7l1.93-1.01c2.81-1.46,5.62-2.9,8.39-4.36,2.78-1.46,5.52-2.93,8.2-4.46,1.34-.77,2.65-1.55,3.93-2.36,1.27-.81,2.51-1.65,3.65-2.53,2.37-1.86,4.67-3.86,6.89-5.96,2.21-2.12,4.33-4.34,6.4-6.65,2.06-2.31,4.06-4.7,5.99-7.17l.65-.83,.64-.84Z" style="fill:#fdd29b;"/></g></g></g><path d="M95.55,73.53s16.8-13.68,20.92-11.25c4.12,2.43,.08,28.25,.08,28.25,0,0-7.64-5.55-11.84-9.52-3.87-3.66-9.16-7.48-9.16-7.48Z" style="fill:#ffe2bc;"/><path d="M53.55,73.53s-16.51-13.68-20.63-11.25c-4.12,2.43,2.63,28.25,2.63,28.25,0,0,4.94-5.55,9.13-9.52,3.87-3.66,8.87-7.48,8.87-7.48Z" style="fill:#fff;"/><g style="clip-path:url(#clippath-3);"><path d="M79.12,74.73c2,11,19.5,22.41,26,23,11,1,16,0,16,0,0,0,1.48-31.32-26-44-13-6-19.02,4.39-16,21Z" style="fill:#ffe2bc;"/></g><path d="M111.12,219.73c.36,1-3.52,12.28-3,19,.6,7.82,3.02,9.42,3,10-.14,5.21-1.32,8.9-9,10-10.77,1.54-16.19-4-22-4s-7.76,2.17-13,3c-5.82,.92-8.95-3.1-11-8-.99-2.38,3.5-5.58,4-14,.53-8.92-4-18-4-18,0,0,6-1,12-1s10,4,13,4,13-3,17-3,13,2,13,2Z" style="fill:#fff;"/><g><path d="M66.25,194.1s3,6.94,9.28,10.58c6.27,3.64,10.84,3.82,10.84,3.82" style="fill:none; stroke:#000; stroke-linecap:round; stroke-linejoin:round; stroke-width:3.8px;"/><path d="M80.31,218.45s1.66,3.95,2,13c.34,9.05-1,14-1,14" style="fill:none; stroke:#000; stroke-linecap:round; stroke-linejoin:round; stroke-width:3.8px;"/><path d="M116.48,81.19c0-2.58,4.73-17.03,.8-19.66-2.59-1.74-13.72,4.5-15.94,7.36" style="fill:none; stroke:#000; stroke-linecap:round; stroke-linejoin:round; stroke-width:3.8px;"/><path d="M32.92,81.19c0-2.58-4.73-17.03-.8-19.66,2.59-1.74,13.72,4.5,15.94,7.36" style="fill:none; stroke:#000; stroke-linecap:round; stroke-linejoin:round; stroke-width:3.8px;"/><path d="M47.55,144.53s-6.61,21.12-1.64,39.7c5.9,22.05,8.22,26.88,10.95,34.25,2.73,7.37,4.47,15.46,2.47,21.7-2.02,6.27-3.08,4.35-3.02,10.27,.07,5.86,8.11,7.29,12.83,7.26,6.83-.03,9.92-2.81,9.92-2.81" style="fill:none; stroke:#000; stroke-linecap:round; stroke-linejoin:round; stroke-width:3.8px;"/><path d="M114.38,210.52c-1.55,4.6-7.24,27.84-6.07,30.93s4.28,9.63,1,14c-2.89,3.85-6,4-13,4-5.59,0-15-1-16-7" style="fill:none; stroke:#000; stroke-linecap:round; stroke-linejoin:round; stroke-width:3.8px;"/><path d="M219.55,188.53s1.73-26.25-27.24-49.07c-16.74-13.18-40.98-16.75-57.26-18.84-8.49-1.09-14.08-9.68-13.79-15.88s-2.43-15.38-3.65-19.13" style="fill:none; stroke:#000; stroke-linecap:round; stroke-linejoin:round; stroke-width:3.8px;"/><path d="M219.31,195.45s2.37,27.63-5,41c-7.37,13.37-32.7,20.4-41.3,20.77-8.6,.37-12.06,1.23-18.7,1.23-3.74,0-15.07,.63-19-1-3.43-1.42-5.77-7.07-5-11,1.24-6.29,18.81-7.73,18.81-7.73" style="fill:none; stroke:#000; stroke-linecap:round; stroke-linejoin:round; stroke-width:3.8px;"/><path d="M50.32,72.73s7.67-5.68,22.7-5.68,24.59,5.68,24.59,5.68" style="fill:none; stroke:#000; stroke-linecap:round; stroke-linejoin:round; stroke-width:3.8px;"/><path d="M34.9,85.61s-4.34,11.69-4.34,21.13c0,13.17,3.47,18.31,6.62,23.65,3.03,5.14,7.57,10.41,7.57,10.41" style="fill:none; stroke:#000; stroke-linecap:round; stroke-linejoin:round; stroke-width:3.8px;"/><path d="M117.31,239.45s3.5,2.4,7,3.2c3.5,.8,7,.8,7,.8" style="fill:none; stroke:#000; stroke-linecap:round; stroke-linejoin:round; stroke-width:3.8px;"/></g></g></svg>