<?xml version="1.0" encoding="UTF-8"?><svg id="bicolor_4" xmlns="http://www.w3.org/2000/svg" xmlns:xlink="http://www.w3.org/1999/xlink" viewBox="0 0 280 280"><defs><clipPath id="clippath"><path d="M72.67,67.53c-12.3,0-18.13,2.17-29.47,11-12.68,9.88-14.13,18.12-14,27s.9,18.17,6.57,26.33c3.78,5.44,10.43,13.67,10.43,13.67,0,0-1.7,3,25,3,20.81,0,49-15.28,49-38,0-15.4-.32-22.12-13-32-11.34-8.83-22.24-11-34.53-11Z" style="fill:none;"/></clipPath><clipPath id="clippath-1"><path d="M72.39,66.8c-12.3,0-18.13,2.17-29.47,11-12.68,9.88-14.13,18.12-14,27s.9,18.17,6.57,26.33c3.78,5.44,10.43,13.67,10.43,13.67,0,0-1.7,3,25,3,20.81,0,50.85-15.36,50.85-38.08,0-15.4-2.17-22.04-14.85-31.92-11.34-8.83-22.24-11-34.53-11Z" style="fill:none;"/></clipPath><clipPath id="clippath-2"><path d="M208.38,156.17c-14.27-23.32-43.28-31-63-34-20.05-3.05-24-11-24-11,0,0-20.44,19.93-39.16,22.93-15,2.4-32.84,1.07-43.84-.93,0,0,9.74,7,6,28-2.44,13.67,1.57,33,10,53,6.14,14.58,4,29.46,4,29.46,0,0-4.03,4.63-2,9.54,2.03,4.9,9.24,5.92,15,5,5.2-.83,3-2,9-2,4.12,0,8.33,6.54,19,5,7.61-1.1,10.86-2.79,11-8,.02-.86-1.79-7.08-2-11-.29-5.5,1-9,1-9,0,0,2,4,8,7s19.85,2.93,13,6c-2.4,1.07-1.15,5.94,1,9,2.81,4,19.35,3.93,25.74,3.93,12.17,0,31.4-4.53,37.45-8,6.05-3.47,18.21-5.93,21.81-25.93,4.14-22.99,10.68-38.48-8-69Z" style="fill:none;"/></clipPath><clipPath id="clippath-3"><path d="M204.84,236.33s28.65-14.27,37.77-67.54c6.52-38.13,12.59-84.06-6.41-84.06-16.46,0-10.27,29.03-16.34,65.06-5.06,30-17.7,51-17.7,51,0,0-12.19,32.71,2.68,35.54Z" style="fill:none;"/></clipPath></defs><path d="M72.67,67.53c-12.3,0-18.13,2.17-29.47,11-12.68,9.88-14.13,18.12-14,27s.9,18.17,6.57,26.33c3.78,5.44,10.43,13.67,10.43,13.67,0,0-1.7,3,25,3,20.81,0,49-15.28,49-38,0-15.4-.32-22.12-13-32-11.34-8.83-22.24-11-34.53-11Z" style="fill:#fff;"/><g style="clip-path:url(#clippath);"><g style="clip-path:url(#clippath-1);"><path d="M23.92,122.8s24.63,.28,30.85-7.08c6.22-7.36,12.9-14,19-14,5.41,0,15.17,8.71,19,14,7.46,10.3,30.15,1.16,30.15,1.16,0,0,16.52-52.3-49.59-52.3S23.92,122.8,23.92,122.8Z" style="fill:#ffe2bc;"/></g><g><g><path d="M31.38,100.49c2.79,.92,5.35,.93,8.1,.56,2.75-.33,5.64-1.85,8.6-1.24-2.67,1.75-4.86,3.71-8.16,4.19-3.13,.45-7.01-.53-8.54-3.52h0Z" style="fill:#fdd29b;"/><path d="M30.88,109.67c5.35-.19,10.55,.58,15.52-1.57,1.68-.64,3.39-1.33,5.19-1.94-2.22,2.55-4.91,4.77-8.18,5.83-4.25,1.15-9.07,.46-12.54-2.32h0Z" style="fill:#fdd29b;"/></g><g><path d="M120.38,100.49c-1.53,3.61-6.5,4.01-9.89,3.49-3.63-.62-6.48-2.34-9.6-4.17,1.8-.4,3.63-.18,5.31,.09,3.27,.58,6.22,1.31,9.48,1.39,1.63,.02,3.19,.01,4.7-.8h0Z" style="fill:#fdd29b;"/><path d="M122.88,107.67c-3.57,3.18-8.63,4.42-13.35,3.67-4.7-.93-8.71-2.79-12.75-5.19,2.3,.2,4.52,.61,6.73,.99,6.61,1.67,12.62,1.26,19.37,.53h0Z" style="fill:#fdd29b;"/></g><path d="M61.78,94.73c-1,0-2.1-6.27-2-9,.16-2.94-.22-4.28,1-7,.28-.72,2-2,3.22-.37,.52,.69,4.78,8.37,3.78,9.37-1.13,1.13-4-6-5-6s0,13-1,13Z" style="fill:#fdd29b;"/><path d="M71.08,81.57c-1.43-2.74-1.74-5.87-1.88-8.89-.03-1.52,.02-3.07,.35-4.6,.24-1.54,1.1-2.85,1.53-4.32,.25,1.51-.26,2.99-.24,4.48-.04,4.26,.27,9.04,.24,13.33h0Z" style="fill:#fdd29b;"/><path d="M63.39,73.25c-.68-3.83-.23-8.8,3.33-11.09-1.57,3.75-1.6,7.46-3.33,11.09h0Z" style="fill:#fdd29b;"/><path d="M82.69,73.25c-1.73-3.62-1.76-7.33-3.33-11.09,3.57,2.28,4.01,7.25,3.33,11.09h0Z" style="fill:#fdd29b;"/><path d="M74.89,81.57c-.03-4.3,.28-9.07,.24-13.33,.02-1.49-.49-2.98-.24-4.48,.44,1.47,1.29,2.78,1.53,4.32,.33,1.53,.38,3.08,.35,4.6-.14,3.03-.45,6.15-1.88,8.89h0Z" style="fill:#fdd29b;"/><path d="M84.92,94.73c1,0,2.1-6.27,2-9-.16-2.94,.22-4.28-1-7-.28-.72-2-2-3.22-.37-.52,.69-4.78,8.37-3.78,9.37,1.13,1.13,4-6,5-6,1,0,0,13,1,13Z" style="fill:#fdd29b;"/></g></g><path d="M208.21,155.53c-14.27-23.32-43.28-31-63-34-20.05-3.05-24-11-24-11,0,0-20.44,19.93-39.16,22.93-15,2.4-25.84,5.07-36.84,3.07,0,0,3.74,3,0,24-2.44,13.67,.57,33,9,53,6.14,14.58,4,29.46,4,29.46,0,0-4.03,4.63-2,9.54,2.03,4.9,9.24,5.92,15,5,5.2-.83,3-2,9-2,4.12,0,8.33,6.54,19,5,7.61-1.1,10.86-2.79,11-8,.02-.86-1.79-7.08-2-11-.29-5.5,1-9,1-9,0,0,2,4,8,7s19.85,2.93,13,6c-2.4,1.07-1.15,5.94,1,9,2.81,4,19.35,3.93,25.74,3.93,12.17,0,31.4-4.53,37.45-8,6.05-3.47,18.21-5.93,21.81-25.93,4.14-22.99,10.68-38.48-8-69Z" style="fill:#ffe2bc;"/><g style="clip-path:url(#clippath-2);"><g><g><path d="M88.45,147.03c-1.07-.03-1.64-.53-1.66-1.04-.02-.51,.43-1.04,1.41-1.3,.59-.16,1.18-.32,1.77-.49,2.63-.76,5.21-1.62,7.71-2.6,2.5-.98,4.94-2.07,7.28-3.28,1.17-.61,2.31-1.26,3.43-1.93,.28-.17,.56-.34,.83-.52l.41-.26c.13-.09,.29-.18,.39-.26l.35-.25c.12-.08,.23-.16,.35-.25l.34-.27c.11-.09,.23-.17,.34-.28,.91-.77,1.8-1.66,2.65-2.61,.85-.95,1.68-1.97,2.48-3.01,.81-1.05,1.58-2.14,2.35-3.24,.77-1.11,1.53-2.23,2.27-3.37,1.49-2.28,2.94-4.63,4.39-6.99l.99-1.63c.53-.88,1.18-1.16,1.66-.97,.48,.18,.77,.86,.5,1.88-.16,.63-.34,1.26-.52,1.89-.81,2.73-1.81,5.41-2.97,8.03-.58,1.31-1.22,2.6-1.9,3.88-.69,1.27-1.42,2.53-2.23,3.76-.81,1.23-1.68,2.43-2.65,3.59-.97,1.16-2.03,2.28-3.25,3.3-.14,.13-.31,.25-.47,.38l-.48,.37c-.15,.13-.33,.24-.5,.36l-.51,.35c-.18,.12-.33,.21-.49,.31l-.48,.29c-.32,.2-.64,.38-.96,.56-1.29,.72-2.62,1.38-3.97,1.96-2.7,1.16-5.5,2.05-8.34,2.66-2.84,.61-5.72,.97-8.6,1.03-.65,0-1.29,0-1.94-.02Z" style="fill:#fdd29b;"/><path d="M107.61,157.56c-1.2,.06-1.86-.43-1.9-.99-.04-.56,.45-1.17,1.52-1.54,.65-.22,1.3-.46,1.95-.71,2.89-1.1,5.7-2.36,8.38-3.8,2.68-1.44,5.23-3.06,7.62-4.87,1.19-.91,2.33-1.86,3.43-2.87,1.09-1.02,2.13-2.07,3.11-3.18l.72-.85,.36-.43,.37-.46c.5-.62,1-1.23,1.5-1.86l3.02-3.75c2.02-2.5,4.07-5,6.15-7.48,2.09-2.47,4.2-4.93,6.39-7.34l1.51-1.65c1.62-1.76,3.1-.66,1.97,1.49-.35,.67-.71,1.33-1.06,2-1.57,2.89-3.24,5.72-4.97,8.5-1.73,2.78-3.54,5.51-5.42,8.19-.94,1.34-1.91,2.67-2.9,3.98-.49,.66-1,1.31-1.51,1.96l-.38,.49c-.13,.16-.28,.34-.42,.5-.28,.34-.56,.68-.85,1.01-1.17,1.31-2.41,2.53-3.72,3.67-1.32,1.13-2.7,2.16-4.12,3.1-2.86,1.87-5.9,3.36-9.02,4.48-3.13,1.11-6.33,1.87-9.56,2.23-.72,.08-1.45,.14-2.17,.17Z" style="fill:#fdd29b;"/><path d="M110.71,177.39c-1.7,.4-2.79,.05-3.06-.58-.27-.63,.25-1.52,1.74-2.28l2.71-1.39c4.03-2.07,8.03-4.15,11.97-6.29,3.93-2.14,7.81-4.32,11.58-6.61l.71-.43,.7-.44,1.4-.87c.91-.59,1.85-1.17,2.74-1.78,1.82-1.19,3.58-2.44,5.29-3.71l1.27-.96c.42-.33,.82-.66,1.23-.99l.62-.5,.59-.51,.59-.51c.2-.17,.4-.34,.59-.51l1.14-1.05c.2-.17,.37-.36,.55-.54l.54-.54c.18-.18,.36-.36,.54-.54l.5-.56,.51-.55c.08-.09,.17-.18,.25-.28l.24-.29,.96-1.17c.16-.19,.31-.4,.47-.61l.46-.62c.63-.81,1.21-1.69,1.81-2.55,.31-.42,.58-.88,.87-1.32l.87-1.33,.84-1.36,.42-.68,.41-.69c2.21-3.66,4.33-7.43,6.43-11.24l1.44-2.62c.77-1.41,1.72-1.91,2.4-1.68,.69,.23,1.1,1.23,.72,2.81-.23,.98-.49,1.96-.75,2.94-1.16,4.26-2.6,8.44-4.34,12.55l-.33,.77-.35,.77-.7,1.53c-.24,.51-.5,1.01-.75,1.52-.26,.5-.5,1.01-.78,1.51-.55,1-1.09,2-1.72,2.99l-.46,.74c-.16,.25-.3,.49-.48,.74l-1.03,1.46-.26,.36c-.09,.12-.19,.24-.28,.35l-.57,.7-.57,.7c-.2,.23-.4,.45-.6,.67l-.61,.66c-.2,.22-.4,.45-.62,.65l-1.27,1.26c-.21,.21-.43,.41-.65,.61l-.66,.6-.66,.59-.68,.57c-.46,.37-.91,.76-1.37,1.12l-1.4,1.07c-1.89,1.4-3.83,2.73-5.83,3.95-.99,.63-2.01,1.21-3.02,1.8l-1.53,.85-.77,.42-.78,.41c-4.14,2.18-8.41,4.08-12.78,5.76-4.37,1.67-8.82,3.15-13.37,4.36-1.02,.27-2.04,.53-3.07,.77Z" style="fill:#fdd29b;"/><path d="M185.05,131.88c.6-1.23,1.84-1.77,3-1.71,1.16,.06,2.23,.82,2.29,2.18,.02,.41,.03,.82,.03,1.24,0,.41,0,.82-.01,1.23-.1,3.68-.8,7.34-1.94,10.98-1.16,3.63-2.84,7.22-5.13,10.7l-.42,.65c-.14,.22-.31,.43-.46,.65l-.95,1.29c-.61,.85-1.37,1.72-2.1,2.57-1.51,1.68-3.18,3.25-4.92,4.76-3.51,3.01-7.37,5.73-11.45,8.26-4.08,2.53-8.38,4.86-12.86,7.01-4.48,2.15-9.13,4.14-13.96,5.93-1.11,.4-2.23,.8-3.36,1.19-1.82,.62-3.34,.4-4.02-.22-.68-.62-.58-1.6,.79-2.56,0,0,23.03-13.44,26.52-15.99,3.48-2.56,6.85-5.14,9.91-7.77,1.52-1.32,3-2.64,4.32-3.99,.65-.68,1.29-1.32,1.9-2.06l.94-1.07c.15-.18,.32-.35,.47-.54l.44-.55c2.39-2.91,4.54-5.98,6.53-9.13,1.99-3.15,1.62-7.51,3.32-10.82,.2-.37,.38-.74,.57-1.11,.19-.37,.38-.74,.55-1.12Z" style="fill:#fdd29b;"/><path d="M199.64,151.41c0-1.29,.62-2.04,1.44-2.21,.81-.17,1.87,.37,2.39,1.72,.31,.82,.59,1.65,.82,2.48,1.04,3.73,1.33,7.63,.87,11.53-.46,3.9-1.75,7.8-3.86,11.44-.27,.45-.53,.91-.83,1.35l-.9,1.32-.98,1.29c-.08,.11-.16,.22-.25,.32l-.27,.31-.53,.62c-.18,.21-.36,.42-.54,.62l-.57,.6-.58,.6-.29,.3-.33,.31-.67,.61c-.23,.2-.45,.38-.68,.57l-.69,.56-.7,.52c-1.86,1.37-3.78,2.56-5.73,3.67-1.95,1.11-3.94,2.12-5.95,3.08-4.02,1.91-8.15,3.59-12.35,5.11-4.2,1.52-8.48,2.88-12.84,4.06-1,.27-2,.53-3.01,.78-1.62,.4-2.75,.07-3.1-.54-.35-.61,.04-1.5,1.42-2.25l2.58-1.4c3.76-2.03,7.54-4,11.27-5.99,3.74-1.98,7.45-3.95,11.05-5.96,1.8-1,3.57-2.02,5.27-3.06,1.7-1.04,3.34-2.1,4.81-3.18l.55-.4,.51-.41c.16-.14,.35-.27,.5-.41l.45-.4,.23-.2,.24-.23,.48-.47,.48-.47,.45-.48,.45-.48,.23-.24c.07-.08,.14-.17,.21-.25l.86-1,.8-1.03c.27-.34,.5-.7,.76-1.05,1.98-2.83,3.5-5.91,4.57-9.15,1.07-3.25,1.69-6.66,1.89-10.15,.05-.78,.07-1.56,.07-2.35Z" style="fill:#fdd29b;"/><path d="M220.36,177.49c1.02-1.15,1.98-1.51,2.54-1.24,.56,.27,.7,1.2-.02,2.55-.44,.82-.89,1.63-1.36,2.44-2.09,3.6-4.45,7.09-7.04,10.46-2.59,3.37-5.44,6.61-8.56,9.69-1.56,1.54-3.21,3.02-4.93,4.46-1.73,1.43-3.53,2.81-5.44,4.09-.48,.32-.98,.62-1.47,.93l-.74,.46c-.25,.16-.49,.31-.74,.45l-1.49,.85c-.5,.28-.99,.58-1.49,.84-1,.53-2,1.07-3.01,1.59-1.01,.51-2.03,1.01-3.04,1.51-4.08,1.95-8.23,3.74-12.44,5.42-4.21,1.67-8.47,3.23-12.79,4.66-.99,.32-1.99,.64-2.98,.96-1.6,.5-2.65,.32-2.93-.18-.28-.5,.2-1.31,1.63-2.1l2.66-1.47c3.89-2.13,7.79-4.2,11.68-6.27,3.89-2.07,7.78-4.12,11.61-6.21l2.85-1.57c.95-.53,1.87-1.07,2.81-1.59,.48-.26,.92-.54,1.38-.81l1.37-.81c.23-.13,.45-.27,.66-.41l.65-.42c.43-.28,.87-.55,1.3-.83,1.71-1.15,3.37-2.38,5-3.66,1.63-1.28,3.23-2.61,4.78-3.98,3.12-2.74,6.13-5.62,9.06-8.59,2.94-2.96,5.79-6.02,8.61-9.12,.63-.69,1.26-1.39,1.88-2.09Z" style="fill:#fdd29b;"/><path d="M224.24,206.25c.94-.96,1.9-1.24,2.52-1,.62,.24,.87,1.05,.25,2.21-.19,.35-.38,.7-.58,1.05l-.61,1.04c-1.86,3.07-4.06,6.02-6.52,8.85-2.47,2.82-5.21,5.52-8.23,8.05-3.04,2.52-6.34,4.85-9.89,7-1.86,1.1-3.78,2.06-5.71,2.94-1.94,.88-3.91,1.68-5.9,2.43-3.98,1.5-8.04,2.79-12.16,3.92-4.12,1.13-8.29,2.12-12.52,2.95-.97,.19-1.94,.37-2.92,.54-1.57,.27-2.56-.03-2.79-.53-.23-.5,.28-1.2,1.69-1.77l2.62-1.05c3.82-1.52,7.63-3.02,11.4-4.54,3.77-1.52,7.5-3.05,11.13-4.65,1.81-.8,3.6-1.61,5.34-2.45,1.73-.84,3.41-1.72,4.96-2.63,3.22-1.94,6.35-4.02,9.36-6.21,3-2.2,5.88-4.52,8.68-6.92,2.8-2.4,5.51-4.9,8.13-7.47l.88-.86,.86-.87Z" style="fill:#fdd29b;"/></g><path d="M63.76,165.87c1.14-.1,1.71-.64,1.7-1.15-.02-.51-.54-1.01-1.6-1.2-.64-.12-1.28-.25-1.92-.39-2.85-.62-5.63-1.39-8.32-2.35-2.68-.96-5.27-2.09-7.71-3.41-1.22-.67-2.4-1.39-3.54-2.15-1.13-.78-2.23-1.6-3.27-2.48l-.77-.68-.39-.34-.4-.37c-.54-.5-1.08-.99-1.61-1.49l-3.25-3.01c-2.17-2.01-4.37-4.01-6.6-5.98-2.23-1.97-4.49-3.92-6.8-5.83l-1.6-1.3c-1.72-1.39-3-.19-1.71,1.61,.4,.56,.81,1.12,1.21,1.67,1.79,2.42,3.66,4.76,5.59,7.06,1.93,2.3,3.92,4.54,5.98,6.72,1.03,1.09,2.08,2.17,3.16,3.23,.53,.53,1.08,1.06,1.63,1.58l.41,.39c.14,.13,.3,.27,.45,.4,.3,.27,.6,.54,.91,.8,1.24,1.03,2.55,1.98,3.9,2.85,1.36,.85,2.77,1.61,4.22,2.28,2.9,1.33,5.93,2.28,8.99,2.88,3.07,.59,6.18,.86,9.27,.76,.69-.03,1.38-.07,2.07-.13Z" style="fill:#fdd29b;"/><path d="M62.97,186.99c1.19,.19,1.89-.15,1.99-.65,.1-.49-.36-1.13-1.46-1.6l-2-.86c-2.98-1.29-5.93-2.59-8.85-3.94-2.92-1.35-5.8-2.74-8.63-4.21l-.53-.27-.52-.28-1.05-.56c-.69-.39-1.39-.76-2.07-1.16-1.38-.78-2.71-1.6-4.03-2.45l-.98-.64c-.32-.22-.64-.44-.96-.66l-.48-.33-.46-.35-.46-.34c-.15-.11-.31-.23-.46-.35l-.9-.71c-.15-.12-.29-.24-.44-.37l-.43-.37c-.14-.12-.29-.24-.43-.37l-.41-.39-.41-.38c-.07-.06-.14-.13-.21-.19l-.2-.21-.79-.82c-.13-.13-.26-.28-.39-.43l-.39-.44c-.53-.57-1.03-1.19-1.54-1.8-.26-.3-.5-.62-.75-.94l-.75-.95-.74-.97-.37-.48-.36-.49c-1.95-2.61-3.85-5.32-5.75-8.05l-1.3-1.88c-.69-1.01-1.4-1.33-1.83-1.11-.43,.22-.58,1-.13,2.17,.28,.73,.58,1.45,.88,2.16,1.32,3.13,2.82,6.19,4.51,9.17l.32,.56,.33,.55,.66,1.11c.23,.37,.46,.73,.7,1.09,.24,.36,.46,.73,.72,1.09,.5,.72,.99,1.44,1.54,2.14l.4,.53c.14,.18,.27,.35,.42,.52l.88,1.03,.22,.26c.08,.08,.16,.16,.23,.25l.47,.49,.47,.49c.16,.16,.33,.31,.49,.46l.49,.46c.16,.15,.33,.31,.5,.45l1.01,.86c.17,.15,.34,.28,.52,.41l.52,.4,.52,.4,.53,.38c.35,.25,.71,.51,1.06,.76l1.08,.72c1.45,.93,2.92,1.8,4.42,2.59,.75,.41,1.5,.77,2.26,1.15l1.14,.54,.57,.27,.57,.25c3.06,1.36,6.18,2.51,9.33,3.49,3.15,.97,6.33,1.78,9.55,2.39,.72,.14,1.44,.26,2.16,.38Z" style="fill:#fdd29b;"/><g><path d="M31.79,184.35c-.66-.56-1.32-.58-1.73-.28-.41,.3-.54,.99-.08,1.78,.14,.24,.28,.48,.43,.71,.15,.24,.29,.47,.44,.7,1.35,2.08,2.92,4.01,4.64,5.82,1.73,1.8,3.64,3.47,5.73,4.92l.39,.28c.13,.09,.27,.17,.4,.26l.81,.51c.53,.34,1.12,.67,1.7,.98,1.16,.61,2.34,1.12,3.53,1.57,2.38,.9,4.79,1.56,7.22,2.06,2.42,.49,4.86,.82,7.3,1.01,2.44,.19,4.88,.24,7.32,.13,.56-.03,1.12-.06,1.68-.1,.9-.07,1.39-.55,1.42-1.06,.03-.51-.36-1.05-1.21-1.28l-1.58-.43c-2.29-.61-4.58-1.21-6.86-1.82-2.27-.61-4.52-1.22-6.73-1.87-2.21-.65-4.39-1.34-6.47-2.13-1.04-.4-2.06-.81-3.04-1.27-.48-.24-.96-.46-1.44-.73l-.73-.39c-.12-.07-.25-.13-.37-.2l-.36-.21c-1.93-1.11-3.83-2.36-5.69-3.69-1.87-1.34-3.71-2.76-5.52-4.26-.21-.16-.41-.33-.61-.5-.2-.17-.41-.34-.61-.51Z" style="fill:#fdd29b;"/><path d="M39.82,205.71c-.44-.73-.99-.98-1.43-.84-.44,.13-.74,.74-.52,1.65,.14,.55,.3,1.1,.48,1.63,.81,2.4,2.02,4.69,3.58,6.76,1.56,2.07,3.51,3.91,5.75,5.37,.28,.18,.56,.36,.85,.53l.88,.49,.9,.45c.08,.04,.15,.07,.23,.11l.23,.1,.46,.2c.15,.07,.31,.13,.46,.2l.47,.18,.47,.17,.24,.09,.26,.08,.52,.16c.18,.05,.34,.09,.51,.13l.51,.12,.5,.1c1.34,.25,2.64,.37,3.93,.44,1.29,.07,2.56,.08,3.82,.05,2.53-.06,5.02-.28,7.5-.62,2.48-.34,4.93-.78,7.36-1.35,.56-.13,1.11-.27,1.67-.42,.89-.23,1.3-.74,1.25-1.19-.05-.45-.54-.84-1.44-.87l-1.68-.06c-2.45-.08-4.88-.12-7.3-.18-2.42-.06-4.82-.12-7.19-.23-1.18-.06-2.36-.13-3.51-.23-1.15-.1-2.28-.24-3.33-.43l-.4-.07-.38-.09c-.12-.03-.26-.05-.37-.09l-.35-.1-.18-.05-.19-.06-.38-.13-.38-.13-.38-.15-.38-.14-.19-.07c-.06-.03-.12-.05-.19-.08l-.74-.32-.73-.35c-.24-.12-.48-.25-.72-.38-1.9-1.04-3.67-2.34-5.29-3.87-1.62-1.53-3.09-3.28-4.39-5.19-.29-.43-.57-.86-.84-1.31Z" style="fill:#fdd29b;"/><path d="M34.21,229.75c-.88-.31-1.45-.2-1.62,.11-.17,.31,.08,.85,.89,1.35,.49,.3,.98,.6,1.48,.89,2.22,1.29,4.53,2.44,6.91,3.45,2.38,1.02,4.83,1.89,7.36,2.58,1.26,.35,2.55,.64,3.85,.89,1.3,.24,2.63,.43,3.97,.54,.34,.02,.67,.04,1.01,.06l.51,.02c.17,0,.34,.02,.5,.02h.99c.33,0,.66,.01,.99,0,.65-.02,1.31-.03,1.96-.07,.65-.04,1.3-.07,1.95-.12,2.59-.19,5.16-.49,7.71-.87,2.55-.38,5.09-.84,7.62-1.38,.58-.13,1.15-.26,1.73-.39,.93-.22,1.36-.63,1.32-.98-.04-.35-.55-.64-1.49-.63l-1.76,.02c-2.56,.04-5.11,.11-7.65,.19-2.54,.07-5.07,.15-7.59,.2l-1.88,.02c-.63,0-1.25,0-1.87,0-.31,0-.62-.01-.92-.02l-.92-.02c-.15,0-.3-.01-.45-.02l-.45-.03c-.3-.02-.6-.03-.9-.05-1.2-.1-2.41-.25-3.61-.44-1.21-.19-2.41-.41-3.62-.68-2.41-.52-4.82-1.15-7.22-1.84-2.4-.69-4.79-1.46-7.18-2.27-.53-.18-1.07-.36-1.6-.55Z" style="fill:#fdd29b;"/><path d="M40.88,244.74c-.85-.22-1.38-.05-1.53,.3-.15,.35,.12,.9,.92,1.34,.24,.13,.49,.27,.73,.4l.74,.38c2.22,1.11,4.52,2.02,6.88,2.77,2.36,.75,4.77,1.34,7.22,1.73,2.46,.38,4.94,.56,7.44,.56,1.3-.02,2.55-.14,3.78-.31,1.23-.17,2.44-.4,3.62-.66,2.38-.53,4.69-1.2,6.96-1.98,2.27-.78,4.49-1.66,6.66-2.66,.5-.23,.99-.46,1.48-.7,.79-.39,1.07-.9,.93-1.27-.14-.37-.68-.59-1.54-.42l-1.6,.31c-2.32,.45-4.63,.92-6.93,1.36-2.3,.44-4.59,.86-6.86,1.21-1.14,.17-2.27,.33-3.4,.45-1.12,.12-2.24,.2-3.32,.22-2.26,.01-4.55-.09-6.84-.29-2.29-.22-4.59-.54-6.89-.93-2.3-.4-4.61-.88-6.91-1.43l-.77-.19-.77-.2Z" style="fill:#fdd29b;"/></g><g><path d="M132.88,190.78c.75-.44,1.4-.35,1.75,.02,.35,.37,.37,1.07-.22,1.77-.18,.21-.36,.42-.54,.63-.18,.21-.37,.42-.56,.62-1.68,1.82-3.55,3.46-5.56,4.95-2.01,1.49-4.17,2.8-6.48,3.88l-.43,.21c-.14,.07-.29,.13-.44,.19l-.89,.37c-.58,.25-1.22,.47-1.84,.68-1.25,.4-2.5,.7-3.75,.96-2.5,.49-4.99,.73-7.46,.81-2.47,.08-4.93-.01-7.36-.24-2.44-.23-4.85-.59-7.24-1.1-.55-.12-1.09-.25-1.64-.38-.88-.22-1.27-.78-1.22-1.29,.05-.51,.53-.97,1.41-1.06l1.63-.15c2.36-.21,4.72-.42,7.07-.63,2.34-.21,4.66-.44,6.95-.71,2.29-.27,4.55-.58,6.74-1.01,1.09-.22,2.17-.45,3.21-.74,.52-.15,1.02-.29,1.55-.48l.79-.26c.13-.04,.26-.08,.39-.13l.39-.15c2.09-.77,4.17-1.68,6.23-2.68,2.07-1,4.12-2.1,6.16-3.27,.23-.13,.46-.26,.69-.39,.23-.13,.46-.26,.68-.4Z" style="fill:#fdd29b;"/><path d="M127.51,208.12c.56-.64,1.14-.79,1.56-.58,.41,.21,.6,.86,.22,1.72-.23,.52-.48,1.03-.75,1.53-1.22,2.23-2.81,4.26-4.71,6.03-1.9,1.77-4.14,3.24-6.6,4.28-.31,.12-.62,.26-.93,.37l-.95,.33-.97,.28c-.08,.02-.16,.05-.24,.07l-.25,.06-.49,.12c-.16,.04-.33,.08-.49,.11l-.5,.09-.5,.09-.25,.04-.27,.03-.54,.06c-.18,.02-.35,.02-.53,.04l-.53,.03h-.51c-1.36,.02-2.67-.09-3.95-.24-1.28-.16-2.54-.37-3.77-.62-2.48-.5-4.9-1.16-7.28-1.92-2.38-.76-4.72-1.63-7.02-2.62-.52-.23-1.05-.46-1.57-.7-.84-.39-1.15-.95-1.03-1.39,.13-.43,.68-.73,1.57-.6l1.67,.24c2.42,.35,4.83,.73,7.22,1.1,2.39,.37,4.77,.73,7.12,1.03,1.17,.15,2.34,.28,3.49,.38,1.15,.1,2.28,.16,3.36,.16h.4l.39-.02c.13,0,.26,0,.38-.02l.36-.04,.18-.02,.2-.03,.4-.06,.4-.06,.4-.08,.4-.08,.2-.04c.07-.01,.13-.03,.2-.05l.79-.19,.78-.22c.26-.07,.51-.17,.77-.25,2.05-.69,4.02-1.66,5.88-2.89,1.86-1.22,3.61-2.69,5.23-4.35,.36-.37,.71-.75,1.06-1.14Z" style="fill:#fdd29b;"/><path d="M132.07,226.75c.88-.31,1.45-.2,1.62,.11,.17,.31-.08,.85-.89,1.35-.49,.3-.98,.6-1.48,.89-2.22,1.29-4.53,2.44-6.91,3.45-2.38,1.02-4.83,1.89-7.36,2.58-1.26,.35-2.55,.64-3.85,.89-1.3,.24-2.63,.43-3.97,.54-.34,.02-.67,.04-1.01,.06l-.51,.02c-.17,0-.34,.02-.5,.02h-.99c-.33,0-.66,.01-.99,0-.65-.02-1.31-.03-1.96-.07-.65-.04-1.3-.07-1.95-.12-2.59-.19-5.16-.49-7.71-.87-2.55-.38-5.09-.84-7.62-1.38-.58-.13-1.15-.26-1.73-.39-.93-.22-1.36-.63-1.32-.98,.04-.35,.55-.64,1.49-.63l1.76,.02c2.56,.04,5.11,.11,7.65,.19,2.54,.07,5.07,.15,7.59,.2l1.88,.02c.63,0,1.25,0,1.87,0,.31,0,.62-.01,.92-.02l.92-.02c.15,0,.3-.01,.45-.02l.45-.03c.3-.02,.6-.03,.9-.05,1.2-.1,2.41-.25,3.61-.44,1.21-.19,2.41-.41,3.62-.68,2.41-.52,4.82-1.15,7.22-1.84,2.4-.69,4.79-1.46,7.18-2.27,.53-.18,1.07-.36,1.6-.55Z" style="fill:#fdd29b;"/><path d="M124.4,241.74c.85-.22,1.38-.05,1.53,.3,.15,.35-.12,.9-.92,1.34-.24,.13-.49,.27-.73,.4l-.74,.38c-2.22,1.11-4.52,2.02-6.88,2.77-2.36,.75-4.77,1.34-7.22,1.73-2.46,.38-4.94,.56-7.44,.56-1.3-.02-2.55-.14-3.78-.31-1.23-.17-2.44-.4-3.62-.66-2.38-.53-4.69-1.2-6.96-1.98-2.27-.78-4.49-1.66-6.66-2.66-.5-.23-.99-.46-1.48-.7-.79-.39-1.07-.9-.93-1.27,.14-.37,.68-.59,1.54-.42l1.6,.31c2.32,.45,4.63,.92,6.93,1.36,2.3,.44,4.59,.86,6.86,1.21,1.14,.17,2.27,.33,3.4,.45,1.12,.12,2.24,.2,3.32,.22,2.26,.01,4.55-.09,6.84-.29,2.29-.22,4.59-.54,6.89-.93,2.3-.4,4.61-.88,6.91-1.43l.77-.19,.77-.2Z" style="fill:#fdd29b;"/></g></g></g><path d="M44.45,138.84c0-8,14.72-7.19,31-9,18-2,38.19-12.88,41-11,6,4-14,18-19,41-3.48,16.03,6,48-13,49-20,1.05-21.38-40.19-24-47-5-13-16-11.95-16-23Z" style="fill:#fff;"/><path d="M95.21,73.53s16.8-13.68,20.92-11.25,.08,28.25,.08,28.25c0,0-7.64-5.55-11.84-9.52-3.87-3.66-9.16-7.48-9.16-7.48Z" style="fill:#ffe2bc;"/><path d="M53.21,73.53s-16.51-13.68-20.63-11.25c-4.12,2.43,2.63,28.25,2.63,28.25,0,0,4.94-5.55,9.13-9.52,3.87-3.66,8.87-7.48,8.87-7.48Z" style="fill:#ffe2bc;"/><g><path d="M204.84,236.33s28.65-14.27,37.77-67.54c6.52-38.13,12.59-84.06-6.41-84.06-16.46,0-10.27,29.03-16.34,65.06-5.06,30-17.7,51-17.7,51,0,0-12.19,32.71,2.68,35.54Z" style="fill:#ffe2bc;"/><g style="clip-path:url(#clippath-3);"><g><path d="M224.83,218.9c.11,.47-.21,.81-.62,.91-.42,.1-.91,.02-1.23-.34l-.3-.32-.3-.32c-.9-.95-1.84-1.85-2.8-2.71l-.73-.64c-.25-.21-.5-.41-.74-.62-.51-.4-1-.81-1.53-1.18-.5-.4-1.05-.75-1.57-1.12l-.82-.53c-.14-.09-.27-.18-.41-.26l-.42-.25-.42-.25-.21-.13c-.07-.04-.14-.09-.2-.12-.13-.07-.25-.14-.38-.21l-.4-.2c-.55-.27-1.13-.51-1.75-.74-1.23-.46-2.56-.87-3.95-1.23-1.39-.37-2.83-.7-4.3-1.02-.34-.07-.68-.15-1.02-.22-.55-.11-.82-.45-.83-.79-.01-.34,.28-.68,.87-.77,.37-.05,.74-.1,1.1-.13,1.61-.16,3.25-.18,4.9-.07,1.65,.11,3.32,.37,4.96,.82,.82,.23,1.64,.5,2.44,.84,.2,.09,.4,.18,.59,.27,.2,.09,.39,.2,.58,.3,.1,.05,.18,.1,.27,.15l.26,.15,.51,.3,.5,.3c.17,.1,.32,.22,.48,.32,.32,.22,.63,.44,.95,.66,.59,.47,1.19,.94,1.72,1.45,.55,.5,1.04,1.03,1.51,1.57,.23,.28,.45,.55,.67,.83,.21,.28,.41,.57,.6,.85,.76,1.15,1.38,2.35,1.77,3.6l.13,.42,.11,.42Z" style="fill:#fdc987;"/><path d="M232.14,201.67c.32,.41,.19,.82-.15,1.03-.34,.21-.83,.28-1.3,.04l-.43-.22-.43-.21c-1.28-.63-2.58-1.2-3.87-1.73l-.97-.39c-.33-.12-.66-.24-.98-.37-.66-.23-1.31-.47-1.97-.67-.65-.23-1.33-.4-1.98-.6l-1-.26c-.17-.04-.33-.09-.5-.13l-.51-.11-.51-.11-.25-.06c-.08-.02-.17-.04-.24-.05-.15-.03-.3-.06-.46-.09l-.47-.07c-.63-.09-1.29-.15-1.97-.2-1.36-.08-2.78-.08-4.23-.03-1.46,.05-2.94,.15-4.46,.27-.35,.03-.69,.05-1.04,.09-.56,.05-.97-.19-1.14-.5-.17-.31-.06-.72,.44-.97,.31-.15,.63-.3,.96-.44,1.42-.61,2.92-1.1,4.5-1.47,1.58-.37,3.24-.61,4.98-.66,.87-.02,1.75,0,2.65,.09,.23,.03,.45,.05,.68,.08,.23,.03,.45,.07,.68,.11,.12,.02,.21,.04,.32,.06l.31,.07,.61,.13,.61,.14c.2,.05,.4,.11,.6,.17,.4,.11,.79,.23,1.19,.35,.77,.27,1.55,.53,2.28,.87,.75,.31,1.45,.67,2.14,1.03,.34,.19,.67,.39,1.01,.58,.33,.2,.64,.42,.96,.62,1.25,.86,2.39,1.81,3.34,2.86l.31,.36,.3,.37Z" style="fill:#fdc987;"/><path d="M237.51,190.1c.32,.41,.19,.82-.15,1.03-.34,.21-.83,.28-1.3,.04l-.43-.22-.43-.21c-1.28-.63-2.58-1.2-3.87-1.73l-.97-.39c-.33-.12-.66-.24-.98-.37-.66-.23-1.31-.47-1.97-.67-.65-.23-1.33-.4-1.98-.6l-1-.26c-.17-.04-.33-.09-.5-.13l-.51-.11-.51-.11-.25-.06c-.08-.02-.17-.04-.24-.05-.15-.03-.3-.06-.46-.09l-.47-.07c-.63-.09-1.29-.15-1.97-.2-1.36-.08-2.78-.08-4.23-.03-1.46,.05-2.94,.15-4.46,.27-.35,.03-.69,.05-1.04,.09-.56,.05-.97-.19-1.14-.5-.17-.31-.06-.72,.44-.97,.31-.15,.63-.3,.96-.44,1.42-.61,2.92-1.1,4.5-1.47,1.58-.37,3.24-.61,4.98-.66,.87-.02,1.75,0,2.65,.09,.23,.03,.45,.05,.68,.08,.23,.03,.45,.07,.68,.11,.12,.02,.21,.04,.32,.06l.31,.07,.61,.13,.61,.14c.2,.05,.4,.11,.6,.17,.4,.11,.79,.23,1.19,.35,.77,.27,1.55,.53,2.28,.87,.75,.31,1.45,.67,2.14,1.03,.34,.19,.67,.39,1.01,.58,.33,.2,.64,.42,.96,.62,1.25,.86,2.39,1.81,3.34,2.86l.31,.36,.3,.37Z" style="fill:#fdc987;"/><path d="M239.37,178.47c.23,.38,.03,.75-.33,.94-.36,.19-.84,.24-1.22,.03-.24-.13-.47-.26-.71-.39-1.06-.57-2.12-1.1-3.19-1.57-1.06-.48-2.14-.89-3.21-1.26-.53-.2-1.08-.34-1.62-.52-.55-.13-1.09-.31-1.64-.41l-.41-.09-.21-.05h-.05l-.04-.02-.09-.02c-.23-.05-.47-.08-.72-.11-.5-.06-1.03-.1-1.58-.11-1.11-.03-2.29,.03-3.51,.13-1.22,.1-2.48,.25-3.76,.4l-.89,.11c-.48,.06-.88-.16-1.09-.46-.21-.3-.18-.7,.22-.95,.25-.16,.5-.31,.76-.46,1.14-.64,2.37-1.17,3.69-1.6,1.33-.42,2.75-.74,4.28-.87,.77-.06,1.56-.08,2.38-.02,.41,.03,.82,.07,1.24,.14l.16,.03h.08l.07,.03,.27,.06,.54,.12c.73,.15,1.42,.38,2.12,.6,.67,.26,1.35,.5,1.98,.82,1.27,.6,2.44,1.32,3.45,2.14,1.01,.82,1.9,1.72,2.6,2.7,.16,.22,.3,.45,.44,.67Z" style="fill:#fdc987;"/><path d="M240.84,165.66c.2,.37-.02,.73-.39,.91-.37,.18-.84,.23-1.2,.02-.23-.13-.45-.26-.67-.38-1-.56-2-1.07-3.01-1.53-1-.46-2.01-.86-3.02-1.22-.5-.19-1.02-.33-1.52-.49-.52-.12-1.02-.29-1.54-.39l-.39-.09-.19-.05c-.06-.01-.11-.02-.16-.03-.1-.02-.21-.04-.32-.05-.11-.02-.22-.03-.34-.04-.46-.05-.96-.08-1.48-.09-1.04-.01-2.17,.06-3.32,.17-1.16,.11-2.36,.27-3.58,.44l-.85,.12c-.45,.06-.85-.15-1.07-.45-.22-.3-.22-.69,.16-.95,.23-.16,.47-.31,.71-.46,1.06-.65,2.22-1.19,3.47-1.63,1.25-.44,2.61-.78,4.09-.93,.74-.07,1.51-.1,2.31-.05,.2,0,.4,.03,.6,.05,.2,.02,.41,.05,.61,.08,.1,.02,.21,.03,.3,.05l.26,.06,.53,.12c.71,.14,1.38,.37,2.05,.58,.65,.25,1.31,.49,1.91,.8,1.22,.6,2.33,1.3,3.27,2.12,.95,.81,1.77,1.69,2.39,2.66,.14,.21,.27,.44,.39,.66Z" style="fill:#fdc987;"/><path d="M242.82,152.44c.16,.36-.08,.7-.46,.87-.38,.17-.85,.21-1.18,.01-.2-.12-.41-.25-.62-.36-.92-.54-1.84-1.03-2.76-1.47-1.84-.88-3.65-1.56-5.52-1.97l-.35-.07c-.06-.01-.12-.03-.17-.04l-.14-.02c-.09-.02-.18-.03-.28-.04-.09-.02-.2-.03-.3-.04-.41-.04-.86-.06-1.33-.05-.95,.01-1.98,.1-3.06,.23-1.07,.13-2.18,.3-3.33,.48l-.79,.12c-.42,.07-.82-.14-1.06-.43-.24-.29-.27-.68,.07-.93,.21-.16,.42-.31,.63-.47,.95-.65,2-1.21,3.15-1.68,1.15-.46,2.41-.83,3.81-1.01,.7-.09,1.44-.14,2.21-.11,.19,0,.39,.02,.58,.04,.2,.02,.39,.04,.59,.07l.3,.05c.1,.02,.17,.03,.26,.05l.51,.1c.67,.16,1.33,.34,1.96,.57,.63,.23,1.23,.49,1.81,.79,1.14,.59,2.16,1.3,3.02,2.09,.86,.79,1.57,1.66,2.1,2.59,.12,.21,.23,.42,.33,.64Z" style="fill:#fdc987;"/><path d="M244.15,139.36c.22,.33,.04,.69-.3,.9-.34,.21-.79,.31-1.15,.16-.22-.09-.44-.19-.67-.28-.99-.41-1.96-.8-2.93-1.15l-.36-.13-.36-.12c-.24-.08-.47-.17-.72-.24-.24-.07-.48-.15-.71-.23-.24-.07-.48-.14-.71-.21-.95-.27-1.89-.52-2.85-.69l-.36-.07-.18-.04-.18-.03c-.24-.04-.48-.07-.72-.12l-.18-.03h-.08l-.07-.02c-.09,0-.18-.03-.27-.03-.18-.02-.36-.03-.55-.04-.72-.02-1.49,.08-2.32,.33-.83,.24-1.7,.65-2.56,1.13-.2,.11-.39,.23-.59,.35-.31,.19-.77,.15-1.17,0-.39-.16-.67-.49-.53-.85,.09-.22,.19-.44,.3-.65,.25-.47,.57-.92,.96-1.35,.39-.43,.85-.83,1.38-1.2,.54-.36,1.16-.69,1.84-.94,.69-.25,1.44-.43,2.22-.51,.39-.04,.78-.06,1.17-.06,.2,0,.39,.01,.58,.02h.22l.06,.02,.24,.03c.33,.04,.65,.07,.98,.12l.24,.03c.08,.01,.16,.03,.24,.04l.48,.09c2.56,.51,4.91,1.54,6.76,2.91,.93,.68,1.74,1.45,2.41,2.29,.15,.19,.29,.38,.42,.58Z" style="fill:#fdc987;"/><path d="M244.79,125.7c.08,.37-.27,.67-.7,.75-.43,.08-.87,.07-1.12-.12-.15-.12-.31-.22-.47-.33-.72-.46-1.49-.79-2.26-1.03-.78-.24-1.59-.39-2.43-.5-.84-.11-1.72-.16-2.64-.19-.06,0-.11,0-.16,0h-.15c-.1,0-.2,0-.3,0-.2,0-.4,.01-.61,.02-.41,.02-.83,.06-1.26,.12-.86,.1-1.75,.27-2.67,.48-.92,.21-1.86,.47-2.84,.75-.22,.06-.45,.13-.67,.2-.36,.11-.78-.04-1.09-.29-.31-.24-.46-.61-.23-.9,.14-.18,.3-.35,.45-.52,.7-.74,1.54-1.39,2.5-1.95,.96-.56,2.05-1.03,3.26-1.35,.6-.16,1.23-.28,1.88-.36,.33-.03,.65-.07,.99-.08,.17,0,.33-.01,.5-.01h.25c.09,0,.17,0,.24,0,1.22,.04,2.48,.19,3.71,.52,1.23,.33,2.43,.84,3.43,1.55,1,.71,1.78,1.6,2.17,2.57,.09,.22,.15,.44,.2,.66Z" style="fill:#fdc987;"/><path d="M246.01,119.65s-2.95-5.53-9.87-6.3c-4.86-.54-10.88,2.6-10.88,2.6,0,0,.57-8.22,.43-15.63-.18-9.55,.55-19.8,11.34-19.23,6.04,.32,9.22,8.31,9.56,17.72,.34,9.42-.58,20.84-.58,20.84Z" style="fill:#fdc987;"/></g></g><g><path d="M247.49,98.89c.84,5.74,.05,10.32,0,12.76-.22,10.43-.35,33.75-4.88,55.13-4.7,22.16-13.87,42.37-18.37,50.96-2.63,5.01-4.86,8.49-6.99,11.1" style="fill:none; stroke:#000; stroke-linecap:round; stroke-linejoin:round; stroke-width:3.8px;"/><path d="M215.14,169.52c1.97-7.11,3.9-15.32,5.97-24.73,7.33-33.33-2.28-57,12.35-59.9,5.44-1.08,11.05,3.39,12.14,7.74" style="fill:none; stroke:#000; stroke-linecap:round; stroke-linejoin:round; stroke-width:3.8px;"/></g></g><path d="M65.9,194.1s3,6.94,9.28,10.58c6.27,3.64,10.84,3.82,10.84,3.82" style="fill:none; stroke:#000; stroke-linecap:round; stroke-linejoin:round; stroke-width:3.8px;"/><path d="M79.97,218.45s1.66,3.95,2,13c.34,9.05-1,14-1,14" style="fill:none; stroke:#000; stroke-linecap:round; stroke-linejoin:round; stroke-width:3.8px;"/><path d="M116.13,81.19c0-2.58,4.73-17.03,.8-19.66-2.59-1.74-13.72,4.5-15.94,7.36" style="fill:none; stroke:#000; stroke-linecap:round; stroke-linejoin:round; stroke-width:3.8px;"/><path d="M32.58,81.19c0-2.58-4.73-17.03-.8-19.66,2.59-1.74,13.72,4.5,15.94,7.36" style="fill:none; stroke:#000; stroke-linecap:round; stroke-linejoin:round; stroke-width:3.8px;"/><path d="M47.21,144.53s-6.61,21.12-1.64,39.7c5.9,22.05,8.22,26.88,10.95,34.25,2.73,7.37,4.47,15.46,2.47,21.7-2.02,6.27-3.08,4.35-3.02,10.27,.07,5.86,8.11,7.29,12.83,7.26,6.83-.03,9.92-2.81,9.92-2.81" style="fill:none; stroke:#000; stroke-linecap:round; stroke-linejoin:round; stroke-width:3.8px;"/><path d="M114.04,210.52c-1.55,4.6-7.24,27.84-6.07,30.93s4.28,9.63,1,14c-2.89,3.85-6,4-13,4-5.59,0-15-1-16-7" style="fill:none; stroke:#000; stroke-linecap:round; stroke-linejoin:round; stroke-width:3.8px;"/><path d="M219.21,188.53s1.73-26.25-27.24-49.07c-16.74-13.18-40.98-16.75-57.26-18.84-8.49-1.09-14.08-9.68-13.79-15.88s-2.43-15.38-3.65-19.13" style="fill:none; stroke:#000; stroke-linecap:round; stroke-linejoin:round; stroke-width:3.8px;"/><path d="M218.97,195.45s2.37,27.63-5,41c-7.37,13.37-32.7,20.4-41.3,20.77-8.6,.37-12.06,1.23-18.7,1.23-3.74,0-15.07,.63-19-1-3.43-1.42-5.77-7.07-5-11,1.24-6.29,18.81-7.73,18.81-7.73" style="fill:none; stroke:#000; stroke-linecap:round; stroke-linejoin:round; stroke-width:3.8px;"/><path d="M49.97,72.73s7.67-5.68,22.7-5.68,24.59,5.68,24.59,5.68" style="fill:none; stroke:#000; stroke-linecap:round; stroke-linejoin:round; stroke-width:3.8px;"/><path d="M34.55,85.61s-4.34,11.69-4.34,21.13c0,13.17,3.47,18.31,6.62,23.65,3.03,5.14,7.57,10.41,7.57,10.41" style="fill:none; stroke:#000; stroke-linecap:round; stroke-linejoin:round; stroke-width:3.8px;"/><path d="M116.97,239.45s3.5,2.4,7,3.2c3.5,.8,7,.8,7,.8" style="fill:none; stroke:#000; stroke-linecap:round; stroke-linejoin:round; stroke-width:3.8px;"/></svg>