<?xml version="1.0" encoding="UTF-8"?><svg id="bicolor_5" xmlns="http://www.w3.org/2000/svg" xmlns:xlink="http://www.w3.org/1999/xlink" viewBox="0 0 280 280"><defs><clipPath id="clippath"><path d="M209.09,156.17c-14.27-23.32-43.28-31-63-34-20.05-3.05-25-12-25-12,0,0-19.44,20.93-38.16,23.93-15,2.4-25.84,5.07-36.84,3.07,0,0,3.74,3,0,24-2.44,13.67,.57,33,9,53,6.14,14.58,4,29.46,4,29.46,0,0-4.03,4.63-2,9.54,2.03,4.9,9.24,5.92,15,5,5.2-.83,3-2,9-2,4.12,0,8.33,6.54,19,5,7.61-1.1,10.86-2.79,11-8,.02-.86-1.79-7.08-2-11-.29-5.5,1-9,1-9,0,0,2,4,8,7s19.85,2.93,13,6c-2.4,1.07-1.15,5.94,1,9,2.81,4,19.35,3.93,25.74,3.93,12.17,0,31.4-4.53,37.45-8s18.21-5.93,21.81-25.93c4.14-22.99,10.68-38.48-8-69Z" style="fill:none;"/></clipPath><clipPath id="clippath-1"><path d="M73.04,66.79c-12.3,0-18.13,2.17-29.47,11-12.68,9.88-14.13,18.12-14,27,.13,8.88,.9,18.17,6.57,26.33,3.78,5.44,10.43,13.67,10.43,13.67,0,0-1.7,3,25,3,20.81,0,56.37-11.78,51.91-34.07-3-15-3.23-26.06-15.91-35.93-11.34-8.83-22.24-11-34.53-11Z" style="fill:none;"/></clipPath></defs><path d="M205.55,236.33s28.65-14.27,37.77-67.54c6.52-38.13,12.59-84.06-6.41-84.06-16.46,0-10.27,29.03-16.34,65.06-5.06,30-17.7,51-17.7,51,0,0-12.19,32.71,2.68,35.54Z" style="fill:#666;"/><path d="M73.39,67.53c-12.3,0-18.13,2.17-29.47,11-12.68,9.88-14.13,18.12-14,27,.13,8.88,.9,18.17,6.57,26.33,3.78,5.44,10.43,13.67,10.43,13.67,0,0-1.7,3,25,3,20.81,0,49-15.28,49-38,0-15.4-.32-22.12-13-32-11.34-8.83-22.24-11-34.53-11Z" style="fill:#fff;"/><path d="M208.92,155.53c-14.27-23.32-43.28-31-63-34-20.05-3.05-24-11-24-11,0,0-20.44,19.93-39.16,22.93-15,2.4-25.84,5.07-36.84,3.07,0,0,3.74,3,0,24-2.44,13.67,.57,33,9,53,6.14,14.58,4,29.46,4,29.46,0,0-4.03,4.63-2,9.54,2.03,4.9,9.24,5.92,15,5,5.2-.83,3-2,9-2,4.12,0,8.33,6.54,19,5,7.61-1.1,10.86-2.79,11-8,.02-.86-1.79-7.08-2-11-.29-5.5,1-9,1-9,0,0,2,4,8,7s19.85,2.93,13,6c-2.4,1.07-1.15,5.94,1,9,2.81,4,19.35,3.93,25.74,3.93,12.17,0,31.4-4.53,37.45-8s18.21-5.93,21.81-25.93c4.14-22.99,10.68-38.48-8-69Z" style="fill:#fff;"/><path d="M164.65,239.66s-19.42-1.24-24.79,1.06c-5.37,2.3-8.22,4.87-7.35,11.41,.86,6.53,9,5.4,9,5.4,0,0,31.57,2.01,37.97,.45,6.4-1.56,15.95-8.15,20.11-11.56,4.16-3.41-4.77-15.7-15.95-15.7s-14.52,6.7-18.99,8.94Z" style="fill:#fff;"/><g style="clip-path:url(#clippath);"><path d="M183.18,179.65c6.76,10.72-7.66,26.32-7.44,35.84,.21,9.52,3.97,15.58,15.83,22.37,8.2,4.7,26.03,2.53,34.55-9.34,9.68-13.49,10.18-58.49-18.22-83-23.55-20.32-43.61-21.56-58.8-26.17-6.27-1.9-9.34-2.78-23.01,3.81-22.51,10.86-16.08,41.63-6.83,52.55,23.07,27.26,56.11-8.44,63.92,3.93Z" style="fill:#666;"/></g><path d="M95.92,73.53s16.8-13.68,20.92-11.25,.08,28.25,.08,28.25c0,0-7.64-5.55-11.84-9.52-3.87-3.66-9.16-7.48-9.16-7.48Z" style="fill:#666;"/><path d="M53.92,73.53s-16.51-13.68-20.63-11.25c-4.12,2.43,2.63,28.25,2.63,28.25,0,0,4.94-5.55,9.13-9.52,3.87-3.66,8.87-7.48,8.87-7.48Z" style="fill:#666;"/><g style="clip-path:url(#clippath-1);"><path d="M24.58,122.79s19.78,.26,26-7.1c6.22-7.36,18.37-29.71,24.46-29.71,5.41,0,17.7,23.24,21.54,28.52,7.46,10.3,27,2.37,27,2.37,0,0,16.52-52.3-49.59-52.3S24.58,122.79,24.58,122.79Z" style="fill:#666;"/></g><path d="M111.49,219.73c.36,1-3.52,12.28-3,19,.6,7.82,3.02,9.42,3,10-.14,5.21-1.32,8.9-9,10-10.77,1.54-16.19-4-22-4s-7.76,2.17-13,3c-5.82,.92-8.95-3.1-11-8-.99-2.38,3.5-5.58,4-14,.53-8.92-4-18-4-18,0,0,6-1,12-1s10,4,13,4,13-3,17-3,13,2,13,2Z" style="fill:#fff;"/><g><g><path d="M248.21,98.89c.84,5.74,.05,10.32,0,12.76-.22,10.43-.35,33.75-4.88,55.13-4.7,22.16-13.87,42.37-18.37,50.96-2.63,5.01-4.86,8.49-6.99,11.1" style="fill:none; stroke:#333; stroke-linecap:round; stroke-linejoin:round; stroke-width:3.8px;"/><path d="M215.86,169.52c1.97-7.11,3.9-15.32,5.97-24.73,7.33-33.33-2.28-57,12.35-59.9,5.44-1.08,11.05,3.39,12.14,7.74" style="fill:none; stroke:#333; stroke-linecap:round; stroke-linejoin:round; stroke-width:3.8px;"/></g><path d="M66.62,194.1s3,6.94,9.28,10.58c6.27,3.64,10.84,3.82,10.84,3.82" style="fill:none; stroke:#333; stroke-linecap:round; stroke-linejoin:round; stroke-width:3.8px;"/><path d="M80.68,218.45s1.66,3.95,2,13c.34,9.05-1,14-1,14" style="fill:none; stroke:#333; stroke-linecap:round; stroke-linejoin:round; stroke-width:3.8px;"/><path d="M116.85,81.19c0-2.58,4.73-17.03,.8-19.66-2.59-1.74-13.72,4.5-15.94,7.36" style="fill:none; stroke:#333; stroke-linecap:round; stroke-linejoin:round; stroke-width:3.8px;"/><path d="M33.29,81.19c0-2.58-4.73-17.03-.8-19.66,2.59-1.74,13.72,4.5,15.94,7.36" style="fill:none; stroke:#333; stroke-linecap:round; stroke-linejoin:round; stroke-width:3.8px;"/><path d="M47.92,144.53s-6.61,21.12-1.64,39.7c5.9,22.05,8.22,26.88,10.95,34.25,2.73,7.37,4.47,15.46,2.47,21.7s-3.08,4.35-3.02,10.27c.07,5.86,8.11,7.29,12.83,7.26,6.83-.03,9.92-2.81,9.92-2.81" style="fill:none; stroke:#333; stroke-linecap:round; stroke-linejoin:round; stroke-width:3.8px;"/><path d="M114.75,210.52c-1.55,4.6-7.24,27.84-6.07,30.93,1.17,3.09,4.28,9.63,1,14-2.89,3.85-6,4-13,4-5.59,0-15-1-16-7" style="fill:none; stroke:#333; stroke-linecap:round; stroke-linejoin:round; stroke-width:3.8px;"/><path d="M219.92,188.53s1.73-26.25-27.24-49.07c-16.74-13.18-40.98-16.75-57.26-18.84-8.49-1.09-14.08-9.68-13.79-15.88,.29-6.21-2.43-15.38-3.65-19.13" style="fill:none; stroke:#333; stroke-linecap:round; stroke-linejoin:round; stroke-width:3.8px;"/><path d="M219.68,195.45s2.37,27.63-5,41c-7.37,13.37-32.7,20.4-41.3,20.77-8.6,.37-12.06,1.23-18.7,1.23-3.74,0-15.07,.63-19-1-3.43-1.42-5.77-7.07-5-11,1.24-6.29,18.81-7.73,18.81-7.73" style="fill:none; stroke:#333; stroke-linecap:round; stroke-linejoin:round; stroke-width:3.8px;"/><path d="M50.69,72.73s7.67-5.68,22.7-5.68,24.59,5.68,24.59,5.68" style="fill:none; stroke:#333; stroke-linecap:round; stroke-linejoin:round; stroke-width:3.8px;"/><path d="M35.27,85.61s-4.34,11.69-4.34,21.13c0,13.17,3.47,18.31,6.62,23.65,3.03,5.14,7.57,10.41,7.57,10.41" style="fill:none; stroke:#333; stroke-linecap:round; stroke-linejoin:round; stroke-width:3.8px;"/><path d="M117.68,239.45s3.5,2.4,7,3.2,7,.8,7,.8" style="fill:none; stroke:#333; stroke-linecap:round; stroke-linejoin:round; stroke-width:3.8px;"/></g></svg>