<?xml version="1.0" encoding="UTF-8"?><svg id="bicolor_5" xmlns="http://www.w3.org/2000/svg" xmlns:xlink="http://www.w3.org/1999/xlink" viewBox="0 0 280 280"><defs><clipPath id="clippath"><path d="M204.82,241.76s28.59-14.39,37.48-67.7c6.36-38.15,12.24-84.11-6.77-84.03-16.46,.07-10.14,29.08-16.06,65.13-4.93,30.02-17.48,51.07-17.48,51.07,0,0-12.05,32.76,2.83,35.53Z" style="fill:none;"/></clipPath><clipPath id="clippath-1"><path d="M73.04,68.17c-12.3,0-18.13,2.17-29.46,11-12.68,9.88-14.13,18.12-14,27,.14,8.88,.9,18.17,6.58,26.33,3.78,5.44,10.43,13.67,10.43,13.67,0,0-1.7,3,25,3,20.81,0,50.85-15.36,50.85-38.08,0-15.4-2.17-22.04-14.85-31.92-11.34-8.83-22.24-11-34.54-11Z" style="fill:none;"/></clipPath><clipPath id="clippath-2"><path d="M209.58,156.16c-14.28-23.32-45.43-30.08-65.15-33.07-20.05-3.05-22.85-12.92-22.85-12.92,0,0-19.44,20.93-38.16,23.93-15,2.4-25.84,5.07-36.84,3.08,0,0,3.75,3,0,24-2.44,13.67,.58,33,9,53,6.15,14.58,4,29.46,4,29.46,0,0-4.03,4.63-2,9.54,2.03,4.9,9.24,5.91,15,5,5.2-.83,3-2,9-2,4.12,0,8.33,6.54,19,5,7.61-1.1,10.86-2.79,11-8,.02-.86-1.8-7.08-2-11-.29-5.5,1-9,1-9,0,0,2,4,8,7,6,3,19.85,2.93,13,6-2.4,1.07-1.15,5.94,1,9,2.81,4,19.35,3.93,25.74,3.93,12.17,0,31.4-4.53,37.45-8,6.05-3.48,18.21-5.93,21.81-25.93,4.14-23,10.68-38.48-8-69Z" style="fill:none;"/></clipPath><clipPath id="clippath-3"><path d="M174,185.05c7.27,12.38-8.23,30.4-8,41.39,.23,10.99,4.27,17.99,17.02,25.83,8.81,5.42,27.99,2.92,37.14-10.79,10.41-15.58,10.94-67.55-19.59-95.85-25.32-23.47-46.89-24.9-63.21-30.22-6.74-2.2-6.94,4.19-21.64,11.8-24.2,12.54-20.37,40.68-10.43,53.29,24.81,31.48,60.32-9.75,68.71,4.54Z" style="fill:none;"/></clipPath><clipPath id="clippath-4"><path d="M73.33,66.89c-12.3,0-18.13,2.17-29.46,11-12.68,9.88-14.13,18.12-14,27s.9,18.17,6.58,26.33c3.78,5.44,10.43,13.67,10.43,13.67,0,0-1.7,3,25,3,20.81,0,49-15.28,49-38,0-15.4-.32-22.12-13-32-11.34-8.83-22.24-11-34.54-11Z" style="fill:none;"/></clipPath></defs><g><path d="M204.82,241.76s28.59-14.39,37.48-67.7c6.36-38.15,12.24-84.11-6.77-84.03-16.46,.07-10.14,29.08-16.06,65.13-4.93,30.02-17.48,51.07-17.48,51.07,0,0-12.05,32.76,2.83,35.53Z" style="fill:#eba731;"/><g style="clip-path:url(#clippath);"><g><path d="M224.73,224.25c.11,.47-.2,.81-.62,.91-.42,.1-.91,.02-1.23-.33l-.3-.32-.31-.32c-.9-.94-1.85-1.84-2.81-2.7l-.73-.63c-.25-.2-.5-.41-.74-.62-.51-.4-1-.8-1.53-1.18-.5-.39-1.06-.74-1.57-1.12l-.82-.52c-.14-.09-.27-.18-.41-.26l-.42-.25-.42-.25-.21-.13c-.07-.04-.14-.09-.2-.12-.13-.07-.25-.14-.39-.21l-.4-.2c-.55-.26-1.14-.51-1.75-.74-1.23-.46-2.57-.85-3.95-1.22-1.39-.36-2.83-.69-4.3-1-.34-.07-.68-.15-1.02-.21-.55-.11-.82-.45-.84-.79-.02-.34,.28-.68,.87-.77,.37-.05,.73-.1,1.1-.14,1.61-.17,3.25-.19,4.9-.09,1.65,.11,3.32,.35,4.97,.8,.82,.22,1.64,.5,2.44,.83,.2,.09,.4,.18,.59,.27,.2,.09,.39,.19,.58,.29,.1,.05,.18,.1,.27,.15l.26,.15,.51,.3,.51,.3c.17,.1,.32,.22,.48,.32,.32,.22,.64,.44,.95,.66,.59,.47,1.2,.93,1.72,1.44,.55,.49,1.04,1.03,1.52,1.56,.23,.27,.45,.55,.67,.83,.21,.28,.41,.57,.61,.85,.76,1.15,1.39,2.35,1.79,3.6l.13,.42,.11,.42Z" style="fill:#df872a;"/><path d="M231.97,206.99c.32,.41,.2,.82-.14,1.03-.34,.21-.83,.28-1.3,.04l-.43-.21-.43-.21c-1.28-.62-2.58-1.19-3.88-1.71l-.98-.38c-.33-.12-.66-.24-.98-.36-.66-.22-1.31-.46-1.97-.66-.65-.22-1.33-.39-1.99-.59l-1.01-.25c-.17-.04-.33-.09-.5-.13l-.51-.11-.51-.11-.25-.06c-.08-.02-.17-.04-.24-.05-.15-.03-.3-.06-.46-.08l-.47-.07c-.63-.09-1.29-.15-1.97-.19-1.36-.08-2.78-.06-4.23,0-1.46,.06-2.94,.17-4.46,.29-.35,.03-.69,.06-1.04,.09-.56,.05-.97-.18-1.15-.5-.17-.31-.07-.72,.44-.97,.31-.16,.63-.3,.96-.45,1.41-.62,2.92-1.11,4.49-1.49,1.58-.37,3.24-.62,4.97-.68,.87-.03,1.75,0,2.66,.08,.23,.02,.45,.05,.68,.08,.23,.03,.45,.07,.68,.11,.12,.02,.21,.04,.32,.06l.31,.06,.61,.13,.61,.14c.2,.05,.4,.11,.6,.16,.4,.11,.8,.23,1.19,.34,.77,.27,1.55,.53,2.28,.86,.75,.3,1.45,.66,2.15,1.03,.34,.19,.68,.38,1.01,.58,.33,.2,.65,.41,.96,.62,1.25,.86,2.39,1.8,3.36,2.85l.32,.36,.3,.36Z" style="fill:#df872a;"/><path d="M237.29,195.39c.32,.41,.2,.82-.14,1.03-.34,.21-.83,.28-1.3,.04l-.43-.21-.43-.21c-1.28-.62-2.58-1.19-3.88-1.71l-.98-.38c-.33-.12-.66-.24-.98-.36-.66-.22-1.31-.46-1.97-.66-.65-.22-1.33-.39-1.99-.59l-1.01-.25c-.17-.04-.33-.09-.5-.13l-.51-.11-.51-.11-.25-.06c-.08-.02-.17-.04-.24-.05-.15-.03-.3-.06-.46-.08l-.47-.07c-.63-.09-1.29-.15-1.97-.19-1.36-.08-2.78-.06-4.23,0-1.46,.06-2.94,.17-4.46,.29-.35,.03-.69,.06-1.04,.09-.56,.05-.97-.18-1.15-.5-.17-.31-.07-.72,.44-.97,.31-.16,.63-.3,.96-.45,1.41-.62,2.92-1.11,4.49-1.49,1.58-.37,3.24-.62,4.97-.68,.87-.03,1.75,0,2.66,.08,.23,.02,.45,.05,.68,.08,.23,.03,.45,.07,.68,.11,.12,.02,.21,.04,.32,.06l.31,.06,.61,.13,.61,.14c.2,.05,.4,.11,.6,.16,.4,.11,.8,.23,1.19,.34,.77,.27,1.55,.53,2.28,.86,.75,.3,1.45,.66,2.15,1.03,.34,.19,.68,.38,1.01,.58,.33,.2,.65,.41,.96,.62,1.25,.86,2.39,1.8,3.36,2.85l.32,.36,.3,.36Z" style="fill:#df872a;"/><path d="M239.1,183.76c.23,.38,.03,.75-.33,.94-.36,.19-.84,.25-1.22,.03-.24-.13-.47-.26-.71-.38-1.06-.57-2.13-1.09-3.2-1.56-1.07-.47-2.14-.89-3.22-1.25-.53-.2-1.09-.34-1.62-.51-.55-.13-1.09-.3-1.65-.4l-.41-.09-.21-.05h-.05l-.04-.02-.09-.02c-.23-.04-.47-.08-.72-.11-.5-.06-1.03-.09-1.58-.1-1.11-.02-2.29,.04-3.51,.15-1.22,.1-2.48,.26-3.76,.42l-.89,.11c-.47,.06-.88-.16-1.09-.46-.21-.3-.19-.7,.22-.96,.25-.16,.5-.31,.76-.46,1.13-.65,2.36-1.18,3.69-1.62,1.32-.43,2.74-.75,4.28-.89,.77-.07,1.56-.08,2.38-.03,.41,.03,.82,.07,1.24,.14l.16,.02h.08l.07,.03,.27,.06,.54,.12c.73,.14,1.42,.38,2.12,.59,.68,.25,1.36,.5,1.98,.81,1.27,.6,2.45,1.31,3.46,2.12,1.02,.82,1.91,1.71,2.61,2.69,.16,.22,.3,.44,.44,.67Z" style="fill:#df872a;"/><path d="M240.52,170.94c.2,.37-.01,.73-.38,.91-.37,.18-.84,.24-1.2,.03-.23-.13-.45-.25-.68-.38-1-.55-2.01-1.06-3.01-1.52-1-.46-2.02-.86-3.03-1.21-.5-.19-1.02-.32-1.52-.49-.52-.12-1.02-.28-1.54-.38l-.39-.09-.19-.05c-.06-.01-.11-.02-.16-.03-.1-.02-.21-.04-.32-.05-.11-.02-.22-.03-.34-.04-.46-.05-.96-.08-1.48-.08-1.04,0-2.16,.07-3.32,.19-1.16,.12-2.35,.28-3.58,.45l-.85,.12c-.45,.07-.85-.15-1.07-.44-.22-.3-.22-.69,.15-.95,.23-.16,.47-.31,.71-.47,1.06-.65,2.21-1.2,3.46-1.65,1.25-.45,2.61-.79,4.09-.94,.74-.08,1.51-.11,2.31-.06,.2,0,.4,.03,.6,.05,.2,.02,.41,.05,.61,.08,.1,.02,.21,.03,.3,.05l.26,.05,.53,.11c.71,.14,1.38,.36,2.06,.57,.65,.25,1.31,.49,1.91,.8,1.22,.59,2.33,1.3,3.28,2.1,.95,.8,1.77,1.68,2.41,2.65,.14,.21,.27,.43,.4,.66Z" style="fill:#df872a;"/><path d="M242.45,157.71c.17,.36-.08,.7-.46,.87-.38,.17-.84,.22-1.18,.02-.21-.12-.41-.24-.62-.36-.92-.53-1.84-1.02-2.76-1.46-1.84-.87-3.66-1.54-5.53-1.95l-.35-.07c-.06-.01-.12-.03-.17-.04l-.14-.02c-.09-.02-.18-.03-.28-.04-.09-.02-.2-.02-.3-.03-.41-.04-.86-.05-1.33-.05-.95,.01-1.98,.11-3.06,.24-1.07,.13-2.18,.31-3.33,.5l-.79,.13c-.42,.07-.82-.14-1.06-.43-.24-.29-.27-.68,.06-.94,.21-.16,.42-.32,.63-.47,.95-.66,1.99-1.22,3.14-1.69,1.15-.47,2.41-.84,3.81-1.03,.7-.09,1.44-.14,2.21-.11,.19,0,.39,.02,.58,.04,.2,.02,.39,.04,.59,.07l.3,.04c.1,.02,.17,.03,.26,.05l.51,.1c.67,.15,1.33,.34,1.96,.56,.63,.23,1.24,.49,1.81,.78,1.15,.59,2.17,1.29,3.03,2.08,.86,.79,1.58,1.65,2.11,2.58,.12,.21,.23,.42,.33,.63Z" style="fill:#df872a;"/><path d="M243.72,144.63c.22,.33,.04,.69-.3,.9-.34,.21-.79,.32-1.15,.16-.22-.09-.44-.19-.67-.28-.99-.41-1.96-.79-2.93-1.13l-.36-.13-.36-.12c-.24-.08-.47-.17-.72-.24-.24-.07-.48-.15-.71-.23-.24-.07-.48-.13-.72-.21-.95-.26-1.89-.51-2.85-.68l-.36-.07-.18-.04-.18-.03c-.24-.03-.48-.07-.72-.11l-.18-.03h-.08l-.07-.02c-.09,0-.18-.03-.27-.03-.18-.02-.36-.03-.55-.04-.73-.02-1.49,.08-2.32,.34-.83,.25-1.69,.65-2.55,1.14-.2,.11-.39,.23-.59,.35-.31,.19-.77,.16-1.17,0-.39-.15-.67-.49-.53-.85,.09-.22,.18-.44,.3-.66,.25-.47,.56-.92,.95-1.35,.38-.43,.84-.84,1.38-1.2,.54-.37,1.15-.69,1.84-.94,.69-.25,1.44-.43,2.22-.52,.39-.04,.78-.06,1.17-.06,.2,0,.39,0,.58,.02h.22l.06,.02,.25,.03c.33,.03,.65,.07,.98,.11l.24,.03c.08,.01,.16,.03,.24,.04l.48,.09c2.57,.5,4.91,1.52,6.77,2.88,.93,.68,1.75,1.44,2.42,2.28,.15,.19,.29,.38,.42,.58Z" style="fill:#df872a;"/><path d="M244.3,130.97c.08,.37-.27,.67-.69,.75-.43,.08-.87,.07-1.12-.11-.15-.11-.31-.22-.47-.32-.73-.46-1.49-.78-2.27-1.02-.78-.23-1.59-.38-2.43-.49-.84-.11-1.73-.16-2.64-.18-.06,0-.11,0-.16,0h-.15c-.1,0-.2,0-.3,0-.2,0-.4,.01-.61,.02-.41,.02-.83,.07-1.26,.12-.86,.11-1.74,.28-2.66,.49-.92,.21-1.86,.47-2.84,.76-.22,.06-.45,.13-.67,.2-.36,.11-.78-.04-1.1-.28-.31-.24-.46-.61-.23-.9,.14-.18,.3-.35,.45-.52,.69-.74,1.53-1.39,2.49-1.96,.96-.57,2.05-1.04,3.25-1.36,.6-.16,1.23-.29,1.88-.37,.33-.04,.65-.07,.99-.08,.17,0,.33-.02,.5-.01h.25c.09,0,.17,0,.24,0,1.22,.03,2.48,.18,3.72,.51,1.23,.32,2.43,.83,3.43,1.53,1,.7,1.79,1.59,2.18,2.56,.09,.22,.16,.44,.2,.66Z" style="fill:#df872a;"/><path d="M245.5,124.91s-2.97-5.52-9.9-6.26c-4.86-.52-10.87,2.64-10.87,2.64,0,0,.54-8.23,.37-15.63-.22-9.55,.46-19.8,11.26-19.28,6.04,.29,9.26,8.27,9.63,17.68,.38,9.41-.49,20.85-.49,20.85Z" style="fill:#df872a;"/></g></g><g><path d="M246.89,104.14c.87,5.74,.09,10.32,.05,12.76-.17,10.43-.21,33.75-4.65,55.15-4.6,22.18-13.69,42.42-18.15,51.03-2.6,5.03-4.83,8.51-6.94,11.13" style="fill:none; stroke:#000; stroke-linecap:round; stroke-linejoin:round; stroke-width:3.8px;"/><path d="M214.84,174.91c1.94-7.12,3.84-15.34,5.87-24.76,7.19-33.36-2.52-56.99,12.1-59.95,5.44-1.1,11.06,3.34,12.17,7.69" style="fill:none; stroke:#000; stroke-linecap:round; stroke-linejoin:round; stroke-width:3.8px;"/></g></g><g><path d="M73.04,68.17c-12.3,0-18.13,2.17-29.46,11-12.68,9.88-14.13,18.12-14,27,.14,8.88,.9,18.17,6.58,26.33,3.78,5.44,10.43,13.67,10.43,13.67,0,0-1.7,3,25,3,20.81,0,49.85-15.36,49.85-38.08,0-15.4-1.17-22.04-13.85-31.92-11.34-8.83-22.24-11-34.54-11Z" style="fill:#fff;"/><g style="clip-path:url(#clippath-1);"><path d="M24.58,124.17s19.78,.26,26-7.1c6.22-7.36,18.36-29.71,24.46-29.71,5.41,0,17.71,23.23,21.54,28.52,7.46,10.3,27,2.36,27,2.36,0,0,16.52-52.3-49.59-52.29-66.11,0-49.41,58.21-49.41,58.21Z" style="fill:#eba731;"/></g><path d="M208.58,156.16c-14.28-23.32-43.28-31-63-34-20.05-3.05-24-11-24-11,0,0-5.27,24-24,27-15,2.4-44,2-55,0,0,0,6.75,2,3,23-2.44,13.67,.58,33,9,53,6.15,14.58,4,29.46,4,29.46,0,0-4.03,4.63-2,9.54,2.03,4.9,9.24,5.91,15,5,5.2-.83,3-2,9-2,4.12,0,8.33,6.54,19,5,7.61-1.1,10.86-2.79,11-8,.02-.86-1.8-7.08-2-11-.29-5.5,1-9,1-9,0,0,2,4,8,7,6,3,19.85,2.93,13,6-2.4,1.07-1.15,5.94,1,9,2.81,4,19.35,3.93,25.74,3.93,12.17,0,31.4-4.53,37.45-8,6.05-3.48,18.21-5.93,21.81-25.93,4.14-23,10.68-38.48-8-69Z" style="fill:#fff;"/><g style="clip-path:url(#clippath-2);"><g><path d="M174,185.05c7.27,12.38-8.23,30.4-8,41.39,.23,10.99,4.27,17.99,17.02,25.83,8.81,5.42,27.99,2.92,37.14-10.79,10.41-15.58,10.94-67.55-19.59-95.85-25.32-23.47-46.89-24.9-63.21-30.22-6.74-2.2-6.94,4.19-21.64,11.8-24.2,12.54-20.37,40.68-10.43,53.29,24.81,31.48,60.32-9.75,68.71,4.54Z" style="fill:#eba731;"/><g style="clip-path:url(#clippath-3);"><g><path d="M105.42,142.03c-1.19-.03-1.82-.52-1.84-1.04-.02-.51,.48-1.04,1.56-1.3,.66-.16,1.31-.32,1.97-.49,2.92-.76,5.78-1.62,8.56-2.6,2.78-.98,5.48-2.07,8.07-3.28,1.3-.61,2.57-1.26,3.8-1.93,.31-.17,.62-.34,.92-.52l.46-.26c.15-.09,.32-.18,.43-.26l.39-.25c.13-.08,.26-.16,.38-.25l.38-.27c.13-.09,.26-.17,.38-.28,1.01-.77,1.99-1.66,2.94-2.61,.95-.95,1.86-1.97,2.76-3.01,.89-1.05,1.76-2.14,2.61-3.24,.85-1.11,1.69-2.23,2.52-3.37,1.65-2.28,3.26-4.63,4.87-6.99l1.1-1.63c.59-.88,1.31-1.16,1.85-.97,.53,.18,.85,.86,.56,1.88-.18,.63-.38,1.26-.58,1.89-.9,2.73-2,5.41-3.3,8.03-.65,1.31-1.35,2.6-2.11,3.88-.76,1.27-1.57,2.53-2.47,3.76-.9,1.23-1.87,2.43-2.94,3.59-1.07,1.16-2.25,2.28-3.6,3.3-.16,.13-.35,.25-.52,.38l-.53,.37c-.17,.13-.37,.24-.56,.36l-.57,.35c-.2,.12-.36,.21-.54,.31l-.53,.29c-.35,.2-.71,.38-1.07,.56-1.43,.72-2.9,1.38-4.4,1.96-3,1.16-6.11,2.05-9.26,2.66-3.15,.61-6.35,.97-9.55,1.03-.72,0-1.43,0-2.15-.02Z" style="fill:#df872a;"/><path d="M126.59,152.55c-1.27,.04-1.98-.42-2.03-.93-.05-.51,.46-1.07,1.59-1.39,.69-.2,1.38-.41,2.06-.63,3.05-.97,6-2.09,8.83-3.38,2.82-1.29,5.51-2.74,8.01-4.36,1.25-.82,2.45-1.68,3.6-2.58,1.14-.92,2.23-1.87,3.26-2.87l.75-.77,.38-.39,.39-.42c.52-.56,1.05-1.12,1.57-1.68l3.15-3.39c2.11-2.27,4.24-4.53,6.42-6.77,2.18-2.24,4.39-4.46,6.67-6.64l1.58-1.49c1.7-1.59,3.27-.57,2.11,1.38-.36,.61-.73,1.21-1.1,1.81-1.63,2.62-3.36,5.19-5.16,7.71-1.8,2.52-3.68,5-5.64,7.43-.98,1.21-1.99,2.42-3.02,3.61-.51,.6-1.04,1.19-1.57,1.77l-.4,.44c-.14,.15-.29,.3-.44,.46-.29,.3-.59,.61-.89,.91-1.22,1.18-2.53,2.29-3.89,3.32-1.38,1.01-2.83,1.95-4.32,2.79-3,1.68-6.2,3.01-9.5,3.99-3.3,.98-6.68,1.63-10.09,1.93-.76,.06-1.53,.11-2.3,.13Z" style="fill:#df872a;"/><path d="M142.95,167.34c-1.34,.34-2.2,.08-2.4-.4-.2-.48,.22-1.17,1.41-1.77l2.16-1.1c3.21-1.65,6.4-3.31,9.54-5.01,3.13-1.7,6.23-3.44,9.23-5.24l.56-.34,.56-.34,1.12-.69c.73-.47,1.48-.92,2.19-1.41,1.45-.94,2.86-1.92,4.23-2.93l1.02-.76c.33-.26,.66-.52,.99-.78l.49-.39,.48-.4,.48-.4c.16-.13,.32-.26,.47-.4l.91-.82c.16-.13,.29-.28,.44-.42l.43-.42c.14-.14,.29-.28,.43-.42l.41-.43,.41-.43c.07-.07,.14-.14,.2-.22l.19-.23,.77-.91c.13-.15,.25-.31,.38-.47l.37-.48c.51-.63,.98-1.31,1.47-1.98,.25-.33,.47-.68,.71-1.02l.7-1.03,.69-1.05,.35-.53,.34-.53c1.81-2.84,3.54-5.77,5.26-8.72l1.18-2.03c.63-1.09,1.38-1.49,1.92-1.33,.54,.17,.85,.93,.52,2.15-.2,.76-.42,1.51-.64,2.26-.99,3.28-2.19,6.51-3.63,9.69l-.27,.6-.29,.59-.58,1.18c-.2,.39-.41,.78-.62,1.18-.21,.39-.41,.78-.64,1.17-.45,.77-.89,1.55-1.41,2.32l-.38,.57c-.13,.19-.25,.38-.39,.57l-.84,1.13-.21,.28c-.07,.09-.15,.18-.23,.27l-.46,.55-.46,.55c-.16,.18-.32,.35-.48,.52l-.49,.52c-.16,.17-.32,.35-.5,.51l-1.02,.98c-.17,.17-.35,.32-.52,.48l-.53,.47-.53,.47-.55,.45c-.37,.29-.73,.59-1.1,.88l-1.12,.84c-1.51,1.1-3.06,2.15-4.66,3.12-.79,.5-1.6,.95-2.41,1.42l-1.22,.68-.61,.34-.62,.32c-3.3,1.73-6.7,3.26-10.17,4.61-3.47,1.35-7,2.55-10.61,3.55-.81,.22-1.62,.44-2.43,.64Z" style="fill:#df872a;"/><path d="M208.73,132.79c.39-.97,1.19-1.4,1.95-1.36,.75,.05,1.45,.65,1.49,1.73,.01,.33,.02,.65,.02,.98,0,.33,0,.65,0,.98-.07,2.91-.52,5.82-1.26,8.69-.75,2.88-1.84,5.72-3.33,8.48l-.27,.52c-.09,.17-.2,.34-.3,.51l-.62,1.02c-.39,.67-.89,1.37-1.37,2.03-.98,1.33-2.06,2.57-3.19,3.77-2.28,2.38-4.79,4.54-7.43,6.54-2.65,2-5.44,3.85-8.35,5.55-2.91,1.7-5.93,3.28-9.07,4.69-.72,.32-1.45,.64-2.18,.94-1.18,.49-2.17,.32-2.61-.17-.44-.49-.37-1.27,.51-2.03l1.65-1.41c2.39-2.03,4.78-4.06,7.17-6.09,2.37-2.02,4.7-4.03,6.97-6.05,2.26-2.03,4.45-4.07,6.44-6.15,.99-1.04,1.95-2.09,2.81-3.16,.42-.54,.84-1.05,1.24-1.63l.61-.85c.1-.14,.21-.28,.3-.42l.28-.44c1.55-2.31,2.95-4.73,4.24-7.23,1.29-2.5,2.48-5.06,3.58-7.69,.13-.29,.25-.59,.37-.88,.12-.29,.24-.59,.36-.88Z" style="fill:#df872a;"/><path d="M219.53,153.57c0-.98,.41-1.54,.97-1.68,.55-.13,1.26,.28,1.61,1.31,.21,.62,.39,1.25,.55,1.88,.7,2.83,.9,5.78,.59,8.74-.31,2.95-1.18,5.91-2.6,8.67-.18,.34-.36,.69-.56,1.02l-.61,1-.66,.98c-.06,.08-.11,.16-.17,.24l-.18,.24-.36,.47c-.12,.16-.24,.31-.36,.47l-.39,.45-.39,.45-.2,.23-.22,.23-.45,.47c-.15,.15-.31,.29-.46,.43l-.46,.42-.47,.39c-1.25,1.04-2.54,1.94-3.86,2.78-1.31,.84-2.65,1.61-4,2.33-2.71,1.45-5.48,2.72-8.31,3.87-2.83,1.15-5.7,2.18-8.64,3.08-.67,.2-1.35,.4-2.03,.59-1.09,.31-1.85,.06-2.09-.41-.24-.47,.03-1.14,.96-1.71l1.74-1.06c2.53-1.54,5.07-3.03,7.58-4.54,2.51-1.5,5.01-2.99,7.43-4.52,1.21-.76,2.4-1.53,3.55-2.32,1.14-.79,2.25-1.59,3.24-2.41l.37-.31,.34-.31c.11-.1,.24-.2,.34-.31l.31-.31,.15-.15,.16-.18,.32-.36,.32-.35,.3-.37,.31-.37,.15-.18c.05-.06,.1-.13,.14-.19l.58-.76,.54-.78c.18-.26,.34-.53,.51-.8,1.33-2.14,2.36-4.47,3.07-6.93,.72-2.46,1.14-5.05,1.27-7.69,.03-.59,.05-1.18,.05-1.78Z" style="fill:#df872a;"/><path d="M236.62,176.26c.91-1.07,1.76-1.39,2.26-1.14,.5,.25,.62,1.11-.02,2.36-.39,.76-.79,1.51-1.2,2.25-1.86,3.33-3.95,6.55-6.24,9.67-2.3,3.12-4.82,6.12-7.59,8.96-1.38,1.42-2.84,2.8-4.37,4.12-1.53,1.32-3.13,2.6-4.82,3.79-.43,.29-.87,.58-1.3,.86l-.65,.43c-.22,.14-.44,.29-.66,.41l-1.32,.79c-.44,.26-.88,.53-1.32,.77-.89,.49-1.78,.99-2.67,1.47-.9,.47-1.8,.93-2.7,1.39-3.62,1.81-7.29,3.46-11.02,5.01-3.73,1.55-7.5,2.99-11.34,4.31-.88,.3-1.76,.6-2.64,.88-1.42,.47-2.35,.3-2.6-.16-.25-.46,.18-1.21,1.44-1.94l2.36-1.36c3.44-1.97,6.9-3.89,10.35-5.8,3.45-1.92,6.89-3.82,10.29-5.74l2.53-1.45c.84-.49,1.66-.99,2.49-1.47,.42-.24,.81-.5,1.22-.75l1.21-.75c.21-.12,.4-.25,.59-.38l.58-.39c.38-.26,.77-.51,1.15-.77,1.52-1.06,2.99-2.2,4.43-3.38,1.44-1.18,2.86-2.41,4.24-3.68,2.76-2.54,5.43-5.2,8.03-7.94,2.6-2.74,5.13-5.57,7.63-8.44,.56-.64,1.11-1.29,1.66-1.93Z" style="fill:#df872a;"/><path d="M237.08,206.83c.77-.92,1.55-1.19,2.06-.96,.51,.23,.71,1.01,.21,2.12-.16,.34-.31,.67-.47,1.01l-.5,1c-1.52,2.95-3.32,5.78-5.33,8.49-2.02,2.71-4.26,5.3-6.72,7.73-2.48,2.42-5.18,4.66-8.08,6.72-1.52,1.05-3.09,1.97-4.67,2.82-1.59,.85-3.2,1.62-4.82,2.34-3.25,1.44-6.57,2.68-9.94,3.77-3.37,1.09-6.78,2.04-10.23,2.83-.79,.18-1.59,.35-2.38,.52-1.28,.26-2.09-.03-2.28-.51-.19-.48,.23-1.16,1.38-1.7l2.14-1.01c3.12-1.46,6.23-2.9,9.31-4.37,3.08-1.46,6.13-2.93,9.1-4.46,1.48-.77,2.95-1.55,4.36-2.36,1.41-.81,2.79-1.65,4.05-2.53,2.63-1.86,5.19-3.86,7.65-5.96,2.45-2.12,4.81-4.34,7.1-6.65,2.29-2.31,4.5-4.7,6.65-7.17l.72-.83,.71-.84Z" style="fill:#df872a;"/></g></g></g></g><path d="M95.58,74.17s16.8-13.68,20.92-11.25c4.12,2.43,.08,28.25,.08,28.25,0,0-7.64-5.55-11.84-9.52-3.87-3.66-9.16-7.48-9.16-7.48Z" style="fill:#eba731;"/><path d="M53.58,74.17s-16.51-13.68-20.63-11.25c-4.12,2.43,2.63,28.25,2.63,28.25,0,0,4.94-5.55,9.13-9.52,3.87-3.66,8.87-7.48,8.87-7.48Z" style="fill:#eba731;"/><g style="clip-path:url(#clippath-4);"><g><g><path d="M32.03,99.85c2.79,.91,5.35,.93,8.1,.56,2.75-.33,5.64-1.85,8.6-1.24-2.67,1.75-4.86,3.71-8.16,4.19-3.13,.45-7.01-.53-8.54-3.52h0Z" style="fill:#df872a;"/><path d="M31.53,109.03c5.35-.19,10.55,.58,15.52-1.58,1.68-.64,3.39-1.33,5.19-1.94-2.22,2.55-4.91,4.77-8.18,5.83-4.25,1.15-9.07,.46-12.54-2.31h0Z" style="fill:#df872a;"/></g><g><path d="M121.03,99.85c-1.53,3.61-6.5,4.01-9.89,3.49-3.63-.62-6.48-2.34-9.6-4.17,1.8-.4,3.63-.18,5.31,.09,3.27,.58,6.22,1.31,9.48,1.39,1.63,.02,3.19,.01,4.7-.8h0Z" style="fill:#df872a;"/><path d="M123.53,107.02c-3.57,3.18-8.63,4.42-13.35,3.68-4.7-.93-8.72-2.79-12.75-5.19,2.3,.2,4.52,.61,6.73,.99,6.61,1.67,12.62,1.26,19.37,.52h0Z" style="fill:#df872a;"/></g><path d="M62.43,94.09c-1,0-2.1-6.27-2-9,.16-2.94-.22-4.28,1-7,.28-.72,2-2,3.22-.37,.52,.69,4.78,8.36,3.78,9.36-1.13,1.13-4-6-5-6s0,13-1,13Z" style="fill:#df872a;"/><path d="M71.73,80.93c-1.43-2.74-1.74-5.87-1.88-8.89-.03-1.52,.02-3.07,.35-4.6,.24-1.54,1.1-2.85,1.53-4.32,.25,1.51-.26,2.99-.24,4.48-.04,4.26,.27,9.04,.24,13.33h0Z" style="fill:#df872a;"/><path d="M64.04,72.61c-.68-3.83-.23-8.8,3.33-11.09-1.57,3.75-1.6,7.46-3.33,11.09h0Z" style="fill:#df872a;"/><path d="M83.34,72.61c-1.73-3.62-1.76-7.33-3.33-11.09,3.57,2.28,4.01,7.25,3.33,11.09h0Z" style="fill:#df872a;"/><path d="M75.54,80.93c-.03-4.3,.28-9.07,.24-13.33,.02-1.49-.5-2.98-.24-4.48,.44,1.47,1.29,2.78,1.54,4.32,.33,1.53,.38,3.08,.35,4.6-.14,3.03-.45,6.15-1.88,8.89h0Z" style="fill:#df872a;"/><path d="M85.57,94.09c1,0,2.1-6.27,2-9-.16-2.94,.22-4.28-1-7-.28-.72-2-2-3.22-.36-.52,.69-4.78,8.37-3.78,9.37,1.13,1.13,4-6,5-6s0,13,1,13Z" style="fill:#df872a;"/></g></g><g><path d="M66.28,194.74s3,6.94,9.28,10.58c6.27,3.64,10.85,3.82,10.85,3.82" style="fill:none; stroke:#000; stroke-linecap:round; stroke-linejoin:round; stroke-width:3.8px;"/><path d="M80.34,219.09s1.66,3.95,2,13c.34,9.05-1,14-1,14" style="fill:none; stroke:#000; stroke-linecap:round; stroke-linejoin:round; stroke-width:3.4px;"/><path d="M116.5,81.83c0-2.58,4.73-17.03,.8-19.66-2.59-1.74-13.72,4.5-15.94,7.36" style="fill:none; stroke:#000; stroke-linecap:round; stroke-linejoin:round; stroke-width:3.4px;"/><path d="M32.94,81.84c0-2.58-4.73-17.03-.8-19.66,2.59-1.74,13.72,4.5,15.94,7.36" style="fill:none; stroke:#000; stroke-linecap:round; stroke-linejoin:round; stroke-width:3.4px;"/><path d="M47.58,145.17s-6.6,21.12-1.64,39.7c5.9,22.05,8.22,26.88,10.95,34.25,2.73,7.37,4.47,15.46,2.47,21.7-2.02,6.27-3.08,4.35-3.02,10.27,.07,5.86,8.11,7.29,12.83,7.26,6.83-.03,9.92-2.81,9.92-2.81" style="fill:none; stroke:#000; stroke-linecap:round; stroke-linejoin:round; stroke-width:3.4px;"/><path d="M114.41,211.16c-1.55,4.6-7.24,27.84-6.07,30.93,1.17,3.09,4.28,9.63,1,14-2.89,3.85-6,4-13,4-5.59,0-15-1-16-7" style="fill:none; stroke:#000; stroke-linecap:round; stroke-linejoin:round; stroke-width:3.4px;"/><path d="M219.58,189.16s1.73-26.25-27.24-49.07c-16.74-13.18-40.98-16.75-57.27-18.83-8.49-1.09-14.08-9.68-13.79-15.88,.29-6.21-2.43-15.38-3.65-19.13" style="fill:none; stroke:#000; stroke-linecap:round; stroke-linejoin:round; stroke-width:3.4px;"/><path d="M219.34,196.08s2.37,27.63-5,41c-7.37,13.37-32.7,20.4-41.3,20.77-8.6,.37-12.06,1.23-18.7,1.23-3.74,0-15.07,.63-19-1-3.43-1.42-5.78-7.07-5-11,1.24-6.29,17-12,17-12" style="fill:none; stroke:#000; stroke-linecap:round; stroke-linejoin:round; stroke-width:3.4px;"/><path d="M50.34,73.38s7.67-5.68,22.7-5.68c14.82,0,24.59,5.67,24.59,5.67" style="fill:none; stroke:#000; stroke-linecap:round; stroke-linejoin:round; stroke-width:3.4px;"/><path d="M34.92,86.25s-4.34,11.69-4.33,21.13c0,13.17,3.47,18.31,6.62,23.65,3.04,5.14,7.57,10.4,7.57,10.4" style="fill:none; stroke:#000; stroke-linecap:round; stroke-linejoin:round; stroke-width:3.4px;"/><path d="M117.35,240.09s3.5,2.4,7,3.2c3.5,.8,7,.8,7,.8" style="fill:none; stroke:#000; stroke-linecap:round; stroke-linejoin:round; stroke-width:3.4px;"/></g></g></svg>