<?xml version="1.0" encoding="UTF-8"?><svg id="basic" xmlns="http://www.w3.org/2000/svg" xmlns:xlink="http://www.w3.org/1999/xlink" viewBox="0 0 280 280"><defs><clipPath id="clippath"><path d="M203.96,237.76s28.59-14.39,37.48-67.7c6.36-38.15,12.24-84.11-6.77-84.03-16.46,.07-10.14,29.08-16.06,65.13-4.93,30.02-17.48,51.07-17.48,51.07,0,0-12.05,32.76,2.83,35.53Z" style="fill:none;"/></clipPath><clipPath id="clippath-1"><path d="M208.21,155.53c-14.27-23.32-43.12-32.34-63-34-24-2-25-13-25-13,0,0-8.28,26-27,29-15,2.4-40,2-51,0,0,0,6.74,2,3,23-2.44,13.67,.57,33,9,53,6.14,14.58,4,29.46,4,29.46,0,0-4.03,4.63-2,9.54,2.03,4.9,9.24,5.92,15,5,5.2-.83,3-2,9-2,4.12,0,8.33,6.54,19,5,7.61-1.1,10.86-2.79,11-8,.02-.86-1.79-7.08-2-11-.29-5.5,1-9,1-9,0,0,2,4,8,7s19.85,2.93,13,6c-2.4,1.07-1.15,5.94,1,9,2.81,4,19.35,3.93,25.74,3.93,12.17,0,31.4-4.53,37.45-8,6.05-3.47,18.21-5.93,21.81-25.93,4.14-22.99,10.68-38.48-8-69Z" style="fill:none;"/></clipPath><clipPath id="clippath-2"><path d="M72.72,67.53c-9.72,0-17.84-.31-28.47,9-11.89,10.42-13.1,24.04-9.65,32.74,3.79,9.55,13.61,20.41,15.17,22.93,1.56,2.52,0,14.33,0,14.33,0,0,3.62-.15,28.43-3.82,20.2-2.99,29.81-10.8,34.55-13.38,.51-.27,.93-2.07,.39-2.28-1.26-.5-3-3-3-6,0-6.97,3.97-7.2,4.09-16.56,.13-9.36-.77-17.48-12.67-27.89-10.63-9.31-18.41-9.06-28.13-9.06h-.72Z" style="fill:none;"/></clipPath></defs><g><path d="M203.96,237.76s28.59-14.39,37.48-67.7c6.36-38.15,12.24-84.11-6.77-84.03-16.46,.07-10.14,29.08-16.06,65.13-4.93,30.02-17.48,51.07-17.48,51.07,0,0-12.05,32.76,2.83,35.53Z" style="fill:#d1a67b;"/><g style="clip-path:url(#clippath);"><g><path d="M189.56,99.3c1.28,.24,1.16-.33,2.47,.74,.56,.45,.56,1.7,1.25,2.44,.53,.57,1.48,.86,2.06,1.62,.48,.64,1.1,1.27,1.59,2.06,.43,.69,.25,1.77,.68,2.58,.39,.72,1.03,1.34,1.4,2.17,.4,.88,.4,1.83,.69,2.67,.32,.91,1.24,1.57,1.46,2.43,.24,.94-.32,1.97-.17,2.85,.16,.95,.49,1.81,.6,2.69,.12,.96,1.31,1.75,1.41,2.63,.11,.97-.56,1.99-.38,2.85,.19,.94,.61,1.79,.98,2.61s.35,2.09,1.02,2.79c.6,.63,2.19,.3,2.84,.92s.66,1.87,1.31,2.47,1.9,.58,2.53,1.2,1.03,1.51,1.61,2.17,1,1.49,1.51,2.21c.51,.72,1.14,1.41,1.53,2.2s1.02,1.56,1.27,2.42c.22,.77-.7,1.94-.45,2.83,.22,.81,.76,1.57,1.01,2.42s.24,1.75,.52,2.58,.89,1.56,1.22,2.35,.73,1.63,1.12,2.38c.42,.8,1.62,1.04,2.11,1.71,.55,.73,.42,2.04,1.07,2.54,.71,.53,1.78,.24,2.64,.41,.66,.13,1.7,.58,2.66-.07,.64-.43,1.38-1.07,2.1-1.77,.59-.58,.81-1.61,1.43-2.34,.54-.65,1.73-.87,2.28-1.62,.51-.69,.14-2.05,.64-2.82s1.87-.92,2.34-1.7,.63-1.71,1.05-2.5-.15-2.06,.23-2.87,.61-1.64,.94-2.46,1.99-1.17,2.28-2,.25-1.84,.47-2.68-.23-1.89-.09-2.75c.15-.91,.22-1.75,.25-2.61,.03-.92,1.15-1.91,1.03-2.76-.13-.91-1-1.72-1.33-2.52s-.94-1.53-1.52-2.21-1.56-.67-2.36-1.15-1.68-.85-2.41-1.32c-.79-.51-1.47-1.19-2.17-1.7-.77-.55-1.33-1.36-2-1.9-.74-.6-.68-2.01-1.3-2.61-.69-.66-1.58-.99-2.13-1.64-.62-.73-1.88-.95-2.33-1.67-.51-.82-.51-1.9-.81-2.69-.33-.89,.18-1.85,.12-2.71-.07-.91-.58-1.75-.36-2.63s.21-1.86,.66-2.68c.39-.7,1.43-1.09,2.31-1.72,.69-.5,1.56-.8,2.47-1.27,.79-.41,1.6-.86,2.5-1.25,.83-.36,1.32-1.64,2.22-2s2.08,.17,2.96-.18,1.52-1.26,2.39-1.61,2.23,.43,3.08,.06,1.78-.78,2.6-1.18c.88-.43,1.69-1.05,2.46-1.51,.86-.52,1.23-1.7,1.89-2.27,.78-.67,1.23-1.44,1.65-2.19,.47-.84,1.48-1.68,1.37-2.65-.1-.91-1.09-1.67-1.86-2.31-.62-.51-1.68-.34-2.64-.7-.78-.29-1.37-1.54-2.33-1.74-.84-.18-1.82-.02-2.77-.14-.87-.11-1.76-.52-2.71-.58-.88-.06-1.84,.56-2.77,.53s-1.8-.76-2.72-.76-1.83,0-2.75,.02-1.78,1.38-2.7,1.42-1.82-.07-2.73-.02-1.9-1.05-2.8-.99-1.76,1.26-2.65,1.32c-.93,.07-1.86-.18-2.75-.11-.94,.08-1.81,.59-2.69,.66-.96,.08-1.88,0-2.74,.08-.99,.09-1.89,.34-2.72,.42-1.07,.09-2.01,.17-2.74,.21-.83,.05-1.72-1.29-2.67-1.39-.85-.08-1.74,0-2.65-.16-.86-.16-1.86,.25-2.74,.05-.87-.19-1.69-.65-2.56-.86s-1.65-.86-2.5-1.07-1.77-.47-2.62-.65c-.92-.19-1.84-.35-2.67-.46-.98-.13-1.97-.32-2.76-.27-1.05,.06-1.92,.83-2.52,1.32s-.68,1.32-.67,2.44c0,.92-.33,1.84-.38,2.75s-.56,1.82-.63,2.71c-.08,.95,.28,1.91,.24,2.79-.04,.98-.58,1.99-.48,2.83,.12,1,1.17,1.67,1.64,2.39s.84,1.82,1.83,2.16c.73,.25,1.69,.36,2.78,.36Z" style="fill:#d28728;"/><path d="M202.4,96.41c.86,.49,1.72,1.13,2.71,1.62,.91,.46,1.79,1.09,2.75,1.56s1.94,.84,2.88,1.3c.97,.48,1.88,1.02,2.78,1.5,.98,.52,1.84,1.12,2.69,1.64,1,.61,1.96,1.06,2.65,1.67,1,.88,1.66,1.66,1.7,2.51s-.53,1.53-1.79,2.33c-.93,.59-1.75,1.35-2.73,1.76s-2.06,.71-3.12,.93-2.12,.52-3.22,.57-2.12-.48-3.22-.59c-1.04-.1-2.04-.44-3.13-.68-1.02-.22-2.13-.18-3.19-.52-1-.32-2.01-.67-3.04-1.09-.97-.39-1.88-.98-2.89-1.45s-2-1.04-2.95-1.56c-1.02-.56-2.24-.7-3.13-1.29-.98-.64-1.67-1.6-2.49-2.27-.91-.75-1.57-1.63-2.28-2.42-.79-.88-1.99-1.41-2.5-2.33-.57-1.03-.68-2.24-.86-3.3s-.33-2.27-.06-3.39c.3-1.24,1.16-1.97,1.84-2.62,.73-.7,1.54-1.01,2.81-1.02,.9,0,1.86,.29,3.08,.64,.91,.26,1.9,.57,3.02,1.02,.91,.37,1.91,.74,2.96,1.24,.91,.43,1.98,.68,3,1.21,.9,.47,2.02,.67,3.02,1.22,.9,.49,1.73,1.24,2.71,1.79Z" style="fill:#473513;"/><path d="M279.79,95.38c-.11,.87,.23,1.37-.16,2.24-.36,.79-.42,1.84-.97,2.62-.5,.71-1.1,1.47-1.73,2.17-.59,.66-1.73,.83-2.41,1.47s-1.29,1.24-2,1.83-1.41,1.12-2.14,1.68-1.39,1.17-2.14,1.69-1.76,.66-2.51,1.15-1.59,.9-2.35,1.37c-.8,.5-1.05,1.83-1.8,2.28-.83,.49-1.57,1.04-2.31,1.47-.88,.51-2.18,.07-2.88,.47-1.06,.61-1.43,1.83-1.9,2.14-.66,.44-1.82,.11-2.79,.5-.77,.3-1.26,1.65-2.23,1.95-.81,.25-1.86-.08-2.81,.17-.83,.22-1.87-.17-2.81,.07-.84,.21-1.76,.32-2.69,.54-.85,.21-1.6,.97-2.53,1.2-.86,.21-1.89-.13-2.81,.1-.86,.21-1.54,1.27-2.46,1.5-.86,.22-1.57,1.14-2.48,1.38s-1.95-.25-2.8-.03-1.85,.08-2.71,.29-1.72,.61-2.58,.82-1.7,.72-2.56,.91-1.83,.14-2.69,.31c-.91,.18-1.72,.72-2.59,.87-.91,.16-1.77,.59-2.63,.7-.92,.13-1.9-.46-2.77-.38-.92,.09-1.78,.97-2.65,1-.93,.03-1.82-1.43-2.69-1.46-.92-.04-1.82,.48-2.69,.36-1.52-.2-1.3-.33-.88-1.21,.28-.58,.45-1.39,1.4-2.16,.64-.52,1.11-1.46,1.99-2.03,.73-.47,1.94-.27,2.81-.76,.78-.44,1.06-1.91,1.94-2.35,.81-.41,1.85-.46,2.72-.86s1.73-.69,2.61-1.06,1.7-.79,2.59-1.12,2.09,.32,2.99,.01,1.5-1.43,2.4-1.7,1.69-1.01,2.59-1.25,1.97,.05,2.87-.15,1.66-.76,2.43-.97c.92-.25,1.78-.3,2.53-.57,.92-.33,1.85-.34,2.53-.69,.89-.46,1.89-.62,2.48-1.1,.77-.63,.95-1.71,1.39-2.35,.53-.78,1.43-1.23,1.84-1.95s.27-1.84,1.01-2.44c.57-.46,1.48-.52,2.47-.85,.84-.28,2.02-.46,2.82-1.11,.69-.56,.75-1.93,1.4-2.7,.59-.7,.7-1.74,1.25-2.56s1.9-1.04,2.36-1.89,.61-1.85,1.01-2.7,.83-1.74,1.18-2.6c.38-.92,1.09-1.69,1.39-2.54,.34-.99,.57-1.96,.78-2.78,.33-1.23-.3-2.28-.3-2.88,0-.68,1.58-.82,3.09-.17,.72,.31,1.16,1.55,2.1,2.07,.76,.41,1.77,.52,2.63,1.03,.78,.46,1.72,.72,2.54,1.23s1.19,1.6,1.99,2.12c.79,.51,1.94,.47,2.72,.98s1.47,1.24,2.22,1.74c.82,.55,1.99,.53,2.71,1.03,.87,.59,1.36,1.56,2.02,2.02,1.42,.99,1.02,.66,1.66,1.91Z" style="fill:#473513;"/><path d="M162.88,119.62c.97,.3,.44,.36,1.53,1.05,.49,.31,1.08,.73,1.77,1.11,.55,.3,1.14,.72,1.81,1.04,.58,.27,1.75-.68,2.41-.41,.6,.25,1.24,.39,1.91,.62,.62,.21,1.12,.83,1.8,1.01,.64,.18,1.39-.13,2.07,.02s1.07,1.63,1.76,1.74,1.41-.19,2.11-.13,1.39-.79,2.09-.77,1.31-.12,2.01-.14c.73-.02,1.5,1.28,2.22,1.25s1.4-1,2.11-1.05,1.54,1.02,2.25,.96c.74-.06,1.35-1.33,2.05-1.4,.74-.07,1.55,.85,2.25,.78,.74-.07,1.45-.34,2.14-.4,.75-.07,1.45-.29,2.13-.35,.76-.07,1.43-.94,2.1-.98,.79-.05,1.54,.46,2.19,.47,.84,0,1.7-.51,2.28-.38,.91,.21,1.38,1.18,1.54,1.82,.15,.6,.51,1.76,1.46,2,.6,.16,1.48,.1,2.32,.17,.67,.06,1.44,.06,2.22,.1,.7,.04,1.46-.31,2.22-.27,.71,.04,1.47-.32,2.22-.27,.72,.05,1.48-.05,2.22,.03s1.34,1.01,2.07,1.13,1.57-.35,2.28-.17,1.61-.07,2.3,.18,1.21,1.05,1.86,1.39c.79,.41,.73,1.29,1.02,1.83,.35,.66,.78,1.09,.51,1.82-.23,.62-1.06,.78-1.62,1.35-.48,.49-.14,2.15-.8,2.55-.61,.36-1.83-.43-2.54-.19s-1.23,1.38-1.96,1.44-1.57-.26-2.29-.4-1.4-.13-2.13-.19-1.41-.16-2.15-.18-1.43-.37-2.17-.35-1.42,.68-2.16,.7-1.45-.24-2.19-.22-1.45,.37-2.18,.38-1.43-1.4-2.17-1.42-1.52,1.46-2.26,1.41-1.29-1.67-2.02-1.77-1.61,.97-2.33,.83-1.4,.17-2.08,.12c-.72-.06-1.35-1.5-2.04-1.49s-1.43,.31-2.13,.38-1.23,1.27-1.92,1.38-1.63-1.17-2.32-1.03-1.13,1.44-1.83,1.58-1.49-.4-2.19-.27-1.35,.25-2.07,.36c-.67,.1-1.26,1.06-1.98,1.14-.68,.08-1.41,.07-2.13,.12-.68,.04-1.43-1.03-2.16-1.02-.68,.01-1.35-.21-2.08-.23s-1.41-.12-2.13-.13-1.41,1.41-2.13,1.41-1.41-.25-2.12-.25-1.41-.77-2.12-.76-1.41,1.23-2.12,1.23-1.42-.71-2.12-.71-1.41-.98-2.11-.99-1.45,.85-2.14,.82-1.43-.16-2.11-.21c-.73-.05-1.38-.64-2.05-.72-.74-.08-1.56,.68-2.21,.56-.75-.14-1.35-.72-1.96-.92-.76-.24-1.89,.26-2.4-.09-.66-.45-1.33-1.47-1.49-2.13-.14-.58,.38-1.47,.31-2.3-.06-.67,.37-1.42,.34-2.19-.03-.7-1.06-1.4-1.07-2.15s1.13-1.44,1.14-2.17-.23-1.46-.21-2.18-.92-1.51-.89-2.21c.03-.77,1.55-1.43,1.59-2.11,.04-.81-1.1-1.61-1.06-2.24,.08-1.33-.47-1.61,.59-1.82s1.15-.85,2.24-.65,1.11,.08,2.19,.28,.79,1.85,1.87,2.05,1.16-.18,2.24,.02,1.04,.46,2.13,.66,1.21-.49,2.3-.29,1.34-.55,2.38-.18,.72,1.27,1.78,1.6Z" style="fill:#473513;"/><path d="M166.39,200.09c0-.79,1.05-2.09,1.92-2.84,.6-.52,1.54-1.07,2.46-1.57,.75-.4,1.54-1.1,2.46-1.47,.81-.33,1.76-.62,2.67-.93,.85-.28,1.86-.27,2.77-.53s1.9-.03,2.81-.26c.89-.22,1.84-.24,2.75-.43s1.7-1.05,2.6-1.21,1.82-.62,2.71-.75,2.01,.8,2.9,.7c.96-.1,1.91,.24,2.78,.19,1-.06,1.9-.7,2.73-.68,.79,.01,1.73-.75,2.79-.73,.85,.01,1.78,0,2.78,.01,.88,.01,1.8,.35,2.77,.35,.89,0,1.82,1.13,2.78,1.13,.9,0,1.82-1.61,2.76-1.62s1.83,.05,2.77,.02,1.91,1.93,2.84,1.89,1.82-1,2.75-1.05,1.9,.56,2.83,.5,1.74-1.62,2.66-1.7c.94-.08,1.83-.34,2.74-.44s2.04,1.22,2.94,1.09c.94-.14,1.77-.9,2.66-1.06,.95-.18,1.7-1.02,2.56-1.23,.95-.23,2.06,.34,2.89,.06,.95-.32,2.12-.14,2.88-.53,.92-.48,1.18-1.84,1.74-2.44,.53-.56,.75-1.75,1.54-2.41,.64-.53,1.87-.49,2.64-1.07,.69-.51,1.87-.38,2.65-.91,.73-.49,1.44-1.01,2.23-1.49s1.27-1.35,2.06-1.8,1.48-1.03,2.29-1.46,1.18-1.74,1.99-2.12,1.97-.12,2.79-.47,1.68-.77,2.51-1.07c.88-.32,1.67-.94,2.51-1.18,.91-.26,2.14,1.06,2.98,.92,.95-.16,1.73-1.9,2.56-1.89,.99,0,2.2,.11,2.97,.4,.88,.33,1.95,1.26,2.47,2.01,.46,.66-.11,1.98,.02,3.02,.1,.81,.31,1.68,.4,2.62,.08,.84,.11,1.73,.18,2.65,.06,.85-.08,1.75-.03,2.66,.05,.86-.17,1.75-.13,2.66s1.1,1.72,1.12,2.62,.31,1.77,.32,2.66-1.48,1.76-1.49,2.65-.1,1.75-.13,2.64-.06,1.76-.11,2.64,1.4,1.88,1.32,2.76-.84,1.72-.94,2.59-.92,1.67-1.06,2.53,.86,1.97,.69,2.82c-.18,.89-.85,1.66-1.07,2.49-.23,.89-1.49,1.38-1.78,2.19-.31,.87,.39,2.06,.02,2.82-.41,.84-1.44,1.19-1.93,1.87-.55,.76-.17,2.33-.82,2.85s-1.42,1.1-2.21,1.61c-.71,.46-2.32-.52-3.13-.08-.76,.41-1.31,1.2-2.13,1.6s-.95,2.22-1.78,2.58-1.75,.5-2.59,.81-1.73,.52-2.58,.81-2.18-1.02-3.04-.78-1.47,1.36-2.33,1.57-1.84-.04-2.7,.14-1.59,1.39-2.46,1.52-1.86-.13-2.73-.05c-.92,.08-1.84,.01-2.69,.02-.94,0-1.73-1.12-2.57-1.21-.95-.1-1.75,.05-2.54-.19-.92-.28-1.41-.77-2.08-1.24s-2.13,.16-3.03-.27c-.76-.36-1.29-1.43-2.2-1.77-.81-.3-1.72-.49-2.62-.77-.84-.26-1.95,.34-2.85,.09s-1.82-.02-2.72-.24-1.71-.48-2.61-.67-1.74-.45-2.63-.63-1.74-.52-2.62-.68-1.63-1.28-2.51-1.42-2.01,1.05-2.89,.93c-.93-.13-1.7-1.09-2.57-1.2-.95-.12-1.76-1.02-2.61-1.11-.98-.1-1.88-.5-2.7-.56-1.08-.08-2.05-.15-2.76-.16s-1.61,.88-2.67,.86c-.8-.01-1.68-.31-2.64-.35-.84-.04-1.83,1.1-2.75,1.02-.85-.08-1.57-1.71-2.47-1.84s-1.82,.28-2.7,.1-1.53-1.04-2.39-1.29-1.95,.31-2.78-.02-2.04,.06-2.83-.36-1.2-1.59-1.93-2.1-1.09-1.45-1.74-2.06-2.08-.55-2.63-1.26-.73-1.73-1.17-2.53c-.41-.76,.22-1.98-.09-2.85-.28-.8-.86-1.5-1.05-2.4-.17-.83-.84-1.63-.92-2.55-.07-.85-.85-1.77-.84-2.69Z" style="fill:#d28728;"/><path d="M201.99,161.21c-.57-.96-2-1.53-1.13-2.11,.34-.22,1.29,.16,2.48,.3,.59,.07,1.27,.38,2.16,.59,.64,.15,1.53-.3,2.34-.06,.65,.19,1.11,1.23,1.89,1.49,.82,.27,1.77-.03,2.54,.12,.85,.17,1.67-.13,2.46-.09,.86,.04,1.68,.87,2.47,.8,.85-.08,1.68-.33,2.46-.51,.83-.19,1.65-.42,2.4-.67,.81-.28,1.72-.28,2.45-.58,.8-.33,1.31-1.28,2.03-1.56,.83-.33,1.54-1,2.27-1.15,.87-.18,1.77,.27,2.53,.54,.69,.24,1.58,.51,2.19,1.26,.49,.59,1.14,1.14,1.67,1.81,.48,.62,.39,1.72,.89,2.4s.78,1.42,1.25,2.11,1.15,1.19,1.58,1.88,.76,1.44,1.16,2.15,1.34,1.17,1.68,1.89,.87,1.48,1.15,2.22c.29,.8,.51,1.67,.67,2.43,.18,.84-.8,1.76-.81,2.53,0,.85,.32,1.61,.04,2.35s-.87,1.11-1.63,1.58c-.63,.38-1.3,.66-2.18,.88-.73,.19-1.47,.62-2.33,.73-.77,.1-1.57,.43-2.42,.48-.79,.05-1.63-.19-2.46-.17s-1.62-.02-2.45-.02c-.81,0-1.64,.21-2.45,.2s-1.64-.59-2.45-.59-1.65,.68-2.45,.69c-.85,.01-1.7-.79-2.48-.75-.87,.05-1.65,.68-2.4,.78-.9,.12-1.61,.52-2.29,.75s-1.6,.15-2.5,.28c-.76,.11-1.62-.37-2.49-.33-.79,.04-1.6,.64-2.45,.62s-1.64-.09-2.47-.16-1.68,.07-2.49-.04-1.69-.08-2.49-.24-1.6-.61-2.38-.81c-.83-.22-1.65-.45-2.38-.72-.84-.31-1.45-.96-2.11-1.33-.82-.46-1.94-.49-2.39-1.04-.59-.7-.78-1.83-.58-2.66,.17-.73,.54-1.45,.36-2.25-.16-.7-.71-1.32-1.07-2.06-.32-.66-.48-1.45-.9-2.14-.4-.64-.83-1.29-1.27-1.94s-.86-1.29-1.28-1.93-.69-1.41-1.07-2.05c-.41-.69-.55-1.45-.85-2.11-.34-.75-.72-1.33-.83-2.04-.13-.8-.32-1.47-.05-2.19,.29-.78,1-1.04,1.54-1.55s.97-.88,1.74-1.13c.68-.23,1.29-1.05,2.12-1.09,.72-.03,1.5,.34,2.31,.45,.73,.1,1.42,.49,2.2,.69,.72,.19,1.41,.45,2.17,.72,.71,.25,1.75-.27,2.48,.05s1.39,.7,2.09,1.06,1.6,.85,2.28,1.25Z" style="fill:#d28728;"/><path d="M188.46,239.58c17.44-.61,29.14-.53,39.14,0,10,.53,19.08,2.65,19.08-8.63,0-11.28-42.35,3.33-47.28,0s-24.49-6.98-24.92-1.75-3.38,10.99,13.98,10.38Z" style="fill:#d28728;"/><path d="M212.12,147.73c.61-.06,1.17-1.05,1.82-1.09,.61-.04,1.27,.25,1.91,.24s1.25,0,1.9,0,1.25,.17,1.9,.17,1.25,.07,1.9,.09,1.27-.47,1.91-.45,1.26,0,1.91,.04,1.24,.51,1.88,.54c.53,.03,1.15,.22,1.85,.25,.57,.03,1.18,.32,1.84,.36,.59,.03,1.22-.11,1.87-.07,.6,.04,1.23-.04,1.86,0s1.24-.07,1.87-.03,1.26-.21,1.88-.17,1.22,.44,1.84,.49,1.23,.28,1.84,.33,1.27-.05,1.87,0c.64,.06,1.27,.08,1.86,.15,.66,.07,1.21,.66,1.78,.74,.7,.1,1.35-.1,1.87,0,.94,.18,1.99-.13,2.17,.07,.28,.31-.07,1.39-.59,2.19-.29,.44-.87,.79-1.45,1.27-.43,.36-1.09,.47-1.7,.82-.51,.29-1.01,.61-1.65,.87-.55,.23-.91,1.13-1.56,1.33-.57,.18-1.32-.11-1.98,.03-.59,.13-1.25,.02-1.91,.12-.6,.09-1.18,.54-1.84,.6-.61,.06-1.26-.19-1.92-.16-.61,.02-1.24-.19-1.9-.19-.62,0-1.26,.44-1.92,.41s-1.28,.24-1.92,.23-1.27-.06-1.91-.06-1.28-.33-1.91-.32-1.29-.21-1.93-.19-1.29-.05-1.92-.01-1.28,.22-1.9,.27-1.3-.14-1.93-.09-1.29,.09-1.91,.15-1.24,.59-1.86,.65c-.65,.07-1.27,.27-1.89,.34-.66,.07-1.3,.15-1.9,.22-.67,.08-1.33-.08-1.93-.01-.69,.08-1.33,.1-1.9,.16-.74,.08-1.35,.52-1.87,.55-1.24,.08-1.54,0-1.32-.35,.17-.27-.92-.61-1.77-1.19-.46-.31-1.08-.54-1.65-.91-.52-.34-.87-1-1.37-1.38-.54-.4-.84-1.04-1.22-1.46-.49-.55-.67-1.03-.67-1.58,0-.52,.29-.71,.98-1.21,.41-.29,.55-1.35,1.27-1.63,.51-.2,1.16-.39,1.85-.57,.55-.15,1.36,.56,2.04,.42,.57-.11,1.12-.53,1.79-.64,.59-.09,1.19-.33,1.85-.42,.59-.08,1.22-.17,1.88-.25,.6-.07,1.28,.36,1.93,.3Z" style="fill:#473513;"/><path d="M219.68,157.11c.59-.35,1.48-.11,2.07-.38s1.08-.94,1.69-1.15,1.39-.05,2.03-.2,1.36,.14,2.01,.05c.67-.09,1.27-.46,1.93-.49s1.33-.34,1.99-.32,1.29,.63,1.95,.69,1.46-.87,2.11-.78,1.21,.93,1.85,1.05,1.35,.13,1.98,.27c.67,.15,1.36,.13,1.99,.28,.68,.16,1.41-.12,2.04,.02,.69,.15,1.14,1.39,1.75,1.48,.71,.11,1.46-.79,2.06-.79s1.25,.56,1.94,.48c.6-.07,1.22-.33,1.89-.45,.61-.11,1.21-.37,1.86-.51s1.16-.64,1.79-.79c.62-.14,1.35,.14,1.97-.01s1.23-.42,1.85-.57,1.27-.3,1.88-.45c.65-.15,1.25-.4,1.86-.53,.66-.15,1.38,.09,1.97-.02,.7-.13,1.26-.89,1.83-.96,.81-.09,1.66-.15,2.11-.04,.49,.12,1.09,.33,1.84,.47,.58,.11,1.03,1.25,1.71,1.37,.62,.11,1.41-.56,2.05-.43s1.29,.25,1.91,.4c.65,.15,1.36,.14,1.94,.32,.68,.21,1.15,.92,1.66,1.16,.78,.36,1.04,.82,1.16,1.28,.14,.51,.92,1.02,1.25,1.77,.26,.6-.04,1.46,.17,2.14s.69,1.24,.71,1.92-.34,1.21-.7,1.84c-.3,.53-.31,1.45-.98,1.9-.52,.35-1.24,.52-1.9,.78-.59,.23-1.36-.04-2.04,.14-.62,.16-1.15,.8-1.83,.92-.64,.12-1.34-.06-2.02,.04s-1.25,.66-1.92,.74c-.65,.08-1.4-.6-2.07-.53s-1.35-.12-2.02-.05-1.24,.91-1.91,.99-1.3,.36-1.95,.46-1.29,.35-1.94,.47c-.6,.11-1.39-.83-2.09-.77-.62,.06-1.25,.07-1.94,.1-.63,.02-1.27,.54-1.95,.53-.64,0-1.3,0-1.97-.03-.64-.02-1.29-.24-1.96-.29s-1.37,.74-2.03,.68-1.24-.83-1.9-.89-1.31-.04-1.97-.12-1.31-.11-1.97-.2-1.26-.47-1.91-.58-1.37,.2-2.02,.09-1.21-.71-1.86-.83-1.39,.21-2.03,.08-1.23-.57-1.87-.71-1.22-.56-1.86-.71-1.33-.11-1.96-.27-1.48,.39-2.11,.21c-.69-.19-1.14-1.04-1.74-1.24-.69-.22-1.13-.91-1.72-1.14-.68-.27-1.77,.54-2.32,.27-.67-.33-1.02-1.14-1.52-1.48-.65-.43-1.33-.71-1.72-1.14-.54-.6-.06-1.47-.16-2.03-.13-.69-.42-1.14-.03-1.72,.35-.51,.51-1.42,1.14-1.8Z" style="fill:#473513;"/><path d="M217.42,209.39c3.14,.07,6.06,2.36,9.71,2.92,3.65,.56,11.46-1.46,11.46-1.46l1.32-6.49s-11.89,1.14-12.78-1.99c-.89-3.12-12.38-10.04-12.38-10.04,0,0-4.27,14.62-4.34,15.31s7,1.75,7,1.75Z" style="fill:#d28728;"/><path d="M201.13,178.65c1.04,0,2.16,.32,2.95,.51,1,.24,1.68,.84,2.38,1.31,.8,.54,1.83,.79,2.38,1.5s.68,1.79,1.14,2.58,1.22,1.43,1.76,2.13,1,1.61,1.86,2.02c.73,.35,1.66,.3,2.74,.29,1.1-.01,2.13,.04,2.97,.33,.98,.34,1.83,.95,2.55,1.58s1.03,1.68,1.62,2.48,1.49,1.34,2.04,2.16,1.11,1.61,1.73,2.34,1.2,1.56,2.06,2.05c.92,.52,1.85,.96,2.56,1.53,.91,.73,1.28,1.72,1.68,2.41,.59,1.03,.66,1.57-.41,2.15-.61,.33-1.43,.85-2.76,.92-.9,.05-1.88-.16-2.91-.18-.94-.02-1.93,.08-2.91,.01s-1.93-.39-2.88-.48c-1.01-.09-1.97-.22-2.89-.33-1.07-.13-2.08,0-2.92-.13-1.62-.25-2.74-.41-2.87-.52-.15-.12-1.25,.44-2.8,.9-.9,.27-1.91,.72-2.92,.86s-2.16-.07-3.05-.3c-.98-.25-1.68-.92-2.12-1.96-.25-.58-.72-1.39-.87-2.47-.11-.77-.05-1.67-.12-2.61-.06-.82-.06-1.7-.09-2.61-.03-.84,.18-1.72,.17-2.61s-.21-1.73-.2-2.6,.05-1.75,.06-2.61-.04-1.77-.02-2.61c.02-.92,.07-1.8,.1-2.61,.03-.97,.36-1.84,.39-2.59,.07-1.61-1.37-1.97-.41-2.84Z" style="fill:#473513;"/><path d="M199.15,229.38c.43-1.12,0-1.16,.93-2.21,.46-.52,1.25-.82,2.04-1.26,.63-.34,1.28-.86,2.15-1.02,.71-.13,1.51,.1,2.4,.15,.94,.05,1.78-.31,2.52-.59,.81-.3,1.53-.75,2.18-1.31s1.33-1.1,1.88-1.77,1.04-1.38,1.57-2.04c.55-.7,.95-1.51,1.56-2.05,.66-.59,1.42-1.07,2.25-1.28,1.35-.35,2.29-.12,2.72,.5s.4,1.63,.39,2.79c0,.84,.06,1.79,.03,2.78-.03,.9-.15,1.83-.08,2.77s-.25,1.82-.53,2.64-.46,1.85-1.05,2.54-1.36,1.27-2.13,1.78-1.64,.85-2.49,1.17-1.75,.71-2.63,.85c-.73,.11-1.72-.14-2.76-.01-.84,.1-1.77,.12-2.72,.22-.89,.1-1.79,.41-2.7,.51s-1.85,.2-2.72,.29c-1,.1-1.94,.06-2.73,.13-1.63,.15-2.77,1.73-2.7,.37,.08-1.62,.7-1.46,1.38-2.94s.67-1.5,1.25-3.02Z" style="fill:#473513;"/><path d="M207.63,175.53c-.15-1.03,1.14-1.46,1.63-2.11s.8-1,1.75-1.33c.74-.26,1.38-1.31,2.34-1.42,.81-.09,1.73,.01,2.66,0,.84,0,1.71,.35,2.62,.4,.85,.05,1.73,.03,2.63,.13s1.79-.22,2.67-.1,1.71,.42,2.59,.56,1.84-.24,2.7-.08,1.58,1.17,2.43,1.34,1.8,.08,2.64,.26c.89,.19,1.82,.05,2.65,.23,.91,.2,1.74,.53,2.54,.7,.96,.21,1.75,.74,2.5,.9,1.2,.25,2.14-.25,2.63-.22,.58,.04,1.5,.54,2.67,.72,.78,.12,1.75-.16,2.72,0,.83,.13,1.68,.54,2.62,.68,.86,.13,1.74,.31,2.65,.43s1.69,.87,2.59,.97,1.77,.52,2.66,.6,1.83,.18,2.71,.23c.93,.05,1.87,.25,2.73,.24,.96,0,1.95-.03,2.77-.13,1.01-.12,1.71-1.35,2.44-1.63,1.01-.39,1.95-.64,2.19-1.42s.13-2.1,.86-2.83c.6-.6,1.81-.72,2.62-1.27,.74-.5,1.27-1.48,2.11-1.92s2.15,.17,2.98-.2,1.32-1.76,2.14-2.07c.95-.37,1.81-.84,2.57-1.1,1.58-.54,1.48-.66,2.46,.3s.34,.73,0,2.44c-.17,.82-1.04,1.64-1.26,2.68-.19,.9,.05,1.94-.16,2.91s-.47,1.87-.69,2.81-.69,1.85-.92,2.74c-.26,1.01,.34,2.21,.08,3.03-.38,1.23-1.61,1.79-1.93,2.28-.34,.52-.85,1.12-2.11,1.15-.77,.02-1.65-.53-2.65-.62-.83-.08-1.77,.2-2.7,.08-.86-.11-1.75-.27-2.66-.39-.88-.12-1.81,.03-2.7-.08s-1.72-1.05-2.6-1.13c-.93-.08-1.88,.13-2.73,.1-.96-.02-1.86,.46-2.68,.55-1.02,.11-1.86,.29-2.54,.64-.72,.38-1.69,.26-2.68,.46-.83,.16-1.72-.12-2.68-.06-.87,.06-1.73,.5-2.67,.49-.89,0-1.77-.52-2.69-.56s-1.88,1.27-2.78,1.21c-.92-.05-1.77-1.02-2.66-1.07s-1.84-.32-2.71-.36c-.96-.04-1.89-.19-2.74-.18-1.01,0-1.96,.38-2.74,.48-.7,.09-1.57-.23-2.64-.24-.81,0-1.73,.73-2.7,.66-.85-.06-1.79,.11-2.72,0-.86-.11-1.69-.72-2.59-.87s-1.62-.93-2.5-1.12-1.93,.39-2.79,.15-1.5-1.2-2.34-1.49-1.69-.53-2.49-.88c-.85-.37-1.59-.76-2.34-1.2-.81-.48-1.31-1.12-1.96-1.67-.72-.61-1.35-.99-1.82-1.71-.5-.77-1.82-1.2-1.95-2.09Z" style="fill:#473513;"/><path d="M238.83,134.88c-.25-1.19-.08-2.18,.52-2.67,.56-.47,1.59-.17,2.7-.19,.79-.01,1.7-.32,2.68-.17,.83,.12,1.71,.37,2.63,.57,.85,.18,1.81,.05,2.71,.27,.86,.21,1.56,1.15,2.43,1.37s1.94-.31,2.8-.1,1.76,.45,2.61,.62c.93,.19,1.76,.59,2.6,.7,.99,.13,1.86-.19,2.66-.22,1.08-.04,1.66-.15,2.25-.61s1.75-.41,2.64-.87c.73-.37,1.51-.81,2.39-1.16,.79-.32,1.58-.75,2.45-1.05,.82-.28,1.75-.31,2.61-.57,.84-.25,1.69-.53,2.55-.76s1.76-.31,2.62-.52,1.64-.87,2.49-1.06c.9-.2,1.8-.29,2.63-.45,.93-.18,1.83-.25,2.64-.38,1.01-.17,1.94,.05,2.66-.03,1.3-.15,.92-.1,.2,1.05-.37,.58-.19,1.87-.92,2.65-.55,.59-1.5,.93-2.21,1.59-.62,.57-1.03,1.49-1.74,2.08-.67,.56-1.86,.51-2.58,1.06s-1.3,1.22-2.03,1.74-1.44,1.07-2.18,1.54-1.29,1.4-2.04,1.82c-.82,.46-1.9,.35-2.66,.69-.9,.41-1.59,1.22-2.35,1.41-.77,.19-1.82-.07-2.85,.2-.84,.22-1.68,.77-2.65,1.01-.87,.21-1.84,.24-2.79,.44-.9,.19-1.76,.71-2.71,.87s-1.88,.16-2.82,.27-1.87,.5-2.81,.54-1.93,.03-2.86-.01c-.95-.05-1.91-.36-2.83-.51s-1.9-.4-2.78-.69-1.74-.82-2.55-1.29-1.59-1.04-2.28-1.7-.94-1.6-1.46-2.42c-.48-.75-.71-1.6-1.07-2.53-.32-.83-1.09-1.55-1.29-2.53Z" style="fill:#473513;"/></g></g><g><path d="M246.03,100.14c.87,5.74,.09,10.32,.05,12.76-.17,10.43-.21,33.75-4.65,55.15-4.6,22.18-13.69,42.42-18.15,51.03-2.6,5.03-4.83,8.51-6.94,11.13" style="fill:none; stroke:#000; stroke-linecap:round; stroke-linejoin:round; stroke-width:3.8px;"/><path d="M213.98,170.91c1.94-7.12,3.84-15.34,5.87-24.76,7.19-33.36-2.52-56.99,12.1-59.95,5.44-1.1,11.06,3.34,12.17,7.69" style="fill:none; stroke:#000; stroke-linecap:round; stroke-linejoin:round; stroke-width:3.8px;"/></g></g><path d="M72.67,67.53c-12.3,0-18.13,2.17-29.47,11-12.68,9.88-14.13,18.12-14,27s.9,18.17,6.57,26.33c3.78,5.44,10.43,13.67,10.43,13.67,0,0-1.7,3,25,3,20.81,0,49-15.28,49-38,0-15.4-.32-22.12-13-32-11.34-8.83-22.24-11-34.53-11Z" style="fill:#d1a67b;"/><path d="M208.21,155.53c-14.27-23.32-43.12-32.34-63-34-24-2-25-13-25-13,0,0-8.28,26-27,29-15,2.4-40,2-51,0,0,0,6.74,2,3,23-2.44,13.67,.57,33,9,53,6.14,14.58,4,29.46,4,29.46,0,0-4.03,4.63-2,9.54,2.03,4.9,9.24,5.92,15,5,5.2-.83,3-2,9-2,4.12,0,8.33,6.54,19,5,7.61-1.1,10.86-2.79,11-8,.02-.86-1.79-7.08-2-11-.29-5.5,1-9,1-9,0,0,2,4,8,7s19.85,2.93,13,6c-2.4,1.07-1.15,5.94,1,9,2.81,4,19.35,3.93,25.74,3.93,12.17,0,31.4-4.53,37.45-8,6.05-3.47,18.21-5.93,21.81-25.93,4.14-22.99,10.68-38.48-8-69Z" style="fill:#d1a67b;"/><g style="clip-path:url(#clippath-1);"><g><g><path d="M178.58,163.23c-.37,.41-.78,1.13-1.47,1.88-.48,.52-.61,1.5-1.21,2.14-.51,.54-1.34,.86-1.93,1.47-.53,.55-.98,1.22-1.55,1.81-.54,.56-.71,1.51-1.28,2.09s-.99,1.26-1.56,1.83-1.75,.5-2.32,1.06-.88,1.4-1.46,1.94-1.24,1.04-1.82,1.56c-.61,.55-1.93,.26-2.51,.76-.63,.55-.23,2.28-.82,2.75-.68,.55-1.83,.39-2.42,.8-.79,.55-1.38,1.19-1.95,1.41-.6,.24-1.6,.07-2.47,.5-.66,.33-1.32,.89-2.1,1.31-.68,.37-.95,1.56-1.7,1.99-.69,.39-1.63,.39-2.35,.82s-1.79,.19-2.5,.63-1.52,.69-2.2,1.15-.7,1.91-1.37,2.38-1.22,1.12-1.87,1.59-1.61,.61-2.23,1.11c-.67,.53-1,1.39-1.58,1.91-.66,.59-1.86,.52-2.37,1.07-.64,.69-.78,1.62-1.12,2.22-.31,.55-.85,1.41-1.7,1.97-.61,.4-1.69,.18-2.52,.57-.69,.32-1.07,1.61-1.88,1.92-.73,.28-1.84-.36-2.65-.1-.76,.24-1.46,.77-2.27,.98s-1.69-.05-2.5,.14-1.52,.73-2.32,.89-1.76-.6-2.57-.48-1.46,1.6-2.26,1.68-1.75-1.06-2.55-1.02c-.85,.05-1.64,.47-2.42,.46-.87-.01-1.72,.4-2.48,.32-.89-.1-1.8-.08-2.51-.3-.9-.27-1.44-1.12-1.97-1.6-.63-.57-1.52-1.22-1.47-2.12,.03-.73-.08-1.59,.04-2.4,.11-.74,1.2-1.34,1.38-2.13,.17-.73,.78-1.33,1.03-2.1,.23-.72-.27-1.72,.03-2.46s.89-1.29,1.26-1.99,.17-1.69,.59-2.37,.8-1.38,1.27-2.02,1.97-.38,2.49-.98,.12-2.01,.7-2.56,1.57-.58,2.19-1.07,.84-1.51,1.5-1.95,1.77-.06,2.48-.44,1.03-1.42,1.76-1.73,1.52-.43,2.28-.69,1.44-.68,2.21-.88,1.51-.51,2.29-.66,1.66,.21,2.39,.04c.79-.19,1.68,.08,2.4-.13,.78-.23,1.67-.14,2.37-.39,.77-.28,1.36-1,2.04-1.31,.74-.33,1.65-.36,2.3-.72,.71-.39,1.27-1.07,1.89-1.49,.67-.45,1.49-.74,2.07-1.23,.62-.51,.39-1.91,.92-2.45s1.67-.61,2.15-1.21,.91-1.3,1.34-1.94,.26-1.68,.66-2.35,1.83-.74,2.21-1.41-.36-2.01,.03-2.68,1.3-1.04,1.71-1.71c.38-.61,1.46-.97,1.84-1.76,.33-.67,.21-1.63,.54-2.41,.3-.7-.05-1.71,.25-2.48,.28-.72,.6-1.45,.89-2.21s1.4-1.17,1.68-1.92,.59-1.48,.87-2.23,.76-1.42,1.04-2.16,.22-1.63,.51-2.36,.39-1.58,.7-2.3,.42-1.58,.76-2.28c.36-.75,1.29-1.15,1.66-1.83,.4-.74,.38-1.66,.8-2.28,.48-.71,1.49-.84,1.99-1.37,.61-.63,.88-1.25,1.53-1.57,.74-.37,1.28-.72,2.09-.59,.68,.11,1.76-.45,2.59-.07,.67,.31,1.4,.82,2.13,1.28,.64,.4,.96,1.4,1.62,1.91,.61,.47,.72,1.56,1.34,2.11,.58,.52,1.26,.91,1.83,1.49s1.66,.6,2.2,1.21,.96,1.29,1.45,1.93,1.35,1.02,1.8,1.69,.17,1.79,.57,2.49,.46,1.53,.8,2.25,1.77,1.01,2.04,1.76-.39,1.81-.2,2.58,.78,1.48,.86,2.27-.14,1.61-.18,2.4-.58,1.47-.75,2.25-.58,1.35-.89,2.1,.33,1.91-.12,2.6c-.42,.65-1.46,.85-2.02,1.47Z" style="fill:#d28728;"/><path d="M144.71,127.79c-.56,1.08-1.4,.02-2.79,.52-.66,.24-1.74-.08-2.53,.37-.65,.37-.74,1.7-1.42,2.24-.6,.48-1.8,.36-2.38,1-.51,.57-1.21,1.15-1.68,1.87-.42,.65-.04,1.8-.4,2.58-.32,.7-.27,1.52-.52,2.34s-.87,1.52-1.09,2.28c-.24,.85-1.32,1.42-1.53,2.18-.23,.85-.05,1.76-.27,2.52-.24,.84-.9,1.46-1.18,2.22-.3,.8-.42,1.56-.81,2.29s-.89,1.26-1.43,1.94c-.49,.61-.9,1.26-1.56,1.86-.57,.52-.72,1.65-1.45,2.18-.63,.45-1.81,.18-2.57,.65-.67,.41-.8,1.85-1.58,2.28-.73,.4-1.97-.11-2.67,.33s-1.1,1.35-1.78,1.82-1.68,.53-2.33,1.02-1.14,1.25-1.79,1.76-.95,1.47-1.58,1.99-1.45,.85-2.08,1.37-1.31,1.03-1.94,1.54-1.24,1.14-1.88,1.63-1.48,.82-2.15,1.27c-.71,.47-1.44,.85-2.15,1.23-.75,.41-1.44,.88-2.19,1.17s-1.72-.15-2.52,0-1.52,.75-2.36,.71c-.77-.04-1.6,.25-2.43,.17-.78-.07-1.56-.45-2.36-.56s-1.66,.14-2.45,0-1.61-.34-2.38-.52-1.67-.23-2.41-.46c-.81-.26-1.46-.93-2.15-1.24-.8-.36-1.7-.56-2.28-1-.74-.55-1.39-1.36-1.64-2.03-.26-.7-.3-1.86,.14-2.71,.31-.58,1.22-1.01,1.94-1.66,.62-.57,1.21-1.07,1.65-1.66,.49-.67,.92-1.33,1.23-2.01,.33-.74,.21-1.59,.4-2.32,.2-.78,.55-1.49,.68-2.24,.14-.8,.18-1.6,.33-2.33,.17-.8,.61-1.49,.94-2.17s.62-1.47,1.27-1.99c.54-.43,1.13-1.23,1.99-1.51,.65-.21,1.62,.34,2.5,.23,.8-.1,1.53-.49,2.28-.7s1.66-.1,2.39-.4,1.35-.89,2.04-1.28,1.64-.42,2.29-.86,.65-1.81,1.27-2.29,1.16-1.06,1.76-1.56,1.26-.98,1.85-1.49,1.9-.25,2.49-.74c.63-.53,1.11-1.18,1.72-1.62,.67-.49,1.49-.57,2.15-.92,.74-.39,1.28-.75,2.02-.89,.85-.17,1.74-.72,2.37-1.27,.59-.52,.26-1.81,.7-2.58,.4-.68,.86-1.28,1.18-2.09,.29-.75,1.03-1.36,1.28-2.17s.33-1.64,.56-2.43,.17-1.73,.43-2.49c.28-.84,.67-1.64,1-2.34,.4-.83,1.2-1.38,1.74-1.89s1.23-1.12,2.06-1.49c.72-.32,1.54-.64,2.4-.86,.79-.2,1.61-.7,2.45-.81s1.73-.15,2.56-.18,1.73,.77,2.53,.81c.91,.04,1.87-.78,2.62-.66,1.03,.16,1.59,1.34,2.13,1.63,.49,.27,1.45,.29,2.11,.95,.49,.5,.29,1.7,.81,2.32,.48,.57,1.13,1.01,1.6,1.61s1.13,1.08,1.57,1.67c.49,.67,1.29,1.06,1.67,1.61,.79,1.11,2.15,1.24,1.63,2.25Z" style="fill:#d28728;"/><path d="M49.92,151.07c1.13,.21,1.04,.34,2.19,1.28,.49,.4,.48,1.56,1.09,2.21,.47,.5,1.27,.81,1.78,1.48,.43,.56,.95,1.14,1.39,1.84,.38,.6,.22,1.58,.6,2.29,.34,.64,.4,1.42,.73,2.15,.35,.77,1.54,1.15,1.8,1.89,.28,.8,.29,1.66,.49,2.42,.21,.82-.3,1.74-.17,2.51,.14,.84,.36,1.6,.46,2.37,.1,.85,.64,1.6,.73,2.37,.1,.85-.34,1.78-.19,2.54,.17,.83,.53,1.7,.86,2.42s1.14,1.29,1.72,1.9c.53,.56,1.67,.51,2.24,1.05s1.1,1.1,1.67,1.63,.93,1.3,1.49,1.85,1.01,1.22,1.52,1.8,.5,1.58,.95,2.21,1.74,.78,2.09,1.48,.28,1.62,.5,2.38c.2,.68,.46,1.41,.67,2.19,.2,.71,.4,1.45,.63,2.2s-.33,1.71-.09,2.44,1.42,1.12,1.71,1.82-.08,1.74,.27,2.4c.37,.71,1.53,.87,1.96,1.45,.48,.65,.4,1.77,.98,2.2,.62,.47,1.5,.53,2.25,.67,.58,.11,.93-.71,1.78-1.28,.56-.38,1.08-.79,1.71-1.41,.52-.51,1.91-.28,2.45-.93,.48-.57,.81-1.34,1.29-2,.45-.61,.39-1.61,.84-2.28s1.07-1.15,1.47-1.84,.5-1.5,.87-2.2,.71-1.38,1.05-2.09,.79-1.35,1.08-2.08,.2-1.58,.45-2.32,1.61-1.17,1.8-1.92-.88-1.8-.76-2.56c.13-.8,1.25-1.46,1.28-2.22,.03-.81-.83-1.55-.94-2.29-.11-.81-.41-1.39-.7-2.1s.18-1.89-.33-2.49-1.55-.54-2.26-.96-.89-1.63-1.53-2.05c-.7-.45-1.8-.23-2.43-.68-.68-.49-1.26-1.05-1.85-1.53-.65-.53-1.39-.92-1.94-1.44-.61-.58-1.36-1.04-1.84-1.61-.55-.65-.64-1.62-1.04-2.26-.45-.72-.82-1.44-1.08-2.14-.29-.79-1.1-1.53-1.16-2.3-.06-.81,1.24-1.52,1.43-2.3s.29-1.42,.7-2.15c.35-.62,.44-1.61,1.21-2.17,.61-.44,1.73-.16,2.53-.58,.69-.36,1.4-.72,2.2-1.07,.73-.32,1.32-1.03,2.11-1.35s1.72-.12,2.5-.42,1.19-1.5,1.95-1.81,1.63-.4,2.38-.72,1.81-.11,2.53-.46c.77-.38,1.28-1.23,1.95-1.64,.76-.46,1.76-.56,2.34-1.06,.68-.59,.62-1.75,.99-2.41,.41-.74,.3-1.31,.21-2.17-.09-.8,.49-2.03-.19-2.59-.54-.45-1.48-.85-2.33-1.17-.69-.25-1.72,.33-2.57,.15-.74-.16-1.53-.09-2.37-.2-.76-.1-1.53-.36-2.36-.42-.78-.06-1.58,.07-2.4,.04s-1.57-.88-2.39-.88-1.59,.8-2.4,.81-1.59,.15-2.4,.18-1.66-.97-2.46-.93-1.58,.77-2.37,.82-1.66-.56-2.45-.5c-.82,.06-1.57,.81-2.35,.87-.83,.07-1.69-.54-2.46-.47-.84,.07-1.6,.64-2.36,.71-.87,.08-1.73-.49-2.46-.43-.94,.08-1.73,.34-2.37,.38-.73,.04-1.44-.05-2.28-.13-.75-.07-1.53,.03-2.33-.12-.76-.14-1.44-.63-2.22-.81s-1.6-.03-2.37-.22-1.57-.27-2.32-.45-1.67,.11-2.41-.04c-.81-.17-1.52-.7-2.25-.79-.86-.12-1.64,.53-2.34,.57-.93,.05-1.96-.64-2.49-.21s-1.27,1.43-1.26,2.42c0,.81,.02,1.57-.03,2.38s1.03,1.72,.96,2.51c-.07,.84-.53,1.61-.56,2.38-.03,.87-.57,1.73-.48,2.47,.11,.88,1.26,1.26,1.68,1.89s.41,1.77,1.28,2.07c.64,.22,1.63-.46,2.59-.47Z" style="fill:#d28728;"/><path d="M49.54,140.37c-.21,.87,.54,1.77,.66,2.43,.15,.81,.17,1.75,.71,2.29,.51,.5,1.39,.73,2.16,1.05,.66,.27,1.44,.42,2.25,.58,.72,.15,1.49,.28,2.29,.36,.75,.08,1.52,.3,2.3,.34s1.55,.49,2.32,.5,1.57-.12,2.32-.12c.8,0,1.57,.26,2.31,.27,.84,.01,1.66-1.21,2.36-1.16,.93,.07,1.74,.49,2.3,.69,.91,.32,1.56,1.24,1.06,2.15-.41,.75-.74,1.51-1.14,2.04-.55,.75-1.18,1.26-1.56,1.7-.77,.91-1.49,1.45-.44,1.83,.46,.17,1.27,.23,2.29,.44,.62,.13,1.33,.43,2.19,.61,.71,.14,1.58-.07,2.44,.07,.75,.12,1.48,.77,2.31,.88,.77,.1,1.6,.05,2.42,.12,.79,.07,1.63-.27,2.44-.23s1.61,.63,2.41,.63c.81,0,1.59-.99,2.39-1.04s1.62,.05,2.39-.06c.82-.12,1.69,.09,2.44-.11,.8-.21,1.72-.22,2.43-.53,.76-.34,1.66-.71,2.27-1.18,.64-.5,.54-1.78,.97-2.45s1.17-1.2,1.34-2.03c.15-.72,.15-1.58,.09-2.45-.06-.83-.85-1.6-.82-2.32,.03-.84,.59-1.6,.73-2.3,.17-.82,.83-1.38,1.13-2.03,.34-.74,.49-1.48,.97-2.05s.8-1.44,1.42-1.91,1.16-1.15,1.86-1.52,1.5-.49,2.22-.81,1.83,.38,2.54,.07,1.01-1.49,1.72-1.82,1.4-.59,2.07-.97c.72-.41,1.63-.5,2.36-.92s1.13-1.38,1.85-1.8,2.01,.04,2.7-.4c.74-.46,1.55-.81,2.21-1.26,.75-.51,.65-2.08,1.25-2.55,.77-.61,2.26-.29,2.7-.81,.79-.92,.59-2.34-.18-2.79-.33-.19-1.37-.17-2.55,.14-.65,.17-1.55,.08-2.4,.37-.69,.23-1.39,.66-2.19,.96-.7,.26-1.24,1.07-2.01,1.38-.71,.28-1.49,.45-2.25,.76-.71,.29-1.32,.9-2.06,1.21s-1.52,.42-2.26,.74-1.47,.56-2.2,.87-1.25,1.08-1.98,1.39-1.48,.57-2.21,.88-1.41,.75-2.13,1.06-1.44,.69-2.16,1-1.75-.02-2.46,.29c-.75,.32-1.43,.75-2.14,1.04-.76,.32-1.35,.97-2.05,1.26-.78,.32-1.61,.39-2.29,.65-.83,.32-1.86-.25-2.51-.03-1.02,.34-1.52,1.94-2,1.98-.84,.06-1.71-.88-2.52-.87-.84,0-1.65,.13-2.46,.09s-1.6-.6-2.4-.68-1.65,.02-2.45-.11-1.59-.45-2.38-.61-1.67-.09-2.45-.28c-.82-.2-1.56-.58-2.34-.8s-1.7-.09-2.48-.31c-.82-.23-1.57-.62-2.33-.83-.83-.23-1.58-.69-2.35-.88-.84-.2-1.88,.85-2.65,.74-.87-.13-1.58-.4-2.35-.39-.87,.02-1.86-.82-2.6-.56s-1.09,1.39-1.73,1.97c-.56,.5-.81,1.18-1.27,1.96-.37,.64-1.48,1.01-1.78,1.87-.25,.71-.84,1.45-1.05,2.32Z" style="fill:#473513;"/><path d="M60.25,137.82c.76,.43,1.61,.79,2.49,1.23,.81,.41,1.63,.83,2.49,1.25s1.58,1.01,2.41,1.42,1.78,.66,2.58,1.08c.87,.46,1.5,1.25,2.24,1.71,.88,.54,1.87,.81,2.48,1.34,.88,.77,1.53,1.7,1.56,2.45s-.5,1.77-1.6,2.47c-.82,.52-1.77,.87-2.63,1.22s-1.91,.27-2.84,.47-1.84,.2-2.8,.24-1.86,.31-2.83,.21c-.92-.09-1.91,0-2.87-.2-.9-.2-1.72-.84-2.65-1.13-.88-.28-1.89-.27-2.8-.63-.86-.34-1.78-.64-2.67-1.05s-1.54-1.39-2.38-1.85c-.9-.49-1.7-1.02-2.49-1.54-.86-.57-1.62-1.15-2.34-1.74-.8-.66-1.71-1.1-2.33-1.8-.7-.78-1.42-1.49-1.87-2.3-.5-.91-.43-1.95-.59-2.89s-.68-1.97-.44-2.96c.27-1.1,.75-2.09,1.34-2.66,.64-.61,1.72-.89,2.83-.89,.79,0,1.79,.1,2.86,.41,.81,.23,1.76,.47,2.74,.87,.8,.33,1.46,1.2,2.39,1.64,.8,.38,1.6,.87,2.5,1.34,.8,.41,1.72,.69,2.59,1.17,.79,.44,1.77,.64,2.63,1.13Z" style="fill:#473513;"/><path d="M178.89,130.69c-.1,.76,.09,1.41-.25,2.18-.31,.69-.74,1.4-1.23,2.09-.44,.63-1.51,.76-2.07,1.38-.52,.58-.79,1.39-1.38,1.95s-1.02,1.24-1.64,1.76-.98,1.35-1.62,1.83-1.67,.43-2.33,.89-1.33,.9-1.99,1.34c-.68,.45-1.57,.55-2.23,.96-.7,.44-.72,1.96-1.38,2.36-.73,.43-1.69,.39-2.34,.77-.77,.45-1.5,.8-2.12,1.15-.93,.53-1.47,1.2-1.89,1.48-.58,.39-1.38,.74-2.24,1.08-.67,.27-1.57,.18-2.42,.44-.71,.22-1.54,.25-2.38,.47-.73,.19-1.54,.27-2.37,.48-.74,.19-1.4,.89-2.22,1.09-.75,.18-1.6,.09-2.42,.29-.75,.19-1.67-.13-2.48,.07-.76,.19-1.46,.71-2.27,.92-.76,.19-1.64,.02-2.45,.23s-1.31,1.33-2.06,1.52-1.53,.49-2.29,.68c-.79,.2-1.59,.25-2.35,.43s-1.73-.38-2.49-.21-1.46,.83-2.22,.98c-.8,.16-1.56,.38-2.32,.51-.81,.14-1.61,.1-2.38,.2-.81,.11-1.52,.91-2.29,.98-.81,.08-1.68-1.02-2.44-.99-.82,.03-1.6,1.05-2.37,1.02-.81-.03-1.66,.07-2.42-.03-1.34-.18-1.88-1.46-1.51-2.24,.25-.51,.85-1.29,1.69-1.96,.56-.45,1.31-.9,2.09-1.4,.65-.41,1.48-.66,2.25-1.09,.69-.38,1.43-.76,2.2-1.15,.71-.36,1.28-1.12,2.05-1.47s1.73-.14,2.51-.47,1.28-1.25,2.06-1.55,1.92,.45,2.7,.18,1.36-1.17,2.15-1.41,1.68-.17,2.47-.38,1.7,0,2.5-.16,1.47-.78,2.15-.96c.81-.22,1.33-1.03,1.99-1.27,.81-.29,1.65-.16,2.26-.47,.79-.4,1.36-.85,1.88-1.27,.68-.56,1.51-.84,1.89-1.4,.47-.68,.75-1.41,1.11-2.04s.67-1.25,1.31-1.78c.5-.41,.97-1.1,1.85-1.39,.74-.25,1.26-.81,1.96-1.38,.61-.5,1.03-1.14,1.61-1.82,.52-.62,1.96-.6,2.44-1.32s.81-1.51,1.22-2.25-.01-1.9,.34-2.66,1.4-1.24,1.71-2c.33-.81,.5-1.67,.76-2.42,.3-.88-.05-1.87,.14-2.59,.29-1.08,1.13-1.82,1.13-2.35,0-.6,.61-.53,1.95,.03,.64,.27,1.47,.51,2.3,.96,.67,.37,1.22,1.09,1.98,1.54,.68,.41,1.24,1.07,1.96,1.52s1.97-.03,2.67,.43,.91,1.65,1.6,2.1,1.88,.21,2.55,.66c.72,.49,1.23,1.23,1.87,1.67,.76,.52,1.25,1.29,1.84,1.7,1.25,.87,1.16,.45,1.73,1.55Z" style="fill:#473513;"/><path d="M236.59,136.84c-.1,.76-.33,.94-.67,1.7-.31,.69,.47,2.07,0,2.76-.44,.63-1.71,.68-2.26,1.3-.52,.58-1.27,.92-1.87,1.49s-1.07,1.15-1.7,1.67-.91,1.41-1.55,1.9-1.21,1.08-1.87,1.54-1.76,.28-2.42,.72-1.15,1.19-1.82,1.61c-.7,.44-1.2,1.17-1.86,1.56-.73,.43-1.58,.59-2.23,.96-.77,.45-1.34,1.09-1.95,1.44-.93,.53-2.01,.37-2.43,.65-.58,.39-.95,1.36-1.81,1.7-.67,.27-1.37,.82-2.22,1.08-.71,.22-1.47,.58-2.31,.8-.73,.19-1.54,.33-2.37,.54-.74,.19-1.82-.82-2.64-.62-.75,.18-1.44,.76-2.25,.96-.75,.19-1.54,.38-2.35,.59-.76,.19-1.66-.08-2.47,.13-.76,.19-1.27,1.43-2.08,1.64s-1.76-.42-2.52-.23-1.32,1.33-2.08,1.52-1.61,.2-2.37,.37-1.76-.5-2.52-.34-1.48,.74-2.23,.89c-.8,.16-1.61,.11-2.37,.24-.81,.14-1.55,.46-2.31,.57-.81,.11-1.59,.23-2.35,.3-.81,.08-1.59,.3-2.36,.33-.82,.03-1.58-.64-2.35-.67-.81-.03-1.67,.88-2.43,.78-1.34-.18-1.27-.89-.89-1.66,.25-.51,.87-.78,1.71-1.45,.56-.45,.64-1.73,1.42-2.22,.65-.41,1.8-.09,2.57-.52,.69-.38,1.13-1.29,1.9-1.67,.71-.36,1.23-1.23,2-1.59s1.93,.32,2.7,0,1.17-1.5,1.96-1.79,1.61-.43,2.4-.7,1.86,.4,2.65,.16,1.57-.46,2.36-.67,1.31-1.72,2.1-1.89c.81-.17,1.73,.44,2.41,.25,.81-.22,1.3-1.15,1.95-1.39,.81-.29,1.65-.14,2.26-.45,.79-.4,1.7-.42,2.21-.85,.68-.56,.86-1.45,1.25-2.01,.47-.68,.49-1.52,.85-2.15s1.21-.98,1.86-1.5c.5-.41,.93-1.33,1.81-1.62,.74-.25,1.65-.16,2.35-.73,.61-.5,.87-1.39,1.44-2.07,.52-.62,1.61-.85,2.09-1.57s1.17-1.28,1.59-2.03-.14-1.97,.22-2.73,.75-1.51,1.06-2.26c.33-.81,.47-1.64,.73-2.39,.3-.88,.89-1.56,1.08-2.28,.29-1.08,.85-1.9,.85-2.42,0-.6,.41-.05,1.74,.52,.64,.27,1.52,.32,2.35,.77,.67,.37,1.77,.13,2.53,.58,.68,.41,1.08,1.37,1.8,1.82s1.62,.53,2.32,.98,.94,1.6,1.62,2.06,1.45,.84,2.12,1.29c.72,.49,1.7,.53,2.34,.97,.76,.52,1.17,1.4,1.76,1.81,1.25,.87,1,.42,1.56,1.52Z" style="fill:#473513;"/><path d="M25.72,157.24c.86,.27,.03,1.46,.98,2.07,.43,.27,1.22,.16,1.83,.49,.48,.26,.88,.84,1.46,1.11,.51,.24,1.47-.47,2.06-.23,.53,.22,.72,1.42,1.31,1.63,.55,.19,1.4-.53,2-.37,.56,.16,1.09,.41,1.69,.54s1.05,.81,1.66,.9,1.17,.36,1.78,.42,1.22-.08,1.83-.06,1.2-.23,1.81-.25c.64-.02,1.31,.5,1.93,.47s1.29-.05,1.91-.09,1.21-1.08,1.83-1.13,1.31,.22,1.92,.16c.65-.06,1.3,.02,1.92-.04,.66-.06,1.31,.11,1.92,.05,.66-.07,1.29-.13,1.89-.18,.67-.06,1.28-.38,1.88-.42,.69-.04,1.33,.09,1.9,.1,.74,0,1.21,.64,1.72,.76,.8,.18,1.53-.21,1.67,.35,.13,.53,.58,.93,1.42,1.14,.53,.14,1.17,.38,1.91,.45,.59,.05,1.28-.43,1.97-.39,.62,.03,1.26,.27,1.93,.31,.63,.03,1.28,.1,1.94,.15s1.24,.56,1.89,.63,1.26,.17,1.9,.27,1.39-.35,2.02-.2,1.45-.12,2.05,.09,1.19,.72,1.76,1.02c.7,.36,1.44,.95,1.69,1.43,.3,.58-.11,1.51-.35,2.16-.2,.55-.12,1.57-.62,2.08-.42,.43-1.16,.83-1.74,1.18-.54,.32-1.6-.44-2.23-.23s-1.06,.91-1.71,.97-1.22-.39-1.86-.51-1.29-.17-1.94-.22-1.3,.67-1.96,.65-1.26-.32-1.91-.31-1.27-.14-1.92-.12-1.26,.27-1.91,.29-1.28-.34-1.93-.34-1.25-.49-1.9-.5-1.34,1.29-1.98,1.24-1.21-.85-1.85-.94-1.22-.39-1.85-.51-1.34,.52-1.93,.47c-.63-.06-1.22-.96-1.82-.95s-1.23,.49-1.85,.55-1.26-.04-1.87,.06-1.29-.17-1.9-.04-.95,1.46-1.57,1.59-1.35-.56-1.97-.44-1.1,.82-1.73,.91c-.59,.09-1.35-.97-1.99-.9-.6,.07-1.13,.85-1.77,.9-.6,.04-1.23-.68-1.87-.67-.6,.01-1.19,0-1.83-.02s-1.25,.6-1.89,.59-1.24,.16-1.87,.16-1.24-.06-1.87-.05-1.24,.47-1.87,.47-1.25-1.04-1.87-1.04-1.25,.46-1.87,.45-1.25-.28-1.86-.29-1.26,.2-1.87,.18-1.28,.32-1.89,.28c-.65-.04-1.27-.18-1.86-.25-.65-.07-1.35,.24-1.93,.14-.66-.12-1.35-.25-1.89-.42-.67-.21-1.4-.54-1.85-.84-.58-.39-.37-1.42-.51-1.99-.12-.51-.48-1.1-.55-1.83-.05-.59-.36-1.22-.38-1.9-.02-.61,.8-1.27,.8-1.93s-.89-1.27-.88-1.92,.56-1.27,.58-1.91-.13-1.3-.11-1.92c.03-.67-.37-1.34-.34-1.94,.04-.71-.08-1.38-.04-1.93,.07-1.18-.36-2.2,.58-2.38s.95,1.3,1.9,1.47,1.03-.21,1.98-.04,1.07-.44,2.03-.27,.85,.75,1.81,.92,.87,.67,1.83,.84,1.22-1.26,2.18-1.08,.79,.5,1.76,.46c1.07-.05,1.19,.14,2.12,.43Z" style="fill:#473513;"/><path d="M105.82,216.94c0-.69,1.11-.84,1.87-1.5,.53-.46,1.01-.96,1.82-1.4,.66-.35,1.17-1.13,1.98-1.46,.72-.29,1.3-1.11,2.11-1.38,.75-.25,1.46-.84,2.26-1.07s1.79,.39,2.59,.2,1.57-.46,2.36-.63,1.54-.71,2.34-.85,1.79,.76,2.58,.64c.83-.12,1.56-.75,2.35-.84,.85-.09,1.62-.87,2.39-.91,.88-.05,1.72,1.57,2.46,1.58,.69,.01,1.55-1.75,2.48-1.73,.75,.01,1.55,1.45,2.43,1.46,.77,0,1.6-.95,2.46-.94,.79,0,1.6-.2,2.45-.2,.8,0,1.62,1.04,2.46,1.03s1.61-.85,2.43-.87,1.64,.46,2.46,.43,1.67,.73,2.49,.68c.82-.04,1.61-.66,2.43-.71s1.68,.27,2.49,.2c.82-.07,1.66-.15,2.46-.24s1.43-1.82,2.22-1.93c.83-.12,1.65-.03,2.43-.17,.84-.16,1.58-.4,2.34-.59,.84-.21,2.03,.94,2.76,.69,.84-.29,.97-2.03,1.64-2.38,.81-.43,1.99-.04,2.48-.57,.46-.49,1.02-1.05,1.71-1.63,.56-.47,1.36-.72,2.04-1.23,.61-.45,1.42-.64,2.11-1.11,.64-.43,.53-2.06,1.23-2.49s1.31-.94,2-1.35,2.18,.68,2.89,.3,1.16-1.2,1.87-1.54,1.38-.81,2.1-1.12c.75-.32,1.15-1.52,1.88-1.79,.77-.28,1.64-.35,2.38-.56,.8-.23,1.67-.28,2.42-.41,.84-.14,1.71,.72,2.45,.73,.87,0,1.68-.39,2.36-.13,.78,.29,1.04,1.04,1.5,1.7,.41,.58,1.99,.95,2.1,1.86,.09,.72-.47,1.58-.39,2.41,.07,.74-.41,1.57-.35,2.38,.06,.75,.26,1.52,.31,2.32,.04,.76-.39,1.56-.36,2.36s-.32,1.55-.3,2.34,.57,1.53,.57,2.32-.26,1.55-.27,2.33,.59,1.57,.57,2.35,.3,1.58,.26,2.36-.39,1.55-.45,2.32-1.13,1.45-1.22,2.22-.13,1.54-.25,2.3-.23,1.52-.38,2.27c-.16,.79-.18,1.54-.37,2.27-.21,.78,.57,1.82,.32,2.53-.27,.77-1.16,1.25-1.49,1.92-.36,.74-.05,1.86-.48,2.45-.48,.67-1.18,1.25-1.76,1.71s-1.29,.87-1.99,1.33c-.63,.4-1.27,.92-1.99,1.31-.67,.36-1.5,.5-2.23,.85s-1.44,.6-2.18,.91-1.22,1.2-1.96,1.48-2.05-1.11-2.8-.87-1.3,1.02-2.05,1.24-1.19,1.67-1.95,1.86-1.57,.4-2.33,.56-1.63,.12-2.39,.23-1.73-.99-2.49-.92c-.81,.07-1.56,.23-2.31,.23-.83,0-1.61,.3-2.35,.22-.83-.09-1.36-1.06-2.06-1.26-.81-.24-1.8,.32-2.4-.1s-.87-1.64-1.67-2.02c-.67-.32-1.83,.29-2.63-.01-.71-.27-1.44-.61-2.23-.86-.74-.23-1.61-.06-2.4-.28s-1.63,.09-2.42-.1-1.35-1.16-2.14-1.33-1.53-.49-2.31-.65c-.79-.16-1.43-1.11-2.21-1.25s-1.82,1.1-2.6,.98-1.48-.98-2.26-1.09c-.82-.12-1.63-.11-2.39-.2-.83-.11-1.55-1.02-2.29-1.1-.87-.09-1.8,1.26-2.52,1.21-.95-.07-1.71-.98-2.34-.99s-1.41-.24-2.34-.25c-.71,0-1.46-.33-2.31-.37-.74-.03-1.51,.22-2.32,.15-.75-.07-1.63,.71-2.42,.6s-1.6,.01-2.38-.15-1.43-.81-2.18-1.03-1.44-.62-2.17-.91-1.23-1-1.92-1.36-1.69-.18-2.33-.63-1.64-.55-2.21-1.09-.23-1.91-.71-2.54-.79-1.23-1.17-1.93c-.36-.67-1.12-1.13-1.39-1.9-.25-.71-.32-1.48-.49-2.28-.15-.73-.29-1.48-.36-2.3-.07-.75-.44-1.52-.43-2.33Z" style="fill:#d28728;"/><path d="M165.95,182.95c0-.69-.32-1.2,.45-1.86,.53-.46,.87-1.46,1.68-1.89,.66-.35,1.81,.19,2.62-.14,.72-.29,1.54-.29,2.35-.56,.75-.25,1.41-.76,2.22-.99s1.5-.6,2.3-.8,1.33-1.5,2.13-1.67c.8-.17,1.87,1.05,2.67,.91s1.42-1.49,2.22-1.61,1.8,1.04,2.58,.96c.85-.09,1.59-.92,2.35-.97,.88-.05,1.69,.65,2.43,.67,.69,.01,1.54-1.08,2.47-1.06,.75,.01,1.56,.93,2.44,.94,.77,0,1.6-.76,2.45-.75,.79,0,1.61,.86,2.45,.85,.8,0,1.6-1.47,2.44-1.48s1.66,1.84,2.48,1.82,1.62-.59,2.44-.62c.81-.03,1.63-.26,2.45-.3s1.66,.2,2.47,.14,1.61-.6,2.41-.67,1.72,.55,2.52,.46,1.68-.06,2.47-.17c.83-.12,1.49-1.23,2.27-1.38,.84-.16,1.49-.9,2.25-1.09,.84-.21,1.89,.54,2.62,.29,.84-.29,1.85-.19,2.52-.54,.81-.43,1.52-1.19,2.01-1.72,.46-.49,.32-1.81,1.02-2.39,.56-.47,2.04,.14,2.73-.37,.61-.45,.29-2.29,.98-2.75,.64-.43,1.71-.27,2.41-.7s1-1.43,1.7-1.83,1.78-.1,2.48-.47,1.2-1.2,1.91-1.54,1.47-.68,2.2-.99,2.02,.75,2.75,.48c.77-.28,.96-2.31,1.7-2.52,.8-.23,2.01,1.47,2.75,1.35,.84-.14,1.47-.22,2.2-.21,.87,0,1.63-.73,2.32-.48,.78,.29,1.47,.64,1.93,1.3,.41,.58,.35,1.37,.46,2.28,.09,.72-.29,1.53-.21,2.36,.07,.74,.18,1.5,.25,2.31,.06,.75,.47,1.5,.51,2.3,.04,.76,.95,1.5,.98,2.3s-1.2,1.59-1.18,2.38,1.51,1.53,1.52,2.32-1.35,1.55-1.36,2.34,.35,1.56,.32,2.34-.61,1.53-.65,2.3-.05,1.55-.11,2.32,.72,1.64,.63,2.41,.06,1.61-.06,2.37-1.11,1.4-1.27,2.15c-.16,.79-.19,1.56-.39,2.29-.21,.78,.28,1.75,.04,2.46-.27,.77-.64,1.51-.97,2.18-.36,.74-.45,1.71-.88,2.31-.48,.67-1.95,.39-2.53,.86s-.78,1.48-1.48,1.93c-.63,.4-1.01,1.36-1.73,1.76-.67,.36-2-.5-2.73-.16s-.82,1.99-1.56,2.3-1.48,.59-2.22,.87-1.73-.14-2.48,.11-1.45,.67-2.2,.89-1.65-.05-2.41,.14-1.66-.27-2.42-.12-1.5,.45-2.26,.57-1.48,.95-2.24,1.02c-.81,.07-1.6,.6-2.36,.6-.83,0-1.51-1.61-2.26-1.69-.83-.09-1.95,1.53-2.65,1.33-.81-.24-1.52-1.05-2.11-1.47s-1.18-.83-1.99-1.22c-.67-.32-1.04-1.51-1.84-1.81-.71-.27-1.82,.47-2.61,.22-.74-.23-1.17-1.61-1.97-1.82s-1.67,.1-2.46-.09c-.77-.19-1.74,.51-2.53,.34-.78-.17-1.45-.85-2.23-1s-1.44-1.04-2.22-1.17-1.75,.67-2.53,.55-1.68,.38-2.46,.27c-.82-.12-1.47-1.24-2.23-1.33-.83-.11-1.63-.2-2.38-.28-.87-.09-1.7,.24-2.42,.18-.95-.07-1.74,.4-2.37,.39s-1.4-.81-2.33-.83c-.71,0-1.5-.03-2.34-.07-.74-.03-1.5-.3-2.32-.37-.75-.07-1.58,.2-2.37,.09s-1.39-.97-2.17-1.13-1.83,.86-2.58,.64-1.01-1.88-1.73-2.16-1.6-.13-2.29-.49-1.93,.11-2.57-.34-.97-1.4-1.54-1.94-.51-1.6-.99-2.23-2.04-.55-2.42-1.25c-.36-.67,.75-2.02,.48-2.78-.25-.71-1.89-1.06-2.05-1.86-.15-.73-.08-1.61-.15-2.42-.07-.75,1.38-1.57,1.39-2.38Z" style="fill:#d28728;"/><path d="M85.26,178.75c.67-1.01,.02-1.23,1.28-2.09,.57-.39,1.14-1.03,1.9-1.53,.62-.41,1.82-.06,2.55-.52,.65-.41,1.01-1.38,1.74-1.81,.67-.4,1.53-.55,2.26-.96s1.81-.02,2.53-.4,1-1.54,1.73-1.9,1.87,.18,2.6-.16,1.13-1.43,1.87-1.74,1.75,.04,2.5-.23,1.22-1.47,1.98-1.7,1.85,.7,2.62,.53c.81-.18,1.43-1.04,2.21-1.14,.83-.1,1.62-.56,2.4-.55,.84,.01,1.62,.46,2.38,.63,.74,.16,1.68-.57,2.49-.43,.75,.13,1.48,.49,2.29,.61,.76,.11,1.42,1.17,2.23,1.27s1.65-.66,2.45-.59,1.52,.7,2.31,.77c.78,.06,1.59-.11,2.39-.06s1.59-.13,2.38-.1,1.57,.44,2.36,.46,1.59,.63,2.38,.63,1.6-.75,2.38-.76,1.58-.42,2.35-.45c.82-.04,1.7,1.37,2.47,1.31,.82-.06,1.5-1.43,2.25-1.52,.83-.1,1.51-.7,2.24-.83,.86-.16,1.57-.23,2.25-.44,.9-.27,1.31-.66,1.84-1.02s1.83-.4,2.76-.41c.69,0,1.49,.65,2.34,.83,.71,.14,1.66-.23,2.45,.03,.71,.23,1.04,1.59,1.79,1.9,.7,.29,1.4,.55,2.12,.9s1.41,.6,2.1,.99,1.59,.35,2.25,.78,1.67,.36,2.31,.82,.79,1.58,1.39,2.07c.61,.5,1.81,.35,2.38,.88s.3,1.95,.82,2.51,1.97,.44,2.43,1.05,.59,1.6,.98,2.25,1.04,1.34,1.33,2.05,.38,1.65,.54,2.4-.53,1.64-.55,2.42,.07,1.57-.32,2.3c-.34,.65-.93,1.19-1.53,1.8-.52,.52-.83,1.41-1.52,1.9-.61,.43-1.09,1.27-1.81,1.68-.66,.37-2.18-.85-2.92-.5-.69,.33-1.24,.92-2,1.23-.71,.29-1.26,1.01-2.02,1.29s-1.56,.23-2.33,.48-1.39,.78-2.15,1-1.65-.11-2.42,.1-1.2,1.6-1.97,1.8-1.43,.83-2.2,1.01-1.9-1.26-2.67-1.09-1.49,.55-2.26,.7-1.33,1.45-2.1,1.6-1.86-1.39-2.64-1.25-1.52,.46-2.29,.59-1.37,1.45-2.15,1.56-1.67-.43-2.44-.32-1.45,1.14-2.22,1.24c-.8,.1-1.76-1.21-2.53-1.11s-1.58,.18-2.35,.26c-.81,.09-1.53,.76-2.29,.84-.81,.08-1.6,.19-2.35,.25-.83,.07-1.58,.6-2.33,.65-.84,.06-1.63,.39-2.36,.42-.88,.04-1.7-.78-2.39-.77-.73,0-1.43,1.11-2.3,1.22-.75,.09-1.67-.7-2.5-.55-.76,.13-1.52,.45-2.34,.61-.77,.15-1.44,.88-2.25,1.05s-1.57,.32-2.37,.47-1.57,.39-2.37,.53-1.75-.63-2.55-.51-1.59,.23-2.39,.32-1.58,.42-2.38,.48-1.62,.06-2.42,.07-1.58-.67-2.37-.72-1.59,.08-2.37-.05-1.97,1.01-2.72,.76-.83-2.23-1.53-2.6-1.46-.47-2.08-.99-.73-1.29-1.24-1.94c-.47-.61-2.48-.29-2.86-1.05-.34-.68,.56-1.97,.3-2.78-.23-.73-.91-1.36-1.07-2.2-.14-.75,.76-1.65,.68-2.5-.07-.76-1.07-1.48-1.08-2.33-.01-.77,.99-1.54,1.03-2.38,.03-.77-1.17-1.65-1.09-2.48,.07-.77-.33-1.65-.22-2.48,.1-.77,.18-1.61,.31-2.43,.13-.77,1.54-1.15,1.71-1.97Z" style="fill:#d28728;"/><path d="M59.07,195.47c-.5-.85-.67-1.31,.09-1.82,.3-.2,.86-.76,1.9-.64,.52,.06,1.16,.37,1.94,.56,.56,.13,1.12,.58,1.83,.79,.58,.17,1.3,.07,1.98,.3,.72,.24,1.28,1.05,1.95,1.18,.75,.15,1.55-.1,2.24-.06,.75,.04,1.53,.43,2.23,.36,.75-.07,1.33-1.08,2.01-1.24,.73-.17,1.35-.46,2.02-.69,.71-.25,1.73,.39,2.38,.13,.71-.29,1.14-1.17,1.77-1.42,.73-.29,1.46-.46,2.1-.59,.76-.15,1.61-.46,2.28-.22,.6,.21,.72,1.24,1.26,1.91,.43,.52,1.63,.49,2.1,1.09,.43,.55,.62,1.32,1.06,1.92s.28,1.55,.69,2.15,1.08,1,1.47,1.61,.69,1.26,1.04,1.88,1.09,1.07,1.4,1.71,.18,1.51,.42,2.17c.26,.7,.81,1.29,.96,1.96,.16,.74-.05,1.49-.06,2.17,0,.75-.04,1.44-.29,2.09s-.95,.74-1.63,1.15c-.55,.33-1.06,.63-1.83,.84-.64,.17-1.18,1.23-1.94,1.33-.68,.09-1.44,.11-2.18,.16-.7,.04-1.45-.71-2.19-.7s-1.43,.47-2.15,.47-1.44-.32-2.16-.32-1.45-.08-2.16-.08-1.47-.21-2.17-.21c-.75,0-1.46,.5-2.15,.54-.76,.04-1.43,.48-2.09,.57-.79,.11-1.64-.43-2.24-.23s-1.2,.92-2,1.03c-.67,.1-1.46-.29-2.23-.25-.7,.03-1.42,.01-2.17,0s-1.46,.33-2.2,.28-1.45-.24-2.17-.34-1.51,.07-2.22-.06-1.41-.54-2.1-.72c-.74-.19-1.37-.62-2.02-.86-.74-.27-1.5-.38-2.08-.7-.73-.4-1.59-.68-2-1.16-.52-.61-.42-1.59-.25-2.32,.15-.64,.06-1.29-.1-1.99-.14-.62-.16-1.34-.48-1.99-.28-.59-.97-.98-1.34-1.58-.35-.57-.2-1.48-.59-2.05s-1.06-.93-1.44-1.5-.78-1.14-1.12-1.71c-.37-.61-.98-1.09-1.25-1.68-.3-.66-.33-1.44-.43-2.06-.11-.7,.33-1.3,.57-1.93,.26-.69,.22-1.49,.69-1.94s1.16-.79,1.83-1.02c.6-.2,1.31-.58,2.03-.6,.64-.03,1.34,.36,2.06,.46,.64,.09,1.41-.16,2.1,.02,.63,.16,1.22,.67,1.88,.9,.62,.22,1.39,.18,2.03,.46s1.2,.66,1.82,.97,.66,1.18,1.26,1.52Z" style="fill:#d28728;"/><path d="M47.91,264.06c15.36-.54,25.68-.46,34.49,0,8.81,.46,16.81,2.34,16.81-7.6s-37.31,2.94-41.66,0c-4.34-2.94-21.58-6.15-21.96-1.54-.38,4.61-2.97,9.68,12.32,9.14Z" style="fill:#d28728;"/><path d="M68.72,182.65c.54-.05,1.12,.31,1.69,.28,.54-.03,1.09,.04,1.66,.02s1.09-.53,1.66-.54,1.1,.06,1.67,.06,1.11-.12,1.68-.11,1.11-.02,1.67,0,1.09,.59,1.65,.62,1.13-.42,1.7-.39c.47,.02,1.02,.16,1.63,.19,.51,.03,1.05,.18,1.63,.21,.52,.03,1.07-.03,1.64,0,.53,.03,1.08-.02,1.64,.01s1.08,.2,1.63,.23,1.09,.03,1.64,.07,1.12-.25,1.67-.21,1.07,.45,1.61,.5,1.15-.29,1.68-.24c.57,.06,1.06,.63,1.58,.69,.58,.07,1.12,.16,1.63,.23,.61,.08,1.14,.25,1.6,.34,.83,.16,1.22,.29,1.38,.47,.25,.28,.33,.63-.13,1.33-.25,.38-.56,.85-1.07,1.28-.38,.32-.62,1.03-1.16,1.34-.45,.26-1.14,.2-1.7,.43-.48,.2-.92,.71-1.49,.89-.51,.15-1.15,0-1.73,.13-.52,.11-1.08,.2-1.66,.29-.53,.08-1.12-.14-1.7-.09-.54,.05-1.08,.24-1.66,.26-.54,.02-1.1-.12-1.68-.13-.54,0-1.11,.23-1.69,.21s-1.12-.38-1.68-.39-1.13,0-1.69,0-1.13,.03-1.69,.04-1.14,0-1.69,.03-1.11,.6-1.66,.62-1.14-.13-1.69-.09-1.14-.05-1.69,0-1.11,.39-1.65,.44c-.58,.05-1.11,.32-1.66,.38-.58,.06-1.22-.6-1.76-.54-.58,.07-1.09,.58-1.62,.64-.59,.07-1.13,.34-1.65,.4-.61,.07-1.17,.08-1.68,.14-.65,.07-1.24-.07-1.7-.04-1.09,.07-1.3,.07-1.12-.23,.15-.24-.67-.84-1.42-1.34-.41-.27-.91-.55-1.41-.88-.46-.3-1.09-.41-1.53-.74-.47-.36-.79-.91-1.13-1.29-.44-.48-.45-1.03-.45-1.52,0-.46,.17-.75,.78-1.18,.36-.26,.62-.95,1.25-1.19,.45-.17,1.16,.25,1.77,.09,.49-.13,.88-.87,1.48-.99,.5-.1,1.13,.24,1.72,.14,.52-.08,1.1,.11,1.68,.04,.52-.07,1.05-.31,1.63-.37,.53-.06,1.05-.47,1.62-.52Z" style="fill:#473513;"/><path d="M145.22,177.61c.52-.31,1.16-.33,1.68-.57s.92-.89,1.46-1.07,1.07-.67,1.64-.81,1.32,.62,1.9,.54,1.15,.02,1.73-.01,1.14-.03,1.72,0,1.22-.73,1.8-.67,1.17,.23,1.75,.31,1.22-.03,1.78,.08,1,1.05,1.56,1.17c.59,.13,1.33-.46,1.88-.33,.59,.14,1.16,.27,1.71,.39,.61,.13,1.04,1.04,1.58,1.12,.63,.1,1.29-.31,1.82-.31s1.13,.37,1.74,.3c.53-.06,1.02-.69,1.61-.8,.54-.09,1.22,.41,1.79,.29s.9-1.13,1.46-1.26,1.28,.52,1.84,.38,.97-.85,1.51-.98,1.25,.28,1.79,.15c.57-.14,.92-1.16,1.46-1.28,.58-.13,1.26,.3,1.78,.2,.61-.12,1.19-.08,1.69-.13,.71-.08,1.16,.2,1.56,.3,.43,.11,1.09-.07,1.75,.05,.51,.1,1.01,.59,1.6,.7,.54,.1,1.25-.54,1.81-.43s1.1,.37,1.65,.5c.58,.14,1.21,.05,1.72,.2,.6,.18,1.25,.28,1.69,.49,.68,.32,.88,1.11,.99,1.51,.12,.45,.17,1.15,.46,1.81,.23,.53,.53,1.05,.72,1.65s.14,1.13,.15,1.72-.07,.99-.38,1.54c-.26,.47-.5,.81-1.09,1.2-.46,.31-.62,1.28-1.2,1.51-.52,.2-1.16,.28-1.76,.43-.54,.14-1.17,.13-1.77,.24-.56,.1-1.13,.33-1.73,.41s-1.17,.05-1.76,.12-1.22-.37-1.81-.31-1.08,.95-1.67,1.02-1.17,.06-1.75,.13-1.27-.63-1.85-.54-1.09,.7-1.66,.8c-.53,.09-1.11,.31-1.73,.36-.55,.05-1.15,.06-1.76,.08-.56,.02-1.15-.52-1.75-.52-.56,0-1.14,.08-1.73,.06s-1.17,.45-1.76,.41-1.1-.71-1.69-.76-1.2,.44-1.78,.38-1.1-.59-1.68-.66-1.24,.53-1.82,.45-1.1-.55-1.67-.64-1.1-.45-1.68-.55-1.19,.04-1.76-.06-1.13-.3-1.7-.42-1.25,.27-1.82,.15-1.12-.36-1.68-.5-1.03-.69-1.59-.83-.99-.79-1.55-.94c-.6-.17-1.28,.06-1.81-.11-.6-.2-1.29-.05-1.81-.26-.6-.24-.87-1.08-1.36-1.32-.59-.29-.99-.66-1.43-.96-.57-.38-1.41-.24-1.75-.62-.48-.53-.85-1.11-.94-1.6-.11-.61,.5-1.04,.85-1.55,.3-.45,.5-1.03,1.05-1.36Z" style="fill:#473513;"/><path d="M73.44,237.46c2.77,.06,5.34,2.08,8.56,2.57,3.21,.49,10.1-1.29,10.1-1.29l1.17-5.72s-10.48,1-11.26-1.75c-.79-2.75-10.91-8.85-10.91-8.85,0,0-3.76,12.88-3.82,13.49s6.17,1.54,6.17,1.54Z" style="fill:#d28728;"/><path d="M59.22,210.53c.92,0,1.77,.09,2.47,.26,.88,.21,1.72,.41,2.34,.82,.7,.47,1.35,1.08,1.83,1.71s.89,1.41,1.3,2.1,.68,1.52,1.16,2.13,1.09,1.16,1.84,1.52c.64,.31,1.39,.74,2.34,.73s1.71,.19,2.45,.44c.86,.3,1.86,.27,2.49,.82s1.11,1.37,1.63,2.07,1.09,1.35,1.57,2.07,.8,1.56,1.35,2.2,1.22,1.21,1.97,1.64c.81,.46,1.4,1.14,2.03,1.65,.8,.64,1.68,1.07,2.03,1.68,.52,.91,.19,1.56-.75,2.07-.54,.29-1.24,.88-2.41,.94-.79,.04-1.66-.32-2.56-.33-.83-.02-1.7,.25-2.57,.2s-1.69-.49-2.53-.57c-.89-.08-1.76,0-2.57-.1-.94-.11-1.81-.16-2.55-.28-1.43-.22-2.28-.52-2.39-.62-.13-.11-1.24,.55-2.61,.95-.79,.24-1.7,.47-2.6,.6s-1.85,.01-2.64-.19c-.87-.22-1.62-.67-2.01-1.58-.22-.51-.6-1.26-.73-2.21-.1-.68,.23-1.49,.17-2.33-.05-.72-.39-1.48-.42-2.28-.03-.74,.31-1.52,.3-2.3s-.18-1.53-.17-2.3-.26-1.55-.25-2.3,.35-1.56,.37-2.3c.02-.81-.04-1.59-.02-2.3,.03-.86,.31-1.62,.34-2.28,.06-1.42-1.04-1.57-.19-2.34Z" style="fill:#473513;"/><path d="M95.87,239.12c.38-.99,.19-.98,1-1.9,.4-.46,1.19-.62,1.88-1.01,.55-.3,1.09-.83,1.86-.97,.62-.12,1.34-.12,2.13-.08,.83,.05,1.53-.1,2.19-.35,.72-.27,1.31-.68,1.88-1.18s1.31-.84,1.79-1.43,.88-1.25,1.34-1.83c.49-.62,.97-1.17,1.51-1.65,.58-.52,1.17-.84,1.9-1.03,1.19-.3,1.96-.38,2.34,.16s.17,1.44,.16,2.46c0,.74,.05,1.57,.02,2.45-.03,.79,.05,1.62,.11,2.45s-.05,1.66-.31,2.39-.81,1.36-1.33,1.98-.94,1.36-1.62,1.81-1.47,.71-2.22,1-1.54,.6-2.32,.72c-.65,.1-1.48,.17-2.4,.28-.74,.09-1.57,.09-2.4,.18-.79,.09-1.6,.14-2.4,.22s-1.62,.29-2.39,.36c-.88,.09-1.69,.22-2.39,.28-1.44,.14-2.55,1.22-2.49,.02,.07-1.43,.59-1.33,1.11-2.67s.53-1.33,1.05-2.67Z" style="fill:#473513;"/><path d="M138.94,239.19c-.14-.91-.93-1.84-.49-2.42s1.62-.21,2.46-.5c.65-.23,1.18-1.5,2.03-1.6,.71-.08,1.57,.85,2.39,.85,.74,0,1.53-.65,2.34-.6,.75,.05,1.5,.44,2.29,.52s1.43,.9,2.2,1,1.64-.59,2.41-.46,1.4,1.02,2.15,1.15,1.55,.14,2.3,.29c.78,.15,1.49,.52,2.23,.67,.79,.16,1.54,.32,2.27,.47,.8,.17,1.65-.06,2.35,.1,.84,.19,1.62,.32,2.28,.46,1.06,.22,1.86,.71,2.29,.74,.51,.03,1.32-.18,2.35-.03,.69,.11,1.5,.13,2.35,.27,.74,.12,1.58-.14,2.4-.02,.76,.11,1.53,.33,2.33,.44s1.48,.92,2.27,1.01,1.7-1.01,2.48-.94,1.58,.03,2.35,.07c.82,.04,1.58,.56,2.34,.55,.85,0,1.72,.84,2.45,.76,.89-.1,1.69-.71,2.33-.96,.89-.34,1.68-.99,1.9-1.68s.67-1.19,1.31-1.84c.53-.53,.56-1.82,1.28-2.31,.65-.44,1.97,.17,2.71-.22s1.04-1.59,1.77-1.91,1.73-.19,2.45-.47c.84-.32,1.44-1.11,2.11-1.34,1.39-.47,1.52-1.13,2.39-.28s-.53,.84-.83,2.35c-.15,.73,.62,1.77,.43,2.68-.17,.79-1.26,1.43-1.45,2.28s0,1.74-.19,2.57-1.07,1.51-1.28,2.3c-.23,.89,.87,2.11,.64,2.83-.34,1.08-.75,2.09-1.03,2.52-.3,.46-1.65,.39-2.76,.42-.68,.02-1.51,.14-2.39,.06-.73-.07-1.42-1.08-2.24-1.18-.76-.1-1.64,.51-2.44,.41s-1.57-.14-2.36-.24-1.53-.74-2.31-.81c-.82-.07-1.64-.26-2.39-.28-.85-.02-1.64,.77-2.35,.85-.9,.1-2.02-.56-2.62-.24-.63,.33-1.09,1.11-1.96,1.28-.73,.14-1.53-.02-2.38,.03-.76,.05-1.54,.69-2.37,.69-.78,0-1.58-.29-2.39-.33-.79-.03-1.59-.15-2.39-.19s-1.58-.52-2.37-.57-1.67,.73-2.44,.69c-.84-.04-1.63,.02-2.38,.03-.89,0-1.7-.47-2.39-.38-.62,.08-1.41,.23-2.36,.22-.72,0-1.52,.01-2.37-.05-.75-.06-1.59,.22-2.41,.12-.76-.1-1.54-.34-2.34-.48s-1.54-.39-2.32-.56-1.58-.25-2.34-.46-1.35-1.03-2.09-1.28-1.63-.2-2.34-.51c-.75-.33-1.77-.17-2.43-.56-.72-.42-1.25-1.2-1.82-1.69-.64-.54-1.16-1.26-1.57-1.89-.44-.68,.07-1.64-.05-2.43Z" style="fill:#473513;"/><path d="M92.73,171.71c-.22-1.05-.33-1.61,.2-2.05,.49-.41,1.21-.87,2.19-.89,.7-.01,1.51,.19,2.38,.32,.73,.11,1.41,.78,2.23,.96,.75,.16,1.59,.03,2.38,.22s1.5,.5,2.27,.7,1.65-.03,2.41,.15,1.59,.24,2.33,.39c.82,.17,1.5,.87,2.24,.97,.87,.12,1.68-.47,2.38-.49,.95-.03,1.56-.03,2.07-.43s1.31-.75,2.1-1.14c.65-.33,1.56-.21,2.33-.53,.69-.28,1.34-.77,2.11-1.03,.72-.25,1.45-.56,2.21-.79s1.39-.83,2.15-1.03,1.63,0,2.38-.19,1.56-.3,2.31-.47c.79-.18,1.63,0,2.36-.15,.82-.16,1.57-.41,2.28-.53,.89-.15,1.6-.77,2.24-.84,1.15-.13,1.39,.78,.75,1.79-.32,.51-1.06,.96-1.71,1.65-.49,.52-1.24,.86-1.86,1.43-.55,.5-.92,1.26-1.55,1.78-.59,.49-1.11,1.1-1.74,1.59s-1.56,.52-2.2,.97-.85,1.57-1.5,1.98-1.33,.94-1.99,1.31c-.72,.41-1.51,.69-2.17,.99-.79,.36-1.75,.02-2.42,.19s-1.44,.6-2.35,.84c-.74,.2-1.52,.5-2.38,.71-.77,.19-1.57,.43-2.41,.61-.79,.17-1.58,.49-2.41,.63-.81,.14-1.66,.1-2.49,.19-.82,.09-1.67-.15-2.5-.12-.83,.04-1.65,.23-2.47,.19s-1.67-.05-2.48-.18-1.52-.69-2.3-.95-1.72-.17-2.43-.58-1.25-1.07-1.86-1.65-.89-1.3-1.35-2.03c-.43-.66-.96-1.26-1.27-2.08-.28-.73-.28-1.55-.46-2.41Z" style="fill:#473513;"/></g><path d="M107.24,206.15c-.63-.47-1.29-.94-1.46-1.86-.13-.73-.21-1.61-.07-2.52,.12-.76,.65-1.49,.95-2.33,.27-.75,.39-1.6,.79-2.37,.38-.71,.44-1.71,.93-2.4s1.16-1.26,1.74-1.88,1.19-1.23,1.83-1.76,1.78-.35,2.5-.79,1.1-1.45,1.88-1.78,1.69-.21,2.51-.41c.81-.19,1.61-.41,2.44-.49s1.65-.55,2.49-.56,1.67,.33,2.5,.39,1.65,.24,2.48,.34,1.73-.26,2.55-.13,1.57,.8,2.38,.94,1.65,.3,2.46,.43,1.72-.18,2.53-.08c.85,.1,1.62,.99,2.42,1.03,.86,.04,1.68-.79,2.48-.86,.86-.07,1.59-.23,2.36-.46s1.54-.39,2.24-.85,1.62-.35,2.34-.61,1.39-1.08,2.16-1.18,1.63,.59,2.4,.64c.81,.06,1.56,.1,2.29,.31,.8,.23,1.8,0,2.44,.37,.74,.44,1.17,1.28,1.6,1.86,.5,.67,1.08,1.45,1.04,2.24-.04,.7-.37,1.64-.95,2.37-.47,.59-1.47,.77-2.21,1.28-.63,.44-1.45,.61-2.23,.99-.71,.35-1.27,1.1-2.06,1.41-.75,.29-1.49,.72-2.29,.97s-1.67,.16-2.47,.38-1.52,.75-2.32,.94-1.77-.25-2.55-.08c-.84,.18-1.51,1.02-2.28,1.18-.88,.18-1.69,.38-2.42,.52-.99,.2-1.98-.36-2.57-.21-.74,.19-1.32,.02-2.16-.24-.72-.22-1.6-.13-2.37-.51-.72-.35-1.43-.76-2.16-1.11s-1.51-.71-2.24-.94c-.83-.26-1.55,.23-2.31,.37s-1.87-.34-2.48,.38c-.47,.54-1.05,1.12-1.61,1.78-.49,.58-.45,1.68-1.01,2.29s-1.3,.96-1.89,1.5-1,1.33-1.64,1.8-1.7,.25-2.41,.59-1.23,1.29-2.02,1.44-1.59-.22-2.41-.33c-.74-.1-1.67,.13-2.45-.22-.67-.3-1.03-1.27-1.72-1.79Z" style="fill:#473513;"/><path d="M142.54,212.59c.53,.02,1.04,.34,1.55,.35s1.07-.98,1.58-.97,1.04,.25,1.55,.25,1.04,.46,1.55,.46,1.05-.01,1.56-.02,1.05-.27,1.55-.27c.53,0,1.04-.51,1.55-.51,.53,0,1.07,1.46,1.58,1.45,.53-.01,1.05-.25,1.55-.26,.54-.01,1.02-1.31,1.52-1.32,.54-.02,1.08,.83,1.58,.82,.54-.02,1.03-.61,1.53-.63,.54-.02,1.05-.04,1.55-.06,.54-.02,1.05-.3,1.55-.31,.54-.01,1.08,1.32,1.58,1.32,.54,0,1.06-.87,1.55-.86,.54,.01,1.04,.44,1.53,.47,.54,.04,1,.35,1.48,.42,.38,.06,.96,.42,1.6,.42,.46,0,.97-1.37,1.54-1.39,.48-.01,.99,.04,1.54,.02,.49-.02,1.03,.43,1.56,.4,.5-.03,1.06,.66,1.59,.63,.5-.03,1.02-.1,1.54-.13s.99-.59,1.51-.62,1.02-.21,1.54-.24,1-.59,1.52-.62,1.06,.36,1.57,.34,1.02-.42,1.53-.45,1.04-.12,1.55-.14,1.07,.63,1.58,.62,1.04-.33,1.55-.34,1.05,.86,1.55,.86c.53,0,1.04-.26,1.55-.24,.54,.02,1.06-.23,1.55-.19,.55,.04,1.04,.25,1.52,.31,.56,.07,1.27-.84,1.72-.73,.59,.13,.82,1.22,1.2,1.42,.58,.3,.79,.5,.78,.98,0,.6-.41,1.15-.38,1.6,.04,.62,.04,1.07,.04,1.51,0,.54,.06,.7-.21,1.2-.2,.37,.23,1.24-.23,1.7-.31,.31-1.21,.06-1.67,.45-.35,.29,.01,1.58-.44,1.93-.37,.29-1.11,.19-1.56,.53-.4,.3-1.13,.14-1.57,.42s-.51,1.15-.96,1.39-1.28-.31-1.75-.1-.47,1.55-.95,1.73-1.43-1.01-1.92-.85-.59,1.61-1.09,1.74-1.02,.28-1.52,.38-1.24-1.05-1.75-.97-.96,.38-1.47,.44-.95,.73-1.47,.77-1.05-.47-1.56-.45-1.01-.14-1.52-.15-1.01-.01-1.52-.04-1.04,.31-1.55,.26-.98-.37-1.48-.45-1.15,.6-1.65,.5-.75-1.29-1.24-1.42-.96-.3-1.44-.43-1.31,.97-1.79,.83-.93-.42-1.42-.55-.78-.95-1.26-1.08-.86-.67-1.34-.81-1.33,1-1.81,.87-.96-.3-1.44-.43-.87-.62-1.36-.74-.94-.35-1.43-.47-1.07,.2-1.56,.09-.88-.67-1.37-.77-1.05,.19-1.54,.11-.99-.08-1.48-.15-.83-1.39-1.33-1.45-1.11,1.01-1.61,.97-.95-.85-1.45-.87c-.47-.02-.97-.48-1.5-.49-.48,0-1,1.01-1.52,1.01-.49,0-.99,.37-1.5,.37s-.98-1.38-1.49-1.39-1,.9-1.51,.9-1.01,.57-1.51,.56-.98-1.43-1.48-1.44-1.02,.67-1.52,.65-1.03,.43-1.52,.4-.97-.78-1.47-.81-.98-.39-1.47-.43c-.51-.04-1.01,.07-1.49,.02-.52-.06-.99-.14-1.47-.22-.52-.09-.92-.46-1.37-.56-.53-.13-1.29,.72-1.71,.56-.54-.21-.94-.67-1.25-.95-.42-.37,.04-.82,.09-1.34s-.66-1.23-.43-1.68,.99-.51,1.39-.87c.35-.32,.55-.9,1.04-1.16,.42-.22,.75-.88,1.27-1.07,.45-.16,1.12,.17,1.65,.04,.47-.11,1.04,.16,1.58,.08,.48-.08,.95-.37,1.49-.43,.49-.06,.98-.26,1.51-.3,.49-.04,.99-.57,1.52-.59,.5-.02,1.05,1.02,1.58,1.01,.5-.01,1-.15,1.53-.15s1.03-.92,1.56-.91,1.01,.7,1.54,.72Z" style="fill:#473513;"/><path d="M195.53,197.92c.53,.02,1.07-.77,1.58-.76s1.04,.17,1.55,.18,1.05-.41,1.56-.4,1.04,1.17,1.55,1.17,1.05,.04,1.56,.04,1.05-.69,1.55-.69c.53,0,1.04-.61,1.54-.62,.53,0,1.06,.88,1.57,.87,.53-.01,1.05-.07,1.55-.09,.54-.01,1.05-.14,1.55-.15,.54-.02,1.04-.38,1.54-.39,.54-.02,1.06,.28,1.56,.27,.54-.02,1.05-.22,1.54-.23,.54-.02,1.07,.6,1.57,.59,.54-.01,1.05-.71,1.54-.71,.54,0,1.05,1.04,1.54,1.05,.54,.01,1.08-.86,1.57-.82,.54,.04,.95,.8,1.43,.88,.38,.06,.99-.28,1.63-.27,.46,0,.99,.23,1.56,.21,.48-.01,1-.18,1.55-.2,.49-.02,1.02,.05,1.55,.02,.5-.03,1.03,.22,1.56,.19,.5-.03,1.02-.13,1.54-.16s.98-.68,1.51-.71,.99-.69,1.51-.72,1.1,1.09,1.62,1.06,1.01-.5,1.52-.53,1.03-.12,1.55-.15,1.03-.19,1.55-.21,1.06,.44,1.57,.42,1.05,.36,1.55,.35,1.04-.37,1.54-.37c.53,0,1.03,.44,1.53,.45,.54,.02,1.1-1.1,1.6-1.07,.55,.04,1.09,.05,1.57,.1,.56,.07,.93,.99,1.38,1.09,.59,.13,1.12,0,1.5,.19,.58,.3,.58,.56,.57,1.04,0,.6,1.12,1.06,1.15,1.51,.04,.62-.06,1.16-.06,1.6,0,.54-.14,1.28-.4,1.77-.2,.37-.93,.56-1.39,1.02-.31,.31-.31,1.11-.78,1.5-.35,.29-1.24,.03-1.7,.38-.37,.29-.72,.7-1.17,1.04-.4,.3-.51,1.11-.95,1.38s-1.46-.48-1.92-.24-.6,1.07-1.07,1.28-.9,.52-1.38,.71-.88,.65-1.37,.8-1.06,.09-1.56,.22-1.01,.22-1.52,.33-1.04,.08-1.54,.16-1.01,.22-1.52,.28-1.11-.92-1.62-.88-.96,1.11-1.47,1.13-1.03-.72-1.54-.73-1.03,.41-1.54,.38-1.09,.56-1.59,.51-.95-.8-1.45-.88-1.15,.52-1.65,.42-.97-.48-1.46-.6-.83-.8-1.31-.93-1.13,.31-1.61,.17-.81-.85-1.29-.98-1.18,.48-1.66,.34-.66-1.36-1.14-1.49-1.27,.81-1.75,.68-.8-.88-1.28-1.01-1.1,.24-1.58,.11-.98-.19-1.47-.3-.91-.47-1.4-.58-.89-.63-1.38-.73-.96-.35-1.45-.44-1.06,.23-1.55,.16-1.01,.04-1.51-.01-.94-.66-1.44-.7-1.03,.55-1.53,.53c-.47-.02-.96-.48-1.48-.49-.48,0-.98-.02-1.5-.02-.49,0-.99,.39-1.5,.39s-.99-.85-1.5-.86-1,.83-1.51,.82-.99-1-1.49-1.01-1.03,1.46-1.53,1.45-.98-.93-1.48-.95-.98-.58-1.48-.6-1,0-1.49-.03-1,0-1.49-.03c-.51-.04-1.02,.11-1.5,.05-.52-.06-.98-.23-1.45-.3-.52-.09-1.15,.53-1.61,.43-.53-.13-1.1-.14-1.52-.3-.54-.21-1.11-.52-1.43-.8-.42-.37-.32-1.13-.27-1.64s-.45-1.35-.22-1.8,1.41-.26,1.81-.63c.35-.32,.49-.96,.98-1.22,.42-.22,1.04-.05,1.56-.23,.45-.16,.68-1.3,1.21-1.43,.47-.11,1.14,.48,1.68,.4,.48-.08,.94-.62,1.47-.68,.49-.06,1.11,1.14,1.64,1.1,.49-.04,.93-1.36,1.46-1.39,.5-.02,1.02-.14,1.55-.15,.5-.01,1.02,.39,1.55,.39s1.02,0,1.55,0,1,.69,1.53,.71Z" style="fill:#473513;"/></g></g><path d="M95.21,73.53s16.8-13.68,20.92-11.25,.08,28.25,.08,28.25c0,0-7.64-5.55-11.84-9.52-3.87-3.66-9.16-7.48-9.16-7.48Z" style="fill:#473513;"/><path d="M53.21,73.53s-16.51-13.68-20.63-11.25c-4.12,2.43,2.63,28.25,2.63,28.25,0,0,4.94-5.55,9.13-9.52,3.87-3.66,8.87-7.48,8.87-7.48Z" style="fill:#473513;"/><g style="clip-path:url(#clippath-2);"><g><path d="M70.92,71.13c-.24,1.23,.1,.98-.22,2.52-.14,.7,.13,1.61-.03,2.55-.13,.76-.72,1.52-.85,2.4-.12,.79-.53,1.59-.63,2.46-.09,.81,.62,1.72,.55,2.58s-.81,1.61-.85,2.46-.31,1.68-.31,2.52,.1,1.7,.13,2.54,.47,1.67,.55,2.5,.25,1.67,.39,2.49,.46,1.62,.66,2.43,.17,1.71,.45,2.49,.62,1.59,1,2.32,.9,1.45,1.4,2.11,1.1,1.28,1.72,1.85,1.3,1.04,2.04,1.48c.69,.41,1.42,.78,2.15,1.16s1.31,1.02,2.05,1.37,1.67,.26,2.42,.58,1.31,1.12,2.07,1.41c.76,.29,1.74,0,2.5,.28s1.39,.99,2.16,1.24c.78,.25,1.57,.48,2.35,.71s1.6,.38,2.38,.58,1.6,.4,2.38,.58,1.73-.26,2.52-.11,1.54,.67,2.33,.8,1.55,.81,2.34,.91c.83,.11,1.74-.65,2.53-.58,.84,.08,1.65-.01,2.43,.02,.86,.04,1.65,.53,2.42,.52,.89-.01,1.69-.12,2.43-.2,.93-.1,1.88,.24,2.53,.03,.69-.23,1.16-1.24,1.55-2.21,.27-.67-.05-1.58,.08-2.53,.1-.76,1.04-1.54,1.06-2.45,.01-.79-.66-1.63-.72-2.51-.05-.8,.11-1.66,0-2.53-.1-.81-.5-1.6-.65-2.45s.13-1.72-.05-2.56-.68-1.56-.89-2.39-.19-1.68-.43-2.5-.87-1.48-1.13-2.29-.3-1.66-.59-2.46-.73-1.52-1.05-2.3-.12-1.79-.47-2.55-1.11-1.35-1.49-2.09-1.05-1.34-1.47-2.06-.84-1.44-1.3-2.14-.99-1.34-1.49-2-.44-1.83-.99-2.45-1.33-1.11-1.93-1.67-1.18-1.27-1.84-1.77-1.46-.91-2.19-1.32-1.59-.5-2.29-.86-1.21-1.24-1.93-1.58c-.75-.35-1.83,.09-2.56-.22s-1.23-1.34-1.97-1.61c-.78-.28-1.79,.21-2.55-.02-.8-.24-1.47-.8-2.23-.98-.81-.19-1.63-.18-2.4-.31-.83-.14-1.61-.19-2.38-.25-.84-.06-1.64-.55-2.41-.52-.85,.04-1.75-.21-2.5-.06-.84,.17-1.71,.47-2.4,.78-.78,.34-1.09,1.41-1.67,1.92-.62,.54-1.18,1.02-1.55,1.74s-1.05,1.33-1.16,2.18Z" style="fill:#d28728;"/><path d="M72.13,69.73c1.74,.59,1.53-.03,3.6,.78,.99,.39,2.38,.32,3.62,.86,1.06,.46,1.96,1.48,3.11,2.03,1.08,.52,2.51,.47,3.59,1.07s1.53,2.25,2.54,2.9c1.07,.69,2.38,.93,3.28,1.67,1.02,.84,2.44,1.28,3.13,2.17,.83,1.07,.59,2.63,.74,3.74,.14,.99-.23,2.14-.47,3.63-.18,1.12,.46,2.54,.1,3.87-.32,1.14-1.49,2.09-1.93,3.35-.4,1.14-.16,2.58-.65,3.78-.46,1.14-1.33,2.14-1.87,3.31s-1.17,2.21-1.74,3.34-.77,2.44-1.38,3.54-1.27,2.19-1.92,3.26-1.07,2.35-1.77,3.37-1.34,2.22-2.09,3.19c-.8,1.03-2.11,1.62-2.92,2.51-.89,.98-1.54,2.18-2.43,2.95-1.03,.89-2.34,1.3-3.35,1.86-.94,.52-1.96,1.51-3.27,1.77-1.09,.22-2.41-.28-3.7-.23-1.14,.05-2.3-.64-3.56-.72-1.15-.07-2.42,.65-3.65,.48-1.16-.16-2.41-.11-3.61-.36s-2.26-.88-3.44-1.19-2.31-.63-3.46-1.01-2.24-.86-3.37-1.3-2.26-.85-3.35-1.35c-1.1-.5-2.2-1.02-3.24-1.58s-1.86-1.6-2.85-2.23-2.06-1.24-2.99-1.96c-.98-.76-1.69-1.69-2.53-2.51-.89-.87-2.17-1.3-2.87-2.23-.75-.99-1.16-2.15-1.65-3.2s-.34-2.31-.54-3.48-.57-2.2-.42-3.43,.05-2.4,.22-3.54c.19-1.2,.63-2.32,.85-3.44,.23-1.2-.28-2.53,0-3.64,.3-1.19,.59-2.37,.94-3.45,.38-1.17,1.9-1.85,2.35-2.89,.49-1.14,.47-2.41,1.04-3.38,.62-1.06,1.05-2.22,1.78-3.08,.79-.93,1.76-1.65,2.68-2.34s1.93-1.42,3.04-1.87,2.28-.44,3.5-.62c1.11-.17,2.27-.64,3.52-.59,1.24,.04,2.45,.67,3.58,.56,1.23-.11,2.48-.13,3.59-.36,1.2-.25,2.27-.98,3.37-1.32,1.17-.36,2.22-.96,3.29-1.36,1.15-.42,2.24-.87,3.32-1.25,1.16-.4,2.35-.5,3.47-.75s2.31-1.13,3.49-1.1,2.09,1.32,3.28,1.73Z" style="fill:#d28728;"/><path d="M69.6,128.41c.2-1.08,.33-.7,.91-1.93,.27-.57,.2-1.43,.59-2.15,.32-.6,1.09-1.01,1.48-1.68,.36-.6,.54-1.35,.97-1.97,.4-.59,.71-1.28,1.16-1.87s.96-1.11,1.45-1.65,.99-1.09,1.53-1.58,1.11-.96,1.7-1.39,1.23-.81,1.87-1.15,1.39-.42,2.09-.63,1.37-.38,2.11-.44c.78-.07,1.52-.45,2.26-.44,.78,.01,1.51,.43,2.23,.52,.77,.1,1.5,.22,2.21,.41,.75,.2,1.56,.18,2.23,.47,.72,.31,1.37,.74,1.98,1.15,.65,.43,1.24,.93,1.76,1.45,.54,.55,1.02,1.16,1.4,1.79s.72,1.36,.93,2.08-.02,1.49-.01,2.26c0,.73,.43,1.54,.26,2.3s-.39,1.47-.59,2.18-.58,1.41-.83,2.11-.8,1.3-1.11,1.97-.59,1.37-.98,2-.9,1.17-1.38,1.73-.85,1.24-1.44,1.71-1.11,1.04-1.79,1.39c-.64,.33-1.48,.26-2.22,.49-.68,.21-1.38,.42-2.16,.54-.7,.11-1.37,.55-2.11,.68s-1.49-.07-2.22,.05-1.43,.35-2.15,.44-1.48-.05-2.2-.01-1.48,.41-2.19,.35c-.75-.06-1.44-.36-2.13-.56s-1.53-.24-2.14-.64-.97-1.1-1.44-1.71c-.41-.54-.71-1.18-1.02-1.92-.26-.62-.78-1.23-.95-2.01-.15-.66,.04-1.44-.04-2.22-.07-.68,.03-1.36,.01-2.15Z" style="fill:#d28728;"/><path d="M53.01,104.52c.73-.46,1.43-.93,2.11-1.22,.79-.34,1.71-.1,2.44-.23,.83-.15,1.58-.2,2.34-.12,.81,.08,1.63,.03,2.36,.31s1.32,.88,2,1.31,1.4,.75,2.02,1.26,1.06,1.19,1.63,1.75,1.03,1.23,1.58,1.79,1.23,1.07,1.77,1.61c.6,.6,1.45,.84,2.03,1.31,.68,.55,1.12,1.34,1.79,1.61s1.51,.05,2.29,.19c.72,.13,1.43,.5,2.21,.56s1.51-.25,2.28-.24,1.52,.48,2.26,.48,1.53,.06,2.26,.09c.8,.03,1.6-.4,2.3-.31,.83,.11,1.6,.39,2.22,.65,.77,.32,1.04,1.03,1.33,1.71,.32,.73,.53,1.4,.45,2.22-.07,.77-.11,1.58-.48,2.32-.35,.69-.89,1.31-1.48,1.87s-1.24,.96-1.98,1.3c-.7,.32-1.47,.25-2.3,.31-.75,.06-1.58,.61-2.41,.41-.91-.22-1.56-.97-2.18-1.01-.94-.06-1.67,.29-2.33,.45s-1.35,.35-2.23,.51c-.62,.11-1.33,.16-2.27,.16-.66,0-1.4,.06-2.29-.03-.68-.07-1.46-.05-2.3-.19-.72-.12-1.5-.34-2.32-.58-.73-.21-1.44-.6-2.21-.89-.72-.27-1.5-.48-2.24-.82s-1.35-.83-2.07-1.2-1.59-.43-2.27-.84-1.16-1.16-1.81-1.6-1.23-1.02-1.84-1.51-1.5-.73-2.06-1.26c-.6-.57-.83-1.43-1.31-2.02-.53-.65-1.37-1.03-1.73-1.69-.4-.75-.29-1.61-.41-2.35-.13-.8-.17-1.48,.09-2.25,.23-.7,.34-1.53,.95-2.18,.48-.52,1.07-1.14,1.82-1.61Z" style="fill:#473513;"/><path d="M74.47,65.78c.3,.05,.76,.18,1,.81,.14,.36,.22,.85,.34,1.36,.1,.41,.2,.87,.28,1.36,.07,.43,0,.91,.06,1.4,.06,.44,.32,.88,.37,1.36,.04,.45,.12,.91,.16,1.38s-.17,.93-.14,1.4,.04,.92,.05,1.39-.21,.93-.2,1.39,.06,.92,.05,1.38,.5,.93,.49,1.4-.43,.92-.45,1.38-.2,.92-.23,1.38,.13,.94,.09,1.4,.12,.96,.07,1.4c-.06,.48-.52,.88-.59,1.32-.08,.48,.38,1.04,.28,1.47-.11,.49-.36,.92-.49,1.32-.17,.5-.25,1.02-.45,1.37-.29,.49-.81,.81-1.17,.92-.43,.13-.9,.2-1.36,.28s-.91,0-1.38,.02-.9-.09-1.37-.1-.88-.22-1.34-.27-.93,.22-1.39,.14-.85-.37-1.3-.46-.9-.1-1.35-.22-.96,.06-1.41-.07-.89-.24-1.32-.39-.75-.64-1.18-.8-.95-.06-1.38-.23-.82-.14-1.25-.13-.82,.17-1.28,.22c-.41,.04-.87-.15-1.34-.16-.4,0-.82-.13-1.29-.23-.39-.08-.84-.1-1.29-.28-.37-.15-.59-.66-1.01-.9-.35-.2-.84-.21-1.23-.48-.34-.23-.85-.28-1.22-.58-.32-.26-.57-.66-.92-.97s-.42-.87-.73-1.2-.8-.5-1.09-.85-.78-.57-1.04-.94-.66-.7-.89-1.09-.13-.99-.32-1.4-.47-.81-.62-1.23c-.16-.45,.06-.97-.03-1.4-.1-.47-.32-.86-.35-1.3-.03-.48-.44-.98-.37-1.41,.08-.47,.28-.98,.5-1.37s.85-.5,1.21-.8c.3-.25,.61-.6,1.04-.91,.34-.25,.55-.77,.97-1.05,.36-.24,1-.12,1.41-.38,.38-.24,.72-.55,1.13-.8,.39-.23,.6-.78,1.02-1.02s.95-.19,1.36-.42,.7-.66,1.11-.87,.99-.08,1.41-.28,.64-.84,1.06-1.03,.91-.26,1.34-.44,1,0,1.44-.16,.9-.24,1.33-.38,.85-.41,1.28-.53,.9-.24,1.34-.34c.47-.1,.91-.26,1.35-.31,.48-.06,.93-.17,1.38-.17,.49,0,.97,.12,1.43,.13,.5,0,.97,.08,1.42,.09,.5,.02,1-.31,1.45-.29,.51,.03,.98,.2,1.42,.24,.52,.05,.96,.33,1.39,.38,.55,.07,1,.18,1.39,.24,.92,.16,.69,.12,1.37,.28Z" style="fill:#473513;"/><path d="M75.1,63.65c1.19,.21,.65,0,2.4,.1,.64,.04,1.42-.1,2.39-.13,.71-.02,1.51,.16,2.41,.09,.73-.06,1.52-.24,2.39-.35s1.71,.48,2.43,.44c.9-.05,1.67-.32,2.36-.29,.97,.03,1.76-.04,2.39,.05,1.63,.23,1.88,.49,1.92,.03,.03-.44,.48-1.12,.89-1.93,.25-.5,.39-1.08,1.35-1.37,.55-.17,1.25-.03,2.15-.06,.6-.02,1.25,.08,2.02,.75,.51,.45,1.32,.8,1.88,1.49,.46,.56,.51,1.52,.99,2.21,.43,.62,.87,1.26,1.31,1.96,.4,.65,.6,1.44,1,2.15,.38,.67,.92,1.27,1.3,1.98s.86,1.32,1.22,2.03,1.16,1.19,1.5,1.91,0,1.75,.32,2.47,.8,1.38,1.11,2.1,.46,1.53,.75,2.25,.71,1.44,.98,2.16c.29,.77,1.23,1.28,1.47,2,.27,.79,.29,1.63,.49,2.35,.24,.83-.1,1.74,.04,2.43,.19,.93,.85,1.66,.85,2.28-.01,1.2-.42,2.17-.95,2.42-.56,.27-1.61-.01-2.54-.46-.63-.3-1.05-1.2-1.77-1.7-.63-.43-1.55-.52-2.21-1.02s-1.18-1.11-1.81-1.59c-.67-.51-1.09-1.33-1.69-1.76-.76-.54-1.67-.71-2.25-.97-.83-.37-1.54-.66-2.08-1.16s-1.23-.85-1.9-1.4c-.53-.44-1.02-.92-1.87-1.31-.62-.29-1.33-.42-2.22-.66-.68-.18-1.28-1.12-2.16-1.27-.71-.12-1.57,.31-2.44,.22-.73-.07-1.53,.17-2.39,.12-.81-.04-1.51-.48-2.17-.48-.83,0-1.6-.43-2.24-.37-.86,.09-1.41,1.04-2.01,1.21-.86,.25-1.51,.28-2.02,.63-.65,.45-1.34,.64-1.92,1.06s-1.39,.65-2.33,.57c-.89-.08-1.56-.5-2.17-1.03s-1.06-1.01-.79-2.02c.19-.69-.51-1.36-.86-2.21-.28-.68-.41-1.48-.84-2.21-.4-.68-.52-1.55-.91-2.24-.42-.74-1.07-1.33-1.29-2.03-.27-.85-.02-1.56,.31-2.25s.41-1.59,.55-2.38-.05-1.71,.25-2.42,.8-1.48,1.61-1.92c.57-.31,1.39-.73,2.36-.86,.68-.09,1.52,.37,2.44,.39Z" style="fill:#473513;"/><path d="M46.27,103.35c.2-1.08,.39-.77,.96-2,.27-.57,.43-1.32,.82-2.05,.32-.6,.65-1.27,1.05-1.94,.36-.6,.88-1.15,1.3-1.78,.4-.59,.85-1.18,1.31-1.77s1.11-.97,1.6-1.51,1.01-1.04,1.54-1.53,1.11-.92,1.7-1.34,1.07-1.03,1.71-1.36,1.26-.82,1.96-1.03,1.46-.27,2.2-.33c.78-.07,1.54,.17,2.27,.18,.78,.01,1.54-.1,2.26,0,.77,.1,1.46,.46,2.17,.65,.75,.2,1.52,.25,2.19,.54,.72,.31,1.34,.74,1.95,1.14,.65,.43,1.37,.75,1.89,1.27,.54,.55,.65,1.4,1.03,2.03s.92,1.2,1.12,1.92,.19,1.45,.19,2.22c0,.73,.34,1.54,.16,2.3s-.75,1.37-.95,2.08-.52,1.41-.76,2.1-.31,1.5-.61,2.17-.66,1.36-1.05,1.99-.63,1.43-1.11,2-1.15,1.01-1.74,1.48-1.2,.92-1.88,1.28c-.64,.33-1.42,.45-2.16,.68-.68,.21-1.37,.62-2.15,.74-.7,.11-1.48-.1-2.22,.03s-1.39,.49-2.12,.62-1.51-.17-2.23-.07-1.44,.26-2.16,.3-1.46,.07-2.17,.02c-.75-.06-1.49,0-2.18-.2s-1.24-.73-1.85-1.13-1.49-.5-1.97-1.11c-.41-.54-.8-1.24-1.11-1.98-.26-.62-.4-1.38-.57-2.16-.15-.66,.04-1.44-.04-2.22-.07-.68-.35-1.42-.36-2.2Z" style="fill:#473513;"/></g></g><g><path d="M65.9,194.1s3,6.94,9.28,10.58c6.27,3.64,10.84,3.82,10.84,3.82" style="fill:none; stroke:#000; stroke-linecap:round; stroke-linejoin:round; stroke-width:3.8px;"/><path d="M79.97,218.45s1.66,3.95,2,13c.34,9.05-1,14-1,14" style="fill:none; stroke:#000; stroke-linecap:round; stroke-linejoin:round; stroke-width:3.4px;"/><path d="M116.13,81.19c0-2.58,4.73-17.03,.8-19.66-2.59-1.74-13.72,4.5-15.94,7.36" style="fill:none; stroke:#000; stroke-linecap:round; stroke-linejoin:round; stroke-width:3.4px;"/><path d="M32.58,81.19c0-2.58-4.73-17.03-.8-19.66,2.59-1.74,13.72,4.5,15.94,7.36" style="fill:none; stroke:#000; stroke-linecap:round; stroke-linejoin:round; stroke-width:3.4px;"/><path d="M47.21,144.53s-6.61,21.12-1.64,39.7c5.9,22.05,8.22,26.88,10.95,34.25s4.47,15.46,2.47,21.7c-2.02,6.27-3.08,4.35-3.02,10.27,.07,5.86,8.11,7.29,12.83,7.26,6.83-.03,9.92-2.81,9.92-2.81" style="fill:none; stroke:#000; stroke-linecap:round; stroke-linejoin:round; stroke-width:3.4px;"/><path d="M114.04,210.52c-1.55,4.6-7.24,27.84-6.07,30.93s4.28,9.63,1,14c-2.89,3.85-6,4-13,4-5.59,0-15-1-16-7" style="fill:none; stroke:#000; stroke-linecap:round; stroke-linejoin:round; stroke-width:3.4px;"/><path d="M219.21,188.53s1.73-26.25-27.24-49.07c-16.74-13.18-40.98-16.75-57.26-18.84-8.49-1.09-14.08-9.68-13.79-15.88s-2.43-15.38-3.65-19.13" style="fill:none; stroke:#000; stroke-linecap:round; stroke-linejoin:round; stroke-width:3.4px;"/><path d="M218.97,195.45s2.37,27.63-5,41c-7.37,13.37-32.7,20.4-41.3,20.77-8.6,.37-12.06,1.23-18.7,1.23-3.74,0-15.07,.63-19-1-3.43-1.42-5.77-7.07-5-11,1.24-6.29,17-12,17-12" style="fill:none; stroke:#000; stroke-linecap:round; stroke-linejoin:round; stroke-width:3.4px;"/><path d="M49.97,72.73s7.67-5.68,22.7-5.68,24.59,5.68,24.59,5.68" style="fill:none; stroke:#000; stroke-linecap:round; stroke-linejoin:round; stroke-width:3.4px;"/><path d="M34.55,85.61s-4.34,11.69-4.34,21.13c0,13.17,3.47,18.31,6.62,23.65,3.03,5.14,7.57,10.41,7.57,10.41" style="fill:none; stroke:#000; stroke-linecap:round; stroke-linejoin:round; stroke-width:3.4px;"/><path d="M116.97,239.45s3.5,2.4,7,3.2,7,.8,7,.8" style="fill:none; stroke:#000; stroke-linecap:round; stroke-linejoin:round; stroke-width:3.4px;"/></g></svg>