<?xml version="1.0" encoding="UTF-8"?><svg id="basic" xmlns="http://www.w3.org/2000/svg" viewBox="0 0 280 280"><path d="M237.2,84.7c-16.5,0-10.3,29-16.3,65.1-1.2,7-2.8,13.5-4.5,19.3-1.8-4.2-4.1-8.7-7.1-13.6-14.3-23.3-43.3-31-63-34-20.1-3.1-24-11-24-11l-1,1v-1c0-10-.1-16.3-3.7-22.2,.9-6.3,3-24-.4-26-3.3-2-14.9,6.5-19.2,9.9-7.8-3.6-15.7-4.7-24.2-4.7s-14.2,1.1-20.8,4.9c-4-3.2-15.9-12.2-19.3-10.2-3.2,1.9,.2,18,1.8,25-4.6,6.3-5.3,12.1-5.2,18.3,.1,8.9,.9,18.2,6.6,26.3,3.8,5.4,10.4,13.7,10.4,13.7,0,0-.2,.4,.6,.8-.1,3.4-.5,8-1.6,14.2-2.4,13.7,.6,33,9,53,6.1,14.6,4,29.5,4,29.5,0,0-4,4.6-2,9.5s9.2,5.9,15,5c5.2-.8,3-2,9-2,4.1,0,8.3,6.5,19,5,7.6-1.1,10.9-2.8,11-8,0-.9-1.8-7.1-2-11-.3-5.5,1-9,1-9,0,0,2,4,8,7s19.8,2.9,13,6c-2.4,1.1-1.1,5.9,1,9,2.8,4,19.4,3.9,25.7,3.9,12.2,0,31.4-4.5,37.4-8,5.7-3.3,16.8-5.6,21.1-22.5,9.1-9.2,21.7-27.1,27.1-59.1,6.5-38.1,12.6-84.1-6.4-84.1Z" style="fill:#fff;"/><g><path d="M250.3,98.6c-.2-1-1.1-1.8-2.2-1.6-1,.2-1.8,1.1-1.6,2.2,.6,4.1,.3,7.6,.1,10.1-.1,.9-.1,1.7-.1,2.3v2.3c-.2,11.4-.6,32.7-4.8,52.5-5.3,25.1-16.1,46.5-18.2,50.5-.8,1.5-1.5,2.8-2.2,4,1.6-12.3,.6-24.8,.5-25.6-.1-1-1-1.8-2.1-1.7-1,.1-1.8,1-1.7,2.1,0,.3,2.2,27.2-4.8,39.9-6.7,12.2-30.9,19.4-39.7,19.8-4,.2-6.9,.4-9.5,.7-3,.3-5.6,.5-9.1,.5h-2.7c-4.4,.1-12.7,.3-15.6-.9-2.5-1-4.5-5.7-3.9-8.9,.7-3.6,9.7-8.4,15.8-10.6,1-.4,1.5-1.4,1.1-2.4s-1.5-1.5-2.4-1.1c-.2,.1-4.1,1.5-8.3,3.8-3.2,1.7-5.6,3.4-7.3,5.1-.8,0-3.6-.1-6.4-.7-3.1-.7-6.3-2.9-6.4-2.9-.9-.6-2-.4-2.6,.5s-.4,2,.5,2.6c.2,.1,3.8,2.6,7.7,3.5,1.7,.4,3.5,.6,4.8,.7-.1,.3-.2,.6-.2,.9-.9,4.5,1.6,11.2,6.1,13.1,2.4,1,6.9,1.3,11.7,1.3,1.8,0,3.6,0,5.4-.1h2.6c3.7,0,6.4-.3,9.5-.6,2.5-.2,5.4-.5,9.3-.7,4.4-.2,13.1-2,21.8-5.7,7.3-3,16.8-8.3,21.1-16.1,1.1-2.1,2.1-4.5,2.8-7.1l.3-.3c2.3-2.9,4.6-6.5,7.2-11.4,2.1-4.1,13.1-25.8,18.5-51.4,4.3-20.1,4.7-41.6,4.9-53.2v-2.3c0-.6,.1-1.3,.1-2.1,.4-2.6,.7-6.5,0-11Z"/><path d="M87,210.4c1,0,1.8-.8,1.9-1.8,0-1-.8-1.9-1.8-2,0,0-4.3-.3-10-3.6-5.6-3.2-8.4-9.6-8.5-9.7-.4-1-1.5-1.4-2.5-1s-1.4,1.5-1,2.5c.1,.3,3.3,7.6,10.1,11.5,6.6,3.9,11.5,4.1,11.8,4.1-.1,0,0,0,0,0Z"/><path d="M81.4,247.3c.2,0,.3,.1,.5,.1,.8,0,1.6-.6,1.8-1.4,.1-.2,1.4-5.3,1.1-14.6-.4-9.3-2.1-13.5-2.1-13.7-.4-1-1.5-1.4-2.5-1s-1.4,1.5-1,2.5c0,0,1.5,3.9,1.9,12.3,.3,8.6-.9,13.4-.9,13.4-.4,1.1,.2,2.1,1.2,2.4Z"/><path d="M100.8,70.4c.8,.6,2,.5,2.7-.3,2-2.6,11.5-7.4,13.4-6.9,1.7,1.4-.3,10.6-.9,13.6-.5,2.3-.8,3.6-.8,4.4,0,1,.9,1.9,1.9,1.9s1.9-.9,1.9-1.9c0-.5,.4-2.1,.7-3.6,1.8-8.2,3-15.2-.7-17.6-4-2.7-16.3,5-18.5,7.8-.7,.8-.5,2,.3,2.6Z"/><path d="M31.6,81.2c0,1,.9,1.9,1.9,1.9s1.9-.9,1.9-1.9c0-.8-.3-2.1-.8-4.4-.7-3-2.7-12.3-.9-13.6,2-.5,11.4,4.3,13.4,6.9,.6,.8,1.8,1,2.7,.3,.8-.6,1-1.8,.3-2.7-2.1-2.8-14.4-10.5-18.4-7.7-3.7,2.5-2.5,9.4-.7,17.6,.3,1.5,.6,3.1,.6,3.6Z"/><path d="M110.7,240.8c-.7-2.8,4.3-24.5,6.1-29.7,.3-1-.2-2.1-1.2-2.4-1-.3-2.1,.2-2.4,1.2-.8,2.3-7.6,28-6,32.2,.1,.3,.2,.6,.4,1,1.2,3,3.2,8.1,.9,11.2-2.3,3.1-4.6,3.2-11.5,3.2-3.1,0-13.3-.4-14.1-5.4-.2-1-1.1-1.7-2.2-1.6-1,.2-1.7,1.2-1.6,2.2,0,.1,.1,.2,.1,.3-.3,.1-.5,.2-.7,.4-.1,.1-2.8,2.3-8.7,2.3-2.7,0-5.5-.5-7.4-1.3-3.5-1.4-3.5-3.4-3.5-4.1,0-3.1,.2-3.6,.9-4.8,.5-1,1.2-2.3,2.1-4.9,1.9-5.8,1-13.5-2.5-22.9-.4-1.2-.9-2.3-1.3-3.4-2.3-6-4.7-12.2-9.6-30.7-4.8-17.8,1.6-38.4,1.6-38.6,.3-1-.2-2.1-1.2-2.4-1-.3-2.1,.2-2.4,1.2-.3,.9-6.7,21.9-1.7,40.8,5,18.7,7.4,25,9.7,31.1,.4,1.1,.8,2.2,1.3,3.4,3.2,8.6,4,15.5,2.4,20.5-.7,2.3-1.3,3.4-1.8,4.3-.9,1.7-1.4,2.7-1.3,6.6,.1,6.8,7.9,9.1,14.6,9.1h.1c6.7,0,10.2-2.5,11-3.1,3.5,4.2,11.2,4.9,16.2,4.9,6.8,0,10.9,0,14.5-4.8,3.6-4.8,1-11.4-.4-14.9-.2-.3-.3-.6-.4-.9Z"/><path d="M120,85c-.3-1-1.4-1.5-2.4-1.2s-1.5,1.4-1.2,2.4c.9,2.8,3.8,12.3,3.6,18.4-.4,7.5,6.2,16.7,15.4,17.9,13.7,1.8,39.3,5,56.3,18.4,12.3,9.7,18.9,20.1,22.5,28.7,0,.4,.2,.9,.5,1.2,3.9,10.1,3.6,17.5,3.6,17.6-.1,1,.7,1.9,1.8,2h.1c1,0,1.8-.8,1.9-1.8,0-.6,.5-8.7-3.9-19.6,1.7-6.3,3.5-13.9,5.7-23.9,3-13.7,3.2-25.8,3.4-35.5,.2-14.6,.6-21.6,7.5-23,4.3-.8,9,2.8,9.9,6.3,.3,1,1.3,1.6,2.3,1.4,1-.3,1.6-1.3,1.4-2.3-1.3-5.3-7.9-10.4-14.4-9.1-10.2,2-10.4,12.4-10.6,26.7-.1,9.5-.3,21.4-3.3,34.7-1.7,7.6-3.1,13.9-4.5,19.2-4.1-8-10.7-17-21.6-25.6-17.8-14.1-44.1-17.4-58.2-19.2-7.8-1-12.4-8.9-12.1-13.9,.4-6.6-2.4-16-3.7-19.8Z"/><path d="M49.4,73.9c.6,.8,1.8,1,2.7,.4,.1-.1,7.4-5.3,21.6-5.3s23.5,5.4,23.6,5.4c.3,.2,.6,.3,1,.3,.7,0,1.3-.3,1.6-.9,.5-.9,.2-2.1-.7-2.6-.4-.2-10.4-5.9-25.5-5.9s-23.5,5.8-23.8,6c-.9,.5-1.1,1.7-.5,2.6Z"/><path d="M45.4,142.7c.4,0,.9-.2,1.2-.5,.8-.7,.9-1.9,.2-2.7,0-.1-4.5-5.2-7.4-10.1l-.5-.8c-2.9-4.9-5.9-9.9-5.9-21.9,0-9,4.2-20.4,4.2-20.5,.4-1-.1-2.1-1.1-2.4-1-.4-2.1,.1-2.4,1.1-.2,.5-4.5,12.1-4.5,21.8,0,13,3.4,18.8,6.4,23.8l.5,.8c3.1,5.2,7.6,10.5,7.8,10.7,.4,.5,.9,.7,1.5,.7Z"/></g></svg>